<?xml version="1.0" encoding="utf-8"?>
<!-- Generator: Adobe Illustrator 19.0.0, SVG Export Plug-In . SVG Version: 6.00 Build 0)  -->
<svg version="1.1" id="Layer_1" xmlns="http://www.w3.org/2000/svg" xmlns:xlink="http://www.w3.org/1999/xlink" x="0px" y="0px"
	 viewBox="0 0 960 560" style="enable-background:new 0 0 960 560;" xml:space="preserve">
<style type="text/css">
	.st0{fill:#1CAC4B;}
</style>
<g>
	<path class="st0" d="M514.8,324.5c2-7,11.9-24.5,24.4-25.8c19.5-2.1,23.7,10.5,25.8,18.8c2.6,10.3,2.8,32.8,2.8,32.8
		s14.7-12.6,12.6-33.5c-2.4-23.9-25.8-44-63.5-31.4c-8.5,2.8-16.5,8.7-23.8,16.4c0.7,16.7-6.8,49.5,4.5,63.2
		C499.4,367.2,510.1,341.3,514.8,324.5z"/>
	<path class="st0" d="M463.8,364.3c24.2,9.2-14.1-67.8-7.5-95c-10.2-17.3-29.5-30.1-40.4-32.7c-26.5-6.3-51.6,27.2-51.6,27.2
		s28.6-6.3,41.9-2.1c13.3,4.2,24.3,32.8,32.8,55.8C447.4,340.5,457.8,362,463.8,364.3z"/>
	<path class="st0" d="M595.2,238.7c-0.6-5-9.1-32.8-27.2-41.9c-21.7-10.9-81.7,4.2-101.9,37.7c-5.8,9.7-9.9,20.3-12.6,31.3
		c-6.6,27.2-4.7,57.1,0.8,82.4c4.1,18.9,19,25.1,31.2,23.1c10.7-1.7,18-8.5,16.9-21c-1.5-17.5-5.7-35.3-6.4-52
		c-1-24.7,1.1-46.3,5.7-57.5c6.9-16.9,27.2-30.8,48.2-30C584.7,212.1,595.9,244.9,595.2,238.7z"/>
</g>
</svg>
