<?xml version="1.0" encoding="UTF-8" standalone="no"?>
<svg width="1440px" height="289px" viewBox="0 0 1440 289" version="1.1" xmlns="http://www.w3.org/2000/svg" xmlns:xlink="http://www.w3.org/1999/xlink" xmlns:sketch="http://www.bohemiancoding.com/sketch/ns">
    <!-- Generator: Sketch 3.3.2 (12043) - http://www.bohemiancoding.com/sketch -->
    <title>hills.png</title>
    <desc>Created with Sketch.</desc>
    <defs></defs>
    <g id="Welcome" stroke="none" stroke-width="1" fill="none" fill-rule="evenodd" sketch:type="MSPage">
        <g id="Desktop-HD" sketch:type="MSArtboardGroup" transform="translate(0.000000, -4398.000000)">
            <g id="hills.png" sketch:type="MSLayerGroup" transform="translate(0.000000, 4398.000000)">
                <path d="M0.665973678,0 C0.665973678,0 258.971314,7.94377648 609.852834,92.3097586 C960.734353,176.675741 1202.62862,289 1202.62862,289 L0.665973678,289 L0.665973678,0 Z" id="Rectangle-24" fill="#47B871" sketch:type="MSShapeGroup"></path>
                <path d="M200.820237,38 C200.820237,38 466.925997,44.8992661 828.403594,118.172143 C1189.88119,191.445021 1439.08029,289 1439.08029,289 L200.820237,289 L200.820237,38 Z" id="Rectangle-24-Copy" fill="#6AE496" sketch:type="MSShapeGroup" transform="translate(819.950262, 163.500000) scale(-1, 1) translate(-819.950262, -163.500000) "></path>
                <path d="M719.873131,199.638904 C1159.69394,199.638904 1439.08029,289 1439.08029,289 L0.665973678,289 C0.665973678,289 280.052318,199.638904 719.873131,199.638904 Z" id="Rectangle-24-Copy-3" fill="#5AD286" sketch:type="MSShapeGroup"></path>
            </g>
        </g>
    </g>
</svg>