<?xml version="1.0" encoding="UTF-8" standalone="no"?>
<svg width="227px" height="288px" viewBox="0 0 227 288" version="1.1" xmlns="http://www.w3.org/2000/svg" xmlns:xlink="http://www.w3.org/1999/xlink" xmlns:sketch="http://www.bohemiancoding.com/sketch/ns">
    <!-- Generator: Sketch 3.3.3 (12081) - http://www.bohemiancoding.com/sketch -->
    <title>Slice 1</title>
    <desc>Created with Sketch.</desc>
    <defs></defs>
    <g id="Page-1" stroke="none" stroke-width="1" fill="none" fill-rule="evenodd" sketch:type="MSPage">
        <g id="trees" sketch:type="MSLayerGroup">
            <circle id="XMLID_2_" fill="#03B745" sketch:type="MSShapeGroup" cx="113.5" cy="113.5" r="113.5"></circle>
            <path d="M132,287.7 L97.6,287.7 L106.6,163.8 L115.4,162.9 L123.3,220.3 L132,287.7 Z" id="XMLID_1_" fill="#824438" sketch:type="MSShapeGroup"></path>
            <path d="M105.7,226.1 L59.2,150.4 C58.4,149.1 60.1,147.8 61.1,148.9 L113.5,205.4 C113.8,205.7 113.9,206.2 113.8,206.6 L107.9,225.8 C107.5,226.8 106.2,227 105.7,226.1 L105.7,226.1 Z" id="XMLID_3_" fill="#824438" sketch:type="MSShapeGroup"></path>
            <path d="M114.2,229.9 L170.2,167.3 C171.1,166.3 170.1,164.7 169,165.5 L112.5,208.8 C112.2,209 112,209.5 112,209.9 L112.4,229.2 C112.6,230.2 113.6,230.6 114.2,229.9 L114.2,229.9 Z" id="XMLID_5_" fill="#824438" sketch:type="MSShapeGroup"></path>
            <path d="M123.4,227 L103.6,218.1 L109.3,109.5 C109.4,108.3 111.2,108.2 111.3,109.4 L123.4,227 L123.4,227 Z" id="XMLID_4_" fill="#824438" sketch:type="MSShapeGroup"></path>
        </g>
    </g>
</svg>