<svg width="473" height="740" viewBox="0 0 473 740" fill="none" xmlns="http://www.w3.org/2000/svg">
<path d="M9.7914 421.947L24.2766 397.875L0 383.737L27.2614 376.958L20.092 349.794L44.1579 364.283L58.292 340L65.0693 367.269L92.2254 360.092L77.7402 384.17L102.017 398.302L74.7554 405.081L81.9248 432.251L57.8589 417.761L43.7248 442.039L36.9534 414.776L9.7914 421.947Z" fill="#E4BCD2"/>
<path d="M105.812 331.573V367.395H141.625V331.573H105.812Z" fill="#E4BCD2"/>
<path d="M141.631 295.751V331.573H177.443V295.751H141.631Z" fill="#E4BCD2"/>
<path d="M177.442 331.573V367.395H213.255V331.573H177.442Z" fill="#E4BCD2"/>
<path d="M213.255 295.751V331.573H249.067V295.751H213.255Z" fill="#E4BCD2"/>
<path d="M105.812 259.929V295.751H141.625V259.929H105.812Z" fill="#E4BCD2"/>
<path d="M177.437 259.923V295.745H213.249V259.923H177.437Z" fill="#E4BCD2"/>
<path d="M249.066 331.573V367.395H284.879V331.573H249.066Z" fill="#E4BCD2"/>
<path d="M249.061 259.929V295.751H284.873V259.929H249.061Z" fill="#E4BCD2"/>
<path d="M178.282 675.989L224.57 599.324L147 554.302L234.11 532.706L211.195 446.184L288.116 492.328L333.279 415L354.926 501.838L441.718 478.995L395.43 555.676L473 600.698L385.89 622.278L408.805 708.8L331.9 662.656L286.737 740L265.074 653.146L178.282 675.989Z" fill="#FA881F"/>
<path d="M184.34 199.72L171.974 169.225L141.669 182.04L154.48 151.733L124 139.357L154.48 126.987L141.669 96.6797L171.974 109.495L184.34 79L196.707 109.495L227.012 96.6797L214.2 126.987L244.681 139.357L214.2 151.733L227.012 182.04L196.707 169.225L184.34 199.72Z" fill="#E4BCD2"/>
<path d="M231.217 297.753L241.459 280.729L224.299 270.736L243.571 265.941L238.503 246.734L255.517 256.978L265.513 239.808L270.306 259.092L289.509 254.016L279.266 271.04L296.432 281.039L277.154 285.828L282.228 305.036L265.209 294.791L255.212 311.961L250.425 292.683L231.217 297.753Z" fill="#FA881F"/>
<path d="M65.8951 336.557C63.7355 336.329 60.2122 334.028 58.5032 332.623C57.5844 331.868 56.2793 331.792 55.2726 332.436C54.2718 333.08 53.7978 334.297 54.1021 335.451L60.9321 361.32C59.5333 361.133 58.035 361.203 56.5309 361.601C51.3689 362.965 48.0973 367.514 49.221 371.764C50.3447 376.014 55.4365 378.356 60.5926 376.992C65.2689 375.757 68.3825 371.905 68.0898 368.029C68.1718 367.631 68.1718 367.21 68.0606 366.788L61.1955 340.79C62.5357 341.404 63.9637 341.89 65.3215 342.031C67.9845 342.312 68.6868 346.644 68.6926 346.673C68.8975 348.178 70.2787 349.237 71.7887 349.032C73.2986 348.839 74.3521 347.446 74.1473 345.935C73.7142 342.727 71.4902 337.142 65.8951 336.557Z" fill="#FA881F"/>
<path d="M146.663 9.62075C144.884 8.37965 142.917 4.65638 142.098 2.60155C141.659 1.49511 140.553 0.798457 139.359 0.874562C138.171 0.956521 137.164 1.78782 136.872 2.94696L130.34 28.8928C129.211 28.0498 127.865 27.3941 126.349 27.0136C121.175 25.7081 116.112 28.1083 115.036 32.3702C113.965 36.632 117.289 41.1456 122.463 42.4511C127.151 43.6337 131.739 41.7662 133.36 38.2361C133.623 37.9258 133.828 37.557 133.94 37.1355L140.506 11.0609C141.384 12.2493 142.397 13.3616 143.514 14.1402C145.709 15.674 144.228 19.8071 144.217 19.8305C143.667 21.2472 144.369 22.8395 145.785 23.3898C147.202 23.9518 148.793 23.2376 149.344 21.8209C150.514 18.806 151.269 12.8406 146.657 9.62075H146.663Z" fill="#FA881F"/>
<path d="M126.829 489.455C127.28 488.097 126.548 486.621 125.184 486.171L106.269 479.871L103.957 479.099C102.599 478.648 101.124 479.38 100.674 480.744L92.9307 504.002C91.924 503.13 90.7009 502.416 89.3079 501.948C84.5264 500.355 79.5926 502.258 78.2816 506.192C76.9707 510.126 79.7858 514.61 84.5615 516.203C88.8924 517.643 93.3462 516.214 95.1195 513C95.3888 512.725 95.6112 512.397 95.74 512.005L104.776 484.847L121.082 490.274L113.924 511.771C112.917 510.899 111.694 510.184 110.301 509.716C105.52 508.124 100.586 510.026 99.2749 513.96C97.964 517.894 100.779 522.379 105.555 523.971C109.886 525.411 114.34 523.983 116.113 520.769C116.382 520.494 116.604 520.166 116.733 519.774L126.829 489.443V489.455Z" fill="#E4BCD2"/>
</svg>
