<svg width="453" height="612" viewBox="0 0 453 612" fill="none" xmlns="http://www.w3.org/2000/svg">
<path d="M217.148 253.387H182.436V288.109H217.148V253.387Z" fill="#FA881F"/>
<path d="M251.859 288.112H217.147V322.833H251.859V288.112Z" fill="#FA881F"/>
<path d="M217.148 322.833H182.436V357.554H217.148V322.833Z" fill="#FA881F"/>
<path d="M251.859 357.554H217.147V392.275H251.859V357.554Z" fill="#FA881F"/>
<path d="M286.574 253.387H251.863V288.109H286.574V253.387Z" fill="#FA881F"/>
<path d="M286.574 322.833H251.863V357.554H286.574V322.833Z" fill="#FA881F"/>
<path d="M217.148 392.279H182.436V427H217.148V392.279Z" fill="#FA881F"/>
<path d="M286.574 392.279H251.863V427H286.574V392.279Z" fill="#FA881F"/>
<path d="M88.0242 523.111L111.74 483.717L72 460.577L116.627 449.484L104.885 405.024L144.283 428.74L167.419 389L178.511 433.627L222.972 421.885L199.26 461.283L239 484.419L194.373 495.511L206.111 539.972L166.712 516.26L143.577 556L132.484 511.373L88.0242 523.111Z" fill="#E4BCD2"/>
<path d="M16.3405 136.783L40.5176 96.6002L0 73.0019L45.504 61.6916L33.5296 16.3449L73.7019 40.5287L97.2938 0L108.601 45.5164L153.935 33.5387L129.758 73.722L170.276 97.3203L124.772 108.631L136.746 153.977L96.5739 129.794L72.982 170.322L61.6748 124.806L16.3405 136.783Z" fill="#FA881F"/>
<path d="M392.488 233.911L380.121 203.422L349.816 216.231L362.628 185.924L332.142 173.554L362.628 161.184L349.816 130.871L380.121 143.686L392.488 113.191L404.854 143.686L435.159 130.871L422.348 161.184L452.828 173.554L422.348 185.924L435.159 216.231L404.854 203.422L392.488 233.911Z" fill="#FA881F"/>
<path d="M262.998 358L255.826 340.318L238.252 347.748L245.682 330.174L228 323.002L245.682 315.826L238.252 298.252L255.826 305.682L262.998 288L270.174 305.682L287.748 298.252L280.318 315.826L298 323.002L280.318 330.174L287.748 347.748L270.174 340.318L262.998 358Z" fill="#E4BCD2"/>
<path d="M390.948 256.935C389.257 255.571 387.554 251.725 386.875 249.617C386.512 248.482 385.459 247.709 384.265 247.709C383.071 247.709 382.011 248.47 381.643 249.606L373.338 275.036C372.267 274.117 370.968 273.368 369.487 272.882C364.413 271.225 359.198 273.268 357.834 277.448C356.471 281.628 359.479 286.358 364.547 288.015C369.141 289.514 373.853 287.974 375.708 284.561C375.995 284.268 376.223 283.917 376.358 283.502L384.704 257.936C385.494 259.183 386.43 260.36 387.495 261.215C389.579 262.895 387.817 266.917 387.805 266.94C387.156 268.316 387.747 269.955 389.122 270.599C390.492 271.255 392.136 270.657 392.78 269.282C394.156 266.355 395.32 260.454 390.942 256.923L390.948 256.935Z" fill="#FA881F"/>
<path d="M227.871 135.097C228.012 133.669 226.964 132.399 225.536 132.264L205.69 130.344L203.261 130.11C201.833 129.969 200.563 131.017 200.428 132.446L198.07 156.84C196.893 156.214 195.547 155.792 194.078 155.646C189.063 155.16 184.679 158.116 184.275 162.249C183.877 166.376 187.617 170.123 192.633 170.603C197.174 171.042 201.195 168.654 202.208 165.124C202.412 164.796 202.553 164.427 202.588 164.017L205.339 135.525L222.44 137.176L220.263 159.732C219.086 159.106 217.735 158.684 216.271 158.538C211.256 158.052 206.872 161.008 206.468 165.141C206.07 169.268 209.81 173.015 214.826 173.495C219.367 173.934 223.388 171.546 224.401 168.022C224.605 167.694 224.746 167.319 224.787 166.909L227.86 135.092L227.871 135.097Z" fill="#E4BCD2"/>
<path d="M391.542 554.406L378.31 571.055L395.148 584.045L374.02 586.463L376.747 607.556L360.096 594.325L347.115 611.168L344.698 590.034L323.605 592.762L336.838 576.107L320 563.123L341.128 560.705L338.401 539.606L355.051 552.843L368.032 536L370.45 557.134L391.542 554.406Z" fill="#E4BCD2"/>
</svg>
