<svg xmlns="http://www.w3.org/2000/svg" viewBox="0 0 232.31 223.59"><defs><style>.cls-1{fill:#1d0f20;}.cls-2{fill:#fff;}</style></defs><title>hacktogether</title><g id="Letters"><polygon class="cls-1" points="0.5 123.05 0.5 212 19.77 223.09 19.77 134.13 0.5 123.05"/><path class="cls-2" d="M19.77,223.59a.47.47,0,0,1-.25-.07L.25,212.44A.52.52,0,0,1,0,212V123.05a.5.5,0,0,1,.25-.44.52.52,0,0,1,.5,0L20,133.7a.48.48,0,0,1,.25.43v89a.48.48,0,0,1-.25.43A.43.43,0,0,1,19.77,223.59ZM1,211.72l18.27,10.5v-87.8L1,123.91Z"/><polygon class="cls-1" points="0.5 123.05 212.58 0.5 231.81 11.63 19.77 134.06 0.5 123.05"/><path class="cls-2" d="M19.77,134.56a.42.42,0,0,1-.24-.07l-19.28-11a.5.5,0,0,1,0-.87L212.33.07a.5.5,0,0,1,.5,0L232.06,11.2a.49.49,0,0,1,0,.86L20,134.49A.52.52,0,0,1,19.77,134.56ZM1.5,123l18.27,10.44,211-121.85L212.58,1.08Z"/><polygon class="cls-1" points="231.81 11.63 231.81 100.66 19.77 223.09 19.77 134.06 231.81 11.63"/><path class="cls-2" d="M19.77,223.59a.47.47,0,0,1-.25-.07.5.5,0,0,1-.25-.43v-89a.52.52,0,0,1,.25-.44l212-122.42a.5.5,0,0,1,.5,0,.48.48,0,0,1,.25.43v89a.48.48,0,0,1-.25.43L20,223.52A.43.43,0,0,1,19.77,223.59Zm.5-89.24v87.87l211-121.85V12.5Z"/><path class="cls-2" d="M57.16,144.72l-9.82,5.67a5,5,0,0,0-2,3.87c0,3.18,3.21,2,5.87,1.7,2.39-.22,5.14,1.27,5.14,5.88,0,.63-.23,9.83-7,13.72l-11,6.36.28-6.51,9.54-5.52a4.82,4.82,0,0,0,2.25-4.26c0-2.18-1.56-2.33-5.78-1.59-2.07.34-5.23-.58-5.23-5.67,0-5.73,3.35-11.69,6.28-13.38l11.71-6.76Z"/><path class="cls-2" d="M70.85,157.7a9.84,9.84,0,0,0,4.59-7.37l1-23.08L82.05,124l-1,23.48a22,22,0,0,1-10.47,16.91c-5.32,3.07-9.45.05-9.5-6l1-22.84,5.65-3.26-1,23C66.76,157.88,68.6,159,70.85,157.7Z"/><path class="cls-2" d="M104.53,117.37,94.71,123a5,5,0,0,0-2,3.87c0,3.18,3.21,2,5.87,1.69,2.39-.21,5.15,1.28,5.15,5.89,0,.63-.23,9.83-7,13.72l-11,6.36.28-6.51,9.55-5.52a4.81,4.81,0,0,0,2.24-4.26c0-2.18-1.56-2.34-5.78-1.59-2.06.34-5.23-.58-5.23-5.67,0-5.73,3.35-11.69,6.29-13.38l11.7-6.76Z"/><path class="cls-2" d="M126,131.33l-3.9,2.26c-7.8,4.5-14.09.87-14.09-8.08s6.29-20.12,14-24.6l5.37-3.1-.28,6.73L122,107.49c-4.64,2.67-8.4,9.35-8.4,14.76s3.76,7.52,8.44,4.82l4.18-2.41Z"/><path class="cls-2" d="M142.42,89.19c4.54-2.52,10-4.88,10,4.08a16,16,0,0,1-4.63,11.42l4.36,11.53-6,3.47-4-10.76-4.73,2.73-.64,13.46-5.65,3.26,1.52-33.52,9.77-5.64Zm-4.82,16.3,5.14-3c1.47-.85,4.13-3,4.13-6.1,0-2.65-2.66-2.33-4.13-1.48l-4.82,2.78Z"/><path class="cls-2" d="M156.08,114l1.51-33.57,5.6-3.24-1.47,33.55Z"/><path class="cls-2" d="M178.66,68.21c4.55-2.46,9.64-4.35,9.64,3.87,0,3.5-2.2,6.89-3.3,9,1.88-.72,4.63-.35,4.63,3.57,0,8.16-6,13.41-10.37,16l-11.94,6.9,1.47-33.55Zm1.15,26.05c1.47-.9,4.18-3.58,4.18-6.23,0-3-2.67-2.75-4.14-1.91L173.11,90l-.32,8.29Zm-6.43-8.9,5.6-3.24c1.47-.85,4.13-3.55,4.13-6.62,0-2.65-2.66-2.33-4.13-1.49l-5.28,3Z"/><path class="cls-2" d="M193.3,92.46l1.47-33.55L210.15,50l-.32,6.71-9.73,5.61L199.87,69l9.68-5.6-.32,6.81-9.68,5.59-.32,6.66L209,76.85l-.33,6.75Z"/></g></svg>