<svg xmlns="http://www.w3.org/2000/svg" viewBox="0 0 115.96 84.56"><defs><style>.cls-1{isolation:isolate;}.cls-2{fill:#2b3990;mix-blend-mode:multiply;opacity:0.09;}.cls-3{fill:#fff;}.cls-3,.cls-4,.cls-5,.cls-6,.cls-7{stroke:#231f20;stroke-miterlimit:10;}.cls-4{fill:#f9ed32;}.cls-5{fill:#ed1c24;}.cls-6{fill:#00aeef;}.cls-7{fill:#39b54a;}</style></defs><g class="cls-1"><g id="Layer_2" data-name="Layer 2"><g id="shading"><path class="cls-2" d="M4.1.73l9.77,25.14c52.26-.3,65.68-.2,65.68,0s-14.35,1-31.26-1.8c-9.18-1.52-14.72-3.36-19.6-5.68a81.93,81.93,0,0,1-13.06-8A109.49,109.49,0,0,1,4.1.73Z"/><path class="cls-3" d="M112.38,64.07c-.06-3-.11-5.77-.21-11.13,0-1.62-.13-6.92-.16-8.51a5.79,5.79,0,0,1-4.25-1.79,6.16,6.16,0,0,1,0-7.49Q111.59,20.08,115.45,5a6.89,6.89,0,0,0-.78-1.79A7.4,7.4,0,0,0,111.86.69L101,26.11s-21.32.06-42,0H57c-20.67.1-42,0-42,0L4.1.69A7.39,7.39,0,0,0,1.3,3.21,6.27,6.27,0,0,0,.52,5Q4.38,20.08,8.24,35.15a6.23,6.23,0,0,1,0,7.49,5.77,5.77,0,0,1-4,1.78l0,4.41v5.63q0,14.92.29,29.6l108.18-1.27c0-1.88-.06-4.37-.11-7.32S112.46,68.78,112.38,64.07Z"/><path class="cls-4" d="M72.64,55c-1.35-.27-3.29-.68-4.72.33-2.09,1.47-2.14,5.29-1,7.85,1.6,3.71,6.15,6,8.83,4.93,1.55-.6,1.71-2,3.57-2.38s2.94,1,4.08.34,1.37-2.67,1-4c-.56-2-2.58-3.1-3.82-3.76-.45-.24-.51-.21-1.81-.75C73.86,55.46,73.72,55.21,72.64,55Z"/><ellipse class="cls-5" cx="47.27" cy="66.45" rx="4.12" ry="7.93" transform="translate(-23.41 25.77) rotate(-24.65)"/><circle class="cls-6" cx="79.32" cy="40.77" r="3.47"/><path class="cls-7" d="M26.71,39.43a7.89,7.89,0,0,0-4.12,4.2c-1.09,2.66.3,3.84-.85,5.59-1.44,2.23-4.23,1.19-5.5,3.26a5.27,5.27,0,0,0,1.44,6.38c2.6,1.78,6.81-.73,8.29-1.61,4.53-2.71,4.35-5.67,8.07-6.51,2-.45,3.45.09,4.85-1.18a6.39,6.39,0,0,0,1.67-3.33,4.78,4.78,0,0,0-.05-2.87C39.83,41.69,38,41,36.38,40.45a15.17,15.17,0,0,0-3.09-.71C29.83,39.19,28.11,38.91,26.71,39.43Z"/><path class="cls-2" d="M4.1,45q.11,19.19.2,38.37l62.3-.75a166.13,166.13,0,0,1-27.17-2.84c-10.49-2-15.82-3-20.18-6.44-11.62-9.07-10.46-28-9.93-33.59a5.92,5.92,0,0,1-1.23,3.07A6,6,0,0,1,4.1,45Z"/></g></g></g></svg>