<svg xmlns="http://www.w3.org/2000/svg" viewBox="0 0 101.44 74.18"><defs><style>.cls-1{isolation:isolate;}.cls-2{fill:#fff;stroke:#231f20;stroke-miterlimit:10;}.cls-3{fill:#2b3990;mix-blend-mode:multiply;opacity:0.09;}</style></defs><g class="cls-1"><g id="Layer_2" data-name="Layer 2"><g id="shading"><path class="cls-2" d="M98.25,57.32c0-2.64-.1-5-.19-9.72,0-1.41-.11-6.05-.14-7.43a5.07,5.07,0,0,1-3.71-1.57,5.38,5.38,0,0,1,0-6.54l6.75-26.34a5.72,5.72,0,0,0-.68-1.56A6.39,6.39,0,0,0,97.79,2L88.3,24.16s-18.62.05-36.68,0H49.83c-18.06.09-36.69,0-36.69,0L3.65,2A6.37,6.37,0,0,0,1.2,4.16,5.16,5.16,0,0,0,.52,5.72Q3.9,18.89,7.26,32.06a5.43,5.43,0,0,1,0,6.54,5,5,0,0,1-3.46,1.55l0,3.86v4.92q0,12,.22,23.85l94.55.9c0-1.64,0-3.82-.09-6.4S98.32,61.44,98.25,57.32Z"/><path class="cls-3" d="M3.44,39.65q.09,16.76.17,33.51L58,72.51A145,145,0,0,1,34.3,70c-9.16-1.73-13.82-2.65-17.62-5.62C6.52,56.48,7.53,40,8,35.05a5,5,0,0,1-1.07,2.69A5.31,5.31,0,0,1,3.44,39.65Z"/><path class="cls-3" d="M3.44,0q4.67,12,9.34,24c50-.28,62.8-.19,62.81,0s-13.73.94-29.9-1.72C36.91,20.86,31.62,19.1,27,16.88A77.73,77.73,0,0,1,14.47,9.19,105.51,105.51,0,0,1,3.44,0Z"/></g></g></g></svg>