<svg xmlns="http://www.w3.org/2000/svg" viewBox="0 0 108.43 81.01"><defs><style>.cls-1{isolation:isolate;}.cls-2{fill:#1c75bc;}.cls-2,.cls-6{stroke:#231f20;stroke-width:0.75px;}.cls-2,.cls-3,.cls-4,.cls-6{stroke-miterlimit:10;}.cls-3,.cls-8{fill:#f7941d;}.cls-3,.cls-4{stroke:#603913;stroke-width:0.5px;}.cls-4{fill:none;}.cls-5{fill:#231f20;}.cls-6{fill:#27aae1;}.cls-7{fill:#ffde17;}.cls-9{fill:#025da3;}.cls-10{fill:#d96627;}.cls-11{fill:#2b3990;mix-blend-mode:multiply;opacity:0.09;}</style></defs><g class="cls-1"><g id="Layer_2" data-name="Layer 2"><g id="shading"><path class="cls-2" d="M107.92,44.87c-11.86,1.8-7.22-9.28-7.22-9.28q3.61-15.33,7.22-30.67a7.17,7.17,0,0,0-.73-1.82A7,7,0,0,0,104.57.54L94.41,26.39s-19.92.07-39.24,0H53.26c-19.32.11-39.24,0-39.24,0L3.86.54A7,7,0,0,0,1.24,3.1,7.17,7.17,0,0,0,.51,4.92Q4.13,20.25,7.73,35.59S12.37,46.67.51,44.87c0,0-.94,8.75,2.09,16.56.93,10.67,23.68,19.2,51.62,19.2s50.68-8.53,51.61-19.2C108.86,53.62,107.92,44.87,107.92,44.87Z"/><circle class="cls-3" cx="21.09" cy="39.18" r="4.57"/><circle class="cls-3" cx="86.92" cy="39.18" r="4.57"/><line class="cls-4" x1="19.29" y1="38.03" x2="22.9" y2="40.34"/><line class="cls-4" x1="22.78" y1="37.85" x2="19.41" y2="40.52"/><line class="cls-4" x1="85.11" y1="38.03" x2="88.73" y2="40.34"/><line class="cls-4" x1="88.6" y1="37.85" x2="85.24" y2="40.52"/><rect class="cls-5" x="91.39" y="28.73" width="1.64" height="0.73"/><rect class="cls-5" x="88.65" y="28.73" width="1.64" height="0.73"/><rect class="cls-5" x="85.92" y="28.73" width="1.64" height="0.73"/><rect class="cls-5" x="83.19" y="28.73" width="1.64" height="0.73"/><rect class="cls-5" x="80.45" y="28.73" width="1.64" height="0.73"/><rect class="cls-5" x="77.72" y="28.73" width="1.64" height="0.73"/><rect class="cls-5" x="74.99" y="28.73" width="1.64" height="0.73"/><rect class="cls-5" x="72.26" y="28.73" width="1.64" height="0.73"/><rect class="cls-5" x="69.52" y="28.73" width="1.64" height="0.73"/><rect class="cls-5" x="66.79" y="28.73" width="1.64" height="0.73"/><rect class="cls-5" x="64.06" y="28.73" width="1.64" height="0.73"/><rect class="cls-5" x="61.32" y="28.73" width="1.64" height="0.73"/><rect class="cls-5" x="58.59" y="28.73" width="1.64" height="0.73"/><rect class="cls-5" x="55.86" y="28.73" width="1.64" height="0.73"/><rect class="cls-5" x="53.13" y="28.73" width="1.64" height="0.73"/><rect class="cls-5" x="50.39" y="28.73" width="1.64" height="0.73"/><rect class="cls-5" x="47.66" y="28.73" width="1.64" height="0.73"/><rect class="cls-5" x="44.93" y="28.73" width="1.64" height="0.73"/><rect class="cls-5" x="42.19" y="28.73" width="1.64" height="0.73"/><rect class="cls-5" x="39.46" y="28.73" width="1.64" height="0.73"/><rect class="cls-5" x="36.73" y="28.73" width="1.64" height="0.73"/><rect class="cls-5" x="34" y="28.73" width="1.64" height="0.73"/><rect class="cls-5" x="31.26" y="28.73" width="1.64" height="0.73"/><rect class="cls-5" x="28.53" y="28.73" width="1.64" height="0.73"/><rect class="cls-5" x="25.8" y="28.73" width="1.64" height="0.73"/><rect class="cls-5" x="23.06" y="28.73" width="1.64" height="0.73"/><rect class="cls-5" x="20.33" y="28.73" width="1.64" height="0.73"/><rect class="cls-5" x="17.6" y="28.73" width="1.64" height="0.73"/><rect class="cls-5" x="14.87" y="28.73" width="1.64" height="0.73"/><path class="cls-6" d="M36,45.56v4.61l2,.53c3.7,1,11.72,2.86,16.8,2.57,3-.17,8.92,0,15.94-2.57,1.28-.46,2.32-.91,3-1.23V44.86a41.49,41.49,0,0,1-7.49,2c-1.61.28-3,.41-5.15.63-2.52.25-4.63.39-6.15.47s-3.55,0-5.68-.16a67.51,67.51,0,0,1-7.64-1C40,46.56,38.08,46.14,36,45.56Z"/><path class="cls-2" d="M55.53,69.71a20.35,20.35,0,0,1-17-7.36V50.83c3,.71,5.63,1.19,7.8,1.53a54.19,54.19,0,0,0,7.11.78,50,50,0,0,0,7.82-.46,63.9,63.9,0,0,0,9.66-1.86l.28-.09h0c0,1.74,0,3.5,0,5.28,0,2.13,0,4.25,0,6.34a19.57,19.57,0,0,1-8.52,6.07,21.08,21.08,0,0,1-8.5,1.29"/><path class="cls-7" d="M58.94,60.15c-.06-.54-.9-.91-2-.91.64-1.11.72-2.26.19-2.57S55.67,57,55,58.12c-.05.09-.1.18-.14.27a.56.56,0,0,0,0-.12c-.47-1.2-1.32-2-1.9-1.75s-.67,1.38-.2,2.57l0,.11c-1-.11-1.87.16-2,.68s.72,1.29,1.92,1.58c-.52,1.11-.52,2.2,0,2.47s1.45-.41,2-1.54v0c.64,1.11,1.6,1.76,2.14,1.45s.46-1.33-.08-2.38C58.08,61.34,59,60.75,58.94,60.15Z"/><circle class="cls-8" cx="54.87" cy="60.24" r="1.39"/><path class="cls-9" d="M36.48,46.18l2.41.57.21,3.73-1.24-.31-1.4-.39Z"/><path class="cls-9" d="M39,51.29q0,5.49,0,11a20.5,20.5,0,0,0,4.73,4,21.67,21.67,0,0,0,11.64,3,17.5,17.5,0,0,0,6.09-.66,18.22,18.22,0,0,0,9.19-6.39,13.39,13.39,0,0,1-6,3.89C56.8,68.52,46.39,62.65,39,51.29Z"/><path class="cls-10" d="M17.61,36.77A4.14,4.14,0,0,0,17,38.18a4.36,4.36,0,0,0,.19,2.63A4.45,4.45,0,0,0,19.21,43a4.13,4.13,0,0,0,1.51.41,4,4,0,0,0,3.36-1.24,4.86,4.86,0,0,1-3.61,0A5.25,5.25,0,0,1,17.61,36.77Z"/><path class="cls-10" d="M83.49,36.77a4.14,4.14,0,0,0-.65,1.41A4.2,4.2,0,0,0,85.09,43a4.13,4.13,0,0,0,1.51.41A4,4,0,0,0,90,42.16a4.86,4.86,0,0,1-3.61,0A5.25,5.25,0,0,1,83.49,36.77Z"/><path class="cls-9" d="M9.14,38.82a44.71,44.71,0,0,0,7.8,21.66C32.21,82.07,61.85,80,64,79.83a144,144,0,0,1-24.67-.54A101.7,101.7,0,0,1,23,76.05c-3-.92-5.78-2.06-6.32-2.28a41.36,41.36,0,0,1-5.18-2.45,23.58,23.58,0,0,1-4.24-3,11.59,11.59,0,0,1-3.19-4,9.8,9.8,0,0,1-.79-3A35.12,35.12,0,0,1,1.7,56a37.29,37.29,0,0,1-.7-6.9c0-1.17,0-3.72,0-3.72l1.47.15A8.09,8.09,0,0,0,5,45.19C6.6,44.74,8.35,42.27,9.14,38.82Z"/><path class="cls-9" d="M5.92,25.74,6.15,7.5,3.62,1.28a4.5,4.5,0,0,0-2,2C1.36,3.86,1,5,1,5H1L2.08,9.46c.82,3.34.87,3.57,1,4.07.05.18.46,1.89.88,3.66S5.07,22,5.92,25.74Z"/><path class="cls-11" d="M4.37.19l10,25.72c53.45-.31,67.18-.21,67.18,0s-14.68,1-32-1.84c-9.39-1.55-15.05-3.44-20-5.81A83.73,83.73,0,0,1,16.16,10,110.42,110.42,0,0,1,4.37.19Z"/></g></g></g></svg>