<svg xmlns="http://www.w3.org/2000/svg" viewBox="0 0 163.39 104.11"><defs><style>.cls-1{isolation:isolate;}.cls-2{fill:#3a393b;}.cls-2,.cls-3,.cls-4,.cls-7{stroke:#231f20;stroke-miterlimit:10;}.cls-3{fill:#808285;}.cls-4{fill:none;}.cls-5{font-size:11.25px;fill:#d1d3d4;font-family:DINAlternate-Bold, DIN Alternate;font-weight:700;}.cls-6{letter-spacing:-0.02em;}.cls-7,.cls-8{fill:#231f20;}.cls-9{fill:#6d6e71;}.cls-10{fill:#a7a9ac;}.cls-11{fill:#acd0cf;opacity:0.61;}.cls-12{fill:#2b3990;mix-blend-mode:multiply;opacity:0.09;}</style></defs><g class="cls-1"><g id="Layer_2" data-name="Layer 2"><g id="shading"><path class="cls-2" d="M139,25.32C134.57,29.69,115.13,48,84.45,49.05c-34.87,1.24-57.33-20.67-61-24.37L.62,48.44,15.48,73.76l8.13-5.54a85.23,85.23,0,0,0,1.78,18.23c.61,2.88,1.32,5.57,2.1,8,3.79,1.41,7.75,2.7,11.87,3.84,37.88,10.47,73.22,3.57,98.18-4.9.57-2.07,1.09-4.29,1.51-6.66a74.34,74.34,0,0,0,1-17.94,28.46,28.46,0,0,0,2.43,1.82,29.59,29.59,0,0,0,5,2.74l15.27-22.27Z"/><path class="cls-3" d="M94.9,48.93s-65.71,1.36-72.25-2.18C17.3,43.85,7.89,36.46,8.8,27.5c.71-6.88,7.49-13,16.84-15.91a44.74,44.74,0,0,0-1,6,47.2,47.2,0,0,0-.22,4.87,9.51,9.51,0,0,0,2.34,6.39S55.5,46.86,94.9,48.93Z"/><path class="cls-3" d="M68,48.93s65.72,1.36,72.26-2.18c5.35-2.9,14.76-10.29,13.84-19.25-.7-6.88-7.48-13-16.83-15.91a46.39,46.39,0,0,1,1,6,44.4,44.4,0,0,1,.21,4.87,9.44,9.44,0,0,1-2.33,6.39S107.39,46.86,68,48.93Z"/><line class="cls-4" x1="67.99" y1="49.66" x2="67.99" y2="64.98"/><text class="cls-5" transform="translate(60.99 77.31)">H<tspan class="cls-6" x="7.29" y="0">A</tspan><tspan x="13.94" y="0">CKERZ</tspan></text><line class="cls-4" x1="93.38" y1="49.19" x2="93.38" y2="59.1"/><circle class="cls-7" cx="93.38" cy="61.35" r="2.25"/><circle class="cls-7" cx="67.99" cy="67.71" r="2.25"/><path class="cls-8" d="M144.7,71.48a23.4,23.4,0,0,1-6.15-9.82,22.57,22.57,0,0,1-1-4.85L137.4,67c1.66,1.15,3.45,2.3,5.35,3.42C143.41,70.76,144.05,71.13,144.7,71.48Z"/><path class="cls-8" d="M23.61,68.22a91.25,91.25,0,0,0,1,13.49,90.09,90.09,0,0,0,2.88,12.77c3.5,1.25,7.21,2.43,11.1,3.5a158.69,158.69,0,0,0,41,5.63c-5.45-.82-20.88-3.89-33.08-17.17A54,54,0,0,1,35.54,68.36Z"/><path class="cls-9" d="M22.24,13.66c-.52.31-7.76,4.84-8,13-.19,7,4.88,13.69,12.45,15.8l49,5a94.49,94.49,0,0,1-11.35,1.16c-1.35.06-3.24.11-9,0-5.39-.1-8.92-.17-13.77-.43s-10.91-.71-18-1.53a32.44,32.44,0,0,1-8.91-6.93c-2.23-2.49-4.35-4.92-5-8.7A15,15,0,0,1,9.81,26C11.51,18,21.16,14.08,22.24,13.66Z"/><path class="cls-9" d="M140.43,13.66c.52.31,7.76,4.84,8,13,.19,7-4.87,13.69-12.44,15.8l-49,5a94.72,94.72,0,0,0,11.35,1.16c1.35.06,3.24.11,9,0,5.4-.1,8.93-.17,13.77-.43s10.91-.71,18-1.53A32.29,32.29,0,0,0,148,39.78c2.23-2.49,4.35-4.92,5-8.7a15.14,15.14,0,0,0-.13-5.06C151.16,18,141.51,14.08,140.43,13.66Z"/><path class="cls-10" d="M23.66,19.42A9.3,9.3,0,0,0,22,24a11.6,11.6,0,0,0,2.23,6.8c3,4.44,16.23,9.68,34.79,12.93-2.12-.75-5-1.8-8.42-3.1-2.28-.87-4.54-1.72-7.44-2.92-5.92-2.43-9-4-10.09-4.52-3.85-1.94-5.79-2.94-6.92-4.31C23.55,25.73,23.48,21.7,23.66,19.42Z"/><path class="cls-10" d="M139.39,19.42A9.2,9.2,0,0,1,141.07,24a11.51,11.51,0,0,1-2.23,6.8c-3,4.44-16.22,9.68-34.78,12.93,2.12-.75,5-1.8,8.41-3.1,2.29-.87,4.54-1.72,7.44-2.92,5.92-2.43,9.05-4,10.1-4.52,3.84-1.94,5.79-2.94,6.91-4.31C139.5,25.73,139.57,21.7,139.39,19.42Z"/><path class="cls-11" d="M150.68,39.37a55.15,55.15,0,0,1,4.38,6.32,26.8,26.8,0,0,1,2.55,5.19,20.11,20.11,0,0,1,1,5.06l3.14-4.85Q156.19,45.24,150.68,39.37Z"/><path class="cls-12" d="M30.63,0A89.82,89.82,0,0,0,25.2,26.87,150.74,150.74,0,0,0,42,36.46c1.67.82,25.79,12.41,39.27,10.75L90,46.1h0s-10-.89-15.37-1.83c-17.64-3.13-29.5-14.91-32.32-17.78a41.85,41.85,0,0,1-7.45-9.82A37.87,37.87,0,0,1,30.63,0Z"/></g></g></g></svg>