<svg xmlns="http://www.w3.org/2000/svg" viewBox="0 0 165.41 81.59"><defs><style>.cls-1{fill:#f287b7;}.cls-2{fill:#ee2a7b;}.cls-3{fill:#da1c5c;stroke:#231f20;stroke-miterlimit:10;stroke-width:0.5px;}.cls-4{font-size:10.38px;font-family:DINAlternate-Bold, DIN Alternate;font-weight:700;}.cls-4,.cls-7{fill:#fad5e5;}.cls-5{letter-spacing:-0.01em;}.cls-6{letter-spacing:0em;}.cls-8,.cls-9{fill:#9e1f63;}.cls-8{opacity:0.76;}.cls-10,.cls-11{fill:#00a79d;}.cls-10{opacity:0.44;}.cls-11{opacity:0.73;}</style></defs><g id="Layer_2" data-name="Layer 2"><g id="shading"><path class="cls-1" d="M138.29,53.89q-.56-2.67-1.13-5.34a178.61,178.61,0,0,1-54.51,8.84h-.52a190.76,190.76,0,0,1-53.65-7.86l-1.59,5.92L11.6,68a15.48,15.48,0,0,0,6.06,8.35c6.28,4.26,13.37,2.15,14.23,1.87,0,0,4.22,3.53,12.38,3.41s11.25-3.41,11.25-3.41a25.71,25.71,0,0,0,14.91,3,25.18,25.18,0,0,0,12-4.54,25.23,25.23,0,0,0,12,4.54,25.75,25.75,0,0,0,14.92-3s3.09,3.29,11.25,3.41,12.38-3.41,12.38-3.41a15.46,15.46,0,0,0,15.21-1.51,14.71,14.71,0,0,0,5.7-10.2Z"/><path class="cls-2" d="M138.29,51.64c-.37-1.78-.75-3.57-1.13-5.35a178.61,178.61,0,0,1-54.51,8.84h-.52a190.4,190.4,0,0,1-53.65-7.86L26.89,53.2,11.6,65.7a15.48,15.48,0,0,0,6.06,8.35C23.94,78.31,31,76.2,31.89,75.93c0,0,4.22,3.52,12.38,3.4s11.25-3.4,11.25-3.4a25.79,25.79,0,0,0,14.91,3,25.39,25.39,0,0,0,12-4.54,25.44,25.44,0,0,0,12,4.54,25.83,25.83,0,0,0,14.92-3s3.09,3.28,11.25,3.4,12.38-3.4,12.38-3.4a15.46,15.46,0,0,0,15.21-1.52,14.71,14.71,0,0,0,5.7-10.2Z"/><path class="cls-3" d="M165.16,25.26c-.11-2.16-3.22-3.78-7-3.62a10.28,10.28,0,0,0-1.27.14L137.19,1A79.8,79.8,0,0,1,85.47,22.84C52.4,24,31.09,3.77,27.62.35l-18,18.19a11.77,11.77,0,0,0-2.16-.49C3.79,17.6.55,19,.27,21.12s2.35,4.14,5.91,4.67c-1,3.48-.13,6.77,2,7.37a3.75,3.75,0,0,0,3.57-1.37l8.66,14.26a15.42,15.42,0,0,0,4.76-2.59,15.11,15.11,0,0,0,2.62-2.71L28.42,47c-.31,1.14-.62,2.28-.92,3.43L12.21,62.91a15.48,15.48,0,0,0,6.06,8.35c6.28,4.26,13.37,2.15,14.23,1.87,0,0,4.22,3.53,12.38,3.41s11.25-3.41,11.25-3.41a25.63,25.63,0,0,0,14.91,3,25.18,25.18,0,0,0,12-4.54,25.23,25.23,0,0,0,12,4.54,25.65,25.65,0,0,0,14.91-3s3.09,3.29,11.25,3.41,12.38-3.41,12.38-3.41a15.46,15.46,0,0,0,15.21-1.51,14.67,14.67,0,0,0,5.7-10.2L138.9,48.84l-.9-4.29c0-.91,0-1.83,0-2.75a26.14,26.14,0,0,0,2.33,1.72A27.73,27.73,0,0,0,144.87,46l7.75-11.07A3.67,3.67,0,0,0,156,36.43c2.12-.43,3.27-3.5,2.65-6.95C162.34,29.3,165.26,27.42,165.16,25.26Z"/><text class="cls-4" transform="translate(73.31 42.38) scale(1.03 1)">Lo<tspan class="cls-5" x="10.96" y="0">v</tspan><tspan class="cls-6" x="15.5" y="0">e</tspan></text><path class="cls-7" d="M69.9,36.21c-.73-.52-2,0-3,1.17-1.11-1.06-2.53-1.41-3.19-.77s-.29,2,.82,3.12a3.54,3.54,0,0,0,2.3,1.1,2.88,2.88,0,0,0,2.74-1.42C70.53,38.18,70.66,36.74,69.9,36.21Z"/><path class="cls-7" d="M102.66,36.21c-.74-.52-2,0-3,1.17-1.11-1.06-2.53-1.41-3.19-.77s-.29,2,.82,3.12a3.54,3.54,0,0,0,2.3,1.1,2.87,2.87,0,0,0,2.73-1.42C103.28,38.18,103.42,36.74,102.66,36.21Z"/><path class="cls-8" d="M28.12,39.81a24.09,24.09,0,0,0,7.43,9.4c4.72,3.5,9.75,4.24,19.11,5.52,4.66.63,8.56.87,11.27,1a154,154,0,0,1-17.26-.64c-8.93-.65-18.46-2-20.84-4.65A16.6,16.6,0,0,0,28.42,47a29.3,29.3,0,0,0-.06-3.36C28.31,42.67,28.24,41.37,28.12,39.81Z"/><path class="cls-8" d="M137.67,41.05a28.25,28.25,0,0,1-6.82,6.38c-5.51,3.64-11.11,4.43-19.1,5.52-4.66.63-8.56.87-11.27,1a118.26,118.26,0,0,0,17.26-.64A114.61,114.61,0,0,0,138.56,49c-.23-1.25-.41-2.24-.54-2.91-.2-1.08-.23-1.24-.27-1.59-.06-.7,0-1.08-.06-2.52C137.68,41.58,137.67,41.26,137.67,41.05Z"/><path class="cls-9" d="M20.53,45.63a14.64,14.64,0,0,0,3.1-1.42,14.37,14.37,0,0,0,4.49-4.4q-.14-4.05-.29-8.08a19.23,19.23,0,0,1-1,4.95A20.07,20.07,0,0,1,20.53,45.63Z"/><path class="cls-9" d="M144.73,45.53a22.76,22.76,0,0,1-2.95-1.45,23.19,23.19,0,0,1-4.11-3l-.62-7.31a18.37,18.37,0,0,0,1.29,4.17A18.82,18.82,0,0,0,144.73,45.53Z"/><path class="cls-10" d="M136,2.57l19.36,20.65a10.69,10.69,0,0,1,4.29-.29c1.13.16,3.58.51,4.11,1.95a5.43,5.43,0,0,1-.05,2.46h0a4.06,4.06,0,0,0,1-1.25,2.14,2.14,0,0,0,0-1.48,7.1,7.1,0,0,0-2.27-2.08,7.54,7.54,0,0,0-5.71-.56L137.16,1.44Z"/><path class="cls-10" d="M28.36,2.09,10,20A5.51,5.51,0,0,0,5.09,20a4.67,4.67,0,0,0-1.73,1.88l-.11-.54c-.17-.86-.34-2.86-.34-2.86s.44-.15.78-.23a4.54,4.54,0,0,1,.81-.12,13.47,13.47,0,0,1,2.35,0,10.53,10.53,0,0,1,2.77.66L27.25.93Z"/><path class="cls-11" d="M149.87,65.33s0,.23-.23,4.92h0A13.86,13.86,0,0,0,154,61.62L138.56,49a61.6,61.6,0,0,1,6.16,6.77C148.09,60.09,149.78,62.32,149.87,65.33Z"/></g></g></svg>