<svg xmlns="http://www.w3.org/2000/svg" viewBox="0 0 151.22 94.62"><defs><style>.cls-1{isolation:isolate;}.cls-2{fill:#be1e2d;stroke:#231f20;stroke-miterlimit:10;}.cls-3{fill:#1c75bc;}.cls-4{fill:#39b54a;}.cls-5{font-size:10.4px;}.cls-5,.cls-6{fill:#fbb040;font-family:DINAlternate-Bold, DIN Alternate;font-weight:700;}.cls-6{font-size:10.4px;}.cls-7{fill:#a31e22;}.cls-8{fill:#acd0cf;opacity:0.83;}.cls-9{fill:#2b3990;mix-blend-mode:multiply;opacity:0.09;}</style></defs><g class="cls-1"><g id="Layer_2" data-name="Layer 2"><g id="shading"><path class="cls-2" d="M128.6,21.71c-4.08,4-22.07,20.94-50.44,21.95-32.26,1.15-53-19.12-56.43-22.55q-10.55,11-21.11,22L14.36,66.51l7.52-5.12a79.52,79.52,0,0,0,1.65,16.86c.56,2.67,1.23,5.15,1.94,7.43,3.51,1.3,7.17,2.5,11,3.55,35,9.69,67.71,3.3,90.8-4.54.53-1.91,1-4,1.4-6.15a69,69,0,0,0,.91-16.6,26.06,26.06,0,0,0,2.26,1.69,27.8,27.8,0,0,0,4.62,2.53l14.13-20.59Z"/><circle class="cls-3" cx="75.6" cy="68.09" r="8.29"/><ellipse class="cls-4" cx="72.02" cy="71.89" rx="1.04" ry="2.07" transform="translate(-29.58 66.17) rotate(-41.73)"/><ellipse class="cls-4" cx="78.96" cy="64.72" rx="1.35" ry="0.82" transform="translate(-9.45 115.78) rotate(-69.35)"/><path class="cls-4" d="M72.65,63a2.14,2.14,0,0,0-1.13,1.15c-.3.73.08,1-.23,1.53s-1.16.32-1.51.89a1.43,1.43,0,0,0,.4,1.74c.71.49,1.86-.2,2.26-.44,1.24-.74,1.19-1.55,2.21-1.78.54-.12.94,0,1.32-.32a1.77,1.77,0,0,0,.46-.91,1.3,1.3,0,0,0,0-.78c-.18-.46-.69-.64-1.12-.8a4.86,4.86,0,0,0-.85-.19A3.91,3.91,0,0,0,72.65,63Z"/><path class="cls-4" d="M76.71,67.23a2.48,2.48,0,0,0-1.9.13C74,68,74,69.48,74.4,70.51c.64,1.49,2.47,2.4,3.54,2,.62-.25.68-.82,1.43-1s1.18.4,1.64.14.54-1.07.39-1.63a2.76,2.76,0,0,0-1.53-1.5,6.69,6.69,0,0,0-.73-.3A17.78,17.78,0,0,0,76.71,67.23Z"/><text class="cls-5" transform="translate(39.52 72.59)">world</text><text class="cls-6" transform="translate(86.31 71.77)">peace</text><path class="cls-7" d="M22.45,60.41l.48-9.87a25,25,0,0,1-2.2,7.53,25.06,25.06,0,0,1-4.57,6.63Z"/><path class="cls-7" d="M128.8,61.37l-1.2-9.82a24.92,24.92,0,0,0,7.79,13.63Z"/><path class="cls-8" d="M128.48,22.67c2.44,3.72,4.61,6.65,6.16,8.64,3.81,4.94,6.48,7.67,10.47,13.48,1.06,1.55,1.9,2.84,2.45,3.72l2-2.94L135,29.77Z"/><path class="cls-8" d="M21.75,22c-2.23,2.95-4.08,5.31-5.3,6.85C11.9,34.6,9.46,37.32,6,42.34c-1.14,1.64-2,3-2.6,3.88L1.5,43.11q6-6.3,12.07-12.6Z"/><path class="cls-9" d="M27.59,0A54.48,54.48,0,0,0,24.5,10.4a55.36,55.36,0,0,0-1,11.83,69.4,69.4,0,0,0,25,16.31S62,43.57,75.46,43l6.35-.27h0A89.14,89.14,0,0,1,60,38.06a58,58,0,0,1-17-9.91,43.35,43.35,0,0,1-8.84-9.47A40.88,40.88,0,0,1,27.59,0Z"/></g></g></g></svg>