<svg xmlns="http://www.w3.org/2000/svg" viewBox="0 0 161.26 96.89"><defs><style>.cls-1,.cls-11,.cls-2{fill:#27aae1;}.cls-1,.cls-2,.cls-3,.cls-4{stroke:#231f20;stroke-miterlimit:10;}.cls-1,.cls-3{stroke-width:0.75px;}.cls-3{fill:none;}.cls-4{fill:#fff;}.cls-5{fill:#738aba;opacity:0.2;}.cls-6,.cls-8{fill:#1c75bc;}.cls-6{opacity:0.6;}.cls-10,.cls-7{fill:#8dc63f;}.cls-7{opacity:0.33;}.cls-8{opacity:0.47;}.cls-9{fill:#d7df23;opacity:0.38;}.cls-10{opacity:0.54;}.cls-11{opacity:0.62;}</style></defs><g id="Layer_2" data-name="Layer 2"><g id="shading"><path class="cls-1" d="M32.55,76.86v7.29s47.25,27.65,97.76,0V76.86S80.39,99.28,32.55,76.86Z"/><line class="cls-1" x1="37.44" y1="79" x2="37.6" y2="87.02"/><line class="cls-1" x1="47.32" y1="82.16" x2="47.47" y2="90.18"/><line class="cls-1" x1="57.26" y1="85.26" x2="57.41" y2="93.28"/><line class="cls-1" x1="68.61" y1="86.43" x2="68.79" y2="95.53"/><line class="cls-1" x1="79.94" y1="87.16" x2="80.13" y2="96.88"/><line class="cls-1" x1="92.54" y1="86.21" x2="92.73" y2="95.99"/><line class="cls-1" x1="103.77" y1="84.78" x2="103.95" y2="94.11"/><line class="cls-1" x1="112.92" y1="82.64" x2="113.1" y2="91.62"/><line class="cls-1" x1="121.7" y1="80.17" x2="121.85" y2="88.19"/><path class="cls-1" d="M27.12,24.91l-3.06-5S12.56,26,16.13,31l9.54,16.56Z"/><path class="cls-1" d="M25.67,47.55,15.55,30.67a20.83,20.83,0,0,0-5.3,3.69c-1.93,1.84-3.92,3.74-4,6.49a6.57,6.57,0,0,0,.82,3.26A50.53,50.53,0,0,0,12.34,53,51.3,51.3,0,0,0,25,65.07Z"/><path class="cls-1" d="M22.63,63.81A48,48,0,0,1,6.39,42.72a10.48,10.48,0,0,0-2.81,1.52c-.91.68-3,2.26-3.19,4.59a4.84,4.84,0,0,0,.46,2.42C2.54,54.87,4.19,57.73,4.36,58c3.33,4.7,5.13,7.24,8.65,9.3a20.56,20.56,0,0,0,3.08,1.46,8.65,8.65,0,0,0,2.77-.92A9,9,0,0,0,22.63,63.81Z"/><path class="cls-1" d="M134.14,20.84l3.06-5.05s11.5,6.13,7.93,11.12l-9.54,16.56Z"/><path class="cls-1" d="M135.59,43.47Q140.65,35,145.71,26.6a21.48,21.48,0,0,1,5.3,3.68c1.92,1.84,3.92,3.75,4,6.49a6.61,6.61,0,0,1-.82,3.27,50.87,50.87,0,0,1-18,21Q135.91,52.24,135.59,43.47Z"/><path class="cls-1" d="M138.63,59.73a47.67,47.67,0,0,0,9-8.62,48.17,48.17,0,0,0,7.24-12.47,10.48,10.48,0,0,1,2.81,1.52c.9.69,3,2.27,3.19,4.59a4.78,4.78,0,0,1-.47,2.42,71.6,71.6,0,0,1-3.5,6.72c-3.33,4.7-5.13,7.24-8.65,9.31a21,21,0,0,1-3.08,1.46,8.56,8.56,0,0,1-2.77-.93A8.91,8.91,0,0,1,138.63,59.73Z"/><path class="cls-2" d="M135.72,40.18s5.23-15.74,1.55-21S81.08,32.31,81.08,32.31l-.4-.12-.41.12S27.76,13.81,24.08,19.13s1.55,21.05,1.55,21.05c-3.61,6.59.21,16.19.21,16.19-4.67,17.26,3.77,22.48,3.77,22.48,15.22,9.4,33.63,12.9,51.07,13.31,17.43-.41,35.84-3.91,51.06-13.31,0,0,8.44-5.22,3.77-22.48C135.51,56.37,139.33,46.77,135.72,40.18Z"/><path class="cls-3" d="M96.5,50.5s31-1.45,39.49-11.21"/><path class="cls-3" d="M65.1,50.5s-31-1.45-39.49-11.21"/><path class="cls-3" d="M96.5,66.37s31-1.44,39.49-11.2"/><path class="cls-3" d="M65.1,66.94s-31-1.45-39.49-11.21"/><path class="cls-4" d="M140.12.86a10,10,0,0,0-12,5.9A10.06,10.06,0,0,0,112.28,12a10.61,10.61,0,0,0-.35,3,9.84,9.84,0,0,0-4-2.18,10,10,0,0,0-12.34,7,9.52,9.52,0,0,0-.29,1.65,9.75,9.75,0,0,0-2-.76,10,10,0,0,0-7.1.69c-3.06-2.27-7.8-3-12.54-1.53a16.85,16.85,0,0,0-4.88,2.41,10.21,10.21,0,0,0-.41-2.29,10,10,0,0,0-16.5-4.33A10.05,10.05,0,0,0,35.42,8,10,10,0,1,0,22.24,21.26a9,9,0,0,0-.8,7c1.63,5.3,8.2,8,14.67,6a14.3,14.3,0,0,0,5.34-3,8,8,0,0,0,.27,1.27c1.64,5.3,8.48,7.89,15.28,5.79a15.16,15.16,0,0,0,7.13-4.57c1.77,5.13,8.63,7.58,15.49,5.46q.69-.21,1.35-.48a7.37,7.37,0,0,0,1.52,1.68,7.21,7.21,0,0,0,.72,12.41,7.18,7.18,0,0,0-.87,11.63,7.19,7.19,0,0,0,.86,12.28c-.37.24-3.75,2.5-3.91,6.4-.16,4.21,3.53,7.64,7.08,8.16A7.44,7.44,0,0,0,89.56,91l.06-50.5a10,10,0,0,0,10.68-7.08,15.19,15.19,0,0,0,7.27,4.35c6.87,1.88,13.62-.94,15.08-6.29a7.07,7.07,0,0,0,.23-1.27A14.31,14.31,0,0,0,128.32,33c6.53,1.79,13-1.1,14.47-6.45a9,9,0,0,0-1-6.92A10,10,0,0,0,140.12.86Z"/><path class="cls-5" d="M27.05,2.16A22.75,22.75,0,0,0,30.3,15.29c4.05,6.33,10.62,8.38,21.13,11.5,2.29.68,10.58,3,26.83,4.41,8.9.75,16.34.89,21.63.86a9.77,9.77,0,0,1-2.38,4.76A10.36,10.36,0,0,1,94.42,39c-3.83,2-7.72,2-9.56,1.42a9.47,9.47,0,0,1-2-.88c-.8-.5-.91-.79-1.37-1-1-.41-2.07.4-3.11.87-2.91,1.31-6.21.13-8.3-.61A8.51,8.51,0,0,1,66.64,37c-1.51-1.47-1.58-3-2.54-3.09-.8-.07-1,1-2.81,2.28a12.49,12.49,0,0,1-3.08,1.62,15.92,15.92,0,0,1-4.51,1.08,13.23,13.23,0,0,1-6.05-.7,8.28,8.28,0,0,1-4.13-2.65c-1.58-2.14-1.13-4.58-2-4.7-.54-.07-.7.93-1.95,1.95s-2.45,1.2-4.35,1.55a15.42,15.42,0,0,1-4,.24A14.09,14.09,0,0,1,28,34a10.54,10.54,0,0,1-4.2-2.25,6.79,6.79,0,0,1-2.33-3.34c-.35-1.35-.08-2.63.39-4.83.37-1.75.54-1.62.46-2.09-.29-1.86-2.62-2-4.37-4.7a8,8,0,0,1-1-2.22,8.48,8.48,0,0,1,.15-4.25,10.89,10.89,0,0,1,2-4.68C21.93,2.22,26.35,2.15,27.05,2.16Z"/><path class="cls-6" d="M24.62,33.48c.44,1.78.88,3.57,1.33,5.35a23.44,23.44,0,0,0,3.15,2.84c2.33,1.75,5.11,3.17,12.71,5a100.12,100.12,0,0,0,16,2.72c3.93.33,7.27.39,9.75.36a69.76,69.76,0,0,1-18.33-3A70.39,70.39,0,0,1,24.62,33.48Z"/><path class="cls-7" d="M136.43,33.48c-.44,1.78-.89,3.57-1.33,5.35a24.29,24.29,0,0,1-3.16,2.84c-2.32,1.75-5.1,3.17-12.71,5a99.7,99.7,0,0,1-16,2.72c-3.92.33-7.26.39-9.74.36a69.76,69.76,0,0,0,18.33-3A70.39,70.39,0,0,0,136.43,33.48Z"/><path class="cls-6" d="M25,50c.11.84.28,1.76.51,2.74a28.67,28.67,0,0,0,.93,3.08,29.37,29.37,0,0,0,2.69,2.08c3.9,2.64,7.41,3.71,12.71,5,2.44.58,5.41,1.29,9.13,1.88,1.9.3,3.56.47,6.86.83a73.4,73.4,0,0,0,8,.71c0-.23-8.55-1-16.54-3.31A68.37,68.37,0,0,1,25,50Z"/><path class="cls-6" d="M25.2,66.76a19.82,19.82,0,0,0,1.19,6.34,18.68,18.68,0,0,0,1.12,2.48,22.72,22.72,0,0,0,2.91,3c.82.71,3.46,2.88,12.79,6.15.89.31,4.2,1.46,8.67,2.68,3.16.86,5.46,1.37,7.1,1.73a67,67,0,0,0,10.35,1.44h.72s-17-4.15-19.48-5.06a59,59,0,0,1-10.15-4.66A50.79,50.79,0,0,1,25.2,66.76Z"/><path class="cls-6" d="M33.07,81.61l0,2.18h0a96.56,96.56,0,0,0,17,7.24c3.76,1.16,9.38,2.54,9.38,2.54h0s5.2.88,8.85,1.36c4.62.62,11.17,1.19,11.23.79s-9.85-1.88-21.2-5A161.91,161.91,0,0,1,33.07,81.61Z"/><path class="cls-8" d="M15.44,67.89a27.82,27.82,0,0,0,3.45-5c1-1.85,3.21-6.5,3.79-21.14.1-2.35.18-5.73.09-9.84l2.16,8.28a21.78,21.78,0,0,0-1.35,5.94,21.34,21.34,0,0,0,.25,5.63,20,20,0,0,0,1.37,4.45L23.45,64l-.82-.61S18.94,69.18,15.44,67.89Z"/><path class="cls-8" d="M149.55,61.57a9.58,9.58,0,0,1-4.06-1.66c-1.58-1.16-2.6-2.73-3.76-5.79a47.09,47.09,0,0,1-2.65-11.54,88.22,88.22,0,0,1-.61-9.93l-2,7.61a19,19,0,0,1,1.5,5.94,20.39,20.39,0,0,1-.21,4.93,23,23,0,0,1-1.29,4.77l.53,3.85,1.4-1A19,19,0,0,0,142,62.67c1.39,1.1,2.19,1.4,3,1.32a4.44,4.44,0,0,0,1.7-.74C147.42,62.83,148.4,62.27,149.55,61.57Z"/><path class="cls-9" d="M121.76,83.3s18.53-11,11.27-25.59c0,0,3.2-12.39-.07-15.82l1.76-1.34s4.09,5.59.33,14.91l-.14,1.59S143.9,75.27,121.76,83.3Z"/><path class="cls-10" d="M145.17,28.63a16.39,16.39,0,0,1,2.62,1.56,17.87,17.87,0,0,1,6.4,9.85,6.18,6.18,0,0,1,2.74,1.26s1.16,1,3,5.39h0a4.2,4.2,0,0,0,.29-1.21,5.43,5.43,0,0,0-1.56-3.85A7.64,7.64,0,0,0,155,39.29l-.66-.65a10.53,10.53,0,0,0-.48-2.88,12.29,12.29,0,0,0-4.94-6.3,14.72,14.72,0,0,0-3.12-1.68"/><path class="cls-10" d="M16,32.75a15.68,15.68,0,0,0-2.62,1.56,17.88,17.88,0,0,0-6.4,9.84A6.12,6.12,0,0,0,4.2,45.42s-1.16.95-3,5.38h0a3.82,3.82,0,0,1-.29-1.2,5.46,5.46,0,0,1,1.56-3.86,7.44,7.44,0,0,1,3.65-2.33l.66-.65a10.9,10.9,0,0,1,.47-2.89,12.32,12.32,0,0,1,4.95-6.29,15.29,15.29,0,0,1,3.11-1.69"/><path class="cls-11" d="M145,15.41a9.87,9.87,0,0,0-2.33-10.33c-3.75-3.66-8.85-2.52-9.17-2.45a9.09,9.09,0,0,1,10,1.28A9.16,9.16,0,0,1,145,15.41Z"/><path class="cls-11" d="M128.16,9a8.16,8.16,0,0,0-8.58-1.68,8.55,8.55,0,0,0-4.89,6.12A7.49,7.49,0,0,1,119,6.25,7.57,7.57,0,0,1,128.16,9Z"/><path class="cls-11" d="M133.46,31.51a8.13,8.13,0,0,0,7.06-5.14,8.53,8.53,0,0,0-1.15-7.75,7.48,7.48,0,0,1,2.32,8A7.55,7.55,0,0,1,133.46,31.51Z"/></g></g></svg>