<svg xmlns="http://www.w3.org/2000/svg" viewBox="0 0 114.12 112.56"><defs><style>.cls-1{fill:#f26522;}.cls-1,.cls-2,.cls-4{stroke:#231f20;}.cls-1,.cls-2,.cls-3,.cls-4,.cls-5{stroke-miterlimit:10;}.cls-2{fill:#2e3192;}.cls-3{fill:#fff;stroke:#fff;}.cls-4{fill:#231f20;}.cls-5{fill:#ffde17;stroke:#f7941d;}.cls-6{fill:#524fa1;}.cls-7{fill:#171445;}.cls-8{fill:#ef4136;}.cls-9{fill:#fbb040;}.cls-10{fill:#fdfad9;}.cls-11{fill:#e5ecef;}</style></defs><g id="Layer_2" data-name="Layer 2"><g id="shading"><path class="cls-1" d="M33.77,101.24l-8.54,5.47s-.11,7.41,12.19,4.79l9-6.41"/><path class="cls-1" d="M82.18,101.24l8.54,5.47s.11,7.41-12.19,4.79l-9-6.41"/><path class="cls-2" d="M94.81,57.7c.17,3.08.27,6.17.33,9.26.15,7.94,0,16.2-3.5,23.34a31.2,31.2,0,0,1-15.19,14.32,43.85,43.85,0,0,1-20.78,3.54c-12.18-.72-24.75-6.22-30.88-16.77-3.91-6.73-4.85-14.75-5.17-22.53-.59-14.67.91-29.92,7-43.42C32.4,12.79,43.39-.52,58.72.56c8.31.59,15.8,5.6,21.2,11.94C86.15,19.83,90,28.94,92.22,38.3A115.09,115.09,0,0,1,94.81,57.7Z"/><path class="cls-2" d="M20.1,50.94c-3.39,3.59-6.08,6.68-8,9-.87,1-2.71,3.23-4.94,6.19A38.61,38.61,0,0,0,1.5,75.67c-1.38,3.53-1,4.6-.67,5.18.2.3,1,1.46,4.91,1.45a22.32,22.32,0,0,0,11.47-3.41l3-2.7"/><path class="cls-2" d="M94,50.81c3.38,3.59,6.07,6.68,8,9,.86,1,2.7,3.22,4.93,6.19a38.43,38.43,0,0,1,5.66,9.57c1.38,3.52,1,4.59.67,5.17-.19.3-1.05,1.46-4.91,1.45a22.14,22.14,0,0,1-11.47-3.41l-2-1.79"/><path class="cls-3" d="M86.12,88.22c2.81-6.73,3.06-12.41,3.27-18.47A97.18,97.18,0,0,0,88.3,52c-1.55-11.8-4.07-18.1-4.72-19.65C82,28.63,77.1,16.62,71.67,16.94c-1,.06-3,1.62-7,4.75-4.95,3.9-5.45,4.71-7,4.79-.93.05-2.11-.18-8.49-5.16-4.85-3.78-4.93-4.24-5.92-4.33-7.63-.75-11.58,13.17-13.41,18.07-3.07,8.23-3.54,14.66-4.12,23.39-.87,13.1-1.37,22.6,4.32,31.89a26.87,26.87,0,0,0,6.32,7.28c6.43,5,14,5.72,17.8,6.1a44.37,44.37,0,0,0,9,0c3.49-.22,12.73-1.26,18.61-7.94A24.64,24.64,0,0,0,86.12,88.22Z"/><ellipse class="cls-4" cx="71.94" cy="31.21" rx="2.46" ry="3.88"/><path class="cls-5" d="M52.41,33.76h8.8L57,40.25Z"/><ellipse class="cls-4" cx="41.68" cy="31.21" rx="2.46" ry="3.88"/><path class="cls-6" d="M20.1,51.74a117.4,117.4,0,0,0-9.88,11.08c-2,2.55-3.58,4.91-4.38,6.09-.57.86-1.29,1.94-2.12,3.38a25.52,25.52,0,0,0-2.07,4.22,10.44,10.44,0,0,0-.76,3.21A18.93,18.93,0,0,0,2,77.11C6.5,67.81,13.68,61.6,20.1,57.53Z"/><path class="cls-6" d="M94,51.53a121.74,121.74,0,0,1,9.88,11.08c2,2.55,3.57,4.91,4.37,6.1.57.85,1.29,1.94,2.13,3.37a26,26,0,0,1,2.06,4.22,10.44,10.44,0,0,1,.76,3.21,17.71,17.71,0,0,1-1.14-2.6C107.62,67.6,100.44,61.39,94,57.33Z"/><path class="cls-6" d="M35.83,11.88a30.51,30.51,0,0,1,6.64-6.15A25.44,25.44,0,0,1,51.1,1.68,24.14,24.14,0,0,1,60,1.19,53,53,0,0,0,35.83,11.88Z"/><path class="cls-7" d="M15.57,79.33a15.41,15.41,0,0,0,4-6.41,14.52,14.52,0,0,0,.63-3.17l.12,6.63c-1.09.75-2.25,1.5-3.5,2.23Q16.2,79,15.57,79.33Z"/><path class="cls-7" d="M99.37,79.72a15.48,15.48,0,0,1-4-6.41,14.74,14.74,0,0,1-.63-3.17l-.12,6.63c1.09.75,2.25,1.49,3.5,2.22Z"/><path class="cls-8" d="M42.45,105.94,37,110.17a10.91,10.91,0,0,1-7.62-.23,9.88,9.88,0,0,1-2.08-1.27L25.74,107a4,4,0,0,0,.44,2c1.35,2.49,5.82,3.33,11.1,2l6.46-4.63Z"/><path class="cls-8" d="M73.71,106.25l5.3,3.92a10.91,10.91,0,0,0,7.62-.23,9.39,9.39,0,0,0,2.08-1.27L90.17,107a3.69,3.69,0,0,1-.35,2c-1.24,2.45-5.71,3.32-11.09,2l-6.23-4.37Z"/><path class="cls-9" d="M26.48,106.86l7.08-4.51,1,.09-5.74,3.71Z"/><path class="cls-10" d="M59.8,34.61l-2.17,3.56-.44.17,1.74-2.91Z"/><path class="cls-9" d="M89.65,106.83l-7.09-4.5-1,.08,5.74,3.71Z"/><path class="cls-11" d="M25.51,54.78c-.14,1.32-.33,3.29-.44,5.69C24.56,71,24,82.4,30.53,92.18a26.71,26.71,0,0,0,6.58,7c6.61,4.74,14.2,5.22,18,5.46a46.35,46.35,0,0,0,9-.34,34.17,34.17,0,0,0,9.45-2.27,23.11,23.11,0,0,0,5.71-3.27,22.57,22.57,0,0,0,3.15-3.07,18.88,18.88,0,0,0,1.44-1.9,27.77,27.77,0,0,0,2.53-5.06c.25-.59.44-1.07.56-1.37-1.38,1.24-15.88,13.9-33.51,9.63C36.74,93,24.2,75.36,25.51,54.78Z"/></g></g></svg>