<svg xmlns="http://www.w3.org/2000/svg" viewBox="0 0 229.91 178.42"><defs><style>.cls-1{isolation:isolate;}.cls-2{fill:#f26522;}.cls-10,.cls-11,.cls-12,.cls-13,.cls-15,.cls-16,.cls-17,.cls-18,.cls-19,.cls-2,.cls-20,.cls-21,.cls-3,.cls-5,.cls-7{stroke:#231f20;}.cls-10,.cls-11,.cls-12,.cls-13,.cls-15,.cls-16,.cls-17,.cls-18,.cls-19,.cls-2,.cls-20,.cls-21,.cls-27,.cls-3,.cls-4,.cls-5,.cls-6,.cls-7{stroke-miterlimit:10;}.cls-3{fill:#2e3192;}.cls-19,.cls-4,.cls-7{fill:#fff;}.cls-4{stroke:#fff;}.cls-5{fill:#231f20;}.cls-31,.cls-6{fill:#ffde17;}.cls-6{stroke:#f7941d;}.cls-8{fill:#ef4136;}.cls-17,.cls-30,.cls-9{fill:#fbb040;}.cls-10{fill:#f9ed32;}.cls-11,.cls-21{fill:#ed1c24;}.cls-12{fill:#00aeef;}.cls-13{fill:#39b54a;}.cls-14{fill:#524fa1;}.cls-15{fill:#603913;}.cls-16{fill:#009444;}.cls-18{fill:#754c29;}.cls-18,.cls-19,.cls-21{stroke-width:0.75px;}.cls-20,.cls-27{fill:none;}.cls-20{stroke-width:0.5px;}.cls-22,.cls-26{fill:#2b3990;}.cls-22{mix-blend-mode:multiply;opacity:0.09;}.cls-23{fill:#8b5e3c;}.cls-24{fill:#3c2415;}.cls-25{fill:#8cc6ec;opacity:0.53;}.cls-26{opacity:0.19;}.cls-27{stroke:#a97c50;}.cls-28{fill:#171445;}.cls-29{fill:#27245e;}.cls-30{opacity:0.51;}.cls-31,.cls-32,.cls-33{opacity:0.68;}.cls-32{fill:#f1f2f2;}.cls-33{fill:#8dc63f;}</style></defs><g class="cls-1"><g id="Layer_2" data-name="Layer 2"><g id="shading"><path class="cls-2" d="M102.54,162.28,90.2,170.19s-.17,10.71,17.62,6.92l13.08-9.27"/><path class="cls-2" d="M172.52,162.28l12.34,7.91s.16,10.71-17.62,6.92l-13.08-9.27"/><path class="cls-3" d="M190.76,99.34c.26,4.46.4,8.92.49,13.38.21,11.48,0,23.42-5.06,33.74-4.5,9.23-12.62,16.44-21.95,20.71s-19.81,5.71-30.05,5.11c-17.61-1-35.77-9-44.63-24.24-5.65-9.72-7-21.32-7.47-32.56-.86-21.21,1.31-43.25,10.17-62.76,8.3-18.29,24.18-37.52,46.34-36,12,.85,22.84,8.09,30.65,17.26,9,10.59,14.62,23.76,17.77,37.3A165.08,165.08,0,0,1,190.76,99.34Z"/><path class="cls-3" d="M82.77,89.58c-4.89,5.19-8.77,9.65-11.56,13-1.25,1.49-3.91,4.67-7.13,8.95a56.06,56.06,0,0,0-8.19,13.83c-2,5.1-1.51,6.64-1,7.48.28.43,1.52,2.11,7.1,2.1A32.12,32.12,0,0,0,78.6,130l4.29-3.9"/><path class="cls-3" d="M189.64,89.39c4.89,5.18,8.77,9.65,11.56,13,1.25,1.48,3.91,4.66,7.13,8.94a55.63,55.63,0,0,1,8.19,13.84c2,5.09,1.51,6.64,1,7.48-.28.43-1.52,2.11-7.1,2.09a32,32,0,0,1-16.57-4.93L191,127.19"/><path class="cls-4" d="M178.21,143.46c4.07-9.73,4.42-17.94,4.73-26.7a142.15,142.15,0,0,0-1.57-25.63c-2.26-17-5.9-26.15-6.82-28.41-2.23-5.4-9.38-22.75-17.23-22.29-1.41.08-4.31,2.34-10,6.86-7.15,5.64-7.88,6.81-10.15,6.93-1.35.06-3-.26-12.28-7.46-7-5.46-7.11-6.12-8.55-6.26-11-1.08-16.74,19-19.39,26.11-4.43,11.9-5.11,21.2-5.94,33.81-1.26,19-2,32.68,6.24,46.1a38.68,38.68,0,0,0,9.14,10.53c9.29,7.18,20.23,8.27,25.72,8.81a64.78,64.78,0,0,0,13.08,0c5-.32,18.4-1.82,26.9-11.47C175.1,150.9,176.49,147.56,178.21,143.46Z"/><ellipse class="cls-5" cx="157.71" cy="61.06" rx="3.55" ry="5.61"/><path class="cls-6" d="M129.48,64.74H142.2l-6,9.39Z"/><ellipse class="cls-5" cx="113.98" cy="61.06" rx="3.55" ry="5.61"/><path class="cls-7" d="M145,9.31c.62-1.2,3.92-7.25,10.47-8.56a13.18,13.18,0,0,1,4.44-.11c1.93.4,3.12,1.63,3,2.64a1.92,1.92,0,0,1-.72,1.23,2.86,2.86,0,0,1-2,.49c-2.07-.13-5.26.13-6.52,1.12s-2.09,2.5-2.44,5.06C151.27,11.18,147.31,13.19,145,9.31Z"/><path class="cls-7" d="M102.71,18.9s46.91-36.34,78.12,13.44c0,0,15.56,22.89-89.22-8.4C91.61,23.94,90.24,16.64,102.71,18.9Z"/><path class="cls-8" d="M114.92,169.08,107,175.19a15.67,15.67,0,0,1-11-.33A14,14,0,0,1,93,173l-2.24-2.41a5.74,5.74,0,0,0,.64,2.9c2,3.6,8.41,4.81,16,2.93l9.33-6.69Z"/><path class="cls-8" d="M160.12,169.52l7.65,5.67a15.67,15.67,0,0,0,11-.33,13.72,13.72,0,0,0,3-1.84l2.1-2.48a5.37,5.37,0,0,1-.5,3c-1.8,3.54-8.26,4.8-16,2.93l-9-6.32Z"/><path class="cls-9" d="M91.84,170.42l10.24-6.52,1.38.12-8.29,5.37Z"/><path class="cls-9" d="M183.15,170.38l-10.24-6.52-1.38.12,8.29,5.37Z"/><path class="cls-7" d="M191,146.21c-.05-3-.1-5.77-.2-11.13,0-1.62-.14-6.93-.17-8.51a5.86,5.86,0,0,1-4.25-1.79,6.18,6.18,0,0,1,0-7.49q3.85-15.08,7.72-30.15a6.27,6.27,0,0,0-.78-1.79,7.3,7.3,0,0,0-2.8-2.52l-10.87,25.42s-21.32.06-42,0h-2c-20.67.11-42,0-42,0L82.73,82.83a7.32,7.32,0,0,0-2.81,2.52,6.27,6.27,0,0,0-.78,1.79q3.87,15.08,7.72,30.15a6.2,6.2,0,0,1,0,7.49,5.67,5.67,0,0,1-4,1.77L82.82,131v5.64q0,14.91.29,29.6l108.18-1.28c0-1.87-.06-4.37-.1-7.31S191.08,150.92,191,146.21Z"/><path class="cls-10" d="M151.27,137.13c-1.36-.27-3.3-.67-4.72.34-2.09,1.47-2.14,5.28-1,7.84,1.61,3.72,6.16,6,8.83,4.94,1.56-.61,1.72-2,3.57-2.39s3,1,4.09.35,1.36-2.67,1-4.06c-.57-2-2.59-3.1-3.82-3.75-.45-.24-.51-.21-1.81-.76C152.49,137.59,152.34,137.35,151.27,137.13Z"/><ellipse class="cls-11" cx="125.9" cy="148.59" rx="4.12" ry="7.93" transform="translate(-50.5 66.04) rotate(-24.65)"/><circle class="cls-12" cx="157.95" cy="122.91" r="3.47"/><path class="cls-13" d="M105.34,121.57a7.88,7.88,0,0,0-4.12,4.19c-1.09,2.66.29,3.84-.85,5.6-1.45,2.22-4.24,1.18-5.51,3.26A5.24,5.24,0,0,0,96.31,141c2.6,1.79,6.8-.72,8.28-1.61,4.53-2.7,4.36-5.67,8.08-6.51,2-.45,3.44.1,4.84-1.18a6.17,6.17,0,0,0,1.67-3.33,4.77,4.77,0,0,0,0-2.87c-.68-1.66-2.52-2.33-4.13-2.91a17.1,17.1,0,0,0-3.1-.71C108.46,121.33,106.73,121.05,105.34,121.57Z"/><path class="cls-14" d="M79.86,94A172.71,172.71,0,0,0,66.1,110.47c-2.75,3.78-4.94,7.26-6,9-.79,1.26-1.78,2.86-2.91,5a36.37,36.37,0,0,0-2.79,6.19c-.72,2.28-1.13,4.61-1,4.67s1.34-3.28,1.53-3.82c1.42-4,7.45-12.12,27.09-29.9C81.31,99.07,80.58,96.54,79.86,94Z"/><path class="cls-15" d="M75.44,108.83c-6.89-14.91-28.78-19.46-48.9-10.17S-4.3,127.58,2.59,142.49,31.37,162,51.49,152.66,82.33,123.75,75.44,108.83ZM65.18,130.19c-5.11,2.36-10.66,1.21-12.41-2.57s1-8.76,6.08-11.12,10.65-1.2,12.4,2.58S70.28,127.84,65.18,130.19Z"/><path class="cls-12" d="M34.38,120A5.63,5.63,0,0,0,32,122c-1.48,2.55.36,7.57,3.6,8.45,2.57.7,5-1.49,7-3.27a5.71,5.71,0,0,0,1.28-1.59,4.29,4.29,0,0,0,.64-2.6,5.76,5.76,0,0,0-1.17-2.33c-.79-1.22-1.19-1.83-1.73-2.06-.74-.32-1.14,0-3.24.55C35.93,119.72,35.58,119.43,34.38,120Z"/><path class="cls-16" d="M8.7,128.75c-1.08.86-2.64,2.08-2.79,3.82-.23,2.55,2.66,5.05,5.32,5.85,3.88,1.18,8.55-.84,9.48-3.55.54-1.58-.46-2.63.48-4.27s2.66-1.6,2.9-2.9-1.16-2.78-2.47-3.36c0,0-2-.86-5.33.49-.47.19-.49.25-1.74.89C9.84,128.11,9.56,128.07,8.7,128.75Z"/><path class="cls-17" d="M26.9,104.49a6.59,6.59,0,0,0-3.47,2.57c-1.82,3.24.95,9.16,4.17,9.8,2.28.45,2.7-2.18,8.11-3.79,1.66-.49,3.12-.7,4.08-2a5.35,5.35,0,0,0,.81-3.3,4.92,4.92,0,0,0-1.24-3.6,4.16,4.16,0,0,0-1.72-1,7.1,7.1,0,0,0-3.06-.06c-.87.11-1.51.27-1.76.31C28.06,104.24,27.84,104.12,26.9,104.49Z"/><path class="cls-11" d="M30.78,139.77c-1.68-.65-3.81.17-5.11,1.27-1.54,1.29-2.73,3.64-2.09,5.48,1.2,3.41,8.18,3.42,11,3.42a19.8,19.8,0,0,0,5.77-.86,10.55,10.55,0,0,0,4.41-2.2,4.22,4.22,0,0,0,1.14-1.49,4.49,4.49,0,0,0,.18-2.63c-.15-.76-.75-4-3.7-5.06a5.11,5.11,0,0,0-5.17.93c-.75.81-.63,1.59-1.58,2.11a3.7,3.7,0,0,1-2.61.14C31.83,140.6,31.62,140.1,30.78,139.77Z"/><path class="cls-14" d="M193.27,93.31a160.22,160.22,0,0,1,12.48,14.93c2.48,3.43,4.47,6.59,5.47,8.18.72,1.14,1.62,2.59,2.65,4.51a31.32,31.32,0,0,1,2.52,5.62c.66,2.06,1,4.18.86,4.23a21.36,21.36,0,0,1-1.38-3.46c-1.29-3.64-6.76-11-24.57-27.12Q192.27,96.76,193.27,93.31Z"/><rect class="cls-18" x="209.71" y="86.29" width="4.31" height="58.93" rx="1.49" transform="translate(18.97 -29.42) rotate(8.31)"/><path class="cls-19" d="M209.18,87.6a11.83,11.83,0,0,0,14.16.52c5.5-3.57,6.11-10.15,6.18-11.05a22.49,22.49,0,0,0-15-22s2.55,8.67-5.37,16.72c-2.27,2.32-4.14,5.1-4,8.56C205.31,83.49,207.39,86,209.18,87.6Z"/><line class="cls-20" x1="216.97" y1="83.38" x2="216.01" y2="89.94"/><line class="cls-20" x1="211.83" y1="85.98" x2="212.45" y2="89.29"/><line class="cls-20" x1="220.42" y1="80.35" x2="217.25" y2="90.09"/><path class="cls-21" d="M211.72,68.15a1.73,1.73,0,0,0-.48,1.41,2.1,2.1,0,0,0,2.68,1,9.83,9.83,0,0,1,3.74-.76c1.23.08,1.94,1.74,2.18,2.11a5.24,5.24,0,0,1,.29.52,3.17,3.17,0,0,0,.73,1A3.16,3.16,0,0,0,226.12,72c.26-.84.56-1.06.78-1.1s.5.22,1,.24a1.63,1.63,0,0,0,1-.29c.78-.71-1.57-6-5.74-10.24a26.38,26.38,0,0,0-9-5.91,15.27,15.27,0,0,1,.49,5.7,16.68,16.68,0,0,1-1.19,4.57A20,20,0,0,1,211.72,68.15Z"/><path class="cls-22" d="M82.73,128.6q.09,19.18.19,38.37l62.3-.75a166.24,166.24,0,0,1-27.17-2.84c-10.48-2-15.81-3-20.17-6.44-11.62-9.07-10.47-28-9.94-33.59a5.86,5.86,0,0,1-1.22,3.07A6.06,6.06,0,0,1,82.73,128.6Z"/><path class="cls-23" d="M4.85,119.17c2-2.72,14.92-20.28,37.82-22a50.43,50.43,0,0,1,28.58,6.57,29.63,29.63,0,0,0-7.13-5.4,31.55,31.55,0,0,0-8.52-3,40.66,40.66,0,0,0-13.45-.2,49.72,49.72,0,0,0-37.3,24.11Z"/><path class="cls-24" d="M8.08,148.73a51.34,51.34,0,0,0,20.4,4.82,54.3,54.3,0,0,0,23.37-5,56.71,56.71,0,0,0,22.32-18.57,37.36,37.36,0,0,1-3.41,6.19,39.71,39.71,0,0,1-6.64,7.41A52.12,52.12,0,0,1,53,151.16a51.07,51.07,0,0,1-19.19,5.48,43.59,43.59,0,0,1-10.72-.55,32.56,32.56,0,0,1-6.56-1.83,19.62,19.62,0,0,1-5.29-2.82C10,150.5,8.08,148.73,8.08,148.73Z"/><path class="cls-25" d="M178.43,31.66A72.45,72.45,0,0,0,129.89,7.93a43.47,43.47,0,0,1,15.23-.28A46.25,46.25,0,0,1,156.29,11C168.58,16.59,175.76,27.24,178.43,31.66Z"/><path class="cls-26" d="M134.15,33a169.53,169.53,0,0,0,21.29,4.78c9.62,1.42,17.05,1.53,17,1.69s-7,.25-15.73-.7a159,159,0,0,1-17.1-2.94c-10.37-2.22-18.32-4.24-20-4.67-7-1.8-16.34-4.28-27.33-7.54a3.9,3.9,0,0,1,.94-2.86,8.09,8.09,0,0,1,2.3-1.39h0C123.58,30,134.15,33,134.15,33Z"/><line class="cls-27" x1="216.42" y1="90.72" x2="208.56" y2="143.66"/><path class="cls-28" d="M76.28,130.27a22.29,22.29,0,0,0,5.8-9.26,21.81,21.81,0,0,0,.91-4.59c.06,3.2.11,6.39.17,9.58q-2.35,1.64-5,3.23C77.49,129.59,76.88,129.94,76.28,130.27Z"/><path class="cls-28" d="M197,131a22.29,22.29,0,0,1-5.28-9.57,21.11,21.11,0,0,1-.65-4.63c-.24,3.18-.47,6.37-.71,9.55,1.51,1.17,3.13,2.35,4.87,3.5C195.79,130.21,196.38,130.59,197,131Z"/><path class="cls-14" d="M167.56,41.2l6.09-.24h0a123.91,123.91,0,0,1,10.51,22.29,78.75,78.75,0,0,1,3.16,13.12A93.26,93.26,0,0,0,167.56,41.2Z"/><path class="cls-29" d="M97.63,43.58a20.57,20.57,0,0,1,10.07-7.95,20,20,0,0,1,7.67-.87c11.8.43,21.2,2.24,21.24,2.07s-5.75-1.69-27.83-7.19a67.46,67.46,0,0,0-5.41,5.6A45.85,45.85,0,0,0,97.63,43.58Z"/><path class="cls-30" d="M214.85,55.61a26.07,26.07,0,0,1,10.09,9,25.47,25.47,0,0,1,2.83,6,.67.67,0,0,0,.62-.1c.19-.21,0-.64-.4-1.68s-.6-1.44-.68-1.59a24.15,24.15,0,0,0-2.1-3.37,29,29,0,0,0-2.48-2.89A28.46,28.46,0,0,0,214.85,55.61Z"/><path class="cls-22" d="M229,73.71s2.47,14.57-12.93,16.5c0,0-4.06.87-9.73-6.06C206.33,84.15,219.43,94.17,229,73.71Z"/><path class="cls-24" d="M57.51,116.42a20.16,20.16,0,0,1,3.37-1.31,13.23,13.23,0,0,1,3-.59,8.55,8.55,0,0,1,6.84,2.79,8,8,0,0,1,1.73,5.17c.16-.49,1.54-5-.81-7.76C69.09,111.73,62.53,111.56,57.51,116.42Z"/><path class="cls-31" d="M25.49,106.44c5.35-2.23,10.33-1.73,12.26.92a5.05,5.05,0,0,1,.93,2.85c.16-.37,1.26-3,0-4.62-1-1.26-2.82-1.2-5.15-1.1A22.1,22.1,0,0,0,25.49,106.44Z"/><path class="cls-32" d="M33.29,121.84c3.83-1.59,7.38-1.23,8.76.66a3.67,3.67,0,0,1,.66,2c.11-.27.9-2.15,0-3.3-.69-.9-2-.86-3.68-.79A15.87,15.87,0,0,0,33.29,121.84Z"/><path class="cls-33" d="M10.62,137.31c4.13.1,7.33-1.5,8-3.71a3.53,3.53,0,0,0-.09-2.09c.2.2,1.59,1.63,1.15,3-.33,1.06-1.58,1.5-3.16,2A16.16,16.16,0,0,1,10.62,137.31Z"/><path class="cls-32" d="M35.86,147.6c4.12.1,7.32-1.49,8-3.71a3.51,3.51,0,0,0-.08-2.09c.2.2,1.58,1.64,1.15,3-.34,1.07-1.59,1.5-3.17,2A16.14,16.14,0,0,1,35.86,147.6Z"/></g></g></g></svg>