<svg xmlns="http://www.w3.org/2000/svg" viewBox="0 0 160.62 203.87"><defs><style>.cls-1{isolation:isolate;}.cls-2{fill:#f26522;}.cls-10,.cls-2,.cls-3,.cls-5,.cls-7,.cls-8{stroke:#231f20;}.cls-10,.cls-2,.cls-3,.cls-4,.cls-5,.cls-6,.cls-7,.cls-8{stroke-miterlimit:10;}.cls-3{fill:#be1e2d;}.cls-4,.cls-7,.cls-8{fill:#fff;}.cls-4{stroke:#fff;}.cls-5{fill:#231f20;}.cls-6{fill:#ffde17;stroke:#f7941d;}.cls-8{stroke-width:0.75px;}.cls-12,.cls-9{fill:#fbb040;}.cls-9{mix-blend-mode:hard-light;opacity:0.55;}.cls-10{fill:#603913;}.cls-11{fill:#ef4136;}.cls-13{fill:#3c2415;}.cls-14{fill:#8b5e3c;}.cls-15,.cls-17,.cls-20{fill:#2b3990;}.cls-15{opacity:0.2;}.cls-16,.cls-18{fill:#8cc6ec;}.cls-16{opacity:0.57;}.cls-17{opacity:0.19;}.cls-18{opacity:0.53;}.cls-19{fill:#262262;}.cls-19,.cls-20{mix-blend-mode:multiply;opacity:0.09;}.cls-21{fill:#71121b;}</style></defs><g class="cls-1"><g id="Layer_2" data-name="Layer 2"><g id="shading"><path class="cls-2" d="M57.72,186.91l-10.78,6.91s-.14,9.35,15.39,6.05l11.43-8.1"/><path class="cls-2" d="M117.06,189.71l10.78,6.91s.14,9.35-15.39,6L101,194.57"/><path class="cls-3" d="M136.36,133.37c.22,3.89.35,7.8.42,11.69.19,10,0,20.46-4.42,29.48-3.93,8.06-11,14.36-19.18,18.09a55.34,55.34,0,0,1-26.25,4.46c-15.38-.9-31.25-7.85-39-21.17-4.94-8.5-6.12-18.63-6.52-28.45-.76-18.53,1.14-37.78,8.88-54.83,7.25-16,21.13-32.79,40.49-31.42,10.49.73,19.95,7.06,26.77,15.07,7.87,9.25,12.77,20.76,15.53,32.59A144.9,144.9,0,0,1,136.36,133.37Z"/><path class="cls-3" d="M42,124.84c-4.27,4.53-7.67,8.44-10.1,11.33-1.09,1.29-3.41,4.07-6.23,7.81a48.53,48.53,0,0,0-7.15,12.09c-1.74,4.45-1.33,5.8-.85,6.54.25.37,1.33,1.84,6.21,1.82a28.06,28.06,0,0,0,14.48-4.3l3.74-3.41"/><path class="cls-3" d="M135.37,124.67c4.28,4.53,7.67,8.44,10.11,11.33,1.09,1.29,3.41,4.07,6.23,7.81a48.83,48.83,0,0,1,7.15,12.09c1.73,4.45,1.32,5.8.84,6.54-.24.37-1.33,1.84-6.2,1.82A28,28,0,0,1,139,160l-2.49-2.26"/><path class="cls-4" d="M125.39,171.92c3.55-8.51,3.87-15.68,4.13-23.33a123.63,123.63,0,0,0-1.37-22.39c-2-14.9-5.15-22.85-6-24.82-2-4.72-8.19-19.88-15-19.48-1.23.07-3.76,2-8.77,6-6.25,4.93-6.88,6-8.87,6.06-1.18,0-2.66-.23-10.72-6.52-6.12-4.77-6.22-5.35-7.47-5.47C61.67,81,56.67,98.59,54.37,104.78c-3.88,10.39-4.47,18.51-5.2,29.54-1.1,16.55-1.73,28.55,5.45,40.27a33.76,33.76,0,0,0,8,9.19c8.11,6.28,17.68,7.23,22.47,7.71a56.68,56.68,0,0,0,11.43,0c4.41-.28,16.07-1.6,23.5-10C122.67,178.42,123.89,175.5,125.39,171.92Z"/><ellipse class="cls-5" cx="107.48" cy="99.93" rx="3.1" ry="4.9"/><path class="cls-6" d="M82.82,103.14H93.93l-5.27,8.2Z"/><ellipse class="cls-5" cx="69.27" cy="99.93" rx="3.1" ry="4.9"/><path class="cls-7" d="M139,29.28c-1.94-7.08-8.66-11.77-16.59-12.43C121.08,10,116.8,4.14,110.38,1.68S97,.69,91.44,4.85a19.7,19.7,0,0,0-12-4.11c-9.56,0-17.62,7-20.19,16.49-10.17,1.26-18,8.66-18,17.63s8.07,16.63,18.48,17.71V77.11h59.07V52.88a25.34,25.34,0,0,0,4.64-.8C134.67,49,141.64,38.78,139,29.28Z"/><line class="cls-8" x1="65.45" y1="77.11" x2="65.45" y2="62.05"/><line class="cls-8" x1="69.81" y1="77.11" x2="69.81" y2="69.09"/><line class="cls-8" x1="112.39" y1="77.11" x2="112.39" y2="63.13"/><line class="cls-8" x1="108.46" y1="77.11" x2="108.46" y2="59.46"/><line class="cls-8" x1="103.01" y1="77.11" x2="103.01" y2="73.1"/><line class="cls-8" x1="84.46" y1="77.11" x2="84.46" y2="69.09"/><path class="cls-9" d="M38.38,129a135,135,0,0,0-10.73,12.66c-2.14,2.91-3.86,5.59-4.72,6.93-.62,1-1.39,2.21-2.28,3.84a27.81,27.81,0,0,0-2.19,4.77,11.53,11.53,0,0,0-.76,3.6,16.55,16.55,0,0,0,1.2-2.94c.43-1.15,2.11-5.38,10.71-14.29a134,134,0,0,1,10.09-9.42Z"/><path class="cls-9" d="M138.53,128.19a135.47,135.47,0,0,1,11,12.43c2.2,2.86,4,5.51,4.86,6.84.64.95,1.44,2.17,2.36,3.78A27.37,27.37,0,0,1,159,156a11.27,11.27,0,0,1,.83,3.58,16.9,16.9,0,0,1-1.26-2.91c-.45-1.14-2.22-5.34-11-14.07-2.53-2.5-6-5.71-10.28-9.21Z"/><path class="cls-10" d="M23.24,110.26c-1.9-8.73-8.42-14.74-14.55-13.4S-.88,106.35,1,115.09c1.59,7.31,6.42,12.69,11.54,13.47l11,50.72A2.95,2.95,0,0,0,29.35,178l-11-50.72C22.67,124.47,24.82,117.58,23.24,110.26Z"/><path class="cls-11" d="M68,193.67l-6.22,4.63a13.73,13.73,0,0,1-9.63-.29,12.21,12.21,0,0,1-2.63-1.6c-.65-.7-1.3-1.41-2-2.11a5,5,0,0,0,.56,2.53c1.71,3.15,7.35,4.21,14,2.57l7.31-5.17Z"/><path class="cls-11" d="M106.36,196l6.68,5a13.74,13.74,0,0,0,9.63-.3,12.06,12.06,0,0,0,2.63-1.6l1.83-2.17a4.6,4.6,0,0,1-.43,2.59c-1.57,3.1-7.22,4.2-14,2.57l-7.86-5.53Z"/><path class="cls-12" d="M48.15,194.21l9-5.69,1.2.1-7.24,4.69Z"/><path class="cls-12" d="M126.67,197l-8.74-5.58-.75.42,6.59,4.23Z"/><path class="cls-7" d="M136.77,178.12c0-2.64-.09-5-.18-9.72,0-1.42-.12-6.05-.14-7.43a5.12,5.12,0,0,1-3.71-1.57,5.37,5.37,0,0,1,0-6.54q3.38-13.17,6.74-26.35a5.38,5.38,0,0,0-.68-1.56,6.42,6.42,0,0,0-2.45-2.2L126.83,145s-18.63,0-36.69,0H88.35c-18.06.09-36.68,0-36.68,0l-9.49-22.21a6.43,6.43,0,0,0-2.46,2.2,6,6,0,0,0-.68,1.56l6.75,26.35a5.43,5.43,0,0,1,0,6.54A5,5,0,0,1,42.3,161l0,3.85v4.93q0,12,.22,23.85l94.55.89c0-1.63-.06-3.82-.1-6.39S136.84,182.24,136.77,178.12Z"/><path class="cls-13" d="M8.72,97.52a17.3,17.3,0,0,0-5.26,7.72,17.6,17.6,0,0,0,.73,12.55,18.41,18.41,0,0,0,10,9.43l12,53.68a2,2,0,0,1-.86-.23,2.6,2.6,0,0,1-1.22-1.92q-5.49-25.33-11-50.67a15.31,15.31,0,0,1-5.71-2.63C1.72,121.19,1.15,114.29,1,112.83c-.37-4.41.57-11.82,5.48-14.5A8.21,8.21,0,0,1,8.72,97.52Z"/><path class="cls-13" d="M8.8,102.26a13.58,13.58,0,0,1,8.47,6.89c3,6.24-.41,12.17-.67,12.6a21.32,21.32,0,0,0-1.12-10.2A21.48,21.48,0,0,0,8.8,102.26Z"/><path class="cls-14" d="M12.29,97.44a13.76,13.76,0,0,1,4.92,2.76,15.38,15.38,0,0,1,4.07,6.11A19.56,19.56,0,0,1,23,117.71a18.14,18.14,0,0,1-3.45,7.84c.64-1.16,4.7-8.69,1.57-17.4A21,21,0,0,0,12.29,97.44Z"/><path class="cls-15" d="M60.37,64.62a20.75,20.75,0,0,0,5.2,5.82,23.16,23.16,0,0,0,7.81,3.64,57.85,57.85,0,0,0,15.87,2.37l-28.88,0Z"/><path class="cls-16" d="M63.47,16.55a20.3,20.3,0,0,1,24.91-9S69.3-4,63.47,16.55Z"/><path class="cls-17" d="M60.28,52A27.17,27.17,0,0,1,48.15,40.32a27,27,0,0,1-2.93-14.85c-.67,1-4.5,6.58-2.77,13.31a16.34,16.34,0,0,0,5.69,8.42A21,21,0,0,0,60.28,52Z"/><path class="cls-18" d="M94.9,6a19.67,19.67,0,0,1,14.9.71,19.54,19.54,0,0,1,9.38,9.89S113.27-4.92,94.9,6Z"/><path class="cls-18" d="M121.53,20.49A17.18,17.18,0,0,1,136.2,39.21S140.67,19.73,121.53,20.49Z"/><path class="cls-17" d="M60.28,52a50,50,0,0,1,23-4.93A51.31,51.31,0,0,1,114.22,59q.15,8.71.29,17.44l3.62,0,.08-24.1a58.89,58.89,0,0,0-21-7.18A61.07,61.07,0,0,0,60.28,52Z"/><path class="cls-9" d="M118.56,77.71a63.74,63.74,0,0,1,4,5.4,69.64,69.64,0,0,1,4.63,8.35,79.18,79.18,0,0,1,3.17,7.81c.69,1.93,1.15,3.42,1.32,4,.41,1.36,1,3.33,1.56,5.89.32,1.49.75,3.74.75,3.74h0c-2.63-7.4-4.36-11.39-4.36-11.39a60.44,60.44,0,0,0-8.61-15,51.29,51.29,0,0,0-9-8.71Z"/><path class="cls-19" d="M47.61,101.19A54.21,54.21,0,0,1,64.74,85.53s11.69-6.64,53.56-7.82h0s-18.1,0-34.85,0L60,77.73a78.06,78.06,0,0,0-12.42,23.46Z"/><path class="cls-20" d="M42.11,160.22q.09,16.77.17,33.52l54.43-.65A145.17,145.17,0,0,1,73,190.61C63.81,188.88,59.16,188,55.35,185c-10.15-7.92-9.15-24.45-8.68-29.35a5.17,5.17,0,0,1-1.07,2.69A5.3,5.3,0,0,1,42.11,160.22Z"/><path class="cls-21" d="M36.33,160.57a19.46,19.46,0,0,0,5-8.17,18.41,18.41,0,0,0,.73-4c.09,2.79.19,5.58.28,8.36-1.36,1-2.82,1.94-4.37,2.89C37.38,160,36.86,160.27,36.33,160.57Z"/><path class="cls-21" d="M142.31,161.06a19.5,19.5,0,0,1-5.1-8.07,18.29,18.29,0,0,1-.81-4l-.12,8.37c1.38.94,2.85,1.88,4.43,2.8Z"/><path class="cls-20" d="M41.75,121.08q4.68,12,9.34,24c50-.28,62.81-.19,62.81,0s-13.73.95-29.9-1.72c-8.77-1.45-14.07-3.21-18.73-5.43a77.89,77.89,0,0,1-12.49-7.69A104.28,104.28,0,0,1,41.75,121.08Z"/></g></g></g></svg>