<svg xmlns="http://www.w3.org/2000/svg" viewBox="0 0 204.37 190.69"><defs><style>.cls-1{isolation:isolate;}.cls-2{fill:#f26522;}.cls-10,.cls-13,.cls-14,.cls-15,.cls-16,.cls-19,.cls-2,.cls-20,.cls-21,.cls-22,.cls-3,.cls-31,.cls-6{stroke:#231f20;}.cls-10,.cls-13,.cls-14,.cls-15,.cls-16,.cls-19,.cls-2,.cls-20,.cls-21,.cls-22,.cls-3,.cls-31,.cls-4,.cls-5,.cls-6,.cls-7,.cls-8{stroke-miterlimit:10;}.cls-3,.cls-9{fill:#231f20;}.cls-4{fill:#fff;stroke:#fff;}.cls-11,.cls-5{fill:#ffde17;}.cls-5{stroke:#f7941d;}.cls-14,.cls-6{fill:#1c75bc;}.cls-10,.cls-19,.cls-20,.cls-21,.cls-6{stroke-width:0.75px;}.cls-12,.cls-7{fill:#f7941d;}.cls-7,.cls-8{stroke:#603913;stroke-width:0.5px;}.cls-8{fill:none;}.cls-10,.cls-35,.cls-36{fill:#27aae1;}.cls-13,.cls-16,.cls-30{fill:#fbb040;}.cls-15,.cls-34,.cls-39{fill:#2b3990;}.cls-16{stroke-width:0.25px;}.cls-17,.cls-18{fill:#00a79d;mix-blend-mode:hard-light;}.cls-17{opacity:0.55;}.cls-18{opacity:0.51;}.cls-19{fill:#8b5e3c;}.cls-20,.cls-27{fill:#603913;}.cls-21,.cls-29{fill:#ef4136;}.cls-22{fill:#a7a9ac;}.cls-23{fill:#808285;}.cls-24{fill:#d1d3d4;}.cls-25{fill:#3c2415;}.cls-26{fill:#025da3;}.cls-28{fill:#be1e2d;}.cls-31{fill:#009444;}.cls-32{fill:#f15a29;opacity:0.29;}.cls-33{fill:#fcd450;}.cls-33,.cls-34,.cls-35{opacity:0.79;}.cls-37{fill:#d96627;}.cls-38{fill:#006838;}.cls-39,.cls-40{mix-blend-mode:multiply;opacity:0.09;}.cls-40{fill:#262262;}</style></defs><g class="cls-1"><g id="Layer_2" data-name="Layer 2"><g id="shading"><path class="cls-2" d="M70.62,172.43l-11.54,7.39s-.15,10,16.47,6.46l12.22-8.65"/><path class="cls-2" d="M136,172.43l11.53,7.39s.16,10-16.46,6.46l-12.23-8.65"/><path class="cls-3" d="M153.06,113.61c.24,4.17.37,8.34.45,12.5.21,10.74,0,21.89-4.72,31.54C144.58,166.26,137,173,128.27,177a59.38,59.38,0,0,1-28.07,4.77c-16.46-1-33.43-8.4-41.71-22.65-5.28-9.09-6.55-19.92-7-30.43C50.7,108.87,52.73,88.28,61,70,68.76,53,83.61,35,104.32,36.43c11.22.79,21.34,7.56,28.64,16.13,8.42,9.89,13.66,22.2,16.6,34.85A152.92,152.92,0,0,1,153.06,113.61Z"/><path class="cls-3" d="M52.15,104.49c-4.57,4.84-8.21,9-10.81,12.11C40.17,118,37.69,121,34.68,125A52.07,52.07,0,0,0,27,137.89c-1.85,4.76-1.41,6.2-.89,7,.26.4,1.42,2,6.63,2a30,30,0,0,0,15.49-4.61l4-3.64"/><path class="cls-3" d="M152,104.31c4.57,4.84,8.2,9,10.81,12.11,1.16,1.39,3.65,4.36,6.66,8.36a52,52,0,0,1,7.65,12.93c1.86,4.76,1.42,6.2.9,7-.26.4-1.42,2-6.63,2a30,30,0,0,1-15.49-4.61l-2.66-2.42"/><path class="cls-4" d="M141.33,154.84c3.8-9.1,4.14-16.77,4.42-25a132.27,132.27,0,0,0-1.47-23.95c-2.1-15.94-5.5-24.44-6.37-26.55-2.08-5-8.76-21.26-16.1-20.84-1.32.08-4,2.19-9.38,6.42-6.69,5.27-7.36,6.37-9.48,6.47-1.27.06-2.85-.24-11.48-7-6.54-5.11-6.65-5.73-8-5.86C73.17,57.61,67.83,76.41,65.36,83c-4.14,11.11-4.78,19.8-5.56,31.59-1.17,17.71-1.85,30.54,5.84,43.08a36.17,36.17,0,0,0,8.54,9.84c8.68,6.71,18.91,7.72,24,8.23a60,60,0,0,0,12.22,0c4.72-.3,17.19-1.7,25.13-10.72C138.42,161.8,139.73,158.67,141.33,154.84Z"/><ellipse class="cls-3" cx="122.18" cy="77.84" rx="3.32" ry="5.24"/><path class="cls-5" d="M95.8,81.28h11.89L102,90.05Z"/><ellipse class="cls-3" cx="81.31" cy="77.84" rx="3.32" ry="5.24"/><path class="cls-6" d="M155.51,144.85c-11.86,1.81-7.22-9.28-7.22-9.28q3.61-15.33,7.22-30.66a6.69,6.69,0,0,0-.73-1.82,7.08,7.08,0,0,0-2.62-2.57L142,126.38s-19.92.06-39.23,0h-1.92c-19.31.11-39.24,0-39.24,0L51.46,100.52a7,7,0,0,0-2.62,2.57,6.69,6.69,0,0,0-.73,1.82q3.6,15.33,7.21,30.66s4.64,11.09-7.21,9.28c0,0-1,8.75,2.09,16.57.93,10.66,23.67,19.2,51.61,19.2s50.68-8.54,51.61-19.2C156.45,153.6,155.51,144.85,155.51,144.85Z"/><circle class="cls-7" cx="68.69" cy="139.17" r="4.57"/><circle class="cls-7" cx="134.51" cy="139.17" r="4.57"/><line class="cls-8" x1="66.88" y1="138.01" x2="70.49" y2="140.33"/><line class="cls-8" x1="70.37" y1="137.84" x2="67" y2="140.5"/><line class="cls-8" x1="132.71" y1="138.01" x2="136.32" y2="140.33"/><line class="cls-8" x1="136.2" y1="137.84" x2="132.83" y2="140.5"/><rect class="cls-9" x="138.98" y="128.71" width="1.64" height="0.73"/><rect class="cls-9" x="136.25" y="128.71" width="1.64" height="0.73"/><rect class="cls-9" x="133.51" y="128.71" width="1.64" height="0.73"/><rect class="cls-9" x="130.78" y="128.71" width="1.64" height="0.73"/><rect class="cls-9" x="128.05" y="128.71" width="1.64" height="0.73"/><rect class="cls-9" x="125.32" y="128.71" width="1.64" height="0.73"/><rect class="cls-9" x="122.58" y="128.71" width="1.64" height="0.73"/><rect class="cls-9" x="119.85" y="128.71" width="1.64" height="0.73"/><rect class="cls-9" x="117.12" y="128.71" width="1.64" height="0.73"/><rect class="cls-9" x="114.38" y="128.71" width="1.64" height="0.73"/><rect class="cls-9" x="111.65" y="128.71" width="1.64" height="0.73"/><rect class="cls-9" x="108.92" y="128.71" width="1.64" height="0.73"/><rect class="cls-9" x="106.18" y="128.71" width="1.64" height="0.73"/><rect class="cls-9" x="103.45" y="128.71" width="1.64" height="0.73"/><rect class="cls-9" x="100.72" y="128.71" width="1.64" height="0.73"/><rect class="cls-9" x="97.99" y="128.71" width="1.64" height="0.73"/><rect class="cls-9" x="95.25" y="128.71" width="1.64" height="0.73"/><rect class="cls-9" x="92.52" y="128.71" width="1.64" height="0.73"/><rect class="cls-9" x="89.79" y="128.71" width="1.64" height="0.73"/><rect class="cls-9" x="87.05" y="128.71" width="1.64" height="0.73"/><rect class="cls-9" x="84.32" y="128.71" width="1.64" height="0.73"/><rect class="cls-9" x="81.59" y="128.71" width="1.64" height="0.73"/><rect class="cls-9" x="78.86" y="128.71" width="1.64" height="0.73"/><rect class="cls-9" x="76.12" y="128.71" width="1.64" height="0.73"/><rect class="cls-9" x="73.39" y="128.71" width="1.64" height="0.73"/><rect class="cls-9" x="70.66" y="128.71" width="1.64" height="0.73"/><rect class="cls-9" x="67.92" y="128.71" width="1.64" height="0.73"/><rect class="cls-9" x="65.19" y="128.71" width="1.64" height="0.73"/><rect class="cls-9" x="62.46" y="128.71" width="1.64" height="0.73"/><path class="cls-10" d="M83.57,145.54v4.61s.75.22,2,.54c3.7,1,11.72,2.85,16.8,2.56,3-.17,8.93,0,16-2.57,1.27-.46,2.31-.9,3-1.23v-4.61a41.09,41.09,0,0,1-7.49,2c-1.61.28-3,.42-5.16.63-2.52.25-4.63.39-6.15.48s-3.54,0-5.68-.16a67.51,67.51,0,0,1-7.64-1C87.57,146.55,85.67,146.12,83.57,145.54Z"/><path class="cls-6" d="M103.12,169.69a20.35,20.35,0,0,1-17-7.35V150.81c3,.71,5.63,1.2,7.81,1.53a50.84,50.84,0,0,0,7.1.78,50.23,50.23,0,0,0,7.83-.46,62.54,62.54,0,0,0,9.66-1.86l.27-.08h0c0,1.74,0,3.5,0,5.27,0,2.14,0,4.25,0,6.35a19.64,19.64,0,0,1-8.53,6.07,20.83,20.83,0,0,1-8.49,1.28"/><path class="cls-11" d="M106.53,160.14c-.06-.54-.89-.91-2-.91.65-1.11.73-2.26.19-2.58s-1.5.34-2.14,1.45l-.14.27a.56.56,0,0,0,0-.12c-.46-1.19-1.31-2-1.89-1.75s-.67,1.38-.2,2.58a.54.54,0,0,0,.05.11c-1-.11-1.87.15-2,.67s.72,1.29,1.93,1.59c-.52,1.11-.53,2.2,0,2.47s1.46-.42,2-1.54l0,0c.64,1.11,1.59,1.76,2.13,1.45s.46-1.33-.08-2.37C105.67,161.32,106.59,160.74,106.53,160.14Z"/><circle class="cls-12" cx="102.46" cy="160.22" r="1.39"/><path class="cls-13" d="M41.78,37.7S97.06,89.15,173.59,53.83c0,0-28.66-7.43-29.69-11l-3.32-6.65,1.28-19.46S120.87-5.3,91.94,6c0,0-8.7,15.87-9.21,19.2L79.15,31.3S53.81,37.45,41.78,37.7Z"/><path class="cls-14" d="M82.73,25.16a104,104,0,0,0,17,6.92,106.58,106.58,0,0,0,40.8,4.09l3.32,6.65A81.13,81.13,0,0,1,119.27,45,83.19,83.19,0,0,1,79.15,31.3Z"/><polygon class="cls-14" points="156.85 28.77 158.01 39.92 144.1 42.53 140.69 35.91 156.19 22.43 156.85 28.77"/><path class="cls-15" d="M152.64,24.9l-11.24,10q.24-6.15.49-12.3l7.46-2.54Z"/><path class="cls-16" d="M45.55,41.47l.64-4.32"/><path class="cls-16" d="M51.57,45.16l.65-8.85"/><path class="cls-16" d="M57.76,49.07l.64-13.91"/><path class="cls-16" d="M71.77,56.7l.64-23.86"/><path class="cls-16" d="M64.5,53l.62-18.49"/><path class="cls-16" d="M70.29,33.18l-3.1-2.87"/><path class="cls-16" d="M56.68,36l2.16-3.64"/><path class="cls-16" d="M49.67,36.92l-3.8-1.87"/><path class="cls-16" d="M84.11,20.64l-1.34-4"/><path class="cls-16" d="M90.73,8.17l-1.29-4"/><path class="cls-16" d="M107.3,3,104.2.09"/><path class="cls-16" d="M117.15,3.94,120.91,2"/><path class="cls-16" d="M164,50.79l3.76-1.94"/><path class="cls-16" d="M147.63,45.86l3.77-1.94"/><path class="cls-16" d="M118.94,24.8l-1.36-2.08"/><path class="cls-16" d="M104.2,30.31l2.31-.89"/><path class="cls-16" d="M82.28,41.62l2.32-.88"/><path class="cls-16" d="M98.9,23.34l-1.69-1.82"/><path class="cls-16" d="M132.17,25.6l2.31-.88"/><path class="cls-16" d="M110.82,8.21l2.32-.89"/><path class="cls-16" d="M98.8,9.85V7.37"/><path class="cls-16" d="M125.57,63.29V60.81"/><path class="cls-16" d="M98.53,54.72l-2.4-.64"/><path class="cls-16" d="M117.87,53.66l2.32-.89"/><path class="cls-16" d="M154,56.12l2.31-.89"/><path class="cls-16" d="M76.22,54.37l-.89-2.31"/><path class="cls-16" d="M138.83,53.64l1.53,2"/><path class="cls-16" d="M63,41.8l-1.28-2.12"/><path class="cls-16" d="M111.75,63.11,110.47,61"/><path class="cls-16" d="M126.9,6.47l3.76-1.94"/><path class="cls-16" d="M141.63,20.71l2.86-3.11"/><path class="cls-16" d="M136.9,13l-1-4.12"/><path class="cls-16" d="M155.66,48.59l-.95-4.12"/><path class="cls-16" d="M89.25,11.24l46,.65"/><path class="cls-16" d="M85,19.15l56.41.65"/><path class="cls-16" d="M88.07,27.38l52.62.64"/><path class="cls-16" d="M50.41,36.83l38.84.65"/><path class="cls-16" d="M48.94,43.4l59.07.65"/><path class="cls-16" d="M60.6,50.52l102.75.65"/><path class="cls-16" d="M75.25,57.64l86,.65"/><path class="cls-16" d="M100.27,64.07l34,.65"/><path class="cls-16" d="M105.94,33.53l34.81.64"/><path class="cls-16" d="M79.15,59.14l.64-27.84"/><path class="cls-16" d="M86.19,62.05l.64-26.4"/><path class="cls-16" d="M88.07,27.7l.65-16.46"/><path class="cls-16" d="M94.55,30.45,95.19,5.5"/><path class="cls-16" d="M100.91,32.55l.65-29.12"/><path class="cls-16" d="M108,33.85l.64-31.58"/><path class="cls-16" d="M114.85,34.91l.64-31.69"/><path class="cls-16" d="M122,36.19l.64-31.4"/><path class="cls-16" d="M129.1,36.19l.64-28.42"/><path class="cls-16" d="M136.9,36.19l.64-23.67"/><path class="cls-16" d="M93.18,63l.64-23.92"/><path class="cls-16" d="M100.27,64.6l.64-22.77"/><path class="cls-16" d="M107.36,65.57,108,43.36"/><path class="cls-16" d="M114.21,66.21l.64-22.2"/><path class="cls-16" d="M121.72,66.2l.64-21"/><path class="cls-16" d="M128.78,66.2l.64-21"/><path class="cls-16" d="M136.58,65.63l.64-21"/><path class="cls-16" d="M143.58,64.4l.64-21"/><path class="cls-16" d="M150.84,62.18l.65-15.13"/><path class="cls-16" d="M158,60l.64-10.88"/><path class="cls-16" d="M165.91,56.74l.65-5.22"/><path class="cls-17" d="M48.1,109a142.66,142.66,0,0,0-11.28,13.7c-2.25,3.15-4,6-4.94,7.49-.65,1.05-1.46,2.38-2.38,4.14a30.39,30.39,0,0,0-2.27,5.14,12.29,12.29,0,0,0-.75,3.86,19.17,19.17,0,0,0,1.24-3.16c.44-1.24,2.17-5.8,11.22-15.45a144.73,144.73,0,0,1,10.64-10.24C49.09,112.63,48.59,110.8,48.1,109Z"/><path class="cls-18" d="M155.35,108.54a142.66,142.66,0,0,1,11.28,13.7c2.25,3.15,4,6,4.94,7.49.65,1.05,1.46,2.38,2.38,4.14a30.77,30.77,0,0,1,2.27,5.14,12.29,12.29,0,0,1,.75,3.86,19.17,19.17,0,0,1-1.24-3.16c-.44-1.24-2.17-5.79-11.22-15.45A142.73,142.73,0,0,0,153.87,114C154.36,112.2,154.86,110.37,155.35,108.54Z"/><rect class="cls-19" x="29.48" y="116.1" width="6.57" height="61.47" transform="translate(-25.77 8.24) rotate(-10.32)"/><rect class="cls-20" x="20.97" y="96.01" width="8.4" height="20.8" rx="0.97" transform="translate(-18.65 6.23) rotate(-10.32)"/><path class="cls-21" d="M49.4,181.88c-.65-3.54-5.54-5.62-10.92-4.64s-9.23,4.65-8.58,8.19,5.53,5.62,10.91,4.64S50,185.42,49.4,181.88Zm-9.34,4c-3.46.63-6.59-.7-7-3s2-4.62,5.5-5.25,6.58.7,7,3S43.51,185.27,40.06,185.9Z"/><path class="cls-22" d="M27.23,104.19l20-3.5c-.39-2.26-1-5.55-1.81-9.52-1.33-6.39-2-9.6-2.71-11.58A41.08,41.08,0,0,0,31.09,63.18c-4.38-3.71-7.23-4.42-8.52-4.66a15.19,15.19,0,0,0-5.4,0h-.09l-.1,0a15.17,15.17,0,0,0-5,1.9c-1.13.69-3.54,2.35-6.33,7.37A41.13,41.13,0,0,0,.5,87.27c0,2.12.54,5.34,1.55,11.8.63,4,1.23,7.29,1.66,9.54l20-3.77Z"/><path class="cls-23" d="M3.34,74.91S-3,100.34,45.5,100.28L4.16,107.8,1.11,89S-.11,83.36,3.34,74.91Z"/><path class="cls-24" d="M12.66,63a23.43,23.43,0,0,1,7.3-.89,25.38,25.38,0,0,1,15.12,6,24.81,24.81,0,0,0-4.87-4.93,26.46,26.46,0,0,0-4-2.5,16.63,16.63,0,0,0-2.46-1.08A11.44,11.44,0,0,0,21.53,59a10.14,10.14,0,0,0-2-.09A9.64,9.64,0,0,0,12.66,63Z"/><path class="cls-25" d="M21.32,106l2.8-.52Q25,110.87,26,116.31c-.41.11-.76.19-1,.25-1,.22-1.24.24-1.47.08a.78.78,0,0,1-.28-.43Z"/><path class="cls-26" d="M84.07,146.17l2.42.56.2,3.73c-.4-.09-.82-.19-1.23-.31s-.95-.25-1.41-.39Z"/><path class="cls-27" d="M24.54,117.58l1.59-.37Q31.44,147,36.74,176.87L36,177l-.54.09h0s-.26-1.3-.39-2c-.25-1.28-.42-2.22-.53-2.85-.53-3-.79-4.14-1.54-8.27-.34-1.89-.57-3.21-.67-3.82C31.73,156.89,29.81,146.29,24.54,117.58Z"/><path class="cls-28" d="M33.69,179.6a6,6,0,0,0,4,10.14,8.75,8.75,0,0,1-2.05-.12,6.6,6.6,0,0,1-4.34-2.27,5.44,5.44,0,0,1-1.07-2.82,6.84,6.84,0,0,1,2.15-4.08A6,6,0,0,1,33.69,179.6Z"/><path class="cls-28" d="M36.74,186.39a14.18,14.18,0,0,0,5.11-.55,6.82,6.82,0,0,0,2.22-1.11,6,6,0,0,0,1.26-1.34,3.84,3.84,0,0,0,.63-1.23,3.69,3.69,0,0,0-.31-2.57,4,4,0,0,0-1.87-1.81,4.83,4.83,0,0,1,3.31,3.77,4.78,4.78,0,0,1-1.2,3.54,6.89,6.89,0,0,1-5.38,2.28A7.91,7.91,0,0,1,36.74,186.39Z"/><path class="cls-12" d="M42.53,189.12c3.44-1.07,5.54-4.06,5.21-6.84a6.17,6.17,0,0,0-2.64-4.1,6.25,6.25,0,0,1,2.18,1.22,4.51,4.51,0,0,1,1.51,2,4.23,4.23,0,0,1,.09,2.41,4.75,4.75,0,0,1-1.64,2.54,12.25,12.25,0,0,1-4.71,2.77Z"/><path class="cls-29" d="M81.63,179.56,75,184.5a14.83,14.83,0,0,1-10.25-.3,13.29,13.29,0,0,1-2.8-1.69l-2.08-2.21a5.14,5.14,0,0,0,.59,2.66c1.82,3.3,7.82,4.41,14.92,2.69l8.13-5.82Z"/><path class="cls-30" d="M60.15,180.23l6.69-4.33.76.26-5.29,3.41Z"/><path class="cls-29" d="M124.54,179.44l6.66,4.94a14.84,14.84,0,0,0,10.25-.31,12.5,12.5,0,0,0,2.8-1.69l2.08-2.21a5.11,5.11,0,0,1-.59,2.66c-1.82,3.3-7.82,4.42-14.92,2.69l-8.12-5.82Z"/><path class="cls-30" d="M146,180.1q-3.35-2.16-6.68-4.33l-.77.27,5.29,3.4Z"/><path class="cls-26" d="M86.63,151.28c0,3.65,0,7.31,0,11a20.46,20.46,0,0,0,4.73,4,21.58,21.58,0,0,0,11.64,3,17.45,17.45,0,0,0,6.09-.65,18.32,18.32,0,0,0,9.2-6.39,13.49,13.49,0,0,1-6,3.89C104.4,168.51,94,162.64,86.63,151.28Z"/><path class="cls-2" d="M161.29,147.12a9,9,0,0,1-2.18-3.67,9.75,9.75,0,0,1,.28-5.82c3.13-10.13,5.32-14.31,5.32-14.31,4.95-9.46,7.52-14.24,12.1-16.88a14.32,14.32,0,0,1,7.84-2.17,13.08,13.08,0,0,1,4.77,1.14,12.08,12.08,0,0,1,4.4,5.26,12.7,12.7,0,0,1,.92,5.17c-.24,4.28-3.42,6.93-7.07,10.7-6.25,6.46-15.48,17.88-19.92,20.18a9,9,0,0,1-3.2.93A7.9,7.9,0,0,1,161.29,147.12Z"/><path class="cls-31" d="M197.83,101.67c1.56-2.63,1.92-5.19.7-6.13s-4.07.29-6.36,2.94c-.5-3.84-2.35-6.76-4.14-6.54s-2.87,3.55-2.39,7.42c.45,3.57,2.07,6.33,3.74,6.56a1.74,1.74,0,0,0,.54.82,1.84,1.84,0,0,0,.51.24c1.13,1.13,3.81,1.71,6.84,1.33,3.87-.49,6.82-2.35,6.59-4.15C203.66,102.57,201.08,101.56,197.83,101.67Z"/><path class="cls-29" d="M193,110.53a35.91,35.91,0,0,1-2.17,6.55c-1.25,2.83-2.7,5.08-9.72,13.1-8.43,9.64-11.42,12.19-14.43,14.34-1.52,1.08-2.84,1.91-3.78,2.48l.55.2h0c2.07.59,4.27-1.1,5.29-1.92a79.34,79.34,0,0,0,8.05-7.86c2.88-3.11,2.69-2.75,5.62-5.94,3.6-3.91,3.53-4,5.24-5.69s2.22-2.23,3.54-3.67a14.71,14.71,0,0,0,1.73-2.1,9.59,9.59,0,0,0,1.61-3.88A8.16,8.16,0,0,0,193,110.53Z"/><path class="cls-12" d="M170.12,114.88a17.89,17.89,0,0,1,4.73-6.28,15.56,15.56,0,0,1,7.3-3.59,8.49,8.49,0,0,1,4.64.26,7.24,7.24,0,0,1,2,1.23,18.32,18.32,0,0,0-5.86,0C175.69,107.8,171.39,113.15,170.12,114.88Z"/><path class="cls-29" d="M161.46,133.44s5-.55,6.47,3.05-1.1-7.88-5.15-6.75Z"/><path class="cls-29" d="M165.25,124s5-.1,6.16,3.62-.38-8-4.52-7.18Z"/><path class="cls-29" d="M170.12,115s5,.29,5.86,4.08.25-8-3.94-7.51Z"/><path class="cls-32" d="M79,31.9c-5.36,1.36-11.12,2.64-17.25,3.75-6.41,1.17-12.52,2-18.26,2.66A124.17,124.17,0,0,0,72.66,55.77a129.24,129.24,0,0,0,21.86,7,110.55,110.55,0,0,0,23,3,104.21,104.21,0,0,0,23.72-2.23A59.29,59.29,0,0,1,118,62.42C94.14,56.35,82,36.92,79,31.9Z"/><path class="cls-33" d="M92.42,6.43c1-.26,23.57-5.85,38.12,9.26a35.94,35.94,0,0,1,9.38,19.9q.62-9.3,1.24-18.61A50.35,50.35,0,0,0,125.3,6.71a43,43,0,0,0-17.5-3.55A41.48,41.48,0,0,0,92.42,6.43Z"/><path class="cls-34" d="M106.54,42.37a41.35,41.35,0,0,1-19.23-11A38,38,0,0,1,83,26l-3.21,4.9c.81.64,2,1.54,3.49,2.52a55.88,55.88,0,0,0,13.45,6.29A81.23,81.23,0,0,0,106.54,42.37Z"/><path class="cls-35" d="M112.64,43.52s11.67,1.15,21.57-3.25a31.27,31.27,0,0,0,5.93-3.46L143,42.44c-1.35.34-3.31.81-5.7,1.2a72.32,72.32,0,0,1-14.87.82,61,61,0,0,1-6.74-.51l-3-.43Z"/><path class="cls-36" d="M151.29,27.58l4.36-3.84,1.65,15.63-2.09.39a6.51,6.51,0,0,0,.74-1.43c1.19-3.28-.69-7.17-2.93-9.38A10.48,10.48,0,0,0,151.29,27.58Z"/><path class="cls-32" d="M87,16.92c-.61,1.14-1.23,2.38-1.83,3.72s-1.2,2.82-1.66,4.13a102.82,102.82,0,0,0,13.31,5.65,102.43,102.43,0,0,0,12.67,3.49,98.39,98.39,0,0,0,12.59,1.72,57.94,57.94,0,0,1-11.43-2.86A60.49,60.49,0,0,1,87,16.92Z"/><path class="cls-37" d="M65.2,136.75a4.11,4.11,0,0,0-.65,1.42,4.28,4.28,0,0,0,.2,2.63,4.2,4.2,0,0,0,3.56,2.59,4.08,4.08,0,0,0,1.76-.21,4.17,4.17,0,0,0,1.61-1,4.85,4.85,0,0,1-3.61.05A5.25,5.25,0,0,1,65.2,136.75Z"/><path class="cls-37" d="M131.08,136.75a4.11,4.11,0,0,0-.65,1.42,4.28,4.28,0,0,0,.2,2.63,4.2,4.2,0,0,0,3.56,2.59,4.08,4.08,0,0,0,1.76-.21,4,4,0,0,0,1.6-1,4.82,4.82,0,0,1-3.6.05A5.25,5.25,0,0,1,131.08,136.75Z"/><path class="cls-26" d="M56.61,138.81a44.6,44.6,0,0,0,7.82,21.66c15.3,21.59,45,19.52,47.12,19.34a142.73,142.73,0,0,1-24.73-.54A100.84,100.84,0,0,1,70.45,176c-3-.91-5.79-2.05-6.34-2.28a41.88,41.88,0,0,1-5.19-2.45,22.63,22.63,0,0,1-4.24-3,11.48,11.48,0,0,1-3.2-4,9.65,9.65,0,0,1-.79-3,35.64,35.64,0,0,1-1.54-5.42,36.53,36.53,0,0,1-.7-6.9c0-1.17,0-3.73,0-3.73l1.47.16a8,8,0,0,0,2.54-.3C54.06,144.72,55.82,142.25,56.61,138.81Z"/><path class="cls-26" d="M53.52,125.72l.22-18.24-2.53-6.22a4.46,4.46,0,0,0-2,2c-.25.55-.61,1.72-.61,1.72h0l1.08,4.43c.82,3.34.88,3.58,1,4.08l.87,3.65C52,119.07,52.67,122,53.52,125.72Z"/><path class="cls-38" d="M188.66,92.7a1.42,1.42,0,0,0-1,0c-.22.1-.43.28-.79,1a9.69,9.69,0,0,0-.63,1.9,11.86,11.86,0,0,0-.27,1.86,10.27,10.27,0,0,0,.77,4.45,9.9,9.9,0,0,0,1.73,2.78,8.77,8.77,0,0,0,7.91,2.93,9.79,9.79,0,0,1-6.35-3.31A9.92,9.92,0,0,1,188,99.2,13.23,13.23,0,0,1,188.66,92.7Z"/><path class="cls-39" d="M52,100.18l10,25.71c53.46-.3,67.18-.2,67.18,0s-14.68,1-32-1.84c-9.38-1.55-15.05-3.43-20-5.81A83.11,83.11,0,0,1,63.76,110,111,111,0,0,1,52,100.18Z"/><path class="cls-40" d="M55.84,81.46A226.71,226.71,0,0,0,95.71,78C120.92,73.62,142.31,65.44,142,64c-.25-1-10.3,2.75-26.9,2a121,121,0,0,1-31.21-5.68,141.08,141.08,0,0,1-15.13-5.58,82.69,82.69,0,0,0-6.82,11.11A83.72,83.72,0,0,0,55.84,81.46Z"/></g></g></g></svg>