<svg xmlns="http://www.w3.org/2000/svg" viewBox="0 0 226.4 185.03"><defs><style>.cls-1{isolation:isolate;}.cls-2{fill:#f26522;}.cls-10,.cls-13,.cls-15,.cls-16,.cls-17,.cls-2,.cls-3,.cls-5,.cls-8,.cls-9{stroke:#231f20;}.cls-10,.cls-13,.cls-15,.cls-16,.cls-17,.cls-2,.cls-3,.cls-4,.cls-5,.cls-6,.cls-8,.cls-9{stroke-miterlimit:10;}.cls-3{fill:#1c75bc;}.cls-4{fill:#fff;stroke:#fff;}.cls-5,.cls-7{fill:#231f20;}.cls-6{fill:#ffde17;stroke:#f7941d;}.cls-8{fill:#3a393b;}.cls-9{fill:#808285;}.cls-10,.cls-17{fill:none;}.cls-11{font-size:11.25px;fill:#d1d3d4;font-family:DINAlternate-Bold, DIN Alternate;font-weight:700;}.cls-12{letter-spacing:-0.02em;}.cls-13,.cls-14{fill:#6d6e71;}.cls-15,.cls-23,.cls-25{fill:#27aae1;}.cls-16,.cls-26,.cls-27{fill:#414042;}.cls-16,.cls-17{stroke-width:0.75px;}.cls-18{fill:#ef4136;}.cls-19{fill:#fbb040;}.cls-20{fill:#a7a9ac;}.cls-21,.cls-24{fill:#2b3990;mix-blend-mode:multiply;}.cls-21{opacity:0.16;}.cls-22{fill:#acd0cf;opacity:0.61;}.cls-24{opacity:0.09;}.cls-25{opacity:0.31;}.cls-27{opacity:0.07;}</style></defs><g class="cls-1"><g id="Layer_2" data-name="Layer 2"><g id="shading"><path class="cls-2" d="M112.64,168l-13.08,8.39s-.18,11.35,18.67,7.33l13.87-9.82"/><path class="cls-2" d="M173.65,168l13.08,8.39s.17,11.35-18.68,7.33l-13.87-9.82"/><path class="cls-3" d="M197.06,99.6c.28,4.72.42,9.45.51,14.18.24,12.17,0,24.82-5.36,35.77-4.77,9.77-13.38,17.42-23.27,21.95s-21,6.05-31.85,5.41c-18.66-1.1-37.91-9.52-47.31-25.69-6-10.31-7.43-22.6-7.92-34.52C81,94.22,83.25,70.86,92.64,50.17c8.8-19.39,25.64-39.78,49.13-38.12,12.73.89,24.21,8.57,32.49,18.29,9.55,11.22,15.49,25.18,18.84,39.54A174.6,174.6,0,0,1,197.06,99.6Z"/><path class="cls-3" d="M82.59,89.25C77.4,94.74,73.28,99.48,70.33,103c-1.33,1.57-4.14,4.94-7.56,9.48s-6.46,9-8.68,14.67c-2.1,5.4-1.61,7-1,7.93.3.45,1.61,2.23,7.53,2.22a34.08,34.08,0,0,0,17.57-5.23l4.54-4.13"/><path class="cls-3" d="M195.87,89c5.18,5.5,9.3,10.24,12.26,13.74,1.32,1.57,4.14,5,7.56,9.48s6.45,9,8.68,14.67c2.1,5.4,1.6,7,1,7.93-.3.46-1.61,2.23-7.53,2.22a34.14,34.14,0,0,1-17.57-5.22l-3-2.75"/><path class="cls-4" d="M183.75,146.37c4.32-10.32,4.7-19,5-28.31a149.67,149.67,0,0,0-1.67-27.17c-2.39-18.08-6.24-27.72-7.23-30.11-2.36-5.73-9.94-24.12-18.26-23.64-1.5.09-4.57,2.48-10.64,7.28-7.58,6-8.35,7.22-10.76,7.34-1.43.07-3.23-.27-13-7.9-7.43-5.79-7.55-6.5-9.07-6.65-11.69-1.14-17.75,20.18-20.55,27.69-4.71,12.61-5.42,22.47-6.31,35.84-1.33,20.09-2.1,34.64,6.62,48.87a41,41,0,0,0,9.69,11.16c9.85,7.61,21.45,8.76,27.27,9.34a69.52,69.52,0,0,0,13.86,0c5.36-.34,19.5-1.94,28.51-12.17C180.46,154.26,181.94,150.71,183.75,146.37Z"/><ellipse class="cls-5" cx="162.03" cy="59.02" rx="3.77" ry="5.95"/><path class="cls-6" d="M132.1,62.92h13.49l-6.41,9.94Z"/><ellipse class="cls-5" cx="115.66" cy="59.02" rx="3.77" ry="5.95"/><path class="cls-3" d="M132.26,13.42a9.87,9.87,0,0,1,.83-8.87A9.42,9.42,0,0,1,142.22.6c-.43.23-3.94,2.2-4.41,6.05a7.42,7.42,0,0,0,.5,3.64,5.43,5.43,0,0,1,3.87-4.21,5.61,5.61,0,0,1,4.62,1l-4,5.71"/><path class="cls-7" d="M93.84,43.44V64.32H94c.56.73,8.73,11,21.9,9.89,10.78-.91,16.83-8.8,17.77-10.06l10.24,0c1,1.3,7.3,9.19,18.33,10,13.26,1,21.52-9,22.19-9.89V43.44Z"/><rect class="cls-7" x="183.93" y="43.93" width="5.4" height="13.42" transform="translate(118.57 -130.36) rotate(54.21)"/><rect class="cls-7" x="90.09" y="44.32" width="5.4" height="14.93" transform="translate(5.84 112.87) rotate(-64.25)"/><path class="cls-8" d="M197,88.42c-4.41,4.37-23.86,22.64-54.54,23.73-34.87,1.24-57.33-20.67-61-24.37L58.59,111.54l14.85,25.32,8.14-5.54a85.23,85.23,0,0,0,1.78,18.23,82.61,82.61,0,0,0,2.1,8c3.79,1.41,7.75,2.7,11.87,3.84,37.88,10.47,73.21,3.57,98.18-4.9.57-2.07,1.09-4.29,1.51-6.66a74.85,74.85,0,0,0,1-17.94,28.46,28.46,0,0,0,2.43,1.82,29.92,29.92,0,0,0,5,2.74q7.65-11.13,15.28-22.27Z"/><path class="cls-9" d="M152.87,112s-65.71,1.36-72.26-2.18C75.26,107,65.85,99.56,66.77,90.6c.71-6.88,7.49-13,16.84-15.91a45.69,45.69,0,0,0-1.22,10.88A9.57,9.57,0,0,0,84.72,92S113.47,110,152.87,112Z"/><path class="cls-9" d="M126,112s65.72,1.36,72.26-2.18C203.57,107,213,99.56,212.06,90.6c-.7-6.88-7.49-13-16.83-15.91a46.51,46.51,0,0,1,1,6,44.68,44.68,0,0,1,.21,4.88,9.65,9.65,0,0,1-.66,3.65A9.45,9.45,0,0,1,194.11,92S165.36,110,126,112Z"/><line class="cls-10" x1="125.96" y1="112.76" x2="125.96" y2="128.08"/><text class="cls-11" transform="translate(118.96 140.41)">H<tspan class="cls-12" x="7.29" y="0">A</tspan><tspan x="13.94" y="0">CKERZ</tspan></text><line class="cls-10" x1="151.34" y1="112.29" x2="151.34" y2="122.2"/><circle class="cls-5" cx="151.34" cy="124.45" r="2.25"/><circle class="cls-5" cx="125.96" cy="130.81" r="2.25"/><polygon class="cls-13" points="4.59 128.77 47 146 95.07 130.24 62.46 118.43 4.59 128.77"/><polygon class="cls-13" points="0.5 79.02 0.5 120.11 58.37 109.77 58.37 74.26 0.5 79.02"/><line class="cls-10" x1="0.5" y1="79.01" x2="4.59" y2="82.63"/><line class="cls-10" x1="0.5" y1="120.11" x2="4.59" y2="123.73"/><line class="cls-10" x1="58.37" y1="74.26" x2="62.46" y2="77.88"/><rect class="cls-14" x="2.26" y="117.74" width="3.55" height="4.2" transform="translate(-88.38 43.43) rotate(-48.49)"/><rect class="cls-14" x="57.77" y="75.2" width="2.39" height="4.2" transform="translate(-38 70.22) rotate(-48.49)"/><rect class="cls-14" x="55.04" y="74.32" width="2.39" height="4.2" transform="translate(-14.09 140.11) rotate(-95.81)"/><rect class="cls-14" x="1.26" y="115.56" width="2.39" height="4.2"/><polygon class="cls-13" points="4.59 82.63 4.59 123.73 62.46 113.39 62.46 77.88 4.59 82.63"/><polygon class="cls-15" points="10.44 86.31 10.44 119.09 56.6 110.84 56.6 82.52 10.44 86.31"/><rect class="cls-14" x="3.75" y="124.68" width="2.39" height="4.2" transform="translate(128.5 97.91) rotate(79.09)"/><rect class="cls-14" x="9.08" y="123.78" width="2.39" height="7.05" transform="translate(133.14 162.22) rotate(110.48)"/><rect class="cls-14" x="6.56" y="124.44" width="2.39" height="7.05" transform="translate(129.13 169.24) rotate(112.25)"/><rect class="cls-14" x="7.14" y="124.03" width="2.39" height="4.2" transform="translate(130.6 94.06) rotate(79.09)"/><rect class="cls-14" x="4.23" y="123.26" width="2.39" height="4.2" transform="translate(130.78 119.93) rotate(90)"/><rect class="cls-14" x="90.76" y="124.93" width="2.39" height="4.2" transform="translate(242.73 83.89) rotate(109.94)"/><rect class="cls-14" x="92.89" y="125.7" width="2.39" height="4.2" transform="translate(246.31 82.93) rotate(109.94)"/><rect class="cls-14" x="93.14" y="124.01" width="2.39" height="4.2" transform="translate(245.06 80.42) rotate(109.94)"/><rect class="cls-14" x="88.33" y="125.97" width="2.39" height="4.2" transform="translate(240.45 87.58) rotate(109.94)"/><rect class="cls-14" x="91.75" y="126.26" width="2.39" height="5.31" transform="translate(189.68 2.83) rotate(73.28)"/><rect class="cls-14" x="95.27" y="127.74" width="1.2" height="1.92" transform="matrix(-0.94, -0.34, 0.34, -0.94, 142.11, 282.38)"/><polygon class="cls-13" points="4.59 123.73 47 140.96 95.07 125.2 62.46 113.39 4.59 123.73"/><line class="cls-10" x1="2.84" y1="122.18" x2="2.54" y2="128.53"/><line class="cls-10" x1="46.91" y1="140.37" x2="46.91" y2="146"/><line class="cls-10" x1="96.64" y1="125.19" x2="96.64" y2="130.41"/><path class="cls-16" d="M20.34,125.31,48,134.8,83.5,124.38l-23-6.94L28.1,123.79Z"/><line class="cls-17" x1="28.1" y1="123.79" x2="55.14" y2="132.7"/><line class="cls-17" x1="36.7" y1="122.18" x2="62.53" y2="130.53"/><line class="cls-17" x1="45.55" y1="120.41" x2="70.16" y2="128.37"/><line class="cls-17" x1="54.11" y1="118.7" x2="77.56" y2="126.12"/><line class="cls-17" x1="34.55" y1="130.13" x2="73.82" y2="121.42"/><line class="cls-17" x1="42.88" y1="133.05" x2="79.7" y2="123.23"/><line class="cls-17" x1="27.32" y1="127.73" x2="66.13" y2="119.12"/><path class="cls-18" d="M124.2,176.24,116.75,182a14.92,14.92,0,0,1-10.42-.32,13,13,0,0,1-2.85-1.74l-2.11-2.27a5.26,5.26,0,0,0,.6,2.73c1.84,3.41,8,4.56,15.16,2.78l8.83-6.33Z"/><path class="cls-18" d="M162.24,176.62q3.72,2.88,7.43,5.77a14.66,14.66,0,0,0,10.7-.34,13.24,13.24,0,0,0,2.92-1.87l2-2.53a5.65,5.65,0,0,1-.49,3c-1.74,3.6-8,4.89-15.56,3l-8.74-6.44Z"/><path class="cls-19" d="M100.57,177.05l9.68-6.16,1.3.11-7.83,5.08Z"/><path class="cls-19" d="M185.35,176.86l-9.68-6.17-1.3.11,7.83,5.08Z"/><path class="cls-7" d="M202.66,134.58a23.6,23.6,0,0,1-6.15-9.82,23.08,23.08,0,0,1-1-4.86l-.18,10.16c1.66,1.15,3.45,2.3,5.35,3.42C201.37,133.86,202,134.23,202.66,134.58Z"/><path class="cls-7" d="M81.63,135.43c.15,2.89.44,6,1,9.38a92.93,92.93,0,0,0,2.88,12.77c3.5,1.25,7.2,2.43,11.1,3.5a158.62,158.62,0,0,0,41,5.63c-5.45-.82-20.87-3.89-33.08-17.17a54.11,54.11,0,0,1-10.93-18.08Z"/><path class="cls-14" d="M80.21,76.76c-.52.31-7.76,4.84-8,13-.19,7,4.87,13.69,12.44,15.8l49,5a94.49,94.49,0,0,1-11.35,1.16c-1.35.06-3.24.11-9,0-5.39-.11-8.92-.17-13.77-.43s-10.91-.71-18-1.53a32.44,32.44,0,0,1-8.91-6.93c-2.23-2.49-4.35-4.92-5-8.7a15,15,0,0,1,.14-5.06C69.48,81.1,79.13,77.18,80.21,76.76Z"/><path class="cls-14" d="M198.4,76.76c.52.31,7.76,4.84,8,13,.19,7-4.87,13.69-12.44,15.8l-49,5a94.49,94.49,0,0,0,11.35,1.16c1.35.06,3.24.11,9,0,5.39-.11,8.92-.17,13.77-.43s10.91-.71,18-1.53a32.44,32.44,0,0,0,8.91-6.93c2.23-2.49,4.35-4.92,5-8.7a15,15,0,0,0-.14-5.06C209.13,81.1,199.48,77.18,198.4,76.76Z"/><path class="cls-20" d="M81.63,82.52A9.3,9.3,0,0,0,80,87.07a11.6,11.6,0,0,0,2.23,6.8c3,4.44,16.23,9.67,34.78,12.93-2.11-.75-5-1.8-8.41-3.1-2.29-.87-4.54-1.72-7.44-2.92-5.92-2.43-9-4-10.1-4.52-3.84-1.94-5.78-2.94-6.91-4.31C81.52,88.82,81.45,84.8,81.63,82.52Z"/><path class="cls-20" d="M197.36,82.52A9.3,9.3,0,0,1,199,87.07a11.6,11.6,0,0,1-2.23,6.8c-3,4.44-16.23,9.67-34.78,12.93,2.11-.75,5-1.8,8.41-3.1,2.29-.87,4.54-1.72,7.44-2.92,5.92-2.43,9.05-4,10.1-4.52,3.84-1.94,5.78-2.94,6.91-4.31C197.47,88.82,197.54,84.8,197.36,82.52Z"/><path class="cls-21" d="M99.6,162.47a60.2,60.2,0,0,0,33.65,13,71.79,71.79,0,0,0,18.23-.95,66.31,66.31,0,0,0,12.11-3.38c4-1.57,6.68-2.6,9.7-5a79.79,79.79,0,0,0,6.42-5.9h0l-9.54,1.62a226.89,226.89,0,0,1-23.92,3.05c-4.94.32-8.64.35-11.06.36A224.15,224.15,0,0,1,99.6,162.47Z"/><path class="cls-22" d="M208.65,102.47a55.15,55.15,0,0,1,4.38,6.32,25.74,25.74,0,0,1,2.54,5.19,20.2,20.2,0,0,1,1,5.06l3.14-4.85Q214.16,108.34,208.65,102.47Z"/><path class="cls-23" d="M219,118.18a50.41,50.41,0,0,1,3.39,6s.64,1.36,1.49,3.62c.19.5.43,1.14.68,2a11.67,11.67,0,0,1,.54,2.39,5.19,5.19,0,0,1,0,1.72,7,7,0,0,1-.27-1.46c-.63-4.18-3.66-8.26-4.66-9.54a28.13,28.13,0,0,0-2.54-2.78Z"/><path class="cls-23" d="M143.57,13.06a45.25,45.25,0,0,1,11.05,3,48.39,48.39,0,0,1,16,11.17,61,61,0,0,1,11.73,16.18,72.39,72.39,0,0,0-38.76-30.38Z"/><path class="cls-23" d="M187.18,53.57a74.65,74.65,0,0,1,4,11.44A99.89,99.89,0,0,1,194,77.82c.09.69.31,2.38.7,5.17l.71,5h0c-.08,0-.24.76-.26.82-.09.42-.86,1.35-3.82,3.63a22.7,22.7,0,0,0,1.34-4.79,23.52,23.52,0,0,0,.31-3.81,79.39,79.39,0,0,0-1.56-15.19C189.4,59.5,187,53.63,187.18,53.57Z"/><path class="cls-24" d="M88.6,63.1A89.82,89.82,0,0,0,83.17,90,150.77,150.77,0,0,0,100,99.56c1.67.82,25.8,12.41,39.28,10.75l8.67-1.11h0s-10-.89-15.36-1.83c-17.64-3.13-29.5-14.91-32.32-17.79a41.68,41.68,0,0,1-7.45-9.81A37.87,37.87,0,0,1,88.6,63.1Z"/><path class="cls-25" d="M142.19,44.31c0,.21,4.11.42,13.78,1.61a100.91,100.91,0,0,1,11,1.73c6.33,1.45,9.49,2.18,11.76,4.5,3.29,3.36,5,9.3,5,9.3h0V44.31C150.75,43.87,142.2,44,142.19,44.31Z"/><polygon class="cls-26" points="0.5 79.02 4.59 82.63 4.43 122.56 0.5 120.11 0.5 79.02"/><path class="cls-26" d="M3.26,128.31l.24-4.23,42.66,17.3,0,3.49Z"/><path class="cls-27" d="M4.59,82.63l57.87,30.76-15.55,28.5L4.82,123.69Q4.7,103.16,4.59,82.63Z"/></g></g></g></svg>