<svg xmlns="http://www.w3.org/2000/svg" viewBox="0 0 203.6 202.51"><defs><style>.cls-1,.cls-22,.cls-23,.cls-24{fill:#00a79d;}.cls-1{opacity:0.74;}.cls-2,.cls-3{fill:#9e1f63;}.cls-2{opacity:0.76;}.cls-4{fill:#f26522;}.cls-10,.cls-15,.cls-20,.cls-4,.cls-5,.cls-7,.cls-9{stroke:#231f20;}.cls-10,.cls-15,.cls-20,.cls-4,.cls-5,.cls-6,.cls-7,.cls-8,.cls-9{stroke-miterlimit:10;}.cls-5{fill:#3c2415;}.cls-6{fill:#fff;stroke:#fff;}.cls-7{fill:#231f20;}.cls-8{fill:#ffde17;stroke:#f7941d;}.cls-15,.cls-9{fill:#da1c5c;}.cls-10{fill:none;}.cls-11{fill:#ef4136;}.cls-12{fill:#fbb040;}.cls-13{fill:#f287b7;}.cls-14{fill:#ee2a7b;}.cls-15,.cls-20{stroke-width:0.5px;}.cls-16{font-size:10.38px;font-family:DINAlternate-Bold, DIN Alternate;font-weight:700;}.cls-16,.cls-19{fill:#fad5e5;}.cls-17{letter-spacing:-0.01em;}.cls-18{letter-spacing:0em;}.cls-20{fill:#6d6e71;}.cls-21{fill:#8dc63f;opacity:0.41;}.cls-22{opacity:0.67;}.cls-23{opacity:0.44;}.cls-24{opacity:0.73;}</style></defs><g id="Layer_2" data-name="Layer 2"><g id="shading"><path class="cls-1" d="M151.24,3.37a4.72,4.72,0,0,1,2.52-.68c2.87.09,5.65,3.13,6.77,7.62a12.48,12.48,0,0,0-.95-4.19c-.4-1-2.08-5-4.75-5.06a4.15,4.15,0,0,0-2.3.75A3.92,3.92,0,0,0,151.24,3.37Z"/><polygon class="cls-2" points="31.65 103.83 33.84 101.94 34.37 107.57 32.44 107.85 31.65 103.83"/><path class="cls-3" d="M31.65,103.83a29.36,29.36,0,0,1-11.35-2.32C8.11,96.28,3.75,84.19,2.88,81.62a38.69,38.69,0,0,0,11.56,14,33.77,33.77,0,0,0,4.31,2.72,32.28,32.28,0,0,0,15.09,3.55Z"/><path class="cls-4" d="M86.64,186.28l-12.4,8S74.07,205,92,201.19l13.15-9.31"/><path class="cls-4" d="M157,186.28l12.41,8s.16,10.76-17.72,6.95l-13.15-9.31"/><path class="cls-5" d="M175.35,123c.25,4.48.4,9,.48,13.45.22,11.54,0,23.54-5.09,33.92-4.52,9.27-12.68,16.53-22.07,20.82s-19.9,5.74-30.2,5.13c-17.7-1-36-9-44.87-24.36-5.68-9.78-7-21.44-7.51-32.74-.87-21.32,1.31-43.48,10.22-63.1C84.65,57.74,100.62,38.41,122.9,40c12.08.85,23,8.14,30.81,17.35,9.06,10.65,14.7,23.89,17.87,37.5A166,166,0,0,1,175.35,123Z"/><path class="cls-5" d="M66.77,113.19c-4.91,5.21-8.82,9.71-11.62,13-1.26,1.49-3.93,4.69-7.17,9a55.7,55.7,0,0,0-8.23,13.91c-2,5.12-1.53,6.67-1,7.52.28.43,1.53,2.12,7.14,2.1a32.23,32.23,0,0,0,16.66-4.95l4.31-3.92"/><path class="cls-5" d="M174.21,113c4.92,5.21,8.83,9.7,11.63,13,1.26,1.49,3.93,4.69,7.17,9a56.37,56.37,0,0,1,8.23,13.91c2,5.12,1.52,6.68,1,7.52-.28.44-1.53,2.12-7.14,2.11a32.36,32.36,0,0,1-16.66-5l-2.86-2.6"/><path class="cls-6" d="M162.72,167.37c4.09-9.79,4.45-18.05,4.76-26.85a142.79,142.79,0,0,0-1.58-25.77C163.63,97.6,160,88.46,159,86.19c-2.24-5.43-9.43-22.87-17.32-22.42-1.42.08-4.33,2.36-10.09,6.9-7.19,5.67-7.92,6.85-10.2,7-1.37.06-3.07-.26-12.35-7.5-7-5.49-7.15-6.16-8.6-6.3C89.4,62.76,83.65,83,81,90.1c-4.46,12-5.14,21.31-6,34-1.26,19-2,32.86,6.28,46.35A38.55,38.55,0,0,0,90.48,181c9.34,7.22,20.34,8.32,25.86,8.86a64.74,64.74,0,0,0,13.15,0c5.08-.32,18.49-1.83,27-11.53C159.59,174.85,161,171.49,162.72,167.37Z"/><ellipse class="cls-7" cx="142.11" cy="84.52" rx="3.57" ry="5.64"/><path class="cls-8" d="M113.73,88.22h12.8l-6.08,9.43Z"/><ellipse class="cls-7" cx="98.14" cy="84.52" rx="3.57" ry="5.64"/><path class="cls-9" d="M73,67.31l5.93,3.26C80,69,95.3,47.43,122.32,48c24.1.54,38,18.25,39.68,20.51l5.21-4.09c-11.15-18.16-31.46-28.42-52-26.25C87.25,41.14,74,65.35,73,67.31Z"/><polyline class="cls-10" points="80.5 21.79 84.58 27.16 94.89 27.16 85.45 36.25 95.58 35.1 99.72 42.37"/><polyline class="cls-10" points="155.33 20.26 151.25 25.63 140.94 25.63 150.38 34.73 140.25 33.57 136.11 40.85"/><path class="cls-9" d="M172.08,12.44c-.94-3.06-5.76-4.32-10.88-2.9-.8-5.44-4.06-9.46-7.3-9s-5.28,5.27-4.51,10.75c.51,3.6,2.1,6.58,4.06,8.08,1.68,2.34,6.15,3.13,10.79,1.71C169.53,19.46,173,15.59,172.08,12.44Z"/><path class="cls-9" d="M82,3.77c-3.17-.4-6.29,3.48-7.1,8.74-5.29-1.5-10.29-.19-11.21,3s2.65,7,8,8.53c3.49,1,6.86.78,9-.39,2.82-.57,5.37-4.33,6-9.14C87.33,9,85.24,4.19,82,3.77Z"/><path class="cls-11" d="M99.54,193.5l-7.92,6.15a15.84,15.84,0,0,1-11.08-.33,13.82,13.82,0,0,1-3-1.85l-2.26-2.42a5.77,5.77,0,0,0,.65,2.91c2,3.62,8.45,4.84,16.12,2.95l9.39-6.73Z"/><path class="cls-11" d="M145,194l7.69,5.7a15.84,15.84,0,0,0,11.08-.33,13.82,13.82,0,0,0,3-1.85l2.12-2.5a5.42,5.42,0,0,1-.51,3c-1.8,3.56-8.3,4.82-16.12,2.95l-9.05-6.36Z"/><path class="cls-12" d="M76.34,194.85l10.3-6.55,1.38.11-8.33,5.4Z"/><path class="cls-12" d="M168.15,194.81l-10.31-6.55-1.38.11,8.33,5.4Z"/><path class="cls-13" d="M176.49,166.45q-.57-2.69-1.13-5.35a178.71,178.71,0,0,1-54.51,8.84h-.53a190.33,190.33,0,0,1-53.64-7.86c-.54,2-1.07,3.95-1.6,5.93l-15.29,12.5a15.52,15.52,0,0,0,6.07,8.35c6.28,4.26,13.36,2.15,14.22,1.88,0,0,4.22,3.52,12.38,3.4s11.25-3.4,11.25-3.4a25.82,25.82,0,0,0,14.91,3,25.32,25.32,0,0,0,12-4.55,25.27,25.27,0,0,0,12,4.55,25.79,25.79,0,0,0,14.91-3s3.09,3.28,11.25,3.4,12.38-3.4,12.38-3.4a15.49,15.49,0,0,0,15.21-1.52A14.74,14.74,0,0,0,192,179Z"/><path class="cls-14" d="M176.49,164.19q-.57-2.67-1.13-5.34a178.68,178.68,0,0,1-54.51,8.83h-.53a190.33,190.33,0,0,1-53.64-7.86c-.54,2-1.07,4-1.6,5.93L49.79,178.26a15.55,15.55,0,0,0,6.07,8.35c6.28,4.26,13.36,2.14,14.22,1.87,0,0,4.22,3.53,12.38,3.41s11.25-3.41,11.25-3.41a25.82,25.82,0,0,0,14.91,3,25.44,25.44,0,0,0,12-4.54,25.29,25.29,0,0,0,12,4.54,25.79,25.79,0,0,0,14.91-3s3.09,3.28,11.25,3.41,12.38-3.41,12.38-3.41A15.44,15.44,0,0,0,186.3,187a14.7,14.7,0,0,0,5.71-10.2Z"/><path class="cls-15" d="M203.35,137.82c-.1-2.17-3.22-3.79-6.95-3.63a12.85,12.85,0,0,0-1.28.14L175.39,113.5c-4.19,4-22.63,20.89-51.73,21.89-33.07,1.15-54.37-19.07-57.85-22.48l-18,18.18a11.77,11.77,0,0,0-2.16-.49c-3.71-.45-6.95.92-7.23,3.07s2.36,4.14,5.91,4.68c-1,3.47-.12,6.77,2,7.37a3.73,3.73,0,0,0,3.56-1.38L58.6,158.6A15.15,15.15,0,0,0,66,153.3c.21,2.08.41,4.16.62,6.23-.3,1.15-.61,2.29-.92,3.43L50.4,175.46a15.52,15.52,0,0,0,6.07,8.35c6.28,4.26,13.37,2.15,14.22,1.88,0,0,4.22,3.52,12.38,3.4s11.25-3.4,11.25-3.4a25.83,25.83,0,0,0,14.92,3,25.44,25.44,0,0,0,12-4.54,25.39,25.39,0,0,0,12,4.54,25.79,25.79,0,0,0,14.91-3s3.1,3.28,11.25,3.4,12.38-3.4,12.38-3.4a15.46,15.46,0,0,0,15.21-1.52,14.74,14.74,0,0,0,5.71-10.2L177.1,161.4c-.3-1.43-.61-2.86-.91-4.29,0-.92,0-1.84,0-2.76a27.67,27.67,0,0,0,2.33,1.72,28.57,28.57,0,0,0,4.53,2.44l7.76-11.07a3.66,3.66,0,0,0,3.35,1.54c2.12-.42,3.28-3.5,2.65-6.95C200.53,141.85,203.45,140,203.35,137.82Z"/><text class="cls-16" transform="translate(111.5 154.93) scale(1.03 1)">Lo<tspan class="cls-17" x="10.96" y="0">v</tspan><tspan class="cls-18" x="15.5" y="0">e</tspan></text><path class="cls-19" d="M108.1,148.76c-.74-.52-2,0-3,1.17-1.11-1.06-2.54-1.41-3.19-.77s-.3,2,.82,3.12a3.61,3.61,0,0,0,2.29,1.11A2.92,2.92,0,0,0,107.8,152C108.72,150.73,108.85,149.3,108.1,148.76Z"/><path class="cls-19" d="M140.85,148.76c-.73-.52-2,0-2.95,1.17-1.11-1.06-2.54-1.41-3.2-.77s-.29,2,.82,3.12a3.61,3.61,0,0,0,2.3,1.11,2.92,2.92,0,0,0,2.74-1.42C141.48,150.73,141.61,149.3,140.85,148.76Z"/><rect class="cls-20" x="38.71" y="101.37" width="2.36" height="62.45" transform="translate(-20.26 7.88) rotate(-9.01)"/><path class="cls-9" d="M53.82,56.82c-4.73-3.93-11.29-2.29-12.74-1.93C32.64,57,28.94,65,28.38,66.2c-.36-.45-6.92-8.5-16.1-6.84-1,.18-7.18,1.41-10.18,7-4.68,8.75,1.9,21.31,7,27.36,7.07,8.33,16.46,10.28,22.08,10.65a4.43,4.43,0,0,0,0,1l.57,3.3,1.29-.18c.73-.11,1.43-.23,2.12-.36l2.51-.4,1.34-.19,1.68-.26L40.21,104a4.18,4.18,0,0,0-.38-1.13A31.28,31.28,0,0,0,55,88C59.56,78.56,61.14,62.91,53.82,56.82Z"/><path class="cls-21" d="M170.15,116.47a84,84,0,0,0,.17-8.49,94.16,94.16,0,0,0-4.09-23.74,132.74,132.74,0,0,0-5.35-15.36,61.28,61.28,0,0,1,3.41,6.39c.85,1.84,1.49,3.45,2.13,5.23A118,118,0,0,1,171,95.38a111.2,111.2,0,0,1,2.64,18.14Z"/><path class="cls-2" d="M79.17,69.57A59.16,59.16,0,0,1,93.82,56.22a50.09,50.09,0,0,1,43.09-6.13,52.53,52.53,0,0,1,25.72,17.69c-2.86-4.31-10.2-14.14-22.66-19.27a52.09,52.09,0,0,0-13.61-3.45,44.23,44.23,0,0,0-13.42.33,45.2,45.2,0,0,0-6.61,1.78,51.64,51.64,0,0,0-14,6.85A43.53,43.53,0,0,0,79.17,69.57Z"/><path class="cls-22" d="M164.09,65.81s-15.4-29.55-47.79-26.74c0,0,27.89-5.78,50,25.06Z"/><path class="cls-22" d="M39.09,102.31a32.28,32.28,0,0,0,13.71-15c1.14-2.66,5.89-14.83-.29-23.16a14.32,14.32,0,0,0-7.33-5.31c-5.94-1.79-11.06,1.22-12,1.81a17.11,17.11,0,0,1,7.05-4.82c1.5-.53,6.06-2.15,10.61,0a12,12,0,0,1,4.28,3.43c4.68,5.85,2.81,16.45,2.38,18.87A32.15,32.15,0,0,1,53.39,90,31.33,31.33,0,0,1,39.09,102.31Z"/><path class="cls-1" d="M76.38,9.17c.59-.28,4.2-1.93,6.54-.39,2.7,1.77,3.41,7.6-.5,13.17a14.59,14.59,0,0,0,2.78-4.53c1.22-3.2,1.87-8.45-1-11.49a4.14,4.14,0,0,0-2.75-1.58C79.54,4.24,77.48,6.13,76.38,9.17Z"/><path class="cls-1" d="M165.12,9.68c.46.45,3.29,3.24,2.69,6-.7,3.16-5.89,5.9-12.48,4.23a14.65,14.65,0,0,0,5.21,1c3.43,0,8.56-1.26,10.4-5a4.25,4.25,0,0,0,.5-3.14C170.84,10.88,168.34,9.62,165.12,9.68Z"/><path class="cls-2" d="M66.32,152.36a23.92,23.92,0,0,0,7.43,9.4c4.72,3.5,9.74,4.25,19.11,5.52a112.94,112.94,0,0,0,11.26,1,153.81,153.81,0,0,1-17.26-.63c-8.93-.66-18.45-2-20.83-4.65a16.84,16.84,0,0,0,.58-3.44,29.29,29.29,0,0,0-.06-3.36C66.51,155.23,66.43,153.92,66.32,152.36Z"/><path class="cls-2" d="M175.86,153.61a28.36,28.36,0,0,1-6.81,6.37c-5.51,3.64-11.12,4.43-19.11,5.52a110.14,110.14,0,0,1-11.27,1,119.17,119.17,0,0,0,17.27-.63,115.53,115.53,0,0,0,20.81-4.29c-.23-1.25-.41-2.25-.53-2.91A13.8,13.8,0,0,1,176,157c-.06-.69,0-1.08-.06-2.52C175.88,154.13,175.87,153.81,175.86,153.61Z"/><path class="cls-3" d="M58.72,158.18a13.56,13.56,0,0,0,3.11-1.42,14.37,14.37,0,0,0,4.49-4.4c-.1-2.69-.2-5.39-.29-8.08a18.79,18.79,0,0,1-1,4.95A19.91,19.91,0,0,1,58.72,158.18Z"/><path class="cls-3" d="M182.92,158.08a25.45,25.45,0,0,1-2.95-1.44,23.69,23.69,0,0,1-4.11-3l-.61-7.32a18,18,0,0,0,1.28,4.17A18.9,18.9,0,0,0,182.92,158.08Z"/><path class="cls-23" d="M174.21,115.13l19.37,20.65a10.28,10.28,0,0,1,4.28-.29c1.14.16,3.59.51,4.11,1.94a5.48,5.48,0,0,1,0,2.46h0a4.09,4.09,0,0,0,1-1.25,2.14,2.14,0,0,0,0-1.48,6.88,6.88,0,0,0-2.27-2.08,7.52,7.52,0,0,0-5.71-.55L175.36,114Z"/><path class="cls-23" d="M66.56,114.65,48.23,132.5a5.51,5.51,0,0,0-4.95.05,4.75,4.75,0,0,0-1.73,1.88l-.1-.53c-.17-.87-.34-2.87-.34-2.87s.43-.14.78-.23a5.3,5.3,0,0,1,.81-.12,12.75,12.75,0,0,1,2.34,0,11,11,0,0,1,2.78.65l17.62-17.83Z"/><path class="cls-24" d="M188.07,177.88s0,.23-.24,4.92h0a13.7,13.7,0,0,0,2.35-2.85,14.09,14.09,0,0,0,2-5.78l-15.42-12.62a58.88,58.88,0,0,1,6.16,6.77C186.29,172.65,188,174.87,188.07,177.88Z"/></g></g></svg>