<svg xmlns="http://www.w3.org/2000/svg" viewBox="0 0 215.64 184.13"><defs><style>.cls-1{isolation:isolate;}.cls-2{fill:#f26522;}.cls-10,.cls-12,.cls-2,.cls-3,.cls-5,.cls-7,.cls-8,.cls-9{stroke:#231f20;}.cls-10,.cls-12,.cls-19,.cls-2,.cls-23,.cls-3,.cls-4,.cls-5,.cls-6,.cls-7,.cls-8,.cls-9{stroke-miterlimit:10;}.cls-3{fill:#652770;}.cls-4{fill:#fff;stroke:#fff;}.cls-5{fill:#231f20;}.cls-6,.cls-9{fill:#ffde17;}.cls-6{stroke:#f7941d;}.cls-7{fill:#754c29;}.cls-10,.cls-7,.cls-8,.cls-9{stroke-width:0.5px;}.cls-13,.cls-24,.cls-25,.cls-8{fill:#1c75bc;}.cls-10{fill:#009444;}.cls-11{fill:#524fa1;}.cls-12{fill:#be1e2d;}.cls-14{fill:#39b54a;}.cls-15{font-size:10.4px;}.cls-15,.cls-16,.cls-18{fill:#fbb040;}.cls-15,.cls-16{font-family:DINAlternate-Bold, DIN Alternate;font-weight:700;}.cls-16{font-size:10.4px;}.cls-17{fill:#ef4136;}.cls-19{fill:#fff33e;stroke:#a97c50;}.cls-19,.cls-23{stroke-width:0.75px;}.cls-20{fill:#7b4c83;}.cls-21{fill:#a31e22;}.cls-22{fill:#acd0cf;opacity:0.83;}.cls-23{fill:none;stroke:#8ed3d5;opacity:0.41;}.cls-24,.cls-27,.cls-28{mix-blend-mode:multiply;}.cls-24{opacity:0.22;}.cls-25{mix-blend-mode:darken;opacity:0.25;}.cls-26{fill:#006838;}.cls-27,.cls-28{fill:#2b3990;}.cls-27{opacity:0.09;}.cls-28{opacity:0.16;}</style></defs><g class="cls-1"><g id="Layer_2" data-name="Layer 2"><g id="shading"><path class="cls-2" d="M47.65,168.29l-12.1,7.76s-.16,10.49,17.28,6.78l12.82-9.08"/><path class="cls-2" d="M116.26,168.29l12.1,7.76s.17,10.49-17.27,6.78l-12.83-9.08"/><path class="cls-3" d="M134.16,106.58c.25,4.37.38,8.75.47,13.12.21,11.26,0,23-5,33.08-4.41,9-12.38,16.12-21.53,20.3s-19.41,5.6-29.45,5c-17.27-1-35.07-8.8-43.76-23.76-5.55-9.53-6.88-20.9-7.33-31.93-.84-20.79,1.28-42.4,10-61.54C45.71,42.93,61.28,24.07,83,25.6c11.78.83,22.4,7.93,30.05,16.92,8.84,10.38,14.33,23.3,17.43,36.57A162.91,162.91,0,0,1,134.16,106.58Z"/><path class="cls-3" d="M28.27,97c-4.79,5.08-8.6,9.47-11.34,12.71-1.22,1.45-3.83,4.57-7,8.77a54.68,54.68,0,0,0-8,13.56c-1.94,5-1.48,6.51-.94,7.34.28.42,1.49,2.07,7,2.05a31.47,31.47,0,0,0,16.25-4.83l4.21-3.82"/><path class="cls-3" d="M133.05,96.82c4.8,5.08,8.61,9.46,11.34,12.71,1.23,1.45,3.83,4.57,7,8.77a54.68,54.68,0,0,1,8,13.56c2,5,1.49,6.51.94,7.34-.27.42-1.49,2.06-7,2.05a31.47,31.47,0,0,1-16.25-4.83l-2.79-2.54"/><path class="cls-4" d="M121.84,149.84c4-9.55,4.35-17.59,4.64-26.18a137.72,137.72,0,0,0-1.54-25.13c-2.21-16.72-5.78-25.64-6.69-27.85-2.18-5.3-9.19-22.31-16.89-21.87-1.38.08-4.22,2.3-9.84,6.73-7,5.53-7.72,6.68-10,6.79-1.33.07-3-.24-12-7.3-6.87-5.36-7-6-8.38-6.15-10.81-1.06-16.42,18.67-19,25.61-4.35,11.67-5,20.78-5.84,33.15-1.23,18.58-1.94,32,6.12,45.2a37.79,37.79,0,0,0,9,10.32c9.11,7,19.84,8.11,25.22,8.64a63.71,63.71,0,0,0,12.82,0c5-.31,18-1.79,26.38-11.25C118.79,157.14,120.16,153.86,121.84,149.84Z"/><ellipse class="cls-5" cx="101.75" cy="69.05" rx="3.48" ry="5.5"/><path class="cls-6" d="M74.07,72.66H86.54l-5.92,9.2Z"/><ellipse class="cls-5" cx="58.87" cy="69.05" rx="3.48" ry="5.5"/><rect class="cls-7" x="160.24" y="79" width="2.83" height="68.69" rx="1" transform="translate(31.52 -35.13) rotate(13.73)"/><path class="cls-8" d="M210.73,85.58a21,21,0,0,1-6.13,2.58c-7.8,1.88-14.38-1.43-16.49-2.6a19.38,19.38,0,0,0-7.42-2.51,19.9,19.9,0,0,0-10.49,1.59L166.85,99a21.54,21.54,0,0,1,5.43-.51,21.75,21.75,0,0,1,10.44,3.18,22,22,0,0,0,10.54,2.94c9.63.16,15.94-6.33,17.1-7.57,0,0,4.28-11.67,4.9-14.25Z"/><path class="cls-9" d="M208,99.31a22.88,22.88,0,0,1-12.41,5.25,23.12,23.12,0,0,1-15.29-4.07,20.55,20.55,0,0,0-8.92-2,20.27,20.27,0,0,0-4.48.54l-3.66,14.61a20.91,20.91,0,0,1,3.92-.23c4.27.17,7.09,1.69,10.35,3,.46.18,6.65,2.67,10.63,3.11s9.52-.63,17.1-7.57c.75-2,1.49-4.08,2.22-6.16,1-3,2-5.86,3-8.73Z"/><path class="cls-10" d="M106.53,13.74c-.55-3.24-5.84-5-11.81-4a19.38,19.38,0,0,0-3.49.93c0-.57,0-1.16-.11-1.76-.61-5.09-3.34-9-6.1-8.62-2.46.29-4.29,5.56-3.9,9.82a13.32,13.32,0,0,0,3.42,7.54l.94,1.16a13.1,13.1,0,0,0-1.79,1.73,14.48,14.48,0,0,0-2.6,4.79,25.93,25.93,0,0,0-1.16,5.9h0L82.24,31A17.92,17.92,0,0,1,86.56,19.9a16.89,16.89,0,0,0,10.16,1.54C102.69,20.42,107.08,17,106.53,13.74Z"/><path class="cls-11" d="M28.07,98.65a171.12,171.12,0,0,0-14,15.7c-2.81,3.62-5.07,7-6.2,8.65-.82,1.2-1.84,2.74-3,4.78a35.85,35.85,0,0,0-2.92,6C1.15,136,.68,138.25.85,138.3s1.37-3.16,1.62-3.68c6.33-13.19,16.51-22,25.6-27.75Z"/><path class="cls-11" d="M132.52,97.08a172.37,172.37,0,0,1,14,15.7c2.8,3.62,5.06,7,6.19,8.64.82,1.21,1.84,2.75,3,4.79a35.45,35.45,0,0,1,2.92,6c.78,2.21,1.25,4.49,1.08,4.54s-1.37-3.16-1.62-3.69c-6.33-13.18-16.51-22-25.6-27.75Z"/><path class="cls-12" d="M134.05,96.7c-4.08,4-22.06,20.94-50.44,22-32.25,1.15-53-19.12-56.42-22.55l-21.11,22L19.82,141.5l7.52-5.12A78.23,78.23,0,0,0,29,153.24a74.7,74.7,0,0,0,1.94,7.43c3.51,1.3,7.17,2.5,11,3.55,35,9.68,67.72,3.3,90.81-4.54.53-1.91,1-4,1.39-6.16a68.92,68.92,0,0,0,.92-16.59,27.46,27.46,0,0,0,2.25,1.69,28.26,28.26,0,0,0,4.63,2.53L156,120.55Z"/><circle class="cls-13" cx="81.06" cy="143.08" r="8.29"/><ellipse class="cls-14" cx="77.48" cy="146.88" rx="1.04" ry="2.07" transform="translate(-78.1 88.83) rotate(-41.73)"/><ellipse class="cls-14" cx="84.41" cy="139.71" rx="1.35" ry="0.82" transform="translate(-76.09 169.42) rotate(-69.35)"/><path class="cls-14" d="M78.1,138A2.23,2.23,0,0,0,77,139.13c-.29.73.08,1.05-.23,1.53s-1.16.32-1.5.89a1.44,1.44,0,0,0,.39,1.74c.71.49,1.86-.2,2.26-.44,1.24-.74,1.19-1.55,2.21-1.78.55-.12.94,0,1.32-.32a1.73,1.73,0,0,0,.46-.91,1.3,1.3,0,0,0,0-.78,1.71,1.71,0,0,0-1.13-.8,4.6,4.6,0,0,0-.85-.19A3.91,3.91,0,0,0,78.1,138Z"/><path class="cls-14" d="M82.16,142.22a2.45,2.45,0,0,0-1.89.13c-.84.59-.86,2.12-.42,3.15.64,1.49,2.47,2.39,3.54,2,.62-.25.69-.82,1.43-1s1.18.4,1.64.14a1.53,1.53,0,0,0,.39-1.63,2.7,2.7,0,0,0-1.53-1.5,7.46,7.46,0,0,0-.72-.31A16.51,16.51,0,0,0,82.16,142.22Z"/><text class="cls-15" transform="translate(44.98 147.58)">world</text><text class="cls-16" transform="translate(91.77 146.75)">peace</text><path class="cls-17" d="M59.84,175l-7.73,6a15.39,15.39,0,0,1-10.8-.32,13.56,13.56,0,0,1-3-1.8l-2.2-2.37a5.5,5.5,0,0,0,.63,2.84c1.91,3.53,8.24,4.72,15.72,2.88l9.15-6.56Z"/><path class="cls-17" d="M104.15,175.46l7.51,5.56a15.39,15.39,0,0,0,10.8-.32,13.8,13.8,0,0,0,3-1.8l2.06-2.44a5.17,5.17,0,0,1-.49,2.91c-1.76,3.47-8.09,4.71-15.72,2.88l-8.82-6.2Z"/><path class="cls-18" d="M37.2,176.34l10-6.39,1.35.12-8.13,5.26Z"/><path class="cls-18" d="M126.74,176.3l-10-6.39-1.34.12,8.12,5.26Z"/><line class="cls-19" x1="170.04" y1="81.5" x2="154.41" y2="145.48"/><path class="cls-20" d="M83.69,26.51a43,43,0,0,1,19.93,7.74,53,53,0,0,1,9.64,9.46,66.94,66.94,0,0,1,7.21,10.68A86.18,86.18,0,0,0,83.69,26.51Z"/><path class="cls-21" d="M27.91,135l.48-9.88a25.28,25.28,0,0,1-2.2,7.53,24.88,24.88,0,0,1-4.58,6.63Z"/><path class="cls-21" d="M134.82,137.17l-1.2-9.81A24.92,24.92,0,0,0,141.41,141Z"/><path class="cls-22" d="M133.93,97.66c2.45,3.72,4.62,6.65,6.16,8.64,3.81,4.93,6.49,7.67,10.48,13.48,1.05,1.55,1.89,2.84,2.45,3.72l2-3-14.55-15.79Q137.21,101.21,133.93,97.66Z"/><path class="cls-22" d="M27.21,97c-2.24,3-4.09,5.31-5.31,6.85-4.55,5.74-7,8.46-10.47,13.48-1.15,1.64-2,3-2.61,3.88L7,118.1q6-6.3,12.07-12.6Q23.11,101.24,27.21,97Z"/><path class="cls-23" d="M172.09,85.7a16.37,16.37,0,0,1,7.73-1,22.27,22.27,0,0,1,6.67,2.11c2.83,1.23,3,1.72,4.84,2.52,5.51,2.44,11.17,1.23,13.41.76A26.44,26.44,0,0,0,212,87.29"/><path class="cls-24" d="M174.83,115.1c.63-1.18,1.61-3,2.78-5.35,2-4,3.12-6.43,6.71-14.1.71-1.53,1.8-3.85,3.15-6.71q-1.49,8.58-2.81,17.52-.89,5.94-1.64,11.74c-1.11-.34-2.27-.73-3.47-1.17C177.86,116.41,176.29,115.76,174.83,115.1Z"/><path class="cls-25" d="M196.34,117.65a31,31,0,0,0,5.51-28.51c3.29-1.16,5.9-2.28,7.76-3.13s5.49-2.6,5.49-2.6h0a154.85,154.85,0,0,0-5.49,15.25c-.69,2.35-.78,2.91-1.53,5.21-1.1,3.41-2.19,6.12-2.93,7.88a42.35,42.35,0,0,1-8.81,5.9Z"/><path class="cls-26" d="M94.52,21.29c-1.49.16-5.4.36-8.32-2.13a12.23,12.23,0,0,1-2.44-3,13.93,13.93,0,0,1-2.29-5.64,12.83,12.83,0,0,1,.79-6.54,17.28,17.28,0,0,0,1.43,7.69C86.67,18.37,93.13,20.8,94.52,21.29Z"/><path class="cls-26" d="M86,18.83a11.27,11.27,0,0,0-1.83,1.68A14.61,14.61,0,0,0,82.46,23a25.9,25.9,0,0,0-2.17,7.86l1.59-.15a18.75,18.75,0,0,1,1-5.13,20.15,20.15,0,0,1,2.07-4,4.28,4.28,0,0,1,1.63-1.67c.68-.35,1.29-.37,1.3-.53S87.56,19.07,86,18.83Z"/><path class="cls-14" d="M101.89,19.33a5.53,5.53,0,0,0,2.2-6.2c-1-2.63-4.32-3.2-4.71-3.26a6.26,6.26,0,0,0-1.52,0,8.73,8.73,0,0,1,2.58,0c.54.09,5.15.86,5.71,3.79C106.54,15.71,104.86,18.29,101.89,19.33Z"/><path class="cls-14" d="M90.88,11.18a11.74,11.74,0,0,0-2.61-5.83,9.74,9.74,0,0,0-2.72-2.29L83.3,2h0A4,4,0,0,1,85,.54a2.88,2.88,0,0,1,2.25.79,7.23,7.23,0,0,1,2.25,3,13.3,13.3,0,0,1,.83,2.31A16.38,16.38,0,0,1,90.88,11.18Z"/><path class="cls-27" d="M33,75A56,56,0,0,0,30,85.39a55.36,55.36,0,0,0-1,11.83,69.59,69.59,0,0,0,25,16.31s13.45,5,26.93,4.46l6.35-.26h0a89.14,89.14,0,0,1-21.77-4.68,58.12,58.12,0,0,1-17-9.91,43.59,43.59,0,0,1-8.83-9.47A40.91,40.91,0,0,1,33,75Z"/><path class="cls-28" d="M46.27,166.21a55.76,55.76,0,0,0,31.13,12,67.12,67.12,0,0,0,16.85-.88,60.32,60.32,0,0,0,11.2-3.13c3.74-1.45,6.19-2.4,9-4.59a74.4,74.4,0,0,0,5.94-5.46h0l-8.82,1.51a210,210,0,0,1-22.13,2.82c-4.57.29-8,.32-10.23.32A205.66,205.66,0,0,1,46.27,166.21Z"/></g></g></g></svg>