<svg xmlns="http://www.w3.org/2000/svg" viewBox="0 0 174.86 172.46"><defs><style>.cls-1{fill:#f26522;}.cls-1,.cls-2{stroke:#231f20;}.cls-1,.cls-2,.cls-3,.cls-4{stroke-miterlimit:10;}.cls-2{fill:#231f20;}.cls-3{fill:#fff;stroke:#fff;}.cls-4{fill:#ffde17;stroke:#f7941d;}.cls-5{fill:#524fa1;}.cls-6{fill:#171445;}.cls-7{fill:#ef4136;}.cls-8{fill:#fbb040;}.cls-9{fill:#fdfad9;}.cls-10{fill:#e5ecef;}</style></defs><g id="Layer_2" data-name="Layer 2"><g id="shading"><path class="cls-1" d="M51.63,155.33l-13.12,8.42s-.17,11.38,18.74,7.35l13.9-9.85"/><path class="cls-1" d="M126,155.33l13.12,8.42s.18,11.38-18.73,7.35l-13.91-9.85"/><path class="cls-2" d="M145.44,88.41c.27,4.74.42,9.49.51,14.23.24,12.21,0,24.9-5.37,35.88-4.79,9.8-13.42,17.47-23.35,22s-21,6.07-31.94,5.43c-18.72-1.1-38-9.55-47.46-25.76-6-10.35-7.45-22.68-7.94-34.63C29,83,31.28,59.59,40.7,38.83,49.53,19.39,66.42-1.06,90,.59c12.77.9,24.29,8.61,32.58,18.36,9.59,11.25,15.55,25.25,18.9,39.65A174.66,174.66,0,0,1,145.44,88.41Z"/><path class="cls-2" d="M30.62,78c-5.2,5.51-9.34,10.27-12.3,13.78-1.33,1.58-4.15,5-7.58,9.52S4.26,110.31,2,116C-.08,121.45.42,123.1,1,124c.3.46,1.61,2.24,7.55,2.23A34.18,34.18,0,0,0,26.18,121l4.56-4.15"/><path class="cls-2" d="M144.24,77.82c5.21,5.52,9.34,10.27,12.3,13.79,1.33,1.57,4.15,5,7.58,9.51s6.48,9,8.71,14.71c2.11,5.42,1.61,7.06,1,8-.3.45-1.61,2.23-7.55,2.22a34.18,34.18,0,0,1-17.62-5.24l-3-2.75"/><path class="cls-3" d="M132.09,135.33c4.33-10.36,4.71-19.09,5-28.4a150.57,150.57,0,0,0-1.67-27.25c-2.39-18.13-6.26-27.81-7.25-30.2-2.37-5.75-10-24.2-18.32-23.71-1.5.08-4.58,2.49-10.67,7.29-7.61,6-8.38,7.25-10.79,7.37-1.44.07-3.24-.27-13.06-7.93-7.45-5.81-7.57-6.51-9.09-6.66C54.54,24.69,48.46,46.08,45.65,53.61c-4.71,12.65-5.43,22.54-6.32,36-1.34,20.15-2.11,34.75,6.63,49a41.4,41.4,0,0,0,9.72,11.2c9.88,7.63,21.52,8.79,27.36,9.37a69.27,69.27,0,0,0,13.91,0c5.37-.34,19.55-1.94,28.59-12.2C128.78,143.24,130.27,139.68,132.09,135.33Z"/><ellipse class="cls-2" cx="110.3" cy="47.71" rx="3.78" ry="5.97"/><path class="cls-4" d="M80.28,51.62H93.81l-6.42,10Z"/><ellipse class="cls-2" cx="63.79" cy="47.71" rx="3.78" ry="5.97"/><path class="cls-5" d="M30.62,79.25a185,185,0,0,0-15.19,17c-3,3.92-5.49,7.55-6.72,9.37-.88,1.31-2,3-3.27,5.19a38.64,38.64,0,0,0-3.17,6.49c-.85,2.39-1.35,4.86-1.17,4.92s1.49-3.43,1.76-4C9.72,104,20.76,94.4,30.62,88.16Z"/><path class="cls-5" d="M144.24,78.93a185,185,0,0,1,15.19,17c3,3.93,5.49,7.55,6.72,9.37.89,1.31,2,3,3.27,5.19a38.64,38.64,0,0,1,3.17,6.49c.85,2.4,1.36,4.86,1.17,4.92s-1.48-3.42-1.76-4c-6.86-14.3-17.9-23.84-27.76-30.09Z"/><path class="cls-5" d="M54.81,18A46.81,46.81,0,0,1,65,8.54,38.94,38.94,0,0,1,78.27,2.32a37.22,37.22,0,0,1,13.6-.77A81.71,81.71,0,0,0,54.81,18Z"/><path class="cls-6" d="M23.66,121.66a23.65,23.65,0,0,0,6.16-9.85,22.8,22.8,0,0,0,1-4.88q.09,5.1.19,10.19c-1.67,1.15-3.46,2.3-5.38,3.43Z"/><path class="cls-6" d="M152.47,122.25a23.55,23.55,0,0,1-6.17-9.85,22.84,22.84,0,0,1-1-4.87l-.18,10.19c1.67,1.15,3.46,2.3,5.37,3.42Q151.49,121.73,152.47,122.25Z"/><path class="cls-7" d="M65,162.55l-8.38,6.5a16.65,16.65,0,0,1-11.72-.35,15,15,0,0,1-3.2-1.95l-2.38-2.57a6,6,0,0,0,.68,3.08c2.08,3.83,8.94,5.12,17.05,3.12L67,163.27Z"/><path class="cls-7" d="M113,163l8.14,6a16.63,16.63,0,0,0,11.71-.35,15,15,0,0,0,3.2-1.95l2.23-2.65a5.61,5.61,0,0,1-.53,3.16c-1.91,3.77-8.78,5.11-17,3.12l-9.56-6.72Z"/><path class="cls-8" d="M40.42,164l10.9-6.92,1.46.12L44,162.88Z"/><path class="cls-9" d="M91.65,52.92l-3.34,5.47-.68.27,2.68-4.47Z"/><path class="cls-8" d="M137.52,163.93,126.63,157l-1.47.13,8.82,5.71Z"/><path class="cls-10" d="M38.94,83.92c-.22,2-.51,5.07-.68,8.75-.78,16.17-1.58,33.7,8.4,48.75a41.14,41.14,0,0,0,10.11,10.83c10.15,7.27,21.82,8,27.68,8.38a71.18,71.18,0,0,0,13.9-.52,51.94,51.94,0,0,0,14.51-3.49,36.87,36.87,0,0,0,8.79-5,35.16,35.16,0,0,0,4.84-4.73A30.42,30.42,0,0,0,128.7,144a43,43,0,0,0,3.89-7.77c.38-.9.67-1.64.85-2.11C131.33,136,109,155.43,82,148.88,56.2,142.65,36.93,115.56,38.94,83.92Z"/></g></g></svg>