<svg xmlns="http://www.w3.org/2000/svg" viewBox="0 0 171.93 169.57"><defs><style>.cls-1{fill:#f26522;}.cls-1,.cls-2,.cls-4{stroke:#231f20;}.cls-1,.cls-2,.cls-3,.cls-4,.cls-5{stroke-miterlimit:10;}.cls-2{fill:#2e3192;}.cls-3{fill:#fff;stroke:#fff;}.cls-4{fill:#231f20;}.cls-5{fill:#ffde17;stroke:#f7941d;}.cls-6{fill:#524fa1;}.cls-7{fill:#171445;}.cls-8{fill:#ef4136;}.cls-9{fill:#fbb040;}.cls-10{fill:#fdfad9;}.cls-11{fill:#e5ecef;}</style></defs><g id="Layer_2" data-name="Layer 2"><g id="shading"><path class="cls-1" d="M50.77,152.72,37.87,161s-.17,11.19,18.42,7.23L70,158.54"/><path class="cls-1" d="M123.92,152.72l12.9,8.27s.18,11.19-18.42,7.23l-13.67-9.68"/><path class="cls-2" d="M143,86.93c.27,4.66.41,9.33.5,14,.23,12,0,24.48-5.29,35.27-4.7,9.64-13.19,17.18-22.94,21.64s-20.7,6-31.41,5.34c-18.41-1.08-37.39-9.39-46.66-25.33-5.9-10.17-7.33-22.29-7.8-34C28.5,81.63,30.76,58.59,40,38.19,48.7,19.07,65.31-1,88.47.59c12.56.89,23.88,8.46,32,18,9.42,11.07,15.28,24.84,18.58,39A174,174,0,0,1,143,86.93Z"/><path class="cls-2" d="M30.11,76.72C25,82.14,20.93,86.82,18,90.27c-1.31,1.55-4.08,4.88-7.45,9.36S4.2,108.46,2,114.09C-.07,119.41.42,121,1,121.91c.3.45,1.59,2.2,7.42,2.19A33.65,33.65,0,0,0,25.75,119l4.48-4.08"/><path class="cls-2" d="M141.82,76.52c5.11,5.42,9.18,10.09,12.09,13.55,1.31,1.55,4.08,4.88,7.45,9.35s6.37,8.84,8.56,14.46c2.08,5.33,1.59,6.94,1,7.83-.29.45-1.59,2.2-7.42,2.19a33.59,33.59,0,0,1-17.33-5.16l-3-2.7"/><path class="cls-3" d="M129.87,133.05c4.26-10.18,4.63-18.76,4.95-27.91a149.36,149.36,0,0,0-1.64-26.8C130.82,60.52,127,51,126,48.65c-2.32-5.65-9.8-23.78-18-23.31-1.48.08-4.51,2.45-10.5,7.17-7.47,5.9-8.23,7.13-10.61,7.25-1.41.07-3.18-.27-12.83-7.8-7.32-5.71-7.44-6.4-8.94-6.55-11.53-1.13-17.51,19.9-20.27,27.31-4.64,12.43-5.34,22.15-6.22,35.34-1.31,19.81-2.07,34.16,6.53,48.19a40.44,40.44,0,0,0,9.55,11c9.72,7.51,21.16,8.65,26.9,9.22a68.24,68.24,0,0,0,13.67,0c5.28-.33,19.23-1.9,28.11-12C126.62,140.83,128.08,137.34,129.87,133.05Z"/><ellipse class="cls-4" cx="108.45" cy="46.91" rx="3.71" ry="5.87"/><path class="cls-5" d="M78.94,50.76h13.3l-6.32,9.81Z"/><ellipse class="cls-4" cx="62.73" cy="46.91" rx="3.71" ry="5.87"/><path class="cls-6" d="M30.11,77.92A183.34,183.34,0,0,0,15.18,94.66c-3,3.86-5.4,7.43-6.61,9.22-.87,1.28-1.95,2.93-3.21,5.1a37.6,37.6,0,0,0-3.12,6.38c-.83,2.35-1.33,4.78-1.15,4.84s1.46-3.37,1.73-3.93c6.75-14.06,17.6-23.45,27.29-29.59Z"/><path class="cls-6" d="M141.82,77.61a180.46,180.46,0,0,1,14.93,16.74c3,3.86,5.4,7.42,6.61,9.21.87,1.29,2,2.93,3.21,5.11a37.22,37.22,0,0,1,3.12,6.37c.83,2.36,1.33,4.79,1.15,4.85s-1.46-3.37-1.73-3.94c-6.75-14.06-17.6-23.44-27.29-29.58Z"/><path class="cls-6" d="M53.89,17.69a46.43,46.43,0,0,1,10-9.29A38.57,38.57,0,0,1,77,2.28a36.51,36.51,0,0,1,13.37-.74A80.27,80.27,0,0,0,53.89,17.69Z"/><path class="cls-7" d="M23.27,119.62a23.38,23.38,0,0,0,6.06-9.69,22.56,22.56,0,0,0,1-4.79l.18,10c-1.64,1.13-3.4,2.26-5.28,3.36C24.54,118.9,23.9,119.27,23.27,119.62Z"/><path class="cls-7" d="M149.9,120.2a23.34,23.34,0,0,1-6.06-9.68,22.52,22.52,0,0,1-1-4.8l-.18,10c1.64,1.13,3.4,2.26,5.28,3.37C148.63,119.49,149.27,119.85,149.9,120.2Z"/><path class="cls-8" d="M63.88,159.82l-8.24,6.39a16.44,16.44,0,0,1-11.52-.35A14.06,14.06,0,0,1,41,163.94l-2.34-2.52a6,6,0,0,0,.66,3c2,3.77,8.79,5,16.77,3.07l9.76-7Z"/><path class="cls-8" d="M111.13,160.28l8,5.93a16.45,16.45,0,0,0,11.52-.35,14.37,14.37,0,0,0,3.15-1.92l2.19-2.6a5.62,5.62,0,0,1-.52,3.11c-1.88,3.7-8.63,5-16.77,3.07l-9.4-6.61Z"/><path class="cls-9" d="M39.75,161.22l10.71-6.81,1.44.12-8.66,5.61Z"/><path class="cls-10" d="M90.11,52l-3.28,5.38-.67.26,2.64-4.4Z"/><path class="cls-9" d="M135.21,161.17l-10.71-6.81-1.44.13,8.67,5.61Z"/><path class="cls-11" d="M38.29,82.52c-.22,2-.5,5-.67,8.6C36.86,107,36.07,124.25,45.88,139a40.2,40.2,0,0,0,9.95,10.65c10,7.15,21.45,7.88,27.2,8.24a70.67,70.67,0,0,0,13.67-.51A51.53,51.53,0,0,0,111,154a35.9,35.9,0,0,0,8.63-4.93,34,34,0,0,0,4.76-4.65,27.29,27.29,0,0,0,2.18-2.88,42.53,42.53,0,0,0,3.82-7.64c.37-.88.66-1.61.84-2.07-2.08,1.88-24,21-50.63,14.56C55.27,140.26,36.32,113.62,38.29,82.52Z"/></g></g></svg>