<svg xmlns="http://www.w3.org/2000/svg" viewBox="0 0 259.62 192.1"><defs><style>.cls-1{fill:#fff;}.cls-1,.cls-2,.cls-3,.cls-5,.cls-6{stroke:#231f20;}.cls-1,.cls-10,.cls-11,.cls-2,.cls-3,.cls-5,.cls-6,.cls-7{stroke-miterlimit:10;}.cls-2{fill:#7f99ce;}.cls-3,.cls-4,.cls-8{fill:#738aba;}.cls-4{opacity:0.39;}.cls-5{fill:#231f20;}.cls-10,.cls-11,.cls-6,.cls-7{fill:none;}.cls-11,.cls-7{stroke:#738aba;}.cls-7{opacity:0.46;}.cls-9{fill:#27aae1;}.cls-10,.cls-9{opacity:0.22;}.cls-10{stroke:#27aae1;}.cls-11{opacity:0.3;}</style></defs><g id="Layer_2" data-name="Layer 2"><g id="Layer_27" data-name="Layer 27"><circle class="cls-1" cx="12.2" cy="58.99" r="11.7"/><path class="cls-2" d="M93.24,144.41v23.43l14.67,16.1s4.46,7-7.34,5.1L77,187.92l-1.43-44.47,17.69-4Z"/><path class="cls-3" d="M199.39,145.68l-2.28,22.16,14.67,16.1s4.46,7-7.34,5.1l-23.59-1.12-1.52-51.8L201.87,127Q200.64,136.36,199.39,145.68Z"/><path class="cls-1" d="M6.19,94.19a53.7,53.7,0,0,1,7.25-25c7-11.94,16.89-17.7,22.63-21,9.52-5.4,18.85-7.8,28.19-9.15,36.61-5.3,89.25,3.29,98.4,4.83a19.36,19.36,0,0,0,1.19-2.49,17.72,17.72,0,0,0,1.25-6.06c-.52-.06-1.26-.16-2.14-.35-2.42-.5-6.52-1.35-9.9-4.54A16.21,16.21,0,0,1,148.47,22a16.14,16.14,0,0,1,1.36-10.89,16.27,16.27,0,0,1,7.29-6.94,15.34,15.34,0,0,1,5.77-1.42,14.49,14.49,0,0,1,7.24,1.69,14.31,14.31,0,0,1,6.23,7s12-7,16.17-4.69a5.77,5.77,0,0,0-1.37-2.17,16.87,16.87,0,0,0-2.68-1.76L200.2,4.9l-1.58-4,10.92,4.66a32.31,32.31,0,0,1,7.32.72,34.12,34.12,0,0,1,15.68,8.17,14.2,14.2,0,0,1,6.67-8,13.41,13.41,0,0,1,12.67,0,13.72,13.72,0,0,1,5.59,6.32,16.64,16.64,0,0,1,1.43,9.92,15.4,15.4,0,0,1-2.41,6.44,16.23,16.23,0,0,1-9.43,6.43,28.87,28.87,0,0,1,.7,3.92,32.67,32.67,0,0,1-.5,9.82,39.56,39.56,0,0,1-6.81,16.55h0a57.74,57.74,0,0,1-21.18,20.8c-1.68,6.61-4.77,14.4-8.75,23.15-5.51,12.14-13.3,25.4-22.4,29.89l-5.4,32.83s23.45,11.91,7.33,18.14L137.47,190l1.83-59s-6.23-2.75-8.79-2-44.7,15.76-50.75,15.94c.12,3.79.41,7.85.92,12.15a139.2,139.2,0,0,0,3.45,18.38Q98.8,185,97.42,188.93q-.84,2.35-7.51,2.67l-53.22-1.87S4,104.08,6.19,94.19Z"/><ellipse class="cls-4" cx="204.73" cy="41.77" rx="12.53" ry="8.64"/><ellipse class="cls-5" cx="187.03" cy="36.41" rx="2.2" ry="3.84"/><ellipse class="cls-5" cx="219.77" cy="34.72" rx="2.2" ry="3.84"/><polyline class="cls-6" points="45.22 80.86 42.07 78.76 49.6 74.38 45.83 72.8 55.38 69.47"/><polyline class="cls-6" points="45.22 131.22 42.07 129.12 49.6 124.74 45.83 123.16 55.38 119.83"/><polyline class="cls-6" points="92.61 98.08 89.45 95.97 96.99 91.59 93.22 90.02 102.77 86.69"/><polyline class="cls-6" points="144.22 79.4 141.06 77.3 148.6 72.92 144.83 71.34 154.38 68.01"/><polyline class="cls-6" points="152.4 109.47 149.25 107.36 156.78 102.98 153.01 101.41 162.56 98.08"/><path class="cls-7" d="M101.81,56.9s-3-5.52-10.63-3.18c0,0,3.67,1.38,1.26,4a13.32,13.32,0,0,0-11.81,1"/><path class="cls-6" d="M208.88,92.38s4.13,4.77-.69,11.07c0,0,0-3.92-3.3-2.56a13.35,13.35,0,0,1-5,10.73"/><path class="cls-5" d="M199.21,37.32l-1.66,2.22,7.64,6.1,6.71-6.49L210,37.27Z"/><polyline class="cls-6" points="194.26 57.13 197.67 59.2 204.92 54.34 205.19 45.65"/><polyline class="cls-6" points="216.11 56.92 212.71 58.99 205.45 54.14 205.19 45.44"/><path class="cls-3" d="M243,28.75c-.62-1.08-1.3-2.18-2-3.31-1.22-1.86-2.45-3.56-3.66-5.11a7.38,7.38,0,0,1,1.6-3.11,7.6,7.6,0,0,1,11.1-.16c.12.14,3,3.4,1.77,7.26a7.1,7.1,0,0,1-3.16,3.86A7.3,7.3,0,0,1,243,28.75Z"/><path class="cls-3" d="M167.7,26.79c.49-1.14,1-2.31,1.63-3.52,1-2,2-3.83,3-5.51a7.43,7.43,0,0,0-2-2.9,7.58,7.58,0,0,0-11,1.17c-.11.15-2.59,3.73-.89,7.42a7.09,7.09,0,0,0,3.6,3.45A7.22,7.22,0,0,0,167.7,26.79Z"/><path class="cls-6" d="M102.77,59s-2.56-5.76-10.31-4.08c0,0,3.53,1.69.91,4.08a13.34,13.34,0,0,0-11.86,0"/><path class="cls-4" d="M219.08,86.63a99.45,99.45,0,0,1-15.32-4.08c-6.7-2.37-10-3.56-13.68-6.3a51.86,51.86,0,0,1-12.3-14.51h0c18.14,32.29,19.34,40.93,19.34,40.93,1.14,8.23.48,20.62-9.17,37.06a24,24,0,0,0,4.93-3c2.34-1.84,3.69-3.63,6-6.73.71-1,2.57-3.48,4.82-7.17s3.79-6.78,4.82-8.87c1.6-3.24,2.65-5.69,4-8.8,1.23-2.88,2.16-5.06,3.22-7.94C216.69,94.6,217.91,91,219.08,86.63Z"/><path class="cls-4" d="M7,93.6A75.08,75.08,0,0,1,26.56,61.51a77.2,77.2,0,0,1,21.78-14.4s17-7.64,56.86-8.67h0a265.24,265.24,0,0,0-28.93.06c-9.32.65-18.14,1.27-29,5.27C41.8,45.8,32.83,49.21,24,57.43A52.17,52.17,0,0,0,12,73.3,50.88,50.88,0,0,0,7,93.6Z"/><path class="cls-8" d="M4.89,51.21C2.51,56.35,3,62.09,6.25,65.88a12.62,12.62,0,0,0,7,4,10.81,10.81,0,0,1-11-5.69A10.82,10.82,0,0,1,4.89,51.21Z"/><path class="cls-9" d="M243.19,6.36a18.07,18.07,0,0,1,11.91,7.13,17.83,17.83,0,0,1,3.25,11.2c.38-1.82,1.35-7.59-1.93-12.7a12.48,12.48,0,0,0-3.75-3.89A13.3,13.3,0,0,0,243.19,6.36Z"/><path class="cls-9" d="M154.38,8a18.12,18.12,0,0,1,13.87-.72,17.85,17.85,0,0,1,8.94,7.49c-.7-1.72-3.11-7-8.68-9.47a12.51,12.51,0,0,0-5.27-1.14A13.34,13.34,0,0,0,154.38,8Z"/><path class="cls-10" d="M178.9,12.57c.79-.47,5.53-3.25,9.69-3.55a18.14,18.14,0,0,1,2.6,0,15.09,15.09,0,0,1,4.32,1.09,10.77,10.77,0,0,0-.46-1.9A11.32,11.32,0,0,0,194,6l3.39.73L203.44,8l-1.5-3.72,7.73,3.45a30.53,30.53,0,0,1,22.58,8.86"/><polyline class="cls-11" points="42.39 131.22 39.24 129.12 46.77 124.74 43 123.16 52.55 119.83"/><polyline class="cls-11" points="89.92 98.08 86.77 95.97 94.3 91.59 90.54 90.02 100.09 86.69"/><polyline class="cls-11" points="142.05 79.4 138.9 77.3 146.43 72.92 142.66 71.34 152.22 68.01"/><polyline class="cls-11" points="149.75 109.47 146.6 107.36 154.13 102.98 150.37 101.41 159.91 98.08"/><polyline class="cls-11" points="42.39 80.86 39.24 78.76 46.77 74.38 43 72.8 52.55 69.47"/></g></g></svg>