<svg xmlns="http://www.w3.org/2000/svg" viewBox="0 0 175.32 218.2"><defs><style>.cls-1{fill:#f26522;}.cls-1,.cls-10,.cls-11,.cls-2,.cls-4,.cls-6,.cls-7,.cls-8,.cls-9{stroke:#231f20;}.cls-1,.cls-10,.cls-11,.cls-2,.cls-23,.cls-3,.cls-4,.cls-5,.cls-6,.cls-7,.cls-8,.cls-9{stroke-miterlimit:10;}.cls-2{fill:#58595b;}.cls-3{fill:#fff;stroke:#fff;}.cls-4{fill:#231f20;}.cls-15,.cls-5{fill:#ffde17;}.cls-5{stroke:#f7941d;}.cls-6{fill:#fbb040;}.cls-7,.cls-8{fill:#6d6e71;}.cls-10,.cls-11,.cls-23,.cls-8,.cls-9{stroke-width:0.5px;}.cls-9{fill:#8b5e3c;}.cls-10{fill:#3c2415;}.cls-11{fill:#754c29;}.cls-12,.cls-13,.cls-14{fill:#f15a29;}.cls-12{opacity:0.83;}.cls-13{opacity:0.84;}.cls-14{opacity:0.47;}.cls-15{opacity:0.63;}.cls-16{fill:#27aae1;opacity:0.26;}.cls-17,.cls-18,.cls-20,.cls-21{fill:#414042;}.cls-18{opacity:0.22;}.cls-19{fill:#1c75bc;opacity:0.11;}.cls-20{opacity:0.81;}.cls-21{opacity:0.94;}.cls-22{fill:#ef4136;}.cls-23{fill:none;stroke:#ffde17;}</style></defs><g id="Layer_2" data-name="Layer 2"><g id="shading"><path class="cls-1" d="M53.7,194l-13,8.3s-.17,11.23,18.5,7.26L73,199.78"/><path class="cls-1" d="M127.13,194l13,8.3s.18,11.23-18.49,7.26l-13.72-9.73"/><path class="cls-2" d="M146.28,127.9c.27,4.67.42,9.36.51,14,.23,12.05,0,24.57-5.31,35.41-4.72,9.68-13.25,17.25-23,21.73s-20.78,6-31.53,5.36C68.43,203.35,49.38,195,40.08,179c-5.93-10.21-7.36-22.38-7.84-34.18C31.33,122.57,33.61,99.45,42.9,79c8.72-19.2,25.39-39.38,48.64-37.74,12.61.88,24,8.49,32.16,18.11,9.46,11.11,15.34,24.93,18.65,39.14A173.1,173.1,0,0,1,146.28,127.9Z"/><path class="cls-2" d="M33,117.65c-5.13,5.44-9.21,10.13-12.13,13.6-1.31,1.56-4.1,4.9-7.49,9.39s-6.39,8.87-8.59,14.52c-2.08,5.35-1.59,7-1,7.85.3.45,1.6,2.21,7.45,2.2A33.75,33.75,0,0,0,28.58,160l4.5-4.09"/><path class="cls-2" d="M145.1,117.45c5.13,5.44,9.21,10.13,12.13,13.6,1.32,1.56,4.1,4.9,7.49,9.39s6.39,8.87,8.59,14.52c2.08,5.34,1.59,7,1,7.85-.29.45-1.59,2.21-7.45,2.2a33.78,33.78,0,0,1-17.39-5.18l-3-2.71"/><path class="cls-3" d="M133.1,174.2c4.27-10.22,4.65-18.83,5-28a148.57,148.57,0,0,0-1.65-26.9c-2.36-17.9-6.18-27.45-7.16-29.81-2.34-5.67-9.84-23.88-18.08-23.4-1.48.08-4.52,2.46-10.53,7.2-7.51,5.92-8.27,7.15-10.65,7.27-1.42.07-3.2-.27-12.89-7.82-7.35-5.73-7.46-6.43-9-6.58C56.57,65,50.57,86.12,47.79,93.55,43.14,106,42.43,115.79,41.55,129c-1.32,19.88-2.08,34.3,6.55,48.38a40.58,40.58,0,0,0,9.59,11c9.75,7.54,21.24,8.68,27,9.25a68.23,68.23,0,0,0,13.73,0c5.3-.33,19.3-1.91,28.22-12C129.84,182,131.31,178.5,133.1,174.2Z"/><ellipse class="cls-4" cx="111.59" cy="87.72" rx="3.73" ry="5.89"/><path class="cls-5" d="M82,91.59H95.32L89,101.43Z"/><ellipse class="cls-4" cx="65.7" cy="87.72" rx="3.73" ry="5.89"/><path class="cls-6" d="M1.28,86.73a124.54,124.54,0,0,0,15,3.1A124.52,124.52,0,0,0,37.43,91q3.48-8.3,7-16.59a92.52,92.52,0,0,0-33,7.21A90.65,90.65,0,0,0,1.28,86.73Z"/><path class="cls-6" d="M173,78.64A99.55,99.55,0,0,1,156.55,84a99.76,99.76,0,0,1-18.06,2.48l-6.42-15.23c6.4,1.1,11.56,1.81,15.11,2.25s7.25,1,10.88,1.41a46.85,46.85,0,0,1,9.21,1.51A35.93,35.93,0,0,1,173,78.64Z"/><path class="cls-6" d="M172,77.24,85.42.69,2.21,85a167.76,167.76,0,0,1,23.9-7.41,174.2,174.2,0,0,1,26.38-3.87c28.89-2.35,51.5-4.19,82.76-1.45C144.72,73.07,157.28,74.52,172,77.24Z"/><path class="cls-7" d="M76.86,77.79c-1,.14-2,.25-3,.33a45.12,45.12,0,0,1-5.77.07c-4-.22-4.56-.62-8.95-1-4.9-.46-9.77-.48-9.77-.48h0l3.22,4.24-2,1.63,2.09,2,0,2.78c7.61-4.25,11.09-5.09,12.84-4.93,2,.17,3,.18,5,.21a11.85,11.85,0,0,0,2-.06c.88-.14,3.53-.46,4.36-2.31A3.42,3.42,0,0,0,76.86,77.79Z"/><path class="cls-7" d="M100.76,77.79c.95.14,2,.25,3,.33a45.12,45.12,0,0,0,5.77.07c2.44-.14,3.73-.33,8.95-1,5.05-.68,10-1.3,10-1.3h0L125,80.92l2,1.63-2.09,2,0,2.78c-7.6-4.25-11.09-5.09-12.83-4.93-1.95.17-3,.18-5,.21a11.85,11.85,0,0,1-2-.06c-.88-.14-3.52-.46-4.36-2.31A3.38,3.38,0,0,1,100.76,77.79Z"/><path class="cls-8" d="M82.17,93.89s-25.88,10.74-27.59,17.77S61,113,61,113a2.72,2.72,0,0,0,1,2.81,2,2,0,0,0,1,.31,13.92,13.92,0,0,0,2.57-.79,14.38,14.38,0,0,0,4.62-3l2.37,1.21a2.75,2.75,0,0,0,.78.18c5.17.46,10.2-13.67,11.19-16.51l-1.08-1.5Z"/><path class="cls-8" d="M95.26,93.89s26.28,9.7,28.28,16.65-6.37,1.6-6.37,1.6a2.74,2.74,0,0,1-.87,2.85,2,2,0,0,1-1,.35,14.33,14.33,0,0,1-2.61-.69,14.57,14.57,0,0,1-4.73-2.86l-2.32,1.3a2.76,2.76,0,0,1-.77.21c-5.15.67-10.74-13.25-11.84-16l1-1.54Z"/><path class="cls-8" d="M108.35,118.62c1.9-.23,3.07-.82,3.53-1.76q2.25-4.6-18.35-20.35-2.44,3.27-4.88,6.56l-4.6-6.77c-16.78,15-19.45,19.4-18.64,20.56l3.53,1.76h0c-11.87,16.48-.74,17.67-.74,17.67-4.9,8.46,3.86,10.24,3.86,10.24-2.38,9.35,6.48,8.36,6.48,8.36a14.74,14.74,0,0,0,5.61,7.1A14,14,0,0,0,88,163.7,12.74,12.74,0,0,0,93.14,162a13.33,13.33,0,0,0,5.61-7.1s8.86,1,6.49-8.36c0,0,8.75-1.78,3.85-10.24C109.09,136.29,120.23,135.1,108.35,118.62Z"/><path class="cls-9" d="M59.7,214.52v3.21l4.14-2.79-.21-3.35Z"/><path class="cls-10" d="M46.54,214l12.75,3.7v-4l-12.8-3.6Z"/><path class="cls-9" d="M66,209.81V213l4.13-2.79c-.06-1.12-.13-2.24-.2-3.36Z"/><path class="cls-10" d="M61.19,211.54,65.58,213v-4l-4.45-.81Z"/><path class="cls-9" d="M44.35,200.19A15.74,15.74,0,0,1,51,201a16.44,16.44,0,0,1,8.66,7.36l5.75-3a13.19,13.19,0,0,0-2.52-4.57c-4.27-5-11-4.86-12.1-4.82a26.42,26.42,0,0,0-5,3.1C45.26,199.4,44.79,199.79,44.35,200.19Z"/><path class="cls-9" d="M40.35,202.77a11.07,11.07,0,0,0,3.59,5.81c2.94,2.44,6.5,2.49,9.27,2.52a21.93,21.93,0,0,0,6-.75l11.26-8-.12,3.93L59.7,214a28.66,28.66,0,0,1-5.56.91,16.81,16.81,0,0,1-6.69-.49,13,13,0,0,1-6.39-5C40.82,207.19,40.59,205,40.35,202.77Z"/><path class="cls-9" d="M59.7,214c-.16-1.21-.33-2.41-.49-3.62"/><path class="cls-11" d="M121.77,214.37v3.2l-4.13-2.79c.07-1.12.13-2.23.2-3.35Z"/><path class="cls-10" d="M134.94,213.88l-12.76,3.69v-4L135,210Z"/><path class="cls-11" d="M115,210.22v3.21l-4.13-2.79c.06-1.12.13-2.24.2-3.35Z"/><path class="cls-10" d="M119.8,212l-4.39,1.48v-4l4.46-.82Z"/><path class="cls-11" d="M138.15,200.1a16.87,16.87,0,0,0-7.06,1.49,17.76,17.76,0,0,0-8.61,8.77l-6.5-2.7a14.28,14.28,0,0,1,2.27-5.17c4.12-5.81,11.36-6.31,12.57-6.38a28.81,28.81,0,0,1,5.7,2.85C137.1,199.34,137.64,199.72,138.15,200.1Z"/><path class="cls-11" d="M140.17,202.56a11.14,11.14,0,0,1-3.58,5.81c-3,2.44-6.51,2.49-9.28,2.53a22.33,22.33,0,0,1-6-.75l-11.25-8c0,1.31.07,2.62.11,3.93l10.65,7.68a27.9,27.9,0,0,0,5.57.91,16.59,16.59,0,0,0,6.68-.49,13,13,0,0,0,6.39-5C139.7,207,139.93,204.77,140.17,202.56Z"/><path class="cls-11" d="M120.82,213.76c.16-1.21.33-2.41.49-3.61"/><path class="cls-12" d="M37,90.27a113.74,113.74,0,0,1-14.69-.41,112.37,112.37,0,0,1-19-3.44,102.48,102.48,0,0,1,10-4.46,104.72,104.72,0,0,1,29.84-6.59Z"/><path class="cls-13" d="M139,85.75A122.63,122.63,0,0,0,153.13,84a76.92,76.92,0,0,0,11.61-2.9,68.9,68.9,0,0,0,6.53-2.6c-.67-.24-1.75-.63-3.1-1C162,75.48,157,74.87,145.43,73.86c-4.49-.4-8.5-.72-11.93-1Q136.23,79.32,139,85.75Z"/><path class="cls-14" d="M85.46,2.35A306.52,306.52,0,0,0,64.52,35.21c-6.24,11.3-6.82,14-6.31,16.46,3.25,15.72,49.88,18.17,63,18.66-21.86-.24-40.13.27-53.93.89-14.18.64-22.84,1.35-33.37,3.43a179.64,179.64,0,0,0-28.31,8Q34.35,54.15,63.16,25,74.35,13.67,85.46,2.35Z"/><path class="cls-15" d="M90.34,7.93l74.28,64.94s-74-55.76-75.17-62.72"/><path class="cls-16" d="M4.19,162.16a154.22,154.22,0,0,1,28.89-39.31l-.22-4.3c-6.22,6.66-11.27,12.6-15.17,17.42,0,0-7.23,8.93-10.28,15.46-.38.8-.78,1.88-2,4.51a13.92,13.92,0,0,0-.9,2.24A10.43,10.43,0,0,0,4.19,162.16Z"/><path class="cls-16" d="M174,162.31A152.76,152.76,0,0,0,164.26,146a153.69,153.69,0,0,0-19.16-23l.21-4.3c6.23,6.65,11.27,12.59,15.18,17.41,0,0,7.22,8.94,10.28,15.47.37.79.78,1.87,2,4.5a14.45,14.45,0,0,1,.91,2.24A10.23,10.23,0,0,1,174,162.31Z"/><path class="cls-17" d="M22.9,162.16s9.65-11,10.18-16,0,9.83,0,9.83Z"/><path class="cls-17" d="M156.88,162.67s-10.29-10.43-11.11-15.41.58,9.81.58,9.81Z"/><path class="cls-18" d="M33.08,116.12S67.69,71,139,85.75L133.5,72.87s-51.76-4.06-89.12,1.58C44.38,74.45,32.92,99.6,33.08,116.12Z"/><path class="cls-19" d="M40.35,151.87a84.4,84.4,0,0,0,23.77,23.57c25.55,16.69,52.56,14,61,12.79a49.67,49.67,0,0,1-10.46,6.38c-18.73,8.47-47.69,7.31-63.5-11.49C41.66,171.85,40.44,158.43,40.35,151.87Z"/><path class="cls-16" d="M95.32,94.57s27.54,12.84,27.61,19C122.93,113.53,130.09,107.38,95.32,94.57Z"/><path class="cls-20" d="M94.41,95.8a75.63,75.63,0,0,1,21.25,19.1,6,6,0,0,1-1.94-.19,7.53,7.53,0,0,1-1.66-.77l-.94-1.63c-1.92-3.31-8.71-9.13-8.71-9.13-1.74-1.49-3.44-2.86-6-4.94-1-.79-1.77-1.43-2.31-1.85Z"/><path class="cls-21" d="M83.14,95.8a80.13,80.13,0,0,0-21.21,19.43,1.8,1.8,0,0,0,.81.39,2.54,2.54,0,0,0,1.23-.2c.35-.1.79-.24,1.3-.44A42.2,42.2,0,0,1,68,111.29c1.77-2.16,2.48-2.59,6-6.08s4.35-4.53,7.17-6.95c1-.81,1.75-1.45,2.29-1.88Z"/><path class="cls-16" d="M92.2,98.88a31.58,31.58,0,0,1,6.43,4.65,32.25,32.25,0,0,1,7,9.56,3.42,3.42,0,0,1-1.93,4.36s8.94,6.44,7.87,14.6c0,0,.09,1.62-5.09,2.55,0,0,4.65,8.1-2.52,10.23,0,0,1.73,10.88-6.37,7.83,0,0-1.11,11.16-14.12,6.66.31.31,4.4,4.19,8.38,2.91a9.29,9.29,0,0,0,3.93-3.06,14.6,14.6,0,0,0,2.75-4.63c.29.05,3.36.61,5.31-1.4a5.66,5.66,0,0,0,1.39-3,6.73,6.73,0,0,0-.46-3.86c.4-.08,4.07-.88,5.16-3.79a5.71,5.71,0,0,0,.31-2.22,7.06,7.06,0,0,0-1.78-4.29,6.12,6.12,0,0,0,4.43-2.54c.61-1,.81-2.29.32-4.66a23.61,23.61,0,0,0-5.52-10.55c2.29,0,3.67-.5,4.16-1.45Q114,112.73,93.61,97Z"/><path class="cls-22" d="M41.56,202.63a15.77,15.77,0,0,0,3,2.57,17.61,17.61,0,0,0,12,2.35l1.38-1,1.29,1.92-.37.27-1.28.33a22.31,22.31,0,0,1-5.81.52c-2.07-.11-5.31-.28-7.81-2.31A6.45,6.45,0,0,1,42,204.66,6.17,6.17,0,0,1,41.56,202.63Z"/><path class="cls-22" d="M139.26,202.67a15.84,15.84,0,0,1-3,2.58,17.74,17.74,0,0,1-11.79,2.45h0c-.29.46-.58.93-.88,1.39h0c4.17.91,5.43.59,5.43.59h0c2.06-.1,5.3-.28,7.8-2.31a6.47,6.47,0,0,0,2.07-2.66A6,6,0,0,0,139.26,202.67Z"/><line class="cls-23" x1="135.25" y1="201.14" x2="138.46" y2="202.95"/><line class="cls-23" x1="45.32" y1="200.9" x2="42.32" y2="203.05"/><line class="cls-23" x1="136.23" y1="194.41" x2="136.27" y2="194.45"/></g></g></svg>