<svg xmlns="http://www.w3.org/2000/svg" viewBox="0 0 190.32 204.35"><defs><style>.cls-1{fill:#f26522;}.cls-1,.cls-10,.cls-11,.cls-12,.cls-13,.cls-14,.cls-15,.cls-16,.cls-18,.cls-2,.cls-5,.cls-6,.cls-7,.cls-8,.cls-9{stroke:#231f20;}.cls-1,.cls-10,.cls-11,.cls-12,.cls-13,.cls-14,.cls-15,.cls-16,.cls-18,.cls-2,.cls-3,.cls-35,.cls-4,.cls-5,.cls-6,.cls-7,.cls-8,.cls-9{stroke-miterlimit:10;}.cls-13,.cls-2{fill:#231f20;}.cls-11,.cls-3{fill:#fff;}.cls-3{stroke:#fff;}.cls-4{fill:#ffde17;stroke:#f7941d;}.cls-33,.cls-5{fill:#f15a29;}.cls-22,.cls-30,.cls-6,.cls-9{fill:#27aae1;}.cls-10,.cls-6{stroke-width:0.75px;}.cls-7{fill:#da1c5c;}.cls-19,.cls-25,.cls-27,.cls-8{fill:#1c75bc;}.cls-10,.cls-35{fill:none;}.cls-12,.cls-32{fill:#fbb040;}.cls-13,.cls-14,.cls-15,.cls-16,.cls-18{stroke-width:0.5px;}.cls-14{fill:#414042;}.cls-15{fill:#6d6e71;}.cls-16{fill:#be1e2d;}.cls-17{fill:#fff33e;}.cls-17,.cls-29{opacity:0.54;}.cls-18{fill:#a97c50;}.cls-19,.cls-20,.cls-23{opacity:0.76;}.cls-20,.cls-21{fill:#00a79d;}.cls-21{opacity:0.8;}.cls-22{opacity:0.27;}.cls-23{fill:#9e1f63;}.cls-24{fill:#738aba;opacity:0.2;}.cls-25{opacity:0.6;}.cls-26,.cls-29{fill:#8dc63f;}.cls-26{opacity:0.33;}.cls-27{opacity:0.47;}.cls-28{fill:#d7df23;opacity:0.38;}.cls-30{opacity:0.62;}.cls-31{fill:#ef4136;}.cls-34{fill:#939598;}.cls-35{stroke:#939598;stroke-width:0.25px;}.cls-36{fill:#f7941d;}</style></defs><g id="Layer_2" data-name="Layer 2"><g id="shading"><path class="cls-1" d="M66.61,147.15,54.43,155s-.16,10.56,17.39,6.82l12.9-9.14"/><path class="cls-1" d="M135.65,147.15q6.07,3.91,12.17,7.81s.16,10.56-17.38,6.82l-12.91-9.14"/><path class="cls-2" d="M153.65,85.06c.25,4.4.39,8.8.47,13.2.22,11.33,0,23.11-5,33.29-4.43,9.1-12.45,16.22-21.65,20.43s-19.54,5.63-29.65,5c-17.37-1-35.28-8.86-44-23.91-5.58-9.6-6.92-21-7.37-32.13-.85-20.92,1.28-42.66,10-61.92C64.65,21,80.33,2,102.19,3.58c11.85.83,22.53,8,30.23,17C141.31,31.05,146.84,44,150,57.4A162.89,162.89,0,0,1,153.65,85.06Z"/><path class="cls-2" d="M47.11,75.43C42.28,80.55,38.45,85,35.7,88.22c-1.23,1.46-3.85,4.6-7,8.82a55.55,55.55,0,0,0-8.07,13.65c-2,5-1.5,6.55-.95,7.38.28.43,1.5,2.08,7,2.07A31.76,31.76,0,0,0,43,115.28q2.1-1.94,4.22-3.85"/><path class="cls-2" d="M152.54,75.24C157.36,80.35,161.2,84.76,164,88c1.23,1.46,3.85,4.6,7,8.82a55.09,55.09,0,0,1,8.08,13.65c2,5,1.49,6.55.95,7.38-.28.43-1.5,2.08-7,2.07a31.77,31.77,0,0,1-16.35-4.87l-2.81-2.55"/><path class="cls-3" d="M141.26,128.59c4-9.61,4.37-17.7,4.67-26.34A140.32,140.32,0,0,0,144.38,77c-2.22-16.82-5.82-25.8-6.73-28-2.2-5.34-9.25-22.45-17-22-1.39.08-4.25,2.31-9.9,6.77-7.06,5.56-7.77,6.72-10,6.83-1.34.07-3-.25-12.12-7.35-6.91-5.39-7-6-8.43-6.18C69.31,25.94,63.66,45.79,61.06,52.77c-4.38,11.74-5,20.91-5.87,33.36-1.24,18.69-1.95,32.24,6.16,45.47a37.88,37.88,0,0,0,9,10.39c9.16,7.08,20,8.16,25.38,8.7a64.51,64.51,0,0,0,12.9,0c5-.32,18.15-1.8,26.53-11.32C138.19,135.93,139.57,132.63,141.26,128.59Z"/><ellipse class="cls-2" cx="121.04" cy="47.29" rx="3.51" ry="5.54"/><path class="cls-4" d="M93.19,50.93h12.55l-6,9.25Z"/><ellipse class="cls-2" cx="77.89" cy="47.29" rx="3.51" ry="5.54"/><path class="cls-5" d="M116.88,203.77l1.62-23.44S9.41,173.8,4.88,154.46c0,0-16.31,20.1,14.67,32.77Z"/><path class="cls-6" d="M51.34,133.93v7.29s47.25,27.65,97.76,0v-7.29S99.18,156.35,51.34,133.93Z"/><line class="cls-6" x1="56.23" y1="136.07" x2="56.39" y2="144.09"/><line class="cls-6" x1="66.11" y1="139.23" x2="66.26" y2="147.25"/><line class="cls-6" x1="76.05" y1="142.33" x2="76.2" y2="150.35"/><line class="cls-6" x1="87.4" y1="143.5" x2="87.58" y2="152.6"/><line class="cls-6" x1="98.73" y1="144.23" x2="98.92" y2="153.95"/><line class="cls-6" x1="111.33" y1="143.28" x2="111.52" y2="153.06"/><line class="cls-6" x1="122.56" y1="141.85" x2="122.74" y2="151.18"/><line class="cls-6" x1="131.71" y1="139.71" x2="131.89" y2="148.68"/><line class="cls-6" x1="140.49" y1="137.24" x2="140.64" y2="145.26"/><path class="cls-7" d="M48.29,63.3c.41-2,1-4.63,1.82-7.58A101.19,101.19,0,0,1,53.86,45,106,106,0,0,1,59.5,33.29a15,15,0,0,0-11.65.07c-6.14,2.85-7.63,9.35-8.14,11.6-.37,1.61-2.1,9.16,2.72,14.56A13.53,13.53,0,0,0,48.29,63.3Z"/><path class="cls-7" d="M150.94,60.24c-.4-2.05-1-4.64-1.81-7.59a101.37,101.37,0,0,0-3.75-10.76,102.87,102.87,0,0,0-5.71-11.7,15.16,15.16,0,0,1,11.73.1c6.14,2.87,7.62,9.37,8.13,11.6.37,1.61,2.1,9.16-2.72,14.57A13.7,13.7,0,0,1,150.94,60.24Z"/><rect class="cls-8" x="49.4" y="30.77" width="9.54" height="4.74" transform="translate(86.35 87.89) rotate(-151.89)"/><rect class="cls-8" x="140.2" y="27.66" width="9.54" height="4.74" transform="translate(2.87 71.59) rotate(-28)"/><path class="cls-7" d="M53.22,29.34l5.83,3.2C60.13,31,75.15,9.83,101.66,10.43c23.65.53,37.26,17.91,38.93,20.13l5.12-4C134.77,8.72,114.84-1.34,94.65.78,67.25,3.66,54.24,27.42,53.22,29.34Z"/><path class="cls-6" d="M45.91,82l-3.06-5s-11.5,6.12-7.93,11.12l9.54,16.56Z"/><path class="cls-6" d="M44.46,104.62,34.34,87.74A20.83,20.83,0,0,0,29,91.43c-1.93,1.84-3.92,3.74-4,6.49a6.46,6.46,0,0,0,.82,3.26,50.53,50.53,0,0,0,5.27,8.9,51.3,51.3,0,0,0,12.7,12.06Z"/><path class="cls-6" d="M41.42,120.88A48,48,0,0,1,25.18,99.79a10.48,10.48,0,0,0-2.81,1.52c-.91.68-3,2.26-3.19,4.58a4.79,4.79,0,0,0,.46,2.42A75.65,75.65,0,0,0,23.15,115c3.33,4.7,5.13,7.23,8.65,9.3a20.56,20.56,0,0,0,3.08,1.46,8.65,8.65,0,0,0,2.77-.92A9,9,0,0,0,41.42,120.88Z"/><path class="cls-6" d="M152.93,77.91l3.06-5S167.48,79,163.92,84l-9.54,16.56Z"/><path class="cls-6" d="M154.38,100.54q5.06-8.43,10.12-16.87a21.48,21.48,0,0,1,5.3,3.68c1.92,1.84,3.92,3.75,4,6.49a6.61,6.61,0,0,1-.82,3.27,50.87,50.87,0,0,1-18,21Q154.7,109.31,154.38,100.54Z"/><path class="cls-6" d="M157.42,116.8a47.67,47.67,0,0,0,9-8.62,48.17,48.17,0,0,0,7.24-12.47,10.48,10.48,0,0,1,2.81,1.52c.9.69,3,2.27,3.19,4.59a4.78,4.78,0,0,1-.47,2.42,71.6,71.6,0,0,1-3.5,6.72c-3.33,4.7-5.13,7.24-8.65,9.31a21,21,0,0,1-3.08,1.46,8.56,8.56,0,0,1-2.77-.93A8.91,8.91,0,0,1,157.42,116.8Z"/><path class="cls-9" d="M154.51,97.25s5.23-15.74,1.55-21S99.87,89.38,99.87,89.38l-.4-.12-.41.12S46.55,70.88,42.87,76.2s1.55,21,1.55,21c-3.61,6.59.21,16.19.21,16.19C40,130.7,48.4,135.92,48.4,135.92c15.22,9.4,33.63,12.9,51.07,13.31,17.43-.41,35.84-3.91,51.06-13.31,0,0,8.44-5.22,3.77-22.48C154.3,113.44,158.12,103.84,154.51,97.25Z"/><path class="cls-10" d="M115.29,107.57s31-1.45,39.49-11.21"/><path class="cls-10" d="M83.89,107.57s-31-1.45-39.49-11.21"/><path class="cls-10" d="M115.29,123.44s31-1.44,39.49-11.2"/><path class="cls-10" d="M83.89,124s-31-1.45-39.49-11.21"/><path class="cls-11" d="M158.91,57.93A10,10,0,0,0,147,63.83a10.06,10.06,0,0,0-15.89,5.26,10.61,10.61,0,0,0-.35,3,9.84,9.84,0,0,0-4-2.18,10,10,0,0,0-12.34,7,9.52,9.52,0,0,0-.29,1.65,9.75,9.75,0,0,0-2-.76,10,10,0,0,0-7.1.69c-3.06-2.27-7.8-3-12.54-1.53a16.85,16.85,0,0,0-4.88,2.41,10.21,10.21,0,0,0-.41-2.29,10,10,0,0,0-16.5-4.33,10.05,10.05,0,0,0-16.49-7.77A10,10,0,1,0,41,78.33a9,9,0,0,0-.8,7c1.63,5.3,8.2,8,14.67,6a14.44,14.44,0,0,0,5.34-3,8,8,0,0,0,.27,1.27c1.64,5.3,8.48,7.89,15.28,5.79a15.16,15.16,0,0,0,7.13-4.57c1.77,5.13,8.63,7.58,15.49,5.46q.69-.21,1.35-.48a7.37,7.37,0,0,0,1.52,1.68,7.21,7.21,0,0,0,.72,12.41,7.16,7.16,0,0,0-.87,11.63,7.19,7.19,0,0,0,.86,12.28c-.37.24-3.75,2.5-3.91,6.4-.16,4.21,3.53,7.64,7.08,8.16a7.44,7.44,0,0,0,3.19-.27l.06-50.5a10,10,0,0,0,10.68-7.08,15.19,15.19,0,0,0,7.27,4.35c6.86,1.87,13.62-.94,15.08-6.29a7.07,7.07,0,0,0,.23-1.27,14.31,14.31,0,0,0,5.44,2.82c6.53,1.79,13-1.1,14.47-6.45a9,9,0,0,0-1-6.93,10,10,0,0,0-1.65-18.75Z"/><path class="cls-12" d="M116.79,198.9l1.62-23.44S9.32,168.93,4.79,149.59c0,0-16.31,20.1,14.67,32.77Z"/><path class="cls-13" d="M174.24,150.91l7.77,9q3.86-4.56,7.72-9.1a4.37,4.37,0,0,1-1.53,1.3,6.61,6.61,0,0,1-2.71.36,59.5,59.5,0,0,1-6.23.19,10,10,0,0,1-2.26-.17A6.35,6.35,0,0,1,174.24,150.91Z"/><ellipse class="cls-14" cx="181.95" cy="149.56" rx="8.12" ry="4.33"/><rect class="cls-15" x="180.79" y="94.14" width="2.32" height="55.41"/><rect class="cls-16" x="178.37" y="76.92" width="7.17" height="19.54" rx="2.51"/><path class="cls-17" d="M4.06,151.92a26.55,26.55,0,0,0,5.23,8c5.75,6,12.92,7.49,22.75,9.43,24.7,4.88,26.6,5.08,26.6,5.08,17.42,1.83,36.44,3.92,58.3,6.26l.18-4c-13.88-1.4-27.82-2.83-48.1-4.93a298.45,298.45,0,0,1-50.21-10.33,31.45,31.45,0,0,1-5.89-2.44A32.77,32.77,0,0,1,4.06,151.92Z"/><path class="cls-18" d="M60.59,169.09a13,13,0,0,0-4.85,4.19c-4.22,6.13-1.14,13.68-.83,14.4l-7.06-1.29a14.34,14.34,0,0,1-1.23-5.17c-.33-7.44,5.5-12.55,6.5-13.4a13.43,13.43,0,0,1,5.21.41A13.22,13.22,0,0,1,60.59,169.09Z"/><path class="cls-18" d="M79.85,172.14A13,13,0,0,0,75,176.33c-4.21,6.13-1.13,13.68-.83,14.4l-7.06-1.29a14.34,14.34,0,0,1-1.23-5.17c-.33-7.44,5.51-12.55,6.51-13.41a13.62,13.62,0,0,1,5.2.42A12.91,12.91,0,0,1,79.85,172.14Z"/><path class="cls-19" d="M42.45,58.69a30.19,30.19,0,0,1-1.08-9.8,20.65,20.65,0,0,1,1.68-8.06,18.52,18.52,0,0,1,5.76-7.07,13.39,13.39,0,0,0-4.27,2.71,15,15,0,0,0-3.93,7.25,17.86,17.86,0,0,0-.54,9.54A16.64,16.64,0,0,0,42.45,58.69Z"/><path class="cls-20" d="M156.71,55.78a30.47,30.47,0,0,0,1.08-9.8,20.83,20.83,0,0,0-1.68-8.06,18.52,18.52,0,0,0-5.76-7.07,13.39,13.39,0,0,1,4.27,2.71,15,15,0,0,1,3.93,7.25,17.87,17.87,0,0,1,.54,9.54A16.64,16.64,0,0,1,156.71,55.78Z"/><path class="cls-21" d="M142.47,27.89s-15.11-29-46.9-26.25c0,0,27.37-5.66,49.11,24.59Z"/><path class="cls-22" d="M132.48,23.13a131.36,131.36,0,0,1,8.91,15.54c4.75,9.77,5.43,14.26,5.62,17.14a33.45,33.45,0,0,1-.26,6.91c1.58-2.3,2.42-3.54,2.42-3.54h0l.18-3.14c.25-4.87-5.68-16.94-5.68-16.94-3.65-7.43-5.68-10-6.35-10.86A42.94,42.94,0,0,0,132.48,23.13Z"/><path class="cls-23" d="M58.89,31.33A58.24,58.24,0,0,1,73.27,18.22a52.29,52.29,0,0,1,12.53-6,50.93,50.93,0,0,1,55,17.38c-2.81-4.23-10-13.87-22.24-18.91a51.32,51.32,0,0,0-13.36-3.39A41.85,41.85,0,0,0,85.54,9.35a50.81,50.81,0,0,0-13.72,6.71A42.76,42.76,0,0,0,58.89,31.33Z"/><path class="cls-24" d="M45.84,59.23a22.75,22.75,0,0,0,3.25,13.13c4,6.33,10.62,8.38,21.13,11.5,2.29.68,10.58,3,26.83,4.41,8.9.75,16.34.89,21.63.86a9.77,9.77,0,0,1-2.38,4.76,10.36,10.36,0,0,1-3.09,2.22c-3.83,2-7.72,2-9.57,1.42a9.53,9.53,0,0,1-2-.88c-.8-.5-.91-.79-1.37-1-1-.41-2.07.4-3.11.87-2.91,1.31-6.21.13-8.3-.61a8.51,8.51,0,0,1-3.47-1.84c-1.51-1.47-1.58-3-2.54-3.09-.8-.07-1,.95-2.81,2.28A12.49,12.49,0,0,1,77,94.91,15.92,15.92,0,0,1,72.49,96a13.23,13.23,0,0,1-6-.7,8.28,8.28,0,0,1-4.13-2.65c-1.58-2.14-1.13-4.58-2-4.7-.54-.07-.7.93-2,2s-2.45,1.2-4.35,1.55a15.42,15.42,0,0,1-4,.24,14.09,14.09,0,0,1-3.23-.63,10.54,10.54,0,0,1-4.2-2.25,6.78,6.78,0,0,1-2.33-3.35c-.35-1.34-.08-2.62.39-4.82.37-1.75.54-1.62.46-2.09-.29-1.86-2.62-2-4.37-4.7a8,8,0,0,1-1-2.22,8.48,8.48,0,0,1,.15-4.25,10.89,10.89,0,0,1,2-4.68C40.72,59.29,45.14,59.22,45.84,59.23Z"/><path class="cls-25" d="M43.41,90.55q.66,2.67,1.33,5.35a23.44,23.44,0,0,0,3.15,2.84c2.33,1.75,5.11,3.17,12.71,5a101.27,101.27,0,0,0,16,2.72c3.93.33,7.26.39,9.74.36a69.76,69.76,0,0,1-18.32-3A70.39,70.39,0,0,1,43.41,90.55Z"/><path class="cls-26" d="M155.22,90.55c-.44,1.78-.89,3.56-1.33,5.35a24.29,24.29,0,0,1-3.16,2.84c-2.32,1.75-5.1,3.17-12.71,5a100.85,100.85,0,0,1-16,2.72c-3.92.33-7.26.39-9.74.36a69.76,69.76,0,0,0,18.33-3A70.39,70.39,0,0,0,155.22,90.55Z"/><path class="cls-25" d="M43.76,107.11c.11.84.28,1.76.51,2.74a28.67,28.67,0,0,0,.93,3.08A27.87,27.87,0,0,0,47.89,115c3.9,2.65,7.41,3.72,12.71,5,2.44.58,5.41,1.29,9.13,1.88,1.9.3,3.56.47,6.86.83a73.4,73.4,0,0,0,8,.71c0-.23-8.55-1-16.54-3.31A68.37,68.37,0,0,1,43.76,107.11Z"/><path class="cls-25" d="M44,123.83a19.82,19.82,0,0,0,1.19,6.34,18.68,18.68,0,0,0,1.12,2.48,23.19,23.19,0,0,0,2.9,3c.83.71,3.47,2.88,12.8,6.15.89.31,4.2,1.46,8.67,2.68,3.16.86,5.46,1.37,7.1,1.73a67,67,0,0,0,10.35,1.44h.72s-17-4.15-19.48-5.07a57.75,57.75,0,0,1-10.15-4.65A50.79,50.79,0,0,1,44,123.83Z"/><path class="cls-25" d="M51.86,138.68l0,2.18h0a96.56,96.56,0,0,0,17,7.24c3.76,1.16,9.38,2.54,9.38,2.54h0s5.19.88,8.85,1.36c4.62.62,11.17,1.19,11.23.79s-9.85-1.88-21.2-5A161.52,161.52,0,0,1,51.86,138.68Z"/><path class="cls-27" d="M34.23,125a27.82,27.82,0,0,0,3.45-5c1-1.85,3.21-6.5,3.79-21.14.09-2.35.18-5.73.09-9.84l2.16,8.28a21.78,21.78,0,0,0-1.35,5.94,21.34,21.34,0,0,0,.25,5.63A20,20,0,0,0,44,113.26L42.24,121l-.82-.61S37.73,126.25,34.23,125Z"/><path class="cls-27" d="M168.34,118.64a9.58,9.58,0,0,1-4.06-1.66c-1.58-1.16-2.6-2.73-3.76-5.79a47.09,47.09,0,0,1-2.65-11.54,88.22,88.22,0,0,1-.61-9.93l-2,7.61a19,19,0,0,1,1.5,5.94,20.39,20.39,0,0,1-.21,4.93,23,23,0,0,1-1.29,4.77l.53,3.85,1.4-1a19,19,0,0,0,3.66,3.89c1.39,1.1,2.19,1.4,3,1.32a4.44,4.44,0,0,0,1.7-.74C166.21,119.9,167.19,119.34,168.34,118.64Z"/><path class="cls-28" d="M140.55,140.37s18.53-11,11.27-25.59c0,0,3.2-12.39-.07-15.82l1.76-1.34s4.09,5.59.33,14.91l-.14,1.59S162.69,132.34,140.55,140.37Z"/><path class="cls-29" d="M164,85.7a16.39,16.39,0,0,1,2.62,1.56,17.87,17.87,0,0,1,6.4,9.85,6.18,6.18,0,0,1,2.74,1.26s1.16.95,3,5.39h0a4.2,4.2,0,0,0,.29-1.21,5.43,5.43,0,0,0-1.56-3.85,7.64,7.64,0,0,0-3.65-2.34l-.66-.65a10.53,10.53,0,0,0-.48-2.88,12.29,12.29,0,0,0-4.94-6.3,14.72,14.72,0,0,0-3.12-1.68"/><path class="cls-29" d="M34.75,89.82a15.68,15.68,0,0,0-2.62,1.56,17.88,17.88,0,0,0-6.4,9.84A6.12,6.12,0,0,0,23,102.49s-1.16,1-3,5.38h0a3.82,3.82,0,0,1-.29-1.2,5.46,5.46,0,0,1,1.56-3.86,7.44,7.44,0,0,1,3.65-2.33l.66-.65A10.9,10.9,0,0,1,26,96.94,12.32,12.32,0,0,1,31,90.65,15.29,15.29,0,0,1,34.1,89"/><path class="cls-30" d="M163.81,72.48a9.87,9.87,0,0,0-2.33-10.33c-3.75-3.67-8.85-2.53-9.17-2.45a8.88,8.88,0,0,1,11.5,12.78Z"/><path class="cls-30" d="M147,66.05a8.16,8.16,0,0,0-8.58-1.68,8.55,8.55,0,0,0-4.89,6.12,7.49,7.49,0,0,1,4.3-7.17A7.57,7.57,0,0,1,147,66.05Z"/><path class="cls-30" d="M152.25,88.58a8.13,8.13,0,0,0,7.06-5.14,8.53,8.53,0,0,0-1.15-7.75,7.32,7.32,0,0,1-5.91,12.89Z"/><path class="cls-31" d="M78.52,153.85l-7.77,6a15.52,15.52,0,0,1-10.88-.33,13.59,13.59,0,0,1-3-1.81l-2.2-2.38a5.73,5.73,0,0,0,.62,2.86c1.93,3.55,8.3,4.75,15.83,2.89l9.21-6.6Z"/><path class="cls-31" d="M123.11,154.3l7.55,5.59a15.49,15.49,0,0,0,10.87-.33,13.35,13.35,0,0,0,3-1.81l2.07-2.46a5.27,5.27,0,0,1-.49,2.94c-1.77,3.49-8.15,4.73-15.82,2.89l-8.88-6.24Z"/><path class="cls-32" d="M55.75,155.18l10.1-6.43,1.36.11L59,154.16Z"/><path class="cls-32" d="M145.84,155.14l-10.11-6.43-1.36.11,8.18,5.3Z"/><path class="cls-33" d="M180.18,77.71a4.46,4.46,0,0,1,2.9,1.06c.7.64,1.08,1.51,1.21,9.45a17.21,17.21,0,0,1-.2,3.89c-.3,1.59-1,3.6-.93,3.62h0a3.54,3.54,0,0,0,1.35-1,3.63,3.63,0,0,0,.59-1.38c-.08-4.09.05-7.59.05-7.59,0-1.27,0-2.55,0-3.82a5.34,5.34,0,0,0-.44-3.1,3.34,3.34,0,0,0-1.32-1.28A3.79,3.79,0,0,0,180.18,77.71Z"/><path class="cls-34" d="M184.45,145.9a3.86,3.86,0,0,1,3.27,3.11,4,4,0,0,1-3.92,4.16,6.56,6.56,0,0,0,4.74-2,2.9,2.9,0,0,0,.93-2.17c-.15-1.12-1.35-1.78-2.23-2.26A7.39,7.39,0,0,0,184.45,145.9Z"/><line class="cls-35" x1="182.67" y1="96.73" x2="182.7" y2="149.23"/><path class="cls-36" d="M79.58,172.6a21.54,21.54,0,0,0-4.85,18.48c-.38-.7-3.46-6.58-.62-12.62A13.41,13.41,0,0,1,79.58,172.6Z"/><path class="cls-36" d="M60,169.94a21.25,21.25,0,0,0-3.86,7.18A22.42,22.42,0,0,0,55.5,188c-.35-.67-3.18-6.41-.58-12.3A12.82,12.82,0,0,1,60,169.94Z"/></g></g></svg>