<svg xmlns="http://www.w3.org/2000/svg" viewBox="0 0 206.61 219.65"><defs><style>.cls-1{isolation:isolate;}.cls-2{fill:#f26522;}.cls-10,.cls-11,.cls-2,.cls-3,.cls-6,.cls-7,.cls-8{stroke:#231f20;}.cls-10,.cls-11,.cls-12,.cls-2,.cls-3,.cls-4,.cls-5,.cls-6,.cls-7,.cls-8{stroke-miterlimit:10;}.cls-3{fill:#231f20;}.cls-4{fill:#fff;stroke:#fff;}.cls-5{fill:#ffde17;stroke:#f7941d;}.cls-6{fill:#f1f2f2;}.cls-7{fill:#9e1f63;}.cls-12,.cls-8{fill:none;}.cls-8{stroke-width:0.5px;}.cls-9{fill:#e5ecef;}.cls-10,.cls-20,.cls-23{fill:#006838;}.cls-11{fill:#009444;}.cls-12{stroke:#8dc63f;}.cls-13,.cls-28{fill:#00a79d;}.cls-13{mix-blend-mode:hard-light;opacity:0.3;}.cls-14{fill:#ef4136;}.cls-15{fill:#fbb040;}.cls-16{fill:#738aba;}.cls-16,.cls-24{opacity:0.2;}.cls-17,.cls-18,.cls-19{fill:#8cc6ec;}.cls-17{opacity:0.79;}.cls-18{opacity:0.77;}.cls-19{opacity:0.53;}.cls-20{opacity:0.66;}.cls-21,.cls-22{fill:#39b54a;}.cls-22{opacity:0.45;}.cls-24{fill:#2b3990;}.cls-25,.cls-26{fill:#ec008c;}.cls-25{opacity:0.75;}.cls-26{opacity:0.65;}.cls-27{fill:#262262;opacity:0.55;}.cls-28{opacity:0.27;}</style></defs><g class="cls-1"><g id="Layer_2" data-name="Layer 2"><g id="shading"><path class="cls-2" d="M76.48,203.77l-12.14,7.78s-.16,10.52,17.33,6.8l12.86-9.11"/><path class="cls-2" d="M133.07,203.77l12.13,7.78s.17,10.52-17.32,6.8L115,209.24"/><path class="cls-3" d="M154.79,140.36c.25,4.38.39,8.77.48,13.15.21,11.3,0,23-5,33.18-4.42,9.07-12.41,16.17-21.58,20.36s-19.48,5.62-29.55,5c-17.31-1-35.17-8.84-43.88-23.83-5.56-9.57-6.9-21-7.35-32-.85-20.86,1.28-42.53,10-61.72,8.16-18,23.78-36.9,45.57-35.37,11.81.83,22.46,8,30.14,17,8.86,10.41,14.37,23.35,17.47,36.67A161.69,161.69,0,0,1,154.79,140.36Z"/><path class="cls-3" d="M48.6,130.76c-4.81,5.1-8.63,9.49-11.37,12.74-1.23,1.46-3.84,4.59-7,8.8a54.87,54.87,0,0,0-8,13.6c-2,5-1.49,6.53-1,7.36.28.42,1.49,2.07,7,2.06a31.61,31.61,0,0,0,16.3-4.85l4.22-3.83"/><path class="cls-3" d="M153.68,130.57c4.81,5.1,8.64,9.49,11.38,12.74,1.23,1.46,3.84,4.59,7,8.8a54.87,54.87,0,0,1,8.05,13.6c1.95,5,1.49,6.53.95,7.36-.28.42-1.5,2.07-7,2.06a31.63,31.63,0,0,1-16.3-4.85L155,167.74"/><path class="cls-4" d="M142.44,183.75c4-9.58,4.36-17.65,4.66-26.26a139.42,139.42,0,0,0-1.55-25.21c-2.21-16.77-5.79-25.71-6.71-27.93C136.65,99,129.62,82,121.9,82.42c-1.38.08-4.23,2.31-9.87,6.75-7,5.55-7.74,6.7-10,6.81-1.34.07-3-.25-12.08-7.33-6.89-5.37-7-6-8.41-6.16-10.84-1.06-16.47,18.72-19.06,25.68-4.36,11.7-5,20.85-5.85,33.25-1.24,18.63-1.95,32.13,6.14,45.33a38.1,38.1,0,0,0,9,10.35c9.14,7.06,19.9,8.13,25.3,8.67a64.1,64.1,0,0,0,12.86,0c5-.32,18.09-1.8,26.45-11.29C139.39,191.06,140.76,187.77,142.44,183.75Z"/><ellipse class="cls-3" cx="122.29" cy="102.71" rx="3.49" ry="5.52"/><path class="cls-5" d="M94.53,106.33H107l-5.94,9.23Z"/><ellipse class="cls-3" cx="79.28" cy="102.71" rx="3.49" ry="5.52"/><path class="cls-3" d="M94.68,60.42a9.16,9.16,0,0,1,.77-8.23,8.75,8.75,0,0,1,8.47-3.67c-.4.22-3.66,2-4.09,5.62a6.78,6.78,0,0,0,.47,3.37,5,5,0,0,1,3.58-3.9,5.14,5.14,0,0,1,4.28.88c-1.24,1.77-2.49,3.53-3.74,5.3"/><path class="cls-6" d="M125.3,21.88a9.31,9.31,0,0,0-6-7.3c-.09-4.5-2.08-8.41-5.66-10.11s-7.75-.82-11.27,1.86C98.81,1.72,93.31-.58,88.2,1S80,7.28,79.55,12.87a10.22,10.22,0,1,0,10,17.26,11.62,11.62,0,0,0,7.76.38,10.76,10.76,0,0,0,1.78-.74A9.15,9.15,0,0,0,101,31a9.68,9.68,0,0,0,7.39.23,11.53,11.53,0,0,0,7.52,1.51C121.79,32,126,27.09,125.3,21.88Z"/><path class="cls-7" d="M98.87,25.77c-22.61,0-40.94,20.38-40.94,45.52h81.88C139.81,46.15,121.48,25.77,98.87,25.77Z"/><path class="cls-6" d="M154.9,74.35a7.21,7.21,0,0,0-6.46-7.15c0-.16,0-.31,0-.48a8.61,8.61,0,0,0-17.21,0c0,.16,0,.32,0,.47-.21,0-.42-.06-.64-.06a7.18,7.18,0,0,0-5.31,2.36,8.65,8.65,0,0,0-12.56,1.2A8.13,8.13,0,0,0,106,67a8,8,0,0,0-6.09,2.81,7,7,0,0,0-8.05.58,7.2,7.2,0,0,0-10.09-.09,7.15,7.15,0,0,0-5-2c-.11,0-.22,0-.33,0a8.08,8.08,0,0,0-7.74-5.78,7.9,7.9,0,0,0-3.63.87A9,9,0,0,0,50.8,74.53c-3.34,3.14-4.44,7.82-2.35,11.43,2.26,3.92,7.5,5.23,12.22,3.27a8.47,8.47,0,0,0,14.86.55,9.76,9.76,0,0,0,17.13.29,9.9,9.9,0,0,0,17.09.32,9,9,0,0,0,15.92-.46,7.18,7.18,0,0,0,12.16-2,7.17,7.17,0,0,0,10.63-6.33s0,0,0-.08A7.2,7.2,0,0,0,154.9,74.35Z"/><line class="cls-8" x1="131.91" y1="185.34" x2="131.91" y2="191.73"/><line class="cls-8" x1="147.12" y1="185.34" x2="147.12" y2="191.73"/><line class="cls-8" x1="150.61" y1="173.45" x2="150.61" y2="179.84"/><line class="cls-8" x1="153.25" y1="173.63" x2="153.25" y2="180.02"/><line class="cls-8" x1="156.07" y1="173.45" x2="156.07" y2="179.84"/><line class="cls-8" x1="144.57" y1="185.34" x2="144.57" y2="191.73"/><line class="cls-8" x1="142.06" y1="185.34" x2="142.06" y2="191.73"/><path class="cls-7" d="M17.58,162.54S-7.31,178.65,3,188.49s18.89.17,18.89.17A9,9,0,0,0,25,196.22c3.64,3.12,9.34-7.25,9.67-8.63l1.68-6.93Z"/><path class="cls-7" d="M35.42,179.85,18.55,164.12c-2.27-2.11-2.06-6.05.45-8.75h0c2.52-2.7,6.44-3.18,8.7-1.07L44.58,170c2.26,2.11,2.06,6-.46,8.75h0C41.6,181.48,37.69,182,35.42,179.85Z"/><path class="cls-7" d="M189,165.74s24.88,16.1,14.57,25.94-18.88.17-18.88.17a9,9,0,0,1-3.06,7.56c-3.65,3.12-9.34-7.24-9.68-8.63l-1.68-6.93Z"/><path class="cls-7" d="M171.45,182.79l16.69-15.55c2.25-2.09,2-6-.5-8.71h0c-2.52-2.71-6.41-3.21-8.65-1.12L162.29,173c-2.24,2.09-2,6,.51,8.71h0C165.32,184.38,169.21,184.88,171.45,182.79Z"/><path class="cls-9" d="M56.2,146.75c-.28,0-.29,2.36-.3,7,0,2.63,0,6.81.15,9.61.4,7.19,1,18.13,8,27.71a34.33,34.33,0,0,0,9.31,8.9c9.34,6,20.12,6.52,25.53,6.81a73,73,0,0,0,12.83-.49,52.76,52.76,0,0,0,13.42-2.92,34.7,34.7,0,0,0,8.13-4.17,31.15,31.15,0,0,0,4.48-3.91,22.67,22.67,0,0,0,2.06-2.42,34.77,34.77,0,0,0,3.62-6.42c.35-.74.62-1.35.8-1.74-2,1.58-22.62,17.69-47.61,12.39-19-4-32.74-19.18-37-33.28C57.38,156.62,56.81,146.68,56.2,146.75Z"/><rect class="cls-10" x="142.06" y="138.96" width="15.09" height="35.1"/><rect class="cls-11" x="131.33" y="138.96" width="16.76" height="46.94"/><path class="cls-11" d="M52.52,118.58a97.34,97.34,0,0,0,32.78,11.5c33.27,5.23,59.55-8.77,68.56-14.14a2.94,2.94,0,0,1,1.25,0c2.23.44,3.35,3.67,4.13,6.3a95.45,95.45,0,0,1,3.12,15l-.9.55a129.26,129.26,0,0,1-39.32,15.42s-36.52,7.76-76.81-11.8a6.51,6.51,0,0,1-2.6-2.12c-2.64-3.71,0-9.07,3.57-16.29.76-1.54,1.88-3.6,4-4.22A5,5,0,0,1,52.52,118.58Z"/><line class="cls-8" x1="137.11" y1="185.34" x2="137.11" y2="191.73"/><line class="cls-8" x1="134.51" y1="185.34" x2="134.51" y2="191.73"/><line class="cls-8" x1="139.71" y1="185.34" x2="139.71" y2="191.73"/><path class="cls-12" d="M46.71,140.74c-.49-1.78-1-3.56-1.48-5.34l4.32-1.8-2.16-4.51L50.85,127l-1.3-2.85,4.1-2.28-1.58-2.09"/><path class="cls-12" d="M56.27,145,54.8,139.3l4.32-1.8L57,133l3.46-2.07-1.3-2.86,4.11-2.28-2-1.42"/><path class="cls-12" d="M65.94,148.16c-.29-1.36-.59-2.71-.88-4.06l4.32-1.81-2.16-4.51,3.47-2.07-1.31-2.86,4.11-2.28-1.88-2.4"/><path class="cls-12" d="M79.52,151.44l-1.89-5,4.32-1.8-2.16-4.52,3.46-2.07L82,135.23,86.06,133l-2.25-1.83"/><path class="cls-12" d="M92.68,153.3c-.53-1.78-1.06-3.55-1.58-5.33l4.32-1.8-2.16-4.52,3.46-2.07-1.3-2.86,4.1-2.28-1.42-2.19"/><path class="cls-12" d="M106.78,153.74,105,148l4.32-1.8-2.16-4.52,3.46-2.07-1.3-2.86,4.11-2.28-2-3"/><path class="cls-12" d="M120.83,152.64l-2.49-4.72,4.67-2.43-2.92-4.74,4.13-2-2.59-3.91,4.87-2.92c-.65-.95-1.3-1.89-1.94-2.84"/><path class="cls-12" d="M132.87,161.46l0-4,4.38.82c.11-1.34.23-2.68.35-4l3.28.61,1.25-3.61,4.62.29,0-3.93"/><path class="cls-12" d="M132.71,173.62c0-2,0-4,.08-6l4.43,1.84-.56-5.35,4.76,1.89-.15-5.51,5.32,1.83c0-1.59.09-3.19.13-4.79"/><path class="cls-12" d="M132.87,183.52l0-4.24,4.37,1-.36-5.44,4,2q.3-2.91.59-5.82l5.25,3c0-1.35.06-2.7.08-4"/><path class="cls-12" d="M137.58,184.54h3.9c-.09-1.1-.18-2.21-.28-3.31l3.47,2c0-1.44,0-2.89,0-4.33l2.73.31"/><path class="cls-12" d="M133.87,149.37l-1.64-6.4,3.42-4-2.38-3.09,3.68-3.5-1.3-2.85,4.1-2.28-1.53-2.68"/><path class="cls-12" d="M144.69,145.54c-.88-2.19-1.75-4.38-2.63-6.58l5.31-1.94-2.64-4.4,3.8-4.12-1.3-2.85,4.1-2.28L149.77,119"/><path class="cls-12" d="M153.05,141.5l-.11-3.2,4.32-1.8-2.13-3.69,3.93-.82q-1.73-2-3.44-4.1l3-2.73q-.81-2.62-1.64-5.24"/><path class="cls-13" d="M161.09,139.32a70.93,70.93,0,0,1,5.64,5.74c1.45,1.66,2.39,2.89,4.19,5.26a55.8,55.8,0,0,1,4.09,5.87c.14.23,1.32,2.29,1.32,2.29h0l-1.91-2.55a64.73,64.73,0,0,0-6.15-7.57,31.67,31.67,0,0,0-4.05-3.3,38.05,38.05,0,0,0-6.3-3.63Z"/><path class="cls-13" d="M44.6,137.17A71.31,71.31,0,0,0,39,142.91c-1.45,1.66-2.38,2.89-4.19,5.26A57.07,57.07,0,0,0,30.67,154c-.14.23-1.31,2.29-1.31,2.29h0s1.61-2.16,1.91-2.55a66,66,0,0,1,6.14-7.57,34.13,34.13,0,0,1,4.05-3.3,39.21,39.21,0,0,1,6.3-3.63Z"/><path class="cls-14" d="M87.76,211.19l-7,5.41a13.88,13.88,0,0,1-9.74-.3,11.87,11.87,0,0,1-2.66-1.62l-2-2.13a5,5,0,0,0,.56,2.56c1.73,3.18,7.43,4.26,14.18,2.59l8.25-5.91Z"/><path class="cls-14" d="M121.76,211.25l7,5.22a14.51,14.51,0,0,0,10.15-.31,12.26,12.26,0,0,0,2.77-1.69l1.94-2.29a5,5,0,0,1-.46,2.74c-1.66,3.26-7.61,4.42-14.77,2.7l-8.29-5.82Z"/><path class="cls-15" d="M66.42,212l8.3-5.28,1.11.51-6.47,3.86Z"/><path class="cls-15" d="M143,212l-9.44-6-1.26.11,7.63,5Z"/><path class="cls-16" d="M59.2,60a22.73,22.73,0,0,0,3.23,13.09c4,6.31,10.59,8.36,21.07,11.47,9.57,2.84,17.6,3.58,26.74,4.38,6.47.57,11.83.76,15.48.82a9.88,9.88,0,0,1-3.25,3.76c-.57.38-3.94,2.59-7.23,1.48-3.11-1-4-4.36-5.66-4-.83.21-.73,1.06-1.88,2.19-2.08,2-5.2,2-6.13,2a11,11,0,0,1-6.12-2.11c-1.6-1.22-1.77-2.16-2.75-2.16-1.52,0-1.74,2.24-4.38,3.49a8.35,8.35,0,0,1-3.55.7,9.38,9.38,0,0,1-5-.91c-2.71-1.47-2.82-4-4.42-3.92-1.09,0-1.13,1.11-3,2.14a9.22,9.22,0,0,1-5,1,8.22,8.22,0,0,1-4-1.06c-1.86-1.11-1.6-2.16-3-2.79-1.9-.85-2.94.76-5.61.47a8.34,8.34,0,0,1-5.32-3.22c-.2-.27-2.44-3.3-1.62-6.58.57-2.32,2.22-3,2.34-5.66A16.93,16.93,0,0,0,50,72.15c-.29-2.46-.63-3-.65-4a7.38,7.38,0,0,1,2-4.67C54.09,60.06,58.51,60,59.2,60Z"/><path class="cls-17" d="M103.76,6.81a11.07,11.07,0,0,1,14,6.13S114.39.52,103.76,6.81Z"/><path class="cls-17" d="M136.72,60.38a8.24,8.24,0,0,1,10.46,4.56S144.63,55.7,136.72,60.38Z"/><path class="cls-17" d="M146.11,68.3a8.5,8.5,0,0,1,5.7,3,8.39,8.39,0,0,1,1.89,5.55S155.25,67.35,146.11,68.3Z"/><path class="cls-18" d="M116.12,15.11a11.07,11.07,0,0,1,6.61,13.83S128.27,17.31,116.12,15.11Z"/><path class="cls-19" d="M87,4.07a11.43,11.43,0,0,1,8.63-.31A11.27,11.27,0,0,1,101.49,9S97.05-3.08,87,4.07Z"/><path class="cls-16" d="M78.26,31.16a38.29,38.29,0,0,1,16.65-5.89,39.26,39.26,0,0,1,24.39,5.67A68.87,68.87,0,0,0,73.23,21a9.14,9.14,0,0,0,.16,4.36A9.85,9.85,0,0,0,78.26,31.16Z"/><path class="cls-20" d="M52.17,119a45.22,45.22,0,0,0,8.11,16.27c15.66,19.81,43,18.63,46.76,18.41a132.33,132.33,0,0,1-23.18-1.31c-6-.9-11.08-2.12-13.84-2.79-4.27-1.05-6.84-1.85-8.18-2.29-2.71-.88-4.82-1.69-6.53-2.36-.63-.24-.36-.14-5.87-2.46-3.48-1.47-4.85-2-6-3.55a7.72,7.72,0,0,1-1.25-2.48,31,31,0,0,1,1-5.29,32.89,32.89,0,0,1,1.88-4.91,40.93,40.93,0,0,1,2.59-4.39c.88-1.39,1.42-2.12,2.4-2.55A4.13,4.13,0,0,1,52.17,119Z"/><path class="cls-21" d="M148.09,120.15s9.55-3.49,13.48,16.49c0,0-2.42-20.45-7.32-20.35Z"/><path class="cls-22" d="M146,146.89q.09,19.16.16,38.29h1.22q0-19.72,0-39.47Z"/><path class="cls-23" d="M132.05,163.22a18.15,18.15,0,0,1,1.76-7.19,18.47,18.47,0,0,1,6.41-7.38l-8.31,2.65Q132,157.26,132.05,163.22Z"/><path class="cls-24" d="M117.56,67.09a6.9,6.9,0,0,0-2.94,1.34,9.2,9.2,0,0,0-1,1.1c-.2.24-.59.78-.59.78h0a8.88,8.88,0,0,0-2.84-2.65,8.7,8.7,0,0,0-5-1.17,7.55,7.55,0,0,0-3.69,1.25,7.26,7.26,0,0,0-1.61,1.51,7,7,0,0,0-1.44-.69,7.08,7.08,0,0,0-2.84-.32A7.32,7.32,0,0,0,91.9,69.7a9.61,9.61,0,0,0-1.35-.85,8,8,0,0,0-3-1,7.57,7.57,0,0,0-1.81,0,6.6,6.6,0,0,0-2.55.7,5.8,5.8,0,0,0-1.43,1.08,8.52,8.52,0,0,0-1.85-1.14,5.5,5.5,0,0,0-1.81-.54c-.51-.05-1.35-.05-1.35-.05-.09-.16-.23-.41-.41-.7a11.67,11.67,0,0,0-3-3.7A7.49,7.49,0,0,0,67.92,62a13.7,13.7,0,0,0-2.6.71,4.75,4.75,0,0,0-.41-.51A7,7,0,0,0,63,60.81a8.35,8.35,0,0,0-1-.46,7.7,7.7,0,0,0-2.21-.5L63.38,50a128.75,128.75,0,0,0,23.17,9.4c21.08,6.23,44.15,7.05,44.1,7.05h0a9,9,0,0,0-3.53,1,13.5,13.5,0,0,0-1.83,1.35h0a10.1,10.1,0,0,0-1.57-.9l-.78-.33L121.47,67a4.65,4.65,0,0,0-2-.19"/><path class="cls-25" d="M105.65,27.33a54,54,0,0,1,14.51,9.47A54.5,54.5,0,0,1,134.72,59a12.4,12.4,0,0,0,.43-1.84,13.28,13.28,0,0,0-.26-5.15c-.35-1.51-1.41-4.88-5.43-10a39.23,39.23,0,0,0-7.79-7.92A37,37,0,0,0,105.65,27.33Z"/><path class="cls-26" d="M178,159.25s8.81,1.62,8.46,8l1.27,1.34s22.06,12,13,24.46c0,0,15.43-7.54-11.42-26.15L188.2,166s2.12-2.71-1.58-7.29C186.62,158.75,182.41,154.45,178,159.25Z"/><path class="cls-26" d="M28.48,156.08s-8.81,1.62-8.45,8l-1.27,1.34s-22.06,12.05-13,24.46c0,0-15.44-7.55,11.42-26.15l1.07-.82s-2.12-2.71,1.59-7.29C19.87,155.58,24.07,151.28,28.48,156.08Z"/><path class="cls-27" d="M37.16,180.12h0c.44.14.79.23.83.24a5,5,0,0,0,2.1-.08,5.75,5.75,0,0,0,1.34-.48A7.1,7.1,0,0,0,43.79,178a6.32,6.32,0,0,0,1.57-5,5.07,5.07,0,0,0-.77-1.92A11.8,11.8,0,0,0,43,169.58s-.74-.67-1.58-1.47c-.66-.63-1.19-1.15-1.55-1.51a9.92,9.92,0,0,1,1,1.82,10.86,10.86,0,0,1,.76,2.85,17.23,17.23,0,0,1,.19,3.47,6.78,6.78,0,0,1-2.64,4.48A6.09,6.09,0,0,1,37.16,180.12Z"/><path class="cls-27" d="M169.71,183.13h0c-.44.15-.79.24-.83.25a5,5,0,0,1-2.11-.08,6.29,6.29,0,0,1-1.33-.48,7.34,7.34,0,0,1-2.37-1.78,6.32,6.32,0,0,1-1.56-4.95,4.9,4.9,0,0,1,.77-1.92,10,10,0,0,1,1.61-1.57l1.57-1.47c.67-.63,1.2-1.16,1.56-1.52a10.89,10.89,0,0,0-1,1.82,11.26,11.26,0,0,0-.75,2.86,16.46,16.46,0,0,0-.19,3.46,6.74,6.74,0,0,0,2.63,4.48A5.82,5.82,0,0,0,169.71,183.13Z"/><path class="cls-28" d="M141.59,89.73a55.53,55.53,0,0,1,4.67,10.84A40.92,40.92,0,0,1,148.4,112a36.9,36.9,0,0,1-.32,6.27l3.82-1.82h0s-1.07-5.16-2.31-9.68c-2.54-9.22-5-13-5.82-14.19A35.07,35.07,0,0,0,141.59,89.73Z"/></g></g></g></svg>