<svg xmlns="http://www.w3.org/2000/svg" viewBox="0 0 81.15 18.89"><defs><style>.cls-1{fill:#231f20;}.cls-1,.cls-2{stroke:#231f20;stroke-miterlimit:10;}.cls-2{fill:#6d6e71;}</style></defs><g id="Layer_2" data-name="Layer 2"><g id="shading"><ellipse class="cls-1" cx="63.25" cy="12.5" rx="3.73" ry="5.89"/><ellipse class="cls-1" cx="17.36" cy="12.5" rx="3.73" ry="5.89"/><path class="cls-2" d="M28.51,2.56c-1,.14-2,.26-3,.34A43.25,43.25,0,0,1,19.73,3c-4-.21-4.56-.61-9-1C5.87,1.47,1,1.46,1,1.46H1L4.23,5.7,2.18,7.32l2.1,2,0,2.78C11.92,7.85,15.4,7,17.15,7.17c1.94.18,3,.19,5,.21a11.85,11.85,0,0,0,2-.06c.88-.13,3.52-.46,4.36-2.3A3.41,3.41,0,0,0,28.51,2.56Z"/><path class="cls-2" d="M52.41,2.56c1,.14,2,.25,3,.34A45,45,0,0,0,61.2,3c2.44-.13,3.73-.33,9-1,5-.67,10-1.3,10-1.3h0L76.7,5.7l2,1.62-2.1,2,0,2.79C69,7.85,65.53,7,63.78,7.17c-2,.18-3,.19-5,.21a11.85,11.85,0,0,1-2-.06C56,7.19,53.31,6.86,52.48,5A3.41,3.41,0,0,1,52.41,2.56Z"/></g></g></svg>