<svg xmlns="http://www.w3.org/2000/svg" viewBox="0 0 70.01 72.87"><defs><style>.cls-1{fill:#ffde17;stroke:#f7941d;}.cls-1,.cls-2{stroke-miterlimit:10;}.cls-2{fill:#6d6e71;stroke:#231f20;stroke-width:0.5px;}.cls-3{fill:#27aae1;opacity:0.26;}.cls-4,.cls-5{fill:#414042;}.cls-4{opacity:0.81;}.cls-5{opacity:0.94;}</style></defs><g id="Layer_2" data-name="Layer 2"><g id="shading"><path class="cls-1" d="M27.88.5H41.23L34.9,10.35Z"/><path class="cls-2" d="M28.08,2.81S2.2,13.55.49,20.57s6.43,1.34,6.43,1.34a2.74,2.74,0,0,0,1,2.82,2.11,2.11,0,0,0,1,.3,14.72,14.72,0,0,0,2.58-.78A14.72,14.72,0,0,0,16.1,21.2l2.36,1.2a2.75,2.75,0,0,0,.78.18c5.17.47,10.2-13.66,11.19-16.51l-1.07-1.5C28.93,4,28.51,3.39,28.08,2.81Z"/><path class="cls-2" d="M41.17,2.81s26.28,9.7,28.28,16.65-6.37,1.59-6.37,1.59a2.74,2.74,0,0,1-.87,2.85,1.89,1.89,0,0,1-1,.35,14.78,14.78,0,0,1-2.6-.68,14.52,14.52,0,0,1-4.74-2.87L51.56,22a3.19,3.19,0,0,1-.77.22C45.64,22.88,40.05,9,39,6.16l1-1.54Z"/><path class="cls-2" d="M54.26,27.54q2.85-.36,3.54-1.77Q60,21.18,39.44,5.42C37.81,7.61,36.19,9.8,34.56,12L30,5.21c-16.78,15-19.46,19.4-18.65,20.56l3.53,1.77h0C3,44,14.11,45.2,14.11,45.2,9.21,53.66,18,55.44,18,55.44c-2.37,9.35,6.49,8.36,6.49,8.36a14.64,14.64,0,0,0,5.6,7.1,14.09,14.09,0,0,0,3.85,1.71,12.54,12.54,0,0,0,5.14-1.71,13.24,13.24,0,0,0,5.61-7.1s8.86,1,6.49-8.36c0,0,8.75-1.78,3.86-10.24C55,45.2,66.14,44,54.26,27.54Z"/><path class="cls-3" d="M41.23,3.48s27.54,12.85,27.61,19C68.84,22.45,76,16.29,41.23,3.48Z"/><path class="cls-4" d="M40.33,4.71a76.26,76.26,0,0,1,10,7.23A76.17,76.17,0,0,1,61.57,23.81a6,6,0,0,1-1.94-.19A7.53,7.53,0,0,1,58,22.85L57,21.22c-1.91-3.31-8.71-9.13-8.71-9.13-1.74-1.49-3.43-2.86-6-4.94L40,5.3Z"/><path class="cls-5" d="M29.05,4.71A80.13,80.13,0,0,0,7.84,24.14a1.8,1.8,0,0,0,.81.39,2.66,2.66,0,0,0,1.24-.19c.34-.1.78-.25,1.29-.45A44.4,44.4,0,0,1,13.9,20.2c1.77-2.16,2.49-2.59,6-6.08s4.35-4.53,7.18-6.95c.94-.8,1.74-1.45,2.28-1.87Z"/><path class="cls-3" d="M38.11,7.79A32.09,32.09,0,0,1,51.56,22a3.42,3.42,0,0,1-1.93,4.36S58.57,32.8,57.51,41c0,0,.08,1.63-5.09,2.56,0,0,4.64,8.09-2.53,10.22,0,0,1.73,10.89-6.37,7.83,0,0-1.11,11.16-14.12,6.67.31.3,4.4,4.18,8.38,2.9a9.27,9.27,0,0,0,3.93-3,14.73,14.73,0,0,0,2.75-4.64c.3.06,3.37.62,5.31-1.4a5.59,5.59,0,0,0,1.39-2.95,6.77,6.77,0,0,0-.46-3.87c.4-.08,4.08-.88,5.16-3.79a5.5,5.5,0,0,0,.31-2.22,7.06,7.06,0,0,0-1.78-4.29,6.12,6.12,0,0,0,4.43-2.54c.61-1,.82-2.29.33-4.65a23.61,23.61,0,0,0-5.53-10.56c2.29,0,3.68-.5,4.16-1.44Q59.9,21.63,39.52,5.93Z"/></g></g></svg>