<svg width="320" height="156" viewBox="0 0 320 156" fill="none" xmlns="http://www.w3.org/2000/svg">
<path d="M322 79.821V123.098C319.525 125.717 314.244 127.524 308.131 127.524C299.639 127.524 292.759 124.039 292.759 119.739C292.759 119.163 292.885 118.602 293.119 118.064C292.997 118.064 292.878 118.067 292.759 118.067C287.581 118.067 282.674 117.484 278.275 116.441C274.84 119.802 267.907 122.101 259.918 122.101C248.508 122.101 239.256 117.416 239.256 111.637C239.256 107.897 243.13 104.617 248.956 102.767C245.2 100.63 242.867 97.647 242.867 94.3488C242.867 88.9996 248.994 84.4835 257.382 83.0539C257.319 82.6779 257.287 82.2952 257.287 81.9102C257.287 75.4084 266.337 70.1357 277.499 70.1357C281.936 70.1357 286.04 70.971 289.375 72.3826C292.601 71.0723 296.523 70.3023 300.755 70.3023C310.365 70.3023 318.386 74.2669 320.265 79.5418C320.834 79.6026 321.412 79.6949 322 79.821Z" fill="url(#paint0_linear_113_1894)"/>
<path d="M84.0693 94.2768C83.8307 98.0613 77.5735 100.882 69.1833 101.409C69.2665 101.675 69.3115 101.945 69.3227 102.215C75.3078 104.273 79.2632 107.933 79.018 111.851C78.667 117.427 69.9392 121.414 59.524 120.759C53.1385 120.356 47.6012 118.301 44.3545 115.484C41.2878 116.117 37.546 116.371 33.5275 116.117C28.8318 115.822 24.5928 114.888 21.4293 113.595C17.9035 115.117 12.922 116.07 7.252 116.209C7.2565 116.286 7.2565 116.362 7.252 116.439C7.11926 118.557 3.21775 120.106 -2 120.338V82.5428C1.48975 80.7868 6.8605 79.8525 12.8118 80.2285C13.3787 80.2645 13.939 80.3118 14.4925 80.3703C17.9733 75.3836 29.3537 72.2542 42.613 73.0895C57.0737 73.999 68.7243 79.3099 70.1642 85.3255C78.4398 86.8992 84.3078 90.4855 84.0693 94.2768Z" fill="url(#paint1_linear_113_1894)"/>
<path d="M288.316 56.2292L293.139 71.3148L292.648 91.9288H305.725L306.297 81.0945L314.716 70.5865L313.49 68.2977L306.84 74.9562V63.5119L311.12 51.3394L302.129 50.0909L297.879 66.4129L292.773 54.0801L288.316 56.2292Z" fill="url(#paint2_linear_113_1894)"/>
<path d="M6.96711 64.6858L5.92139 104.304L17.6145 113.411L18.0898 91.7514L23.9838 85.9983L31.806 75.6689L28.6421 72.2694L22.1776 81.8143L18.1848 84.9523L18.8637 64.6858H6.96711Z" fill="url(#paint3_linear_113_1894)"/>
<path d="M48.2807 67.6075C47.6755 67.6728 47.0747 67.7088 46.4807 67.7246C46.9757 72.3871 41.8975 76.7569 35.1362 77.4841C28.3705 78.2113 22.48 75.0166 21.9782 70.3496C21.9108 69.726 21.9467 69.1069 22.0705 68.5013C21.9737 68.5125 21.8792 68.5238 21.7825 68.535C17.6582 68.9786 13.678 68.7647 10.051 68.0105C7.945 71.5518 3.4945 74.3998 -2 75.4399V19.438C-0.175252 18.614 1.86325 18.0512 4.03675 17.817C7.57375 17.4366 10.9398 17.9904 13.7612 19.2376C16.18 17.5379 19.2175 16.3672 22.5902 16.0047C30.2493 15.1807 37.105 18.7964 39.2155 24.3617C41.4858 24.4427 44.026 25.3635 46.5257 27.1781C52.8213 31.7483 56.4595 40.2493 54.655 46.1636C54.4727 46.7624 54.2365 47.3095 53.962 47.8093C58.4215 49.1466 61.6187 52.0823 62.0147 55.7835C62.6222 61.4343 56.473 66.7272 48.2807 67.6075Z" fill="url(#paint4_linear_113_1894)"/>
<path d="M322 2.38866V61.1484C318.456 60.3312 315.417 58.4378 313.365 55.8938C310.905 56.9857 307.875 57.6318 304.596 57.6318C300.767 57.6318 297.273 56.7516 294.636 55.3062C291.848 57.6116 287.85 59.2866 283.246 59.9417C283.255 60.043 283.26 60.1443 283.26 60.2457C283.26 63.6519 278.717 66.412 273.114 66.412C267.51 66.412 262.967 63.6519 262.967 60.2457C262.967 58.8746 263.705 57.6093 264.951 56.585C261.304 54.2841 259.043 51.0895 259.043 47.5549C259.043 43.8289 261.558 40.4767 265.561 38.1556C263.014 36.4468 261.414 33.9861 261.414 31.2507C261.414 26.9012 265.458 23.245 270.927 22.2071C271.413 16.4662 277.941 11.9186 285.926 11.9186C286.387 11.9186 286.846 11.9366 287.298 11.9658C289.872 5.08576 298.962 0 309.78 0C314.262 0 318.452 0.873515 322 2.38866Z" fill="url(#paint5_linear_113_1894)"/>
<path d="M47.4694 124.506C60.089 124.506 70.3192 119.342 70.3192 112.973C70.3192 106.603 60.089 101.44 47.4694 101.44C34.8498 101.44 24.6196 106.603 24.6196 112.973C24.6196 119.342 34.8498 124.506 47.4694 124.506Z" fill="url(#paint6_linear_113_1894)"/>
<path d="M65.1197 101.441C65.1197 102.586 64.528 103.692 63.4367 104.723C59.4542 108.494 48.8095 111.326 35.818 111.882C34.2835 111.95 32.7152 111.984 31.1223 111.984C28.9398 111.984 26.8045 111.92 24.7368 111.797C11.5225 111.02 1.0195 107.87 -2 103.831V99.0496C-1.71875 98.6736 -1.37 98.3022 -0.962752 97.942C3.69025 93.8378 16.297 90.8953 31.1223 90.8953C49.8985 90.8953 65.1197 95.6163 65.1197 101.441Z" fill="url(#paint7_linear_113_1894)"/>
<path d="M36.0407 113.814C36.0407 116.621 34.6547 119.26 32.2135 121.558C26.9035 126.565 16.6075 129.958 4.777 129.958C2.45051 129.958 0.182504 129.828 -2 129.575V98.0523C-1.658 98.0095 -1.3115 97.9735 -0.962752 97.942C0.898002 97.7618 2.81725 97.6695 4.777 97.6695C15.7412 97.6695 25.3892 100.585 30.9693 104.995C33.532 107.022 35.2375 109.363 35.818 111.882C35.9665 112.517 36.0407 113.161 36.0407 113.814Z" fill="url(#paint8_linear_113_1894)"/>
<path d="M179.497 117.264C194.911 117.264 207.407 111.821 207.407 105.106C207.407 98.392 194.911 92.949 179.497 92.949C164.083 92.949 151.587 98.392 151.587 105.106C151.587 111.821 164.083 117.264 179.497 117.264Z" fill="url(#paint9_linear_113_1894)"/>
<path d="M93.1342 108.041C106.437 108.041 117.22 104.437 117.22 99.992C117.22 95.5468 106.437 91.9432 93.1342 91.9432C79.832 91.9432 69.0483 95.5468 69.0483 99.992C69.0483 104.437 79.832 108.041 93.1342 108.041Z" fill="url(#paint10_linear_113_1894)"/>
<path d="M135.099 123.318C158.396 123.318 177.281 115.958 177.281 106.879C177.281 97.7996 158.396 90.4396 135.099 90.4396C111.802 90.4396 92.9165 97.7996 92.9165 106.879C92.9165 115.958 111.802 123.318 135.099 123.318Z" fill="url(#paint11_linear_113_1894)"/>
<path d="M225.411 118.989C239.419 118.989 250.775 114.043 250.775 107.941C250.775 101.839 239.419 96.8918 225.411 96.8918C211.402 96.8918 200.046 101.839 200.046 107.941C200.046 114.043 211.402 118.989 225.411 118.989Z" fill="url(#paint12_linear_113_1894)"/>
<path d="M69.0482 114.927C79.253 114.927 87.5257 111.324 87.5257 106.879C87.5257 102.433 79.253 98.8299 69.0482 98.8299C58.8434 98.8299 50.5708 102.433 50.5708 106.879C50.5708 111.324 58.8434 114.927 69.0482 114.927Z" fill="url(#paint13_linear_113_1894)"/>
<path d="M89.4125 122.269C99.6173 122.269 107.89 118.665 107.89 114.22C107.89 109.775 99.6173 106.171 89.4125 106.171C79.2077 106.171 70.9351 109.775 70.9351 114.22C70.9351 118.665 79.2077 122.269 89.4125 122.269Z" fill="url(#paint14_linear_113_1894)"/>
<path d="M198.371 128.345C208.796 128.345 217.246 124.664 217.246 120.123C217.246 115.582 208.796 111.901 198.371 111.901C187.947 111.901 179.497 115.582 179.497 120.123C179.497 124.664 187.947 128.345 198.371 128.345Z" fill="url(#paint15_linear_113_1894)"/>
<path d="M322 89.6548V104.151C319.163 106.267 315.122 108.01 310.309 109.181C307.749 109.804 304.972 110.266 302.043 110.536C300.087 110.714 298.065 110.808 295.995 110.808C279.167 110.808 265.527 104.583 265.527 96.9018C265.527 95.1571 266.232 93.4866 267.519 91.9467C271.893 86.7123 282.992 82.9954 295.995 82.9954C307.002 82.9954 316.647 85.6609 322 89.6548Z" fill="url(#paint16_linear_113_1894)"/>
<path d="M275.454 120.613C295.149 120.613 311.114 114.116 311.114 106.1C311.114 98.0852 295.149 91.5875 275.454 91.5875C255.76 91.5875 239.794 98.0852 239.794 106.1C239.794 114.116 255.76 120.613 275.454 120.613Z" fill="url(#paint17_linear_113_1894)"/>
<path d="M322 96.9244V120.579C314.47 120.329 307.987 117.947 304.511 114.514C303.285 113.303 302.432 111.961 302.043 110.536C301.883 109.955 301.8 109.358 301.8 108.753C301.8 105.459 304.241 102.476 308.183 100.331C311.776 98.3675 316.623 97.1022 322 96.9244Z" fill="url(#paint18_linear_113_1894)"/>
<path d="M198.431 140.308C220.026 140.308 237.533 132.66 237.533 123.227C237.533 113.793 220.026 106.146 198.431 106.146C176.835 106.146 159.328 113.793 159.328 123.227C159.328 132.66 176.835 140.308 198.431 140.308Z" fill="#0E2930"/>
<path d="M156.218 142.774C169.685 142.774 180.603 137.438 180.603 130.855C180.603 124.273 169.685 118.937 156.218 118.937C142.75 118.937 131.832 124.273 131.832 130.855C131.832 137.438 142.75 142.774 156.218 142.774Z" fill="#0E2930"/>
<path d="M145.561 156C154.711 156 162.129 151.893 162.129 146.828C162.129 141.762 154.711 137.655 145.561 137.655C136.41 137.655 128.992 141.762 128.992 146.828C128.992 151.893 136.41 156 145.561 156Z" fill="#0E2930"/>
<path d="M261.747 136.808C288.728 136.808 310.601 129.445 310.601 120.362C310.601 111.279 288.728 103.916 261.747 103.916C234.765 103.916 212.893 111.279 212.893 120.362C212.893 129.445 234.765 136.808 261.747 136.808Z" fill="#0E2930"/>
<path d="M322 118.663V138.36C318.173 139.745 313.502 140.557 308.462 140.557C305.242 140.557 302.171 140.226 299.377 139.625C294.44 138.565 290.359 136.665 287.814 134.274C286.48 133.024 285.568 131.64 285.177 130.17C285.028 129.627 284.954 129.076 284.954 128.513C284.954 121.86 295.48 116.466 308.462 116.466C308.719 116.466 308.973 116.468 309.227 116.473C313.975 116.549 318.367 117.348 322 118.663Z" fill="#0E2930"/>
<path d="M275.42 151.399C288.677 151.399 299.425 146.433 299.425 140.308C299.425 134.182 288.677 129.216 275.42 129.216C262.162 129.216 251.415 134.182 251.415 140.308C251.415 146.433 262.162 151.399 275.42 151.399Z" fill="#0E2930"/>
<path d="M87.7792 135.368C104.2 135.368 117.512 129.553 117.512 122.38C117.512 115.207 104.2 109.392 87.7792 109.392C71.3579 109.392 58.0459 115.207 58.0459 122.38C58.0459 129.553 71.3579 135.368 87.7792 135.368Z" fill="#0E2930"/>
<path d="M148.089 132.052C148.838 127.102 139.858 121.639 128.032 119.849C116.206 118.059 106.013 120.62 105.264 125.569C104.516 130.518 113.496 135.981 125.322 137.772C137.148 139.562 147.341 137.001 148.089 132.052Z" fill="#0E2930"/>
<path d="M127.967 144.926C133.74 144.926 138.42 142.335 138.42 139.139C138.42 135.943 133.74 133.352 127.967 133.352C122.193 133.352 117.513 135.943 117.513 139.139C117.513 142.335 122.193 144.926 127.967 144.926Z" fill="#0E2930"/>
<path d="M39.6339 132.707C60.1504 132.707 76.7824 127.108 76.7824 120.202C76.7824 113.295 60.1504 107.696 39.6339 107.696C19.1173 107.696 2.48535 113.295 2.48535 120.202C2.48535 127.108 19.1173 132.707 39.6339 132.707Z" fill="#0E2930"/>
<path d="M21.9872 126.399C21.9872 126.827 21.9287 127.25 21.8162 127.662C21.517 128.778 20.8263 129.83 19.8138 130.78C17.8787 132.599 14.776 134.042 11.0207 134.848C8.8945 135.307 6.56125 135.559 4.11099 135.559C1.9645 135.559 -0.0942569 135.366 -2 135.01V117.79C-0.267498 117.465 1.591 117.276 3.52825 117.245C3.72175 117.243 3.91525 117.24 4.111 117.24C13.984 117.24 21.9872 121.34 21.9872 126.399Z" fill="#0E2930"/>
<path d="M29.237 143.802C39.3179 143.802 47.49 140.026 47.49 135.368C47.49 130.71 39.3179 126.935 29.237 126.935C19.1561 126.935 10.9839 130.71 10.9839 135.368C10.9839 140.026 19.1561 143.802 29.237 143.802Z" fill="#0E2930"/>
<defs>
<linearGradient id="paint0_linear_113_1894" x1="280.628" y1="70.1357" x2="280.628" y2="127.524" gradientUnits="userSpaceOnUse">
<stop stop-color="#2D6E54"/>
<stop offset="1" stop-color="#31514C"/>
</linearGradient>
<linearGradient id="paint1_linear_113_1894" x1="41.0381" y1="72.9549" x2="41.0381" y2="120.83" gradientUnits="userSpaceOnUse">
<stop stop-color="#2D6E54"/>
<stop offset="1" stop-color="#31514C"/>
</linearGradient>
<linearGradient id="paint2_linear_113_1894" x1="301.516" y1="50.0909" x2="301.516" y2="91.9288" gradientUnits="userSpaceOnUse">
<stop stop-color="#5E533B"/>
<stop offset="1" stop-color="#443A2F"/>
</linearGradient>
<linearGradient id="paint3_linear_113_1894" x1="18.8637" y1="64.6858" x2="18.8637" y2="113.411" gradientUnits="userSpaceOnUse">
<stop stop-color="#5E533B"/>
<stop offset="1" stop-color="#443A2F"/>
</linearGradient>
<linearGradient id="paint4_linear_113_1894" x1="30.0281" y1="15.8879" x2="30.0281" y2="77.5872" gradientUnits="userSpaceOnUse">
<stop stop-color="#31514C"/>
<stop offset="1" stop-color="#1A3821"/>
</linearGradient>
<linearGradient id="paint5_linear_113_1894" x1="290.522" y1="-2.25133e-06" x2="290.522" y2="66.412" gradientUnits="userSpaceOnUse">
<stop stop-color="#31514C"/>
<stop offset="1" stop-color="#1A3821"/>
</linearGradient>
<linearGradient id="paint6_linear_113_1894" x1="47.4694" y1="101.44" x2="47.4694" y2="124.506" gradientUnits="userSpaceOnUse">
<stop stop-color="#1A3821"/>
<stop offset="1" stop-color="#0E2930"/>
</linearGradient>
<linearGradient id="paint7_linear_113_1894" x1="31.5599" y1="90.8953" x2="31.5599" y2="111.984" gradientUnits="userSpaceOnUse">
<stop stop-color="#1A3821"/>
<stop offset="1" stop-color="#0E2930"/>
</linearGradient>
<linearGradient id="paint8_linear_113_1894" x1="17.0204" y1="97.6695" x2="17.0204" y2="129.958" gradientUnits="userSpaceOnUse">
<stop stop-color="#1A3821"/>
<stop offset="1" stop-color="#0E2930"/>
</linearGradient>
<linearGradient id="paint9_linear_113_1894" x1="179.497" y1="92.949" x2="179.497" y2="117.264" gradientUnits="userSpaceOnUse">
<stop stop-color="#1A3821"/>
<stop offset="1" stop-color="#0E2930"/>
</linearGradient>
<linearGradient id="paint10_linear_113_1894" x1="93.1342" y1="91.9432" x2="93.1342" y2="108.041" gradientUnits="userSpaceOnUse">
<stop stop-color="#1A3821"/>
<stop offset="1" stop-color="#0E2930"/>
</linearGradient>
<linearGradient id="paint11_linear_113_1894" x1="135.099" y1="90.4396" x2="135.099" y2="123.318" gradientUnits="userSpaceOnUse">
<stop stop-color="#1A3821"/>
<stop offset="1" stop-color="#0E2930"/>
</linearGradient>
<linearGradient id="paint12_linear_113_1894" x1="225.411" y1="96.8918" x2="225.411" y2="118.989" gradientUnits="userSpaceOnUse">
<stop stop-color="#1A3821"/>
<stop offset="1" stop-color="#0E2930"/>
</linearGradient>
<linearGradient id="paint13_linear_113_1894" x1="69.0482" y1="98.8299" x2="69.0482" y2="114.927" gradientUnits="userSpaceOnUse">
<stop stop-color="#1A3821"/>
<stop offset="1" stop-color="#0E2930"/>
</linearGradient>
<linearGradient id="paint14_linear_113_1894" x1="89.4125" y1="106.171" x2="89.4125" y2="122.269" gradientUnits="userSpaceOnUse">
<stop stop-color="#1A3821"/>
<stop offset="1" stop-color="#0E2930"/>
</linearGradient>
<linearGradient id="paint15_linear_113_1894" x1="198.371" y1="111.901" x2="198.371" y2="128.345" gradientUnits="userSpaceOnUse">
<stop stop-color="#1A3821"/>
<stop offset="1" stop-color="#0E2930"/>
</linearGradient>
<linearGradient id="paint16_linear_113_1894" x1="293.764" y1="82.9954" x2="293.764" y2="110.808" gradientUnits="userSpaceOnUse">
<stop stop-color="#1A3821"/>
<stop offset="1" stop-color="#0E2930"/>
</linearGradient>
<linearGradient id="paint17_linear_113_1894" x1="275.454" y1="91.5875" x2="275.454" y2="120.613" gradientUnits="userSpaceOnUse">
<stop stop-color="#1A3821"/>
<stop offset="1" stop-color="#0E2930"/>
</linearGradient>
<linearGradient id="paint18_linear_113_1894" x1="311.9" y1="96.9244" x2="311.9" y2="120.579" gradientUnits="userSpaceOnUse">
<stop stop-color="#1A3821"/>
<stop offset="1" stop-color="#0E2930"/>
</linearGradient>
</defs>
</svg>
