<svg width="1440" height="694" viewBox="0 0 1440 694" fill="none" xmlns="http://www.w3.org/2000/svg">
<g clip-path="url(#clip0_79_397)">
<path d="M1440 355.17V547.4C1429 559.03 1405.53 567.06 1378.36 567.06C1340.62 567.06 1310.04 551.58 1310.04 532.48C1310.04 529.92 1310.6 527.43 1311.64 525.04C1311.1 525.04 1310.57 525.05 1310.04 525.05C1287.03 525.05 1265.22 522.46 1245.67 517.83C1230.4 532.76 1199.59 542.97 1164.08 542.97C1113.37 542.97 1072.25 522.16 1072.25 496.49C1072.25 479.88 1089.47 465.31 1115.36 457.09C1098.67 447.6 1088.3 434.35 1088.3 419.7C1088.3 395.94 1115.53 375.88 1152.81 369.53C1152.53 367.86 1152.39 366.16 1152.39 364.45C1152.39 335.57 1192.61 312.15 1242.22 312.15C1261.94 312.15 1280.18 315.86 1295 322.13C1309.34 316.31 1326.77 312.89 1345.58 312.89C1388.29 312.89 1423.94 330.5 1432.29 353.93C1434.82 354.2 1437.39 354.61 1440 355.17Z" fill="url(#paint0_linear_79_397)"/>
<path d="M382.53 419.38C381.47 436.19 353.66 448.72 316.37 451.06C316.74 452.24 316.94 453.44 316.99 454.64C343.59 463.78 361.17 480.04 360.08 497.44C358.52 522.21 319.73 539.92 273.44 537.01C245.06 535.22 220.45 526.09 206.02 513.58C192.39 516.39 175.76 517.52 157.9 516.39C137.03 515.08 118.19 510.93 104.13 505.19C88.46 511.95 66.32 516.18 41.12 516.8C41.14 517.14 41.14 517.48 41.12 517.82C40.53 527.23 23.19 534.11 0 535.14V367.26C15.51 359.46 39.38 355.31 65.83 356.98C68.35 357.14 70.84 357.35 73.3 357.61C88.77 335.46 139.35 321.56 198.28 325.27C262.55 329.31 314.33 352.9 320.73 379.62C357.51 386.61 383.59 402.54 382.53 419.38Z" fill="url(#paint1_linear_79_397)"/>
<path d="M1290.29 250.38L1311.73 317.388L1309.55 408.951H1367.67L1370.21 360.827L1407.62 314.153L1402.18 303.986L1372.62 333.562V282.729L1391.64 228.66L1351.68 223.115L1332.79 295.614L1310.1 240.834L1290.29 250.38Z" fill="url(#paint2_linear_79_397)"/>
<path d="M39.8532 287.943L35.2056 463.918L87.1747 504.371L89.2873 408.163L115.483 382.609L150.248 336.728L136.186 321.628L107.455 364.024L89.7098 377.963L92.7269 287.943H39.8532Z" fill="url(#paint3_linear_79_397)"/>
<path d="M223.47 300.92C220.78 301.21 218.11 301.37 215.47 301.44C217.67 322.15 195.1 341.56 165.05 344.79C134.98 348.02 108.8 333.83 106.57 313.1C106.27 310.33 106.43 307.58 106.98 304.89C106.55 304.94 106.13 304.99 105.7 305.04C87.37 307.01 69.68 306.06 53.56 302.71C44.2 318.44 24.42 331.09 0 335.71V86.9604C8.10999 83.3004 17.17 80.8004 26.83 79.7604C42.55 78.0704 57.51 80.5304 70.05 86.0704C80.8 78.5204 94.3 73.3204 109.29 71.7104C143.33 68.0504 173.8 84.1104 183.18 108.83C193.27 109.19 204.56 113.28 215.67 121.34C243.65 141.64 259.82 179.4 251.8 205.67C250.99 208.33 249.94 210.76 248.72 212.98C268.54 218.92 282.75 231.96 284.51 248.4C287.21 273.5 259.88 297.01 223.47 300.92Z" fill="url(#paint4_linear_79_397)"/>
<path d="M1440 11.2304V272.23C1424.25 268.6 1410.74 260.19 1401.62 248.89C1390.69 253.74 1377.22 256.61 1362.65 256.61C1345.63 256.61 1330.1 252.7 1318.38 246.28C1305.99 256.52 1288.22 263.96 1267.76 266.87C1267.8 267.32 1267.82 267.77 1267.82 268.22C1267.82 283.35 1247.63 295.61 1222.73 295.61C1197.82 295.61 1177.63 283.35 1177.63 268.22C1177.63 262.13 1180.91 256.51 1186.45 251.96C1170.24 241.74 1160.19 227.55 1160.19 211.85C1160.19 195.3 1171.37 180.41 1189.16 170.1C1177.84 162.51 1170.73 151.58 1170.73 139.43C1170.73 120.11 1188.7 103.87 1213.01 99.2604C1215.17 73.7604 1244.18 53.5604 1279.67 53.5604C1281.72 53.5604 1283.76 53.6404 1285.77 53.7704C1297.21 23.2104 1337.61 0.620399 1385.69 0.620399C1405.61 0.620399 1424.23 4.50039 1440 11.2304Z" fill="url(#paint5_linear_79_397)"/>
<path d="M219.864 553.652C275.951 553.652 321.418 530.716 321.418 502.424C321.418 474.132 275.951 451.196 219.864 451.196C163.777 451.196 118.309 474.132 118.309 502.424C118.309 530.716 163.777 553.652 219.864 553.652Z" fill="url(#paint6_linear_79_397)"/>
<path d="M298.31 451.2C298.31 456.29 295.68 461.2 290.83 465.78C273.13 482.53 225.82 495.11 168.08 497.58C161.26 497.88 154.29 498.03 147.21 498.03C137.51 498.03 128.02 497.75 118.83 497.2C60.1 493.75 13.42 479.76 0 461.82V440.58C1.25 438.91 2.79999 437.26 4.60999 435.66C25.29 417.43 81.32 404.36 147.21 404.36C230.66 404.36 298.31 425.33 298.31 451.2Z" fill="url(#paint7_linear_79_397)"/>
<path d="M169.07 506.16C169.07 518.63 162.91 530.35 152.06 540.56C128.46 562.8 82.7 577.87 30.12 577.87C19.78 577.87 9.70002 577.29 0 576.17V436.15C1.52002 435.96 3.06 435.8 4.60999 435.66C12.88 434.86 21.41 434.45 30.12 434.45C78.85 434.45 121.73 447.4 146.53 466.99C157.92 475.99 165.5 486.39 168.08 497.58C168.74 500.4 169.07 503.26 169.07 506.16Z" fill="url(#paint8_linear_79_397)"/>
<path d="M806.651 521.484C875.158 521.484 930.693 497.307 930.693 467.483C930.693 437.66 875.158 413.483 806.651 413.483C738.144 413.483 682.608 437.66 682.608 467.483C682.608 497.307 738.144 521.484 806.651 521.484Z" fill="url(#paint9_linear_79_397)"/>
<path d="M422.817 480.517C481.939 480.517 529.866 464.511 529.866 444.766C529.866 425.022 481.939 409.015 422.817 409.015C363.696 409.015 315.769 425.022 315.769 444.766C315.769 464.511 363.696 480.517 422.817 480.517Z" fill="url(#paint10_linear_79_397)"/>
<path d="M609.327 548.375C712.868 548.375 796.805 515.683 796.805 475.356C796.805 435.028 712.868 402.336 609.327 402.336C505.786 402.336 421.85 435.028 421.85 475.356C421.85 515.683 505.786 548.375 609.327 548.375Z" fill="url(#paint11_linear_79_397)"/>
<path d="M1010.71 529.149C1072.97 529.149 1123.45 507.177 1123.45 480.072C1123.45 452.968 1072.97 430.996 1010.71 430.996C948.454 430.996 897.983 452.968 897.983 480.072C897.983 507.177 948.454 529.149 1010.71 529.149Z" fill="url(#paint12_linear_79_397)"/>
<path d="M315.769 511.107C361.124 511.107 397.891 495.1 397.891 475.356C397.891 455.611 361.124 439.605 315.769 439.605C270.414 439.605 233.647 455.611 233.647 475.356C233.647 495.1 270.414 511.107 315.769 511.107Z" fill="url(#paint13_linear_79_397)"/>
<path d="M406.276 543.716C451.631 543.716 488.398 527.71 488.398 507.965C488.398 488.221 451.631 472.214 406.276 472.214C360.922 472.214 324.154 488.221 324.154 507.965C324.154 527.71 360.922 543.716 406.276 543.716Z" fill="url(#paint14_linear_79_397)"/>
<path d="M890.539 570.704C936.869 570.704 974.427 554.353 974.427 534.184C974.427 514.015 936.869 497.664 890.539 497.664C844.209 497.664 806.651 514.015 806.651 534.184C806.651 554.353 844.209 570.704 890.539 570.704Z" fill="url(#paint15_linear_79_397)"/>
<path d="M1440 398.85V463.24C1427.39 472.64 1409.43 480.38 1388.04 485.58C1376.66 488.35 1364.32 490.4 1351.3 491.6C1342.61 492.39 1333.62 492.81 1324.42 492.81C1249.63 492.81 1189.01 465.16 1189.01 431.04C1189.01 423.29 1192.14 415.87 1197.86 409.03C1217.3 385.78 1266.63 369.27 1324.42 369.27C1373.34 369.27 1416.21 381.11 1440 398.85Z" fill="url(#paint16_linear_79_397)"/>
<path d="M1233.13 536.362C1320.66 536.362 1391.62 507.501 1391.62 471.899C1391.62 436.297 1320.66 407.435 1233.13 407.435C1145.6 407.435 1074.64 436.297 1074.64 471.899C1074.64 507.501 1145.6 536.362 1233.13 536.362Z" fill="url(#paint17_linear_79_397)"/>
<path d="M1440 431.14V536.21C1406.53 535.1 1377.72 524.52 1362.27 509.27C1356.82 503.89 1353.03 497.93 1351.3 491.6C1350.59 489.02 1350.22 486.37 1350.22 483.68C1350.22 469.05 1361.07 455.8 1378.59 446.27C1394.56 437.55 1416.1 431.93 1440 431.14Z" fill="url(#paint18_linear_79_397)"/>
<path d="M890.8 623.841C986.781 623.841 1064.59 589.873 1064.59 547.971C1064.59 506.07 986.781 472.102 890.8 472.102C794.819 472.102 717.011 506.07 717.011 547.971C717.011 589.873 794.819 623.841 890.8 623.841Z" fill="#0E2930"/>
<path d="M703.187 634.798C763.044 634.798 811.567 611.095 811.567 581.856C811.567 552.617 763.044 528.914 703.187 528.914C643.331 528.914 594.808 552.617 594.808 581.856C594.808 611.095 643.331 634.798 703.187 634.798Z" fill="#0E2930"/>
<path d="M655.824 693.544C696.494 693.544 729.463 675.303 729.463 652.802C729.463 630.301 696.494 612.06 655.824 612.06C615.154 612.06 582.185 630.301 582.185 652.802C582.185 675.303 615.154 693.544 655.824 693.544Z" fill="#0E2930"/>
<path d="M1172.21 608.297C1292.12 608.297 1389.34 575.591 1389.34 535.246C1389.34 494.902 1292.12 462.196 1172.21 462.196C1052.29 462.196 955.077 494.902 955.077 535.246C955.077 575.591 1052.29 608.297 1172.21 608.297Z" fill="#0E2930"/>
<path d="M1440 527.7V615.19C1422.99 621.34 1402.23 624.95 1379.83 624.95C1365.52 624.95 1351.87 623.48 1339.45 620.81C1317.51 616.1 1299.37 607.66 1288.06 597.04C1282.13 591.49 1278.08 585.34 1276.34 578.81C1275.68 576.4 1275.35 573.95 1275.35 571.45C1275.35 541.9 1322.13 517.94 1379.83 517.94C1380.97 517.94 1382.1 517.95 1383.23 517.97C1404.33 518.31 1423.85 521.86 1440 527.7Z" fill="#0E2930"/>
<path d="M1232.98 673.106C1291.9 673.106 1339.66 651.049 1339.66 623.841C1339.66 596.632 1291.9 574.575 1232.98 574.575C1174.05 574.575 1126.29 596.632 1126.29 623.841C1126.29 651.049 1174.05 673.106 1232.98 673.106Z" fill="#0E2930"/>
<path d="M399.019 601.901C472.002 601.901 531.167 576.072 531.167 544.211C531.167 512.349 472.002 486.52 399.019 486.52C326.036 486.52 266.871 512.349 266.871 544.211C266.871 576.072 326.036 601.901 399.019 601.901Z" fill="#0E2930"/>
<path d="M667.065 587.169C670.39 565.186 630.478 540.92 577.919 532.969C525.36 525.018 480.057 536.393 476.731 558.376C473.406 580.359 513.318 604.625 565.877 612.576C618.436 620.527 663.739 609.152 667.065 587.169Z" fill="#0E2930"/>
<path d="M577.628 644.354C603.288 644.354 624.09 632.846 624.09 618.649C624.09 604.452 603.288 592.944 577.628 592.944C551.968 592.944 531.167 604.452 531.167 618.649C531.167 632.846 551.968 644.354 577.628 644.354Z" fill="#0E2930"/>
<path d="M185.039 590.082C276.223 590.082 350.143 565.213 350.143 534.535C350.143 503.857 276.223 478.988 185.039 478.988C93.8539 478.988 19.9341 503.857 19.9341 534.535C19.9341 565.213 93.8539 590.082 185.039 590.082Z" fill="#0E2930"/>
<path d="M106.61 562.06C106.61 563.96 106.35 565.84 105.85 567.67C104.52 572.63 101.45 577.3 96.95 581.52C88.35 589.6 74.56 596.01 57.87 599.59C48.42 601.63 38.05 602.75 27.16 602.75C17.62 602.75 8.46997 601.89 0 600.31V523.82C7.70001 522.38 15.96 521.54 24.57 521.4C25.43 521.39 26.29 521.38 27.16 521.38C71.04 521.38 106.61 539.59 106.61 562.06Z" fill="#0E2930"/>
<path d="M138.83 639.362C183.634 639.362 219.955 622.591 219.955 601.901C219.955 581.212 183.634 564.44 138.83 564.44C94.0264 564.44 57.7056 581.212 57.7056 601.901C57.7056 622.591 94.0264 639.362 138.83 639.362Z" fill="#0E2930"/>
<path d="M677.574 236.662L741.221 208L742.651 215.69L699.743 241.206L677.574 236.662Z" fill="#5D533D"/>
<path d="M816.874 311.406C815.693 315.329 810.928 317.19 808.926 317.951C804.681 319.612 800.837 318.972 798.695 318.732C791.047 317.891 789.605 313.247 784.881 314.388C781.377 315.249 781.277 317.871 776.492 319.692C772.768 321.114 769.404 320.833 767.622 320.653C757.932 319.732 755.79 312.967 749.383 313.427C744.718 313.767 744.759 317.41 738.532 320.653C731.424 324.356 728.161 321.274 712.384 322.114C697.789 322.875 696.288 325.737 689.2 323.556C681.092 321.073 680.391 316.51 673.924 316.33C667.297 316.129 666.516 320.853 656.646 323.556C650.439 325.257 651.401 323.195 637.906 324.516C629.518 325.337 624.873 326.558 619.167 324.036C617.925 323.475 614.242 321.854 614.242 319.692C614.242 316.35 623.071 315.149 623.111 311.986C623.111 311.265 622.67 310.625 621.95 310.064C619.347 307.963 613.281 306.522 613.26 303.779C613.221 300.517 621.89 298.895 621.629 296.073C621.609 295.853 621.549 295.653 621.429 295.472C620.148 293.19 612.8 292.47 612.76 290.288C612.74 288.747 616.424 288.326 619.547 286.265H619.567C620.748 285.484 621.85 284.483 622.63 283.062C623.932 280.64 624.292 277.097 622.63 275.336C620.568 273.154 616.604 274.975 615.723 273.414C615.663 273.314 615.623 273.234 615.623 273.114C615.163 271.012 621.109 267.569 621.149 263.286C621.149 262.205 620.628 261.364 619.787 260.624C616.824 258.081 610.037 257.041 609.296 252.677C608.976 250.755 609.997 249.654 610.518 247.853C610.738 247.072 610.878 246.151 610.778 244.971C610.418 240.647 607.294 238.645 607.334 237.744C607.535 233.221 686.537 232.46 806.583 233.881C807.224 234.742 808.245 236.383 808.706 238.685C808.706 238.685 809.206 241.167 808.666 243.529C808.645 243.689 808.605 243.85 808.565 244.01C806.703 250.615 792.629 251.776 792.769 253.638C792.909 255.419 805.842 255.359 811.448 256.64C812.93 256.96 813.911 257.401 813.991 257.981C814.411 260.864 793.269 265.668 793.77 268.59C793.91 269.391 795.572 269.751 797.754 270.031H797.774C802.079 270.592 808.385 270.852 809.046 273.414C809.867 276.497 801.678 280.04 802.639 283.062C803.2 284.824 806.443 285.124 809.406 285.684H809.426C811.789 286.145 813.931 286.745 814.472 288.366C815.012 289.988 813.851 290.949 813.03 293.11C812.83 293.671 812.63 294.331 812.509 295.112C811.909 298.775 813.43 301.477 814.892 303.959C816.334 306.421 817.695 308.663 816.874 311.406Z" fill="#696149"/>
<path d="M811.448 256.64C810.968 256.6 810.507 256.58 810.047 256.56C778.494 254.779 746.901 254.899 715.328 255.019C696.648 255.099 677.928 255.159 659.289 257.04C645.755 258.402 632.741 260.964 619.787 260.623C616.824 258.081 610.037 257.04 609.296 252.677C608.976 250.755 609.997 249.654 610.518 247.853C629.878 251.156 649.458 251.476 668.999 251.316C714.887 250.955 762.517 248.834 808.665 243.529C808.645 243.689 808.605 243.85 808.565 244.01C806.703 250.615 792.629 251.776 792.769 253.638C792.909 255.419 805.842 255.359 811.448 256.64Z" fill="#7C705B"/>
<path d="M809.406 285.684C799.656 288.126 789.545 288.346 779.595 288.526C762.697 288.847 745.699 289.127 729.022 285.424C717.31 282.822 705.798 278.258 693.965 277.317C685.176 276.597 676.367 277.918 667.618 279.219C654.744 281.14 641.871 283.062 628.997 284.984C625.874 285.444 622.73 285.924 619.567 286.265C620.748 285.484 621.85 284.483 622.63 283.062C623.932 280.64 624.292 277.097 622.63 275.336C620.568 273.154 616.604 274.975 615.723 273.414C615.663 273.314 615.623 273.234 615.623 273.114C627.856 273.995 640.129 273.954 652.362 272.974C673.063 271.332 693.725 267.029 714.447 268.25C742.356 269.911 770.946 281.481 797.634 270.091C797.674 270.071 797.714 270.051 797.754 270.031H797.774C802.079 270.592 808.385 270.852 809.046 273.414C809.867 276.497 801.678 280.039 802.639 283.062C803.2 284.823 806.443 285.124 809.406 285.684Z" fill="#7C705B"/>
<path d="M814.892 303.959C814.031 304.36 813.21 304.62 812.509 304.76C759.334 314.368 705.117 303.279 651.501 307.242C641.65 307.963 631.8 309.204 621.95 310.064C619.347 307.963 613.28 306.521 613.26 303.779C613.22 300.516 621.89 298.895 621.629 296.073C621.609 295.853 621.549 295.652 621.429 295.472C630.378 297.134 640.048 301.457 648.537 302.478C668.138 304.86 687.699 299.976 707.319 299.376C720.253 298.995 733.206 300.476 746.16 300.797C767.202 301.337 791.447 298.675 813.03 293.11C812.83 293.671 812.63 294.331 812.509 295.112C811.909 298.775 813.43 301.477 814.892 303.959Z" fill="#7C705B"/>
<path d="M678.093 238.61C684.277 238.041 689.058 235.052 688.771 231.933C688.484 228.814 683.238 226.747 677.054 227.316C670.87 227.885 666.089 230.874 666.376 233.993C666.663 237.112 671.908 239.179 678.093 238.61Z" fill="#5E8054"/>
<path d="M649.471 242.026C660.68 242.026 669.767 238.702 669.767 234.602C669.767 230.503 660.68 227.179 649.471 227.179C638.262 227.179 629.175 230.503 629.175 234.602C629.175 238.702 638.262 242.026 649.471 242.026Z" fill="#5E8054"/>
<path d="M619.991 241.043C628.721 240.24 635.533 236.706 635.206 233.149C634.879 229.592 627.537 227.359 618.807 228.162C610.077 228.965 603.265 232.499 603.592 236.056C603.919 239.613 611.262 241.846 619.991 241.043Z" fill="#5E8054"/>
<path d="M640.38 253.407C642.047 253.407 643.398 252.056 643.398 250.389C643.398 248.722 642.047 247.37 640.38 247.37C638.713 247.37 637.362 248.722 637.362 250.389C637.362 252.056 638.713 253.407 640.38 253.407Z" fill="#5E8054"/>
<path d="M643.399 230.645H637.361V250.389H643.399V230.645Z" fill="#5E8054"/>
<path d="M756.413 242.026C767.622 242.026 776.709 238.335 776.709 233.783C776.709 229.23 767.622 225.54 756.413 225.54C745.204 225.54 736.117 229.23 736.117 233.783C736.117 238.335 745.204 242.026 756.413 242.026Z" fill="#5E8054"/>
<path d="M791.192 238.938C801.436 238.938 809.74 236.263 809.74 232.963C809.74 229.663 801.436 226.988 791.192 226.988C780.949 226.988 772.645 229.663 772.645 232.963C772.645 236.263 780.949 238.938 791.192 238.938Z" fill="#5E8054"/>
<path d="M726.142 238.493C734.673 238.493 741.589 236.139 741.589 233.236C741.589 230.332 734.673 227.978 726.142 227.978C717.61 227.978 710.694 230.332 710.694 233.236C710.694 236.139 717.61 238.493 726.142 238.493Z" fill="#5E8054"/>
<path d="M774.788 232.85C782.64 232.85 789.005 230.311 789.005 227.179C789.005 224.047 782.64 221.508 774.788 221.508C766.937 221.508 760.572 224.047 760.572 227.179C760.572 230.311 766.937 232.85 774.788 232.85Z" fill="#5E8054"/>
<path d="M636.485 233.649C644.337 233.649 650.701 231.11 650.701 227.978C650.701 224.846 644.337 222.307 636.485 222.307C628.634 222.307 622.269 224.846 622.269 227.978C622.269 231.11 628.634 233.649 636.485 233.649Z" fill="#5E8054"/>
<path d="M776.709 259.103C778.376 259.103 779.727 257.752 779.727 256.085C779.727 254.418 778.376 253.067 776.709 253.067C775.042 253.067 773.691 254.418 773.691 256.085C773.691 257.752 775.042 259.103 776.709 259.103Z" fill="#5E8054"/>
<path d="M779.728 236.341H773.69V256.085H779.728V236.341Z" fill="#5E8054"/>
<path d="M755.537 235.123C762.053 235.123 767.335 233.523 767.335 231.55C767.335 229.578 762.053 227.978 755.537 227.978C749.022 227.978 743.74 229.578 743.74 231.55C743.74 233.523 749.022 235.123 755.537 235.123Z" fill="#60975F"/>
<path d="M636.485 233.695C640.944 233.695 644.558 231.869 644.558 229.617C644.558 227.365 640.944 225.54 636.485 225.54C632.027 225.54 628.412 227.365 628.412 229.617C628.412 231.869 632.027 233.695 636.485 233.695Z" fill="#60975F"/>
<path d="M639.462 261.566C639.482 260.991 639.964 260.542 640.539 260.561L646.695 260.775C655.378 261.076 658.077 263.571 657.835 270.575C657.714 274.079 656.951 276.092 655.072 277.098C654.44 277.436 654.379 278.343 654.942 278.786C658.291 281.421 656.603 287.842 657.368 291.702C657.499 292.365 656.993 292.978 656.316 292.954L651.462 292.786C650.994 292.77 650.592 292.446 650.48 291.992C649.414 287.685 652.138 280.416 647.125 280.243L646.486 280.221C645.912 280.201 645.429 280.651 645.409 281.225L645.053 291.522C645.033 292.096 644.551 292.546 643.976 292.526L639.437 292.369C638.862 292.349 638.412 291.867 638.432 291.292L639.462 261.566ZM647.293 275.397C649.836 275.486 650.881 274.417 651.011 270.675C651.145 266.789 650.125 265.745 647.582 265.657L646.992 265.636C646.417 265.616 645.935 266.066 645.915 266.641L645.65 274.298C645.63 274.873 646.08 275.355 646.654 275.375L647.293 275.397Z" fill="#B7E0DC"/>
<path d="M662.558 261.325L675.156 261.761C675.731 261.781 676.181 262.263 676.161 262.838L676.059 265.794C676.039 266.368 675.557 266.818 674.982 266.798L669.004 266.591C668.429 266.571 667.946 267.021 667.927 267.596L667.718 273.622C667.698 274.197 668.148 274.679 668.723 274.699L672.782 274.839C673.357 274.859 673.807 275.341 673.787 275.916L673.683 278.92C673.663 279.495 673.181 279.945 672.606 279.925L668.546 279.784C667.972 279.764 667.489 280.214 667.47 280.789L667.246 287.247C667.226 287.822 667.676 288.304 668.251 288.324L674.229 288.531C674.804 288.551 675.254 289.033 675.234 289.608L675.131 292.564C675.112 293.138 674.629 293.588 674.055 293.568L661.456 293.132C660.881 293.112 660.431 292.63 660.451 292.055L661.481 262.329C661.501 261.755 661.983 261.305 662.558 261.325Z" fill="#B7E0DC"/>
<path d="M677.084 277.774C677.472 266.596 680.768 261.57 687.772 261.813C694.126 262.033 697.447 265.511 696.167 272.15C696.072 272.645 695.616 272.989 695.112 272.971L690.822 272.823C690.191 272.801 689.73 272.219 689.837 271.597C690.436 268.104 689.739 266.589 687.657 266.517C685.114 266.429 684.25 269.185 683.945 278.012C683.642 286.744 684.315 289.504 686.617 289.584C688.489 289.649 689.509 287.907 689.653 283.781L689.71 282.136C689.73 281.561 689.28 281.079 688.705 281.059L687.908 281.031C687.333 281.011 686.883 280.529 686.903 279.954L686.997 277.239C687.017 276.664 687.499 276.214 688.074 276.234L695.348 276.486C695.923 276.506 696.373 276.988 696.353 277.563L695.809 293.28C695.789 293.855 695.307 294.305 694.732 294.285L692.104 294.194C691.613 294.177 691.201 293.82 691.114 293.337C690.968 292.52 689.99 292.215 689.374 292.77C688.193 293.836 686.603 294.435 685.059 294.382C679.349 294.184 676.666 289.864 677.084 277.774Z" fill="#B7E0DC"/>
<path d="M701.463 262.672L706.001 262.829C706.576 262.849 707.026 263.331 707.006 263.906L705.975 293.68C705.955 294.255 705.473 294.705 704.898 294.685L700.36 294.528C699.785 294.508 699.335 294.026 699.355 293.451L700.386 263.677C700.406 263.102 700.888 262.652 701.463 262.672Z" fill="#B7E0DC"/>
<path d="M710.131 284.683L714.161 284.823C714.783 284.844 715.242 285.41 715.15 286.025C714.639 289.458 715.409 291.014 717.447 291.085C719.222 291.146 720.222 289.98 720.309 287.485C720.541 280.768 709.095 281.189 709.466 270.491C709.641 265.453 713.003 262.687 718.521 262.878C725.145 263.108 727.975 266.039 726.675 271.617C726.56 272.109 726.122 272.46 725.617 272.443L722.048 272.319C721.44 272.298 720.988 271.756 721.054 271.151C721.35 268.465 720.573 267.272 718.705 267.208C717.122 267.153 716.268 268.276 716.202 270.195C715.975 276.72 727.592 276.93 727.249 286.813C727.037 292.954 723.867 295.726 717.39 295.502C710.806 295.274 707.776 292.072 709.077 285.5C709.174 285.007 709.629 284.665 710.131 284.683Z" fill="#B7E0DC"/>
<path d="M732.305 268.784L729.638 268.692C729.063 268.672 728.613 268.19 728.633 267.615L728.736 264.659C728.755 264.084 729.238 263.634 729.812 263.654L743.85 264.141C744.425 264.161 744.875 264.643 744.855 265.218L744.752 268.173C744.732 268.748 744.25 269.198 743.675 269.178L741.008 269.086C740.433 269.066 739.951 269.516 739.931 270.091L739.074 294.827C739.054 295.402 738.572 295.851 737.997 295.832L733.458 295.674C732.883 295.654 732.433 295.172 732.453 294.597L733.31 269.861C733.33 269.286 732.88 268.804 732.305 268.784Z" fill="#B7E0DC"/>
<path d="M748.426 264.299L761.024 264.735C761.599 264.755 762.049 265.238 762.029 265.812L761.926 268.768C761.906 269.343 761.424 269.793 760.849 269.773L754.871 269.566C754.296 269.546 753.814 269.996 753.794 270.571L753.586 276.596C753.566 277.171 754.016 277.653 754.591 277.673L758.65 277.814C759.225 277.834 759.674 278.316 759.654 278.891L759.55 281.895C759.53 282.47 759.048 282.919 758.473 282.899L754.414 282.759C753.839 282.739 753.357 283.189 753.337 283.764L753.113 290.221C753.094 290.796 753.543 291.278 754.118 291.298L760.096 291.505C760.671 291.525 761.121 292.007 761.101 292.582L760.999 295.538C760.979 296.113 760.497 296.563 759.922 296.543L747.324 296.107C746.749 296.087 746.3 295.605 746.319 295.03L747.349 265.304C747.369 264.729 747.851 264.279 748.426 264.299Z" fill="#B7E0DC"/>
<path d="M764.906 265.912C764.926 265.337 765.408 264.887 765.983 264.907L772.138 265.121C780.821 265.421 783.521 267.916 783.278 274.92C783.157 278.423 782.393 280.438 780.516 281.443C779.884 281.782 779.822 282.688 780.385 283.131C783.734 285.766 782.046 292.187 782.811 296.047C782.943 296.711 782.436 297.323 781.76 297.299L776.906 297.131C776.438 297.115 776.036 296.792 775.924 296.337C774.857 292.031 777.581 284.762 772.569 284.588L771.93 284.566C771.355 284.546 770.873 284.996 770.853 285.571L770.496 295.867C770.476 296.442 769.994 296.892 769.419 296.872L764.881 296.715C764.306 296.695 763.856 296.213 763.876 295.638L764.906 265.912ZM772.737 279.743C775.279 279.831 776.324 278.763 776.454 275.02C776.588 271.135 775.568 270.09 773.025 270.002L772.435 269.982C771.86 269.962 771.378 270.412 771.358 270.986L771.093 278.644C771.073 279.219 771.523 279.701 772.098 279.721L772.737 279.743Z" fill="#B7E0DC"/>
<path d="M532.551 302.422C531.851 299.6 518.38 301.761 517.659 298.799C517.399 297.658 518.98 296.337 521.142 294.956H521.162C525.145 292.394 530.99 289.631 530.53 287.55C529.689 283.747 508.532 286.108 508.011 283.126C507.791 281.865 511.454 280.284 515.397 278.522C518.38 277.201 521.542 275.78 523.364 274.339C524.385 273.518 524.985 272.697 524.905 271.877C524.605 268.914 515.878 268.934 515.257 265.431C515.157 264.831 515.297 264.23 515.657 263.63C516.938 261.428 520.882 259.246 524.265 257.044C527.387 255.043 530.049 253.021 529.729 250.959C529.429 248.958 526.526 248.417 515.657 244.534C500.885 239.25 501.926 238.729 498.763 238.509C488.215 237.769 483.831 244.294 477.066 241.712C472.542 239.99 470.04 235.406 468.618 231.663C417.836 233.405 367.034 235.146 316.252 236.888C316.913 238.869 317.854 241.872 318.634 245.635C319.035 247.517 319.215 248.818 319.375 249.779C319.615 251.38 319.695 252.04 320.276 252.981C323.699 258.406 334.147 256.564 334.347 258.205C334.467 259.346 329.483 260.848 325.26 262.249C322.097 263.31 319.355 264.291 319.455 265.031C319.635 266.232 327.121 265.391 327.902 267.853C328.603 270.035 323.238 272.597 323.879 274.679C324.759 277.521 335.588 276.28 336.309 277.802C336.329 277.822 336.349 277.862 336.349 277.902C336.529 279.083 331.005 279.663 329.924 283.126C329.183 285.428 331.045 287.089 331.505 288.871C331.645 289.351 331.685 289.852 331.525 290.372C330.344 294.355 320.516 293.415 316.773 295.697H316.753C316.112 296.077 315.652 296.577 315.452 297.198C314.671 299.66 318.795 301.241 321.437 306.806C321.737 307.426 322.017 308.127 322.277 308.867C324.279 314.692 322.057 316.974 324.279 319.716C326.941 322.959 331.865 321.598 341.974 321.718C354.984 321.878 353.563 324.12 360.069 323.339C374.38 321.598 378.944 311.049 387.411 313.691C391.995 315.113 391.415 318.455 397.46 320.517C401.763 321.978 403.725 320.837 412.732 320.517C423.821 320.117 423.541 321.758 428.866 320.737C438.814 318.836 438.674 313.391 445.699 312.871C454.427 312.25 456.088 320.617 469.82 323.74C471.881 324.2 476.685 324.32 486.313 324.54C503.668 324.941 507.01 323.92 507.611 322.118C508.351 319.976 504.108 318.115 504.808 315.693C505.589 312.951 511.434 313.711 519.601 310.929C520.021 310.789 520.441 310.629 520.882 310.469C526.566 308.327 533.052 304.484 532.551 302.422ZM495.521 247.777C502.727 246.656 510.713 250.439 510.573 253.101C510.453 255.563 503.407 257.445 498.003 257.385C493.159 257.325 486.633 255.663 486.433 253.181C486.273 250.959 491.277 248.437 495.521 247.777Z" fill="#696149"/>
<path d="M493.459 244.994C482.03 246.195 468.939 254.302 457.589 256.544C418.677 264.27 379.285 252.881 340.012 251.9C333.146 251.72 326.041 251.8 319.375 249.778C319.615 251.38 319.695 252.04 320.276 252.981C323.699 258.406 334.147 256.564 334.347 258.205C334.467 259.346 329.483 260.848 325.26 262.249C352.002 266.913 378.844 271.316 405.747 269.935C435.131 268.434 464.255 260.067 493.679 259.907C501.085 259.867 508.632 260.407 515.657 263.63C516.939 261.428 520.882 259.246 524.265 257.044C515.998 247.797 504.588 243.833 493.459 244.994ZM498.003 257.385C493.159 257.325 486.633 255.663 486.433 253.181C486.273 250.959 491.277 248.437 495.521 247.777C502.727 246.656 510.713 250.439 510.573 253.101C510.453 255.563 503.407 257.445 498.003 257.385Z" fill="#7C705B"/>
<path d="M523.364 274.339C521.542 275.78 518.379 277.201 515.397 278.522C509.953 276.28 504.468 274.599 498.803 274.559C485.913 274.459 473.803 282.826 461.172 286.549C453.105 288.911 444.839 289.391 436.592 289.752C401.583 291.313 366.514 291.013 331.505 288.871C331.044 287.089 329.183 285.428 329.924 283.126C331.004 279.663 336.529 279.083 336.349 277.902C336.349 277.862 336.329 277.822 336.309 277.802C343.054 276.38 349.96 276.22 356.405 277.181C386.911 281.685 419.057 284.427 449.382 277.882C463.994 274.719 478.527 270.275 493.279 269.415C503.387 268.834 513.756 270.055 523.364 274.339Z" fill="#7C705B"/>
<path d="M520.882 310.469C520.441 310.629 520.021 310.789 519.601 310.929C511.754 310.449 503.868 309.368 496.061 308.627C457.649 304.944 418.937 309.728 380.425 307.626C365.993 306.846 351.582 305.104 337.15 305.725C331.925 305.965 326.661 306.505 321.437 306.806C318.795 301.241 314.671 299.66 315.452 297.198C315.652 296.577 316.112 296.077 316.753 295.697H316.773C327.702 296.337 338.691 298.639 349.6 300.06C406.507 307.406 464.035 290.372 521.142 294.956C518.98 296.337 517.399 297.658 517.659 298.799C518.38 301.761 531.851 299.6 532.551 302.422C533.052 304.484 526.566 308.327 520.882 310.469Z" fill="#7C705B"/>
<path d="M355.337 243.854C366.544 243.854 375.628 240.164 375.628 235.611C375.628 231.059 366.544 227.368 355.337 227.368C344.131 227.368 335.046 231.059 335.046 235.611C335.046 240.164 344.131 243.854 355.337 243.854Z" fill="#5E8054"/>
<path d="M393.48 241.742C403.722 241.742 412.024 239.066 412.024 235.766C412.024 232.466 403.722 229.791 393.48 229.791C383.239 229.791 374.937 232.466 374.937 235.766C374.937 239.066 383.239 241.742 393.48 241.742Z" fill="#5E8054"/>
<path d="M328.444 241.297C336.973 241.297 343.888 238.943 343.888 236.039C343.888 233.136 336.973 230.782 328.444 230.782C319.914 230.782 313 233.136 313 236.039C313 238.943 319.914 241.297 328.444 241.297Z" fill="#5E8054"/>
<path d="M377.08 235.654C384.93 235.654 391.293 233.115 391.293 229.982C391.293 226.85 384.93 224.311 377.08 224.311C369.231 224.311 362.867 226.85 362.867 229.982C362.867 233.115 369.231 235.654 377.08 235.654Z" fill="#5E8054"/>
<path d="M419.291 242.167C427.667 242.167 434.458 238.854 434.458 234.767C434.458 230.681 427.667 227.368 419.291 227.368C410.914 227.368 404.123 230.681 404.123 234.767C404.123 238.854 410.914 242.167 419.291 242.167Z" fill="#5E8054"/>
<path d="M449.154 239.335C463.068 239.335 474.349 235.902 474.349 231.668C474.349 227.433 463.068 224 449.154 224C435.239 224 423.959 227.433 423.959 231.668C423.959 235.902 435.239 239.335 449.154 239.335Z" fill="#5E8054"/>
<path d="M455.397 245.619C460.178 245.619 464.054 243.684 464.054 241.297C464.054 238.91 460.178 236.975 455.397 236.975C450.616 236.975 446.74 238.91 446.74 241.297C446.74 243.684 450.616 245.619 455.397 245.619Z" fill="#5E8054"/>
<path d="M355.211 263.861C356.878 263.861 358.229 262.51 358.229 260.843C358.229 259.176 356.878 257.825 355.211 257.825C353.544 257.825 352.193 259.176 352.193 260.843C352.193 262.51 353.544 263.861 355.211 263.861Z" fill="#5E8054"/>
<path d="M358.229 241.099H352.193V260.843H358.229V241.099Z" fill="#5E8054"/>
<path d="M364.251 257.276C365.918 257.276 367.269 255.925 367.269 254.258C367.269 252.591 365.918 251.24 364.251 251.24C362.585 251.24 361.233 252.591 361.233 254.258C361.233 255.925 362.585 257.276 364.251 257.276Z" fill="#5E8054"/>
<path d="M367.269 234.514H361.233V254.258H367.269V234.514Z" fill="#5E8054"/>
<path d="M354.139 237.859C359.8 237.859 364.389 236.053 364.389 233.825C364.389 231.597 359.8 229.791 354.139 229.791C348.477 229.791 343.888 231.597 343.888 233.825C343.888 236.053 348.477 237.859 354.139 237.859Z" fill="#60975F"/>
<path d="M449.154 234.016C457.5 234.016 464.266 232.21 464.266 229.982C464.266 227.755 457.5 225.949 449.154 225.949C440.808 225.949 434.042 227.755 434.042 229.982C434.042 232.21 440.808 234.016 449.154 234.016Z" fill="#60975F"/>
<path d="M358.191 268.928L365.536 268.55C366.038 268.524 366.487 268.86 366.603 269.349L370.188 284.451C370.455 285.577 372.084 285.493 372.234 284.346L374.249 268.955C374.314 268.457 374.726 268.076 375.228 268.051L382.622 267.67C383.196 267.641 383.686 268.082 383.715 268.657L385.245 298.361C385.274 298.935 384.833 299.425 384.258 299.454L379.723 299.688C379.149 299.718 378.659 299.276 378.63 298.701L378.041 287.263C377.976 286.005 376.149 285.921 375.97 287.169L374.25 299.128C374.18 299.621 373.77 299.994 373.273 300.02L369.33 300.223C368.832 300.248 368.385 299.917 368.266 299.432L365.494 288.184C365.192 286.958 363.378 287.226 363.442 288.487L364.008 299.454C364.037 300.029 363.595 300.519 363.021 300.548L359.828 300.712C359.253 300.742 358.764 300.3 358.734 299.726L357.205 270.022C357.175 269.448 357.617 268.958 358.191 268.928Z" fill="#B7E0DC"/>
<path d="M388.733 267.355L401.31 266.708C401.888 266.678 402.38 267.122 402.41 267.7L402.561 270.641C402.591 271.219 402.146 271.712 401.568 271.742L395.608 272.048C395.03 272.078 394.585 272.571 394.615 273.149L394.924 279.157C394.954 279.735 395.447 280.179 396.025 280.15L400.069 279.942C400.647 279.912 401.139 280.357 401.169 280.935L401.323 283.923C401.353 284.501 400.908 284.994 400.33 285.024L396.287 285.232C395.709 285.261 395.264 285.754 395.294 286.332L395.626 292.772C395.655 293.35 396.148 293.795 396.726 293.765L402.687 293.459C403.265 293.429 403.757 293.873 403.787 294.451L403.939 297.391C403.969 297.969 403.524 298.462 402.946 298.492L390.37 299.14C389.792 299.17 389.299 298.725 389.269 298.147L387.74 268.455C387.71 267.877 388.155 267.384 388.733 267.355Z" fill="#B7E0DC"/>
<path d="M406.279 266.451L412.938 266.109C413.4 266.085 413.823 266.367 413.979 266.803L418.451 279.346C418.856 280.484 420.547 280.146 420.485 278.941L419.859 266.802C419.83 266.224 420.274 265.731 420.852 265.701L424.031 265.537C424.609 265.507 425.102 265.952 425.132 266.53L426.661 296.221C426.69 296.799 426.246 297.292 425.668 297.322L419.439 297.643C418.977 297.667 418.554 297.385 418.398 296.949L413.481 283.2C413.074 282.064 411.385 282.401 411.447 283.607L412.135 296.97C412.165 297.548 411.721 298.04 411.143 298.07L407.916 298.236C407.338 298.266 406.845 297.822 406.815 297.244L405.286 267.552C405.256 266.974 405.701 266.481 406.279 266.451Z" fill="#B7E0DC"/>
<path d="M431.527 270.199L428.874 270.335C428.296 270.365 427.804 269.921 427.774 269.343L427.622 266.402C427.592 265.824 428.037 265.331 428.615 265.301L442.629 264.58C443.207 264.55 443.7 264.994 443.729 265.572L443.881 268.513C443.911 269.091 443.467 269.584 442.888 269.614L440.237 269.75C439.659 269.78 439.214 270.273 439.244 270.851L440.516 295.555C440.546 296.133 440.101 296.626 439.523 296.656L435 296.889C434.422 296.919 433.93 296.474 433.9 295.896L432.628 271.191C432.598 270.613 432.105 270.169 431.527 270.199Z" fill="#B7E0DC"/>
<path d="M444.831 280.425C444.23 268.776 446.868 263.976 453.867 263.616C460.963 263.25 463.977 267.661 464.583 279.408C465.184 291.105 462.639 295.802 455.544 296.167C448.497 296.531 445.427 292.027 444.831 280.425ZM457.675 279.715C457.199 270.462 456.352 268.006 454.099 268.122C451.845 268.239 451.255 270.768 451.731 280.021C452.205 289.225 453.048 291.586 455.301 291.47C457.554 291.354 458.149 288.919 457.675 279.715Z" fill="#B7E0DC"/>
<path d="M466.882 264.38C466.852 263.802 467.296 263.309 467.874 263.28L474.018 262.963C482.695 262.516 485.6 264.77 485.961 271.769C486.141 275.264 485.555 277.336 483.776 278.501C483.173 278.896 483.19 279.807 483.792 280.203C487.344 282.543 486.22 289.071 487.309 292.85C487.498 293.504 487.043 294.161 486.363 294.196L481.525 294.446C481.055 294.47 480.624 294.181 480.472 293.735C479.043 289.535 481.128 282.064 476.122 282.322L475.489 282.354C474.912 282.384 474.467 282.877 474.497 283.455L475.026 293.73C475.056 294.308 474.611 294.801 474.033 294.831L469.511 295.064C468.933 295.093 468.44 294.649 468.411 294.071L466.882 264.38ZM475.873 277.48C478.413 277.349 479.363 276.195 479.17 272.455C478.97 268.573 477.864 267.62 475.323 267.75L474.74 267.78C474.162 267.81 473.717 268.303 473.747 268.881L474.14 276.52C474.17 277.098 474.663 277.542 475.241 277.513L475.873 277.48Z" fill="#B7E0DC"/>
<path d="M991.998 317.987L1059.55 341.531L1060.36 333.754L1014.29 311.708L991.998 317.987Z" fill="#5D533D"/>
<path d="M1117.16 257.85C1115.18 263.294 1105.01 262.414 1104.55 265.997C1104.51 266.257 1104.53 266.497 1104.59 266.717C1105.25 269.64 1112.08 271.461 1112.22 275.544C1112.38 281.129 1100.49 283.591 1100.83 288.655C1100.85 289.036 1100.95 289.396 1101.09 289.736C1101.99 291.878 1104.97 293.419 1107.25 294.86C1108.95 295.921 1110.27 296.942 1110.09 298.083C1109.73 300.565 1103.03 299.664 1101.65 302.967C1100.41 305.89 1104.41 309.613 1107.51 313.216C1109.61 315.618 1111.3 317.98 1110.76 320.001C1109.07 326.226 1087.32 324.945 1070.36 323.965C1057.29 323.184 1054.23 322.183 1039.52 321.683C1028.03 321.302 1022.28 321.122 1016.14 321.803C999.303 323.664 996.501 328.128 985.452 326.286C976.344 324.765 975.543 321.282 968.558 322.103C959.871 323.104 955.347 329.149 949.982 326.487C946.9 324.945 946.74 322.123 943.077 321.102C940.074 320.281 937.972 321.563 934.73 322.603C929.145 324.385 919.077 325.866 916.555 322.303C915.434 320.722 916.054 318.5 917.095 316.038C918.876 311.874 921.879 307.03 919.797 303.468C919.557 303.047 919.277 302.707 918.957 302.447C915.994 299.644 910.169 301.266 908.408 297.603C906.766 294.18 910.369 289.656 912.131 285.773C913.012 283.911 913.432 282.19 912.631 280.809C912.331 280.288 911.891 279.908 911.39 279.648H911.37C908.708 278.147 903.904 279.408 903.043 277.326C901.562 273.583 915.454 265.976 914.653 261.513C914.653 261.433 914.633 261.333 914.593 261.233C913.332 257.43 901.923 260.952 898.76 255.268C898.3 254.427 898.059 253.466 898.019 252.425C897.839 248.882 899.901 244.459 902.863 241.857C907.948 237.393 913.692 240.095 926.062 239.655C937.572 239.214 936.071 236.732 950.282 235.251C962.172 233.99 971.28 232.509 981.468 236.632C989.635 239.955 992.457 244.118 999.403 243.698C1007.33 243.218 1009.31 237.453 1018 234.671C1026.13 232.048 1031.71 234.771 1041.16 236.672C1060.79 240.656 1068.24 235.231 1082.37 235.011C1087.8 234.931 1085.79 235.711 1097.2 236.572C1108.67 237.453 1112.46 236.933 1114.62 239.855C1115.2 240.656 1115.16 241.016 1115.68 245.139C1115.86 246.6 1116.1 248.562 1116.5 251.204C1116.7 252.545 1116.86 253.586 1116.98 254.387C1117.36 256.829 1117.4 257.169 1117.16 257.85Z" fill="#696149"/>
<path d="M1116.98 254.387C1113.7 255.168 1110.38 255.768 1107.07 256.389C1068.16 263.555 1028.93 270.76 989.535 268.058C964.655 266.337 939.314 260.752 914.653 261.513C914.653 261.433 914.633 261.333 914.593 261.233C913.332 257.43 901.923 260.952 898.76 255.268C898.3 254.427 898.06 253.466 898.02 252.425C907.567 247.761 915.994 249.743 927.144 250.184C939.594 250.684 951.904 253.426 964.274 255.248C1008.69 261.773 1067.18 253.766 1115.68 245.139C1115.86 246.6 1116.1 248.562 1116.5 251.204C1116.7 252.545 1116.86 253.586 1116.98 254.387Z" fill="#7C705B"/>
<path d="M1112.22 275.544C1112.38 281.129 1100.49 283.591 1100.83 288.655C1100.85 289.036 1100.95 289.396 1101.09 289.736C1038.04 288.735 974.723 278.347 912.131 285.773C913.012 283.911 913.432 282.19 912.632 280.809C912.331 280.288 911.891 279.908 911.391 279.648C921.559 279.268 931.767 277.806 941.956 277.306C979.987 275.404 1003.85 282.37 1041.8 278.487C1055.37 277.086 1083.81 272.242 1097.16 268.639C1100.01 267.858 1102.45 267.238 1104.59 266.717C1105.25 269.64 1112.08 271.461 1112.22 275.544Z" fill="#7C705B"/>
<path d="M1101.65 302.967C1100.41 305.89 1104.41 309.613 1107.51 313.216C1091.22 314.637 1074.55 317.139 1058.15 316.138C1036.87 314.857 1010.95 304.048 989.755 306.53C965.515 309.352 941.235 317.059 917.095 316.038C918.877 311.874 921.879 307.03 919.797 303.468C919.557 303.047 919.277 302.707 918.957 302.447C945.178 298.163 974.483 295.561 999.163 296.422C1019.62 297.142 1040 301.106 1060.47 300.805C1075.29 300.565 1091.72 295.481 1107.25 294.86C1108.95 295.921 1110.28 296.942 1110.09 298.083C1109.73 300.565 1103.03 299.664 1101.65 302.967Z" fill="#7C705B"/>
<path d="M996.415 225.874C996.077 226.046 996.216 226.776 996.412 228.63C996.714 231.491 997.055 234.722 996.855 237.096C996.467 241.728 993.931 244.185 994.964 245.1C995.565 245.632 996.385 244.762 998.561 245.168C998.935 245.238 999.843 245.364 1000.95 245.133C1001.08 245.107 1001.21 245.064 1001.36 244.995C1003.62 244.001 1003.99 238.123 1002.27 233.382C1000.69 229.025 997.273 225.438 996.415 225.874Z" fill="#9CB09F"/>
<path d="M1003.11 232.691C1003.04 232.941 1002.89 233.271 1002.58 233.43C1002.06 233.696 1001.63 233.211 1000.94 233.409C1000.27 233.601 1000.33 234.123 999.764 234.202C999.18 234.284 998.921 233.758 998.234 233.833C997.798 233.881 997.731 234.111 997.277 234.202C996.723 234.313 996.181 234.101 995.823 233.916C995.994 233.339 996.149 232.707 996.27 232.026C996.415 231.209 996.489 230.448 996.517 229.757C998.06 229.555 999.609 229.349 1001.15 229.143C1001.18 229.356 1001.24 229.609 1001.33 229.888C1001.38 230.032 1001.49 230.348 1001.74 230.792C1002.2 231.624 1002.86 232.4 1003.11 232.691Z" fill="#707E72"/>
<path d="M990.782 222.593C990.509 222.926 987.097 227.162 988.339 230.089C988.732 231.016 989.781 232.264 990.589 232.111C991.122 232.01 991.424 231.323 991.907 231.528C992.182 231.644 992.232 231.93 992.466 232.219C992.967 232.838 993.62 232.617 995.346 232.578C997.298 232.534 997.504 232.776 998.073 232.391C998.658 231.995 998.729 231.529 999.324 231.418C999.846 231.32 1000.07 231.626 1000.78 231.824C1001.58 232.05 1002.18 231.9 1003.24 231.632C1004.17 231.397 1004.74 231.216 1005.27 230.624C1005.79 230.033 1005.7 229.577 1006.19 229.284C1006.84 228.905 1007.31 229.42 1007.83 229.079C1008.49 228.651 1008.51 227.337 1008.52 227.137C1008.56 224.245 1004.8 221.536 1004.25 221.139C1003.48 220.587 1000.78 218.692 997.224 219.043C996.391 219.125 993.272 219.551 990.782 222.593Z" fill="#335954"/>
<path d="M915.929 243.465C925.831 243.465 933.858 240.588 933.858 237.04C933.858 233.492 925.831 230.616 915.929 230.616C906.027 230.616 898 233.492 898 237.04C898 240.588 906.027 243.465 915.929 243.465Z" fill="#5E8054"/>
<path d="M948.528 243.375C961.199 241.23 970.847 235.81 970.079 231.27C969.31 226.729 958.415 224.788 945.745 226.933C933.074 229.077 923.425 234.497 924.194 239.037C924.963 243.578 935.857 245.52 948.528 243.375Z" fill="#5E8054"/>
<path d="M973.107 244.82C983.009 244.82 991.036 241.944 991.036 238.396C991.036 234.848 983.009 231.971 973.107 231.971C963.205 231.971 955.178 234.848 955.178 238.396C955.178 241.944 963.205 244.82 973.107 244.82Z" fill="#5E8054"/>
<path d="M995.877 249.017C1002.86 249.017 1008.52 246.702 1008.52 243.848C1008.52 240.993 1002.86 238.679 995.877 238.679C988.897 238.679 983.239 240.993 983.239 243.848C983.239 246.702 988.897 249.017 995.877 249.017Z" fill="#5E8054"/>
<path d="M1054.05 243.848C1061.03 243.848 1066.69 240.997 1066.69 237.481C1066.69 233.964 1061.03 231.114 1054.05 231.114C1047.07 231.114 1041.42 233.964 1041.42 237.481C1041.42 240.997 1047.07 243.848 1054.05 243.848Z" fill="#5E8054"/>
<path d="M1080.58 242.233C1091.27 242.233 1099.94 239.064 1099.94 235.154C1099.94 231.244 1091.27 228.074 1080.58 228.074C1069.88 228.074 1061.21 231.244 1061.21 235.154C1061.21 239.064 1069.88 242.233 1080.58 242.233Z" fill="#5E8054"/>
<path d="M1106.26 242.897C1112.37 242.897 1117.32 240.599 1117.32 237.766C1117.32 234.932 1112.37 232.635 1106.26 232.635C1100.16 232.635 1095.21 234.932 1095.21 237.766C1095.21 240.599 1100.16 242.897 1106.26 242.897Z" fill="#5E8054"/>
<path d="M1044.63 239.413C1045.22 235.553 1037.87 231.212 1028.19 229.717C1018.52 228.222 1010.19 230.139 1009.6 233.999C1009 237.859 1016.36 242.2 1026.03 243.695C1035.7 245.191 1044.03 243.273 1044.63 239.413Z" fill="#5E8054"/>
<path d="M1049.15 237.069C1058.84 237.069 1066.69 234.858 1066.69 232.131C1066.69 229.404 1058.84 227.192 1049.15 227.192C1039.47 227.192 1031.61 229.404 1031.61 232.131C1031.61 234.858 1039.47 237.069 1049.15 237.069Z" fill="#5E8054"/>
<path d="M926.312 256.659C927.979 256.659 929.33 255.308 929.33 253.641C929.33 251.974 927.979 250.623 926.312 250.623C924.645 250.623 923.294 251.974 923.294 253.641C923.294 255.308 924.645 256.659 926.312 256.659Z" fill="#5E8054"/>
<path d="M929.33 233.897H923.294V253.641H929.33V233.897Z" fill="#5E8054"/>
<path d="M1083.59 264.404C1085.26 264.404 1086.61 263.053 1086.61 261.386C1086.61 259.719 1085.26 258.368 1083.59 258.368C1081.93 258.368 1080.58 259.719 1080.58 261.386C1080.58 263.053 1081.93 264.404 1083.59 264.404Z" fill="#5E8054"/>
<path d="M1086.61 241.642H1080.58V261.386H1086.61V241.642Z" fill="#5E8054"/>
<path d="M1073.63 260.001C1075.3 260.001 1076.65 258.649 1076.65 256.983C1076.65 255.316 1075.3 253.965 1073.63 253.965C1071.97 253.965 1070.62 255.316 1070.62 256.983C1070.62 258.649 1071.97 260.001 1073.63 260.001Z" fill="#5E8054"/>
<path d="M1076.65 237.239H1070.62V256.983H1076.65V237.239Z" fill="#5E8054"/>
<path d="M950.76 236.33C956.886 235.672 961.658 233.322 961.417 231.082C961.176 228.841 956.015 227.559 949.888 228.217C943.762 228.875 938.991 231.225 939.231 233.465C939.472 235.706 944.634 236.989 950.76 236.33Z" fill="#60975F"/>
<path d="M1080.95 238.046C1086.16 238.046 1090.38 236.24 1090.38 234.012C1090.38 231.784 1086.16 229.978 1080.95 229.978C1075.74 229.978 1071.51 231.784 1071.51 234.012C1071.51 236.24 1075.74 238.046 1080.95 238.046Z" fill="#60975F"/>
<path d="M941.464 264.933L946.052 265.034C946.627 265.046 947.083 265.523 947.07 266.098L946.532 290.747C946.519 291.322 946.975 291.799 947.551 291.811L951.707 291.902C952.282 291.914 952.738 292.391 952.726 292.966L952.66 295.97C952.647 296.545 952.171 297.001 951.596 296.989L940.768 296.752C940.193 296.739 939.737 296.263 939.75 295.688L940.4 265.952C940.412 265.377 940.889 264.921 941.464 264.933Z" fill="#B7E0DC"/>
<path d="M956.868 265.27L961.408 265.369C961.983 265.382 962.439 265.858 962.427 266.433L961.776 296.217C961.764 296.792 961.287 297.248 960.712 297.236L956.172 297.137C955.597 297.124 955.141 296.648 955.153 296.073L955.804 266.289C955.816 265.714 956.293 265.258 956.868 265.27Z" fill="#B7E0DC"/>
<path d="M976.279 297.528L971.613 297.426C971.124 297.416 970.709 297.066 970.614 296.587L964.715 266.708C964.587 266.055 965.095 265.45 965.76 265.465L970.822 265.575C971.334 265.586 971.762 265.968 971.831 266.475L973.954 281.927C974.115 283.104 975.805 283.136 976.011 281.965L978.707 266.631C978.796 266.125 979.241 265.759 979.756 265.77L983.701 265.857C984.369 265.871 984.851 266.502 984.689 267.15L977.312 296.739C977.194 297.211 976.765 297.539 976.279 297.528Z" fill="#B7E0DC"/>
<path d="M988.06 265.952L1000.66 266.227C1001.24 266.24 1001.69 266.716 1001.68 267.291L1001.62 270.248C1001.6 270.823 1001.13 271.279 1000.55 271.266L994.573 271.136C993.998 271.123 993.521 271.579 993.509 272.154L993.377 278.182C993.364 278.757 993.82 279.234 994.395 279.246L998.456 279.335C999.031 279.347 999.487 279.824 999.475 280.399L999.409 283.404C999.396 283.979 998.92 284.435 998.345 284.423L994.284 284.334C993.709 284.321 993.232 284.777 993.22 285.353L993.079 291.813C993.066 292.388 993.522 292.864 994.097 292.876L1000.08 293.007C1000.65 293.019 1001.11 293.496 1001.1 294.071L1001.03 297.027C1001.02 297.602 1000.54 298.058 999.967 298.046L987.365 297.771C986.79 297.758 986.334 297.282 986.346 296.707L986.996 266.97C987.009 266.395 987.485 265.939 988.06 265.952Z" fill="#B7E0DC"/>
<path d="M1011.98 288.177L1016.01 288.266C1016.63 288.279 1017.1 288.839 1017.02 289.456C1016.55 292.894 1017.34 294.441 1019.38 294.485C1021.15 294.524 1022.14 293.345 1022.19 290.849C1022.34 284.13 1010.9 284.697 1011.14 273.994C1011.24 268.955 1014.57 266.147 1020.09 266.267C1026.72 266.412 1029.58 269.307 1028.36 274.901C1028.25 275.394 1027.82 275.751 1027.31 275.74L1023.74 275.662C1023.13 275.649 1022.67 275.113 1022.73 274.507C1022.99 271.817 1022.2 270.635 1020.33 270.594C1018.75 270.559 1017.91 271.694 1017.86 273.613C1017.72 280.14 1029.34 280.202 1029.12 290.089C1028.99 296.232 1025.86 299.044 1019.38 298.903C1012.79 298.759 1009.72 295.596 1010.94 289.008C1011.03 288.514 1011.48 288.166 1011.98 288.177Z" fill="#B7E0DC"/>
<path d="M1033.26 266.94L1037.8 267.039C1038.38 267.052 1038.84 267.528 1038.82 268.103L1038.17 297.887C1038.16 298.462 1037.68 298.918 1037.11 298.906L1032.57 298.807C1031.99 298.794 1031.54 298.318 1031.55 297.743L1032.2 267.959C1032.21 267.383 1032.69 266.927 1033.26 266.94Z" fill="#B7E0DC"/>
<path d="M1044.94 272.236L1042.27 272.178C1041.7 272.166 1041.24 271.689 1041.25 271.114L1041.32 268.158C1041.33 267.583 1041.81 267.127 1042.38 267.139L1056.42 267.446C1057 267.459 1057.46 267.935 1057.44 268.51L1057.38 271.467C1057.37 272.042 1056.89 272.498 1056.31 272.485L1053.65 272.427C1053.07 272.414 1052.59 272.87 1052.58 273.445L1052.04 298.19C1052.03 298.766 1051.55 299.222 1050.98 299.209L1046.44 299.11C1045.86 299.097 1045.4 298.621 1045.42 298.045L1045.96 273.3C1045.97 272.725 1045.51 272.249 1044.94 272.236Z" fill="#B7E0DC"/>
<path d="M1061 267.546L1073.6 267.821C1074.18 267.834 1074.63 268.31 1074.62 268.885L1074.56 271.842C1074.54 272.417 1074.07 272.873 1073.49 272.86L1067.51 272.73C1066.94 272.717 1066.46 273.173 1066.45 273.748L1066.32 279.776C1066.3 280.351 1066.76 280.828 1067.33 280.84L1071.4 280.929C1071.97 280.942 1072.43 281.418 1072.41 281.993L1072.35 284.999C1072.34 285.574 1071.86 286.03 1071.28 286.017L1067.22 285.928C1066.65 285.916 1066.17 286.372 1066.16 286.947L1066.02 293.407C1066.01 293.982 1066.46 294.458 1067.04 294.471L1073.02 294.601C1073.59 294.614 1074.05 295.09 1074.04 295.665L1073.97 298.622C1073.96 299.197 1073.48 299.653 1072.91 299.64L1060.3 299.365C1059.73 299.352 1059.27 298.876 1059.29 298.301L1059.94 268.564C1059.95 267.989 1060.42 267.533 1061 267.546Z" fill="#B7E0DC"/>
</g>
<defs>
<linearGradient id="paint0_linear_79_397" x1="1256.12" y1="312.15" x2="1256.12" y2="567.06" gradientUnits="userSpaceOnUse">
<stop stop-color="#2D6E54"/>
<stop offset="1" stop-color="#31514C"/>
</linearGradient>
<linearGradient id="paint1_linear_79_397" x1="191.281" y1="324.673" x2="191.281" y2="537.323" gradientUnits="userSpaceOnUse">
<stop stop-color="#2D6E54"/>
<stop offset="1" stop-color="#31514C"/>
</linearGradient>
<linearGradient id="paint2_linear_79_397" x1="1348.96" y1="223.115" x2="1348.96" y2="408.951" gradientUnits="userSpaceOnUse">
<stop stop-color="#5E533B"/>
<stop offset="1" stop-color="#443A2F"/>
</linearGradient>
<linearGradient id="paint3_linear_79_397" x1="92.7269" y1="287.943" x2="92.7269" y2="504.371" gradientUnits="userSpaceOnUse">
<stop stop-color="#5E533B"/>
<stop offset="1" stop-color="#443A2F"/>
</linearGradient>
<linearGradient id="paint4_linear_79_397" x1="142.347" y1="71.1917" x2="142.347" y2="345.249" gradientUnits="userSpaceOnUse">
<stop stop-color="#31514C"/>
<stop offset="1" stop-color="#1A3821"/>
</linearGradient>
<linearGradient id="paint5_linear_79_397" x1="1300.09" y1="0.620389" x2="1300.09" y2="295.61" gradientUnits="userSpaceOnUse">
<stop stop-color="#31514C"/>
<stop offset="1" stop-color="#1A3821"/>
</linearGradient>
<linearGradient id="paint6_linear_79_397" x1="219.864" y1="451.196" x2="219.864" y2="553.652" gradientUnits="userSpaceOnUse">
<stop stop-color="#1A3821"/>
<stop offset="1" stop-color="#0E2930"/>
</linearGradient>
<linearGradient id="paint7_linear_79_397" x1="149.155" y1="404.36" x2="149.155" y2="498.03" gradientUnits="userSpaceOnUse">
<stop stop-color="#1A3821"/>
<stop offset="1" stop-color="#0E2930"/>
</linearGradient>
<linearGradient id="paint8_linear_79_397" x1="84.535" y1="434.45" x2="84.535" y2="577.87" gradientUnits="userSpaceOnUse">
<stop stop-color="#1A3821"/>
<stop offset="1" stop-color="#0E2930"/>
</linearGradient>
<linearGradient id="paint9_linear_79_397" x1="806.651" y1="413.483" x2="806.651" y2="521.484" gradientUnits="userSpaceOnUse">
<stop stop-color="#1A3821"/>
<stop offset="1" stop-color="#0E2930"/>
</linearGradient>
<linearGradient id="paint10_linear_79_397" x1="422.818" y1="409.015" x2="422.818" y2="480.517" gradientUnits="userSpaceOnUse">
<stop stop-color="#1A3821"/>
<stop offset="1" stop-color="#0E2930"/>
</linearGradient>
<linearGradient id="paint11_linear_79_397" x1="609.327" y1="402.336" x2="609.327" y2="548.375" gradientUnits="userSpaceOnUse">
<stop stop-color="#1A3821"/>
<stop offset="1" stop-color="#0E2930"/>
</linearGradient>
<linearGradient id="paint12_linear_79_397" x1="1010.71" y1="430.996" x2="1010.71" y2="529.149" gradientUnits="userSpaceOnUse">
<stop stop-color="#1A3821"/>
<stop offset="1" stop-color="#0E2930"/>
</linearGradient>
<linearGradient id="paint13_linear_79_397" x1="315.769" y1="439.605" x2="315.769" y2="511.107" gradientUnits="userSpaceOnUse">
<stop stop-color="#1A3821"/>
<stop offset="1" stop-color="#0E2930"/>
</linearGradient>
<linearGradient id="paint14_linear_79_397" x1="406.276" y1="472.214" x2="406.276" y2="543.716" gradientUnits="userSpaceOnUse">
<stop stop-color="#1A3821"/>
<stop offset="1" stop-color="#0E2930"/>
</linearGradient>
<linearGradient id="paint15_linear_79_397" x1="890.539" y1="497.664" x2="890.539" y2="570.704" gradientUnits="userSpaceOnUse">
<stop stop-color="#1A3821"/>
<stop offset="1" stop-color="#0E2930"/>
</linearGradient>
<linearGradient id="paint16_linear_79_397" x1="1314.5" y1="369.27" x2="1314.5" y2="492.81" gradientUnits="userSpaceOnUse">
<stop stop-color="#1A3821"/>
<stop offset="1" stop-color="#0E2930"/>
</linearGradient>
<linearGradient id="paint17_linear_79_397" x1="1233.13" y1="407.435" x2="1233.13" y2="536.362" gradientUnits="userSpaceOnUse">
<stop stop-color="#1A3821"/>
<stop offset="1" stop-color="#0E2930"/>
</linearGradient>
<linearGradient id="paint18_linear_79_397" x1="1395.11" y1="431.14" x2="1395.11" y2="536.21" gradientUnits="userSpaceOnUse">
<stop stop-color="#1A3821"/>
<stop offset="1" stop-color="#0E2930"/>
</linearGradient>
<clipPath id="clip0_79_397">
<rect width="1440" height="692.923" fill="white" transform="translate(0 0.620392)"/>
</clipPath>
</defs>
</svg>
