<svg width="1440" height="232" viewBox="0 0 1440 232" fill="none" xmlns="http://www.w3.org/2000/svg">
<path d="M923.68 60.789C922.564 61.3189 922.975 63.6699 923.502 69.6306C924.315 78.8269 925.233 89.2131 924.436 96.8179C922.883 111.655 914.439 119.379 917.76 122.379C919.694 124.126 922.431 121.384 929.524 122.823C930.74 123.07 933.703 123.531 937.345 122.86C937.763 122.783 938.183 122.653 938.697 122.442C946.142 119.395 947.703 100.559 942.366 85.2423C937.46 71.1621 926.512 59.4435 923.68 60.789Z" fill="#94AE9B"/>
<path d="M905.457 49.9097C904.544 50.9619 893.124 64.3379 897.008 73.8055C898.238 76.805 901.593 80.8735 904.244 80.4337C905.995 80.1432 907.026 77.9578 908.592 78.6445C909.485 79.0358 909.632 79.9559 910.379 80.8976C911.979 82.9142 914.128 82.248 919.774 82.2297C926.162 82.2091 926.822 82.9989 928.705 81.7999C930.643 80.5658 930.904 79.0755 932.857 78.7549C934.571 78.4733 935.289 79.4714 937.579 80.1493C940.197 80.924 942.159 80.479 945.65 79.6875C948.722 78.9911 950.576 78.4468 952.342 76.5803C954.107 74.7156 953.811 73.2463 955.457 72.3368C957.583 71.1623 959.096 72.8446 960.831 71.7821C963.006 70.4501 963.158 66.2369 963.181 65.5937C963.516 56.3198 951.37 47.3929 949.592 46.0859C947.115 44.2648 938.386 38.0185 926.744 38.9224C924.015 39.1342 913.786 40.3045 905.457 49.9097Z" fill="#31514C"/>
<path d="M522.279 68.7024C523.046 69.1741 522.73 71.1794 522.286 76.2721C521.601 84.1292 520.827 93.0028 521.279 99.524C522.161 112.247 527.914 118.996 525.572 121.509C524.208 122.972 522.345 120.581 517.408 121.697C516.561 121.888 514.5 122.234 511.983 121.6C511.695 121.528 511.405 121.409 511.052 121.221C505.929 118.491 505.095 102.346 508.998 89.3248C512.586 77.3549 520.333 67.5046 522.279 68.7024Z" fill="#94AE9B"/>
<path d="M534.232 63.0204C534.884 63.8453 543.04 74.3265 540.383 81.4084C539.541 83.6521 537.212 86.6479 535.341 86.2392C534.105 85.9693 533.361 84.2804 532.263 84.7579C531.637 85.03 531.542 85.7247 531.023 86.4189C529.913 87.9056 528.394 87.3391 524.416 87.1664C519.916 86.9709 519.458 87.5523 518.122 86.5886C516.746 85.5967 516.55 84.4574 515.172 84.1589C513.962 83.8968 513.464 84.6346 511.856 85.0851C510.019 85.5998 508.633 85.2067 506.167 84.5072C503.998 83.8918 502.687 83.4261 501.428 81.9587C500.169 80.4927 500.365 79.3851 499.198 78.6479C497.691 77.6961 496.639 78.9312 495.408 78.0753C493.865 77.0023 493.722 73.7979 493.701 73.3087C493.388 66.2551 501.869 59.8165 503.111 58.8739C504.841 57.5604 510.937 53.0616 519.146 54.0758C521.07 54.3135 528.285 55.4902 534.232 63.0204Z" fill="#3E816F"/>
<path d="M226.104 53.3664C225.338 53.8381 225.653 55.8435 226.097 60.9361C226.782 68.7932 227.556 77.6669 227.104 84.1881C226.223 96.9111 220.469 103.66 222.812 106.173C224.175 107.636 226.038 105.245 230.975 106.361C231.822 106.552 233.883 106.898 236.4 106.265C236.689 106.192 236.978 106.073 237.332 105.885C242.455 103.155 243.288 87.0098 239.385 73.9889C235.797 62.0189 228.051 52.1687 226.104 53.3664Z" fill="#94AE9B"/>
<path d="M214.151 47.6844C213.499 48.5094 205.343 58.9906 208 66.0725C208.842 68.3161 211.171 71.3119 213.042 70.9033C214.278 70.6333 215.022 68.9444 216.12 69.422C216.746 69.694 216.841 70.3888 217.36 71.083C218.47 72.5697 219.989 72.0032 223.967 71.8304C228.467 71.635 228.925 72.2164 230.261 71.2527C231.637 70.2607 231.833 69.1215 233.211 68.823C234.421 68.5609 234.919 69.2987 236.527 69.7491C238.364 70.2639 239.75 69.8707 242.216 69.1712C244.385 68.5559 245.696 68.0902 246.955 66.6228C248.214 65.1567 248.018 64.0492 249.185 63.312C250.692 62.3601 251.744 63.5953 252.975 62.7394C254.518 61.6664 254.661 58.4619 254.682 57.9728C254.995 50.9192 246.514 44.4806 245.272 43.5379C243.542 42.2244 237.446 37.7257 229.237 38.7398C227.313 38.9775 220.098 40.1543 214.151 47.6844Z" fill="#3E816F"/>
<path d="M1294.92 50.164C1296.04 50.6939 1295.63 53.0449 1295.1 59.0056C1294.29 68.2019 1293.37 78.5881 1294.16 86.1929C1295.72 101.03 1304.16 108.754 1300.84 111.754C1298.91 113.501 1296.17 110.759 1289.08 112.198C1287.86 112.445 1284.9 112.906 1281.26 112.235C1280.84 112.158 1280.42 112.028 1279.9 111.817C1272.46 108.77 1270.9 89.9338 1276.24 74.6173C1281.14 60.5371 1292.09 48.8185 1294.92 50.164Z" fill="#94AE9B"/>
<path d="M1313.14 39.2851C1314.06 40.3374 1325.48 53.7134 1321.59 63.181C1320.36 66.1805 1317.01 70.249 1314.36 69.8092C1312.61 69.5187 1311.58 67.3334 1310.01 68.0201C1309.12 68.4114 1308.97 69.3314 1308.22 70.2731C1306.62 72.2897 1304.47 71.6235 1298.83 71.6052C1292.44 71.5846 1291.78 72.3744 1289.9 71.1754C1287.96 69.9413 1287.7 68.451 1285.74 68.1304C1284.03 67.8488 1283.31 68.8469 1281.02 69.5248C1278.4 70.2995 1276.44 69.8545 1272.95 69.063C1269.88 68.3666 1268.03 67.8223 1266.26 65.9558C1264.49 64.0911 1264.79 62.622 1263.14 61.7124C1261.02 60.538 1259.51 62.2201 1257.77 61.1576C1255.59 59.8256 1255.44 55.6124 1255.42 54.9692C1255.09 45.6952 1267.23 36.7683 1269.01 35.4614C1271.49 33.6403 1280.21 27.394 1291.86 28.2978C1294.59 28.5097 1304.82 29.68 1313.14 39.2851Z" fill="#255A54"/>
<path d="M97.2047 61.3912C97.9226 61.8429 97.6585 63.8472 97.3193 68.9288C96.7962 76.7688 96.2053 85.6231 96.7178 92.1063C97.7176 104.755 103.152 111.34 101.014 113.898C99.77 115.386 98.0082 113.05 93.4437 114.276C92.661 114.487 90.754 114.879 88.4101 114.308C88.1413 114.242 87.8708 114.131 87.5403 113.951C82.7488 111.353 81.7445 95.2955 85.1789 82.238C88.3362 70.2344 95.3818 60.2441 97.2047 61.3912Z" fill="#94AE9B"/>
<path d="M108.932 52.1164C109.52 53.0135 116.869 64.4167 114.37 72.488C113.578 75.0451 111.419 78.5135 109.713 78.1386C108.586 77.8909 107.923 76.0279 106.914 76.6133C106.34 76.9469 106.246 77.7312 105.765 78.534C104.735 80.2532 103.352 79.6853 99.718 79.6697C95.607 79.6522 95.1826 80.3255 93.9706 79.3033C92.7231 78.2512 92.5551 76.9807 91.2987 76.7073C90.1955 76.4673 89.7331 77.3182 88.2592 77.8961C86.575 78.5565 85.3121 78.1772 83.0651 77.5024C81.0881 76.9087 79.8952 76.4448 78.7585 74.8536C77.6228 73.2639 77.8129 72.0113 76.7536 71.2359C75.3858 70.2347 74.4121 71.6688 73.2953 70.763C71.8953 69.6275 71.7976 66.0356 71.7827 65.4873C71.5676 57.5811 79.3838 49.9708 80.5282 48.8566C82.1227 47.3041 87.7401 41.9791 95.2329 42.7496C96.989 42.9302 103.572 43.9279 108.932 52.1164Z" fill="#255A54"/>
<path d="M717.199 51.4604C716.174 51.9878 716.351 54.6422 716.348 61.342C716.344 71.6786 716.339 83.3527 715.041 91.8142C712.507 108.323 704.457 116.47 707.15 120.021C708.718 122.088 711.346 119.182 717.487 121.208C718.54 121.555 721.117 122.245 724.38 121.708C724.755 121.646 725.135 121.525 725.605 121.32C732.408 118.347 735.261 97.3646 731.757 79.9152C728.535 63.8743 719.802 50.1212 717.199 51.4604Z" fill="#94AE9B"/>
<path d="M701.984 38.2197C701.097 39.3434 689.979 53.6385 692.661 64.4588C693.511 67.8868 696.15 72.6355 698.521 72.299C700.088 72.0767 701.168 69.6921 702.496 70.5524C703.252 71.0425 703.309 72.0805 703.894 73.1779C705.147 75.5281 707.093 74.9088 712.074 75.2197C717.707 75.5714 718.227 76.4937 719.981 75.2628C721.787 73.9957 722.134 72.3438 723.881 72.0995C725.414 71.8851 725.97 73.0439 727.936 73.9367C730.182 74.957 731.947 74.5743 735.088 73.8936C737.851 73.2947 739.528 72.7944 741.232 70.8099C742.934 68.8271 742.788 67.1661 744.311 66.2451C746.277 65.0558 747.479 67.0266 749.092 65.9396C751.115 64.577 751.579 59.8722 751.65 59.154C752.672 48.7978 742.664 38.0977 741.198 36.5312C739.156 34.3483 731.95 26.8479 721.614 27.176C719.192 27.2529 710.081 27.962 701.984 38.2197Z" fill="#255A54"/>
<path d="M1127.68 89.4944C1128.55 89.9661 1128.19 91.9714 1127.69 97.0641C1126.91 104.921 1126.03 113.795 1126.54 120.316C1127.54 133.039 1134.07 139.788 1131.41 142.301C1129.86 143.764 1127.75 141.373 1122.15 142.489C1121.19 142.68 1118.86 143.026 1116 142.392C1115.68 142.32 1115.35 142.201 1114.95 142.013C1109.14 139.283 1108.19 123.138 1112.62 110.117C1116.69 98.1467 1125.47 88.2966 1127.68 89.4944Z" fill="#94AE9B"/>
<path d="M1141.23 83.8119C1141.97 84.6368 1151.22 95.1181 1148.2 102.2C1147.25 104.444 1144.61 107.439 1142.49 107.031C1141.09 106.761 1140.24 105.072 1139 105.55C1138.29 105.822 1138.18 106.516 1137.59 107.211C1136.33 108.697 1134.61 108.131 1130.1 107.958C1125 107.763 1124.48 108.344 1122.96 107.38C1121.4 106.388 1121.18 105.249 1119.62 104.95C1118.25 104.688 1117.68 105.426 1115.86 105.877C1113.78 106.391 1112.21 105.998 1109.41 105.299C1106.95 104.683 1105.46 104.218 1104.04 102.75C1102.61 101.284 1102.83 100.177 1101.51 99.4394C1099.8 98.4876 1098.61 99.7228 1097.21 98.8669C1095.46 97.794 1095.3 94.5895 1095.28 94.1003C1094.92 87.0468 1104.54 80.608 1105.94 79.6654C1107.91 78.3519 1114.82 73.8531 1124.13 74.8673C1126.31 75.105 1134.49 76.2818 1141.23 83.8119Z" fill="#3E816F"/>
<path d="M436.92 98.9941C436.063 99.524 436.379 101.875 436.783 107.836C437.407 117.032 438.112 127.418 437.501 135.023C436.308 149.86 429.824 157.585 432.374 160.584C433.859 162.331 435.961 159.59 441.408 161.028C442.342 161.275 444.617 161.736 447.414 161.065C447.734 160.988 448.057 160.858 448.452 160.647C454.169 157.6 455.367 138.764 451.269 123.447C447.502 109.367 439.095 97.6486 436.92 98.9941Z" fill="#94AE9B"/>
<path d="M422.927 88.1143C422.226 89.1665 413.456 102.542 416.439 112.01C417.384 115.01 419.96 119.078 421.995 118.638C423.34 118.348 424.131 116.162 425.335 116.849C426.02 117.24 426.133 118.16 426.706 119.102C427.935 121.119 429.585 120.453 433.921 120.434C438.827 120.414 439.333 121.204 440.779 120.005C442.268 118.77 442.468 117.28 443.967 116.959C445.284 116.678 445.835 117.676 447.594 118.354C449.604 119.129 451.111 118.684 453.792 117.892C456.151 117.196 457.574 116.651 458.93 114.785C460.285 112.92 460.059 111.451 461.323 110.541C462.955 109.367 464.116 111.049 465.449 109.987C467.12 108.655 467.236 104.442 467.254 103.798C467.511 94.5243 458.184 85.5974 456.819 84.2905C454.916 82.4694 448.213 76.2231 439.273 77.1269C437.178 77.3388 429.323 78.5091 422.927 88.1143Z" fill="#31514C"/>
<path d="M1000.97 195.976C1012.33 201.11 1032.68 190.629 1036.85 177.122C1040.23 166.213 1030.87 160.576 1033.33 149.218C1033.41 148.935 1033.46 148.69 1033.54 148.407C1034.45 144.949 1036.12 142.306 1038.22 140.112C1041.56 136.599 1046.06 134.222 1050.54 131.248C1054.67 128.512 1058.77 125.281 1061.91 120.303C1062.01 120.148 1062.11 119.962 1062.21 119.808C1064.56 115.859 1066.49 110.523 1066.71 103.293C1066.91 96.3329 1065.54 87.5501 1061.51 76.4634C1054.17 76.5368 1046.79 76.5843 1039.45 76.6255C1039.73 83.5205 1039.23 92.5114 1035.49 100.954C1034.24 103.744 1032.63 106.51 1030.57 109.095C1023.77 117.651 1016.22 119.17 1008.94 122.508C1005.52 124.1 1002.17 126.077 998.968 129.429C996.125 132.408 993.874 136.002 992.131 139.963C990.945 142.541 989.997 145.306 989.3 148.154C988.156 152.596 987.557 157.262 987.422 161.902C987.029 177.223 991.957 191.907 1000.97 195.976Z" fill="#94AE9B"/>
<path d="M1071.52 78.5978C1070.59 79.9266 1068.99 81.6679 1066.39 82.2439C1062.99 82.9988 1061.04 81.0464 1057.63 81.8608C1054.01 82.7244 1054.23 85.3892 1051.18 85.6952C1048.04 86.0101 1046.79 83.2914 1043.11 83.561C1040.77 83.7319 1040.36 84.8898 1037.91 85.2765C1034.93 85.7467 1032.1 84.5791 1030.23 83.5759C1031.28 80.6697 1032.26 77.4839 1033.06 74.0394C1034.03 69.909 1034.61 66.0522 1034.93 62.5432C1043.2 61.7781 1051.52 60.9897 1059.79 60.2002C1060.05 62.3854 1060.72 65.3772 1062.53 68.6863C1065.18 73.523 1069.01 76.7786 1071.52 78.5978Z" fill="#6D7F71"/>
<path d="M993.763 18.5043C980.742 29.2111 964.24 50.116 970.352 63.7389C972.844 69.2954 980.223 76.7427 986.569 75.7779C990.762 75.1404 993.514 70.99 997.132 72.194C999.193 72.88 999.41 74.5965 1001.05 76.3217C1004.56 80.0166 1009.75 78.654 1023.14 78.3202C1038.28 77.9427 1039.73 79.388 1044.37 77.0409C1049.14 74.625 1049.97 71.8182 1054.64 71.1137C1058.75 70.495 1060.31 72.3275 1065.64 73.4765C1071.74 74.7895 1076.45 73.8517 1084.84 72.1829C1093.69 70.4231 1098.1 69.4862 1101.15 66.0046C1103.58 63.2227 1103.5 61.0007 1106.51 59.2356C1110.34 56.9883 1113.25 58.9606 1116.19 57.5475C1121.33 55.0758 1121.63 44.6744 1121.04 39.9198C1118.55 19.9645 1088.79 8.17756 1082.67 5.91495C1055.99 -3.95132 1019.4 -2.58019 993.763 18.5043Z" fill="#255A54"/>
<path d="M1061.14 49.4649C1064.72 46.5996 1063.72 39.4017 1058.91 33.3878C1054.1 27.374 1047.3 24.8216 1043.71 27.6869C1040.13 30.5522 1041.13 37.7502 1045.94 43.764C1050.75 49.7779 1057.55 52.3303 1061.14 49.4649Z" fill="#2C6D53"/>
<path d="M1094.7 57.9456C1100.58 54.7825 1101.75 45.5284 1097.31 37.276C1092.87 29.0236 1084.5 24.8981 1078.62 28.0612C1072.74 31.2244 1071.58 40.4784 1076.02 48.7307C1080.46 56.9831 1088.82 61.1088 1094.7 57.9456Z" fill="#2C6D53"/>
<path d="M1001.55 35.1519C1005.42 31.6854 1006.68 26.7733 1004.36 24.1804C1002.04 21.5876 997.015 22.2958 993.144 25.7623C989.272 29.2289 988.016 34.141 990.338 36.7339C992.659 39.3267 997.68 38.6184 1001.55 35.1519Z" fill="#2C6D53"/>
<path d="M985.771 48.5319C988.381 46.1942 989.228 42.8815 987.663 41.133C986.097 39.3845 982.711 39.8621 980.101 42.1998C977.49 44.5375 976.643 47.8501 978.208 49.5986C979.774 51.3472 983.16 50.8696 985.771 48.5319Z" fill="#2C6D53"/>
<path d="M1024.06 16.8241C1027.93 16.0459 1030.64 13.3271 1030.13 10.7515C1029.61 8.17596 1026.05 6.71889 1022.19 7.49713C1018.32 8.27537 1015.61 10.9942 1016.12 13.5698C1016.64 16.1454 1020.2 17.6023 1024.06 16.8241Z" fill="#2C6D53"/>
<path d="M1105.55 30.2481C1107.09 28.4104 1106.15 25.0902 1103.45 22.8324C1100.75 20.5746 1097.32 20.2342 1095.78 22.0719C1094.24 23.9097 1095.18 27.2297 1097.88 29.4875C1100.58 31.7453 1104.01 32.0859 1105.55 30.2481Z" fill="#2C6D53"/>
<path d="M1013.17 64.5877C1013.97 61.0533 1012.37 57.6782 1009.6 57.0492C1006.82 56.4202 1003.92 58.7755 1003.12 62.3099C1002.32 65.8443 1003.92 69.2193 1006.69 69.8483C1009.47 70.4773 1012.37 68.1221 1013.17 64.5877Z" fill="#2C6D53"/>
<path d="M1013.22 40.1694C1013.92 37.279 1012.5 34.4619 1010.06 33.8772C1007.61 33.2926 1005.07 35.1617 1004.38 38.0521C1003.69 40.9425 1005.11 43.7596 1007.55 44.3443C1009.99 44.9289 1012.53 43.0598 1013.22 40.1694Z" fill="#2C6D53"/>
<path d="M1076.8 21.7327C1077.34 18.8113 1073.27 15.6077 1067.71 14.5774C1062.14 13.547 1057.19 15.08 1056.65 18.0014C1056.11 20.9228 1060.18 24.1263 1065.75 25.1567C1071.31 26.187 1076.26 24.6541 1076.8 21.7327Z" fill="#2C6D53"/>
<path d="M289.032 204.037C300.394 209.17 320.746 198.69 324.913 185.183C328.299 174.274 318.941 168.636 321.401 157.278C321.478 156.995 321.529 156.751 321.606 156.468C322.514 153.01 324.188 150.366 326.287 148.173C329.624 144.66 334.126 142.283 338.608 139.308C342.737 136.572 346.833 133.341 349.975 128.363C350.078 128.209 350.174 128.022 350.277 127.868C352.624 123.919 354.558 118.583 354.774 111.353C354.978 104.393 353.611 95.6107 349.574 84.5239C342.236 84.5973 334.858 84.6448 327.513 84.686C327.798 91.5811 327.301 100.572 323.553 109.014C322.309 111.805 320.693 114.57 318.64 117.156C311.839 125.711 304.29 127.231 297.007 130.569C293.583 132.16 290.238 134.137 287.035 137.489C284.192 140.468 281.941 144.063 280.198 148.024C279.012 150.602 278.064 153.367 277.367 156.214C276.223 160.656 275.624 165.322 275.489 169.962C275.096 185.283 280.024 199.967 289.032 204.037Z" fill="#94AE9B"/>
<path d="M318.757 86.6583C319.683 87.9872 321.282 89.7284 323.882 90.3044C327.291 91.0594 329.233 89.107 332.646 89.9214C336.265 90.7849 336.05 93.4497 339.097 93.7557C342.232 94.0706 343.485 91.3519 347.17 91.6216C349.504 91.7924 349.916 92.9503 352.364 93.337C355.342 93.8073 358.181 92.6396 360.047 91.6365C358.998 88.7302 358.021 85.5444 357.212 82.1C356.243 77.9696 355.667 74.1127 355.351 70.6038C347.074 69.8387 338.759 69.0502 330.482 68.2607C330.23 70.4459 329.554 73.4377 327.745 76.7468C325.1 81.5836 321.267 84.8391 318.757 86.6583Z" fill="#6D7F71"/>
<path d="M396.513 26.5648C409.535 37.2716 426.036 58.1765 419.925 71.7994C417.432 77.3558 410.053 84.8032 403.707 83.8383C399.514 83.2008 396.762 79.0505 393.144 80.2545C391.083 80.9404 390.866 82.657 389.228 84.3822C385.718 88.077 380.531 86.7144 367.141 86.3807C351.993 86.0032 350.542 87.4485 345.907 85.1014C341.137 82.6855 340.307 79.8787 335.634 79.1741C331.529 78.5555 329.967 80.3879 324.634 81.5369C318.538 82.85 313.824 81.9122 305.434 80.2434C296.587 78.4835 292.174 77.5466 289.129 74.065C286.696 71.2831 286.775 69.0611 283.765 67.2961C279.933 65.0487 277.025 67.0211 274.087 65.608C268.947 63.1363 268.646 52.7348 269.239 47.9803C271.731 28.025 301.486 16.2381 307.604 13.9755C334.284 4.10927 370.871 5.48027 396.513 26.5648Z" fill="#255A54"/>
<path d="M344.337 51.8241C349.148 45.8103 350.144 38.6123 346.562 35.747C342.98 32.8817 336.177 35.434 331.366 41.4479C326.555 47.4617 325.559 54.6597 329.141 57.525C332.723 60.3903 339.526 57.8379 344.337 51.8241Z" fill="#2C6D53"/>
<path d="M314.259 56.7913C318.699 48.539 317.531 39.2848 311.651 36.1217C305.772 32.9586 297.406 37.0842 292.967 45.3366C288.527 53.5889 289.695 62.843 295.574 66.0061C301.454 69.1693 309.82 65.0437 314.259 56.7913Z" fill="#2C6D53"/>
<path d="M399.939 44.7942C402.26 42.2014 401.004 37.2893 397.133 33.8228C393.261 30.3562 388.241 29.6479 385.919 32.2408C383.597 34.8336 384.854 39.7457 388.725 43.2123C392.597 46.6788 397.617 47.3871 399.939 44.7942Z" fill="#2C6D53"/>
<path d="M412.068 57.6594C413.633 55.9109 412.786 52.5984 410.175 50.2606C407.564 47.9229 404.179 47.4453 402.613 49.1939C401.048 50.9424 401.895 54.2549 404.505 56.5926C407.116 58.9303 410.502 59.408 412.068 57.6594Z" fill="#2C6D53"/>
<path d="M374.151 21.6298C374.669 19.0543 371.955 16.3354 368.089 15.5572C364.223 14.779 360.668 16.236 360.15 18.8116C359.631 21.3872 362.345 24.106 366.212 24.8842C370.078 25.6625 373.633 24.2054 374.151 21.6298Z" fill="#2C6D53"/>
<path d="M292.398 37.5479C295.095 35.2902 296.035 31.97 294.496 30.1323C292.958 28.2945 289.525 28.6351 286.827 30.8929C284.13 33.1507 283.19 36.4707 284.729 38.3084C286.267 40.1462 289.701 39.8057 292.398 37.5479Z" fill="#2C6D53"/>
<path d="M383.583 77.9083C386.356 77.2793 387.955 73.9043 387.153 70.3699C386.352 66.8355 383.454 64.4802 380.68 65.1092C377.907 65.7381 376.308 69.1133 377.11 72.6477C377.911 76.1821 380.809 78.5373 383.583 77.9083Z" fill="#2C6D53"/>
<path d="M382.727 52.4045C385.169 51.8199 386.588 49.0027 385.896 46.1123C385.204 43.2219 382.663 41.3528 380.221 41.9375C377.779 42.5221 376.36 45.3392 377.052 48.2296C377.744 51.12 380.284 52.9892 382.727 52.4045Z" fill="#2C6D53"/>
<path d="M324.529 33.2171C330.094 32.1867 334.168 28.9832 333.627 26.0618C333.086 23.1404 328.136 21.6074 322.57 22.6378C317.004 23.6681 312.931 26.8717 313.472 29.7931C314.013 32.7144 318.963 34.2474 324.529 33.2171Z" fill="#2C6D53"/>
<path d="M1440 103.119V231.999H0V110.419H265.12L310.11 120.149L316.55 136.249L319.84 144.469L387.94 127.439L412.26 149.329L425.64 129.879L440.23 157.849L456.62 138.729L476.71 115.279L569.13 103.119H901.5L955.94 109.199L967.31 117.199L986.19 130.479L997.67 157.849L1056.82 127.209L1068.11 121.359L1082.4 132.319L1096.67 143.249L1109.77 136.019L1119.82 130.479L1129.59 136.839L1135.71 140.819L1138.66 136.619L1162.17 103.119H1440Z" fill="#7F6F58"/>
<path d="M1440 114.299V160.739C1423.41 161.429 1397.52 159.409 1355.66 153.819C1296.26 145.889 1289.53 142.119 1264.3 143.809C1232.82 145.919 1229.44 152.729 1189.22 160.079C1150.67 167.119 1148.28 161.869 1075.34 166.329C995.94 171.189 994.6 177.669 962.71 172.589C929.15 167.249 920.19 158.409 883.87 156.319C860.74 154.989 857.39 158.179 812.54 162.579C769.46 166.799 728.04 170.869 678.64 166.329C644.69 163.219 643.43 159.389 614.82 158.819C576.97 158.079 572.49 164.639 532.23 166.329C495.3 167.879 495.55 162.509 432.37 160.589C400.19 159.609 400.58 161.019 360.78 160.079C299.36 158.619 305.28 155.429 277.37 156.219C212.82 158.029 202.8 174.509 156.8 166.329C145.28 164.289 136.15 161.519 111.75 157.569C81.86 152.739 66.91 150.319 55.44 151.319C27.16 153.759 14.13 165.899 0 167.839V124.339C8.51001 123.439 17.41 122.959 25.4 122.529C56.57 120.869 82.12 124.349 94.23 126.289C139.15 133.479 146.55 143.089 171.82 138.799C193.87 135.059 192.86 126.969 214.37 123.789C244.06 119.389 256.7 133.229 287.04 137.489C299.87 139.289 308.61 138.359 316.55 136.249L319.84 144.469L387.94 127.439L412.26 149.329L425.64 129.879L440.23 157.849L456.62 138.729C466.66 140.969 478.41 142.519 493.43 142.559C530.44 142.639 526.75 133.349 587.29 125.039C648.51 116.629 698.87 119.719 717.49 121.209C779.3 126.149 789.84 137.229 840.07 135.049C874 133.579 886.69 127.759 917.76 122.379C936.11 119.199 952.45 117.629 967.31 117.199L986.19 130.479L997.67 157.849L1056.82 127.209C1065.38 128.999 1073.82 130.779 1082.4 132.319L1096.67 143.249L1109.77 136.019C1116.14 136.559 1122.72 136.859 1129.59 136.839L1135.71 140.819L1138.66 136.619C1152.75 136.019 1168.12 134.019 1185.46 130.039C1216.35 122.949 1237.69 113.159 1279.9 111.819C1318.81 110.589 1321.11 118.259 1366.92 118.779C1398.55 119.139 1422.6 115.769 1440 114.299Z" fill="#6C6146"/>
<path d="M1440 184.669V213.589C1417.7 210.609 1384.33 205.319 1344.73 209.069C1317.22 211.669 1309.28 216.499 1280.94 215.739C1253.94 215.019 1242.07 210.129 1221.6 207.579C1180.31 202.459 1151.82 212.829 1125.18 218.709C1069.73 230.939 1065.89 214.069 949.39 211.289C864.93 209.279 862.15 218.039 754.98 216.389C693.82 215.449 698.69 212.659 644.85 212.639C554.28 212.589 545.77 220.499 477.65 217.969C410.68 215.479 410.45 207.529 347.11 206.839C284.06 206.159 286.21 214.059 216.87 215.139C112.97 216.759 111.34 198.969 51.17 210.549C32.44 214.149 14.78 219.299 0 222.649V180.259C11.12 179.139 25.61 178.959 44.54 180.329C98.54 184.239 105.18 194.699 144.29 198.869C211.6 206.039 217.98 177.829 297.42 181.619C341.01 183.709 344.99 192.479 389.56 191.359C433.81 190.249 442.64 181.279 482.11 178.659C543.64 174.569 540.33 195.159 604.81 195.119C669.25 195.069 689.53 174.489 752.5 184.579C766.69 186.849 774.33 189.279 791.27 190.109C830.17 192.009 846.12 181.909 881.15 181.619C906.65 181.409 903.88 186.709 938.94 190.109C1000.47 196.069 1010.72 179.899 1069.55 185.329C1105.91 188.689 1109.57 195.569 1140.01 194.229C1170.31 192.909 1185.38 185.279 1210.47 178.659C1244.62 169.649 1279.23 170.919 1348.43 173.469C1393.49 175.129 1421.83 178.789 1440 184.669Z" fill="#6C6146"/>
<path opacity="0.5" d="M1440 103.119V231.999H0V110.419H265.12L310.11 120.149L316.55 136.249L319.84 144.469L387.94 127.439L412.26 149.329L425.64 129.879L440.23 157.849L456.62 138.729L476.71 115.279L569.13 103.119H901.5L955.94 109.199L967.31 117.199L986.19 130.479L997.67 157.849L1056.82 127.209L1068.11 121.359L1082.4 132.319L1096.67 143.249L1109.77 136.019L1119.82 130.479L1129.59 136.839L1135.71 140.819L1138.66 136.619L1162.17 103.119H1440Z" fill="url(#paint0_linear_79_870)"/>
<path d="M836.275 106.315C836.49 95.0351 815.548 85.4888 789.499 84.9926C763.45 84.4964 742.159 93.2381 741.944 104.518C741.729 115.797 762.671 125.344 788.72 125.84C814.769 126.336 836.061 117.594 836.275 106.315Z" fill="#54804F"/>
<path d="M755.168 110.713C755.318 102.842 742.271 96.2108 726.026 95.9013C709.781 95.5919 696.49 101.722 696.34 109.593C696.19 117.464 709.238 124.095 725.483 124.405C741.728 124.714 755.018 118.584 755.168 110.713Z" fill="#54804F"/>
<path d="M924.476 104.568C924.683 93.7076 898.468 84.4007 865.922 83.7807C833.377 83.1607 806.826 91.4624 806.619 102.323C806.412 113.184 832.628 122.49 865.173 123.11C897.718 123.73 924.27 115.429 924.476 104.568Z" fill="#54804F"/>
<path d="M950.068 114.805C950.219 106.849 937.646 100.159 921.985 99.8604C906.325 99.5621 893.506 105.769 893.354 113.724C893.203 121.679 905.776 128.37 921.437 128.668C937.098 128.966 949.916 122.76 950.068 114.805Z" fill="#54804F"/>
<path d="M910.541 128.161C910.681 120.836 897.83 114.652 881.839 114.347C865.848 114.042 852.771 119.733 852.632 127.057C852.492 134.382 865.342 140.566 881.334 140.871C897.325 141.176 910.402 135.485 910.541 128.161Z" fill="#54804F"/>
<path d="M528.33 113.853C528.464 106.813 515.956 100.865 500.392 100.568C484.828 100.272 472.103 105.739 471.968 112.779C471.834 119.82 484.343 125.768 499.906 126.064C515.47 126.361 528.196 120.894 528.33 113.853Z" fill="#54804F"/>
<path d="M586.421 113.508C586.609 103.631 569.925 95.3033 549.155 94.9077C528.386 94.512 511.397 102.198 511.208 112.075C511.02 121.952 527.705 130.28 548.474 130.675C569.243 131.071 586.233 123.385 586.421 113.508Z" fill="#54804F"/>
<path d="M567.667 131.872C567.759 127.073 559.233 123.019 548.624 122.817C538.015 122.615 529.34 126.341 529.249 131.141C529.158 135.94 537.684 139.994 548.293 140.196C558.902 140.398 567.576 136.672 567.667 131.872Z" fill="#54804F"/>
<path d="M700.652 106.651C700.856 95.9551 678.739 86.8601 651.252 86.3365C623.765 85.8128 601.317 94.0589 601.114 104.754C600.91 115.45 623.027 124.545 650.514 125.069C678.001 125.592 700.448 117.346 700.652 106.651Z" fill="#54804F"/>
<path d="M631.801 113.774C631.941 106.414 617.627 100.172 599.828 99.8332C582.03 99.4941 567.488 105.186 567.348 112.546C567.207 119.906 581.522 126.148 599.321 126.487C617.119 126.826 631.661 121.134 631.801 113.774Z" fill="#54804F"/>
<path d="M724.781 121.735C724.924 114.257 709.117 107.89 689.477 107.516C669.836 107.142 653.798 112.902 653.656 120.38C653.513 127.859 669.32 134.225 688.961 134.599C708.601 134.974 724.639 129.214 724.781 121.735Z" fill="#54804F"/>
<path d="M653.865 129.754C653.962 124.647 644.03 120.317 631.681 120.082C619.332 119.846 609.243 123.796 609.145 128.902C609.048 134.009 618.98 138.34 631.329 138.575C643.678 138.81 653.768 134.861 653.865 129.754Z" fill="#54804F"/>
<path d="M977.589 116.338C979.144 109.906 966.366 101.296 949.047 97.108C931.728 92.9199 916.427 94.7392 914.871 101.172C913.316 107.604 926.095 116.214 943.414 120.402C960.733 124.59 976.033 122.771 977.589 116.338Z" fill="#54804F"/>
<path d="M614.013 180.545C619.18 180.545 623.369 176.356 623.369 171.188C623.369 166.021 619.18 161.832 614.013 161.832C608.846 161.832 604.657 166.021 604.657 171.188C604.657 176.356 608.846 180.545 614.013 180.545Z" fill="#54804F"/>
<path d="M604.658 171.01L623.368 171.367L624.298 122.561L605.588 122.204L604.658 171.01Z" fill="#54804F"/>
<path d="M656.002 165.86C661.17 165.86 665.359 161.671 665.359 156.504C665.359 151.336 661.17 147.147 656.002 147.147C650.835 147.147 646.646 151.336 646.646 156.504C646.646 161.671 650.835 165.86 656.002 165.86Z" fill="#54804F"/>
<path d="M646.648 156.326L665.357 156.682L666.287 107.876L647.578 107.52L646.648 156.326Z" fill="#54804F"/>
<path d="M806.588 167.858C811.756 167.858 815.945 163.669 815.945 158.502C815.945 153.334 811.756 149.146 806.588 149.146C801.421 149.146 797.232 153.334 797.232 158.502C797.232 163.669 801.421 167.858 806.588 167.858Z" fill="#54804F"/>
<path d="M797.234 158.324L815.943 158.68L816.873 109.874L798.164 109.518L797.234 158.324Z" fill="#54804F"/>
<path d="M904.469 102.265C904.807 97.3132 891.827 92.3941 875.478 91.2776C859.128 90.1611 845.6 93.2699 845.262 98.2214C844.924 103.173 857.904 108.092 874.253 109.209C890.603 110.325 904.13 107.216 904.469 102.265Z" fill="#4D9859"/>
<path d="M781.899 109.009C794.129 108.133 803.777 103.688 803.447 99.0799C803.117 94.4721 792.934 91.4469 780.704 92.3229C768.473 93.199 758.826 97.6446 759.156 102.252C759.486 106.86 769.668 109.885 781.899 109.009Z" fill="#4D9859"/>
<path d="M687.02 103.764C687.392 98.3067 676.539 93.1206 662.778 92.1808C649.018 91.2411 637.56 94.9036 637.188 100.361C636.815 105.819 647.668 111.005 661.429 111.945C675.19 112.884 686.647 109.222 687.02 103.764Z" fill="#4D9859"/>
<path d="M558.494 106.198C558.559 102.786 552.062 99.8957 543.981 99.7418C535.901 99.5878 529.298 102.229 529.233 105.64C529.168 109.052 535.666 111.943 543.746 112.097C551.826 112.251 558.429 109.61 558.494 106.198Z" fill="#4D9859"/>
<path d="M174.394 112.295C174.412 102.862 153.084 95.1738 126.755 95.123C100.427 95.0723 79.0692 102.678 79.051 112.111C79.0328 121.544 100.361 129.232 126.69 129.283C153.018 129.334 174.376 121.728 174.394 112.295Z" fill="#54804F"/>
<path d="M194.932 101.509C194.949 92.4703 176.728 85.1076 154.234 85.0642C131.74 85.0208 113.49 92.3132 113.473 101.352C113.456 110.391 131.677 117.754 154.171 117.797C176.665 117.841 194.914 110.548 194.932 101.509Z" fill="#54804F"/>
<path d="M219.462 115.503C219.477 107.801 206.611 101.532 190.726 101.502C174.84 101.471 161.95 107.69 161.936 115.392C161.921 123.094 174.787 129.363 190.672 129.394C206.558 129.424 219.447 123.205 219.462 115.503Z" fill="#54804F"/>
<path d="M88.92 107.249C88.9 119.749 65.61 129.829 36.91 129.779C22.47 129.749 9.40997 127.159 0 123.009V91.1785C9.42999 87.0486 22.52 84.4986 36.99 84.5286C65.7 84.5786 88.95 94.7586 88.92 107.249Z" fill="#54804F"/>
<path d="M102.175 125.972C102.188 119.175 89.5418 113.641 73.9283 113.611C58.3147 113.58 45.6467 119.066 45.6336 125.863C45.6205 132.661 58.2672 138.195 73.8808 138.225C89.4944 138.256 102.162 132.77 102.175 125.972Z" fill="#54804F"/>
<path d="M93.0288 182.875C99.4537 182.875 104.662 177.667 104.662 171.242C104.662 164.817 99.4537 159.608 93.0288 159.608C86.6039 159.608 81.3955 164.817 81.3955 171.242C81.3955 177.667 86.6039 182.875 93.0288 182.875Z" fill="#54804F"/>
<path d="M81.3956 171.219L104.662 171.264L104.779 110.569L81.5127 110.525L81.3956 171.219Z" fill="#54804F"/>
<path d="M178.171 101.477C178.181 96.4703 168.575 92.3929 156.717 92.37C144.859 92.3472 135.238 96.3875 135.228 101.394C135.219 106.401 144.824 110.478 156.682 110.501C168.541 110.524 178.161 106.484 178.171 101.477Z" fill="#4D9859"/>
<path d="M72.6643 103.054C72.9606 97.3406 60.5163 92.0509 44.869 91.2393C29.2217 90.4277 16.2968 94.4014 16.0005 100.115C15.7041 105.828 28.1485 111.118 43.7958 111.93C59.443 112.741 72.3679 108.767 72.6643 103.054Z" fill="#4D9859"/>
<path d="M303.446 117.31C303.538 110.901 292.383 105.544 278.529 105.345C264.676 105.145 253.371 110.179 253.278 116.588C253.186 122.997 264.342 128.355 278.195 128.554C292.049 128.753 303.354 123.719 303.446 117.31Z" fill="#54804F"/>
<path d="M270.602 113.346C270.753 102.846 253.917 94.0899 232.997 93.7888C212.077 93.4877 194.996 101.756 194.844 112.256C194.693 122.756 211.53 131.512 232.45 131.813C253.37 132.114 270.451 123.846 270.602 113.346Z" fill="#54804F"/>
<path d="M251.785 132.975C251.858 127.874 243.255 123.613 232.57 123.459C221.884 123.305 213.162 127.317 213.089 132.418C213.015 137.52 221.618 141.781 232.304 141.935C242.99 142.089 251.712 138.077 251.785 132.975Z" fill="#54804F"/>
<path d="M255.881 105.929C255.934 102.302 249.012 99.262 240.422 99.1383C231.832 99.0147 224.826 101.855 224.774 105.482C224.722 109.109 231.643 112.149 240.233 112.273C248.823 112.396 255.829 109.556 255.881 105.929Z" fill="#4D9859"/>
<path d="M1292.19 102.29C1292.43 93.6912 1277.71 86.3048 1259.32 85.7916C1240.93 85.2785 1225.83 91.8329 1225.59 100.431C1225.35 109.03 1240.06 116.416 1258.45 116.929C1276.84 117.442 1291.95 110.888 1292.19 102.29Z" fill="#54804F"/>
<path d="M1440 90.2088V122.349C1432.71 124.349 1423.88 125.389 1414.4 125.129C1389.78 124.439 1370.06 115.189 1370.36 104.469C1370.66 93.7489 1390.86 85.6189 1415.48 86.3089C1424.58 86.5589 1433.01 87.9789 1440 90.2088Z" fill="#54804F"/>
<path d="M1335.17 113.321C1335.39 105.304 1320.65 98.3878 1302.23 97.8739C1283.82 97.36 1268.7 103.443 1268.48 111.46C1268.26 119.477 1283 126.393 1301.42 126.907C1319.84 127.421 1334.95 121.338 1335.17 113.321Z" fill="#54804F"/>
<path d="M1391.8 98.8461C1392.12 87.3833 1367.23 77.389 1336.2 76.5231C1305.17 75.6573 1279.75 84.2478 1279.43 95.7106C1279.11 107.173 1304.01 117.168 1335.04 118.034C1366.07 118.899 1391.48 110.309 1391.8 98.8461Z" fill="#54804F"/>
<path d="M1402.29 124.786C1402.47 118.207 1390.37 112.533 1375.26 112.111C1360.14 111.689 1347.75 116.68 1347.56 123.259C1347.38 129.838 1359.48 135.513 1374.59 135.934C1389.7 136.356 1402.1 131.365 1402.29 124.786Z" fill="#54804F"/>
<path d="M1179.25 112.881C1193.29 111.269 1204.14 105.31 1203.48 99.5712C1202.82 93.8323 1190.91 90.4866 1176.86 92.0983C1162.82 93.71 1151.97 99.6689 1152.63 105.408C1153.29 111.147 1165.21 114.492 1179.25 112.881Z" fill="#54804F"/>
<path d="M1249.01 100.58C1249.69 91.6712 1236.16 83.3851 1218.8 82.0721C1201.44 80.7592 1186.82 86.9165 1186.14 95.8249C1185.47 104.733 1199 113.019 1216.36 114.332C1233.72 115.645 1248.34 109.488 1249.01 100.58Z" fill="#54804F"/>
<path d="M1217.22 168.707C1223.64 168.707 1228.85 163.499 1228.85 157.074C1228.85 150.649 1223.64 145.44 1217.22 145.44C1210.79 145.44 1205.58 150.649 1205.58 157.074C1205.58 163.499 1210.79 168.707 1217.22 168.707Z" fill="#54804F"/>
<path d="M1228.59 96.3292L1205.32 96.4297L1205.58 157.124L1228.85 157.023L1228.59 96.3292Z" fill="#54804F"/>
<path d="M1317.6 192.925C1324.02 192.925 1329.23 187.716 1329.23 181.292C1329.23 174.867 1324.02 169.658 1317.6 169.658C1311.17 169.658 1305.97 174.867 1305.97 181.292C1305.97 187.716 1311.17 192.925 1317.6 192.925Z" fill="#54804F"/>
<path d="M1328.97 120.547L1305.7 120.647L1305.97 181.342L1329.23 181.241L1328.97 120.547Z" fill="#54804F"/>
<path d="M1373.63 95.0868C1373.78 89.671 1359.41 84.8762 1341.53 84.3772C1323.64 83.8782 1309.03 87.8641 1308.87 93.2798C1308.72 98.6956 1323.1 103.49 1340.98 103.989C1358.86 104.488 1373.48 100.503 1373.63 95.0868Z" fill="#4D9859"/>
<path d="M1434.96 100.05C1435.09 95.4743 1426.23 91.5144 1415.17 91.2059C1404.12 90.8974 1395.05 94.3571 1394.92 98.9333C1394.79 103.509 1403.65 107.469 1414.71 107.778C1425.77 108.086 1434.83 104.627 1434.96 100.05Z" fill="#4D9859"/>
<path d="M1230.25 94.1982C1230.35 90.5149 1223.22 87.3276 1214.32 87.0793C1205.42 86.831 1198.12 89.6156 1198.02 93.299C1197.92 96.9823 1205.05 100.17 1213.95 100.418C1222.85 100.666 1230.14 97.8816 1230.25 94.1982Z" fill="#4D9859"/>
<path d="M1343.45 128.659C1343.45 128.659 1346.6 143.914 1342.34 146.766C1336.09 150.941 1323.28 142.537 1324.57 137.513C1325.86 132.488 1338.36 125.681 1338.36 125.681L1343.45 128.659Z" fill="#773A79"/>
<path d="M1337.2 126.288C1337.2 126.288 1323.66 134.003 1319.63 130.828C1313.73 126.18 1317.77 111.398 1322.94 111.07C1328.12 110.742 1338.46 120.527 1338.46 120.527L1337.2 126.288Z" fill="#773A79"/>
<path d="M1337.52 119.612C1337.52 119.612 1326 109.125 1327.77 104.311C1330.37 97.2633 1345.68 96.531 1347.59 101.353C1349.5 106.175 1343.39 119.03 1343.39 119.03L1337.52 119.612Z" fill="#773A79"/>
<path d="M1343.97 117.857C1343.97 117.857 1350.38 103.66 1355.51 103.86C1363.01 104.152 1368.44 118.482 1364.45 121.79C1360.45 125.098 1346.34 123.257 1346.34 123.257L1343.97 117.857Z" fill="#773A79"/>
<path d="M1347.63 123.448C1347.63 123.448 1363.11 125.161 1364.51 130.098C1366.55 137.327 1354.6 146.915 1350.22 144.138C1345.84 141.36 1343.23 127.368 1343.23 127.368L1347.63 123.448Z" fill="#773A79"/>
<path d="M1337.53 103.463C1338.57 105.056 1341.41 108.971 1346.77 111.355C1352.27 113.8 1357.21 113.206 1359.07 112.886C1358.29 113.469 1353.39 117.239 1352.83 123.947C1352.4 129.175 1354.86 132.957 1355.62 134.027C1353.99 133.414 1350.14 132.216 1345.36 133.178C1339.42 134.376 1335.92 138.141 1334.86 139.383C1334.92 137.683 1334.87 133.143 1331.94 128.546C1328.53 123.175 1323.45 121.285 1321.95 120.785C1323.34 120.619 1328.59 119.823 1332.83 115.248C1337.28 110.439 1337.51 104.803 1337.53 103.463Z" fill="#9A4D89"/>
<path d="M1341.58 128.907C1345.11 128.907 1347.96 126.05 1347.96 122.526C1347.96 119.002 1345.11 116.146 1341.58 116.146C1338.06 116.146 1335.2 119.002 1335.2 122.526C1335.2 126.05 1338.06 128.907 1341.58 128.907Z" fill="#BD62B2"/>
<path d="M113.231 137.691C113.231 137.691 116.336 152.957 112.063 155.794C105.805 159.949 93.0203 151.504 94.3246 146.483C95.629 141.463 108.151 134.697 108.151 134.697L113.231 137.691Z" fill="#454CA6"/>
<path d="M106.99 135.3C106.99 135.3 93.431 142.97 89.4118 139.783C83.5265 135.116 87.6079 120.346 92.7855 120.036C97.9631 119.725 108.268 129.543 108.268 129.543L106.99 135.3Z" fill="#454CA6"/>
<path d="M107.335 128.625C107.335 128.625 95.8501 118.1 97.6395 113.293C100.26 106.253 115.567 105.571 117.463 110.399C119.359 115.227 113.205 128.062 113.205 128.062L107.335 128.625Z" fill="#454CA6"/>
<path d="M113.79 126.891C113.79 126.891 120.251 112.715 125.376 112.932C132.881 113.248 138.26 127.596 134.254 130.891C130.248 134.185 116.14 132.299 116.14 132.299L113.79 126.891Z" fill="#454CA6"/>
<path d="M117.434 132.494C117.434 132.494 132.912 134.258 134.29 139.199C136.308 146.434 124.325 155.984 119.954 153.192C115.582 150.4 113.017 136.4 113.017 136.4L117.434 132.494Z" fill="#454CA6"/>
<path d="M107.4 112.477C108.428 114.072 111.259 117.997 116.615 120.398C122.108 122.861 127.046 122.283 128.909 121.97C128.123 122.55 123.214 126.303 122.632 133.01C122.179 138.236 124.633 142.026 125.383 143.099C123.76 142.481 119.91 141.27 115.133 142.217C109.188 143.395 105.677 147.149 104.61 148.387C104.68 146.687 104.642 142.147 101.731 137.541C98.3297 132.159 93.2611 130.252 91.7568 129.748C93.1529 129.586 98.4086 128.807 102.661 124.246C107.13 119.451 107.377 113.817 107.4 112.477Z" fill="#3D7BC0"/>
<path d="M111.387 137.932C114.911 137.932 117.767 135.076 117.767 131.552C117.767 128.028 114.911 125.171 111.387 125.171C107.863 125.171 105.006 128.028 105.006 131.552C105.006 135.076 107.863 137.932 111.387 137.932Z" fill="#6CC0E5"/>
<path d="M605.834 113.573C605.834 113.573 604.698 131.851 598.981 133.767C590.609 136.573 578.674 123.083 581.688 117.782C584.701 112.481 600.982 108.624 600.982 108.624L605.834 113.573Z" fill="#773A79"/>
<path d="M599.48 108.953C599.48 108.953 581.746 113.521 578.156 108.675C572.901 101.58 582.043 86.0606 588.016 87.2886C593.988 88.5165 602.688 102.809 602.688 102.809L599.48 108.953Z" fill="#773A79"/>
<path d="M601.909 101.482C601.909 101.482 592.085 86.0272 595.585 81.1162C600.708 73.9251 618.293 77.8243 618.971 83.8839C619.649 89.9435 608.745 102.634 608.745 102.634L601.909 101.482Z" fill="#773A79"/>
<path d="M609.766 101.484C609.766 101.484 621.428 87.3652 627.18 89.1754C635.603 91.8262 637.329 109.756 631.775 112.273C626.221 114.79 610.782 108.341 610.782 108.341L609.766 101.484Z" fill="#773A79"/>
<path d="M612.192 108.957C612.192 108.957 629.224 115.685 629.28 121.715C629.361 130.544 612.843 137.726 608.733 133.222C604.623 128.718 605.985 112.042 605.985 112.042L612.192 108.957Z" fill="#773A79"/>
<path d="M606.914 83.1699C607.594 85.2955 609.609 90.6145 614.956 94.9763C620.44 99.4496 626.222 100.301 628.432 100.514C627.363 100.932 620.644 103.695 617.936 111.13C615.826 116.924 617.454 121.976 617.978 123.422C616.324 122.226 612.323 119.676 606.612 119.292C599.503 118.814 594.372 122.004 592.783 123.083C593.381 121.175 594.723 116.009 592.825 109.891C590.608 102.744 585.436 99.0318 583.883 97.9998C585.517 98.2419 591.721 98.9631 597.94 95.0831C604.478 91.0049 606.478 84.6841 606.914 83.1699Z" fill="#9A4D89"/>
<path d="M605.615 113.542C609.758 113.542 613.116 110.184 613.116 106.042C613.116 101.899 609.758 98.541 605.615 98.541C601.473 98.541 598.115 101.899 598.115 106.042C598.115 110.184 601.473 113.542 605.615 113.542Z" fill="#BD62B2"/>
<path d="M500.7 133.305C500.7 133.305 486.19 133.875 484.219 129.518C481.334 123.139 491.02 112.642 495.443 114.594C499.866 116.546 504.215 129.08 504.215 129.08L500.7 133.305Z" fill="#773A79"/>
<path d="M503.834 127.921C503.834 127.921 498.809 114.298 502.343 111.078C507.519 106.362 520.495 112.33 520.006 117.14C519.516 121.95 508.939 129.959 508.939 129.959L503.834 127.921Z" fill="#773A79"/>
<path d="M509.923 129.239C509.923 129.239 521.327 120.249 525.482 122.616C531.566 126.081 529.9 140.266 525.174 141.287C520.449 142.307 509.562 134.723 509.562 134.723L509.923 129.239Z" fill="#773A79"/>
<path d="M510.552 135.437C510.552 135.437 522.626 143.505 521.659 148.188C520.244 155.044 506.238 157.844 503.807 153.665C501.376 149.486 505.225 136.789 505.225 136.789L510.552 135.437Z" fill="#773A79"/>
<path d="M504.851 137.95C504.851 137.95 500.91 151.926 496.157 152.454C489.199 153.227 482.208 140.771 485.431 137.168C488.655 133.564 501.92 133.301 501.92 133.301L504.851 137.95Z" fill="#773A79"/>
<path d="M524.771 131.718C523.149 132.425 519.114 134.441 516.102 139.009C513.013 143.694 512.805 148.324 512.815 150.084C512.399 149.275 509.681 144.196 503.597 142.656C498.858 141.456 495.003 143.146 493.904 143.675C494.715 142.274 496.406 138.913 496.251 134.377C496.057 128.731 493.13 124.939 492.15 123.772C493.704 124.091 497.887 124.735 502.561 122.747C508.021 120.425 510.535 116.047 511.225 114.739C511.165 116.047 511.093 120.999 514.653 125.594C518.395 130.424 523.541 131.496 524.771 131.718Z" fill="#9A4D89"/>
<path d="M506.624 138.476C509.908 138.476 512.571 135.813 512.571 132.528C512.571 129.243 509.908 126.581 506.624 126.581C503.339 126.581 500.676 129.243 500.676 132.528C500.676 135.813 503.339 138.476 506.624 138.476Z" fill="#BD62B2"/>
<path d="M883.001 141.521C883.001 141.521 883.026 153.896 879.253 155.436C873.729 157.69 865.097 149.11 866.9 145.405C868.702 141.7 879.514 138.394 879.514 138.394L883.001 141.521Z" fill="#454CA6"/>
<path d="M878.516 138.681C878.516 138.681 866.755 142.529 864.124 139.417C860.273 134.86 865.766 123.998 869.847 124.568C873.927 125.137 880.413 134.399 880.413 134.399L878.516 138.681Z" fill="#454CA6"/>
<path d="M879.83 133.537C879.83 133.537 872.537 123.541 874.684 120.078C877.827 115.007 889.854 116.875 890.574 120.932C891.293 124.989 884.49 134.019 884.49 134.019L879.83 133.537Z" fill="#454CA6"/>
<path d="M885.128 133.199C885.128 133.199 892.381 123.173 896.339 124.144C902.133 125.567 904.073 137.583 900.437 139.521C896.801 141.459 886.11 137.778 886.11 137.778L885.128 133.199Z" fill="#454CA6"/>
<path d="M887.088 138.133C887.088 138.133 898.865 141.933 899.163 145.996C899.601 151.947 888.772 157.505 885.806 154.646C882.839 151.787 883.036 140.482 883.036 140.482L887.088 138.133Z" fill="#454CA6"/>
<path d="M882.412 120.973C882.963 122.377 884.552 125.876 888.346 128.586C892.238 131.365 896.174 131.689 897.674 131.737C896.971 132.065 892.56 134.219 891.055 139.35C889.883 143.349 891.2 146.685 891.616 147.637C890.449 146.902 887.64 145.356 883.773 145.344C878.958 145.33 875.636 147.703 874.611 148.5C874.932 147.187 875.613 143.645 874.069 139.602C872.264 134.878 868.616 132.599 867.523 131.97C868.636 132.063 872.851 132.28 876.877 129.395C881.108 126.362 882.184 122.013 882.412 120.973Z" fill="#3D7BC0"/>
<path d="M882.527 141.52C885.326 141.52 887.595 139.251 887.595 136.452C887.595 133.653 885.326 131.384 882.527 131.384C879.728 131.384 877.458 133.653 877.458 136.452C877.458 139.251 879.728 141.52 882.527 141.52Z" fill="#6CC0E5"/>
<defs>
<linearGradient id="paint0_linear_79_870" x1="720" y1="103.119" x2="720" y2="231.999" gradientUnits="userSpaceOnUse">
<stop stop-color="#7F6F57" stop-opacity="0"/>
<stop offset="1" stop-color="#443A2F"/>
</linearGradient>
</defs>
</svg>
