<svg width="320" height="52" viewBox="0 0 320 52" fill="none" xmlns="http://www.w3.org/2000/svg">
<path d="M205.532 13.658C205.281 13.777 205.373 14.3052 205.492 15.6445C205.674 17.7107 205.881 20.0443 205.702 21.7529C205.353 25.0865 203.455 26.822 204.202 27.496C204.636 27.8884 205.251 27.2725 206.845 27.5958C207.118 27.6512 207.784 27.7548 208.602 27.604C208.696 27.5867 208.79 27.5574 208.906 27.5102C210.578 26.8255 210.929 22.5934 209.73 19.1521C208.628 15.9886 206.168 13.3557 205.532 13.658Z" fill="#94AE9B"/>
<path d="M201.438 11.2137C201.233 11.4501 198.667 14.4554 199.539 16.5826C199.816 17.2565 200.57 18.1706 201.165 18.0718C201.558 18.0065 201.79 17.5155 202.142 17.6698C202.343 17.7577 202.376 17.9645 202.543 18.176C202.903 18.6291 203.386 18.4794 204.654 18.4753C206.09 18.4707 206.238 18.6482 206.661 18.3788C207.096 18.1015 207.155 17.7667 207.594 17.6946C207.979 17.6313 208.14 17.8556 208.655 18.0079C209.243 18.182 209.684 18.082 210.468 17.9042C211.158 17.7477 211.575 17.6254 211.972 17.206C212.368 16.7871 212.302 16.457 212.672 16.2526C213.149 15.9887 213.489 16.3667 213.879 16.128C214.368 15.8287 214.402 14.8821 214.407 14.7376C214.482 12.6539 211.753 10.6482 211.354 10.3546C210.797 9.94541 208.836 8.54199 206.22 8.74506C205.607 8.79265 203.309 9.0556 201.438 11.2137Z" fill="#31514C"/>
<path d="M115.345 15.436C115.517 15.542 115.447 15.9926 115.347 17.1368C115.193 18.9021 115.019 20.8958 115.121 22.361C115.319 25.2196 116.611 26.7359 116.085 27.3005C115.779 27.6292 115.36 27.0921 114.251 27.3428C114.061 27.3858 113.597 27.4635 113.032 27.3211C112.967 27.3048 112.902 27.2782 112.823 27.2359C111.672 26.6226 111.484 22.995 112.361 20.0695C113.167 17.3801 114.908 15.1669 115.345 15.436Z" fill="#94AE9B"/>
<path d="M118.031 14.1595C118.177 14.3449 120.01 16.6998 119.413 18.2909C119.224 18.795 118.7 19.4681 118.28 19.3763C118.002 19.3157 117.835 18.9362 117.588 19.0435C117.448 19.1046 117.426 19.2607 117.31 19.4167C117.06 19.7507 116.719 19.6234 115.825 19.5846C114.814 19.5407 114.711 19.6713 114.411 19.4548C114.102 19.2319 114.058 18.976 113.748 18.9089C113.476 18.85 113.365 19.0158 113.003 19.117C112.591 19.2327 112.279 19.1443 111.725 18.9872C111.238 18.8489 110.943 18.7443 110.66 18.4146C110.378 18.0852 110.422 17.8363 110.159 17.6707C109.821 17.4568 109.584 17.7344 109.308 17.5421C108.961 17.301 108.929 16.581 108.924 16.4711C108.854 14.8863 110.759 13.4397 111.038 13.2279C111.427 12.9328 112.797 11.922 114.641 12.1499C115.074 12.2033 116.695 12.4677 118.031 14.1595Z" fill="#3E816F"/>
<path d="M48.8009 11.9905C48.6286 12.0965 48.6996 12.547 48.7994 13.6912C48.9533 15.4566 49.1271 17.4503 49.0256 18.9155C48.8275 21.7741 47.5348 23.2904 48.0611 23.855C48.3676 24.1837 48.786 23.6466 49.8953 23.8972C50.0856 23.9402 50.5486 24.0179 51.1141 23.8756C51.179 23.8593 51.2441 23.8326 51.3235 23.7903C52.4745 23.177 52.6618 19.5494 51.7849 16.6239C50.9788 13.9345 49.2382 11.7214 48.8009 11.9905Z" fill="#94AE9B"/>
<path d="M46.1153 10.7137C45.969 10.8991 44.1365 13.254 44.7334 14.8451C44.9225 15.3492 45.4459 16.0223 45.8662 15.9305C46.1439 15.8699 46.3111 15.4904 46.5578 15.5977C46.6984 15.6588 46.7198 15.8149 46.8363 15.9709C47.0859 16.3049 47.4271 16.1776 48.3209 16.1388C49.3319 16.0949 49.4348 16.2255 49.7351 16.009C50.0442 15.7861 50.0883 15.5302 50.3979 15.4631C50.6697 15.4042 50.7816 15.57 51.1427 15.6712C51.5555 15.7869 51.8669 15.6985 52.4209 15.5414C52.9084 15.4031 53.2028 15.2985 53.4859 14.9688C53.7686 14.6394 53.7246 14.3905 53.9868 14.2249C54.3254 14.011 54.5617 14.2886 54.8384 14.0962C55.1851 13.8552 55.2171 13.1352 55.2219 13.0253C55.2922 11.4405 53.3867 9.99388 53.1077 9.78209C52.719 9.48697 51.3492 8.47619 49.5049 8.70405C49.0727 8.75746 47.4516 9.02185 46.1153 10.7137Z" fill="#3E816F"/>
<path d="M288.942 11.2708C289.193 11.3898 289.101 11.918 288.982 13.2573C288.799 15.3235 288.593 17.6571 288.772 19.3657C289.121 22.6993 291.018 24.4348 290.272 25.1088C289.838 25.5012 289.223 24.8853 287.629 25.2086C287.356 25.264 286.69 25.3676 285.872 25.2168C285.778 25.1995 285.684 25.1702 285.568 25.123C283.895 24.4383 283.545 20.2062 284.744 16.7649C285.846 13.6014 288.306 10.9684 288.942 11.2708Z" fill="#94AE9B"/>
<path d="M293.036 8.82648C293.241 9.0629 295.807 12.0682 294.935 14.1954C294.658 14.8693 293.904 15.7834 293.309 15.6846C292.916 15.6193 292.684 15.1283 292.332 15.2826C292.131 15.3705 292.098 15.5772 291.931 15.7888C291.571 16.2419 291.088 16.0922 289.82 16.0881C288.384 16.0835 288.236 16.261 287.813 15.9916C287.378 15.7143 287.319 15.3795 286.88 15.3074C286.495 15.2441 286.334 15.4684 285.819 15.6207C285.231 15.7948 284.79 15.6948 284.006 15.5169C283.316 15.3605 282.899 15.2382 282.502 14.8188C282.106 14.3999 282.172 14.0698 281.802 13.8654C281.325 13.6015 280.985 13.9795 280.595 13.7408C280.106 13.4415 280.072 12.4949 280.067 12.3504C279.992 10.2667 282.721 8.261 283.12 7.96736C283.677 7.5582 285.638 6.15479 288.254 6.35786C288.867 6.40545 291.165 6.66839 293.036 8.82648Z" fill="#255A54"/>
<path d="M19.8398 13.7934C20.0011 13.8949 19.9417 14.3452 19.8655 15.4869C19.748 17.2484 19.6152 19.2378 19.7303 20.6944C19.955 23.5363 21.1759 25.0159 20.6957 25.5905C20.4161 25.925 20.0203 25.4 18.9947 25.6756C18.8189 25.7229 18.3904 25.8111 17.8638 25.6826C17.8034 25.6679 17.7426 25.6429 17.6683 25.6026C16.5918 25.0189 16.3662 21.411 17.1378 18.4772C17.8472 15.7803 19.4302 13.5357 19.8398 13.7934Z" fill="#94AE9B"/>
<path d="M22.4747 11.7094C22.6066 11.911 24.2579 14.4731 23.6964 16.2865C23.5185 16.861 23.0333 17.6403 22.6501 17.5561C22.3969 17.5005 22.2479 17.0819 22.0213 17.2134C21.8922 17.2883 21.871 17.4646 21.763 17.6449C21.5316 18.0312 21.2209 17.9036 20.4044 17.9001C19.4808 17.8962 19.3854 18.0474 19.1131 17.8178C18.8328 17.5814 18.7951 17.2959 18.5128 17.2345C18.2649 17.1806 18.161 17.3718 17.8299 17.5016C17.4515 17.65 17.1677 17.5648 16.6629 17.4132C16.2187 17.2798 15.9507 17.1755 15.6953 16.818C15.4401 16.4608 15.4828 16.1794 15.2448 16.0052C14.9375 15.7802 14.7187 16.1025 14.4678 15.899C14.1532 15.6438 14.1313 14.8368 14.1279 14.7136C14.0796 12.9372 15.8358 11.2274 16.0929 10.977C16.4511 10.6282 17.7132 9.43179 19.3967 9.60491C19.7913 9.64548 21.2703 9.86965 22.4747 11.7094Z" fill="#255A54"/>
<path d="M159.14 11.5623C158.909 11.6808 158.949 12.2772 158.949 13.7825C158.948 16.1049 158.947 18.7278 158.655 20.6289C158.086 24.3381 156.277 26.1685 156.882 26.9664C157.234 27.4308 157.825 26.7779 159.205 27.2331C159.441 27.3111 160.02 27.466 160.753 27.3454C160.837 27.3316 160.923 27.3043 161.028 27.2582C162.557 26.5903 163.198 21.876 162.411 17.9555C161.687 14.3514 159.725 11.2614 159.14 11.5623Z" fill="#94AE9B"/>
<path d="M155.721 8.58715C155.522 8.83963 153.024 12.0514 153.627 14.4825C153.818 15.2528 154.411 16.3197 154.943 16.2441C155.295 16.1941 155.538 15.6584 155.836 15.8517C156.006 15.9618 156.019 16.195 156.151 16.4416C156.432 16.9696 156.869 16.8304 157.988 16.9003C159.254 16.9793 159.371 17.1865 159.765 16.91C160.171 16.6253 160.249 16.2541 160.641 16.1993C160.986 16.1511 161.11 16.4114 161.552 16.612C162.057 16.8413 162.454 16.7553 163.159 16.6024C163.78 16.4678 164.157 16.3554 164.54 15.9095C164.922 15.464 164.889 15.0908 165.231 14.8839C165.673 14.6167 165.943 15.0595 166.306 14.8153C166.76 14.5091 166.864 13.452 166.88 13.2907C167.11 10.9638 164.861 8.55975 164.532 8.20779C164.073 7.71735 162.454 6.03214 160.132 6.10586C159.588 6.12314 157.541 6.28247 155.721 8.58715Z" fill="#255A54"/>
<path d="M251.366 20.1077C251.562 20.2136 251.481 20.6642 251.368 21.8084C251.193 23.5737 250.996 25.5674 251.111 27.0326C251.336 29.8912 252.802 31.4075 252.205 31.9721C251.858 32.3008 251.383 31.7637 250.125 32.0144C249.91 32.0574 249.385 32.1351 248.744 31.9928C248.67 31.9764 248.596 31.9498 248.506 31.9075C247.201 31.2942 246.989 27.6666 247.983 24.7411C248.897 22.0517 250.87 19.8385 251.366 20.1077Z" fill="#94AE9B"/>
<path d="M254.411 18.8309C254.577 19.0162 256.655 21.3712 255.978 22.9624C255.764 23.4664 255.17 24.1395 254.694 24.0477C254.379 23.9871 254.189 23.6076 253.909 23.7149C253.75 23.776 253.726 23.9321 253.594 24.0881C253.311 24.4221 252.924 24.2949 251.911 24.256C250.764 24.2121 250.648 24.3427 250.307 24.1262C249.957 23.9033 249.907 23.6474 249.556 23.5803C249.247 23.5214 249.121 23.6872 248.711 23.7884C248.243 23.904 247.89 23.8157 247.262 23.6585C246.709 23.5203 246.375 23.4157 246.054 23.086C245.734 22.7566 245.784 22.5077 245.486 22.3421C245.103 22.1282 244.835 22.4058 244.521 22.2135C244.128 21.9724 244.092 21.2524 244.086 21.1425C244.006 19.5577 246.167 18.1111 246.483 17.8993C246.924 17.6042 248.477 16.5934 250.568 16.8212C251.058 16.8746 252.896 17.139 254.411 18.8309Z" fill="#3E816F"/>
<path d="M96.1669 22.242C95.9744 22.361 96.0452 22.8892 96.1361 24.2285C96.2764 26.2947 96.4348 28.6283 96.2974 30.3369C96.0294 33.6704 94.5725 35.406 95.1455 36.08C95.4791 36.4724 95.9514 35.8565 97.1751 36.1798C97.385 36.2352 97.8962 36.3387 98.5246 36.188C98.5967 36.1707 98.6692 36.1414 98.7578 36.0942C100.042 35.4095 100.312 31.1774 99.3908 27.7361C98.5444 24.5726 96.6556 21.9396 96.1669 22.242Z" fill="#94AE9B"/>
<path d="M93.023 19.7977C92.8656 20.0341 90.8952 23.0394 91.5653 25.1666C91.7775 25.8405 92.3564 26.7546 92.8137 26.6558C93.1158 26.5905 93.2936 26.0995 93.564 26.2538C93.718 26.3417 93.7433 26.5484 93.8722 26.76C94.1483 27.2131 94.519 27.0634 95.4933 27.0593C96.5954 27.0547 96.7091 27.2321 97.0341 26.9628C97.3685 26.6855 97.4135 26.3506 97.7504 26.2786C98.0461 26.2153 98.1701 26.4396 98.5652 26.5919C99.0168 26.7659 99.3553 26.666 99.9577 26.4881C100.488 26.3317 100.808 26.2094 101.112 25.79C101.417 25.371 101.366 25.041 101.65 24.8366C102.016 24.5727 102.277 24.9507 102.577 24.712C102.952 24.4127 102.978 23.4661 102.982 23.3216C103.04 21.2379 100.945 19.2322 100.638 18.9386C100.21 18.5294 98.7044 17.126 96.6957 17.329C96.2249 17.3766 94.4601 17.6396 93.023 19.7977Z" fill="#31514C"/>
<path d="M222.896 44.0318C225.449 45.1852 230.022 42.8304 230.958 39.7957C231.719 37.3446 229.616 36.078 230.169 33.5261C230.186 33.4625 230.198 33.4076 230.215 33.344C230.419 32.567 230.795 31.9731 231.267 31.4802C232.017 30.6909 233.028 30.1569 234.035 29.4886C234.963 28.8738 235.883 28.1479 236.589 27.0295C236.612 26.9948 236.634 26.9529 236.657 26.9182C237.184 26.031 237.619 24.8321 237.667 23.2077C237.713 21.644 237.406 19.6706 236.499 17.1797C234.85 17.1962 233.193 17.2068 231.542 17.2161C231.606 18.7653 231.495 20.7853 230.653 22.6822C230.373 23.3091 230.01 23.9304 229.549 24.5114C228.021 26.4336 226.325 26.7751 224.688 27.525C223.919 27.8826 223.167 28.3267 222.448 29.0799C221.809 29.7492 221.303 30.5569 220.912 31.4468C220.645 32.0261 220.432 32.6472 220.276 33.287C220.018 34.285 219.884 35.3335 219.854 36.376C219.765 39.8182 220.873 43.1175 222.896 44.0318Z" fill="#94AE9B"/>
<path d="M238.748 17.6594C238.54 17.958 238.181 18.3492 237.596 18.4786C236.83 18.6483 236.394 18.2096 235.627 18.3926C234.814 18.5866 234.863 19.1853 234.178 19.2541C233.473 19.3248 233.192 18.714 232.364 18.7746C231.84 18.813 231.747 19.0731 231.197 19.16C230.528 19.2657 229.89 19.0033 229.471 18.7779C229.707 18.1249 229.926 17.4092 230.108 16.6353C230.326 15.7073 230.455 14.8407 230.526 14.0523C232.385 13.8804 234.254 13.7033 236.113 13.5259C236.17 14.0168 236.322 14.689 236.728 15.4325C237.323 16.5192 238.184 17.2507 238.748 17.6594Z" fill="#6D7F71"/>
<path d="M221.277 4.15754C218.352 6.56314 214.644 11.26 216.017 14.3208C216.577 15.5692 218.235 17.2425 219.661 17.0257C220.603 16.8825 221.222 15.95 222.034 16.2205C222.498 16.3746 222.546 16.7603 222.914 17.1479C223.703 17.9781 224.868 17.6719 227.877 17.5969C231.28 17.5121 231.606 17.8369 232.648 17.3095C233.719 16.7667 233.906 16.1361 234.956 15.9778C235.878 15.8388 236.229 16.2505 237.427 16.5087C238.797 16.8037 239.856 16.593 241.741 16.218C243.729 15.8226 244.72 15.6121 245.405 14.8299C245.951 14.2048 245.933 13.7056 246.61 13.309C247.471 12.8041 248.124 13.2472 248.784 12.9297C249.939 12.3744 250.007 10.0374 249.873 8.96916C249.314 4.48562 242.628 1.83733 241.254 1.32897C235.259 -0.88778 227.039 -0.579716 221.277 4.15754Z" fill="#255A54"/>
<path d="M236.415 11.1139C237.22 10.4701 236.996 8.85288 235.915 7.50169C234.835 6.15051 233.306 5.57704 232.501 6.22081C231.696 6.86459 231.92 8.48183 233.001 9.83302C234.082 11.1842 235.611 11.7577 236.415 11.1139Z" fill="#2C6D53"/>
<path d="M243.957 13.0194C245.278 12.3087 245.541 10.2295 244.543 8.37535C243.546 6.52121 241.666 5.59429 240.345 6.30498C239.024 7.01567 238.762 9.09486 239.759 10.949C240.757 12.8031 242.636 13.7301 243.957 13.0194Z" fill="#2C6D53"/>
<path d="M223.028 7.89812C223.898 7.11926 224.181 6.01562 223.659 5.43306C223.137 4.8505 222.009 5.00962 221.139 5.78848C220.27 6.56734 219.987 7.671 220.509 8.25356C221.031 8.83612 222.159 8.67698 223.028 7.89812Z" fill="#2C6D53"/>
<path d="M219.482 10.9043C220.069 10.379 220.259 9.63476 219.908 9.24191C219.556 8.84905 218.795 8.95636 218.209 9.4816C217.622 10.0068 217.432 10.7511 217.783 11.144C218.135 11.5368 218.896 11.4295 219.482 10.9043Z" fill="#2C6D53"/>
<path d="M228.087 3.7802C228.955 3.60535 229.565 2.9945 229.449 2.41582C229.332 1.83714 228.533 1.50977 227.665 1.68462C226.796 1.85948 226.186 2.47034 226.303 3.04902C226.419 3.62771 227.218 3.95505 228.087 3.7802Z" fill="#2C6D53"/>
<path d="M246.394 6.79619C246.739 6.38329 246.528 5.63731 245.922 5.13003C245.316 4.62275 244.545 4.54626 244.199 4.95917C243.853 5.37207 244.065 6.11801 244.671 6.62529C245.277 7.13257 246.048 7.2091 246.394 6.79619Z" fill="#2C6D53"/>
<path d="M225.637 14.5117C225.818 13.7176 225.458 12.9592 224.835 12.8179C224.212 12.6766 223.561 13.2058 223.381 13.9999C223.201 14.794 223.56 15.5523 224.183 15.6936C224.806 15.8349 225.457 15.3058 225.637 14.5117Z" fill="#2C6D53"/>
<path d="M225.65 9.02542C225.806 8.37601 225.487 7.74307 224.938 7.61171C224.39 7.48035 223.819 7.90031 223.663 8.54972C223.508 9.19913 223.827 9.83208 224.375 9.96344C224.924 10.0948 225.495 9.67484 225.65 9.02542Z" fill="#2C6D53"/>
<path d="M239.936 4.88302C240.057 4.22665 239.142 3.50688 237.892 3.27538C236.641 3.04388 235.529 3.3883 235.408 4.04468C235.286 4.70106 236.201 5.42082 237.452 5.65233C238.702 5.88383 239.814 5.5394 239.936 4.88302Z" fill="#2C6D53"/>
<path d="M62.9395 45.8428C65.4922 46.9962 70.0648 44.6414 71.001 41.6068C71.7618 39.1556 69.6594 37.8891 70.2121 35.3371C70.2294 35.2735 70.2409 35.2187 70.2581 35.1551C70.4622 34.3781 70.8383 33.7842 71.3098 33.2913C72.0597 32.502 73.0711 31.968 74.0781 31.2997C75.0057 30.6849 75.9261 29.959 76.6322 28.8406C76.6552 28.8058 76.6768 28.7639 76.6999 28.7293C77.2272 27.8421 77.6618 26.6432 77.7103 25.0188C77.756 23.455 77.4489 21.4817 76.542 18.9907C74.8932 19.0072 73.2356 19.0179 71.5853 19.0271C71.6494 20.5763 71.5378 22.5964 70.6955 24.4932C70.4161 25.1202 70.0531 25.7415 69.5917 26.3225C68.0636 28.2447 66.3675 28.5861 64.7312 29.336C63.962 29.6936 63.2103 30.1378 62.4908 30.8909C61.8519 31.5602 61.3462 32.3679 60.9546 33.2578C60.6881 33.8371 60.4752 34.4583 60.3186 35.0981C60.0614 36.0961 59.927 37.1445 59.8965 38.187C59.8083 41.6292 60.9155 44.9285 62.9395 45.8428Z" fill="#94AE9B"/>
<path d="M69.6182 19.4705C69.8263 19.769 70.1854 20.1603 70.7698 20.2897C71.5356 20.4593 71.9719 20.0206 72.7387 20.2036C73.5518 20.3976 73.5035 20.9964 74.1881 21.0651C74.8926 21.1359 75.1741 20.525 76.002 20.5856C76.5264 20.624 76.6189 20.8842 77.169 20.971C77.838 21.0767 78.4759 20.8143 78.8953 20.589C78.6595 19.936 78.44 19.2202 78.2583 18.4463C78.0405 17.5183 77.9111 16.6517 77.84 15.8633C75.9805 15.6914 74.1123 15.5143 72.2525 15.3369C72.1959 15.8279 72.0441 16.5001 71.6376 17.2436C71.0434 18.3303 70.1823 19.0617 69.6182 19.4705Z" fill="#6D7F71"/>
<path d="M87.0886 5.96855C90.0142 8.37416 93.7217 13.0711 92.3486 16.1318C91.7886 17.3803 90.1307 19.0535 88.7049 18.8367C87.7629 18.6935 87.1444 17.761 86.3316 18.0315C85.8685 18.1856 85.8197 18.5713 85.4516 18.9589C84.6632 19.7891 83.4977 19.4829 80.4892 19.408C77.0858 19.3231 76.7597 19.6479 75.7185 19.1205C74.6466 18.5777 74.4603 17.9471 73.4102 17.7888C72.488 17.6498 72.137 18.0615 70.9387 18.3197C69.5692 18.6147 68.5099 18.404 66.6249 18.029C64.6371 17.6336 63.6458 17.4231 62.9616 16.6409C62.4148 16.0158 62.4327 15.5166 61.7564 15.12C60.8954 14.6151 60.2421 15.0583 59.5818 14.7408C58.427 14.1854 58.3594 11.8484 58.4928 10.7802C59.0525 6.29664 65.7378 3.64837 67.1125 3.14001C73.107 0.923264 81.3274 1.2313 87.0886 5.96855Z" fill="#255A54"/>
<path d="M75.3656 11.6441C76.4465 10.2929 76.6703 8.67563 75.8655 8.03186C75.0607 7.38808 73.5321 7.96155 72.4512 9.31274C71.3704 10.6639 71.1465 12.2812 71.9513 12.9249C72.7561 13.5687 74.2847 12.9952 75.3656 11.6441Z" fill="#2C6D53"/>
<path d="M68.6081 12.7601C69.6056 10.906 69.3433 8.82679 68.0222 8.1161C66.7012 7.40541 64.8216 8.33235 63.8242 10.1865C62.8267 12.0406 63.089 14.1198 64.41 14.8305C65.7311 15.5412 67.6107 14.6143 68.6081 12.7601Z" fill="#2C6D53"/>
<path d="M87.8581 10.0645C88.3797 9.48196 88.0975 8.37831 87.2276 7.59945C86.3578 6.82059 85.2298 6.66145 84.7082 7.24401C84.1865 7.82657 84.4688 8.93022 85.3386 9.70908C86.2085 10.4879 87.3365 10.6471 87.8581 10.0645Z" fill="#2C6D53"/>
<path d="M90.5834 12.9551C90.9352 12.5623 90.7448 11.818 90.1582 11.2928C89.5716 10.7675 88.811 10.6602 88.4592 11.0531C88.1074 11.4459 88.2978 12.1902 88.8844 12.7154C89.4709 13.2407 90.2316 13.348 90.5834 12.9551Z" fill="#2C6D53"/>
<path d="M82.0643 4.86007C82.1807 4.28139 81.5709 3.67052 80.7022 3.49567C79.8335 3.32081 79.0349 3.64818 78.9184 4.22686C78.8019 4.80554 79.4117 5.41641 80.2804 5.59126C81.1491 5.76612 81.9478 5.43875 82.0643 4.86007Z" fill="#2C6D53"/>
<path d="M63.6961 8.43637C64.3021 7.92909 64.5132 7.18312 64.1676 6.77022C63.822 6.35731 63.0505 6.43383 62.4445 6.94111C61.8384 7.44839 61.6273 8.19433 61.973 8.60724C62.3186 9.02014 63.0901 8.94365 63.6961 8.43637Z" fill="#2C6D53"/>
<path d="M84.1833 17.5046C84.8065 17.3633 85.1657 16.605 84.9856 15.8109C84.8055 15.0168 84.1543 14.4876 83.5312 14.6289C82.908 14.7702 82.5488 15.5285 82.7289 16.3226C82.909 17.1167 83.5602 17.6459 84.1833 17.5046Z" fill="#2C6D53"/>
<path d="M83.9911 11.7745C84.5398 11.6432 84.8586 11.0102 84.7031 10.3608C84.5476 9.71138 83.9768 9.29143 83.4281 9.42279C82.8794 9.55415 82.5606 10.1871 82.7161 10.8365C82.8715 11.4859 83.4424 11.9059 83.9911 11.7745Z" fill="#2C6D53"/>
<path d="M70.9152 7.46339C72.1656 7.23189 73.0808 6.51213 72.9593 5.85575C72.8378 5.19937 71.7256 4.85495 70.4751 5.08645C69.2246 5.31795 68.3094 6.03771 68.431 6.69409C68.5525 7.35046 69.6647 7.69489 70.9152 7.46339Z" fill="#2C6D53"/>
<path d="M321.538 23.1687V52.1254H-2V24.8088H57.567L67.6753 26.995L69.1223 30.6123L69.8615 32.4592L85.1621 28.6329L90.6263 33.5512L93.6325 29.1811L96.9106 35.4654L100.593 31.1695L105.107 25.9008L125.872 23.1687H200.548L212.78 24.5347L215.335 26.3322L219.577 29.3159L222.156 35.4654L235.446 28.5812L237.982 27.2669L241.193 29.7294L244.399 32.1851L247.342 30.5607L249.601 29.3159L251.796 30.7449L253.171 31.6391L253.833 30.6955L259.116 23.1687H321.538Z" fill="#7F6F58"/>
<path d="M321.538 25.6806V36.1147C317.811 36.2698 311.994 35.8159 302.589 34.56C289.243 32.7783 287.731 31.9312 282.062 32.3109C274.989 32.785 274.23 34.3151 265.193 35.9665C256.532 37.5482 255.995 36.3686 239.607 37.3707C221.767 38.4626 221.466 39.9185 214.301 38.7772C206.761 37.5774 204.748 35.5912 196.587 35.1217C191.391 34.8228 190.638 35.5395 180.561 36.5282C170.882 37.4763 161.576 38.3907 150.476 37.3707C142.849 36.6719 142.565 35.8114 136.137 35.6834C127.633 35.5171 126.627 36.991 117.581 37.3707C109.284 37.719 109.34 36.5124 95.1446 36.0811C87.9145 35.8609 88.0021 36.1777 79.0598 35.9665C65.26 35.6384 66.5901 34.9217 60.3193 35.0992C45.8163 35.5059 43.565 39.2086 33.2297 37.3707C30.6414 36.9124 28.5901 36.29 23.1079 35.4025C16.3923 34.3173 13.0333 33.7736 10.4562 33.9983C4.10229 34.5465 1.17472 37.2741 -2 37.71V27.9364C-0.087976 27.7342 1.91166 27.6263 3.70686 27.5297C10.7101 27.1568 16.4507 27.9387 19.1715 28.3745C29.2641 29.99 30.9268 32.1492 36.6044 31.1853C41.5586 30.345 41.3317 28.5273 46.1645 27.8128C52.8353 26.8243 55.6752 29.9338 62.492 30.8909C65.3746 31.2954 67.3383 31.0864 69.1223 30.6123L69.8615 32.4592L85.1621 28.6329L90.6263 33.5512L93.6325 29.1811L96.9106 35.4654L100.593 31.1695C102.849 31.6728 105.489 32.0211 108.864 32.0301C117.179 32.048 116.35 29.9608 129.952 28.0937C143.707 26.2041 155.022 26.8984 159.205 27.2332C173.093 28.3431 175.461 30.8325 186.746 30.3427C194.37 30.0125 197.221 28.7048 204.202 27.496C208.325 26.7815 211.996 26.4288 215.335 26.3322L219.577 29.3159L222.156 35.4654L235.446 28.5813C237.369 28.9834 239.265 29.3834 241.193 29.7294L244.399 32.1851L247.342 30.5607C248.774 30.682 250.252 30.7494 251.796 30.745L253.171 31.6392L253.833 30.6955C256.999 30.5607 260.453 30.1113 264.348 29.2171C271.289 27.6241 276.083 25.4245 285.567 25.1235C294.309 24.8471 294.826 26.5704 305.119 26.6872C312.225 26.7681 317.629 26.0109 321.538 25.6806Z" fill="#6C6146"/>
<path d="M321.538 41.4914V47.9891C316.528 47.3196 309.03 46.131 300.133 46.9736C293.952 47.5577 292.168 48.6429 285.801 48.4722C279.734 48.3104 277.068 47.2117 272.468 46.6388C263.191 45.4884 256.79 47.8184 250.805 49.1395C238.346 51.8873 237.484 48.097 211.308 47.4724C192.332 47.0208 191.707 48.989 167.628 48.6183C153.887 48.407 154.981 47.7802 142.885 47.7757C122.535 47.7645 120.623 49.5417 105.318 48.9732C90.2714 48.4138 90.2197 46.6276 75.9885 46.4726C61.8224 46.3198 62.3055 48.0948 46.7262 48.3374C23.382 48.7014 23.0158 44.7043 9.49684 47.3061C5.2886 48.115 1.32077 49.2721 -2 50.0247V40.5006C0.498435 40.2489 3.75404 40.2085 8.00722 40.5163C20.1399 41.3948 21.6318 43.7449 30.419 44.6819C45.5422 46.2928 46.9756 39.9546 64.8242 40.8061C74.6179 41.2757 75.5122 43.2462 85.5261 42.9945C95.4682 42.7451 97.4521 40.7298 106.32 40.1411C120.145 39.2222 119.401 43.8483 133.888 43.8393C148.367 43.8281 152.923 39.2042 167.071 41.4712C170.259 41.9812 171.976 42.5272 175.782 42.7137C184.522 43.1406 188.106 40.8713 195.976 40.8061C201.706 40.759 201.083 41.9498 208.961 42.7137C222.785 44.0528 225.088 40.4197 238.306 41.6397C246.475 42.3946 247.298 43.9404 254.137 43.6393C260.945 43.3428 264.33 41.6285 269.968 40.1411C277.641 38.1167 285.417 38.4021 300.964 38.975C311.089 39.348 317.456 40.1703 321.538 41.4914Z" fill="#6C6146"/>
<path opacity="0.5" d="M321.538 23.1687V52.1254H-2V24.8088H57.567L67.6753 26.995L69.1223 30.6123L69.8615 32.4592L85.1621 28.6329L90.6263 33.5512L93.6325 29.1811L96.9106 35.4654L100.593 31.1695L105.107 25.9008L125.872 23.1687H200.548L212.78 24.5347L215.335 26.3322L219.577 29.3159L222.156 35.4654L235.446 28.5812L237.982 27.2669L241.193 29.7294L244.399 32.1851L247.342 30.5607L249.601 29.3159L251.796 30.7449L253.171 31.6391L253.833 30.6955L259.116 23.1687H321.538Z" fill="url(#paint0_linear_113_93)"/>
<path d="M185.894 23.887C185.942 21.3527 181.236 19.2078 175.384 19.0963C169.531 18.9849 164.748 20.9489 164.699 23.4832C164.651 26.0176 169.356 28.1624 175.209 28.2739C181.062 28.3854 185.845 26.4213 185.894 23.887Z" fill="#54804F"/>
<path d="M167.671 24.8752C167.704 23.1067 164.773 21.6168 161.123 21.5472C157.473 21.4777 154.487 22.8549 154.453 24.6234C154.419 26.3918 157.351 27.8818 161.001 27.9513C164.651 28.0209 167.637 26.6436 167.671 24.8752Z" fill="#54804F"/>
<path d="M205.711 23.4946C205.757 21.0545 199.867 18.9634 192.555 18.8241C185.243 18.6848 179.277 20.55 179.231 22.9902C179.184 25.4303 185.074 27.5214 192.387 27.6607C199.699 27.8 205.664 25.9348 205.711 23.4946Z" fill="#54804F"/>
<path d="M211.461 25.7943C211.495 24.007 208.67 22.5037 205.151 22.4367C201.632 22.3697 198.752 23.7643 198.718 25.5516C198.684 27.3389 201.509 28.8422 205.028 28.9092C208.547 28.9762 211.427 27.5817 211.461 25.7943Z" fill="#54804F"/>
<path d="M202.58 28.7953C202.611 27.1496 199.724 25.7601 196.131 25.6917C192.538 25.6232 189.6 26.9018 189.568 28.5474C189.537 30.1931 192.424 31.5826 196.017 31.651C199.61 31.7195 202.548 30.4409 202.58 28.7953Z" fill="#54804F"/>
<path d="M116.705 25.5806C116.735 23.9988 113.924 22.6624 110.428 22.5958C106.931 22.5292 104.072 23.7576 104.041 25.3394C104.011 26.9213 106.822 28.2576 110.318 28.3242C113.815 28.3908 116.674 27.1625 116.705 25.5806Z" fill="#54804F"/>
<path d="M129.757 25.503C129.799 23.2839 126.05 21.4128 121.384 21.3239C116.717 21.235 112.9 22.9619 112.858 25.1811C112.816 27.4002 116.564 29.2713 121.231 29.3602C125.897 29.4491 129.714 27.7222 129.757 25.503Z" fill="#54804F"/>
<path d="M125.543 29.6291C125.564 28.5508 123.648 27.6399 121.264 27.5945C118.881 27.5491 116.932 28.3864 116.911 29.4646C116.891 30.5429 118.806 31.4538 121.19 31.4992C123.574 31.5446 125.522 30.7073 125.543 29.6291Z" fill="#54804F"/>
<path d="M155.422 23.9623C155.468 21.5592 150.499 19.5158 144.323 19.3981C138.147 19.2805 133.104 21.1332 133.058 23.5363C133.012 25.9394 137.982 27.9828 144.157 28.1005C150.333 28.2181 155.376 26.3654 155.422 23.9623Z" fill="#54804F"/>
<path d="M139.953 25.5626C139.985 23.9089 136.768 22.5066 132.769 22.4304C128.77 22.3542 125.503 23.633 125.472 25.2867C125.44 26.9404 128.656 28.3428 132.655 28.4189C136.654 28.4951 139.921 27.2163 139.953 25.5626Z" fill="#54804F"/>
<path d="M160.844 27.3513C160.876 25.671 157.325 24.2406 152.912 24.1566C148.499 24.0725 144.896 25.3665 144.864 27.0468C144.832 28.7272 148.383 30.1575 152.796 30.2416C157.209 30.3256 160.812 29.0316 160.844 27.3513Z" fill="#54804F"/>
<path d="M144.91 29.1532C144.932 28.0058 142.701 27.0328 139.926 26.98C137.152 26.9271 134.885 27.8144 134.863 28.9618C134.841 30.1092 137.072 31.0822 139.847 31.135C142.622 31.1879 144.889 30.3006 144.91 29.1532Z" fill="#54804F"/>
<path d="M217.644 26.139C217.994 24.6938 215.122 22.7593 211.231 21.8184C207.34 20.8774 203.902 21.2861 203.553 22.7314C203.203 24.1766 206.074 26.111 209.966 27.052C213.857 27.9929 217.295 27.5842 217.644 26.139Z" fill="#54804F"/>
<path d="M135.956 40.5647C137.117 40.5647 138.058 39.6235 138.058 38.4625C138.058 37.3015 137.117 36.3604 135.956 36.3604C134.795 36.3604 133.854 37.3015 133.854 38.4625C133.854 39.6235 134.795 40.5647 135.956 40.5647Z" fill="#54804F"/>
<path d="M133.854 38.4226L138.058 38.5027L138.267 27.537L134.063 27.4569L133.854 38.4226Z" fill="#54804F"/>
<path d="M145.39 37.2654C146.551 37.2654 147.492 36.3242 147.492 35.1632C147.492 34.0022 146.551 33.061 145.39 33.061C144.229 33.061 143.288 34.0022 143.288 35.1632C143.288 36.3242 144.229 37.2654 145.39 37.2654Z" fill="#54804F"/>
<path d="M143.289 35.1233L147.492 35.2034L147.701 24.2376L143.498 24.1576L143.289 35.1233Z" fill="#54804F"/>
<path d="M179.224 37.7143C180.385 37.7143 181.326 36.7732 181.326 35.6122C181.326 34.4512 180.385 33.51 179.224 33.51C178.063 33.51 177.122 34.4512 177.122 35.6122C177.122 36.7732 178.063 37.7143 179.224 37.7143Z" fill="#54804F"/>
<path d="M177.122 35.5723L181.326 35.6523L181.535 24.6866L177.331 24.6065L177.122 35.5723Z" fill="#54804F"/>
<path d="M201.215 22.9768C201.291 21.8643 198.375 20.7591 194.702 20.5082C191.028 20.2574 187.989 20.9559 187.913 22.0684C187.837 23.1809 190.753 24.2861 194.427 24.537C198.1 24.7879 201.139 24.0893 201.215 22.9768Z" fill="#4D9859"/>
<path d="M173.677 24.4923C176.425 24.2955 178.592 23.2967 178.518 22.2614C178.444 21.2261 176.156 20.5464 173.408 20.7432C170.66 20.94 168.493 21.9389 168.567 22.9742C168.641 24.0095 170.929 24.6892 173.677 24.4923Z" fill="#4D9859"/>
<path d="M152.359 23.3139C152.443 22.0877 150.004 20.9224 146.913 20.7113C143.821 20.5002 141.247 21.323 141.163 22.5493C141.079 23.7755 143.518 24.9407 146.609 25.1518C149.701 25.363 152.275 24.5401 152.359 23.3139Z" fill="#4D9859"/>
<path d="M123.482 23.8606C123.497 23.0941 122.037 22.4446 120.221 22.41C118.406 22.3755 116.922 22.9688 116.908 23.7354C116.893 24.5019 118.353 25.1513 120.169 25.1859C121.984 25.2205 123.468 24.6271 123.482 23.8606Z" fill="#4D9859"/>
<path d="M37.1825 25.2304C37.1866 23.111 32.3945 21.3837 26.479 21.3723C20.5636 21.3609 15.7649 23.0697 15.7608 25.1891C15.7567 27.3085 20.5488 29.0359 26.4642 29.0473C32.3797 29.0587 37.1784 27.3498 37.1825 25.2304Z" fill="#54804F"/>
<path d="M41.797 22.8073C41.8009 20.7764 37.707 19.1222 32.653 19.1124C27.599 19.1027 23.4988 20.7411 23.4949 22.772C23.491 24.8029 27.5848 26.4571 32.6388 26.4669C37.6928 26.4766 41.793 24.8382 41.797 22.8073Z" fill="#54804F"/>
<path d="M47.3085 25.9513C47.3119 24.2208 44.4212 22.8123 40.8521 22.8055C37.2829 22.7986 34.3868 24.1959 34.3835 25.9264C34.3801 27.6569 37.2708 29.0654 40.84 29.0723C44.4091 29.0792 47.3052 27.6819 47.3085 25.9513Z" fill="#54804F"/>
<path d="M17.9785 24.0965C17.974 26.905 12.7412 29.1697 6.29291 29.1585C3.04854 29.1518 0.114227 28.5698 -2 27.6374V20.4859C0.118725 19.558 3.05979 18.985 6.31089 18.9918C12.7614 19.003 17.9852 21.2902 17.9785 24.0965Z" fill="#54804F"/>
<path d="M20.9567 28.3035C20.9596 26.7763 18.1182 25.5327 14.6101 25.526C11.1021 25.5192 8.25584 26.7518 8.25289 28.279C8.24995 29.8062 11.0914 31.0497 14.5995 31.0564C18.1075 31.0632 20.9537 29.8307 20.9567 28.3035Z" fill="#54804F"/>
<path d="M18.9014 41.0881C20.3449 41.0881 21.5151 39.9179 21.5151 38.4744C21.5151 37.0308 20.3449 35.8606 18.9014 35.8606C17.4578 35.8606 16.2876 37.0308 16.2876 38.4744C16.2876 39.9179 17.4578 41.0881 18.9014 41.0881Z" fill="#54804F"/>
<path d="M16.2876 38.4694L21.5151 38.4795L21.5414 24.8426L16.3139 24.8326L16.2876 38.4694Z" fill="#54804F"/>
<path d="M38.0312 22.7999C38.0333 21.6749 35.8752 20.7588 33.2109 20.7537C30.5466 20.7485 28.385 21.6563 28.3828 22.7812C28.3807 23.9062 30.5387 24.8223 33.2031 24.8274C35.8674 24.8326 38.029 23.9248 38.0312 22.7999Z" fill="#4D9859"/>
<path d="M14.3264 23.1542C14.393 21.8705 11.597 20.682 8.08133 20.4996C4.56571 20.3173 1.66176 21.2101 1.59517 22.4938C1.52859 23.7775 4.32458 24.9659 7.84021 25.1483C11.3558 25.3307 14.2598 24.4378 14.3264 23.1542Z" fill="#4D9859"/>
<path d="M66.1783 26.3574C66.199 24.9174 63.6926 23.7138 60.58 23.669C57.4674 23.6242 54.9274 24.7552 54.9067 26.1952C54.8859 27.6352 57.3924 28.8388 60.505 28.8836C63.6175 28.9284 66.1576 27.7974 66.1783 26.3574Z" fill="#54804F"/>
<path d="M58.799 25.4667C58.8329 23.1076 55.0501 21.1402 50.3499 21.0726C45.6496 21.0049 41.8117 22.8626 41.7778 25.2217C41.7438 27.5809 45.5266 29.5483 50.2269 29.6159C54.9272 29.6836 58.765 27.8259 58.799 25.4667Z" fill="#54804F"/>
<path d="M54.5713 29.877C54.5878 28.7307 52.6549 27.7734 50.2541 27.7389C47.8532 27.7043 45.8935 28.6056 45.877 29.7519C45.8605 30.8981 47.7934 31.8554 50.1943 31.89C52.5952 31.9245 54.5548 31.0233 54.5713 29.877Z" fill="#54804F"/>
<path d="M55.491 23.8004C55.5027 22.9855 53.9476 22.3024 52.0176 22.2746C50.0876 22.2468 48.5134 22.8849 48.5017 23.6998C48.49 24.5147 50.0451 25.1978 51.9751 25.2256C53.9052 25.2534 55.4792 24.6153 55.491 23.8004Z" fill="#4D9859"/>
<path d="M288.328 22.9825C288.382 21.0506 285.076 19.3911 280.944 19.2758C276.812 19.1605 273.419 20.6331 273.365 22.565C273.311 24.4969 276.617 26.1565 280.749 26.2717C284.881 26.387 288.274 24.9144 288.328 22.9825Z" fill="#54804F"/>
<path d="M321.538 20.2682V27.4894C319.9 27.9388 317.916 28.1725 315.786 28.114C310.255 27.959 305.824 25.8807 305.891 23.4722C305.959 21.0636 310.497 19.237 316.029 19.392C318.074 19.4482 319.968 19.7672 321.538 20.2682Z" fill="#54804F"/>
<path d="M297.985 25.461C298.035 23.6597 294.722 22.1058 290.584 21.9903C286.446 21.8749 283.051 23.2416 283.001 25.0429C282.951 26.8442 286.264 28.398 290.402 28.5135C294.54 28.629 297.935 27.2623 297.985 25.461Z" fill="#54804F"/>
<path d="M310.709 22.2087C310.781 19.6332 305.188 17.3877 298.216 17.1932C291.244 16.9986 285.534 18.9288 285.462 21.5042C285.39 24.0797 290.984 26.3252 297.956 26.5197C304.928 26.7143 310.638 24.7841 310.709 22.2087Z" fill="#54804F"/>
<path d="M313.064 28.0369C313.106 26.5588 310.387 25.2837 306.991 25.189C303.596 25.0943 300.81 26.2157 300.769 27.6938C300.728 29.1719 303.447 30.4469 306.842 30.5417C310.237 30.6364 313.023 29.515 313.064 28.0369Z" fill="#54804F"/>
<path d="M262.952 25.3621C266.107 24.9999 268.545 23.6611 268.397 22.3717C268.249 21.0823 265.571 20.3306 262.417 20.6927C259.262 21.0548 256.824 22.3937 256.972 23.6831C257.12 24.9725 259.798 25.7242 262.952 25.3621Z" fill="#54804F"/>
<path d="M278.627 22.5982C278.779 20.5967 275.739 18.735 271.839 18.44C267.938 18.145 264.653 19.5284 264.502 21.5299C264.35 23.5315 267.39 25.3932 271.29 25.6882C275.191 25.9832 278.476 24.5997 278.627 22.5982Z" fill="#54804F"/>
<path d="M271.484 37.9053C272.927 37.9053 274.098 36.735 274.098 35.2915C274.098 33.848 272.927 32.6777 271.484 32.6777C270.04 32.6777 268.87 33.848 268.87 35.2915C268.87 36.735 270.04 37.9053 271.484 37.9053Z" fill="#54804F"/>
<path d="M274.039 21.6434L268.812 21.666L268.87 35.3028L274.098 35.2802L274.039 21.6434Z" fill="#54804F"/>
<path d="M294.038 43.3464C295.481 43.3464 296.651 42.1762 296.651 40.7327C296.651 39.2891 295.481 38.1189 294.038 38.1189C292.594 38.1189 291.424 39.2891 291.424 40.7327C291.424 42.1762 292.594 43.3464 294.038 43.3464Z" fill="#54804F"/>
<path d="M296.593 27.0846L291.365 27.1072L291.424 40.7439L296.652 40.7213L296.593 27.0846Z" fill="#54804F"/>
<path d="M306.627 21.3641C306.661 20.1473 303.431 19.07 299.413 18.9579C295.396 18.8458 292.111 19.7413 292.077 20.9581C292.043 22.175 295.273 23.2523 299.29 23.3644C303.308 23.4765 306.593 22.5809 306.627 21.3641Z" fill="#4D9859"/>
<path d="M320.406 22.4792C320.435 21.451 318.444 20.5613 315.96 20.492C313.476 20.4227 311.439 21.2 311.41 22.2282C311.382 23.2563 313.372 24.146 315.856 24.2154C318.34 24.2847 320.377 23.5074 320.406 22.4792Z" fill="#4D9859"/>
<path d="M274.411 21.1645C274.434 20.337 272.832 19.6208 270.833 19.5651C268.833 19.5093 267.194 20.1349 267.171 20.9625C267.148 21.7901 268.75 22.5062 270.749 22.562C272.749 22.6177 274.388 21.9921 274.411 21.1645Z" fill="#4D9859"/>
<path d="M299.844 28.9073C299.844 28.9073 300.553 32.3349 299.595 32.9756C298.192 33.9137 295.313 32.0255 295.602 30.8966C295.892 29.7677 298.7 28.2383 298.7 28.2383L299.844 28.9073Z" fill="#773A79"/>
<path d="M298.441 28.3745C298.441 28.3745 295.4 30.1079 294.494 29.3947C293.169 28.3504 294.075 25.0291 295.238 24.9554C296.401 24.8818 298.723 27.0803 298.723 27.0803L298.441 28.3745Z" fill="#773A79"/>
<path d="M298.513 26.8745C298.513 26.8745 295.924 24.5182 296.323 23.4368C296.907 21.8532 300.345 21.6887 300.775 22.7721C301.204 23.8555 299.831 26.7437 299.831 26.7437L298.513 26.8745Z" fill="#773A79"/>
<path d="M299.962 26.4803C299.962 26.4803 301.403 23.2906 302.555 23.3354C304.241 23.4011 305.46 26.6207 304.563 27.3639C303.665 28.1071 300.494 27.6936 300.494 27.6936L299.962 26.4803Z" fill="#773A79"/>
<path d="M300.786 27.7363C300.786 27.7363 304.264 28.1214 304.578 29.2305C305.036 30.8546 302.351 33.009 301.367 32.3849C300.383 31.7608 299.796 28.6171 299.796 28.6171L300.786 27.7363Z" fill="#773A79"/>
<path d="M298.516 23.2463C298.748 23.6041 299.387 24.4837 300.592 25.0194C301.828 25.5688 302.937 25.4353 303.355 25.3635C303.179 25.4944 302.079 26.3413 301.953 27.8487C301.855 29.0231 302.409 29.8728 302.579 30.1133C302.213 29.9757 301.347 29.7065 300.275 29.9227C298.94 30.1918 298.154 31.0378 297.915 31.3168C297.93 30.9348 297.918 29.9146 297.26 28.8819C296.492 27.6752 295.352 27.2505 295.014 27.1382C295.327 27.1008 296.507 26.9221 297.459 25.8941C298.46 24.8136 298.511 23.5474 298.516 23.2463Z" fill="#9A4D89"/>
<path d="M299.426 28.9629C300.217 28.9629 300.859 28.321 300.859 27.5293C300.859 26.7375 300.217 26.0957 299.426 26.0957C298.634 26.0957 297.992 26.7375 297.992 27.5293C297.992 28.321 298.634 28.9629 299.426 28.9629Z" fill="#BD62B2"/>
<path d="M23.4401 30.9364C23.4401 30.9364 24.1378 34.3663 23.1776 35.0039C21.7717 35.9374 18.8992 34.0398 19.1922 32.9119C19.4853 31.7839 22.2988 30.2637 22.2988 30.2637L23.4401 30.9364Z" fill="#454CA6"/>
<path d="M22.0374 30.3994C22.0374 30.3994 18.991 32.1228 18.0879 31.4067C16.7656 30.3581 17.6826 27.0397 18.8459 26.9699C20.0092 26.9 22.3245 29.1061 22.3245 29.1061L22.0374 30.3994Z" fill="#454CA6"/>
<path d="M22.115 28.8996C22.115 28.8996 19.5345 26.5348 19.9366 25.4547C20.5253 23.8731 23.9646 23.7198 24.3905 24.8045C24.8164 25.8893 23.4338 28.773 23.4338 28.773L22.115 28.8996Z" fill="#454CA6"/>
<path d="M23.5654 28.5099C23.5654 28.5099 25.017 25.325 26.1686 25.3736C27.8547 25.4447 29.0633 28.6683 28.1632 29.4086C27.2631 30.1489 24.0934 29.7251 24.0934 29.7251L23.5654 28.5099Z" fill="#454CA6"/>
<path d="M24.3846 29.7688C24.3846 29.7688 27.8622 30.1652 28.1718 31.2753C28.6252 32.9009 25.9329 35.0465 24.9507 34.4192C23.9685 33.792 23.3921 30.6464 23.3921 30.6464L24.3846 29.7688Z" fill="#454CA6"/>
<path d="M22.1303 25.2715C22.3615 25.63 22.9974 26.5117 24.2009 27.0513C25.4351 27.6048 26.5445 27.4749 26.9631 27.4044C26.7865 27.5347 25.6836 28.3781 25.5528 29.885C25.451 31.0591 26.0023 31.9107 26.1709 32.1517C25.8061 32.0129 24.9411 31.7409 23.8679 31.9536C22.5321 32.2183 21.7434 33.0617 21.5036 33.3399C21.5194 32.958 21.5106 31.9378 20.8566 30.9029C20.0925 29.6938 18.9537 29.2653 18.6157 29.152C18.9294 29.1155 20.1102 28.9407 21.0656 27.9158C22.0697 26.8385 22.1252 25.5726 22.1303 25.2715Z" fill="#3D7BC0"/>
<path d="M23.0264 30.9907C23.8181 30.9907 24.4599 30.3489 24.4599 29.5571C24.4599 28.7654 23.8181 28.1235 23.0264 28.1235C22.2346 28.1235 21.5928 28.7654 21.5928 29.5571C21.5928 30.3489 22.2346 30.9907 23.0264 30.9907Z" fill="#6CC0E5"/>
<path d="M134.118 25.5174C134.118 25.5174 133.863 29.624 132.578 30.0546C130.697 30.685 128.015 27.6539 128.693 26.463C129.37 25.272 133.028 24.4053 133.028 24.4053L134.118 25.5174Z" fill="#773A79"/>
<path d="M132.69 24.4795C132.69 24.4795 128.705 25.5057 127.899 24.417C126.718 22.8229 128.772 19.336 130.114 19.6119C131.456 19.8878 133.411 23.099 133.411 23.099L132.69 24.4795Z" fill="#773A79"/>
<path d="M133.236 22.8008C133.236 22.8008 131.029 19.3285 131.815 18.2251C132.966 16.6095 136.918 17.4855 137.07 18.847C137.222 20.2085 134.772 23.0598 134.772 23.0598L133.236 22.8008Z" fill="#773A79"/>
<path d="M135.001 22.8013C135.001 22.8013 137.622 19.629 138.914 20.0358C140.806 20.6313 141.194 24.6597 139.946 25.2253C138.699 25.7908 135.23 24.3418 135.23 24.3418L135.001 22.8013Z" fill="#773A79"/>
<path d="M135.546 24.4805C135.546 24.4805 139.373 25.9923 139.386 27.347C139.404 29.3308 135.692 30.9444 134.769 29.9324C133.846 28.9205 134.152 25.1737 134.152 25.1737L135.546 24.4805Z" fill="#773A79"/>
<path d="M134.361 18.6865C134.513 19.1641 134.966 20.3592 136.168 21.3392C137.4 22.3442 138.699 22.5355 139.195 22.5833C138.955 22.6774 137.446 23.298 136.837 24.9687C136.363 26.2704 136.729 27.4054 136.847 27.7304C136.475 27.4616 135.576 26.8886 134.293 26.8024C132.696 26.695 131.543 27.4116 131.186 27.6543C131.32 27.2255 131.622 26.0648 131.195 24.6903C130.697 23.0844 129.535 22.2504 129.186 22.0185C129.553 22.0729 130.947 22.2349 132.344 21.3632C133.813 20.4469 134.263 19.0267 134.361 18.6865Z" fill="#9A4D89"/>
<path d="M134.069 25.5105C135 25.5105 135.754 24.7561 135.754 23.8253C135.754 22.8946 135 22.1401 134.069 22.1401C133.138 22.1401 132.384 22.8946 132.384 23.8253C132.384 24.7561 133.138 25.5105 134.069 25.5105Z" fill="#BD62B2"/>
<path d="M110.496 29.951C110.496 29.951 107.236 30.079 106.793 29.1002C106.145 27.6668 108.321 25.3083 109.315 25.7469C110.309 26.1855 111.286 29.0017 111.286 29.0017L110.496 29.951Z" fill="#773A79"/>
<path d="M111.201 28.7414C111.201 28.7414 110.071 25.6805 110.866 24.9569C112.028 23.8975 114.944 25.2383 114.834 26.319C114.724 27.3997 112.347 29.1993 112.347 29.1993L111.201 28.7414Z" fill="#773A79"/>
<path d="M112.569 29.0375C112.569 29.0375 115.131 27.0177 116.065 27.5494C117.431 28.3279 117.057 31.5151 115.995 31.7444C114.934 31.9737 112.488 30.2697 112.488 30.2697L112.569 29.0375Z" fill="#773A79"/>
<path d="M112.71 30.4302C112.71 30.4302 115.423 32.2428 115.206 33.2949C114.888 34.8356 111.741 35.4646 111.195 34.5256C110.648 33.5866 111.513 30.7338 111.513 30.7338L112.71 30.4302Z" fill="#773A79"/>
<path d="M111.429 30.9948C111.429 30.9948 110.544 34.1348 109.476 34.2534C107.912 34.427 106.342 31.6286 107.066 30.8189C107.79 30.0093 110.771 29.9502 110.771 29.9502L111.429 30.9948Z" fill="#773A79"/>
<path d="M115.905 29.5943C115.54 29.7533 114.634 30.2063 113.957 31.2326C113.263 32.2852 113.216 33.3254 113.219 33.721C113.125 33.539 112.514 32.3979 111.148 32.0519C110.083 31.7824 109.217 32.162 108.97 32.281C109.152 31.9662 109.532 31.2111 109.497 30.1919C109.454 28.9233 108.796 28.0713 108.576 27.809C108.925 27.8808 109.865 28.0256 110.915 27.5789C112.142 27.057 112.706 26.0735 112.861 25.7795C112.848 26.0736 112.832 27.1862 113.632 28.2186C114.472 29.3038 115.629 29.5445 115.905 29.5943Z" fill="#9A4D89"/>
<path d="M111.827 31.1128C112.565 31.1128 113.164 30.5145 113.164 29.7765C113.164 29.0385 112.565 28.4402 111.827 28.4402C111.089 28.4402 110.491 29.0385 110.491 29.7765C110.491 30.5145 111.089 31.1128 111.827 31.1128Z" fill="#BD62B2"/>
<path d="M196.392 31.797C196.392 31.797 196.398 34.5773 195.55 34.9233C194.309 35.4298 192.369 33.5019 192.774 32.6695C193.179 31.8371 195.609 31.0942 195.609 31.0942L196.392 31.797Z" fill="#454CA6"/>
<path d="M195.384 31.1586C195.384 31.1586 192.742 32.0232 192.151 31.3239C191.286 30.3001 192.52 27.8598 193.437 27.9878C194.354 28.1157 195.811 30.1965 195.811 30.1965L195.384 31.1586Z" fill="#454CA6"/>
<path d="M195.68 30.0032C195.68 30.0032 194.041 27.7572 194.523 26.9791C195.23 25.8398 197.932 26.2595 198.094 27.171C198.255 28.0825 196.727 30.1113 196.727 30.1113L195.68 30.0032Z" fill="#454CA6"/>
<path d="M196.871 29.9271C196.871 29.9271 198.5 27.6745 199.389 27.8928C200.691 28.2125 201.127 30.9122 200.31 31.3476C199.493 31.783 197.091 30.9561 197.091 30.9561L196.871 29.9271Z" fill="#454CA6"/>
<path d="M197.31 31.0356C197.31 31.0356 199.956 31.8894 200.023 32.8024C200.122 34.1394 197.689 35.3882 197.022 34.7458C196.356 34.1033 196.4 31.5635 196.4 31.5635L197.31 31.0356Z" fill="#454CA6"/>
<path d="M196.26 27.1802C196.383 27.4956 196.74 28.2819 197.593 28.8908C198.467 29.5152 199.352 29.5879 199.689 29.5986C199.531 29.6725 198.54 30.1563 198.202 31.3093C197.938 32.2076 198.234 32.9571 198.328 33.1712C198.065 33.006 197.434 32.6586 196.565 32.656C195.484 32.6527 194.737 33.1859 194.507 33.3649C194.579 33.07 194.732 32.2742 194.385 31.3658C193.98 30.3045 193.16 29.7923 192.915 29.6511C193.165 29.6719 194.111 29.7208 195.016 29.0725C195.967 28.391 196.208 27.4139 196.26 27.1802Z" fill="#3D7BC0"/>
<path d="M196.286 31.7967C196.915 31.7967 197.424 31.2869 197.424 30.658C197.424 30.0291 196.915 29.5193 196.286 29.5193C195.657 29.5193 195.147 30.0291 195.147 30.658C195.147 31.2869 195.657 31.7967 196.286 31.7967Z" fill="#6CC0E5"/>
<defs>
<linearGradient id="paint0_linear_113_93" x1="159.769" y1="23.1687" x2="159.769" y2="52.1254" gradientUnits="userSpaceOnUse">
<stop stop-color="#7F6F57" stop-opacity="0"/>
<stop offset="1" stop-color="#443A2F"/>
</linearGradient>
</defs>
</svg>
