<svg width="834" height="292" viewBox="0 0 834 292" fill="none" xmlns="http://www.w3.org/2000/svg">
<g clip-path="url(#clip0_79_1054)">
<path d="M134.738 36.6136C139.892 40.2422 148.851 45.4767 161.156 47.6968C185.531 52.0944 204.766 41.3664 209.746 38.3869" stroke="#355B20" stroke-width="2.85635" stroke-miterlimit="10"/>
<path d="M132.904 45.9401C134.309 48.2719 143.061 62.2792 160.186 65.3609C182.08 69.3009 197.146 51.6911 197.962 50.7037" stroke="#355B20" stroke-width="2.85635" stroke-miterlimit="10"/>
<path d="M272.094 64.4142C273.506 65.937 283.22 76.0678 298.395 75.4183C310.585 74.8966 318.424 67.7544 320.391 65.8496" stroke="#355B20" stroke-width="2.85635" stroke-miterlimit="10"/>
<path d="M448.429 44.4496C449.498 45.4578 457.252 52.5239 468.513 51.1477C478.118 49.9738 483.629 43.4702 484.771 42.0574" stroke="#355B20" stroke-width="2.85635" stroke-miterlimit="10"/>
<path d="M251.581 19.6469C253.699 22.3377 266.986 38.6332 291.191 41.026C316.613 43.5391 333.738 28.7064 336.171 26.5255" stroke="#355B20" stroke-width="2.85635" stroke-miterlimit="10"/>
<path d="M251.248 122.032H205.902C204.969 122.032 204.133 122.608 203.8 123.48L198.528 137.293C198.195 138.165 197.359 138.741 196.426 138.741H153.442C151.757 138.741 150.67 136.956 151.442 135.458L213.296 15.4889C213.682 14.7403 214.453 14.2699 215.295 14.2699H254.538C255.404 14.2699 256.194 14.7678 256.568 15.5499L313.897 135.519C314.611 137.013 313.522 138.741 311.867 138.741H261.037C260.12 138.741 259.295 138.184 258.951 137.334L253.333 123.438C252.989 122.588 252.164 122.032 251.248 122.032ZM242.137 95.285L229.96 65.0467C229.195 63.1457 226.495 63.1741 225.77 65.0908L214.326 95.3291C213.769 96.8017 214.857 98.377 216.43 98.377H240.05C241.644 98.377 242.732 96.7642 242.137 95.285Z" fill="#454654"/>
<path d="M148.603 138.339L151.666 131.738L169.809 118.065H177.82L188.188 123.016L185.832 131.974L160.149 143.997L148.603 138.339Z" fill="#697976"/>
<path d="M196.405 119.663L200.653 115.684L212.434 112.116L218.446 118.122L214.153 124.274L203.064 126.501L196.405 119.663Z" fill="#708080"/>
<path d="M287.401 132.594L285.078 122.126L290.682 118.041L307.51 117.955L313.384 131.871L306.964 137.135L287.401 132.594Z" fill="#697976"/>
<path d="M242.184 109.989L249.017 107.632L264.097 108.811L269.045 118.476L258.913 125.638L242.184 119.891V109.989Z" fill="#697976"/>
<path d="M237.208 100.325V103.371H243.569L251.581 97.7131V91.5838L244.394 90.1845L237.208 100.325Z" fill="#7E8E8D"/>
<path d="M186.644 138.049V134.513L194.183 129.091H202.195V136.399L193.241 141.114L186.644 138.049Z" fill="#708080"/>
<path d="M271.238 96.4702L288.491 102.916L289.532 113.327L283.364 116.635L269.764 106.245L271.238 96.4702Z" fill="#708080"/>
<path d="M258.913 130.741L255.614 137.578L264.332 141.114L278.705 133.806L279.648 127.205L269.752 124.159L258.913 130.741Z" fill="#7E8E8D"/>
<path d="M184.879 89.0507L186.129 96.1735L182.588 110.887L172.268 114.251L166.796 103.112L175.107 87.4895L184.879 89.0507Z" fill="#697976"/>
<path d="M210.038 87.4L216.275 91.7234L221.122 83.6567L216.141 68.3147L209.77 66.3568L205.225 75.6641L210.038 87.4Z" fill="#7E8E8D"/>
<path d="M194.683 103.735L196.45 105.985L193.904 113.567L188.32 117.955L184.668 113.303L188.553 105.397L194.683 103.735Z" fill="#7E8E8D"/>
<path d="M262.536 93.8472L259.629 91.5909L260.439 81.3359L266.036 74.1158L272.045 78.7788L269.666 89.8567L262.536 93.8472Z" fill="#708080"/>
<path d="M255.893 14.2699H213.82C211.317 19.1909 208.815 24.1119 206.313 29.0328C207.756 31.9965 210.322 36.09 214.356 36.8695C219.389 37.842 221.828 32.7143 227.508 33.3163C233.034 33.902 233.232 39.023 240.311 40.9791C241.296 41.2511 246.959 42.7178 252.655 39.8503C260.012 36.1467 261.752 28.0691 261.987 26.8854C259.956 22.6803 257.924 18.4751 255.893 14.2699Z" fill="#3A3652"/>
<path d="M252.05 23.1747C258.754 23.1747 264.188 20.432 264.188 17.0486C264.188 13.6653 258.754 10.9226 252.05 10.9226C245.347 10.9226 239.912 13.6653 239.912 17.0486C239.912 20.432 245.347 23.1747 252.05 23.1747Z" fill="#5E8054"/>
<path d="M236.259 14.8607C246.234 14.8607 254.32 12.3533 254.32 9.2602C254.32 6.16711 246.234 3.65967 236.259 3.65967C226.285 3.65967 218.199 6.16711 218.199 9.2602C218.199 12.3533 226.285 14.8607 236.259 14.8607Z" fill="#5E8054"/>
<path d="M221.052 26.4113C230.224 26.4113 237.659 22.5719 237.659 17.8357C237.659 13.0996 230.224 9.26019 221.052 9.26019C211.88 9.26019 204.444 13.0996 204.444 17.8357C204.444 22.5719 211.88 26.4113 221.052 26.4113Z" fill="#5E8054"/>
<path d="M239.912 47.3115C242.516 47.3115 244.627 45.1992 244.627 42.5936C244.627 39.9881 242.516 37.8758 239.912 37.8758C237.308 37.8758 235.197 39.9881 235.197 42.5936C235.197 45.1992 237.308 47.3115 239.912 47.3115Z" fill="#5E8054"/>
<path d="M244.627 11.7291H235.197V42.5936H244.627V11.7291Z" fill="#5E8054"/>
<path d="M221.933 113.636C224.537 113.636 226.648 111.524 226.648 108.918C226.648 106.313 224.537 104.2 221.933 104.2C219.328 104.2 217.217 106.313 217.217 108.918C217.217 111.524 219.328 113.636 221.933 113.636Z" fill="#5E8054"/>
<path d="M226.648 98.3834H217.217V108.918H226.648V98.3834Z" fill="#5E8054"/>
<path d="M312.573 76.7688C312.573 35.2806 340.344 12.3745 390.445 12.3745C439.351 12.3745 463.933 29.808 455.982 64.4977C455.747 65.5202 454.812 66.257 453.763 66.257H413.132C411.744 66.257 410.662 64.9991 410.919 63.634C413.599 49.3752 406.095 43.354 391.569 43.354C372.994 43.354 365.3 53.3036 365.3 76.7688C365.3 100.427 373.18 110.376 391.569 110.376C405.806 110.376 412.28 104.972 409.869 89.8399C409.654 88.4931 410.735 87.2837 412.098 87.2837H454.892C455.94 87.2837 456.875 88.0195 457.11 89.0409C465.05 123.527 440.269 140.414 390.445 140.414C339.969 140.414 312.573 118.074 312.573 76.7688Z" fill="#454654"/>
<path d="M340.754 131.97L339.979 121.275L346.117 118.049L362.779 120.414L366.566 135.037L359.449 139.311L340.754 131.97Z" fill="#697976"/>
<path d="M360.394 96.8329L356.567 92.7315L352.068 76.5516L354.395 71.3338L360.945 66.161L366.662 70.5542L367.792 91.1185L360.394 96.8329Z" fill="#697976"/>
<path d="M377.214 110.531L382.671 108.509L394.914 109.785L398.131 117.651L391.792 121.66L380.706 119.416L377.214 110.531Z" fill="#708080"/>
<path d="M426.703 138.108L429.951 127.889L424.734 123.319L407.98 121.731L400.888 135.067L406.813 140.884L426.703 138.108Z" fill="#697976"/>
<path d="M409.697 97.5879L416.869 98.4853L429.886 106.194L430.069 117.052L417.819 119.012L405.335 106.475L409.697 97.5879Z" fill="#7E8E8D"/>
<path d="M368.828 125.41L371.178 127.346L375.222 122.432L375.948 112.647L371.218 108.752L365.571 113.414L368.828 125.41Z" fill="#7E8E8D"/>
<path d="M329.158 64.8699L332.548 65.8715L335.61 74.6421L333.341 82.3293L326.336 80.2594L324.352 70.3324L329.158 64.8699Z" fill="#7E8E8D"/>
<path d="M451.305 67.6243L432.906 68.4193L427.89 59.2379L432.281 53.786L448.854 58.0483L451.305 67.6243Z" fill="#708080"/>
<path d="M378.335 132.78L377.193 140.285L386.565 141.098L398.152 129.882L397.112 123.295L386.758 123.298L378.335 132.78Z" fill="#708080"/>
<path d="M349.544 93.248L349.976 100.467L344.787 114.682L334.151 116.851L329.981 105.162L340.012 90.5856L349.544 93.248Z" fill="#708080"/>
<path d="M317.386 106.188L323.623 110.511L328.47 102.445L323.489 87.1029L317.119 85.145L312.573 94.4523L317.386 106.188Z" fill="#708080"/>
<path d="M410.63 68.4193L409.011 66.0594L412.038 58.6572L417.892 54.6369L421.238 59.5139L416.854 67.1536L410.63 68.4193Z" fill="#7E8E8D"/>
<path d="M444.09 119.322L442.063 112.372L444.032 97.3657L454.041 92.9261L460.746 103.423L454.082 119.839L444.09 119.322Z" fill="#697976"/>
<path d="M324.524 37.4735C325.618 39.2405 327.897 42.3984 331.907 44.9173C333.523 45.9327 337.526 48.4467 342.067 48.3554C351.674 48.1623 353.859 36.5025 362.632 36.4122C368.51 36.3517 369.23 41.5695 375.339 41.4738C383.585 41.3447 385.335 31.7939 392.807 31.6836C399.047 31.5914 399.538 38.2275 410.056 42.3372C413.248 43.5846 420.256 45.7289 428.394 43.9561C434.941 42.5298 439.584 39.1425 442.417 37.0759C445.71 34.6735 448.134 32.2321 449.778 30.3759C449.24 29.7641 448.387 28.8278 447.281 27.7533C431.184 12.1232 407.683 12.2681 390.446 12.3745C381.283 12.4311 365.965 12.6478 350.769 18.731C345.402 20.8798 335.552 24.9486 327.007 34.4909C325.921 35.7033 325.08 36.7548 324.524 37.4735Z" fill="#3A3652"/>
<path d="M368.435 28.1438C381.614 28.1438 392.298 23.4773 392.298 17.7207C392.298 11.9642 381.614 7.29767 368.435 7.29767C355.256 7.29767 344.572 11.9642 344.572 17.7207C344.572 23.4773 355.256 28.1438 368.435 28.1438Z" fill="#5E8054"/>
<path d="M342.674 29.6492C350.893 29.6492 357.556 26.3928 357.556 22.376C357.556 18.3591 350.893 15.1027 342.674 15.1027C334.455 15.1027 327.792 18.3591 327.792 22.376C327.792 26.3928 334.455 29.6492 342.674 29.6492Z" fill="#5E8054"/>
<path d="M336.171 37.7197C341.755 37.7197 346.282 35.2138 346.282 32.1226C346.282 29.0314 341.755 26.5255 336.171 26.5255C330.586 26.5255 326.059 29.0314 326.059 32.1226C326.059 35.2138 330.586 37.7197 336.171 37.7197Z" fill="#5E8054"/>
<path d="M407.075 26.0084C423.541 26.0084 436.89 21.5153 436.89 15.9726C436.89 10.43 423.541 5.93678 407.075 5.93678C390.61 5.93678 377.261 10.43 377.261 15.9726C377.261 21.5153 390.61 26.0084 407.075 26.0084Z" fill="#5E8054"/>
<path d="M435.584 28.2969C443.508 28.2969 449.931 25.0058 449.931 20.946C449.931 16.8862 443.508 13.5951 435.584 13.5951C427.661 13.5951 421.238 16.8862 421.238 20.946C421.238 25.0058 427.661 28.2969 435.584 28.2969Z" fill="#5E8054"/>
<path d="M415.419 34.912C423.51 34.912 430.069 31.8818 430.069 28.1438C430.069 24.4059 423.51 21.3757 415.419 21.3757C407.329 21.3757 400.77 24.4059 400.77 28.1438C400.77 31.8818 407.329 34.912 415.419 34.912Z" fill="#5E8054"/>
<path d="M435.584 104.505C438.189 104.505 440.3 102.393 440.3 99.7872C440.3 97.1816 438.189 95.0694 435.584 95.0694C432.98 95.0694 430.869 97.1816 430.869 99.7872C430.869 102.393 432.98 104.505 435.584 104.505Z" fill="#5E8054"/>
<path d="M440.3 87.2933H430.869V99.7872H440.3V87.2933Z" fill="#5E8054"/>
<path d="M407.469 21.6647C417.647 21.6647 425.898 19.1645 425.898 16.0805C425.898 12.9964 417.647 10.4962 407.469 10.4962C397.291 10.4962 389.04 12.9964 389.04 16.0805C389.04 19.1645 397.291 21.6647 407.469 21.6647Z" fill="#60975F"/>
<path d="M541.323 91.9208L530.894 102.065C530.458 102.489 530.212 103.072 530.212 103.68V136.335C530.212 137.579 529.203 138.588 527.96 138.588H481.611C480.368 138.588 479.359 137.579 479.359 136.335V16.3702C479.359 15.1259 480.368 14.1172 481.611 14.1172H527.96C529.203 14.1172 530.212 15.1259 530.212 16.3702V54.4928C530.212 56.7104 533.077 57.5939 534.324 55.7611L562.004 15.1019C562.424 14.4859 563.12 14.1173 563.865 14.1173H616.396C618.421 14.1173 619.417 16.5832 617.96 17.9907L579.357 55.2944C578.6 56.0265 578.451 57.1862 578.998 58.0864L625.89 135.164C626.803 136.665 625.723 138.588 623.966 138.588H565.128C564.212 138.588 563.387 138.032 563.042 137.183L544.979 92.6884C544.377 91.2072 542.468 90.8064 541.323 91.9208Z" fill="#454654"/>
<path d="M608.315 119.681L605.706 112.739L588.53 97.5783L580.536 97.0469L569.856 101.413L571.6 110.714L596.411 124.691L608.315 119.681Z" fill="#697976"/>
<path d="M590.977 128.891L587.738 124.054L577.069 117.912L569.856 122.402L572.647 129.367L582.945 134.045L590.977 128.891Z" fill="#708080"/>
<path d="M501.71 136.937L504.034 126.469L498.429 122.383L481.601 122.298L475.727 136.214L482.147 141.478L501.71 136.937Z" fill="#697976"/>
<path d="M532.187 102.263L525.354 99.9058L510.274 101.085L505.326 110.75L515.458 117.912L532.187 112.165V102.263Z" fill="#697976"/>
<path d="M551.674 90.5687V93.6143H545.312L537.301 87.9564V81.827L544.488 80.4277L551.674 90.5687Z" fill="#7E8E8D"/>
<path d="M576.72 137.59L576.162 134.098L567.861 129.935L559.95 131.2L561.103 138.416L570.689 141.658L576.72 137.59Z" fill="#7E8E8D"/>
<path d="M495.827 94.7831L478.574 101.229L477.533 111.64L483.701 114.948L497.301 104.558L495.827 94.7831Z" fill="#708080"/>
<path d="M531.784 129.992L535.083 136.829L526.365 140.365L511.992 133.057L511.049 126.456L520.946 123.411L531.784 129.992Z" fill="#7E8E8D"/>
<path d="M576.072 68.0226L575.64 75.2413L580.83 89.4565L591.465 91.6258L595.635 79.9363L585.604 65.3602L576.072 68.0226Z" fill="#708080"/>
<path d="M562.439 117.473L555.89 121.306L551.674 112.892L557.814 97.9763L564.316 96.512L568.136 106.14L562.439 117.473Z" fill="#708080"/>
<path d="M612.25 117.58L610.483 119.831L613.029 127.413L618.613 131.801L622.265 127.149L618.38 119.243L612.25 117.58Z" fill="#7E8E8D"/>
<path d="M503.459 98.1816L506.977 97.1055L509.86 87.2312L507.191 78.493L499.919 80.717L498.21 91.9181L503.459 98.1816Z" fill="#7E8E8D"/>
<path d="M506.601 120.45L507.352 117.688L502.057 111.697L495.207 109.83L493.653 115.537L500.307 121.306L506.601 120.45Z" fill="#708080"/>
<path d="M511.605 65.2152L520.031 58.5887L526.138 61.8749L533.499 77.0158L523.504 88.3373L515.982 84.826L511.605 65.2152Z" fill="#697976"/>
<path d="M593.754 134.123L595.094 137.552L605.153 139.678L613.659 136.352L610.89 129.266L599.598 128.412L593.754 134.123Z" fill="#708080"/>
<path d="M479.359 14.1172V33.6601C481.322 36.8331 484.037 40.1844 486.81 39.6177C491.214 38.7178 492.221 28.6597 495.568 28.7386C498.779 28.8143 498.985 38.0972 504.898 41.4308C505.74 41.9056 509.314 43.7345 512.514 41.6899C517.502 38.5026 517.32 28.6247 520.701 28.2205C522.537 28.001 523.253 31.228 525.271 31.0698C527.523 30.8932 529.178 26.7542 530.212 23.3613V14.1172H479.359Z" fill="#3A3652"/>
<path d="M562.675 14.1172H621.969C608.778 26.7169 601.501 28.0899 597.232 26.6237C595.608 26.0659 593.773 24.8756 591.019 25.2305C585.487 25.9435 584.322 31.8502 580.094 31.8748C576.091 31.8982 575.347 26.6115 570.99 26.4094C566.504 26.2013 564.495 31.6759 560.922 31.0175C559.399 30.7369 557.473 29.3209 555.776 24.2503L562.675 14.1172Z" fill="#3A3652"/>
<path d="M593.754 18.0565C605.544 18.0565 615.101 14.1393 615.101 9.3071C615.101 4.47493 605.544 0.557678 593.754 0.557678C581.964 0.557678 572.406 4.47493 572.406 9.3071C572.406 14.1393 581.964 18.0565 593.754 18.0565Z" fill="#5E8054"/>
<path d="M571.814 19.1376C579.449 19.1376 585.638 16.4419 585.638 13.1167C585.638 9.79137 579.449 7.0957 571.814 7.0957C564.18 7.0957 557.991 9.79137 557.991 13.1167C557.991 16.4419 564.18 19.1376 571.814 19.1376Z" fill="#5E8054"/>
<path d="M610.483 20.1438C618.908 20.1438 625.737 17.4047 625.737 14.0259C625.737 10.647 618.908 7.90794 610.483 7.90794C602.058 7.90794 595.229 10.647 595.229 14.0259C595.229 17.4047 602.058 20.1438 610.483 20.1438Z" fill="#5E8054"/>
<path d="M585.638 24.3213C590.935 24.3213 595.229 22.451 595.229 20.1438C595.229 17.8366 590.935 15.9663 585.638 15.9663C580.341 15.9663 576.047 17.8366 576.047 20.1438C576.047 22.451 580.341 24.3213 585.638 24.3213Z" fill="#5E8054"/>
<path d="M596.49 46.642C599.094 46.642 601.205 44.5298 601.205 41.9242C601.205 39.3186 599.094 37.2064 596.49 37.2064C593.886 37.2064 591.774 39.3186 591.774 41.9242C591.774 44.5298 593.886 46.642 596.49 46.642Z" fill="#5E8054"/>
<path d="M591.774 41.9242H601.205V17.3098H591.774V41.9242Z" fill="#5E8054"/>
<path d="M489.424 18.8298C498.074 18.8298 505.087 15.4801 505.087 11.3479C505.087 7.21578 498.074 3.86601 489.424 3.86601C480.774 3.86601 473.762 7.21578 473.762 11.3479C473.762 15.4801 480.774 18.8298 489.424 18.8298Z" fill="#5E8054"/>
<path d="M516.456 20.9925C528 20.9925 537.358 16.2931 537.358 10.4962C537.358 4.69932 528 0 516.456 0C504.913 0 495.555 4.69932 495.555 10.4962C495.555 16.2931 504.913 20.9925 516.456 20.9925Z" fill="#5E8054"/>
<path d="M522.552 26.0924C528.448 26.0924 533.228 23.8091 533.228 20.9925C533.228 18.1758 528.448 15.8925 522.552 15.8925C516.656 15.8925 511.876 18.1758 511.876 20.9925C511.876 23.8091 516.656 26.0924 522.552 26.0924Z" fill="#5E8054"/>
<path d="M515.954 13.6606C523.828 13.6606 530.212 11.2171 530.212 8.20288C530.212 5.18865 523.828 2.74513 515.954 2.74513C508.079 2.74513 501.696 5.18865 501.696 8.20288C501.696 11.2171 508.079 13.6606 515.954 13.6606Z" fill="#60975F"/>
<path d="M8.98422 15.0781H55.3328C56.5764 15.0781 57.5846 16.0868 57.5846 17.3311V58.8207C57.5846 60.0649 58.5928 61.0736 59.8364 61.0736H89.109C90.3527 61.0736 91.3608 60.0649 91.3608 58.8207V17.3311C91.3608 16.0868 92.369 15.0781 93.6126 15.0781H139.958C141.202 15.0781 142.21 16.0868 142.21 17.3311V137.296C142.21 138.54 141.202 139.549 139.958 139.549H93.6126C92.369 139.549 91.3608 138.54 91.3608 137.296V94.1165C91.3608 92.8722 90.3527 91.8636 89.109 91.8636H59.8364C58.5928 91.8636 57.5846 92.8722 57.5846 94.1165V137.296C57.5846 138.54 56.5764 139.549 55.3328 139.549H8.98422C7.74058 139.549 6.73242 138.54 6.73242 137.296V17.3311C6.73242 16.0868 7.74058 15.0781 8.98422 15.0781Z" fill="#454654"/>
<path d="M57.4956 125.308L60.078 120.09L60.0944 107.775L52.6124 103.748L47.9634 109.636L49.0309 120.901L57.4956 125.308Z" fill="#697976"/>
<path d="M29.2019 103.026L25.9876 92.7965L19.093 92.0586L4.47217 100.395L6.33188 115.386L14.5217 116.738L29.2019 103.026Z" fill="#697976"/>
<path d="M38.9517 99.662L32.5422 103.005L23.0278 114.769L26.6392 125.01L38.8036 122.575L46.1367 106.471L38.9517 99.662Z" fill="#708080"/>
<path d="M43.4175 95.5082L40.7067 96.8937L37.8125 91.2254L39.2038 81.5136L44.6593 78.7251L49.1742 84.4916L43.4175 95.5082Z" fill="#7E8E8D"/>
<path d="M29.2132 79.9416V76.4054L21.6733 70.9832H13.6621V78.2914L22.6158 83.0063L29.2132 79.9416Z" fill="#708080"/>
<path d="M24.8544 126.259L6.47582 127.438L2.47021 137.104L7.4183 142.054L23.4407 136.043L24.8544 126.259Z" fill="#708080"/>
<path d="M55.4407 132.713L59.0078 139.414L50.4367 143.293L35.7854 136.561L34.582 130.002L44.3497 126.567L55.4407 132.713Z" fill="#697976"/>
<path d="M125.409 118.677L123.206 125.613L106.94 141.475L98.9932 142.491L88.0825 138.894L89.2857 129.709L113.24 114.528L125.409 118.677Z" fill="#697976"/>
<path d="M123.632 130.662L129.218 129.03L141.341 131.165L143.996 139.239L137.39 142.791L126.49 139.771L123.632 130.662Z" fill="#708080"/>
<path d="M121.562 105.852L127.452 96.8937L134.285 98.0725L146.066 110.095L140.176 124.004L131.929 123.062L121.562 105.852Z" fill="#697976"/>
<path d="M102.809 76.4097L109.642 74.0522L124.722 75.231L129.67 84.8965L119.538 92.0586L102.809 86.311V76.4097Z" fill="#697976"/>
<path d="M134.738 91.6666L136.433 94.196L141.717 90.6505L145.22 81.4869L141.808 76.3964L135.06 79.2394L134.738 91.6666Z" fill="#7E8E8D"/>
<path d="M89.5938 115.283V111.747L97.1337 106.325H105.145V113.633L96.1912 118.348L89.5938 115.283Z" fill="#7E8E8D"/>
<path d="M97.3692 92.4776L79.0548 94.4134L73.479 85.5611L77.5228 79.8472L94.3284 83.0722L97.3692 92.4776Z" fill="#708080"/>
<path d="M101.331 58.8443L98.0322 65.6809L106.75 69.2171L121.123 61.909L122.066 55.3081L112.17 52.2625L101.331 58.8443Z" fill="#7E8E8D"/>
<path d="M57.5846 15.0781H6.73242V38.1461C9.42071 40.1296 13.5277 42.3731 18.2995 41.5249C26.1471 40.1298 28.6977 31.6344 34.9466 32.8904C39.8236 33.8707 40.5182 39.4974 45.4736 40.3986C50.3257 41.281 54.6756 36.7988 57.5846 32.8904L57.5846 15.0781Z" fill="#3A3652"/>
<path d="M91.3569 15.0781C91.3583 18.9591 91.3596 22.8399 91.3609 26.7208C94.6524 33.881 97.3273 35.2262 99.0974 35.2361C102.542 35.2556 103.57 30.2803 107.566 30.092C111.017 29.9293 111.52 33.56 116.848 34.9302C118.426 35.3362 121.003 35.9989 123.881 34.7774C128.563 32.7895 129.139 27.8914 132.253 28.0492C135.14 28.1956 136.148 32.4803 138.434 31.974C140.308 31.5589 141.523 28.2606 142.301 25.1439C142.27 21.7887 142.24 18.4333 142.21 15.0781H91.3569Z" fill="#3A3652"/>
<path d="M22.3205 24.0864C33.4 24.0864 42.3817 20.4313 42.3817 15.9226C42.3817 11.4138 33.4 7.7587 22.3205 7.7587C11.241 7.7587 2.25928 11.4138 2.25928 15.9226C2.25928 20.4313 11.241 24.0864 22.3205 24.0864Z" fill="#5E8054"/>
<path d="M66.065 81.0406C68.6692 81.0406 70.7803 78.9283 70.7803 76.3227C70.7803 73.7172 68.6692 71.6049 66.065 71.6049C63.4607 71.6049 61.3496 73.7172 61.3496 76.3227C61.3496 78.9283 63.4607 81.0406 66.065 81.0406Z" fill="#5E8054"/>
<path d="M70.7803 61.07H61.3496V76.3227H70.7803V61.07Z" fill="#5E8054"/>
<path d="M75.4961 74.5753C78.1003 74.5753 80.2115 72.4631 80.2115 69.8575C80.2115 67.252 78.1003 65.1397 75.4961 65.1397C72.8919 65.1397 70.7808 67.252 70.7808 69.8575C70.7808 72.4631 72.8919 74.5753 75.4961 74.5753Z" fill="#5E8054"/>
<path d="M80.2115 61.07H70.7808V69.8575H80.2115V61.07Z" fill="#5E8054"/>
<path d="M33.8756 18.5712C43.3416 18.5712 51.0153 15.0688 51.0153 10.7483C51.0153 6.42788 43.3416 2.92546 33.8756 2.92546C24.4096 2.92546 16.7358 6.42788 16.7358 10.7483C16.7358 15.0688 24.4096 18.5712 33.8756 18.5712Z" fill="#5E8054"/>
<path d="M22.2915 31.1062C27.1768 31.1062 31.1371 29.042 31.1371 26.4955C31.1371 23.9491 27.1768 21.8848 22.2915 21.8848C17.4061 21.8848 13.4458 23.9491 13.4458 26.4955C13.4458 29.042 17.4061 31.1062 22.2915 31.1062Z" fill="#5E8054"/>
<path d="M103.756 23.4045C112.412 23.4045 119.429 19.6659 119.429 15.0541C119.429 10.4422 112.412 6.7036 103.756 6.7036C95.0997 6.7036 88.0825 10.4422 88.0825 15.0541C88.0825 19.6659 95.0997 23.4045 103.756 23.4045Z" fill="#5E8054"/>
<path d="M127.107 22.4748C137.013 22.4748 145.043 18.0985 145.043 12.7001C145.043 7.30173 137.013 2.92548 127.107 2.92548C117.201 2.92548 109.171 7.30173 109.171 12.7001C109.171 18.0985 117.201 22.4748 127.107 22.4748Z" fill="#5E8054"/>
<path d="M49.2458 24.0803C55.9308 24.0803 61.35 21.0958 61.35 17.4143C61.35 13.7328 55.9308 10.7483 49.2458 10.7483C42.5608 10.7483 37.1416 13.7328 37.1416 17.4143C37.1416 21.0958 42.5608 24.0803 49.2458 24.0803Z" fill="#5E8054"/>
<path d="M33.3507 15.0541C39.4427 15.0541 44.3812 13.1847 44.3812 10.8788C44.3812 8.57291 39.4427 6.7036 33.3507 6.7036C27.2588 6.7036 22.3203 8.57291 22.3203 10.8788C22.3203 13.1847 27.2588 15.0541 33.3507 15.0541Z" fill="#60975F"/>
<path d="M94.064 220.555C95.3914 222.01 103.705 230.82 117.211 230.848C131.594 230.878 140.218 220.923 141.387 219.526" stroke="#355B20" stroke-width="2.85635" stroke-miterlimit="10"/>
<path d="M171.511 166.575C172.005 167.446 182.466 185.179 202.838 185.611C217.439 185.92 231.052 177.213 237.295 163.519" stroke="#355B20" stroke-width="2.85635" stroke-miterlimit="10"/>
<path d="M9.05258 162.801H118.449C119.692 162.801 120.7 163.81 120.7 165.054V191.148C120.7 192.393 119.692 193.401 118.449 193.401H59.9047C58.6611 193.401 57.6529 194.41 57.6529 195.654V208.985C57.6529 210.229 58.6611 211.238 59.9047 211.238H100.059C101.303 211.238 102.311 212.247 102.311 213.491V236.019C102.311 237.264 101.303 238.272 100.059 238.272H59.9047C58.6611 238.272 57.6529 239.281 57.6529 240.525V285.019C57.6529 286.263 56.6448 287.272 55.4011 287.272H9.05258C7.80894 287.272 6.80078 286.263 6.80078 285.019V165.054C6.80078 163.81 7.80894 162.801 9.05258 162.801Z" fill="#454654"/>
<path d="M41.3973 268.949L38.5736 275.223L21.8485 288.221H14.4634L4.90625 283.515L7.07834 274.999L30.7541 263.57L41.3973 268.949Z" fill="#697976"/>
<path d="M39.2461 281.264L44.1942 278.199L56.4466 277.02L61.1591 284.093L55.7397 289.279H44.4298L39.2461 281.264Z" fill="#708080"/>
<path d="M39.2461 256.951L45.1367 247.993L51.9697 249.171L63.7509 261.194L57.8603 275.103L49.6135 274.16L39.2461 256.951Z" fill="#697976"/>
<path d="M21.918 226.314L28.751 223.957L43.8309 225.136L48.779 234.801L38.6472 241.963L21.918 236.216V226.314Z" fill="#697976"/>
<path d="M51.4985 240.276V243.321H57.8604L65.8716 237.664V231.534L58.685 230.135L51.4985 240.276Z" fill="#7E8E8D"/>
<path d="M4.90625 266.044V262.507L12.4462 257.085H20.4574V264.393L11.5037 269.108L4.90625 266.044Z" fill="#7E8E8D"/>
<path d="M10.4126 240.095L28.7912 241.274L32.7968 250.939L27.8487 255.89L11.8263 249.879L10.4126 240.095Z" fill="#708080"/>
<path d="M17.7191 206.692L14.4204 213.529L23.1385 217.065L37.5115 209.757L38.454 203.156L28.5578 200.111L17.7191 206.692Z" fill="#708080"/>
<path d="M6.80078 181.984C16.2957 190.115 22.8661 190.968 27.2482 190.018C33.2496 188.716 35.8881 183.871 45.25 182.271C47.3437 181.913 50.6952 181.34 54.9284 182.077C61.9247 183.295 63.9937 186.814 70.7907 187.819C75.0805 188.453 78.5061 187.68 80.0923 187.306C91.9082 184.522 94.3514 174.763 100.992 175.651C106.419 176.377 107.616 183.333 112.565 183.069C116.169 182.876 118.927 179.162 120.7 176.035V162.801H6.80078V181.984Z" fill="#3A3652"/>
<path d="M57.6529 211.238C61.5645 216.649 64.9553 218.076 67.5526 218.153C72.016 218.287 73.428 214.415 78.1322 214.63C83.3676 214.868 84.7331 219.806 89.0966 219.812C91.4153 219.815 94.8631 218.426 99.1178 211.238H57.6529Z" fill="#3A3652"/>
<path d="M14.4204 167.467C22.3845 167.467 28.8407 164.447 28.8407 160.721C28.8407 156.996 22.3845 153.975 14.4204 153.975C6.45621 153.975 0 156.996 0 160.721C0 164.447 6.45621 167.467 14.4204 167.467Z" fill="#5E8054"/>
<path d="M105.191 167.536C115.245 167.536 123.396 163.986 123.396 159.607C123.396 155.227 115.245 151.677 105.191 151.677C95.1361 151.677 86.9854 155.227 86.9854 159.607C86.9854 163.986 95.1361 167.536 105.191 167.536Z" fill="#5E8054"/>
<path d="M82.0012 169.131C92.6643 169.131 101.309 165.366 101.309 160.721C101.309 156.077 92.6643 152.311 82.0012 152.311C71.338 152.311 62.6938 156.077 62.6938 160.721C62.6938 165.366 71.338 169.131 82.0012 169.131Z" fill="#5E8054"/>
<path d="M33.1339 171.268C41.1092 171.268 47.5745 168.452 47.5745 164.978C47.5745 161.504 41.1092 158.688 33.1339 158.688C25.1586 158.688 18.6934 161.504 18.6934 164.978C18.6934 168.452 25.1586 171.268 33.1339 171.268Z" fill="#5E8054"/>
<path d="M47.5743 167.02C61.0124 167.02 71.906 162.993 71.906 158.027C71.906 153.06 61.0124 149.034 47.5743 149.034C34.1363 149.034 23.2427 153.06 23.2427 158.027C23.2427 162.993 34.1363 167.02 47.5743 167.02Z" fill="#5E8054"/>
<path d="M64.9056 174.292C71.4498 174.292 76.755 171.981 76.755 169.131C76.755 166.28 71.4498 163.97 64.9056 163.97C58.3613 163.97 53.0562 166.28 53.0562 169.131C53.0562 171.981 58.3613 174.292 64.9056 174.292Z" fill="#5E8054"/>
<path d="M114.883 169.765C121.496 169.765 126.857 167.43 126.857 164.549C126.857 161.669 121.496 159.334 114.883 159.334C108.269 159.334 102.908 161.669 102.908 164.549C102.908 167.43 108.269 169.765 114.883 169.765Z" fill="#5E8054"/>
<path d="M71.9063 226.501C74.5105 226.501 76.6216 224.389 76.6216 221.783C76.6216 219.177 74.5105 217.065 71.9063 217.065C69.3021 217.065 67.1909 219.177 67.1909 221.783C67.1909 224.389 69.3021 226.501 71.9063 226.501Z" fill="#5E8054"/>
<path d="M76.6216 211.248H67.1909V221.783H76.6216V211.248Z" fill="#5E8054"/>
<path d="M19.4409 194.31C22.0452 194.31 24.1563 192.198 24.1563 189.592C24.1563 186.987 22.0452 184.874 19.4409 184.874C16.8367 184.874 14.7256 186.987 14.7256 189.592C14.7256 192.198 16.8367 194.31 19.4409 194.31Z" fill="#5E8054"/>
<path d="M24.1563 164.978H14.7256V189.592H24.1563V164.978Z" fill="#5E8054"/>
<path d="M133.975 237.722V165.067C133.975 163.823 134.983 162.814 136.227 162.814H182.389C183.633 162.814 184.641 163.823 184.641 165.067V237.722C184.641 252.365 188.957 258.185 203.403 258.185C218.414 258.185 222.543 252.553 222.543 237.722V165.067C222.543 163.823 223.552 162.814 224.795 162.814H259.697C260.94 162.814 261.949 163.823 261.949 165.067V237.722C261.949 272.266 240.557 289.163 202.655 289.163C156.118 289.163 133.975 273.956 133.975 237.722Z" fill="#454654"/>
<path d="M160.017 284.558L157.694 274.089L163.298 270.004L180.127 269.918L186.001 283.834L179.581 289.099L160.017 284.558Z" fill="#697976"/>
<path d="M180.362 258.005L175.787 253.636L169.579 234.624L171.799 227.86L178.741 220.442L185.449 224.851L188.211 249.783L180.362 258.005Z" fill="#697976"/>
<path d="M188.921 269.64L194.726 269.231L206.119 273.891L207.002 282.345L199.793 284.413L189.782 279.148L188.921 269.64Z" fill="#7E8E8D"/>
<path d="M261.167 248.794L263.49 238.326L257.886 234.24L241.058 234.154L235.184 248.07L241.603 253.335L261.167 248.794Z" fill="#697976"/>
<path d="M220.872 259.396L227.705 257.039L242.785 258.218L247.733 267.883L237.601 275.045L220.872 269.298V259.396Z" fill="#7E8E8D"/>
<path d="M221.803 235.192L224.153 237.127L228.196 232.213L228.922 222.429L224.193 218.533L218.545 223.195L221.803 235.192Z" fill="#7E8E8D"/>
<path d="M160.787 239.224L164.176 240.225L167.238 248.996L164.969 256.683L157.964 254.613L155.98 244.686L160.787 239.224Z" fill="#7E8E8D"/>
<path d="M196.088 256.683L214.188 255.966L218.194 265.193L213.246 269.918L197.223 264.18L196.088 256.683Z" fill="#708080"/>
<path d="M212.154 281.627L208.855 288.464L217.573 292L231.946 284.692L232.889 278.091L222.992 275.045L212.154 281.627Z" fill="#708080"/>
<path d="M152.277 237.483L152.709 244.702L147.519 258.917L136.884 261.086L132.714 249.396L142.745 234.82L152.277 237.483Z" fill="#7E8E8D"/>
<path d="M148.582 226.893L154.82 231.217L159.667 223.15L154.686 207.808L148.315 205.85L143.77 215.157L148.582 226.893Z" fill="#708080"/>
<path d="M159.067 258.932L160.834 261.183L158.288 268.764L152.704 273.152L149.052 268.5L152.937 260.595L159.067 258.932Z" fill="#708080"/>
<path d="M133.975 162.814V179.492C135.734 181.919 138.331 184.659 141.398 184.576C145.914 184.454 147.267 178.331 151.718 178.13C156.813 177.901 158.804 185.755 163.103 185.187C167.555 184.598 168.221 175.808 173.096 175.402C175.854 175.172 177.124 177.861 179.718 177.281C182.238 176.718 183.734 173.578 184.641 170.703V162.814L133.975 162.814Z" fill="#3A3652"/>
<path d="M261.949 162.814H222.543V180.916C224.627 182.473 227.809 184.233 231.507 183.568C237.588 182.473 239.564 175.806 244.406 176.792C248.186 177.561 248.724 181.977 252.564 182.684C256.324 183.376 259.694 179.859 261.949 176.792V162.814Z" fill="#3A3652"/>
<path d="M229.787 167.176C237.672 167.176 244.064 164.392 244.064 160.957C244.064 157.522 237.672 154.738 229.787 154.738C221.902 154.738 215.509 157.522 215.509 160.957C215.509 164.392 221.902 167.176 229.787 167.176Z" fill="#5E8054"/>
<path d="M251.77 169.824C259.765 169.824 266.246 167.001 266.246 163.519C266.246 160.037 259.765 157.214 251.77 157.214C243.775 157.214 237.294 160.037 237.294 163.519C237.294 167.001 243.775 169.824 251.77 169.824Z" fill="#5E8054"/>
<path d="M241.431 163.164C249.43 163.164 255.914 160.339 255.914 156.855C255.914 153.371 249.43 150.547 241.431 150.547C233.432 150.547 226.948 153.371 226.948 156.855C226.948 160.339 233.432 163.164 241.431 163.164Z" fill="#5E8054"/>
<path d="M159.17 166.913C170.96 166.913 180.517 162.75 180.517 157.615C180.517 152.479 170.96 148.316 159.17 148.316C147.38 148.316 137.822 152.479 137.822 157.615C137.822 162.75 147.38 166.913 159.17 166.913Z" fill="#5E8054"/>
<path d="M178.897 167.73C185.31 167.73 190.509 165.466 190.509 162.672C190.509 159.879 185.31 157.615 178.897 157.615C172.484 157.615 167.286 159.879 167.286 162.672C167.286 165.466 172.484 167.73 178.897 167.73Z" fill="#5E8054"/>
<path d="M140.077 167.73C147.197 167.73 152.968 165.216 152.968 162.115C152.968 159.014 147.197 156.5 140.077 156.5C132.958 156.5 127.187 159.014 127.187 162.115C127.187 165.216 132.958 167.73 140.077 167.73Z" fill="#5E8054"/>
<path d="M167.286 172.914C172.583 172.914 176.877 171.043 176.877 168.736C176.877 166.429 172.583 164.559 167.286 164.559C161.989 164.559 157.695 166.429 157.695 168.736C157.695 171.043 161.989 172.914 167.286 172.914Z" fill="#5E8054"/>
<path d="M156.434 188.971C159.038 188.971 161.149 186.859 161.149 184.254C161.149 181.648 159.038 179.536 156.434 179.536C153.829 179.536 151.718 181.648 151.718 184.254C151.718 186.859 153.829 188.971 156.434 188.971Z" fill="#5E8054"/>
<path d="M161.149 159.639H151.718V184.254H161.149V159.639Z" fill="#5E8054"/>
<path d="M156.624 160.957C163.779 160.957 169.579 158.67 169.579 155.848C169.579 153.027 163.779 150.739 156.624 150.739C149.468 150.739 143.668 153.027 143.668 155.848C143.668 158.67 149.468 160.957 156.624 160.957Z" fill="#60975F"/>
<path d="M687.747 196.659C689.253 198.188 696.821 205.548 708.022 204.758C718.244 204.037 724.671 197.009 726.249 195.178" stroke="#355B20" stroke-width="2.85635" stroke-miterlimit="10"/>
<path d="M532.496 175.16C533.511 176.255 540.259 183.291 551.118 183.064C562.035 182.836 568.499 175.447 569.457 174.313" stroke="#355B20" stroke-width="2.85635" stroke-miterlimit="10"/>
<path d="M533.894 179.403C532.947 190.063 541.235 199.173 551.116 199.474C561.318 199.786 570.318 190.619 569.473 179.592" stroke="#355B20" stroke-width="2.85635" stroke-miterlimit="10"/>
<path d="M351.204 222.628C358.298 234.805 371.343 242.256 385.245 242.015C400.209 241.756 413.8 232.626 419.938 218.701" stroke="#355B20" stroke-width="2.85635" stroke-miterlimit="10"/>
<path d="M469.488 289.74C431.582 289.74 410.194 272.843 410.194 238.299V165.645C410.194 164.4 411.202 163.392 412.446 163.392H447.344C448.588 163.392 449.596 164.4 449.596 165.645V238.299C449.596 253.131 453.725 258.762 468.736 258.762C483.186 258.762 487.501 252.943 487.501 238.299V165.645C487.501 164.4 488.51 163.392 489.753 163.392H535.912C537.156 163.392 538.164 164.4 538.164 165.645V238.299C538.164 274.533 516.021 289.74 469.488 289.74Z" fill="#454654"/>
<path d="M512.352 284.756L514.675 274.287L509.071 270.202L492.243 270.116L486.369 284.032L492.788 289.297L512.352 284.756Z" fill="#697976"/>
<path d="M416.392 248.952L420.181 244.562L424.164 226.895L421.539 221.072L414.547 215.159L408.815 219.807L408.501 242.414L416.392 248.952Z" fill="#708080"/>
<path d="M485.549 271.551L479.744 271.142L468.351 275.802L467.469 284.256L474.678 286.324L484.689 281.059L485.549 271.551Z" fill="#708080"/>
<path d="M443.207 263.656L445.222 253.124L451.985 251.596L467.469 258.192L467.347 273.298L459.368 275.585L443.207 263.656Z" fill="#708080"/>
<path d="M423.537 276.745L430.004 273.515L439.723 261.919L436.291 251.616L424.086 253.838L416.472 269.812L423.537 276.745Z" fill="#697976"/>
<path d="M509.224 233.617L506.874 235.552L502.83 230.638L502.104 220.854L506.834 216.958L512.481 221.62L509.224 233.617Z" fill="#7E8E8D"/>
<path d="M504.053 246.721L500.663 247.723L497.602 256.494L499.871 264.181L506.876 262.111L508.859 252.184L504.053 246.721Z" fill="#708080"/>
<path d="M539.129 234.627L540.122 216.228L531 211.111L525.504 215.444L529.585 232.071L539.129 234.627Z" fill="#697976"/>
<path d="M454.85 281.185L458.149 288.022L449.431 291.558L435.058 284.25L434.115 277.649L444.011 274.603L454.85 281.185Z" fill="#7E8E8D"/>
<path d="M519.337 237.29L518.905 244.508L524.094 258.723L534.73 260.893L538.9 249.203L528.869 234.627L519.337 237.29Z" fill="#708080"/>
<path d="M492.789 257.312L486.552 261.635L481.705 253.568L486.685 238.227L493.056 236.269L497.602 245.576L492.789 257.312Z" fill="#7E8E8D"/>
<path d="M513.881 261.817L512.114 264.068L514.66 271.649L520.244 276.037L523.896 271.385L520.011 263.479L513.881 261.817Z" fill="#7E8E8D"/>
<path d="M440.256 191.832L433.452 213.941L443.007 222.95L451.02 219.344L451.104 197.85L440.256 191.832Z" fill="#697976"/>
<path d="M410.194 163.392V176.485C411.89 179.614 414.44 183.1 417.804 183.333C422.846 183.682 425.23 176.41 429.893 176.875C435.195 177.404 436.289 187.222 440.905 187.519C442.866 187.644 445.74 186.07 449.596 178.197V163.392H410.194Z" fill="#3A3652"/>
<path d="M538.164 163.392H487.59C487.561 169.303 487.531 175.215 487.501 181.127C488.883 188.931 491.163 198.187 494.786 199.965C499.221 202.142 501.371 191.003 506.833 191.79C512.105 192.549 512.276 203.239 519.3 207.379C520.665 208.184 526.143 211.236 531.655 204.493C535.269 200.071 537.273 193.529 538.164 190.148V163.392Z" fill="#3A3652"/>
<path d="M443.239 169.223C450.37 169.223 456.15 166.462 456.15 163.056C456.15 159.649 450.37 156.888 443.239 156.888C436.109 156.888 430.329 159.649 430.329 163.056C430.329 166.462 436.109 169.223 443.239 169.223Z" fill="#5E8054"/>
<path d="M420.956 171.006C430.472 171.006 438.185 167.132 438.185 162.354C438.185 157.575 430.472 153.701 420.956 153.701C411.441 153.701 403.727 157.575 403.727 162.354C403.727 167.132 411.441 171.006 420.956 171.006Z" fill="#5E8054"/>
<path d="M415.931 175.21C420.792 175.21 424.732 173.328 424.732 171.006C424.732 168.684 420.792 166.802 415.931 166.802C411.071 166.802 407.131 168.684 407.131 171.006C407.131 173.328 411.071 175.21 415.931 175.21Z" fill="#5E8054"/>
<path d="M530.442 171.418C537.145 171.418 542.58 168.675 542.58 165.292C542.58 161.908 537.145 159.166 530.442 159.166C523.738 159.166 518.304 161.908 518.304 165.292C518.304 168.675 523.738 171.418 530.442 171.418Z" fill="#5E8054"/>
<path d="M514.619 168.102C525.119 168.102 533.63 164.608 533.63 160.297C533.63 155.987 525.119 152.492 514.619 152.492C504.12 152.492 495.608 155.987 495.608 160.297C495.608 164.608 504.12 168.102 514.619 168.102Z" fill="#5E8054"/>
<path d="M494.105 167.834C499.875 167.834 504.553 165.129 504.553 161.792C504.553 158.454 499.875 155.749 494.105 155.749C488.335 155.749 483.657 158.454 483.657 161.792C483.657 165.129 488.335 167.834 494.105 167.834Z" fill="#5E8054"/>
<path d="M502.104 173.491C507.32 173.491 511.549 171.357 511.549 168.725C511.549 166.092 507.32 163.958 502.104 163.958C496.888 163.958 492.66 166.092 492.66 168.725C492.66 171.357 496.888 173.491 502.104 173.491Z" fill="#5E8054"/>
<path d="M511.548 184.825C514.153 184.825 516.264 182.713 516.264 180.107C516.264 177.501 514.153 175.389 511.548 175.389C508.944 175.389 506.833 177.501 506.833 180.107C506.833 182.713 508.944 184.825 511.548 184.825Z" fill="#5E8054"/>
<path d="M516.264 164.854H506.833V180.107H516.264V164.854Z" fill="#5E8054"/>
<path d="M520.979 192.002C523.583 192.002 525.694 189.889 525.694 187.284C525.694 184.678 523.583 182.566 520.979 182.566C518.375 182.566 516.264 184.678 516.264 187.284C516.264 189.889 518.375 192.002 520.979 192.002Z" fill="#5E8054"/>
<path d="M525.694 162.669H516.264V187.284H525.694V162.669Z" fill="#5E8054"/>
<path d="M308.831 193.366H277.121C275.878 193.366 274.87 192.357 274.87 191.113V165.205C274.87 163.96 275.878 162.952 277.121 162.952H395.521C396.765 162.952 397.773 163.96 397.773 165.205V191.113C397.773 192.357 396.765 193.366 395.521 193.366H363.998C362.754 193.366 361.746 194.375 361.746 195.619V285.17C361.746 286.414 360.738 287.423 359.494 287.423H313.335C312.091 287.423 311.083 286.414 311.083 285.17V195.619C311.083 194.375 310.075 193.366 308.831 193.366Z" fill="#454654"/>
<path d="M362.571 276.96L365.153 271.742L365.17 259.426L357.688 255.4L353.039 261.288L354.106 272.553L362.571 276.96Z" fill="#697976"/>
<path d="M332.565 254.028L329.351 243.798L322.456 243.06L307.835 251.397L309.695 266.388L317.885 267.74L332.565 254.028Z" fill="#697976"/>
<path d="M346.144 247.35L339.734 250.692L330.22 262.457L333.831 272.698L345.995 270.263L353.329 254.158L346.144 247.35Z" fill="#708080"/>
<path d="M338.17 248.767L335.46 250.152L332.565 244.484L333.957 234.772L339.412 231.983L343.927 237.75L338.17 248.767Z" fill="#7E8E8D"/>
<path d="M334.578 227.629V224.093L327.039 218.671H319.027V225.979L327.981 230.694L334.578 227.629Z" fill="#7E8E8D"/>
<path d="M330.22 273.947L311.841 275.126L307.835 284.791L312.784 289.742L328.806 283.73L330.22 273.947Z" fill="#708080"/>
<path d="M359.308 280.745L362.606 287.582L353.888 291.118L339.515 283.81L338.573 277.209L348.469 274.164L359.308 280.745Z" fill="#697976"/>
<path d="M274.87 162.952V175.785C275.919 177.175 282.609 185.748 292.648 184.821C299.554 184.182 301.061 176.138 306.782 176.409C314.858 176.79 316.459 191.32 324.623 191.986C331.021 192.508 332.19 183.759 340.379 183.263C347.375 182.839 348.639 189.096 355.208 188.248C362.743 187.275 363.95 180.558 370.5 180.772C377.626 181.005 379.773 189.681 385.792 189.396C388.646 189.26 392.863 187.088 397.773 176.409V162.952H274.87Z" fill="#3A3652"/>
<path d="M325.022 172.996C340.248 172.996 352.591 168.186 352.591 162.253C352.591 156.32 340.248 151.51 325.022 151.51C309.796 151.51 297.453 156.32 297.453 162.253C297.453 168.186 309.796 172.996 325.022 172.996Z" fill="#5E8054"/>
<path d="M384.047 170.167C393.203 170.167 400.625 166.935 400.625 162.947C400.625 158.959 393.203 155.726 384.047 155.726C374.892 155.726 367.47 158.959 367.47 162.947C367.47 166.935 374.892 170.167 384.047 170.167Z" fill="#5E8054"/>
<path d="M281.854 167.513C288.523 167.513 293.93 165.158 293.93 162.253C293.93 159.348 288.523 156.993 281.854 156.993C275.184 156.993 269.777 159.348 269.777 162.253C269.777 165.158 275.184 167.513 281.854 167.513Z" fill="#5E8054"/>
<path d="M295.163 172.311C301.832 172.311 307.239 169.956 307.239 167.051C307.239 164.146 301.832 161.791 295.163 161.791C288.493 161.791 283.086 164.146 283.086 167.051C283.086 169.956 288.493 172.311 295.163 172.311Z" fill="#5E8054"/>
<path d="M297.595 163.012C306.289 163.012 313.337 160.657 313.337 157.752C313.337 154.847 306.289 152.492 297.595 152.492C288.901 152.492 281.854 154.847 281.854 157.752C281.854 160.657 288.901 163.012 297.595 163.012Z" fill="#5E8054"/>
<path d="M366.375 176.281C373.188 176.281 378.711 173.876 378.711 170.908C378.711 167.941 373.188 165.535 366.375 165.535C359.562 165.535 354.039 167.941 354.039 170.908C354.039 173.876 359.562 176.281 366.375 176.281Z" fill="#5E8054"/>
<path d="M354.039 169.04C364.113 169.04 372.28 165.483 372.28 161.095C372.28 156.707 364.113 153.15 354.039 153.15C343.965 153.15 335.798 156.707 335.798 161.095C335.798 165.483 343.965 169.04 354.039 169.04Z" fill="#5E8054"/>
<path d="M343.171 196.727C345.775 196.727 347.886 194.614 347.886 192.009C347.886 189.403 345.775 187.291 343.171 187.291C340.567 187.291 338.456 189.403 338.456 192.009C338.456 194.614 340.567 196.727 343.171 196.727Z" fill="#5E8054"/>
<path d="M347.886 167.394H338.456V192.009H347.886V167.394Z" fill="#5E8054"/>
<path d="M329.737 209.669C332.342 209.669 334.453 207.556 334.453 204.951C334.453 202.345 332.342 200.233 329.737 200.233C327.133 200.233 325.022 202.345 325.022 204.951C325.022 207.556 327.133 209.669 329.737 209.669Z" fill="#5E8054"/>
<path d="M334.453 164.913H325.022V204.951H334.453V164.913Z" fill="#5E8054"/>
<path d="M322.741 166.552C331.302 166.552 338.243 163.753 338.243 160.299C338.243 156.845 331.302 154.045 322.741 154.045C314.18 154.045 307.239 156.845 307.239 160.299C307.239 163.753 314.18 166.552 322.741 166.552Z" fill="#60975F"/>
<path d="M666.258 116.471C667.068 116.897 666.734 118.711 666.265 123.317C665.541 130.424 664.724 138.451 665.201 144.349C666.133 155.857 672.213 161.962 669.737 164.235C668.296 165.558 666.328 163.396 661.11 164.405C660.216 164.578 658.038 164.891 655.378 164.318C655.073 164.252 654.767 164.145 654.394 163.974C648.98 161.505 648.099 146.901 652.223 135.124C656.015 124.297 664.201 115.387 666.258 116.471Z" fill="#9CB09F"/>
<path d="M657.488 133.226C656.765 134.937 656.014 137.105 655.491 139.674C654.936 142.405 654.794 144.828 654.813 146.765" stroke="#8C9E8F" stroke-width="0.95212" stroke-miterlimit="10" stroke-linecap="round"/>
<path d="M660.796 134.313C660.257 137.855 659.886 142.293 660.162 147.383C660.461 152.909 661.435 157.608 662.46 161.251" stroke="#8C9E8F" stroke-width="0.95212" stroke-miterlimit="10" stroke-linecap="round"/>
<path d="M650.198 133.407C650.374 134.027 650.722 134.846 651.471 135.243C652.714 135.902 653.751 134.698 655.412 135.191C657.018 135.668 656.865 136.964 658.227 137.161C659.627 137.363 660.247 136.056 661.895 136.244C662.939 136.363 663.1 136.934 664.191 137.161C665.517 137.436 666.816 136.91 667.675 136.449C667.266 135.015 666.894 133.446 666.604 131.753C666.256 129.723 666.08 127.833 666.012 126.116C662.313 125.615 658.598 125.103 654.899 124.59C654.819 125.121 654.688 125.749 654.466 126.442C654.351 126.801 654.083 127.585 653.491 128.688C652.38 130.756 650.807 132.682 650.198 133.407Z" fill="#707E72"/>
<path d="M679.764 108.318C680.418 109.146 688.6 119.669 685.622 126.94C684.678 129.244 682.163 132.344 680.227 131.964C678.948 131.714 678.223 130.007 677.065 130.515C676.405 130.805 676.285 131.515 675.725 132.233C674.524 133.77 672.959 133.223 668.821 133.125C664.14 133.015 663.646 133.617 662.282 132.661C660.879 131.677 660.709 130.519 659.282 130.242C658.03 129.999 657.49 130.761 655.802 131.252C653.873 131.813 652.441 131.44 649.894 130.775C647.652 130.191 646.302 129.742 645.033 128.271C643.766 126.802 644.003 125.669 642.81 124.94C641.268 124 640.136 125.28 638.879 124.432C637.304 123.368 637.251 120.105 637.243 119.607C637.128 112.423 646.152 105.692 647.474 104.706C649.315 103.333 655.798 98.6268 664.317 99.4984C666.314 99.7026 673.794 100.76 679.764 108.318Z" fill="#335954"/>
<path d="M650.871 113.01C650.918 112.231 651.591 111.469 652.351 111.257C652.925 111.097 653.528 111.064 654.117 111.156C655.74 111.407 658.342 112.038 660.043 112.031C661.508 112.024 663.065 110.141 663.239 109.857" stroke="#7DB0A5" stroke-width="0.81087" stroke-linecap="round" stroke-linejoin="round"/>
<path d="M674.122 116.529C674.307 115.771 673.889 114.844 673.226 114.417C672.724 114.094 672.158 113.884 671.569 113.797C669.945 113.557 667.272 113.39 665.649 112.879C664.251 112.439 663.322 110.18 663.239 109.857" stroke="#7DB0A5" stroke-width="0.81087" stroke-linecap="round" stroke-linejoin="round"/>
<path d="M663.485 109.595C664.306 109.353 664.618 109.25 664.664 109.22L664.67 109.218C664.69 109.233 664.282 109.807 663.879 110.366" fill="#7DB0A5"/>
<path d="M663.485 109.595C664.306 109.353 664.618 109.25 664.664 109.22L664.67 109.218C664.69 109.233 664.282 109.807 663.879 110.366" stroke="#7DB0A5" stroke-width="0.81087" stroke-linecap="round" stroke-linejoin="round"/>
<path d="M663.081 109.534C662.369 109.06 662.102 108.869 662.066 108.827L662.061 108.824C662.038 108.832 662.258 109.501 662.478 110.154" fill="#7DB0A5"/>
<path d="M663.081 109.534C662.369 109.06 662.102 108.869 662.066 108.827L662.061 108.824C662.038 108.832 662.258 109.501 662.478 110.154" stroke="#7DB0A5" stroke-width="0.81087" stroke-linecap="round" stroke-linejoin="round"/>
<path d="M653.513 114.112C653.884 114.107 654.538 114.157 655.196 114.548C655.395 114.667 656.534 115.376 656.583 116.502C656.596 116.793 656.559 116.884 656.559 116.884C656.548 116.91 656.537 116.93 656.546 116.948C656.589 117.034 657.006 116.899 657.161 116.86C657.725 116.719 658.287 116.986 658.705 117.184C659.678 117.646 660.152 118.672 660.452 119.343C661.249 121.126 661.23 122.862 661.108 123.954" stroke="#7DB0A5" stroke-width="0.81087" stroke-linecap="round" stroke-linejoin="round"/>
<path d="M671.272 116.8C670.919 116.685 670.279 116.539 669.535 116.719C669.31 116.773 668.012 117.113 667.632 118.175C667.534 118.449 667.543 118.546 667.543 118.546C667.545 118.575 667.55 118.597 667.536 118.611C667.469 118.681 667.111 118.429 666.975 118.346C666.478 118.044 665.861 118.133 665.404 118.198C664.338 118.351 663.582 119.191 663.097 119.744C661.808 121.211 661.313 122.875 661.107 123.954" stroke="#7DB0A5" stroke-width="0.81087" stroke-linecap="round" stroke-linejoin="round"/>
<path d="M564.11 164.672C564.11 163.427 565.119 162.419 566.362 162.419H617.775C677.821 162.419 695.834 171.054 695.834 202.782C695.834 217.138 690.372 226.772 681.061 230.777C679.324 231.524 679.242 233.993 680.946 234.811C699.619 243.772 693.049 271.696 697.692 283.83C698.259 285.312 697.195 286.89 695.608 286.89H650.055C649.344 286.89 648.636 286.583 648.233 285.997C640.527 274.758 654.337 245.962 626.22 245.962H617.211C615.968 245.962 614.959 246.971 614.959 248.215V284.637C614.959 285.881 613.951 286.89 612.708 286.89H566.362C565.119 286.89 564.11 285.881 564.11 284.637V164.672ZM625.469 217.99C638.416 217.99 643.293 214.61 643.293 205.223C643.293 195.837 638.605 192.457 625.469 192.457H617.211C615.968 192.457 614.959 193.466 614.959 194.71V215.737C614.959 216.981 615.968 217.99 617.211 217.99L625.469 217.99Z" fill="#454654"/>
<path d="M558.175 285.068L561.238 278.467L579.381 264.794H587.393L597.76 269.745L595.404 278.703L569.721 290.726L558.175 285.068Z" fill="#697976"/>
<path d="M594.785 255.87L600.59 255.461L611.984 260.122L612.866 268.576L605.657 270.643L595.646 265.378L594.785 255.87Z" fill="#708080"/>
<path d="M675.916 285.339L673.593 274.871L679.197 270.786L696.025 270.7L701.899 284.616L695.48 289.88L675.916 285.339Z" fill="#708080"/>
<path d="M641.879 253.776L648.712 251.418L663.792 252.597L668.74 262.263L658.609 269.425L641.879 263.677V253.776Z" fill="#697976"/>
<path d="M631.754 240.502V243.547H638.116L646.127 237.89V231.76L638.941 230.361L631.754 240.502Z" fill="#708080"/>
<path d="M602.023 287.661V284.125L609.563 278.703H617.575V286.011L608.621 290.726L602.023 287.661Z" fill="#7E8E8D"/>
<path d="M667.561 240.257L684.813 246.703L685.854 257.114L679.687 260.422L666.086 250.031L667.561 240.257Z" fill="#7E8E8D"/>
<path d="M646.592 278.394L643.293 285.231L652.011 288.767L666.384 281.459L667.327 274.858L657.43 271.813L646.592 278.394Z" fill="#7E8E8D"/>
<path d="M581.805 237.919L582.237 245.138L577.047 259.353L566.412 261.523L562.242 249.833L572.273 235.257L581.805 237.919Z" fill="#708080"/>
<path d="M591.649 237.324L597.886 241.647L602.733 233.58L597.753 218.238L591.382 216.281L586.836 225.588L591.649 237.324Z" fill="#697976"/>
<path d="M592.635 244.308L594.402 246.559L591.856 254.141L586.272 258.529L582.62 253.877L586.505 245.971L592.635 244.308Z" fill="#7E8E8D"/>
<path d="M657.819 237.634L654.911 235.377L655.721 225.122L661.318 217.902L667.327 222.565L664.948 233.643L657.819 237.634Z" fill="#7E8E8D"/>
<path d="M564.11 162.42C569.278 162.349 574.505 162.343 579.791 162.407C616.496 162.856 650.81 166.643 682.411 172.471C683.052 172.921 683.694 173.37 684.335 173.819C683.146 180.431 680.875 186.104 676.53 187.69C670.812 189.776 666.984 182.788 657.288 182.394C647.126 181.981 645.68 189.436 636.157 189.102C624.966 188.71 622.882 178.319 613.272 179.055C603.65 179.792 601.365 190.557 593.345 189.348C586.552 188.324 584.265 180.075 578.104 181.056C574.429 181.642 573.027 184.931 569.856 184.373C567.015 183.873 565.178 180.711 564.11 178.293V162.42Z" fill="#3A3652"/>
<path d="M637.826 172.365C651.006 172.365 661.689 167.699 661.689 161.942C661.689 156.186 651.006 151.519 637.826 151.519C624.647 151.519 613.963 156.186 613.963 161.942C613.963 167.699 624.647 172.365 637.826 172.365Z" fill="#5E8054"/>
<path d="M686.23 169.704C686.83 165.732 679.623 161.348 670.132 159.911C660.641 158.475 652.46 160.53 651.86 164.502C651.259 168.473 658.466 172.858 667.957 174.294C677.448 175.731 685.629 173.675 686.23 169.704Z" fill="#5E8054"/>
<path d="M670.079 180.036C674.713 180.036 678.469 177.956 678.469 175.391C678.469 172.826 674.713 170.747 670.079 170.747C665.446 170.747 661.689 172.826 661.689 175.391C661.689 177.956 665.446 180.036 670.079 180.036Z" fill="#5E8054"/>
<path d="M599.186 170.23C615.652 170.23 629.001 165.737 629.001 160.194C629.001 154.652 615.652 150.158 599.186 150.158C582.72 150.158 569.372 154.652 569.372 160.194C569.372 165.737 582.72 170.23 599.186 170.23Z" fill="#5E8054"/>
<path d="M570.677 172.519C578.601 172.519 585.024 169.227 585.024 165.168C585.024 161.108 578.601 157.817 570.677 157.817C562.754 157.817 556.331 161.108 556.331 165.168C556.331 169.227 562.754 172.519 570.677 172.519Z" fill="#5E8054"/>
<path d="M590.842 179.134C598.933 179.134 605.492 176.103 605.492 172.365C605.492 168.628 598.933 165.597 590.842 165.597C582.752 165.597 576.193 168.628 576.193 172.365C576.193 176.103 582.752 179.134 590.842 179.134Z" fill="#5E8054"/>
<path d="M622.805 234.718C625.409 234.718 627.521 232.606 627.521 230C627.521 227.395 625.409 225.283 622.805 225.283C620.201 225.283 618.09 227.395 618.09 230C618.09 232.606 620.201 234.718 622.805 234.718Z" fill="#5E8054"/>
<path d="M627.521 217.99H618.09V230H627.521V217.99Z" fill="#5E8054"/>
<path d="M597.103 166.494C606.247 166.494 613.659 163.631 613.659 160.098C613.659 156.565 606.247 153.701 597.103 153.701C587.96 153.701 580.547 156.565 580.547 160.098C580.547 163.631 587.96 166.494 597.103 166.494Z" fill="#60975F"/>
<path d="M787.145 171.868C777.481 178.814 756.464 172.838 750.021 160.978C744.799 151.403 752.492 144.363 748.051 134.193C747.926 133.943 747.832 133.724 747.707 133.473C746.206 130.407 744.142 128.248 741.765 126.589C737.981 123.93 733.321 122.553 728.567 120.613C724.189 118.829 719.747 116.576 715.869 112.508C715.744 112.383 715.619 112.227 715.494 112.102C712.554 108.847 709.74 104.216 708.176 97.4885C706.675 91.0113 706.299 82.5315 707.988 71.3919C714.869 70.0777 721.78 68.732 728.661 67.3865C729.693 73.8951 731.851 82.2185 736.949 89.4156C738.638 91.7935 740.67 94.0779 743.079 96.1117C751.054 102.839 758.403 102.839 765.847 104.592C769.349 105.437 772.852 106.657 776.48 109.192C779.701 111.444 782.485 114.386 784.862 117.765C786.457 119.956 787.864 122.365 789.053 124.9C790.96 128.842 792.399 133.098 793.4 137.416C796.652 151.685 794.807 166.36 787.145 171.868Z" fill="#9CB09F"/>
<path d="M714.582 93.1877C715.865 102.007 719.182 106.983 722.801 109.909C728.85 114.799 735.413 115.405 743 118.855C747.211 120.77 754.823 125.187 757.759 133.169C759.378 137.57 758.098 141.799 757.759 144.307" stroke="#8C9E8F" stroke-width="0.95212" stroke-miterlimit="10" stroke-linecap="round"/>
<path d="M726.15 84.2886C726.881 88.5083 728.184 91.4054 729.619 93.5479C730.733 95.2116 731.786 96.2537 733 97.446C735.264 99.6714 738.927 103.203 744.795 105.63C747.176 106.615 750.998 107.864 755.951 108.094" stroke="#8C9E8F" stroke-width="0.95212" stroke-miterlimit="10" stroke-linecap="round"/>
<path d="M766.44 117.726C769.651 120.13 773.129 123.457 774.451 130.767C774.646 131.846 774.862 133.574 774.451 138.716C774.1 143.116 773.345 149.326 771.555 156.821" stroke="#8C9E8F" stroke-width="0.95212" stroke-miterlimit="10" stroke-linecap="round"/>
<path d="M781.794 128.84C783.026 131.85 784.596 136.807 784.525 143.045C784.479 147.11 783.75 150.518 782.997 153.026" stroke="#8C9E8F" stroke-width="0.95212" stroke-miterlimit="10" stroke-linecap="round"/>
<path d="M722.69 90.5211C722.532 91.7242 722.019 96.6854 725.286 101.431C728.11 105.532 732.048 106.989 733.334 107.405" stroke="#8C9E8F" stroke-width="0.95212" stroke-miterlimit="10" stroke-linecap="round"/>
<path d="M744.498 113.12C746.596 113.336 752.354 114.212 757.479 118.834C761.167 122.161 762.847 125.912 763.58 127.926" stroke="#8C9E8F" stroke-width="0.95212" stroke-miterlimit="10" stroke-linecap="round"/>
<path d="M766.436 139.225C766.487 142.656 766.073 147.696 763.71 153.122C762.91 154.959 762.01 156.558 761.114 157.927" stroke="#8C9E8F" stroke-width="0.95212" stroke-miterlimit="10" stroke-linecap="round"/>
<path d="M763.89 109.668C765.741 110.021 768.99 110.901 772.245 113.338C776.824 116.766 778.642 121.199 779.275 123.023" stroke="#8C9E8F" stroke-width="0.95212" stroke-miterlimit="10" stroke-linecap="round"/>
<path d="M742.666 87.4327C741.782 88.9428 740.23 90.9351 737.597 91.667C734.147 92.626 732.066 90.5232 728.614 91.5486C724.953 92.6358 725.301 95.5914 722.199 96.0386C719.006 96.4988 717.593 93.5197 713.836 93.9488C711.457 94.2207 711.091 95.5227 708.605 96.0386C705.581 96.666 702.621 95.4672 700.663 94.4172C701.596 91.1487 702.442 87.5719 703.103 83.7134C703.896 79.0864 704.299 74.7776 704.454 70.8646C712.884 69.7234 721.353 68.5549 729.783 67.3865C730.147 69.8075 730.982 73.1107 732.993 76.7268C735.931 82.0124 740.009 85.4979 742.666 87.4327Z" fill="#707E72"/>
<path d="M659.836 23.3518C646.064 35.7476 628.966 59.6143 636.328 74.5327C639.331 80.6176 647.786 88.6212 654.703 87.3094C659.273 86.4427 662.093 81.724 666.12 82.9267C668.415 83.6118 668.736 85.5125 670.617 87.3692C674.645 91.3458 680.272 89.6353 694.948 88.7602C711.55 87.7703 713.212 89.3229 718.184 86.5386C723.302 83.6726 724.077 80.5203 729.172 79.5609C733.645 78.7185 735.448 80.6974 741.355 81.7743C748.106 83.005 753.235 81.7847 762.36 79.6132C771.982 77.3234 776.779 76.1154 779.952 72.1294C782.488 68.9444 782.294 66.4766 785.512 64.4006C789.608 61.7574 792.894 63.8413 796.05 62.1593C801.571 59.2174 801.4 47.6398 800.519 42.3752C796.824 20.2792 763.607 8.29223 756.785 6.00653C727.034 -3.9604 686.956 -1.0588 659.836 23.3518Z" fill="#335954"/>
<path d="M735.185 55.3015C739.031 52.0443 737.665 44.1035 732.134 37.5651C726.603 31.0267 719.001 28.3668 715.155 31.624C711.309 34.8812 712.674 42.8221 718.205 49.3605C723.736 55.8988 731.338 58.5587 735.185 55.3015Z" fill="#3E6C55"/>
<path d="M772.397 63.4663C778.74 59.8025 779.652 49.504 774.436 40.464C769.219 31.4239 759.849 27.0656 753.506 30.7294C747.164 34.3932 746.251 44.6917 751.467 53.7317C756.684 62.7718 766.054 67.1301 772.397 63.4663Z" fill="#3E6C55"/>
<path d="M669.295 41.4604C673.335 37.4183 674.394 31.9242 671.66 29.1891C668.927 26.454 663.435 27.5136 659.395 31.5557C655.355 35.5979 654.296 41.0919 657.03 43.827C659.764 46.5622 665.255 45.5026 669.295 41.4604Z" fill="#3E6C55"/>
<path d="M652.589 56.9685C655.313 54.2426 656.027 50.5376 654.184 48.6931C652.34 46.8487 648.637 47.5632 645.913 50.2891C643.188 53.015 642.474 56.72 644.317 58.5645C646.161 60.409 649.864 59.6944 652.589 56.9685Z" fill="#3E6C55"/>
<path d="M692.972 20.3501C697.18 19.3508 700.043 16.2315 699.367 13.3829C698.691 10.5343 694.733 9.03519 690.525 10.0345C686.317 11.0338 683.454 14.1531 684.13 17.0017C684.806 19.8503 688.765 21.3494 692.972 20.3501Z" fill="#3E6C55"/>
<path d="M783.004 32.2718C784.659 30.2145 783.537 26.5631 780.498 24.1162C777.459 21.6694 773.654 21.3535 771.999 23.4109C770.344 25.4682 771.466 29.1195 774.505 31.5664C777.544 34.0133 781.349 34.3291 783.004 32.2718Z" fill="#3E6C55"/>
<path d="M683.381 73.6682C684.006 69.6931 682.006 66.0762 678.914 65.5897C675.822 65.1033 672.809 67.9314 672.185 71.9065C671.56 75.8816 673.56 79.4985 676.652 79.9849C679.743 80.4714 682.756 77.6433 683.381 73.6682Z" fill="#3E6C55"/>
<path d="M682.275 46.4772C682.788 43.2175 680.99 40.2268 678.259 39.7972C675.529 39.3677 672.9 41.6619 672.388 44.9215C671.876 48.1812 673.674 51.1719 676.404 51.6015C679.134 52.031 681.763 49.7368 682.275 46.4772Z" fill="#3E6C55"/>
<path d="M751.1 23.8736C751.613 20.6139 747.041 17.1868 740.889 16.2188C734.737 15.2509 729.335 17.1087 728.823 20.3684C728.31 23.628 732.882 27.0551 739.034 28.023C745.186 28.991 750.588 27.1332 751.1 23.8736Z" fill="#3E6C55"/>
<path d="M669.14 42.9969C667.351 43.4838 665.568 43.9833 663.789 44.4952C662.573 44.8452 661.306 44.1696 660.923 42.9632C660.798 42.5692 660.672 42.1753 660.547 41.7814C660.145 40.5224 660.858 39.1709 662.127 38.8053C670.76 36.3192 679.51 34.1219 688.364 32.2224C689.613 31.9544 690.857 32.7439 691.15 33.988C691.245 34.391 691.339 34.794 691.434 35.197C691.733 36.4723 690.922 37.738 689.642 38.0124C687.869 38.3924 686.102 38.7844 684.338 39.1885C683.058 39.4817 682.278 40.778 682.605 42.0504C684.225 48.3667 685.793 54.692 687.306 61.0258C687.607 62.2829 686.826 63.5409 685.571 63.8441C683.739 64.2865 681.912 64.7427 680.091 65.2126C678.852 65.5322 677.596 64.8027 677.265 63.5664C675.57 57.2419 673.821 50.9273 672.018 44.6235C671.665 43.3893 670.378 42.6598 669.14 42.9969Z" fill="#7DB0A5"/>
<path d="M697.495 30.3768C699.639 29.9694 701.789 29.5794 703.944 29.2069C705.201 28.9896 706.41 29.8267 706.654 31.0797C707.119 33.4674 707.577 35.856 708.027 38.2453C708.261 39.4856 709.43 40.3053 710.676 40.1063C713.062 39.7251 715.454 39.3659 717.853 39.029C719.149 38.847 720.05 37.6435 719.846 36.3501C719.478 34.0264 719.104 31.7031 718.723 29.3805C718.508 28.0757 719.412 26.8472 720.723 26.6782C722.931 26.3934 725.145 26.1268 727.363 25.8787C728.63 25.737 729.787 26.6431 729.96 27.907C731.112 36.3621 732.171 44.8219 733.138 53.2848C733.285 54.5753 732.35 55.7347 731.059 55.8774C729.094 56.0948 727.133 56.3279 725.177 56.5764C723.913 56.7369 722.762 55.8625 722.583 54.6005C722.218 52.0378 721.846 49.4757 721.464 46.9141C721.275 45.6395 720.085 44.7459 718.809 44.9246C716.49 45.2494 714.177 45.5954 711.87 45.9622C710.578 46.1676 709.713 47.4004 709.944 48.6885C710.395 51.2031 710.837 53.7185 711.271 56.2347C711.491 57.5111 710.628 58.7186 709.352 58.9379C707.449 59.265 705.551 59.6068 703.657 59.9633C702.403 60.1993 701.203 59.393 700.951 58.1417C699.279 49.811 697.516 41.4912 695.661 33.1838C695.373 31.8969 696.2 30.6228 697.495 30.3768Z" fill="#7DB0A5"/>
<path d="M739.768 24.6881C747.977 24.0292 756.244 23.6213 764.558 23.4708C765.829 23.4478 766.899 24.4517 766.959 25.7225C766.979 26.1394 766.998 26.5563 767.018 26.9732C767.078 28.2856 766.041 29.3781 764.728 29.4015C760.373 29.4791 756.03 29.6284 751.703 29.8486C750.377 29.916 749.375 31.0799 749.487 32.4029C749.533 32.9371 749.578 33.4713 749.623 34.0054C749.728 35.2601 750.802 36.1966 752.059 36.1328C754.923 35.9875 757.794 35.8736 760.672 35.7915C761.948 35.755 763.025 36.7563 763.086 38.0324C763.097 38.2663 763.108 38.5002 763.119 38.7341C763.181 40.0401 762.156 41.1333 760.849 41.1704C758.103 41.2483 755.363 41.3556 752.629 41.492C751.314 41.5576 750.316 42.7026 750.415 44.0156C750.464 44.6748 750.513 45.334 750.562 45.9932C750.655 47.2546 751.726 48.2005 752.989 48.1377C757.257 47.9251 761.54 47.7848 765.838 47.7177C767.125 47.6976 768.199 48.7302 768.232 50.0183C768.243 50.4487 768.254 50.8791 768.264 51.3095C768.296 52.6044 767.264 53.6651 765.969 53.6852C758.201 53.8054 750.479 54.1687 742.816 54.7687C741.554 54.8675 740.459 53.9499 740.339 52.689C739.53 44.2262 738.629 35.7648 737.635 27.3062C737.481 25.9875 738.446 24.7943 739.768 24.6881Z" fill="#7DB0A5"/>
<path d="M719.162 163.072H827.055C828.299 163.072 829.307 164.081 829.307 165.325V191.42C829.307 192.664 828.299 193.673 827.055 193.673H770.011C768.767 193.673 767.759 194.682 767.759 195.926V209.256C767.759 210.501 768.767 211.509 770.011 211.509H809.979C811.223 211.509 812.231 212.518 812.231 213.762V236.291C812.231 237.535 811.223 238.544 809.979 238.544H770.011C768.767 238.544 767.759 239.553 767.759 240.797V254.5C767.759 255.745 768.767 256.753 770.011 256.753H828.931C830.174 256.753 831.182 257.762 831.182 259.006V285.29C831.182 286.535 830.174 287.543 828.931 287.543H719.162C717.918 287.543 716.91 286.535 716.91 285.29V165.325C716.91 164.081 717.918 163.072 719.162 163.072Z" fill="#454654"/>
<path d="M737.462 271.267L740.525 264.666L758.668 250.993H766.679L777.047 255.943L774.69 264.902L749.007 276.925L737.462 271.267Z" fill="#697976"/>
<path d="M756.358 226.137L762.163 225.728L773.556 230.389L774.439 238.843L767.23 240.91L757.219 235.645L756.358 226.137Z" fill="#7E8E8D"/>
<path d="M713.7 277.38L719.737 274.044L733.96 273.396L739.937 282.948L731.504 291.754L715.098 287.8L713.7 277.38Z" fill="#708080"/>
<path d="M733.109 231.942L730.477 233.472L727.281 227.968L728.147 218.195L733.445 215.117L738.264 220.631L733.109 231.942Z" fill="#697976"/>
<path d="M758.888 286.356V282.82L766.428 277.398H774.439V284.706L765.485 289.421L758.888 286.356Z" fill="#708080"/>
<path d="M780.701 265.205L797.954 271.651L798.995 282.062L792.827 285.37L779.227 274.979L780.701 265.205Z" fill="#7E8E8D"/>
<path d="M812.425 269.458L809.126 276.294L817.845 279.831L832.218 272.522L833.16 265.922L823.264 262.876L812.425 269.458Z" fill="#697976"/>
<path d="M750.896 234.149L751.328 241.368L746.139 255.583L735.503 257.752L731.333 246.063L741.364 231.487L750.896 234.149Z" fill="#708080"/>
<path d="M719.526 267.03L725.763 271.353L730.61 263.287L725.63 247.945L719.259 245.987L714.713 255.294L719.526 267.03Z" fill="#7E8E8D"/>
<path d="M795.424 254.665L795.291 257.524L788.412 261.598L781.319 261.268L781.594 255.359L789.698 251.915L795.424 254.665Z" fill="#708080"/>
<path d="M833.16 287.097L831.657 289.532L823.666 289.753L817.625 286.019L820.732 280.987L829.488 281.912L833.16 287.097Z" fill="#708080"/>
<path d="M829.307 179.203C819.953 186.04 813.48 186.757 809.163 185.958C803.251 184.863 800.652 180.789 791.428 179.444C789.238 179.124 786.025 178.657 781.893 179.281C774.995 180.323 773.129 183.263 766.266 184.109C764.314 184.35 760.938 184.766 757.103 183.678C748.307 181.181 748.101 173.892 742.12 173.183C735.415 172.388 732.092 181.124 725.111 180.115C721.476 179.589 718.826 176.706 717.097 174.2V163.072H829.307V179.203Z" fill="#3A3652"/>
<path d="M810.208 211.509C806.37 216.92 803.043 218.347 800.494 218.425C796.114 218.558 794.728 214.687 790.112 214.901C784.975 215.14 783.635 220.077 779.353 220.083C777.078 220.086 773.695 218.697 769.52 211.509H810.208Z" fill="#3A3652"/>
<path d="M818.392 167.756C827.012 167.756 834 164.009 834 159.386C834 154.764 827.012 151.016 818.392 151.016C809.771 151.016 802.783 154.764 802.783 159.386C802.783 164.009 809.771 167.756 818.392 167.756Z" fill="#5E8054"/>
<path d="M729.93 169.171C740.306 169.171 748.717 165.507 748.717 160.988C748.717 156.469 740.306 152.805 729.93 152.805C719.554 152.805 711.143 156.469 711.143 160.988C711.143 165.507 719.554 169.171 729.93 169.171Z" fill="#5E8054"/>
<path d="M754.542 168.81C767.284 168.81 777.612 164.311 777.612 158.761C777.612 153.212 767.284 148.713 754.542 148.713C741.801 148.713 731.473 153.212 731.473 158.761C731.473 164.311 741.801 168.81 754.542 168.81Z" fill="#5E8054"/>
<path d="M805.93 173.019C815.22 173.019 822.75 169.739 822.75 165.693C822.75 161.647 815.22 158.367 805.93 158.367C796.641 158.367 789.111 161.647 789.111 165.693C789.111 169.739 796.641 173.019 805.93 173.019Z" fill="#5E8054"/>
<path d="M788.969 166.699C802.407 166.699 813.301 162.672 813.301 157.706C813.301 152.739 802.407 148.713 788.969 148.713C775.531 148.713 764.637 152.739 764.637 157.706C764.637 162.672 775.531 166.699 788.969 166.699Z" fill="#5E8054"/>
<path d="M745.405 176.045C751.949 176.045 757.254 173.734 757.254 170.884C757.254 168.033 751.949 165.722 745.405 165.722C738.861 165.722 733.556 168.033 733.556 170.884C733.556 173.734 738.861 176.045 745.405 176.045Z" fill="#5E8054"/>
<path d="M781.846 231.487C784.45 231.487 786.562 229.374 786.562 226.769C786.562 224.163 784.45 222.051 781.846 222.051C779.242 222.051 777.131 224.163 777.131 226.769C777.131 229.374 779.242 231.487 781.846 231.487Z" fill="#5E8054"/>
<path d="M786.562 211.516H777.131V226.769H786.562V211.516Z" fill="#5E8054"/>
<path d="M804.411 272.009C807.015 272.009 809.126 269.897 809.126 267.291C809.126 264.686 807.015 262.574 804.411 262.574C801.806 262.574 799.695 264.686 799.695 267.291C799.695 269.897 801.806 272.009 804.411 272.009Z" fill="#5E8054"/>
<path d="M809.126 256.756H799.695V267.291H809.126V256.756Z" fill="#5E8054"/>
<path d="M789.864 161.942C799.035 161.942 806.469 159.676 806.469 156.881C806.469 154.085 799.035 151.819 789.864 151.819C780.693 151.819 773.258 154.085 773.258 156.881C773.258 159.676 780.693 161.942 789.864 161.942Z" fill="#60975F"/>
</g>
<defs>
<clipPath id="clip0_79_1054">
<rect width="834" height="292" fill="white"/>
</clipPath>
</defs>
</svg>
