<svg width="320" height="78" viewBox="0 0 320 78" fill="none" xmlns="http://www.w3.org/2000/svg">
<path d="M243.813 39.1717C241.744 40.6586 237.243 39.3793 235.863 36.8409C234.744 34.7914 236.392 33.2844 235.441 31.1076C235.414 31.054 235.394 31.0071 235.367 30.9535C235.046 30.2972 234.604 29.835 234.095 29.4801C233.284 28.9107 232.286 28.616 231.268 28.2008C230.331 27.819 229.379 27.3368 228.549 26.4661C228.522 26.4392 228.495 26.4058 228.469 26.379C227.839 25.6824 227.236 24.6911 226.901 23.2511C226.58 21.8647 226.499 20.0496 226.861 17.6652C228.335 17.3839 229.815 17.0959 231.288 16.8079C231.509 18.201 231.971 19.9826 233.063 21.5231C233.425 22.0321 233.86 22.5211 234.376 22.9564C236.084 24.3964 237.658 24.3964 239.252 24.7715C240.002 24.9524 240.752 25.2135 241.529 25.7561C242.219 26.2383 242.815 26.8679 243.324 27.5913C243.666 28.0601 243.967 28.5758 244.222 29.1183C244.63 29.9623 244.938 30.8732 245.153 31.7975C245.849 34.8516 245.454 37.9929 243.813 39.1717Z" fill="#94AE9B"/>
<path d="M255.293 16.0684C255.116 16.1566 255.189 16.5317 255.291 17.4841C255.45 18.9535 255.628 20.6131 255.524 21.8327C255.32 24.2121 253.991 25.4743 254.532 25.9442C254.847 26.2178 255.278 25.7708 256.419 25.9794C256.614 26.0152 257.091 26.0799 257.672 25.9614C257.739 25.9478 257.806 25.9256 257.888 25.8904C259.072 25.3799 259.264 22.3604 258.362 19.9252C257.533 17.6866 255.743 15.8444 255.293 16.0684Z" fill="#94AE9B"/>
<path d="M252.339 14.3828C252.196 14.554 250.407 16.7297 251.058 18.2332C251.265 18.7095 251.815 19.3504 252.238 19.2719C252.518 19.2201 252.676 18.8672 252.93 18.9723C253.074 19.0322 253.1 19.179 253.223 19.3274C253.485 19.6453 253.828 19.5321 254.733 19.512C255.756 19.4892 255.864 19.6136 256.163 19.4159C256.469 19.2125 256.507 18.9732 256.819 18.9159C257.093 18.8656 257.211 19.0231 257.58 19.1246C258.002 19.2406 258.315 19.1634 258.872 19.0261C259.362 18.9052 259.658 18.8125 259.935 18.5083C260.212 18.2045 260.16 17.9703 260.421 17.8196C260.758 17.6252 261.006 17.8898 261.281 17.7145C261.625 17.4946 261.637 16.8198 261.639 16.7168C261.664 15.2314 259.69 13.8397 259.401 13.636C258.999 13.3521 257.581 12.379 255.717 12.5592C255.281 12.6014 253.645 12.82 252.339 14.3828Z" fill="#3E816F"/>
<path d="M266.927 7.62622C267.078 7.7322 267.016 8.18275 266.928 9.32696C266.792 11.0923 266.639 13.086 266.729 14.5512C266.903 17.4098 268.042 18.9261 267.578 19.4907C267.308 19.8194 266.94 19.2823 265.963 19.5329C265.795 19.5759 265.388 19.6537 264.89 19.5113C264.833 19.495 264.775 19.4684 264.705 19.4261C263.692 18.8128 263.527 15.1852 264.299 12.2596C265.009 9.57024 266.542 7.3571 266.927 7.62622Z" fill="#94AE9B"/>
<path d="M269.291 6.34946C269.42 6.5348 271.034 8.88972 270.508 10.4809C270.342 10.985 269.881 11.6581 269.511 11.5663C269.266 11.5056 269.119 11.1262 268.902 11.2334C268.778 11.2946 268.759 11.4507 268.656 11.6066C268.437 11.9407 268.136 11.8134 267.349 11.7746C266.459 11.7307 266.368 11.8613 266.104 11.6447C265.832 11.4219 265.793 11.1659 265.52 11.0988C265.281 11.04 265.182 11.2057 264.864 11.3069C264.501 11.4226 264.227 11.3343 263.739 11.1771C263.309 11.0388 263.05 10.9342 262.801 10.6045C262.552 10.2751 262.591 10.0263 262.36 9.86065C262.062 9.64678 261.854 9.92429 261.61 9.73199C261.305 9.49092 261.276 8.77095 261.272 8.66104C261.21 7.07625 262.888 5.62962 263.134 5.41783C263.476 5.12271 264.682 4.11193 266.306 4.3398C266.687 4.3932 268.115 4.6576 269.291 6.34946Z" fill="#255A54"/>
<path d="M206.742 50.1099L248.986 57.0508L251.015 54.3433L241.909 52.4289L227.685 46.5198L206.742 50.1099Z" fill="#4B4133"/>
<path d="M37.9619 37.8169L63.7733 26.2842L92.056 16.9481L116.769 10.6326L119.24 13.2412L100.156 19.4194L67.8921 34.2472L37.9619 37.8169Z" fill="#5E533B"/>
<path d="M321.538 3.6582V42.1053L224.315 48.6907L128.328 60.0348L-2 77.9664V37.3489L81.5043 28.9324L202.074 15.3415L211.636 16.8918L217.494 17.84L219.451 22.0999L223.801 20.9945L228.413 24.6455L230.557 26.3441L234.367 23.7715L238.474 20.9967L246.078 21.3225L248.088 18.8465L253.278 21.8842L257.707 24.477L260.089 21.3652L262.654 18.013L268.496 14.0968L274.522 13.4385L275.681 11.6164L277.36 8.97861L282.844 6.55208L321.538 3.6582Z" fill="#7F6F58"/>
<path d="M321.538 12.6431V29.0716C317.177 29.9277 311.014 29.4895 302.672 29.4716C302.672 29.4716 287.106 29.4379 265.137 32.152C244.588 34.6909 245.08 37.551 231.177 37.8723C216.02 38.2228 213.373 34.8684 199.005 35.1919C186.634 35.4705 185.558 38.0296 166.833 41.6267C132.14 48.2885 125.903 41.411 105.347 50.3847C97.4678 53.8246 94.0123 56.7432 84.6139 58.963C77.2759 60.6975 72.6205 60.5133 55.4797 60.0347C20.7713 59.0686 18.9851 59.2393 15.9811 59.8572C8.31054 61.4345 2.40596 63.9351 -2 65.6607V51.7216C2.69804 51.3823 9.05423 52.5664 18.6615 51.2767C20.6499 51.0116 20.459 50.9487 40.6464 45.0216C62.2246 38.6857 64.3681 38.1914 67.9921 38.0521C78.8599 37.6297 80.7202 41.2582 93.1944 43.2354C104.574 45.0374 114.006 43.2444 132.873 39.6608C157.006 35.0751 157.549 31.8329 173.088 30.723C186.796 29.7434 185.749 32.3093 205.083 31.9745C219.26 31.7296 220.257 30.3411 244.222 28.6695C267.573 27.0383 265.755 28.4156 273.358 26.7911C276.913 26.0317 280.024 25.151 308.927 16.0672C314.337 14.3664 318.44 13.0745 321.538 12.6431Z" fill="#6C6146"/>
<path d="M224.976 17.437C225.165 17.7086 225.492 18.0645 226.023 18.1823C226.72 18.3366 227.117 17.9375 227.814 18.104C228.554 18.2805 228.51 18.8252 229.133 18.8877C229.774 18.9521 230.03 18.3964 230.783 18.4515C231.26 18.4864 231.344 18.7231 231.845 18.8022C232.454 18.8983 233.034 18.6596 233.415 18.4546C233.201 17.8605 233.001 17.2093 232.836 16.5053C232.638 15.661 232.52 14.8727 232.455 14.1554C230.764 13.9991 229.064 13.8379 227.372 13.6765C227.321 14.1232 227.183 14.7347 226.813 15.4111C226.272 16.3997 225.489 17.0652 224.976 17.437Z" fill="#6D7F71"/>
<path d="M240.869 5.15365C243.53 7.34215 246.903 11.6151 245.654 14.3997C245.144 15.5355 243.636 17.0577 242.339 16.8605C241.482 16.7302 240.919 15.8818 240.18 16.1279C239.759 16.2681 239.714 16.619 239.379 16.9717C238.662 17.7269 237.602 17.4484 234.865 17.3801C231.769 17.303 231.472 17.5984 230.525 17.1187C229.55 16.6249 229.38 16.0511 228.425 15.9071C227.586 15.7807 227.266 16.1552 226.176 16.3901C224.93 16.6585 223.967 16.4668 222.252 16.1257C220.443 15.766 219.541 15.5744 218.919 14.8628C218.422 14.2942 218.438 13.84 217.823 13.4792C217.039 13.0198 216.445 13.423 215.844 13.1342C214.794 12.629 214.732 10.5029 214.854 9.53103C215.363 5.45213 221.445 3.04285 222.695 2.58037C228.149 0.563683 235.627 0.843935 240.869 5.15365Z" fill="#255A54"/>
<path d="M230.203 10.3167C231.187 9.08745 231.39 7.61616 230.658 7.03048C229.926 6.4448 228.535 6.96653 227.552 8.19577C226.569 9.42501 226.365 10.8963 227.097 11.482C227.829 12.0676 229.22 11.5459 230.203 10.3167Z" fill="#2C6D53"/>
<path d="M224.056 11.3319C224.963 9.64514 224.725 7.7536 223.523 7.10704C222.321 6.46049 220.611 7.30377 219.704 8.99057C218.796 10.6774 219.035 12.5689 220.237 13.2155C221.438 13.862 223.148 13.0187 224.056 11.3319Z" fill="#2C6D53"/>
<path d="M241.569 8.87977C242.043 8.34979 241.786 7.34575 240.995 6.63718C240.204 5.92861 239.178 5.78384 238.703 6.31382C238.228 6.8438 238.485 7.84785 239.277 8.55641C240.068 9.26498 241.094 9.40975 241.569 8.87977Z" fill="#2C6D53"/>
<path d="M244.048 11.5094C244.368 11.152 244.195 10.4749 243.661 9.99708C243.128 9.51925 242.436 9.42161 242.116 9.77901C241.796 10.1364 241.969 10.8135 242.502 11.2913C243.036 11.7692 243.728 11.8668 244.048 11.5094Z" fill="#2C6D53"/>
<path d="M236.298 4.14491C236.404 3.61845 235.849 3.06272 235.059 2.90364C234.269 2.74457 233.542 3.0424 233.436 3.56886C233.33 4.09531 233.885 4.65105 234.675 4.81012C235.465 4.9692 236.192 4.67137 236.298 4.14491Z" fill="#2C6D53"/>
<path d="M219.587 7.39859C220.138 6.93709 220.331 6.25846 220.016 5.88282C219.702 5.50718 219 5.57678 218.448 6.03828C217.897 6.49978 217.705 7.17842 218.02 7.55406C218.334 7.9297 219.036 7.86009 219.587 7.39859Z" fill="#2C6D53"/>
<path d="M238.225 15.6483C238.792 15.5197 239.119 14.8298 238.955 14.1074C238.791 13.385 238.199 12.9035 237.632 13.0321C237.065 13.1607 236.738 13.8505 236.902 14.573C237.066 15.2954 237.658 15.7768 238.225 15.6483Z" fill="#2C6D53"/>
<path d="M238.051 10.4353C238.55 10.3158 238.84 9.73998 238.699 9.14918C238.557 8.55838 238.038 8.17631 237.539 8.29582C237.039 8.41532 236.749 8.99115 236.891 9.58195C237.032 10.1728 237.552 10.5548 238.051 10.4353Z" fill="#2C6D53"/>
<path d="M226.155 6.51327C227.292 6.30266 228.125 5.64786 228.014 5.05072C227.904 4.45358 226.892 4.14023 225.754 4.35084C224.617 4.56145 223.784 5.21625 223.895 5.81339C224.005 6.41053 225.017 6.72388 226.155 6.51327Z" fill="#2C6D53"/>
<path d="M228.413 24.6455C221.365 25.8184 219.201 26.6991 209.104 27.3304C194.022 28.2719 193.422 26.6429 174.14 27.326C163.393 27.7057 153.986 28.0404 141.981 30.085C121.214 33.6215 120.653 37.841 106.192 38.3689C91.4689 38.9059 89.8984 35.21 73.8046 35.347C62.1752 35.4459 53.7542 37.5579 36.8673 41.5774C17.7898 46.1182 8.20045 50.3983 -2 48.1133V39.8249C2.40821 40.2158 7.6365 40.591 13.2782 40.5394C15.0037 40.5236 18.6458 40.3237 23.2742 39.8586C29.9944 39.1845 34.0049 38.342 42.3764 36.7872C54.217 34.5898 60.1373 33.4934 63.7951 33.1272C72.9486 32.2127 74.7438 33.0867 83.4186 32.6239C94.8548 32.015 99.2585 30.094 110.131 28.1685C123.895 25.733 126.575 27.0833 148.571 25.6723C153.856 25.3331 170.28 24.1917 188.373 21.4686C199.113 19.8531 206.087 18.3028 211.636 16.8918L217.494 17.84L219.451 22.0999L223.801 20.9945L228.413 24.6455Z" fill="#6C6146"/>
<path d="M248.088 18.8466L253.278 21.8842C250.638 22.0887 247.587 22.3403 243.963 22.6953C240.09 23.0728 236.964 23.4323 234.367 23.7715L238.474 20.9967L246.077 21.3225L248.088 18.8466Z" fill="#7F6F58"/>
<path d="M321.539 3.83569V9.2954C321.539 9.2954 318.616 9.14037 304.951 10.2076C301.558 10.4727 298.174 11.3984 291.405 13.2543C283.132 15.5213 278.151 17.4647 274.819 18.5836C269.418 20.3968 265.773 20.9046 260.089 21.3652L262.655 18.013L268.496 14.0968L274.522 13.4385L275.682 11.6163C278.243 11.5107 281.204 11.2816 284.759 10.8704C300.19 9.08645 313.509 5.43541 321.539 3.83569Z" fill="#6C6146"/>
<path d="M321.538 32.4891V38.6835C314.758 39.6361 309.071 39.1396 303.58 38.9306C288.07 38.3397 274.774 40.0473 265.481 41.2426C262.515 41.6245 257.345 42.348 255.674 42.5817C245.138 44.0578 238.447 45.1161 236.003 45.4755C223.553 47.3022 217.319 46.2619 204.339 46.7877C178.719 47.8279 180.208 52.8046 153.119 54.2313C141.653 54.8334 135.549 54.2493 122.475 56.2736C113.613 57.6442 110.389 58.8462 101.168 60.9425C96.4208 62.0232 74.209 66.9482 48.1979 68.3951C26.9724 69.5747 25.7659 67.1841 14.1971 70.1364C8.11507 71.6889 2.48909 73.8705 -2 75.6567V68.831C3.9248 66.1371 10.3304 65.7978 15.68 65.4788C25.6041 64.8856 35.4878 63.6229 45.4253 63.2769C71.05 62.3872 83.8635 61.9423 96.4995 58.9001C109.675 55.7277 109.632 53.6449 124.562 50.5376C138.555 47.6235 145.724 46.1294 155.745 47.0798C166.182 48.0684 169.907 50.778 177.481 48.4054C181.601 47.1135 184.461 45.0689 191.773 43.2265C195.098 42.3885 198.219 41.8739 201.636 41.5122C215.323 40.0653 231.076 41.3212 234.253 41.5347C248.92 42.521 249.958 38.3937 274.273 34.855C292.377 32.2217 310.091 31.851 321.538 32.4891Z" fill="#6C6146"/>
<path opacity="0.5" d="M321.538 3.6582V42.1053L224.315 48.6907L128.328 60.0348L-2 77.9664V37.3489L81.5043 28.9324L202.074 15.3415L211.636 16.8918L217.494 17.84L219.451 22.0999L223.801 20.9945L228.413 24.6455L230.557 26.3441L234.367 23.7715L238.474 20.9967L246.078 21.3225L248.088 18.8465L253.278 21.8842L257.707 24.477L260.089 21.3652L262.654 18.013L268.496 14.0968L274.522 13.4385L275.681 11.6164L277.36 8.97861L282.844 6.55208L321.538 3.6582Z" fill="url(#paint0_linear_113_438)"/>
<path d="M64.0624 41.4219C60.9088 42.6075 57.7553 43.7931 54.6017 44.9787C52.9907 46.9152 51.3796 48.8517 49.7686 50.7882L50.8997 53.9893C52.4765 54.3054 54.0533 54.6216 55.63 54.9378C57.104 54.8983 58.5779 54.8587 60.0519 54.8192C60.7403 55.2139 61.4288 55.6086 62.1172 56.0032C62.8684 55.1343 63.6197 54.2654 64.3709 53.3965C64.885 54.5821 65.3992 55.7677 65.9134 56.9533C66.7546 57.4732 67.5958 57.993 68.437 58.5129C69.5153 57.993 70.5937 57.4732 71.672 56.9533C73.0774 56.2419 74.4828 55.5306 75.8882 54.8192C76.4024 55.9258 76.9165 57.0324 77.4307 58.1389C79.2474 57.3485 81.0641 56.5581 82.8809 55.7677V50.6696C82.4352 49.4445 81.9896 48.2193 81.544 46.9942C80.2412 47.4066 78.9385 47.8189 77.6357 48.2312C77.4302 47.3051 77.2248 46.379 77.0194 45.4529C75.1884 45.2186 73.3575 44.9843 71.5266 44.75C69.0385 43.6406 66.5504 42.5313 64.0624 41.4219Z" fill="url(#paint1_linear_113_438)"/>
<path d="M302.736 7.25807C306.478 7.25807 309.511 6.01638 309.511 4.48469C309.511 2.95299 306.478 1.7113 302.736 1.7113C298.994 1.7113 295.961 2.95299 295.961 4.48469C295.961 6.01638 298.994 7.25807 302.736 7.25807Z" fill="#54804F"/>
<path d="M321.539 1.75966V6.67342C319.883 7.5991 317.312 8.19224 314.43 8.19224C309.437 8.19224 305.389 6.41278 305.389 4.21766C305.389 2.0203 309.437 0.240845 314.43 0.240845C317.312 0.240845 319.883 0.833985 321.539 1.75966Z" fill="#54804F"/>
<path d="M306.511 10.9836C309.061 10.9836 311.129 9.99645 311.129 8.77869C311.129 7.56092 309.061 6.57373 306.511 6.57373C303.96 6.57373 301.893 7.56092 301.893 8.77869C301.893 9.99645 303.96 10.9836 306.511 10.9836Z" fill="#54804F"/>
<path d="M33.2422 38.1127C39.1323 37.5662 43.7485 35.4125 43.5528 33.3022C43.357 31.1918 38.4234 29.924 32.5332 30.4705C26.6431 31.0169 22.0269 33.1706 22.2226 35.2809C22.4184 37.3913 27.352 38.6591 33.2422 38.1127Z" fill="#54804F"/>
<path d="M39.1458 34.9614C44.1782 34.4945 48.1056 32.4768 47.918 30.4546C47.7304 28.4324 43.4988 27.1715 38.4664 27.6383C33.434 28.1052 29.5066 30.123 29.6942 32.1452C29.8818 34.1674 34.1134 35.4282 39.1458 34.9614Z" fill="#54804F"/>
<path d="M47.5558 36.782C51.1097 36.4523 53.8611 34.7882 53.7013 33.065C53.5414 31.3419 50.5308 30.2123 46.9769 30.542C43.423 30.8716 40.6716 32.5358 40.8314 34.2589C40.9913 35.9821 44.0019 37.1117 47.5558 36.782Z" fill="#54804F"/>
<path d="M13.1695 40.1255C19.5914 39.5298 24.5871 36.7805 24.3277 33.9848C24.0684 31.1891 18.6522 29.4056 12.2303 30.0014C5.80848 30.5971 0.812784 33.3464 1.07214 36.1421C1.33149 38.9378 6.74768 40.7212 13.1695 40.1255Z" fill="#54804F"/>
<path d="M21.6188 41.2317C25.1119 40.9077 27.8292 39.4123 27.6881 37.8916C27.547 36.3709 24.601 35.4009 21.1079 35.7249C17.6149 36.049 14.8976 37.5444 15.0386 39.0651C15.1797 40.5857 18.1257 41.5558 21.6188 41.2317Z" fill="#54804F"/>
<path d="M2.81038 41.5347C0.985983 41.7032 -0.705844 41.5549 -2 41.1729V36.4614C-0.849641 35.9491 0.622005 35.5717 2.2442 35.4211C6.12217 35.0617 9.3935 36.1379 9.54853 37.8275C9.70579 39.5148 6.68835 41.1752 2.81038 41.5347Z" fill="#54804F"/>
<path d="M285.172 10.4631C288.466 10.1575 291.038 8.84907 290.916 7.54058C290.795 6.23208 288.026 5.41906 284.732 5.72464C281.438 6.03023 278.866 7.3387 278.987 8.6472C279.109 9.9557 281.878 10.7687 285.172 10.4631Z" fill="#54804F"/>
<path d="M292.23 8.10288C297.389 7.62426 301.421 5.61638 301.236 3.61816C301.051 1.61993 296.718 0.388044 291.559 0.866662C286.399 1.34528 282.367 3.35316 282.552 5.35138C282.738 7.34961 287.071 8.5815 292.23 8.10288Z" fill="#54804F"/>
<path d="M299.535 10.3035C302.098 10.0657 304.084 8.88369 303.971 7.66337C303.858 6.44306 301.688 5.64655 299.125 5.88431C296.562 6.12207 294.576 7.30408 294.689 8.52439C294.803 9.74471 296.972 10.5412 299.535 10.3035Z" fill="#54804F"/>
<path d="M157.655 25.397C164.902 24.7247 170.541 21.6357 170.25 18.4975C169.958 15.3593 163.847 13.3604 156.6 14.0327C149.353 14.705 143.714 17.794 144.005 20.9322C144.296 24.0703 150.407 26.0693 157.655 25.397Z" fill="#54804F"/>
<path d="M140.054 26.9652C144.573 26.5459 148.073 24.4308 147.869 22.241C147.666 20.0512 143.838 18.6159 139.318 19.0351C134.799 19.4544 131.299 21.5695 131.503 23.7593C131.706 25.9492 135.534 27.3845 140.054 26.9652Z" fill="#54804F"/>
<path d="M178.795 22.2618C187.849 21.4218 194.962 18.2914 194.682 15.2698C194.402 12.2482 186.834 10.4797 177.78 11.3197C168.725 12.1596 161.612 15.29 161.892 18.3116C162.173 21.3332 169.74 23.1017 178.795 22.2618Z" fill="#54804F"/>
<path d="M194.588 22.0548C198.945 21.6506 202.311 19.5288 202.105 17.3156C201.9 15.1024 198.201 13.6359 193.844 14.0401C189.487 14.4443 186.122 16.5661 186.327 18.7793C186.532 20.9925 190.231 22.459 194.588 22.0548Z" fill="#54804F"/>
<path d="M183.833 26.6899C188.283 26.2772 191.736 24.2907 191.547 22.2529C191.358 20.2152 187.598 18.8978 183.149 19.3106C178.7 19.7233 175.247 21.7098 175.436 23.7475C175.625 25.7853 179.384 27.1026 183.833 26.6899Z" fill="#54804F"/>
<path d="M78.7407 34.3241C82.8433 33.9436 86.0218 32.0471 85.8401 30.0884C85.6584 28.1296 82.1853 26.8502 78.0827 27.2308C73.9801 27.6114 70.8016 29.5078 70.9833 31.4666C71.165 33.4254 74.6381 34.7047 78.7407 34.3241Z" fill="#54804F"/>
<path d="M91.6569 34.1599C97.1317 33.652 101.363 31.0127 101.108 28.2648C100.853 25.5168 96.2086 23.7009 90.7338 24.2088C85.259 24.7167 81.0275 27.3561 81.2824 30.104C81.5373 32.8519 86.1821 34.6678 91.6569 34.1599Z" fill="#54804F"/>
<path d="M91.9027 36.8086C94.6991 36.5492 96.8657 35.2565 96.7419 33.9213C96.618 32.5862 94.2506 31.7141 91.4541 31.9735C88.6576 32.2329 86.491 33.5256 86.6149 34.8608C86.7388 36.196 89.1062 37.068 91.9027 36.8086Z" fill="#54804F"/>
<path d="M119.262 29.481C126.909 28.7716 132.885 25.7842 132.609 22.8085C132.333 19.8329 125.91 17.9957 118.263 18.7051C110.615 19.4145 104.64 22.4019 104.916 25.3776C105.192 28.3533 111.615 30.1904 119.262 29.481Z" fill="#54804F"/>
<path d="M105.094 31.4668C110.046 31.0074 113.906 28.975 113.716 26.9273C113.526 24.8796 109.358 23.5919 104.406 24.0513C99.4541 24.5107 95.5939 26.5431 95.7839 28.5908C95.9739 30.6385 100.142 31.9262 105.094 31.4668Z" fill="#54804F"/>
<path d="M130.232 30.9313C135.697 30.4244 139.97 28.3267 139.777 26.246C139.584 24.1653 134.998 22.8894 129.533 23.3964C124.069 23.9033 119.796 26.001 119.989 28.0817C120.182 30.1624 124.768 31.4382 130.232 30.9313Z" fill="#54804F"/>
<path d="M114.356 33.8272C117.792 33.5084 120.47 32.0983 120.338 30.6775C120.206 29.2567 117.314 28.3633 113.879 28.6821C110.443 29.0008 107.765 30.4109 107.896 31.8317C108.028 33.2525 110.92 34.1459 114.356 33.8272Z" fill="#54804F"/>
<path d="M209.794 16.8857C210.026 15.0515 206.21 13.0587 201.272 12.4346C196.334 11.8105 192.142 12.7914 191.91 14.6255C191.679 16.4597 195.494 18.4525 200.432 19.0766C205.371 19.7007 209.562 18.7198 209.794 16.8857Z" fill="#54804F"/>
<path d="M26.6011 50.8249C28.0446 50.8249 29.2148 49.6547 29.2148 48.2112C29.2148 46.7676 28.0446 45.5974 26.6011 45.5974C25.1575 45.5974 23.9873 46.7676 23.9873 48.2112C23.9873 49.6547 25.1575 50.8249 26.6011 50.8249Z" fill="#54804F"/>
<path d="M23.9984 48.4526L29.2036 47.9697L27.944 34.3912L22.7388 34.874L23.9984 48.4526Z" fill="#54804F"/>
<path d="M303.396 25.1479C304.84 25.1479 306.01 23.9777 306.01 22.5342C306.01 21.0906 304.84 19.9204 303.396 19.9204C301.952 19.9204 300.782 21.0906 300.782 22.5342C300.782 23.9777 301.952 25.1479 303.396 25.1479Z" fill="#54804F"/>
<path d="M300.788 22.7178L306.003 22.3505L305.045 8.74731L299.83 9.11468L300.788 22.7178Z" fill="#54804F"/>
<path d="M110.563 46.0338C112.007 46.0338 113.177 44.8636 113.177 43.42C113.177 41.9765 112.007 40.8063 110.563 40.8063C109.119 40.8063 107.949 41.9765 107.949 43.42C107.949 44.8636 109.119 46.0338 110.563 46.0338Z" fill="#54804F"/>
<path d="M107.96 43.6615L113.166 43.1786L111.906 29.6L106.701 30.0829L107.96 43.6615Z" fill="#54804F"/>
<path d="M121.763 40.651C123.206 40.651 124.376 39.4808 124.376 38.0372C124.376 36.5937 123.206 35.4235 121.763 35.4235C120.319 35.4235 119.149 36.5937 119.149 38.0372C119.149 39.4808 120.319 40.651 121.763 40.651Z" fill="#54804F"/>
<path d="M119.16 38.2788L124.365 37.7959L123.106 24.2173L117.9 24.7002L119.16 38.2788Z" fill="#54804F"/>
<path d="M163.631 36.5229C165.075 36.5229 166.245 35.3527 166.245 33.9092C166.245 32.4656 165.075 31.2954 163.631 31.2954C162.188 31.2954 161.018 32.4656 161.018 33.9092C161.018 35.3527 162.188 36.5229 163.631 36.5229Z" fill="#54804F"/>
<path d="M161.029 34.1506L166.234 33.6677L164.974 20.0892L159.769 20.572L161.029 34.1506Z" fill="#54804F"/>
<path d="M180.884 18.1199C185.458 17.9215 189.116 16.6377 189.056 15.2525C188.996 13.8673 185.24 12.9053 180.666 13.1038C176.092 13.3022 172.433 14.586 172.494 15.9712C172.554 17.3564 176.31 18.3184 180.884 18.1199Z" fill="#4D9859"/>
<path d="M155.238 20.9368C158.606 20.3132 161.146 18.779 160.911 17.51C160.677 16.241 157.756 15.7178 154.387 16.3414C151.019 16.965 148.479 18.4992 148.714 19.7681C148.949 21.0371 151.87 21.5603 155.238 20.9368Z" fill="#4D9859"/>
<path d="M121.884 25.498C125.733 25.331 128.8 23.9579 128.734 22.4311C128.668 20.9044 125.494 19.8021 121.644 19.9692C117.794 20.1362 114.728 21.5093 114.794 23.036C114.86 24.5628 118.034 25.6651 121.884 25.498Z" fill="#4D9859"/>
<path d="M89.2175 29.1999C91.4656 28.9914 93.2166 28.0529 93.1285 27.1037C93.0405 26.1545 91.1467 25.5541 88.8986 25.7626C86.6506 25.9712 84.8995 26.9097 84.9876 27.8589C85.0756 28.8081 86.9694 29.4085 89.2175 29.1999Z" fill="#4D9859"/>
<path d="M39.5524 33.2762C42.2053 33.0301 44.2717 31.9226 44.1678 30.8025C44.0639 29.6823 41.829 28.9738 39.1761 29.2199C36.5232 29.466 34.4568 30.5736 34.5607 31.6937C34.6646 32.8138 36.8995 33.5223 39.5524 33.2762Z" fill="#4D9859"/>
<path d="M14.3323 35.9872C17.8494 35.8373 20.6563 34.6746 20.6015 33.3904C20.5467 32.1061 17.6511 31.1866 14.134 31.3365C10.6168 31.4865 7.81001 32.6491 7.86476 33.9334C7.91952 35.2176 10.8151 36.1372 14.3323 35.9872Z" fill="#4D9859"/>
<path d="M314.112 4.80698C316.522 4.70241 318.442 3.83845 318.4 2.87728C318.359 1.91611 316.371 1.2217 313.961 1.32628C311.551 1.43085 309.631 2.29481 309.673 3.25598C309.715 4.21715 311.702 4.91156 314.112 4.80698Z" fill="#4D9859"/>
<path d="M290.632 5.25446C292.99 4.82932 294.785 3.84144 294.642 3.04798C294.498 2.25452 292.471 1.95594 290.114 2.38108C287.757 2.80623 285.962 3.79411 286.105 4.58757C286.248 5.38103 288.275 5.67961 290.632 5.25446Z" fill="#4D9859"/>
<g opacity="0.5">
<path d="M146.09 41.5862C146.517 41.5862 146.864 41.2397 146.864 40.8123C146.864 40.3848 146.517 40.0383 146.09 40.0383C145.662 40.0383 145.316 40.3848 145.316 40.8123C145.316 41.2397 145.662 41.5862 146.09 41.5862Z" stroke="#4B4133" stroke-width="0.449359" stroke-linecap="round" stroke-linejoin="round"/>
<path d="M144.312 39.4833L147.274 38.9349" stroke="#4B4133" stroke-width="0.449359" stroke-linecap="round" stroke-linejoin="round"/>
<path d="M144.905 42.6897L147.867 42.1414" stroke="#4B4133" stroke-width="0.449359" stroke-linecap="round" stroke-linejoin="round"/>
</g>
<g opacity="0.5">
<path d="M150.58 41.4922C150.291 40.4091 150.508 39.339 151.186 38.7513C151.299 38.6535 151.733 38.2775 152.378 38.2716C153.106 38.2649 153.587 38.7343 153.679 38.8239C154.304 39.4332 154.451 40.4854 154.073 41.4922" stroke="#4B4133" stroke-width="0.449359" stroke-miterlimit="10" stroke-linecap="round"/>
<path d="M152.443 40.9768C152.871 40.9768 153.217 40.6303 153.217 40.2029C153.217 39.7755 152.871 39.429 152.443 39.429C152.016 39.429 151.669 39.7755 151.669 40.2029C151.669 40.6303 152.016 40.9768 152.443 40.9768Z" stroke="#4B4133" stroke-width="0.449359" stroke-linecap="round" stroke-linejoin="round"/>
</g>
<g opacity="0.5">
<path d="M157.128 39.8677C157.203 39.937 158.043 40.6836 159.061 40.4177C159.221 40.3758 159.772 40.2228 160.107 39.6778C160.389 39.2184 160.427 38.6299 160.204 38.1466C159.902 37.4906 159.149 37.0967 158.353 37.2027" stroke="#4B4133" stroke-width="0.449359" stroke-linecap="round" stroke-linejoin="round"/>
<path d="M160.107 39.6777L161.088 40.2514" stroke="#4B4133" stroke-width="0.449359" stroke-linecap="round" stroke-linejoin="round"/>
</g>
<g opacity="0.5">
<path d="M167.612 39.9279L166.899 37.001" stroke="#4B4133" stroke-width="0.449359" stroke-linecap="round" stroke-linejoin="round"/>
<path d="M163.944 37.9299L167.237 38.39L164.561 40.4617L163.944 37.9299Z" stroke="#4B4133" stroke-width="0.449359" stroke-linecap="round" stroke-linejoin="round"/>
</g>
<g opacity="0.5">
<path d="M169.59 37.93L172.439 36.9517" stroke="#4B4133" stroke-width="0.449359" stroke-linecap="round" stroke-linejoin="round"/>
<path d="M170.987 37.3619L170.009 34.5127" stroke="#4B4133" stroke-width="0.449359" stroke-linecap="round" stroke-linejoin="round"/>
<path d="M169.279 36.6603L171.524 34.6516" stroke="#4B4133" stroke-width="0.449359" stroke-linecap="round" stroke-linejoin="round"/>
</g>
<g opacity="0.5">
<path d="M175.951 37.1622V34.1497" stroke="#4B4133" stroke-width="0.449359" stroke-linecap="round" stroke-linejoin="round"/>
<path d="M174.696 36.5727L177.086 34.739" stroke="#4B4133" stroke-width="0.449359" stroke-linecap="round" stroke-linejoin="round"/>
<path d="M177.078 36.6856L174.824 34.6876" stroke="#4B4133" stroke-width="0.449359" stroke-linecap="round" stroke-linejoin="round"/>
</g>
<g opacity="0.5">
<path d="M230.923 34.398C231.351 34.398 231.697 34.0515 231.697 33.624C231.697 33.1966 231.351 32.8501 230.923 32.8501C230.496 32.8501 230.149 33.1966 230.149 33.624C230.149 34.0515 230.496 34.398 230.923 34.398Z" stroke="#4B4133" stroke-width="0.449359" stroke-linecap="round" stroke-linejoin="round"/>
<path d="M229.39 35.3624L228.968 32.3796" stroke="#4B4133" stroke-width="0.449359" stroke-linecap="round" stroke-linejoin="round"/>
</g>
<g opacity="0.5">
<path d="M233.812 33.2786L235.885 34.0096" stroke="#4B4133" stroke-width="0.449359" stroke-linecap="round" stroke-linejoin="round"/>
<path d="M233.69 32.2801C234.063 31.6652 234.808 31.3812 235.487 31.5911C236.144 31.7947 236.594 32.4183 236.582 33.115C236.103 33.1811 235.444 33.3262 234.722 33.6643C234.171 33.9225 233.737 34.2212 233.416 34.479C233.672 35.1851 234.295 35.6739 234.997 35.7216C235.805 35.7765 236.346 35.2224 236.422 35.1411" stroke="#4B4133" stroke-width="0.449359" stroke-linecap="round" stroke-linejoin="round"/>
</g>
<path d="M30.7725 38.6676C30.7725 38.6676 31.4813 42.0952 30.5233 42.7358C29.1204 43.6739 26.2417 41.7858 26.531 40.6569C26.8204 39.528 29.629 37.9985 29.629 37.9985L30.7725 38.6676Z" fill="#773A79"/>
<path d="M29.3683 38.1348C29.3683 38.1348 26.3275 39.8681 25.4221 39.1549C24.0964 38.1106 25.0026 34.7893 26.1656 34.7157C27.3287 34.642 29.6512 36.8405 29.6512 36.8405L29.3683 38.1348Z" fill="#773A79"/>
<path d="M29.4408 36.6349C29.4408 36.6349 26.8527 34.2786 27.2512 33.1971C27.8347 31.6136 31.2735 31.4491 31.7029 32.5325C32.1324 33.6159 30.7592 36.504 30.7592 36.504L29.4408 36.6349Z" fill="#773A79"/>
<path d="M30.8901 36.2406C30.8901 36.2406 32.3314 33.051 33.483 33.0958C35.1694 33.1614 36.3885 36.3811 35.4908 37.1243C34.5932 37.8675 31.422 37.454 31.422 37.454L30.8901 36.2406Z" fill="#773A79"/>
<path d="M31.7133 37.4966C31.7133 37.4966 35.1922 37.8816 35.5054 38.9908C35.9641 40.6149 33.2788 42.7692 32.2945 42.1452C31.3103 41.5211 30.7236 38.3774 30.7236 38.3774L31.7133 37.4966Z" fill="#773A79"/>
<path d="M29.4438 33.0066C29.6762 33.3644 30.315 34.244 31.5202 34.7797C32.7562 35.3291 33.8652 35.1956 34.2835 35.1237C34.1074 35.2547 33.0072 36.1016 32.8814 37.6089C32.7834 38.7834 33.3374 39.6331 33.5068 39.8736C33.1416 39.736 32.2757 39.4668 31.2032 39.683C29.8683 39.952 29.0823 40.798 28.8434 41.077C28.858 40.695 28.8459 39.6749 28.1885 38.6421C27.4204 37.4355 26.2802 37.0108 25.9419 36.8985C26.2554 36.861 27.4357 36.6823 28.3877 35.6544C29.3883 34.5738 29.4397 33.3077 29.4438 33.0066Z" fill="#9A4D89"/>
<path d="M30.3535 38.7231C31.1452 38.7231 31.7871 38.0813 31.7871 37.2895C31.7871 36.4978 31.1452 35.856 30.3535 35.856C29.5618 35.856 28.9199 36.4978 28.9199 37.2895C28.9199 38.0813 29.5618 38.7231 30.3535 38.7231Z" fill="#BD62B2"/>
<path d="M184.755 27.2918C184.755 27.2918 185.453 30.7217 184.493 31.3592C183.087 32.2927 180.214 30.3952 180.507 29.2672C180.8 28.1393 183.614 26.619 183.614 26.619L184.755 27.2918Z" fill="#454CA6"/>
<path d="M183.352 26.7544C183.352 26.7544 180.306 28.4778 179.403 27.7617C178.081 26.713 178.998 23.3947 180.161 23.3249C181.324 23.255 183.639 25.4611 183.639 25.4611L183.352 26.7544Z" fill="#454CA6"/>
<path d="M183.43 25.2548C183.43 25.2548 180.849 22.8901 181.252 21.8099C181.84 20.2283 185.28 20.075 185.705 21.1598C186.131 22.2445 184.749 25.1282 184.749 25.1282L183.43 25.2548Z" fill="#454CA6"/>
<path d="M184.88 24.8652C184.88 24.8652 186.332 21.6802 187.484 21.7288C189.17 21.8 190.378 25.0236 189.478 25.7638C188.578 26.5041 185.408 26.0803 185.408 26.0803L184.88 24.8652Z" fill="#454CA6"/>
<path d="M185.699 26.124C185.699 26.124 189.177 26.5204 189.486 27.6306C189.94 29.2562 187.247 31.4017 186.265 30.7745C185.283 30.1472 184.707 27.0016 184.707 27.0016L185.699 26.124Z" fill="#454CA6"/>
<path d="M183.444 21.6266C183.675 21.9851 184.311 22.8668 185.515 23.4065C186.749 23.9599 187.858 23.83 188.277 23.7595C188.101 23.8898 186.998 24.7332 186.867 26.2401C186.765 27.4142 187.316 28.2658 187.485 28.5068C187.12 28.368 186.255 28.096 185.182 28.3086C183.846 28.5734 183.057 29.4168 182.818 29.695C182.833 29.3131 182.825 28.2929 182.171 27.258C181.406 26.0489 180.268 25.6204 179.93 25.5071C180.243 25.4706 181.424 25.2958 182.38 24.2709C183.384 23.1936 183.439 21.9277 183.444 21.6266Z" fill="#3D7BC0"/>
<path d="M184.34 27.346C185.132 27.346 185.774 26.7042 185.774 25.9125C185.774 25.1207 185.132 24.4789 184.34 24.4789C183.549 24.4789 182.907 25.1207 182.907 25.9125C182.907 26.7042 183.549 27.346 184.34 27.346Z" fill="#6CC0E5"/>
<path d="M196.666 23.5855C196.666 23.5855 196.411 27.6921 195.126 28.1227C193.245 28.7531 190.564 25.722 191.241 24.5311C191.918 23.3401 195.576 22.4734 195.576 22.4734L196.666 23.5855Z" fill="#773A79"/>
<path d="M195.238 22.5475C195.238 22.5475 191.254 23.5737 190.447 22.485C189.266 20.8909 191.321 17.404 192.662 17.6799C194.004 17.9558 195.959 21.167 195.959 21.167L195.238 22.5475Z" fill="#773A79"/>
<path d="M195.784 20.8689C195.784 20.8689 193.577 17.3965 194.363 16.2931C195.514 14.6774 199.465 15.5535 199.618 16.915C199.77 18.2765 197.32 21.1278 197.32 21.1278L195.784 20.8689Z" fill="#773A79"/>
<path d="M197.55 20.8694C197.55 20.8694 200.17 17.6972 201.462 18.1039C203.355 18.6995 203.743 22.7278 202.495 23.2934C201.247 23.8589 197.778 22.41 197.778 22.41L197.55 20.8694Z" fill="#773A79"/>
<path d="M198.095 22.5482C198.095 22.5482 201.922 24.06 201.934 25.4148C201.953 27.3985 198.241 29.0121 197.318 28.0002C196.394 26.9882 196.7 23.2414 196.7 23.2414L198.095 22.5482Z" fill="#773A79"/>
<path d="M196.909 16.7545C197.062 17.2321 197.515 18.4272 198.716 19.4072C199.948 20.4122 201.247 20.6035 201.744 20.6513C201.504 20.7454 199.994 21.366 199.385 23.0367C198.911 24.3384 199.277 25.4734 199.395 25.7984C199.023 25.5295 198.124 24.9566 196.841 24.8704C195.244 24.7631 194.091 25.4796 193.734 25.7223C193.868 25.2935 194.17 24.1328 193.744 22.7583C193.245 21.1524 192.083 20.3183 191.734 20.0865C192.102 20.1409 193.495 20.3029 194.893 19.4312C196.362 18.5149 196.811 17.0947 196.909 16.7545Z" fill="#9A4D89"/>
<path d="M196.617 23.5785C197.548 23.5785 198.303 22.8241 198.303 21.8933C198.303 20.9626 197.548 20.2081 196.617 20.2081C195.687 20.2081 194.932 20.9626 194.932 21.8933C194.932 22.8241 195.687 23.5785 196.617 23.5785Z" fill="#BD62B2"/>
<path d="M294.425 10.0781C294.425 10.0781 291.165 10.2062 290.722 9.22734C290.074 7.79402 292.25 5.4355 293.244 5.87409C294.238 6.31267 295.215 9.1289 295.215 9.1289L294.425 10.0781Z" fill="#773A79"/>
<path d="M295.13 8.8686C295.13 8.8686 294.001 5.80766 294.795 5.08414C295.958 4.02471 298.873 5.36547 298.763 6.44619C298.653 7.5269 296.277 9.32651 296.277 9.32651L295.13 8.8686Z" fill="#773A79"/>
<path d="M296.497 9.16468C296.497 9.16468 299.059 7.14487 299.993 7.67657C301.36 8.45512 300.986 11.6423 299.924 11.8716C298.862 12.1009 296.416 10.3969 296.416 10.3969L296.497 9.16468Z" fill="#773A79"/>
<path d="M296.638 10.5571C296.638 10.5571 299.351 12.3698 299.133 13.4219C298.815 14.9625 295.669 15.5915 295.122 14.6525C294.576 13.7135 295.441 10.8608 295.441 10.8608L296.638 10.5571Z" fill="#773A79"/>
<path d="M295.358 11.1219C295.358 11.1219 294.472 14.2619 293.404 14.3805C291.841 14.5541 290.27 11.7557 290.994 10.946C291.718 10.1364 294.699 10.0773 294.699 10.0773L295.358 11.1219Z" fill="#773A79"/>
<path d="M299.833 9.72154C299.469 9.8805 298.562 10.3335 297.885 11.3598C297.191 12.4124 297.145 13.4526 297.147 13.8482C297.053 13.6662 296.443 12.5252 295.076 12.1792C294.011 11.9096 293.145 12.2892 292.898 12.4082C293.08 12.0934 293.46 11.3383 293.425 10.3191C293.382 9.05052 292.724 8.19852 292.504 7.93624C292.853 8.00798 293.793 8.15276 294.843 7.70609C296.07 7.18424 296.635 6.2007 296.789 5.90674C296.776 6.20078 296.76 7.31336 297.56 8.3458C298.4 9.43099 299.557 9.67172 299.833 9.72154Z" fill="#9A4D89"/>
<path d="M295.756 11.2399C296.494 11.2399 297.092 10.6417 297.092 9.90366C297.092 9.16566 296.494 8.56738 295.756 8.56738C295.018 8.56738 294.42 9.16566 294.42 9.90366C294.42 10.6417 295.018 11.2399 295.756 11.2399Z" fill="#BD62B2"/>
<path d="M132.032 21.202C132.032 21.202 132.037 23.9823 131.19 24.3283C129.948 24.8348 128.009 22.9069 128.414 22.0745C128.819 21.2421 131.248 20.4993 131.248 20.4993L132.032 21.202Z" fill="#454CA6"/>
<path d="M131.024 20.5638C131.024 20.5638 128.381 21.4283 127.79 20.7291C126.925 19.7053 128.159 17.265 129.076 17.3929C129.993 17.5209 131.45 19.6016 131.45 19.6016L131.024 20.5638Z" fill="#454CA6"/>
<path d="M131.319 19.4082C131.319 19.4082 129.68 17.1623 130.163 16.3842C130.869 15.2448 133.571 15.6645 133.733 16.576C133.894 17.4875 132.366 19.5163 132.366 19.5163L131.319 19.4082Z" fill="#454CA6"/>
<path d="M132.51 19.3322C132.51 19.3322 134.139 17.0795 135.028 17.2979C136.33 17.6175 136.766 20.3172 135.949 20.7526C135.132 21.188 132.73 20.3611 132.73 20.3611L132.51 19.3322Z" fill="#454CA6"/>
<path d="M132.95 20.4407C132.95 20.4407 135.596 21.2944 135.663 22.2075C135.761 23.5444 133.328 24.7932 132.662 24.1508C131.995 23.5084 132.039 20.9685 132.039 20.9685L132.95 20.4407Z" fill="#454CA6"/>
<path d="M131.9 16.5851C132.024 16.9005 132.381 17.6868 133.233 18.2956C134.108 18.92 134.992 18.9928 135.329 19.0035C135.171 19.0773 134.18 19.5612 133.842 20.7142C133.578 21.6125 133.874 22.362 133.968 22.5761C133.706 22.4109 133.075 22.0634 132.206 22.0609C131.124 22.0576 130.377 22.5908 130.147 22.7698C130.219 22.4749 130.372 21.6791 130.025 20.7707C129.62 19.7094 128.8 19.1972 128.555 19.056C128.805 19.0768 129.752 19.1257 130.656 18.4773C131.607 17.7959 131.849 16.8187 131.9 16.5851Z" fill="#3D7BC0"/>
<path d="M131.926 21.2018C132.555 21.2018 133.065 20.692 133.065 20.0631C133.065 19.4341 132.555 18.9243 131.926 18.9243C131.297 18.9243 130.787 19.4341 130.787 20.0631C130.787 20.692 131.297 21.2018 131.926 21.2018Z" fill="#6CC0E5"/>
<defs>
<linearGradient id="paint0_linear_113_438" x1="155.844" y1="4.95877" x2="161.36" y2="55.341" gradientUnits="userSpaceOnUse">
<stop stop-color="#7F6F57" stop-opacity="0"/>
<stop offset="1" stop-color="#443A2F"/>
</linearGradient>
<linearGradient id="paint1_linear_113_438" x1="66.3247" y1="41.4219" x2="66.3247" y2="58.5129" gradientUnits="userSpaceOnUse">
<stop stop-color="#4B4133"/>
<stop offset="1" stop-color="#241F17"/>
</linearGradient>
</defs>
</svg>
