<svg width="1440" height="348" viewBox="0 0 1440 348" fill="none" xmlns="http://www.w3.org/2000/svg">
<path d="M1094.06 174.345C1084.85 180.963 1064.82 175.269 1058.68 163.971C1053.7 154.849 1061.03 148.142 1056.8 138.453C1056.68 138.215 1056.59 138.006 1056.47 137.768C1055.04 134.846 1053.07 132.789 1050.81 131.21C1047.2 128.676 1042.76 127.364 1038.23 125.516C1034.05 123.816 1029.82 121.67 1026.13 117.795C1026.01 117.676 1025.89 117.527 1025.77 117.407C1022.97 114.307 1020.28 109.895 1018.79 103.486C1017.36 97.3151 1017 89.2366 1018.61 78.6242C1025.17 77.3722 1031.76 76.0902 1038.32 74.8083C1039.3 81.0089 1041.36 88.9384 1046.22 95.7949C1047.83 98.0603 1049.76 100.237 1052.06 102.174C1059.66 108.583 1066.67 108.583 1073.76 110.253C1077.1 111.058 1080.44 112.22 1083.9 114.635C1086.97 116.781 1089.62 119.583 1091.89 122.803C1093.41 124.89 1094.75 127.185 1095.88 129.6C1097.7 133.356 1099.07 137.41 1100.02 141.524C1103.13 155.117 1101.37 169.098 1094.06 174.345Z" fill="#94AE9B"/>
<path d="M1145.15 71.5171C1144.37 71.9097 1144.69 73.5789 1145.15 77.818C1145.85 84.3581 1146.65 91.7444 1146.18 97.1725C1145.28 107.763 1139.36 113.381 1141.77 115.472C1143.17 116.69 1145.09 114.7 1150.16 115.629C1151.04 115.788 1153.15 116.076 1155.74 115.549C1156.04 115.488 1156.34 115.39 1156.7 115.233C1161.97 112.961 1162.83 99.5213 1158.81 88.6829C1155.12 78.7193 1147.16 70.5201 1145.15 71.5171Z" fill="#94AE9B"/>
<path d="M1132.01 64.0146C1131.37 64.7766 1123.41 74.4603 1126.3 81.152C1127.22 83.272 1129.67 86.1246 1131.56 85.7753C1132.8 85.5446 1133.51 83.9738 1134.63 84.4417C1135.28 84.7083 1135.39 85.3617 1135.94 86.0224C1137.11 87.4372 1138.63 86.9335 1142.66 86.8437C1147.21 86.7422 1147.7 87.2959 1149.02 86.4162C1150.39 85.5107 1150.56 84.4456 1151.94 84.1906C1153.16 83.9667 1153.69 84.6679 1155.33 85.1197C1157.21 85.636 1158.6 85.2924 1161.08 84.6811C1163.26 84.1433 1164.58 83.7303 1165.81 82.3767C1167.05 81.0244 1166.82 79.9818 1167.98 79.3115C1169.48 78.446 1170.58 79.6238 1171.8 78.8433C1173.34 77.8649 1173.39 74.8615 1173.4 74.403C1173.51 67.792 1164.72 61.5978 1163.44 60.691C1161.65 59.4273 1155.33 55.0963 1147.04 55.8984C1145.1 56.0863 1137.82 57.059 1132.01 64.0146Z" fill="#3E816F"/>
<path d="M1196.93 33.9424C1197.61 34.4141 1197.33 36.4194 1196.94 41.512C1196.34 49.3691 1195.65 58.2428 1196.05 64.764C1196.83 77.487 1201.9 84.2357 1199.83 86.7487C1198.63 88.2117 1196.99 85.821 1192.64 86.9367C1191.9 87.128 1190.08 87.474 1187.87 86.8404C1187.61 86.7677 1187.36 86.6493 1187.05 86.461C1182.54 83.7313 1181.8 67.5857 1185.24 54.5647C1188.4 42.5948 1195.22 32.7446 1196.93 33.9424Z" fill="#94AE9B"/>
<path d="M1207.46 28.2601C1208.03 29.085 1215.21 39.5663 1212.88 46.6482C1212.13 48.8918 1210.08 51.8877 1208.44 51.479C1207.35 51.2091 1206.69 49.5202 1205.72 49.9977C1205.17 50.2698 1205.09 50.9645 1204.63 51.6587C1203.66 53.1454 1202.32 52.5789 1198.81 52.4061C1194.85 52.2107 1194.45 52.792 1193.27 51.8283C1192.06 50.8364 1191.89 49.6971 1190.67 49.3986C1189.61 49.1365 1189.17 49.8743 1187.76 50.3248C1186.14 50.8395 1184.92 50.4464 1182.75 49.7469C1180.83 49.1315 1179.68 48.6659 1178.57 47.1985C1177.46 45.7325 1177.64 44.6248 1176.61 43.8877C1175.28 42.9358 1174.36 44.1709 1173.27 43.3151C1171.91 42.2421 1171.79 39.0377 1171.77 38.5485C1171.49 31.4949 1178.96 25.0563 1180.05 24.1136C1181.58 22.8001 1186.95 18.3014 1194.17 19.3155C1195.87 19.5532 1202.22 20.73 1207.46 28.2601Z" fill="#255A54"/>
<path d="M929.067 223.029L1117.09 253.921L1126.11 241.871L1085.59 233.35L1022.28 207.05L929.067 223.029Z" fill="#4B4133"/>
<path d="M177.861 168.315L292.742 116.985L418.622 75.4324L528.614 47.3232L539.614 58.9336L454.675 86.4316L311.074 152.427L177.861 168.315Z" fill="#5E533B"/>
<path d="M1440 16.2817V187.402L1007.28 216.712L580.06 267.202L0 347.012V166.232L371.66 128.772L908.29 68.2817L950.85 75.1818L976.92 79.4017L985.63 98.3618L1004.99 93.4418L1025.52 109.692L1035.06 117.252L1052.02 105.802L1070.3 93.4518L1104.14 94.9017L1113.09 83.8818L1136.19 97.4017L1155.9 108.942L1166.5 95.0917L1177.92 80.1718L1203.92 62.7418L1230.74 59.8118L1235.9 51.7018L1243.37 39.9617L1267.78 29.1617L1440 16.2817Z" fill="#7F6F58"/>
<path d="M1440 56.2717V129.392C1420.59 133.202 1393.16 131.252 1356.03 131.172C1356.03 131.172 1286.75 131.022 1188.97 143.102C1097.51 154.402 1099.7 167.132 1037.82 168.562C970.36 170.122 958.58 155.192 894.63 156.632C839.57 157.872 834.78 169.262 751.44 185.272C597.03 214.922 569.27 184.312 477.78 224.252C442.71 239.562 427.33 252.552 385.5 262.432C352.84 270.152 332.12 269.332 255.83 267.202C101.35 262.902 93.4 263.662 80.03 266.412C45.89 273.432 19.61 284.562 0 292.242V230.202C20.91 228.692 49.2 233.962 91.96 228.222C100.81 227.042 99.96 226.762 189.81 200.382C285.85 172.182 295.39 169.982 311.52 169.362C359.89 167.482 368.17 183.632 423.69 192.432C474.34 200.452 516.32 192.472 600.29 176.522C707.7 156.112 710.12 141.682 779.28 136.742C840.29 132.382 835.63 143.802 921.68 142.312C984.78 141.222 989.22 135.042 1095.88 127.602C1199.81 120.342 1191.72 126.472 1225.56 119.242C1241.38 115.862 1255.23 111.942 1383.87 71.5118C1407.95 63.9418 1426.21 58.1918 1440 56.2717Z" fill="#6C6146"/>
<path d="M1010.22 77.608C1011.06 78.8169 1012.52 80.401 1014.88 80.925C1017.98 81.6118 1019.75 79.8357 1022.85 80.5766C1026.15 81.3622 1025.95 83.7865 1028.72 84.0649C1031.58 84.3513 1032.72 81.878 1036.07 82.1233C1038.19 82.2788 1038.57 83.3322 1040.79 83.684C1043.5 84.1118 1046.09 83.0495 1047.78 82.1369C1046.83 79.4929 1045.94 76.5946 1045.2 73.461C1044.32 69.7034 1043.8 66.1947 1043.51 63.0024C1035.98 62.3064 1028.42 61.5891 1020.89 60.8708C1020.66 62.8588 1020.04 65.5806 1018.4 68.5911C1015.99 72.9913 1012.5 75.953 1010.22 77.608Z" fill="#6D7F71"/>
<path d="M1080.96 22.9378C1092.8 32.6783 1107.82 51.6965 1102.26 64.09C1099.99 69.145 1093.28 75.9202 1087.5 75.0424C1083.69 74.4624 1081.18 70.6866 1077.89 71.782C1076.02 72.406 1075.82 73.9677 1074.33 75.5372C1071.14 78.8986 1066.42 77.6589 1054.24 77.3553C1040.46 77.0119 1039.14 78.3268 1034.92 76.1915C1030.58 73.9936 1029.83 71.4401 1025.57 70.7992C1021.84 70.2363 1020.42 71.9034 1015.57 72.9487C1010.02 74.1433 1005.73 73.2901 998.099 71.7719C990.05 70.1709 986.036 69.3185 983.266 66.1511C981.052 63.6202 981.124 61.5988 978.386 59.9931C974.9 57.9485 972.254 59.743 969.581 58.4574C964.905 56.2087 964.631 46.746 965.171 42.4205C967.438 24.2662 994.507 13.5431 1000.07 11.4847C1024.35 2.50882 1057.63 3.75616 1080.96 22.9378Z" fill="#255A54"/>
<path d="M1033.49 45.9175C1037.87 40.4464 1038.77 33.898 1035.52 31.2913C1032.26 28.6846 1026.07 31.0066 1021.69 36.4777C1017.31 41.9488 1016.41 48.4972 1019.67 51.1039C1022.93 53.7106 1029.11 51.3886 1033.49 45.9175Z" fill="#2C6D53"/>
<path d="M1006.13 50.4361C1010.17 42.9285 1009.1 34.5097 1003.76 31.632C998.406 28.7543 990.796 32.5076 986.757 40.0152C982.718 47.5228 983.78 55.9417 989.129 58.8194C994.478 61.697 1002.09 57.9437 1006.13 50.4361Z" fill="#2C6D53"/>
<path d="M1084.07 39.522C1086.19 37.1632 1085.04 32.6944 1081.52 29.5407C1078 26.387 1073.43 25.7427 1071.32 28.1015C1069.21 30.4604 1070.35 34.9291 1073.87 38.0828C1077.4 41.2365 1081.96 41.8808 1084.07 39.522Z" fill="#2C6D53"/>
<path d="M1095.11 51.2258C1096.53 49.6351 1095.76 46.6216 1093.39 44.4949C1091.01 42.3681 1087.93 41.9335 1086.51 43.5243C1085.08 45.115 1085.85 48.1286 1088.23 50.2553C1090.6 52.3821 1093.68 52.8166 1095.11 51.2258Z" fill="#2C6D53"/>
<path d="M1060.61 18.4482C1061.09 16.105 1058.62 13.6316 1055.1 12.9236C1051.58 12.2156 1048.35 13.5411 1047.88 15.8843C1047.41 18.2274 1049.87 20.7009 1053.39 21.4089C1056.91 22.1169 1060.14 20.7913 1060.61 18.4482Z" fill="#2C6D53"/>
<path d="M986.24 32.9295C988.693 30.8755 989.548 27.8551 988.149 26.1832C986.749 24.5113 983.626 24.821 981.172 26.8751C978.718 28.9291 977.863 31.9496 979.262 33.6215C980.662 35.2934 983.786 34.9835 986.24 32.9295Z" fill="#2C6D53"/>
<path d="M1069.19 69.6475C1071.72 69.0753 1073.17 66.0048 1072.44 62.7893C1071.71 59.5739 1069.08 57.4312 1066.55 58.0034C1064.03 58.5757 1062.58 61.6462 1063.31 64.8616C1064.03 68.077 1066.67 70.2197 1069.19 69.6475Z" fill="#2C6D53"/>
<path d="M1068.42 46.4453C1070.64 45.9134 1071.93 43.3505 1071.3 40.721C1070.67 38.0915 1068.36 36.391 1066.14 36.9229C1063.91 37.4548 1062.62 40.0176 1063.25 42.6472C1063.88 45.2767 1066.19 46.9772 1068.42 46.4453Z" fill="#2C6D53"/>
<path d="M1015.47 28.9895C1020.53 28.0521 1024.24 25.1377 1023.75 22.48C1023.26 19.8223 1018.75 18.4276 1013.69 19.365C1008.63 20.3024 1004.92 23.2168 1005.41 25.8745C1005.9 28.5323 1010.41 29.9269 1015.47 28.9895Z" fill="#2C6D53"/>
<path d="M1025.52 109.692C994.15 114.912 984.52 118.832 939.58 121.642C872.45 125.832 869.78 118.582 783.96 121.622C736.13 123.312 694.26 124.802 640.83 133.902C548.4 149.642 545.9 168.422 481.54 170.772C416.01 173.162 409.02 156.712 337.39 157.322C285.63 157.762 248.15 167.162 172.99 185.052C88.08 205.262 45.4 224.312 0 214.142V177.252C19.62 178.992 42.89 180.662 68 180.432C75.68 180.362 91.89 179.472 112.49 177.402C142.4 174.402 160.25 170.652 197.51 163.732C250.21 153.952 276.56 149.072 292.84 147.442C333.58 143.372 341.57 147.262 380.18 145.202C431.08 142.492 450.68 133.942 499.07 125.372C560.33 114.532 572.26 120.542 670.16 114.262C693.68 112.752 766.78 107.672 847.31 95.5519C895.11 88.3619 926.15 81.4619 950.85 75.1819L976.92 79.4019L985.63 98.3619L1004.99 93.4419L1025.52 109.692Z" fill="#6C6146"/>
<path d="M1113.09 83.8818L1136.19 97.4018C1124.44 98.3118 1110.86 99.4318 1094.73 101.012C1077.49 102.692 1063.58 104.292 1052.02 105.802L1070.3 93.4519L1104.14 94.9018L1113.09 83.8818Z" fill="#7F6F58"/>
<path d="M1440 17.0718V41.3718C1440 41.3718 1426.99 40.6818 1366.17 45.4318C1351.07 46.6118 1336.01 50.7318 1305.88 58.9918C1269.06 69.0817 1246.89 77.7318 1232.06 82.7117C1208.02 90.7817 1191.8 93.0418 1166.5 95.0917L1177.92 80.1718L1203.92 62.7418L1230.74 59.8118L1235.9 51.7018C1247.3 51.2318 1260.48 50.2117 1276.3 48.3818C1344.98 40.4418 1404.26 24.1918 1440 17.0718Z" fill="#6C6146"/>
<path d="M1440 144.602V172.172C1409.82 176.412 1384.51 174.202 1360.07 173.272C1291.04 170.642 1231.86 178.242 1190.5 183.562C1177.3 185.262 1154.29 188.482 1146.85 189.522C1099.96 196.092 1070.18 200.802 1059.3 202.402C1003.89 210.532 976.14 205.902 918.37 208.242C804.34 212.872 810.97 235.022 690.4 241.372C639.37 244.052 612.2 241.452 554.01 250.462C514.57 256.562 500.22 261.912 459.18 271.242C438.05 276.052 339.19 297.972 223.42 304.412C128.95 309.662 123.58 299.022 72.09 312.162C45.02 319.072 19.98 328.782 0 336.732V306.352C26.37 294.362 54.88 292.852 78.69 291.432C122.86 288.792 166.85 283.172 211.08 281.632C325.13 277.672 382.16 275.692 438.4 262.152C497.04 248.032 496.85 238.762 563.3 224.932C625.58 211.962 657.49 205.312 702.09 209.542C748.54 213.942 765.12 226.002 798.83 215.442C817.17 209.692 829.9 200.592 862.44 192.392C877.24 188.662 891.13 186.372 906.34 184.762C967.26 178.322 1037.37 183.912 1051.51 184.862C1116.79 189.252 1121.41 170.882 1229.63 155.132C1310.21 143.412 1389.05 141.762 1440 144.602Z" fill="#6C6146"/>
<path opacity="0.5" d="M1440 16.2817V187.402L1007.28 216.712L580.06 267.202L0 347.012V166.232L371.66 128.772L908.29 68.2817L950.85 75.1818L976.92 79.4017L985.63 98.3618L1004.99 93.4418L1025.52 109.692L1035.06 117.252L1052.02 105.802L1070.3 93.4518L1104.14 94.9017L1113.09 83.8818L1136.19 97.4017L1155.9 108.942L1166.5 95.0917L1177.92 80.1718L1203.92 62.7418L1230.74 59.8118L1235.9 51.7018L1243.37 39.9617L1267.78 29.1617L1440 16.2817Z" fill="url(#paint0_linear_79_437)"/>
<path d="M294.03 184.36C279.994 189.637 265.958 194.914 251.922 200.19C244.752 208.809 237.582 217.428 230.411 226.047L235.446 240.295C242.464 241.702 249.481 243.109 256.499 244.516C263.06 244.34 269.62 244.164 276.18 243.989C279.244 245.745 282.308 247.502 285.372 249.258C288.716 245.391 292.059 241.524 295.403 237.656C297.691 242.933 299.98 248.21 302.268 253.487C306.012 255.801 309.756 258.115 313.5 260.428C318.3 258.115 323.099 255.801 327.899 253.487C334.154 250.321 340.409 247.155 346.664 243.989C348.952 248.914 351.241 253.839 353.529 258.764C361.615 255.246 369.701 251.728 377.787 248.21V225.519C375.804 220.067 373.82 214.614 371.837 209.161C366.039 210.996 360.24 212.832 354.442 214.667C353.527 210.545 352.613 206.423 351.699 202.301C343.55 201.258 335.401 200.216 327.252 199.173C316.178 194.235 305.104 189.297 294.03 184.36Z" fill="url(#paint1_linear_79_437)"/>
<path d="M1356.31 32.3042C1372.97 32.3042 1386.47 26.7777 1386.47 19.9604C1386.47 13.1432 1372.97 7.6167 1356.31 7.6167C1339.66 7.6167 1326.16 13.1432 1326.16 19.9604C1326.16 26.7777 1339.66 32.3042 1356.31 32.3042Z" fill="#54804F"/>
<path d="M1440 7.83172V29.7018C1432.63 33.8218 1421.19 36.4617 1408.36 36.4617C1386.14 36.4617 1368.12 28.5417 1368.12 18.7717C1368.12 8.99176 1386.14 1.07178 1408.36 1.07178C1421.19 1.07178 1432.63 3.71172 1440 7.83172Z" fill="#54804F"/>
<path d="M1373.11 48.8856C1384.47 48.8856 1393.67 44.4919 1393.67 39.0718C1393.67 33.6518 1384.47 29.2581 1373.11 29.2581C1361.76 29.2581 1352.56 33.6518 1352.56 39.0718C1352.56 44.4919 1361.76 48.8856 1373.11 48.8856Z" fill="#54804F"/>
<path d="M156.852 169.631C183.068 167.199 203.614 157.614 202.742 148.221C201.871 138.828 179.913 133.185 153.697 135.617C127.481 138.049 106.935 147.635 107.807 157.028C108.678 166.421 130.637 172.063 156.852 169.631Z" fill="#54804F"/>
<path d="M183.128 155.606C205.526 153.528 223.006 144.547 222.171 135.547C221.336 126.546 202.502 120.935 180.104 123.012C157.706 125.09 140.226 134.071 141.061 143.071C141.896 152.072 160.73 157.683 183.128 155.606Z" fill="#54804F"/>
<path d="M220.56 163.708C236.378 162.241 248.624 154.834 247.912 147.165C247.201 139.496 233.801 134.468 217.984 135.935C202.166 137.403 189.92 144.81 190.631 152.479C191.343 160.148 204.742 165.176 220.56 163.708Z" fill="#54804F"/>
<path d="M67.516 178.59C96.0983 175.938 118.333 163.702 117.179 151.259C116.024 138.816 91.9182 130.878 63.3359 133.53C34.7535 136.181 12.5188 148.418 13.6731 160.861C14.8274 173.304 38.9337 181.241 67.516 178.59Z" fill="#54804F"/>
<path d="M105.122 183.514C120.669 182.071 132.763 175.415 132.135 168.647C131.507 161.879 118.395 157.562 102.848 159.004C87.3014 160.446 75.2072 167.102 75.8351 173.87C76.463 180.638 89.5752 184.956 105.122 183.514Z" fill="#54804F"/>
<path d="M21.41 184.862C13.29 185.612 5.76001 184.952 0 183.252V162.282C5.12 160.002 11.67 158.322 18.89 157.652C36.15 156.052 50.71 160.842 51.4 168.362C52.1 175.872 38.67 183.262 21.41 184.862Z" fill="#54804F"/>
<path d="M1278.14 46.569C1292.8 45.2089 1304.25 39.3852 1303.71 33.5613C1303.17 27.7375 1290.84 24.1189 1276.18 25.479C1261.52 26.8391 1250.07 32.6628 1250.61 38.4867C1251.15 44.3105 1263.48 47.9291 1278.14 46.569Z" fill="#54804F"/>
<path d="M1309.55 36.0639C1332.51 33.9336 1350.46 24.997 1349.63 16.1033C1348.81 7.20963 1329.53 1.72677 1306.56 3.857C1283.6 5.98722 1265.65 14.9239 1266.48 23.8175C1267.3 32.7112 1286.59 38.1941 1309.55 36.0639Z" fill="#54804F"/>
<path d="M1342.07 45.8583C1353.48 44.8001 1362.31 39.5392 1361.81 34.1078C1361.31 28.6765 1351.65 25.1314 1340.24 26.1896C1328.84 27.2478 1320 32.5087 1320.5 37.9401C1321 43.3714 1330.66 46.9165 1342.07 45.8583Z" fill="#54804F"/>
<path d="M710.591 113.037C742.846 110.044 767.944 96.2958 766.649 82.3285C765.353 68.3612 738.154 59.4641 705.898 62.4565C673.643 65.4488 648.545 79.1973 649.84 93.1646C651.136 107.132 678.335 116.029 710.591 113.037Z" fill="#54804F"/>
<path d="M632.253 120.016C652.369 118.15 667.943 108.736 667.039 98.9901C666.134 89.2436 649.095 82.8554 628.979 84.7215C608.863 86.5876 593.289 96.0014 594.193 105.748C595.097 115.494 612.137 121.882 632.253 120.016Z" fill="#54804F"/>
<path d="M804.681 99.0823C844.981 95.3438 876.639 81.411 875.392 67.9626C874.144 54.5142 840.463 46.6428 800.163 50.3814C759.863 54.1199 728.205 68.0527 729.452 81.5011C730.7 94.9495 764.381 102.821 804.681 99.0823Z" fill="#54804F"/>
<path d="M874.972 98.1617C894.364 96.3627 909.344 86.9189 908.43 77.0684C907.517 67.2179 891.055 60.6909 871.663 62.4899C852.27 64.2889 837.29 73.7327 838.204 83.5832C839.118 93.4337 855.579 99.9608 874.972 98.1617Z" fill="#54804F"/>
<path d="M827.107 118.791C846.909 116.954 862.279 108.113 861.438 99.0429C860.597 89.9733 843.862 84.1101 824.061 85.9471C804.259 87.784 788.889 96.6256 789.73 105.695C790.571 114.765 807.306 120.628 827.107 118.791Z" fill="#54804F"/>
<path d="M359.363 152.769C377.622 151.075 391.769 142.635 390.96 133.917C390.151 125.199 374.693 119.504 356.434 121.198C338.174 122.892 324.027 131.333 324.836 140.051C325.645 148.769 341.103 154.463 359.363 152.769Z" fill="#54804F"/>
<path d="M416.848 152.038C441.216 149.778 460.049 138.031 458.915 125.8C457.78 113.57 437.107 105.488 412.74 107.748C388.373 110.009 369.539 121.756 370.674 133.986C371.808 146.217 392.481 154.299 416.848 152.038Z" fill="#54804F"/>
<path d="M417.942 163.827C430.389 162.673 440.032 156.919 439.48 150.977C438.929 145.034 428.392 141.153 415.946 142.307C403.499 143.462 393.856 149.215 394.407 155.158C394.959 161.101 405.495 164.982 417.942 163.827Z" fill="#54804F"/>
<path d="M539.711 131.213C573.747 128.056 600.343 114.76 599.115 101.516C597.886 88.2715 569.298 80.0947 535.262 83.2521C501.226 86.4096 474.63 99.7057 475.858 112.95C477.087 126.194 505.675 134.371 539.711 131.213Z" fill="#54804F"/>
<path d="M476.651 140.052C498.69 138.007 515.871 128.961 515.026 119.847C514.18 110.733 495.629 105.003 473.589 107.047C451.55 109.092 434.369 118.137 435.214 127.251C436.06 136.365 454.612 142.096 476.651 140.052Z" fill="#54804F"/>
<path d="M588.537 137.668C612.857 135.412 631.877 126.076 631.017 116.815C630.158 107.554 609.746 101.876 585.426 104.132C561.105 106.388 542.086 115.724 542.945 124.985C543.804 134.246 564.216 139.924 588.537 137.668Z" fill="#54804F"/>
<path d="M517.875 150.558C533.166 149.139 545.087 142.863 544.5 136.539C543.914 130.216 531.042 126.239 515.751 127.658C500.459 129.076 488.539 135.353 489.125 141.676C489.712 148 502.583 151.976 517.875 150.558Z" fill="#54804F"/>
<path d="M942.649 75.1546C943.681 66.9913 926.699 58.1217 904.72 55.3438C882.74 52.566 864.085 56.9317 863.054 65.0951C862.022 73.2585 879.004 82.1281 900.983 84.906C922.963 87.6838 941.618 83.318 942.649 75.1546Z" fill="#54804F"/>
<path d="M127.298 226.211C133.723 226.211 138.932 221.002 138.932 214.577C138.932 208.152 133.723 202.944 127.298 202.944C120.873 202.944 115.665 208.152 115.665 214.577C115.665 221.002 120.873 226.211 127.298 226.211Z" fill="#54804F"/>
<path d="M115.715 215.652L138.882 213.503L133.275 153.067L110.108 155.217L115.715 215.652Z" fill="#54804F"/>
<path d="M1359.25 111.928C1365.68 111.928 1370.88 106.719 1370.88 100.294C1370.88 93.8695 1365.68 88.6611 1359.25 88.6611C1352.83 88.6611 1347.62 93.8695 1347.62 100.294C1347.62 106.719 1352.83 111.928 1359.25 111.928Z" fill="#54804F"/>
<path d="M1347.65 101.112L1370.85 99.4768L1366.59 38.9321L1343.38 40.5672L1347.65 101.112Z" fill="#54804F"/>
<path d="M500.992 204.886C507.417 204.886 512.625 199.678 512.625 193.253C512.625 186.828 507.417 181.62 500.992 181.62C494.567 181.62 489.359 186.828 489.359 193.253C489.359 199.678 494.567 204.886 500.992 204.886Z" fill="#54804F"/>
<path d="M489.409 194.328L512.576 192.178L506.969 131.743L483.802 133.892L489.409 194.328Z" fill="#54804F"/>
<path d="M550.843 180.929C557.268 180.929 562.477 175.721 562.477 169.296C562.477 162.871 557.268 157.663 550.843 157.663C544.418 157.663 539.21 162.871 539.21 169.296C539.21 175.721 544.418 180.929 550.843 180.929Z" fill="#54804F"/>
<path d="M539.26 170.371L562.427 168.221L556.82 107.786L533.653 109.935L539.26 170.371Z" fill="#54804F"/>
<path d="M737.19 162.556C743.615 162.556 748.823 157.347 748.823 150.922C748.823 144.497 743.615 139.289 737.19 139.289C730.765 139.289 725.557 144.497 725.557 150.922C725.557 157.347 730.765 162.556 737.19 162.556Z" fill="#54804F"/>
<path d="M725.606 151.997L748.773 149.848L743.167 89.4123L720 91.5615L725.606 151.997Z" fill="#54804F"/>
<path d="M813.976 80.6478C834.333 79.7645 850.618 74.0506 850.351 67.8855C850.083 61.7204 833.364 57.4387 813.008 58.322C792.651 59.2053 776.366 64.9192 776.633 71.0843C776.901 77.2494 793.62 81.5311 813.976 80.6478Z" fill="#4D9859"/>
<path d="M699.832 93.1848C714.823 90.4095 726.129 83.581 725.083 77.9331C724.038 72.2852 711.037 69.9565 696.046 72.7318C681.054 75.5072 669.749 82.3356 670.795 87.9836C671.84 93.6315 684.841 95.9602 699.832 93.1848Z" fill="#4D9859"/>
<path d="M551.381 113.486C568.514 112.743 582.165 106.632 581.87 99.8362C581.575 93.041 567.447 88.135 550.313 88.8785C533.18 89.6219 519.53 95.7333 519.824 102.529C520.119 109.324 534.248 114.23 551.381 113.486Z" fill="#4D9859"/>
<path d="M405.989 129.963C415.995 129.035 423.788 124.857 423.397 120.633C423.005 116.408 414.576 113.736 404.57 114.664C394.564 115.592 386.771 119.769 387.163 123.994C387.555 128.219 395.984 130.891 405.989 129.963Z" fill="#4D9859"/>
<path d="M184.941 148.105C196.748 147.01 205.945 142.081 205.483 137.095C205.02 132.11 195.073 128.956 183.266 130.052C171.458 131.147 162.261 136.076 162.724 141.062C163.186 146.047 173.133 149.201 184.941 148.105Z" fill="#4D9859"/>
<path d="M72.6916 160.172C88.3457 159.504 100.838 154.329 100.595 148.613C100.351 142.898 87.4632 138.805 71.8091 139.472C56.155 140.14 43.6624 145.314 43.9061 151.03C44.1498 156.746 57.0375 160.839 72.6916 160.172Z" fill="#4D9859"/>
<path d="M1406.95 21.395C1417.68 20.9295 1426.22 17.0843 1426.04 12.8063C1425.85 8.52832 1417 5.43766 1406.28 5.9031C1395.55 6.36854 1387.01 10.2138 1387.19 14.4918C1387.38 18.7698 1396.22 21.8604 1406.95 21.395Z" fill="#4D9859"/>
<path d="M1302.44 23.3865C1312.93 21.4943 1320.92 17.0975 1320.29 13.5659C1319.65 10.0344 1310.63 8.70549 1300.14 10.5977C1289.64 12.49 1281.65 16.8868 1282.29 20.4183C1282.93 23.9499 1291.95 25.2788 1302.44 23.3865Z" fill="#4D9859"/>
<g opacity="0.5">
<path d="M659.115 185.092C661.018 185.092 662.56 183.549 662.56 181.647C662.56 179.745 661.018 178.202 659.115 178.202C657.213 178.202 655.671 179.745 655.671 181.647C655.671 183.549 657.213 185.092 659.115 185.092Z" stroke="#4B4133" stroke-width="2" stroke-linecap="round" stroke-linejoin="round"/>
<path d="M651.203 175.732L664.387 173.291" stroke="#4B4133" stroke-width="2" stroke-linecap="round" stroke-linejoin="round"/>
<path d="M653.845 190.003L667.029 187.562" stroke="#4B4133" stroke-width="2" stroke-linecap="round" stroke-linejoin="round"/>
</g>
<g opacity="0.5">
<path d="M679.101 184.673C677.817 179.852 678.78 175.09 681.8 172.474C682.302 172.039 684.234 170.365 687.105 170.339C690.345 170.309 692.487 172.398 692.896 172.797C695.675 175.509 696.332 180.192 694.647 184.673" stroke="#4B4133" stroke-width="2" stroke-miterlimit="10" stroke-linecap="round"/>
<path d="M687.394 182.379C689.297 182.379 690.839 180.837 690.839 178.934C690.839 177.032 689.297 175.49 687.394 175.49C685.492 175.49 683.95 177.032 683.95 178.934C683.95 180.837 685.492 182.379 687.394 182.379Z" stroke="#4B4133" stroke-width="2" stroke-linecap="round" stroke-linejoin="round"/>
</g>
<g opacity="0.5">
<path d="M708.245 177.442C708.581 177.751 712.316 181.074 716.847 179.89C717.561 179.704 720.012 179.023 721.504 176.597C722.761 174.553 722.929 171.933 721.937 169.782C720.589 166.862 717.241 165.109 713.695 165.581" stroke="#4B4133" stroke-width="2" stroke-linecap="round" stroke-linejoin="round"/>
<path d="M721.503 176.597L725.869 179.15" stroke="#4B4133" stroke-width="2" stroke-linecap="round" stroke-linejoin="round"/>
</g>
<g opacity="0.5">
<path d="M754.903 177.71L751.73 164.683" stroke="#4B4133" stroke-width="2" stroke-linecap="round" stroke-linejoin="round"/>
<path d="M738.581 168.818L753.236 170.865L741.325 180.086L738.581 168.818Z" stroke="#4B4133" stroke-width="2" stroke-linecap="round" stroke-linejoin="round"/>
</g>
<g opacity="0.5">
<path d="M763.708 168.818L776.389 164.463" stroke="#4B4133" stroke-width="2" stroke-linecap="round" stroke-linejoin="round"/>
<path d="M769.928 166.29L765.573 153.608" stroke="#4B4133" stroke-width="2" stroke-linecap="round" stroke-linejoin="round"/>
<path d="M762.324 163.167L772.317 154.227" stroke="#4B4133" stroke-width="2" stroke-linecap="round" stroke-linejoin="round"/>
</g>
<g opacity="0.5">
<path d="M792.023 165.401V151.993" stroke="#4B4133" stroke-width="2" stroke-linecap="round" stroke-linejoin="round"/>
<path d="M786.437 162.777L797.075 154.616" stroke="#4B4133" stroke-width="2" stroke-linecap="round" stroke-linejoin="round"/>
<path d="M797.041 163.28L787.006 154.387" stroke="#4B4133" stroke-width="2" stroke-linecap="round" stroke-linejoin="round"/>
</g>
<g opacity="0.5">
<path d="M1036.7 153.098C1038.6 153.098 1040.14 151.555 1040.14 149.653C1040.14 147.751 1038.6 146.208 1036.7 146.208C1034.79 146.208 1033.25 147.751 1033.25 149.653C1033.25 151.555 1034.79 153.098 1036.7 153.098Z" stroke="#4B4133" stroke-width="2" stroke-linecap="round" stroke-linejoin="round"/>
<path d="M1029.87 157.39L1027.99 144.115" stroke="#4B4133" stroke-width="2" stroke-linecap="round" stroke-linejoin="round"/>
</g>
<g opacity="0.5">
<path d="M1049.55 148.115L1058.77 151.369" stroke="#4B4133" stroke-width="2" stroke-linecap="round" stroke-linejoin="round"/>
<path d="M1049 143.671C1050.66 140.935 1053.98 139.671 1057 140.605C1059.93 141.511 1061.93 144.287 1061.87 147.387C1059.74 147.682 1056.81 148.328 1053.6 149.832C1051.14 150.981 1049.21 152.311 1047.78 153.458C1048.92 156.601 1051.7 158.777 1054.82 158.989C1058.42 159.233 1060.82 156.767 1061.16 156.405" stroke="#4B4133" stroke-width="2" stroke-linecap="round" stroke-linejoin="round"/>
</g>
<path d="M145.862 172.101C145.862 172.101 149.017 187.356 144.752 190.208C138.509 194.383 125.696 185.979 126.984 180.955C128.272 175.93 140.772 169.123 140.772 169.123L145.862 172.101Z" fill="#773A79"/>
<path d="M139.613 169.73C139.613 169.73 126.079 177.445 122.049 174.27C116.149 169.622 120.182 154.84 125.359 154.512C130.535 154.184 140.872 163.969 140.872 163.969L139.613 169.73Z" fill="#773A79"/>
<path d="M139.936 163.054C139.936 163.054 128.417 152.567 130.191 147.753C132.788 140.705 148.093 139.973 150.004 144.795C151.916 149.617 145.804 162.472 145.804 162.472L139.936 163.054Z" fill="#773A79"/>
<path d="M146.385 161.299C146.385 161.299 152.8 147.103 157.926 147.302C165.431 147.595 170.857 161.924 166.862 165.232C162.867 168.54 148.753 166.7 148.753 166.7L146.385 161.299Z" fill="#773A79"/>
<path d="M150.047 166.89C150.047 166.89 165.531 168.603 166.925 173.54C168.967 180.768 157.015 190.357 152.634 187.58C148.254 184.802 145.643 170.81 145.643 170.81L150.047 166.89Z" fill="#773A79"/>
<path d="M139.948 146.906C140.982 148.498 143.825 152.413 149.189 154.797C154.691 157.242 159.627 156.648 161.488 156.328C160.705 156.911 155.808 160.681 155.248 167.39C154.812 172.617 157.278 176.399 158.032 177.469C156.406 176.857 152.552 175.658 147.779 176.621C141.837 177.818 138.339 181.583 137.276 182.825C137.341 181.125 137.287 176.585 134.361 171.988C130.943 166.618 125.868 164.727 124.362 164.228C125.757 164.061 131.01 163.266 135.248 158.69C139.701 153.881 139.93 148.246 139.948 146.906Z" fill="#9A4D89"/>
<path d="M143.998 172.349C147.522 172.349 150.378 169.492 150.378 165.968C150.378 162.444 147.522 159.587 143.998 159.587C140.474 159.587 137.617 162.444 137.617 165.968C137.617 169.492 140.474 172.349 143.998 172.349Z" fill="#BD62B2"/>
<path d="M831.205 121.47C831.205 121.47 834.31 136.736 830.037 139.573C823.779 143.728 810.994 135.282 812.298 130.262C813.603 125.242 826.125 118.476 826.125 118.476L831.205 121.47Z" fill="#454CA6"/>
<path d="M824.964 119.079C824.964 119.079 811.405 126.749 807.385 123.562C801.5 118.894 805.582 104.125 810.759 103.814C815.937 103.504 826.242 113.322 826.242 113.322L824.964 119.079Z" fill="#454CA6"/>
<path d="M825.309 112.404C825.309 112.404 813.824 101.879 815.613 97.0713C818.233 90.0318 833.541 89.3495 835.437 94.1777C837.332 99.0058 831.178 111.84 831.178 111.84L825.309 112.404Z" fill="#454CA6"/>
<path d="M831.764 110.67C831.764 110.67 838.225 96.4945 843.35 96.7107C850.854 97.0273 856.233 111.375 852.227 114.67C848.221 117.964 834.113 116.078 834.113 116.078L831.764 110.67Z" fill="#454CA6"/>
<path d="M835.408 116.272C835.408 116.272 850.886 118.037 852.264 122.978C854.282 130.213 842.299 139.762 837.927 136.971C833.556 134.179 830.99 120.178 830.99 120.178L835.408 116.272Z" fill="#454CA6"/>
<path d="M825.373 96.2554C826.402 97.8511 829.233 101.775 834.589 104.177C840.082 106.64 845.02 106.062 846.883 105.748C846.097 106.329 841.188 110.082 840.606 116.789C840.153 122.015 842.607 125.805 843.357 126.878C841.733 126.26 837.883 125.049 833.107 125.996C827.162 127.174 823.651 130.928 822.584 132.166C822.654 130.466 822.615 125.926 819.704 121.32C816.303 115.938 811.235 114.031 809.73 113.527C811.127 113.364 816.382 112.586 820.634 108.025C825.103 103.23 825.35 97.5954 825.373 96.2554Z" fill="#3D7BC0"/>
<path d="M829.361 121.712C832.884 121.712 835.741 118.855 835.741 115.331C835.741 111.807 832.884 108.95 829.361 108.95C825.837 108.95 822.98 111.807 822.98 115.331C822.98 118.855 825.837 121.712 829.361 121.712Z" fill="#6CC0E5"/>
<path d="M884.223 104.974C884.223 104.974 883.087 123.252 877.369 125.168C868.997 127.974 857.062 114.483 860.076 109.182C863.089 103.882 879.37 100.024 879.37 100.024L884.223 104.974Z" fill="#773A79"/>
<path d="M877.868 100.354C877.868 100.354 860.134 104.922 856.545 100.076C851.289 92.981 860.431 77.4614 866.404 78.6894C872.376 79.9174 881.076 94.2096 881.076 94.2096L877.868 100.354Z" fill="#773A79"/>
<path d="M880.298 92.8826C880.298 92.8826 870.474 77.4281 873.973 72.5171C879.096 65.326 896.682 69.2253 897.359 75.2848C898.037 81.3444 887.133 94.0351 887.133 94.0351L880.298 92.8826Z" fill="#773A79"/>
<path d="M888.154 92.8851C888.154 92.8851 899.817 78.766 905.569 80.5763C913.991 83.2271 915.717 101.157 910.163 103.674C904.61 106.191 889.17 99.7417 889.17 99.7417L888.154 92.8851Z" fill="#773A79"/>
<path d="M890.58 100.357C890.58 100.357 907.612 107.086 907.668 113.116C907.75 121.945 891.231 129.127 887.121 124.623C883.011 120.119 884.373 103.443 884.373 103.443L890.58 100.357Z" fill="#773A79"/>
<path d="M885.302 74.5708C885.982 76.6964 887.997 82.0154 893.344 86.3772C898.828 90.8505 904.61 91.7018 906.82 91.9145C905.751 92.3333 899.032 95.0955 896.324 102.531C894.214 108.325 895.842 113.377 896.367 114.823C894.712 113.627 890.711 111.077 885 110.693C877.891 110.215 872.76 113.404 871.171 114.484C871.77 112.576 873.112 107.41 871.214 101.292C868.996 94.1448 863.825 90.4326 862.271 89.4006C863.905 89.6427 870.109 90.364 876.328 86.484C882.866 82.4058 884.867 76.085 885.302 74.5708Z" fill="#9A4D89"/>
<path d="M884.003 104.943C888.146 104.943 891.504 101.585 891.504 97.4424C891.504 93.3 888.146 89.9419 884.003 89.9419C879.861 89.9419 876.503 93.3 876.503 97.4424C876.503 101.585 879.861 104.943 884.003 104.943Z" fill="#BD62B2"/>
<path d="M1319.32 44.8559C1319.32 44.8559 1304.81 45.4258 1302.84 41.0691C1299.96 34.6897 1309.64 24.1924 1314.07 26.1445C1318.49 28.0966 1322.84 40.631 1322.84 40.631L1319.32 44.8559Z" fill="#773A79"/>
<path d="M1322.46 39.4722C1322.46 39.4722 1317.43 25.8487 1320.97 22.6284C1326.14 17.9131 1339.12 23.8806 1338.63 28.6906C1338.14 33.5006 1327.56 41.5103 1327.56 41.5103L1322.46 39.4722Z" fill="#773A79"/>
<path d="M1328.55 40.7899C1328.55 40.7899 1339.95 31.8002 1344.11 34.1666C1350.19 37.6318 1348.52 51.8172 1343.8 52.8379C1339.07 53.8585 1328.19 46.2744 1328.19 46.2744L1328.55 40.7899Z" fill="#773A79"/>
<path d="M1329.18 46.9878C1329.18 46.9878 1341.25 55.0554 1340.28 59.7382C1338.87 66.5951 1324.86 69.3947 1322.43 65.2155C1320 61.0363 1323.85 48.3393 1323.85 48.3393L1329.18 46.9878Z" fill="#773A79"/>
<path d="M1323.48 49.501C1323.48 49.501 1319.53 63.4768 1314.78 64.0044C1307.82 64.7771 1300.83 52.322 1304.06 48.7184C1307.28 45.1148 1320.54 44.8518 1320.54 44.8518L1323.48 49.501Z" fill="#773A79"/>
<path d="M1343.39 43.2682C1341.77 43.9757 1337.74 45.9918 1334.73 50.5598C1331.64 55.2445 1331.43 59.8742 1331.44 61.635C1331.02 60.8252 1328.3 55.7465 1322.22 54.2065C1317.48 53.0066 1313.63 54.6963 1312.53 55.2258C1313.34 53.8247 1315.03 50.464 1314.87 45.9279C1314.68 40.2816 1311.75 36.4896 1310.77 35.3222C1312.33 35.6415 1316.51 36.2859 1321.18 34.2979C1326.65 31.9752 1329.16 27.5977 1329.85 26.2893C1329.79 27.598 1329.72 32.5499 1333.28 37.145C1337.02 41.975 1342.17 43.0464 1343.39 43.2682Z" fill="#9A4D89"/>
<path d="M1325.25 50.0266C1328.53 50.0266 1331.2 47.3638 1331.2 44.0791C1331.2 40.7944 1328.53 38.1316 1325.25 38.1316C1321.96 38.1316 1319.3 40.7944 1319.3 44.0791C1319.3 47.3638 1321.96 50.0266 1325.25 50.0266Z" fill="#BD62B2"/>
<path d="M596.55 94.3652C596.55 94.3652 596.575 106.74 592.803 108.279C587.279 110.534 578.647 101.953 580.449 98.2485C582.252 94.5436 593.064 91.2373 593.064 91.2373L596.55 94.3652Z" fill="#454CA6"/>
<path d="M592.065 91.5248C592.065 91.5248 580.304 95.3727 577.674 92.2607C573.822 87.7037 579.316 76.8425 583.396 77.4119C587.477 77.9814 593.962 87.2425 593.962 87.2425L592.065 91.5248Z" fill="#454CA6"/>
<path d="M593.38 86.3815C593.38 86.3815 586.086 76.3852 588.233 72.9221C591.377 67.851 603.404 69.7191 604.123 73.7759C604.843 77.8328 598.039 86.8627 598.039 86.8627L593.38 86.3815Z" fill="#454CA6"/>
<path d="M598.678 86.0429C598.678 86.0429 605.931 76.017 609.888 76.9887C615.682 78.4116 617.622 90.4273 613.986 92.3651C610.35 94.3029 599.66 90.6226 599.66 90.6226L598.678 86.0429Z" fill="#454CA6"/>
<path d="M600.637 90.9768C600.637 90.9768 612.414 94.7767 612.713 98.8404C613.15 104.791 602.322 110.349 599.355 107.49C596.389 104.63 596.585 93.326 596.585 93.326L600.637 90.9768Z" fill="#454CA6"/>
<path d="M595.961 73.8164C596.512 75.2203 598.101 78.7199 601.896 81.4297C605.787 84.2088 609.723 84.5325 611.223 84.5802C610.52 84.9089 606.109 87.0625 604.605 92.1941C603.433 96.1923 604.749 99.5282 605.165 100.481C603.998 99.7457 601.19 98.1994 597.322 98.1879C592.507 98.1735 589.185 100.546 588.16 101.343C588.481 100.031 589.163 96.4888 587.618 92.4457C585.813 87.7219 582.165 85.4425 581.073 84.8138C582.185 84.9063 586.4 85.1241 590.426 82.2384C594.658 79.2053 595.733 74.8563 595.961 73.8164Z" fill="#3D7BC0"/>
<path d="M596.076 94.3641C598.875 94.3641 601.144 92.095 601.144 89.2958C601.144 86.4967 598.875 84.2275 596.076 84.2275C593.277 84.2275 591.008 86.4967 591.008 89.2958C591.008 92.095 593.277 94.3641 596.076 94.3641Z" fill="#6CC0E5"/>
<defs>
<linearGradient id="paint0_linear_79_437" x1="702.528" y1="22.0703" x2="727.08" y2="246.311" gradientUnits="userSpaceOnUse">
<stop stop-color="#7F6F57" stop-opacity="0"/>
<stop offset="1" stop-color="#443A2F"/>
</linearGradient>
<linearGradient id="paint1_linear_79_437" x1="304.099" y1="184.36" x2="304.099" y2="260.428" gradientUnits="userSpaceOnUse">
<stop stop-color="#4B4133"/>
<stop offset="1" stop-color="#241F17"/>
</linearGradient>
</defs>
</svg>
