<svg width="1440" height="285" viewBox="0 0 1440 285" fill="none" xmlns="http://www.w3.org/2000/svg">
<path d="M297.102 61.574L375.227 26.2898L471.444 0L478.878 6.73792L422.587 35.3203L400.659 66.6009L297.102 61.574Z" fill="#5E533B"/>
<path d="M824.067 71.3741C825.773 70.8052 1147.17 19.041 1147.17 19.041L1110.19 41.7946L1219.41 38.9504L1070.94 61.7039L974.809 86.1639L824.067 71.3741Z" fill="#5E533B"/>
<path d="M771.065 228.795L936.119 284.17L947.304 276.247L842.16 225.937L771.065 228.795Z" fill="#4B4133"/>
<path d="M1440 101.174V284.174L1058.9 252.524L760.97 231.884L476.58 211.244L470.65 200.194L467.07 193.524L450.48 185.024L417.74 193.904L411.15 175.314L408.57 168.014L374.09 163.374L359.75 169.184L328.67 181.774L321.37 184.734L255.36 178.834L195.12 196.614L0 190.024V36.5039L405.1 46.1339L765.63 58.5139L1169.67 80.5339L1440 101.174Z" fill="#7F6F58"/>
<path d="M1440 163.554V215.564C1419.52 214.494 1387.63 209.954 1337.07 199.844C1282.9 189.014 1262.18 179.544 1230.44 188.464C1206.3 195.254 1205.32 203.824 1180.76 214.874C1129.71 237.844 1077.16 226.384 1027.14 215.484C956.87 200.164 958.62 184.324 904.81 178.624C853.11 173.144 849.46 187.554 791.14 185.624C725.41 183.444 720.25 163.484 641.86 154.344C582.75 147.454 582.51 156.444 498.26 151.504C417.61 146.774 417.95 138.544 348.99 135.864C263.95 132.564 265.93 145.174 196.86 138.704C122.79 131.774 115.29 116.774 66.07 123.064C39.71 126.434 17.23 133.884 0 138.944V96.7939C30.99 90.1639 70.44 84.7839 115.83 86.1039C177.09 87.8839 198.8 100.404 259.42 110.274C335.63 122.674 339.08 109.034 503.95 108.854C611.45 108.734 665.2 108.674 711.52 118.804C784.64 134.794 803.95 152.164 865.06 151.504C924.42 150.854 921.6 133.744 1007.39 123.164C1053.4 117.484 1116.93 110.274 1189.63 132.034C1238.01 146.514 1228.6 155.304 1269.51 166.354C1341.49 185.784 1401.87 167.004 1440 163.554Z" fill="#6C6146"/>
<path d="M1440 112.434V146.154C1424.07 151.814 1404.29 157.424 1380 158.514C1354.08 159.664 1334.95 154.684 1297.73 144.674C1244.77 130.434 1247.51 125.314 1209.52 115.864C1164.59 104.684 1127.04 104.014 1092.5 102.354C990.23 97.4438 981.88 119.734 887.46 116.904C832.4 115.244 844.92 107.954 725.35 96.1238C638.03 87.4838 594.25 87.7037 582.57 87.8138C513.08 88.4938 514.13 95.8538 452.67 97.1638C415.07 97.9637 400.19 95.5137 244.41 78.4637C160.59 69.2938 118.48 64.7137 109.14 64.9637C67.17 66.1038 30.17 72.4037 0 78.4637V50.3438C6.79999 51.4037 13.54 52.5538 20.04 53.5438C78.73 62.4438 51.29 48.1838 182.14 54.5837C305.75 60.6138 297.67 71.7538 379.67 72.2338C463.49 72.7338 470.39 61.0938 555.73 63.9238C615.91 65.9238 615.63 71.8237 695.29 78.4637C748.64 82.9238 768.09 81.8937 925.03 83.6638C1033.08 84.8838 1087.1 85.4938 1101.09 86.7737C1124.75 88.9537 1169.13 95.8337 1172.09 96.2538C1246.88 106.844 1255.62 109.994 1286.81 111.914C1321.6 114.054 1318.33 110.614 1378.55 111.184C1399.38 111.384 1421.27 111.594 1440 112.434Z" fill="#6C6146"/>
<path d="M359.75 169.184L328.67 181.774C266.41 171.224 219.28 162.364 148.68 168.374C116.37 171.124 83.88 171.484 51.6 174.534C30.7 176.504 13.88 178.394 0 179.704V149.784C15.42 145.994 32.98 143.024 55.61 145.124C172.95 156.024 1.48999 131.594 233.05 155.384C285.82 160.794 327.09 165.394 359.75 169.184Z" fill="#6C6146"/>
<path d="M1440 234.204V267.624C1391.67 267.824 1368.37 251.204 1321.78 247.014C1299.31 244.994 1298.27 248.284 1252.81 251.114C1196.37 254.634 1154.47 252.304 1099.48 249.064C1046.64 245.954 1020.84 242.344 934.09 232.654C790.33 216.604 716.77 208.494 634.13 204.614C542.2 200.304 563.21 206.284 494.18 201.884C486.08 201.364 478.24 200.804 470.65 200.194L467.07 193.524L450.48 185.024L417.74 193.904L411.15 175.314C481.2 183.824 488.77 185.144 514.27 180.004C539.5 174.914 580.89 163.784 636.8 171.794C668.52 176.334 676.63 182.984 712.47 192.994C780.25 211.914 805.86 203.374 899.95 213.504C980.83 222.224 962.78 228.634 1037.21 236.074C1087.33 241.084 1155.53 247.464 1240.09 234.024C1289.2 226.214 1285.61 220.984 1318.43 218.974C1364.43 216.164 1408.53 224.194 1440 234.204Z" fill="#6C6146"/>
<path opacity="0.5" d="M1440 101.174V284.174L1058.9 252.524L760.97 231.884L476.58 211.244L470.65 200.194L467.07 193.524L450.48 185.024L417.74 193.904L411.15 175.314L408.57 168.014L374.09 163.374L359.75 169.184L328.67 181.774L321.37 184.734L255.36 178.834L195.12 196.614L0 190.024V36.5039L405.1 46.1339L765.63 58.5139L1169.67 80.5339L1440 101.174Z" fill="url(#paint0_linear_79_617)"/>
<path d="M1037.22 134.574C1033.9 137.388 1030.57 140.202 1027.25 143.016C1030.07 147.531 1032.89 152.046 1035.72 156.56C1030.79 159.27 1025.87 161.981 1020.94 164.691C1020.68 169.633 1020.41 174.576 1020.15 179.518C1028.99 186.343 1037.84 193.168 1046.69 199.993C1054.86 197.039 1063.03 194.084 1071.2 191.13C1080.88 196.372 1090.56 201.614 1100.25 206.856C1107.77 202.076 1115.28 197.296 1122.8 192.516C1128.62 197.872 1134.44 203.228 1140.26 208.583C1147.94 208.104 1155.62 207.624 1163.29 207.144C1165.69 201.77 1168.09 196.396 1170.49 191.023C1175.91 184.24 1181.33 177.456 1186.75 170.673C1181.28 165.582 1175.81 160.491 1170.33 155.399C1168.27 150.427 1166.21 145.456 1164.14 140.484C1155.89 140.921 1147.65 141.358 1139.4 141.795C1136.86 137.418 1134.32 133.041 1131.78 128.664C1120.21 131.889 1108.65 135.115 1097.08 138.34C1091.95 141.04 1086.82 143.739 1081.69 146.439C1075.96 142.859 1070.24 139.279 1064.52 135.699L1037.22 134.574Z" fill="url(#paint1_linear_79_617)"/>
<g opacity="0.5">
<path d="M956.333 153.05C956.58 151.683 957.927 150.478 959.315 150.263C960.363 150.1 961.435 150.168 962.457 150.452C965.272 151.234 969.738 152.891 972.746 153.233C975.336 153.527 978.479 150.525 978.846 150.062" stroke="#4B4133" stroke-width="2" stroke-linecap="round" stroke-linejoin="round"/>
<path d="M996.686 164.115C997.172 162.814 996.627 161.089 995.544 160.197C994.725 159.522 993.768 159.034 992.744 158.757C989.925 157.994 985.237 157.141 982.475 155.901C980.097 154.833 978.926 150.648 978.846 150.062" stroke="#4B4133" stroke-width="2" stroke-linecap="round" stroke-linejoin="round"/>
<path d="M979.336 149.65C980.837 149.393 981.409 149.276 981.497 149.233C981.5 149.232 981.506 149.229 981.508 149.231C981.54 149.262 980.7 150.191 979.871 151.092" fill="#4B4133"/>
<path d="M979.336 149.65C980.837 149.393 981.409 149.276 981.497 149.233C981.5 149.232 981.506 149.229 981.508 149.231C981.54 149.262 980.7 150.191 979.871 151.092" stroke="#4B4133" stroke-width="2" stroke-linecap="round" stroke-linejoin="round"/>
<path d="M978.635 149.458C977.475 148.471 977.043 148.078 976.989 147.997C976.987 147.995 976.984 147.989 976.981 147.99C976.937 148 977.186 149.227 977.44 150.426" fill="#4B4133"/>
<path d="M978.635 149.458C977.475 148.471 977.043 148.078 976.989 147.997C976.987 147.995 976.984 147.989 976.981 147.99C976.937 148 977.186 149.227 977.44 150.426" stroke="#4B4133" stroke-width="2" stroke-linecap="round" stroke-linejoin="round"/>
<path d="M960.773 155.547C961.43 155.616 962.576 155.84 963.656 156.668C963.983 156.919 965.848 158.409 965.701 160.409C965.663 160.925 965.577 161.077 965.577 161.077C965.553 161.123 965.53 161.155 965.542 161.188C965.6 161.35 966.364 161.198 966.646 161.162C967.672 161.03 968.611 161.619 969.307 162.056C970.929 163.074 971.554 164.985 971.945 166.234C972.981 169.548 972.585 172.611 972.142 174.513" stroke="#4B4133" stroke-width="2" stroke-linecap="round" stroke-linejoin="round"/>
<path d="M991.594 163.998C990.994 163.722 989.894 163.331 988.542 163.492C988.133 163.541 985.769 163.872 984.875 165.667C984.645 166.13 984.641 166.305 984.641 166.305C984.639 166.356 984.642 166.396 984.615 166.418C984.482 166.527 983.903 166.007 983.679 165.833C982.863 165.196 981.755 165.224 980.934 165.244C979.019 165.292 977.507 166.617 976.534 167.492C973.951 169.815 972.731 172.651 972.142 174.513" stroke="#4B4133" stroke-width="2" stroke-linecap="round" stroke-linejoin="round"/>
</g>
<path d="M1123.87 88.4762C1148.53 87.1418 1168.21 80.158 1167.82 72.8775C1167.42 65.5969 1147.11 60.7766 1122.44 62.111C1097.77 63.4454 1078.1 70.4292 1078.49 77.7097C1078.88 84.9903 1099.2 89.8106 1123.87 88.4762Z" fill="#54804F"/>
<path d="M1054.81 86.9485C1079.82 85.5955 1099.77 78.5148 1099.37 71.1332C1098.97 63.7516 1078.38 58.8644 1053.37 60.2173C1028.36 61.5702 1008.41 68.6509 1008.81 76.0325C1009.21 83.4141 1029.8 88.3014 1054.81 86.9485Z" fill="#54804F"/>
<path d="M1087.92 99.3313C1112.94 97.9777 1132.9 90.8933 1132.5 83.5079C1132.1 76.1226 1111.5 71.2328 1086.47 72.5864C1061.45 73.94 1041.49 81.0244 1041.89 88.4098C1042.29 95.7952 1062.9 100.685 1087.92 99.3313Z" fill="#54804F"/>
<path d="M1395.08 100.001C1396.25 85.4173 1366.84 71.1672 1329.39 68.1726C1291.95 65.1781 1260.65 74.5731 1259.48 89.1571C1258.32 103.741 1287.72 117.991 1325.17 120.986C1362.61 123.98 1393.91 114.585 1395.08 100.001Z" fill="#54804F"/>
<path d="M1222.76 87.9368C1223.54 78.1348 1205.92 68.729 1183.41 66.9284C1160.89 65.1277 1142 71.6141 1141.22 81.416C1140.44 91.218 1158.05 100.624 1180.57 102.424C1203.08 104.225 1221.97 97.7387 1222.76 87.9368Z" fill="#54804F"/>
<path d="M1440 90.8139V116.174C1437.57 116.264 1435.02 116.204 1432.41 115.994C1416.01 114.684 1403.17 107.834 1403.74 100.694C1404.32 93.5539 1418.07 88.8238 1434.48 90.1438C1436.37 90.2938 1438.22 90.5238 1440 90.8139Z" fill="#54804F"/>
<path d="M1429.47 114.62C1430.04 107.479 1417.21 100.627 1400.8 99.3157C1384.4 98.004 1370.64 102.729 1370.07 109.87C1369.5 117.01 1382.33 123.862 1398.74 125.174C1415.14 126.485 1428.9 121.76 1429.47 114.62Z" fill="#54804F"/>
<path d="M1434.33 92.007C1434.9 84.8665 1418.03 77.6919 1396.65 75.982C1375.27 74.2721 1357.47 78.6745 1356.9 85.815C1356.33 92.9554 1373.2 100.13 1394.58 101.84C1415.96 103.55 1433.76 99.1474 1434.33 92.007Z" fill="#54804F"/>
<path d="M1254.22 110.147C1254.8 102.853 1241.69 95.8536 1224.94 94.5137C1208.18 93.1737 1194.13 98.0005 1193.55 105.294C1192.96 112.589 1206.07 119.588 1222.83 120.928C1239.58 122.268 1253.64 117.441 1254.22 110.147Z" fill="#54804F"/>
<path d="M1301.01 89.6127C1301.87 78.8272 1282.48 68.4777 1257.71 66.4964C1232.94 64.5151 1212.15 71.6523 1211.29 82.4377C1210.43 93.2232 1229.81 103.573 1254.59 105.554C1279.36 107.535 1300.14 100.398 1301.01 89.6127Z" fill="#54804F"/>
<path d="M1276.8 175.782C1283.22 175.782 1288.43 170.574 1288.43 164.149C1288.43 157.724 1283.22 152.515 1276.8 152.515C1270.37 152.515 1265.17 157.724 1265.17 164.149C1265.17 170.574 1270.37 175.782 1276.8 175.782Z" fill="#54804F"/>
<path d="M1265.2 163.221L1288.4 165.076L1293.23 104.575L1270.04 102.72L1265.2 163.221Z" fill="#54804F"/>
<path d="M1307.29 210.236C1313.72 210.236 1318.92 205.027 1318.92 198.602C1318.92 192.177 1313.72 186.969 1307.29 186.969C1300.87 186.969 1295.66 192.177 1295.66 198.602C1295.66 205.027 1300.87 210.236 1307.29 210.236Z" fill="#54804F"/>
<path d="M1295.7 197.675L1318.89 199.53L1326.76 101.118L1303.57 99.2634L1295.7 197.675Z" fill="#54804F"/>
<path d="M683.626 68.7223C684.314 60.1202 671.255 52.0577 654.457 50.7144C637.66 49.3711 623.485 55.2555 622.797 63.8576C622.109 72.4597 635.169 80.5221 651.966 81.8654C668.763 83.2088 682.938 77.3244 683.626 68.7223Z" fill="#54804F"/>
<path d="M561.994 52.1173C562.969 39.9201 541.111 28.221 513.171 25.9866C485.232 23.7522 461.792 31.8286 460.817 44.0258C459.841 56.223 481.7 67.9222 509.639 70.1566C537.578 72.391 561.018 64.3145 561.994 52.1173Z" fill="#54804F"/>
<path d="M445.436 69.1348C465.8 67.7001 481.822 59.6324 481.221 51.1151C480.621 42.5979 463.627 36.8563 443.263 38.2909C422.899 39.7256 406.877 47.7933 407.477 56.3106C408.077 64.8279 425.072 70.5695 445.436 69.1348Z" fill="#54804F"/>
<path d="M458.537 72.5221C458.972 67.0874 451.361 62.0448 441.538 61.2592C431.715 60.4737 423.399 64.2425 422.965 69.6772C422.53 75.1119 430.141 80.1544 439.964 80.94C449.787 81.7256 458.103 77.9567 458.537 72.5221Z" fill="#54804F"/>
<path d="M656.821 55.9734C657.76 44.2293 630.224 32.4459 595.317 29.6542C560.41 26.8626 531.351 34.1199 530.412 45.864C529.472 57.608 557.009 69.3915 591.916 72.1831C626.823 74.9748 655.882 67.7174 656.821 55.9734Z" fill="#54804F"/>
<path d="M640.299 80.6059C640.933 72.6857 627.542 65.1531 610.39 63.7815C593.238 62.4098 578.821 67.7184 578.187 75.6386C577.554 83.5587 590.945 91.0912 608.096 92.4629C625.248 93.8346 639.666 88.526 640.299 80.6059Z" fill="#54804F"/>
<path d="M671.603 73.1779C689.882 73.1779 704.7 65.2358 704.7 55.4388C704.7 45.6418 689.882 37.6997 671.603 37.6997C653.324 37.6997 638.505 45.6418 638.505 55.4388C638.505 65.2358 653.324 73.1779 671.603 73.1779Z" fill="#54804F"/>
<path d="M859.185 76.1761C881.186 76.1761 899.022 68.4115 899.022 58.8334C899.022 49.2553 881.186 41.4907 859.185 41.4907C837.183 41.4907 819.348 49.2553 819.348 58.8334C819.348 68.4115 837.183 76.1761 859.185 76.1761Z" fill="#54804F"/>
<path d="M806.994 75.4104C834.012 75.4104 855.914 65.8756 855.914 54.1139C855.914 42.3522 834.012 32.8174 806.994 32.8174C779.977 32.8174 758.075 42.3522 758.075 54.1139C758.075 65.8756 779.977 75.4104 806.994 75.4104Z" fill="#54804F"/>
<path d="M698.027 84.3317C717.724 84.3317 733.693 77.3801 733.693 68.805C733.693 60.2298 717.724 53.2783 698.027 53.2783C678.329 53.2783 662.361 60.2298 662.361 68.805C662.361 77.3801 678.329 84.3317 698.027 84.3317Z" fill="#54804F"/>
<path d="M733.993 70.9365C762.488 70.9365 785.588 62.4032 785.588 51.8769C785.588 41.3506 762.488 32.8174 733.993 32.8174C705.498 32.8174 682.398 41.3506 682.398 51.8769C682.398 62.4032 705.498 70.9365 733.993 70.9365Z" fill="#54804F"/>
<path d="M851.496 79.806C851.496 85.8472 840.247 90.7446 826.37 90.7446C812.493 90.7446 801.243 85.8472 801.243 79.806C801.243 73.7648 812.493 68.8674 826.37 68.8674C840.247 68.8674 851.496 73.7648 851.496 79.806Z" fill="#54804F"/>
<path d="M679.998 140.297C686.423 140.297 691.631 135.089 691.631 128.664C691.631 122.239 686.423 117.031 679.998 117.031C673.573 117.031 668.365 122.239 668.365 128.664C668.365 135.089 673.573 140.297 679.998 140.297Z" fill="#54804F"/>
<path d="M668.402 127.737L691.594 129.591L696.433 69.0897L673.24 67.2349L668.402 127.737Z" fill="#54804F"/>
<path d="M264.417 40.9631C264.827 32.3711 250.261 24.6965 231.884 23.8213C213.508 22.9462 198.279 29.2019 197.87 37.7939C197.461 46.3859 212.026 54.0605 230.403 54.9357C248.779 55.8108 264.008 49.5551 264.417 40.9631Z" fill="#54804F"/>
<path d="M63.83 28.834C63.35 38.894 44.31 46.164 21.23 45.134C21.14 45.134 21.04 45.124 20.95 45.124C13.27 44.754 6.11999 43.5139 0 41.654V10.334C6.59998 8.83395 14.39 8.15396 22.69 8.54397C45.89 9.65396 64.31 18.734 63.83 28.834Z" fill="#54804F"/>
<path d="M119.757 34.074C120.267 23.3627 100.735 13.7297 76.1307 12.558C51.5264 11.3862 31.1671 19.1196 30.657 29.8309C30.1469 40.5421 49.6791 50.1752 74.2835 51.3469C98.8878 52.5187 119.247 44.7853 119.757 34.074Z" fill="#54804F"/>
<path d="M220.817 48.726C221.198 40.7147 206.589 33.5098 188.187 32.6334C169.785 31.7571 154.557 37.5411 154.176 45.5524C153.794 53.5637 168.403 60.7685 186.805 61.6449C205.208 62.5213 220.435 56.7373 220.817 48.726Z" fill="#54804F"/>
<path d="M211.083 32.1955C211.628 20.7412 186.934 10.2587 155.927 8.78202C124.92 7.30539 99.3413 15.3939 98.7958 26.8481C98.2503 38.3024 122.944 48.7849 153.952 50.2616C184.959 51.7382 210.537 43.6498 211.083 32.1955Z" fill="#54804F"/>
<path d="M141.071 54.5274C141.384 47.9536 129.396 42.0416 114.296 41.3225C99.1957 40.6033 86.7007 45.3495 86.3876 51.9233C86.0746 58.4971 98.0621 64.4091 113.162 65.1282C128.263 65.8474 140.758 61.1012 141.071 54.5274Z" fill="#54804F"/>
<path d="M26.54 38.4838C26.42 41.0438 24.47 43.3338 21.23 45.1339C16.4 47.8338 8.69 49.4438 0 49.2438V25.1738C15.02 25.9938 26.86 31.9138 26.54 38.4838Z" fill="#54804F"/>
<path d="M313.617 57.0593C328.831 57.0593 341.164 50.8721 341.164 43.2399C341.164 35.6077 328.831 29.4207 313.617 29.4207C298.402 29.4207 286.069 35.6077 286.069 43.2399C286.069 50.8721 298.402 57.0593 313.617 57.0593Z" fill="#54804F"/>
<path d="M272.574 55.5206C289.985 55.5206 304.099 48.2783 304.099 39.3444C304.099 30.4106 289.985 23.1682 272.574 23.1682C255.163 23.1682 241.049 30.4106 241.049 39.3444C241.049 48.2783 255.163 55.5206 272.574 55.5206Z" fill="#54804F"/>
<path d="M268.495 109.709C274.92 109.709 280.128 104.5 280.128 98.0754C280.128 91.6506 274.92 86.4421 268.495 86.4421C262.07 86.4421 256.862 91.6506 256.862 98.0754C256.862 104.5 262.07 109.709 268.495 109.709Z" fill="#54804F"/>
<path d="M256.899 97.1481L280.091 99.0029L284.93 38.5013L261.737 36.6465L256.899 97.1481Z" fill="#54804F"/>
<path d="M166.573 126.288C172.998 126.288 178.207 121.079 178.207 114.655C178.207 108.23 172.998 103.021 166.573 103.021C160.148 103.021 154.94 108.23 154.94 114.655C154.94 121.079 160.148 126.288 166.573 126.288Z" fill="#54804F"/>
<path d="M154.977 113.727L178.169 115.582L183.008 55.0804L159.815 53.2256L154.977 113.727Z" fill="#54804F"/>
<path d="M181.909 27.5514C182.166 22.1396 167.89 17.0627 150.021 16.2118C132.152 15.3608 117.457 19.058 117.2 24.4698C116.942 29.8815 131.219 34.9584 149.088 35.8094C166.956 36.6603 181.651 32.9631 181.909 27.5514Z" fill="#4D9859"/>
<path d="M87.9952 30.3733C88.213 25.8005 79.4333 21.667 68.3852 21.1408C57.3371 20.6147 48.2044 23.8952 47.9866 28.468C47.7688 33.0408 56.5485 37.1743 67.5966 37.7005C78.6447 38.2266 87.7774 34.9461 87.9952 30.3733Z" fill="#4D9859"/>
<path d="M292.446 35.93C292.621 32.2494 285.554 28.9224 276.662 28.4989C267.769 28.0754 260.418 30.7159 260.243 34.3965C260.068 38.0771 267.135 41.4041 276.027 41.8276C284.92 42.2511 292.27 39.6106 292.446 35.93Z" fill="#4D9859"/>
<path d="M835.464 49.2172C835.682 44.6542 825.088 40.4423 811.803 39.8097C798.518 39.177 787.572 42.3631 787.355 46.9261C787.138 51.489 797.731 55.7009 811.016 56.3335C824.301 56.9662 835.247 53.7801 835.464 49.2172Z" fill="#4D9859"/>
<path d="M689.431 56.2877C689.648 51.7247 681.843 47.6456 671.996 47.1767C662.15 46.7078 653.992 50.0267 653.775 54.5896C653.558 59.1526 661.363 63.2317 671.21 63.7006C681.056 64.1695 689.214 60.8506 689.431 56.2877Z" fill="#4D9859"/>
<path d="M611.226 46.2297C611.453 41.4641 598.976 36.9979 583.358 36.2542C567.74 35.5104 554.895 38.7707 554.668 43.5362C554.441 48.3018 566.918 52.768 582.536 53.5118C598.154 54.2555 610.999 50.9952 611.226 46.2297Z" fill="#4D9859"/>
<path d="M498.78 48.5373C509.114 47.8092 517.239 43.6267 516.927 39.1954C516.615 34.7642 507.984 31.7622 497.649 32.4903C487.314 33.2184 479.19 37.4008 479.502 41.8321C479.814 46.2634 488.445 49.2654 498.78 48.5373Z" fill="#4D9859"/>
<path d="M1270.76 80.2911C1270.94 76.4269 1261.71 72.8475 1250.14 72.2963C1238.56 71.7451 1229.03 74.4309 1228.85 78.2952C1228.66 82.1594 1237.9 85.7388 1249.47 86.29C1261.04 86.8411 1270.58 84.1553 1270.76 80.2911Z" fill="#4D9859"/>
<path d="M1082.72 91.2026C1095.6 90.5055 1105.86 86.4775 1105.63 82.2058C1105.4 77.9341 1094.76 75.0363 1081.88 75.7334C1068.99 76.4305 1058.73 80.4585 1058.96 84.7301C1059.2 89.0018 1069.83 91.8996 1082.72 91.2026Z" fill="#4D9859"/>
<path d="M1361.31 86.8183C1361.55 81.649 1346.72 76.7425 1328.17 75.8593C1309.63 74.9762 1294.39 78.4508 1294.15 83.6201C1293.9 88.7894 1308.74 93.6959 1327.28 94.5791C1345.83 95.4623 1361.06 91.9877 1361.31 86.8183Z" fill="#4D9859"/>
<g opacity="0.5">
<path d="M440.817 133.282C441.153 133.59 444.889 136.913 449.42 135.73C450.134 135.543 452.584 134.862 454.076 132.437C455.334 130.392 455.502 127.773 454.51 125.622C453.162 122.702 449.814 120.949 446.268 121.421" stroke="#4B4133" stroke-width="2" stroke-linecap="round" stroke-linejoin="round"/>
<path d="M454.076 132.437L458.442 134.99" stroke="#4B4133" stroke-width="2" stroke-linecap="round" stroke-linejoin="round"/>
</g>
<path opacity="0.5" d="M477.549 134.562C477.561 134.381 477.66 133.126 478.724 132.371C479.709 131.671 480.996 131.77 481.804 132.275C483.297 133.207 483.391 135.662 482.598 137.229C481.602 139.202 479.063 140.044 477.009 139.484C474.496 138.798 473.389 136.198 473.262 134.308C473.088 131.702 474.719 129.563 476.423 128.519C479.378 126.709 483.447 127.645 485.703 130.125C488.39 133.08 487.875 137.537 485.96 140.336C483.56 143.844 478.924 144.804 475.395 143.579C471.027 142.064 468.206 137.152 469.117 131.939" stroke="#4B4133" stroke-width="2" stroke-linecap="round" stroke-linejoin="round"/>
<path opacity="0.5" d="M505.402 138.719C501.262 139.386 498.069 136.382 498.097 133.77C498.121 131.445 500.701 128.832 504.299 128.791C500.352 129.112 497.43 126.089 497.513 123.464C497.599 120.779 500.851 117.893 504.853 118.632" stroke="#4B4133" stroke-width="2" stroke-linecap="round" stroke-linejoin="round"/>
<g opacity="0.5">
<path d="M521.196 132.108C523.098 132.108 524.641 130.566 524.641 128.664C524.641 126.761 523.098 125.219 521.196 125.219C519.294 125.219 517.751 126.761 517.751 128.664C517.751 130.566 519.294 132.108 521.196 132.108Z" stroke="#4B4133" stroke-width="2" stroke-linecap="round" stroke-linejoin="round"/>
<path d="M513.354 135.368V121.96" stroke="#4B4133" stroke-width="2" stroke-linecap="round" stroke-linejoin="round"/>
</g>
<path opacity="0.5" d="M534.762 135.831C533.478 131.01 534.441 126.248 537.461 123.632C537.964 123.197 539.896 121.523 542.767 121.497C546.007 121.467 548.148 123.557 548.557 123.955C551.336 126.667 551.994 131.35 550.308 135.831" stroke="#4B4133" stroke-width="2" stroke-miterlimit="10" stroke-linecap="round"/>
<g opacity="0.5">
<path d="M567.055 122.526C566.544 122.757 560.989 125.375 560.141 131.064C560.008 131.961 559.596 135.057 561.617 137.912C563.32 140.319 566.199 141.772 569.107 141.687C573.055 141.573 576.65 138.636 577.826 134.402" stroke="#4B4133" stroke-width="2" stroke-linecap="round" stroke-linejoin="round"/>
<path d="M568.095 126.711C567.812 126.839 564.732 128.291 564.261 131.445C564.187 131.943 563.959 133.66 565.08 135.243C566.024 136.577 567.62 137.383 569.233 137.336C571.422 137.272 573.416 135.644 574.068 133.296" stroke="#4B4133" stroke-width="2" stroke-linecap="round" stroke-linejoin="round"/>
<path d="M581.884 139.106L577.826 134.402" stroke="#4B4133" stroke-width="2" stroke-linecap="round" stroke-linejoin="round"/>
</g>
<path d="M735.775 43.93C735.775 43.93 733.49 59.3398 728.505 60.5504C721.206 62.3231 712.066 50.0247 715.003 45.7499C717.941 41.4751 732.02 39.3833 732.02 39.3833L735.775 43.93Z" fill="#454CA6"/>
<path d="M730.723 39.5542C730.723 39.5542 715.361 42.1426 712.669 37.7759C708.728 31.3819 717.6 18.8889 722.573 20.3618C727.547 21.8348 733.887 34.5783 733.887 34.5783L730.723 39.5542Z" fill="#454CA6"/>
<path d="M733.323 33.3973C733.323 33.3973 726.114 19.5873 729.436 15.6779C734.299 9.95339 748.922 14.5307 749.058 19.7159C749.194 24.901 739.033 34.8688 739.033 34.8688L733.323 33.3973Z" fill="#454CA6"/>
<path d="M739.982 33.9677C739.982 33.9677 750.889 22.8441 755.633 24.7947C762.58 27.6509 762.745 42.9728 757.856 44.7044C752.967 46.4361 740.347 39.8529 740.347 39.8529L739.982 33.9677Z" fill="#454CA6"/>
<path d="M741.497 40.4768C741.497 40.4768 755.447 47.4122 755.058 52.5271C754.488 60.0168 739.967 64.9089 736.81 60.794C733.652 56.6791 736.013 42.6427 736.013 42.6427L741.497 40.4768Z" fill="#454CA6"/>
<path d="M738.889 18.2383C739.312 20.0892 740.635 24.7434 744.851 28.8273C749.176 33.0157 754.015 34.1556 755.873 34.4957C754.937 34.7734 749.042 36.6285 746.208 42.7352C744.001 47.4933 745.015 51.8928 745.355 53.157C744.039 52.0229 740.833 49.5721 736.02 48.8336C730.029 47.9143 725.449 50.2464 724.023 51.0466C724.669 49.4725 726.181 45.1908 725.014 39.8682C723.652 33.6495 719.537 30.1289 718.295 29.1417C719.663 29.4652 724.869 30.5254 730.421 27.6867C736.257 24.703 738.41 19.4902 738.889 18.2383Z" fill="#3D7BC0"/>
<path d="M736.134 43.911C739.658 43.911 742.515 41.0543 742.515 37.5305C742.515 34.0066 739.658 31.1499 736.134 31.1499C732.61 31.1499 729.753 34.0066 729.753 37.5305C729.753 41.0543 732.61 43.911 736.134 43.911Z" fill="#6CC0E5"/>
<path d="M1187.72 110.953C1187.72 110.953 1190.94 128.98 1185.84 132.195C1178.37 136.903 1163.58 126.619 1165.25 120.756C1166.93 114.893 1181.83 107.292 1181.83 107.292L1187.72 110.953Z" fill="#773A79"/>
<path d="M1180.45 107.968C1180.45 107.968 1164.3 116.602 1159.67 112.744C1152.88 107.094 1158.09 89.852 1164.19 89.6317C1170.28 89.4114 1182.12 101.239 1182.12 101.239L1180.45 107.968Z" fill="#773A79"/>
<path d="M1181.04 100.134C1181.04 100.134 1167.84 87.443 1170.08 81.8435C1173.36 73.6441 1191.36 73.2712 1193.46 78.9983C1195.55 84.7253 1187.96 99.636 1187.96 99.636L1181.04 100.134Z" fill="#773A79"/>
<path d="M1188.68 98.2767C1188.68 98.2767 1196.67 81.7988 1202.69 82.1965C1211.5 82.7789 1217.42 99.7906 1212.62 103.55C1207.82 107.31 1191.29 104.698 1191.29 104.698L1188.68 98.2767Z" fill="#773A79"/>
<path d="M1192.8 104.963C1192.8 104.963 1210.94 107.47 1212.43 113.315C1214.59 121.874 1200.24 132.761 1195.19 129.358C1190.13 125.954 1187.5 109.429 1187.5 109.429L1192.8 104.963Z" fill="#773A79"/>
<path d="M1181.57 81.158C1182.74 83.0621 1185.95 87.7532 1192.18 90.7258C1198.57 93.7743 1204.39 93.2331 1206.58 92.9166C1205.65 93.5765 1199.77 97.8503 1198.9 105.716C1198.22 111.844 1201 116.367 1201.85 117.649C1199.96 116.877 1195.47 115.347 1189.83 116.325C1182.81 117.543 1178.58 121.856 1177.29 123.282C1177.42 121.286 1177.5 115.949 1174.21 110.454C1170.36 104.035 1164.46 101.652 1162.71 101.017C1164.35 100.865 1170.55 100.098 1175.67 94.8563C1181.06 89.3469 1181.51 82.7321 1181.57 81.158Z" fill="#9A4D89"/>
<path d="M1185.72 111.188C1189.87 111.188 1193.23 107.829 1193.23 103.687C1193.23 99.5446 1189.87 96.1865 1185.72 96.1865C1181.58 96.1865 1178.22 99.5446 1178.22 103.687C1178.22 107.829 1181.58 111.188 1185.72 111.188Z" fill="#BD62B2"/>
<path d="M1368.57 83.2358C1368.57 83.2358 1368.6 95.6101 1364.82 97.1499C1359.3 99.4046 1350.67 90.824 1352.47 87.1191C1354.27 83.4142 1365.09 80.1079 1365.09 80.1079L1368.57 83.2358Z" fill="#454CA6"/>
<path d="M1364.09 80.3957C1364.09 80.3957 1352.33 84.2436 1349.7 81.1315C1345.84 76.5746 1351.34 65.7133 1355.42 66.2828C1359.5 66.8523 1365.98 76.1134 1365.98 76.1134L1364.09 80.3957Z" fill="#454CA6"/>
<path d="M1365.4 75.2521C1365.4 75.2521 1358.11 65.2558 1360.25 61.7927C1363.4 56.7216 1375.43 58.5897 1376.15 62.6466C1376.86 66.7034 1370.06 75.7333 1370.06 75.7333L1365.4 75.2521Z" fill="#454CA6"/>
<path d="M1370.7 74.9135C1370.7 74.9135 1377.95 64.8876 1381.91 65.8593C1387.7 67.2822 1389.64 79.2979 1386.01 81.2357C1382.37 83.1735 1371.68 79.4932 1371.68 79.4932L1370.7 74.9135Z" fill="#454CA6"/>
<path d="M1372.66 79.8474C1372.66 79.8474 1384.44 83.6473 1384.73 87.711C1385.17 93.6614 1374.34 99.2195 1371.38 96.3603C1368.41 93.5011 1368.61 82.1965 1368.61 82.1965L1372.66 79.8474Z" fill="#454CA6"/>
<path d="M1367.98 62.687C1368.53 64.0909 1370.12 67.5905 1373.92 70.3003C1377.81 73.0794 1381.75 73.4031 1383.24 73.4508C1382.54 73.7795 1378.13 75.9331 1376.63 81.0647C1375.45 85.063 1376.77 88.3989 1377.19 89.3517C1376.02 88.6163 1373.21 87.07 1369.34 87.0585C1364.53 87.0441 1361.21 89.417 1360.18 90.214C1360.5 88.9012 1361.18 85.3594 1359.64 81.3163C1357.84 76.5925 1354.19 74.3131 1353.09 73.6844C1354.21 73.7769 1358.42 73.9947 1362.45 71.1091C1366.68 68.0759 1367.76 63.7269 1367.98 62.687Z" fill="#3D7BC0"/>
<path d="M1368.1 83.2347C1370.9 83.2347 1373.17 80.9655 1373.17 78.1664C1373.17 75.3672 1370.9 73.0981 1368.1 73.0981C1365.3 73.0981 1363.03 75.3672 1363.03 78.1664C1363.03 80.9655 1365.3 83.2347 1368.1 83.2347Z" fill="#6CC0E5"/>
<path d="M627.261 78.9784C627.261 78.9784 612.751 79.5483 610.78 75.1917C607.895 68.8123 617.581 58.315 622.004 60.2671C626.427 62.2191 630.776 74.7536 630.776 74.7536L627.261 78.9784Z" fill="#773A79"/>
<path d="M630.395 73.5948C630.395 73.5948 625.37 59.9712 628.904 56.751C634.08 52.0357 647.056 58.0031 646.567 62.8131C646.077 67.6231 635.5 75.6328 635.5 75.6328L630.395 73.5948Z" fill="#773A79"/>
<path d="M636.484 74.9125C636.484 74.9125 647.888 65.9227 652.043 68.2892C658.127 71.7544 656.461 85.9398 651.736 86.9605C647.01 87.9812 636.124 80.397 636.124 80.397L636.484 74.9125Z" fill="#773A79"/>
<path d="M637.113 81.1104C637.113 81.1104 649.187 89.1779 648.22 93.8607C646.805 100.718 632.799 103.517 630.368 99.338C627.937 95.1588 631.786 82.4619 631.786 82.4619L637.113 81.1104Z" fill="#773A79"/>
<path d="M631.413 83.6235C631.413 83.6235 627.471 97.5994 622.718 98.127C615.76 98.8997 608.769 86.4445 611.993 82.8409C615.216 79.2374 628.481 78.9744 628.481 78.9744L631.413 83.6235Z" fill="#773A79"/>
<path d="M651.332 77.3907C649.71 78.0982 645.675 80.1144 642.663 84.6824C639.574 89.3671 639.366 93.9967 639.376 95.7575C638.96 94.9478 636.242 89.869 630.159 88.329C625.419 87.1292 621.564 88.8188 620.465 89.3484C621.277 87.9473 622.967 84.5865 622.812 80.0504C622.618 74.4042 619.691 70.6121 618.711 69.4447C620.265 69.764 624.448 70.4084 629.122 68.4204C634.582 66.0978 637.096 61.7202 637.786 60.4119C637.726 61.7206 637.654 66.6724 641.214 71.2676C644.956 76.0975 650.102 77.169 651.332 77.3907Z" fill="#9A4D89"/>
<path d="M633.185 84.1489C636.47 84.1489 639.132 81.4861 639.132 78.2014C639.132 74.9167 636.47 72.2539 633.185 72.2539C629.9 72.2539 627.237 74.9167 627.237 78.2014C627.237 81.4861 629.9 84.1489 633.185 84.1489Z" fill="#BD62B2"/>
<path d="M214.148 59.3348C214.148 59.3348 210.364 72.7093 205.815 73.2108C199.154 73.9452 192.472 62.0182 195.56 58.5714C198.648 55.1245 211.345 54.8826 211.345 54.8826L214.148 59.3348Z" fill="#454CA6"/>
<path d="M210.178 54.8857C210.178 54.8857 196.289 55.4204 194.406 51.2488C191.649 45.1405 200.927 35.0999 205.16 36.9716C209.392 38.8434 213.546 50.8443 213.546 50.8443L210.178 54.8857Z" fill="#454CA6"/>
<path d="M213.182 49.7347C213.182 49.7347 208.382 36.6907 211.767 33.611C216.725 29.1014 229.141 34.823 228.669 39.4267C228.197 44.0304 218.067 51.6893 218.067 51.6893L213.182 49.7347Z" fill="#454CA6"/>
<path d="M219.009 51.0003C219.009 51.0003 229.931 42.404 233.906 44.6722C239.727 47.9934 238.123 61.5702 233.598 62.5437C229.074 63.5172 218.66 56.2497 218.66 56.2497L219.009 51.0003Z" fill="#454CA6"/>
<path d="M219.606 56.9333C219.606 56.9333 231.157 64.6645 230.228 69.146C228.868 75.7083 215.46 78.3776 213.136 74.3755C210.812 70.3735 214.506 58.2231 214.506 58.2231L219.606 56.9333Z" fill="#454CA6"/>
<path d="M219.84 36.957C220.003 38.6432 220.642 42.9127 223.906 47.0084C227.254 51.2087 231.406 52.7704 233.011 53.2838C232.151 53.4224 226.722 54.3903 223.517 59.4701C221.02 63.428 221.415 67.4369 221.571 68.5944C220.536 67.4405 217.979 64.9054 213.805 63.7018C208.609 62.2038 204.29 63.7439 202.937 64.2891C203.688 62.97 205.515 59.354 205.091 54.5109C204.596 48.8526 201.357 45.267 200.371 44.2515C201.544 44.694 206.03 46.2272 211.267 44.3499C216.773 42.3767 219.274 38.0102 219.84 36.957Z" fill="#3D7BC0"/>
<path d="M215.197 59.4059C218.341 59.4059 220.89 56.8571 220.89 53.7131C220.89 50.569 218.341 48.0203 215.197 48.0203C212.053 48.0203 209.504 50.569 209.504 53.7131C209.504 56.8571 212.053 59.4059 215.197 59.4059Z" fill="#6CC0E5"/>
<defs>
<linearGradient id="paint0_linear_79_617" x1="726.144" y1="31.3258" x2="717.681" y2="209.044" gradientUnits="userSpaceOnUse">
<stop stop-color="#7F6F57" stop-opacity="0"/>
<stop offset="1" stop-color="#443A2F"/>
</linearGradient>
<linearGradient id="paint1_linear_79_617" x1="1103.45" y1="128.664" x2="1103.45" y2="208.583" gradientUnits="userSpaceOnUse">
<stop stop-color="#4B4133"/>
<stop offset="1" stop-color="#241F17"/>
</linearGradient>
</defs>
</svg>
