<svg width="320" height="64" viewBox="0 0 320 64" fill="none" xmlns="http://www.w3.org/2000/svg">
<path d="M64.7524 13.8344L82.3057 5.90678L103.924 0L105.594 1.51387L92.9465 7.93575L88.0197 14.9639L64.7524 13.8344Z" fill="#5E533B"/>
<path d="M183.151 16.0362C183.534 15.9084 255.745 4.27808 255.745 4.27808L247.437 9.39033L271.976 8.7513L238.619 13.8635L217.019 19.3592L183.151 16.0362Z" fill="#5E533B"/>
<path d="M171.243 51.4056L208.327 63.8472L210.84 62.0671L187.216 50.7634L171.243 51.4056Z" fill="#4B4133"/>
<path d="M321.538 22.7317V63.848L235.913 56.7369L168.974 52.0995L105.078 47.4621L103.745 44.9794L102.941 43.4808L99.2136 41.571L91.8576 43.5662L90.3769 39.3894L89.7973 37.7492L82.0503 36.7067L78.8284 38.0121L71.8454 40.8408L70.2052 41.5059L55.3741 40.1803L41.8394 44.1751L-2 42.6944V8.20166L89.0176 10.3653L170.021 13.1468L260.801 18.0943L321.538 22.7317Z" fill="#7F6F58"/>
<path d="M321.538 36.7472V48.4327C316.937 48.1923 309.772 47.1723 298.412 44.9008C286.241 42.4675 281.586 40.3398 274.455 42.3439C269.031 43.8695 268.811 45.795 263.292 48.2777C251.823 53.4386 240.016 50.8638 228.777 48.4148C212.989 44.9727 213.382 41.4137 201.292 40.1331C189.676 38.9018 188.856 42.1395 175.753 41.7058C160.985 41.216 159.825 36.7314 142.213 34.6779C128.932 33.1298 128.878 35.1497 109.949 34.0398C91.8284 32.977 91.9048 31.1279 76.4109 30.5258C57.3041 29.7843 57.749 32.6175 42.2304 31.1639C25.5884 29.6068 23.9033 26.2366 12.8446 27.6499C6.92202 28.4071 1.87122 30.0809 -2 31.2178V21.7476C4.96281 20.2579 13.8264 19.0492 24.0246 19.3457C37.7885 19.7457 42.6663 22.5586 56.2863 24.7762C73.4091 27.5623 74.1843 24.4976 111.227 24.4572C135.38 24.4302 147.457 24.4167 157.864 26.6927C174.292 30.2854 178.631 34.1881 192.361 34.0398C205.698 33.8937 205.065 30.0495 224.34 27.6723C234.677 26.3962 248.951 24.7762 265.285 29.6653C276.155 32.9186 274.041 34.8935 283.233 37.3763C299.405 41.7418 312.971 37.5223 321.538 36.7472Z" fill="#6C6146"/>
<path d="M321.538 25.2615V32.8377C317.959 34.1094 313.515 35.3698 308.058 35.6147C302.234 35.8731 297.936 34.7542 289.573 32.5052C277.674 29.3057 278.29 28.1554 269.754 26.0322C259.659 23.5202 251.223 23.3697 243.462 22.9967C220.484 21.8936 218.608 26.9017 197.394 26.2658C185.023 25.8929 187.836 24.2549 160.971 21.597C141.352 19.6558 131.516 19.7052 128.891 19.7299C113.279 19.8827 113.514 21.5363 99.7056 21.8307C91.2577 22.0104 87.9145 21.4599 52.9139 17.6291C34.0813 15.5688 24.62 14.5398 22.5215 14.596C13.0917 14.8521 4.77857 16.2676 -2 17.6291V11.3112C-0.472182 11.5493 1.04216 11.8077 2.50257 12.0301C15.689 14.0298 9.5238 10.8259 38.9231 12.2638C66.6957 13.6186 64.8803 16.1216 83.304 16.2294C102.137 16.3417 103.687 13.7265 122.861 14.3623C136.382 14.8117 136.319 16.1373 154.217 17.6291C166.204 18.6312 170.574 18.3998 205.835 18.7975C230.112 19.0716 242.249 19.2086 245.392 19.4962C250.708 19.986 260.679 21.5318 261.345 21.6262C278.148 24.0055 280.112 24.7133 287.12 25.1447C294.936 25.6255 294.202 24.8526 307.732 24.9807C312.412 25.0256 317.33 25.0728 321.538 25.2615Z" fill="#6C6146"/>
<path d="M78.8284 38.0121L71.8454 40.8408C57.8568 38.4705 47.2677 36.4798 31.4053 37.8302C24.1459 38.448 16.8461 38.5289 9.59345 39.2142C4.89766 39.6568 1.11855 40.0814 -2 40.3758V33.6534C1.46455 32.8018 5.40992 32.1345 10.4944 32.6064C36.8583 35.0554 -1.66523 29.5664 50.3615 34.9116C62.2179 36.1271 71.4904 37.1606 78.8284 38.0121Z" fill="#6C6146"/>
<path d="M321.538 52.6208V60.1296C310.68 60.1745 305.445 56.4403 294.977 55.4989C289.928 55.0451 289.695 55.7842 279.481 56.4201C266.8 57.211 257.386 56.6875 245.031 55.9595C233.158 55.2607 227.362 54.4496 207.871 52.2725C175.571 48.6664 159.043 46.8443 140.476 45.9725C119.821 45.0041 124.542 46.3477 109.032 45.3591C107.212 45.2423 105.451 45.1165 103.745 44.9794L102.941 43.4808L99.2136 41.571L91.8576 43.5662L90.377 39.3894C106.116 41.3014 107.817 41.598 113.546 40.4431C119.215 39.2995 128.514 36.7988 141.076 38.5985C148.203 39.6186 150.025 41.1127 158.077 43.3617C173.306 47.6127 179.06 45.6939 200.2 47.9699C218.372 49.9291 214.317 51.3693 231.04 53.0409C242.301 54.1666 257.624 55.6 276.623 52.5803C287.657 50.8256 286.85 49.6505 294.224 49.1989C304.559 48.5675 314.468 50.3717 321.538 52.6208Z" fill="#6C6146"/>
<path opacity="0.5" d="M321.538 22.7317V63.848L235.913 56.7369L168.974 52.0995L105.078 47.4621L103.745 44.9794L102.941 43.4808L99.2136 41.571L91.8576 43.5662L90.3769 39.3894L89.7973 37.7492L82.0503 36.7067L78.8284 38.0121L71.8454 40.8408L70.2052 41.5059L55.3741 40.1803L41.8394 44.1751L-2 42.6944V8.20166L89.0176 10.3653L170.021 13.1468L260.801 18.0943L321.538 22.7317Z" fill="url(#paint0_linear_113_276)"/>
<path d="M231.042 30.2359C230.295 30.8682 229.548 31.5005 228.802 32.1328C229.436 33.1472 230.07 34.1615 230.704 35.1758C229.598 35.7847 228.492 36.3937 227.385 37.0027C227.326 38.1131 227.266 39.2236 227.206 40.334C229.194 41.8674 231.182 43.4009 233.17 44.9343C235.005 44.2705 236.841 43.6067 238.676 42.9429C240.852 44.1207 243.027 45.2985 245.203 46.4763C246.892 45.4023 248.581 44.3283 250.271 43.2543C251.578 44.4577 252.886 45.661 254.194 46.8644C255.918 46.7566 257.643 46.6488 259.368 46.541C259.907 45.3336 260.446 44.1262 260.985 42.9188C262.203 41.3948 263.421 39.8708 264.639 38.3467C263.41 37.2028 262.18 36.0589 260.95 34.915C260.486 33.7979 260.023 32.6808 259.559 31.5638C257.706 31.662 255.853 31.7602 254 31.8584C253.429 30.8749 252.858 29.8915 252.287 28.9081C249.689 29.6328 247.09 30.3575 244.491 31.0822C243.339 31.6887 242.186 32.2952 241.033 32.9017C239.747 32.0974 238.461 31.2931 237.175 30.4888L231.042 30.2359Z" fill="url(#paint1_linear_113_276)"/>
<g opacity="0.5">
<path d="M212.869 34.3872C212.924 34.08 213.227 33.8092 213.539 33.7609C213.775 33.7244 214.015 33.7396 214.245 33.8034C214.877 33.979 215.881 34.3515 216.557 34.4283C217.139 34.4944 217.845 33.8199 217.927 33.7157" stroke="#4B4133" stroke-width="0.449359" stroke-linecap="round" stroke-linejoin="round"/>
<path d="M221.936 36.8732C222.045 36.5808 221.923 36.1934 221.679 35.9929C221.495 35.8414 221.28 35.7316 221.05 35.6693C220.417 35.4979 219.364 35.3063 218.743 35.0277C218.209 34.7877 217.946 33.8474 217.928 33.7157" stroke="#4B4133" stroke-width="0.449359" stroke-linecap="round" stroke-linejoin="round"/>
<path d="M218.037 33.6233C218.374 33.5656 218.503 33.5392 218.523 33.5297C218.523 33.5294 218.524 33.5287 218.525 33.5292C218.532 33.5362 218.343 33.7448 218.157 33.9474" fill="#4B4133"/>
<path d="M218.037 33.6233C218.374 33.5656 218.503 33.5392 218.523 33.5297C218.523 33.5294 218.524 33.5287 218.525 33.5292C218.532 33.5362 218.343 33.7448 218.157 33.9474" stroke="#4B4133" stroke-width="0.449359" stroke-linecap="round" stroke-linejoin="round"/>
<path d="M217.88 33.58C217.619 33.3584 217.522 33.2702 217.51 33.2519C217.509 33.2514 217.509 33.2501 217.508 33.2503C217.498 33.2525 217.554 33.5283 217.611 33.7975" fill="#4B4133"/>
<path d="M217.88 33.58C217.619 33.3584 217.522 33.2702 217.51 33.2519C217.509 33.2514 217.509 33.2501 217.508 33.2503C217.498 33.2525 217.554 33.5283 217.611 33.7975" stroke="#4B4133" stroke-width="0.449359" stroke-linecap="round" stroke-linejoin="round"/>
<path d="M213.866 34.9482C214.014 34.9637 214.271 35.0141 214.514 35.2002C214.587 35.2565 215.006 35.5913 214.973 36.0407C214.965 36.1567 214.945 36.1908 214.945 36.1908C214.94 36.201 214.935 36.2083 214.938 36.2157C214.951 36.252 215.122 36.2179 215.186 36.2098C215.416 36.1803 215.627 36.3126 215.783 36.4107C216.148 36.6394 216.288 37.0688 216.376 37.3494C216.609 38.0941 216.52 38.7821 216.42 39.2095" stroke="#4B4133" stroke-width="0.449359" stroke-linecap="round" stroke-linejoin="round"/>
<path d="M220.791 36.8469C220.657 36.785 220.41 36.697 220.106 36.7334C220.014 36.7444 219.483 36.8186 219.282 37.222C219.23 37.3261 219.229 37.3652 219.229 37.3652C219.229 37.3768 219.229 37.3857 219.223 37.3907C219.194 37.4152 219.063 37.2984 219.013 37.2591C218.83 37.1161 218.581 37.1224 218.396 37.127C217.966 37.1377 217.626 37.4355 217.408 37.632C216.828 38.1538 216.553 38.791 216.421 39.2094" stroke="#4B4133" stroke-width="0.449359" stroke-linecap="round" stroke-linejoin="round"/>
</g>
<path d="M250.51 19.8788C256.052 19.579 260.473 18.0099 260.385 16.3741C260.296 14.7383 255.732 13.6553 250.189 13.9551C244.647 14.2549 240.226 15.824 240.315 17.4598C240.403 19.0956 244.968 20.1786 250.51 19.8788Z" fill="#54804F"/>
<path d="M234.995 19.5356C240.614 19.2317 245.097 17.6408 245.007 15.9823C244.917 14.3238 240.29 13.2257 234.67 13.5297C229.051 13.8337 224.569 15.4245 224.659 17.083C224.748 18.7415 229.376 19.8396 234.995 19.5356Z" fill="#54804F"/>
<path d="M242.434 22.3177C248.056 22.0136 252.541 20.4219 252.451 18.7625C252.362 17.1032 247.731 16.0046 242.109 16.3087C236.487 16.6128 232.002 18.2045 232.092 19.8639C232.182 21.5232 236.812 22.6218 242.434 22.3177Z" fill="#54804F"/>
<path d="M311.445 22.4683C311.708 19.1916 305.1 15.9899 296.687 15.317C288.274 14.6442 281.241 16.7551 280.979 20.0318C280.717 23.3085 287.325 26.5103 295.738 27.1831C304.151 27.8559 311.183 25.745 311.445 22.4683Z" fill="#54804F"/>
<path d="M272.728 19.7576C272.904 17.5553 268.946 15.442 263.887 15.0375C258.829 14.6329 254.585 16.0902 254.409 18.2925C254.233 20.4948 258.191 22.6081 263.25 23.0127C268.308 23.4173 272.552 21.9599 272.728 19.7576Z" fill="#54804F"/>
<path d="M321.539 20.4041V26.1019C320.993 26.1221 320.42 26.1087 319.833 26.0615C316.149 25.7671 313.264 24.2281 313.392 22.6239C313.522 21.0197 316.611 19.9569 320.298 20.2535C320.723 20.2872 321.139 20.3389 321.539 20.4041Z" fill="#54804F"/>
<path d="M319.172 25.7527C319.301 24.1484 316.417 22.6089 312.732 22.3142C309.047 22.0195 305.955 23.0811 305.827 24.6854C305.699 26.2898 308.582 27.8292 312.267 28.124C315.953 28.4187 319.044 27.357 319.172 25.7527Z" fill="#54804F"/>
<path d="M320.264 20.672C320.392 19.0677 316.602 17.4557 311.798 17.0715C306.995 16.6874 302.996 17.6765 302.868 19.2808C302.74 20.8851 306.53 22.4971 311.334 22.8813C316.138 23.2654 320.136 22.2763 320.264 20.672Z" fill="#54804F"/>
<path d="M279.797 24.7478C279.928 23.1089 276.983 21.5364 273.218 21.2353C269.454 20.9343 266.296 22.0187 266.165 23.6575C266.034 25.2964 268.979 26.8689 272.744 27.17C276.508 27.471 279.666 26.3866 279.797 24.7478Z" fill="#54804F"/>
<path d="M290.309 20.1341C290.503 17.7109 286.148 15.3855 280.581 14.9404C275.015 14.4952 270.345 16.0988 270.152 18.5221C269.958 20.9453 274.313 23.2707 279.88 23.7158C285.446 24.161 290.116 22.5574 290.309 20.1341Z" fill="#54804F"/>
<path d="M284.871 39.4946C286.314 39.4946 287.484 38.3244 287.484 36.8809C287.484 35.4373 286.314 34.2671 284.871 34.2671C283.427 34.2671 282.257 35.4373 282.257 36.8809C282.257 38.3244 283.427 39.4946 284.871 39.4946Z" fill="#54804F"/>
<path d="M282.265 36.6725L287.476 37.0892L288.563 23.4958L283.352 23.079L282.265 36.6725Z" fill="#54804F"/>
<path d="M291.722 47.2356C293.166 47.2356 294.336 46.0653 294.336 44.6218C294.336 43.1783 293.166 42.0081 291.722 42.0081C290.279 42.0081 289.108 43.1783 289.108 44.6218C289.108 46.0653 290.279 47.2356 291.722 47.2356Z" fill="#54804F"/>
<path d="M289.116 44.4133L294.327 44.8301L296.095 22.7191L290.885 22.3023L289.116 44.4133Z" fill="#54804F"/>
<path d="M151.597 15.4405C151.751 13.5078 148.817 11.6964 145.043 11.3945C141.269 11.0927 138.084 12.4148 137.93 14.3475C137.775 16.2803 140.709 18.0917 144.483 18.3935C148.257 18.6954 151.442 17.3733 151.597 15.4405Z" fill="#54804F"/>
<path d="M124.268 11.7097C124.488 8.96924 119.576 6.3407 113.299 5.83867C107.022 5.33665 101.755 7.15125 101.536 9.89171C101.317 12.6322 106.228 15.2607 112.505 15.7628C118.783 16.2648 124.049 14.4502 124.268 11.7097Z" fill="#54804F"/>
<path d="M98.0803 15.5332C102.656 15.2109 106.255 13.3982 106.121 11.4846C105.986 9.57091 102.167 8.28089 97.592 8.60323C93.0167 8.92558 89.4169 10.7382 89.5517 12.6519C89.6866 14.5655 93.5049 15.8556 98.0803 15.5332Z" fill="#54804F"/>
<path d="M101.024 16.2943C101.121 15.0733 99.4114 13.9403 97.2043 13.7638C94.9973 13.5873 93.129 14.4341 93.0313 15.6552C92.9337 16.8762 94.6436 18.0092 96.8507 18.1857C99.0577 18.3622 100.926 17.5154 101.024 16.2943Z" fill="#54804F"/>
<path d="M145.574 12.5761C145.785 9.93745 139.598 7.28994 131.756 6.66272C123.913 6.0355 117.384 7.66607 117.173 10.3047C116.962 12.9434 123.148 15.5909 130.991 16.2181C138.834 16.8453 145.363 15.2147 145.574 12.5761Z" fill="#54804F"/>
<path d="M141.862 18.1105C142.004 16.331 138.996 14.6386 135.142 14.3304C131.288 14.0223 128.049 15.215 127.907 16.9945C127.764 18.774 130.773 20.4664 134.627 20.7746C138.48 21.0828 141.72 19.89 141.862 18.1105Z" fill="#54804F"/>
<path d="M148.896 16.4415C153.003 16.4415 156.332 14.6571 156.332 12.4559C156.332 10.2548 153.003 8.47034 148.896 8.47034C144.789 8.47034 141.459 10.2548 141.459 12.4559C141.459 14.6571 144.789 16.4415 148.896 16.4415Z" fill="#54804F"/>
<path d="M191.041 17.1152C195.985 17.1152 199.992 15.3707 199.992 13.2187C199.992 11.0667 195.985 9.32214 191.041 9.32214C186.098 9.32214 182.091 11.0667 182.091 13.2187C182.091 15.3707 186.098 17.1152 191.041 17.1152Z" fill="#54804F"/>
<path d="M179.315 16.9432C185.386 16.9432 190.306 14.8009 190.306 12.1583C190.306 9.51568 185.386 7.37341 179.315 7.37341C173.245 7.37341 168.324 9.51568 168.324 12.1583C168.324 14.8009 173.245 16.9432 179.315 16.9432Z" fill="#54804F"/>
<path d="M154.833 18.9476C159.258 18.9476 162.846 17.3858 162.846 15.4591C162.846 13.5324 159.258 11.9706 154.833 11.9706C150.407 11.9706 146.819 13.5324 146.819 15.4591C146.819 17.3858 150.407 18.9476 154.833 18.9476Z" fill="#54804F"/>
<path d="M162.914 15.938C169.316 15.938 174.506 14.0207 174.506 11.6557C174.506 9.29065 169.316 7.37341 162.914 7.37341C156.511 7.37341 151.321 9.29065 151.321 11.6557C151.321 14.0207 156.511 15.938 162.914 15.938Z" fill="#54804F"/>
<path d="M189.314 17.9308C189.314 19.2881 186.787 20.3885 183.669 20.3885C180.551 20.3885 178.023 19.2881 178.023 17.9308C178.023 16.5735 180.551 15.4731 183.669 15.4731C186.787 15.4731 189.314 16.5735 189.314 17.9308Z" fill="#54804F"/>
<path d="M150.782 31.5218C152.225 31.5218 153.395 30.3516 153.395 28.9081C153.395 27.4645 152.225 26.2943 150.782 26.2943C149.338 26.2943 148.168 27.4645 148.168 28.9081C148.168 30.3516 149.338 31.5218 150.782 31.5218Z" fill="#54804F"/>
<path d="M148.176 28.6997L153.387 29.1165L154.474 15.523L149.263 15.1062L148.176 28.6997Z" fill="#54804F"/>
<path d="M57.4094 9.20349C57.5013 7.27305 54.2287 5.54872 50.0999 5.35209C45.971 5.15547 42.5494 6.561 42.4575 8.49144C42.3655 10.4219 45.6381 12.1462 49.767 12.3428C53.8958 12.5395 57.3174 11.1339 57.4094 9.20349Z" fill="#54804F"/>
<path d="M12.3413 6.47843C12.2334 8.73871 7.95555 10.3721 2.76994 10.1407C2.74972 10.1407 2.72725 10.1385 2.70704 10.1385C0.981501 10.0553 -0.624964 9.77672 -2 9.35882V2.32186C-0.51712 1.98484 1.23314 1.83206 3.09798 1.91969C8.31054 2.16908 12.4491 4.20917 12.3413 6.47843Z" fill="#54804F"/>
<path d="M24.9072 7.65575C25.0218 5.24914 20.6333 3.08479 15.1052 2.82153C9.5771 2.55827 5.00279 4.29579 4.88818 6.70239C4.77357 9.109 9.16206 11.2734 14.6902 11.5366C20.2182 11.7999 24.7926 10.0624 24.9072 7.65575Z" fill="#54804F"/>
<path d="M47.6129 10.9477C47.6986 9.1477 44.4163 7.52892 40.2817 7.33201C36.1471 7.13511 32.7258 8.43466 32.6401 10.2346C32.5544 12.0346 35.8367 13.6534 39.9713 13.8503C44.1059 14.0472 47.5272 12.7476 47.6129 10.9477Z" fill="#54804F"/>
<path d="M45.426 7.23366C45.5486 4.66013 40.0003 2.30491 33.0337 1.97314C26.067 1.64137 20.3201 3.45868 20.1975 6.03222C20.0749 8.60575 25.6232 10.961 32.5899 11.2927C39.5565 11.6245 45.3035 9.8072 45.426 7.23366Z" fill="#54804F"/>
<path d="M29.6958 12.2512C29.7661 10.7742 27.0728 9.4459 23.68 9.28433C20.2873 9.12276 17.4799 10.1891 17.4096 11.6661C17.3392 13.1431 20.0326 14.4714 23.4253 14.633C26.818 14.7946 29.6254 13.7282 29.6958 12.2512Z" fill="#54804F"/>
<path d="M3.96299 8.64649C3.93603 9.22167 3.4979 9.73618 2.76994 10.1406C1.68475 10.7472 -0.0475358 11.109 -2 11.064V5.65601C1.37469 5.84025 4.03489 7.17034 3.96299 8.64649Z" fill="#54804F"/>
<path d="M68.4633 12.8201C71.8817 12.8201 74.6528 11.4299 74.6528 9.71514C74.6528 8.00034 71.8817 6.61023 68.4633 6.61023C65.045 6.61023 62.2739 8.00034 62.2739 9.71514C62.2739 11.4299 65.045 12.8201 68.4633 12.8201Z" fill="#54804F"/>
<path d="M59.2417 12.4744C63.1536 12.4744 66.3248 10.8472 66.3248 8.83991C66.3248 6.83265 63.1536 5.20544 59.2417 5.20544C55.3299 5.20544 52.1587 6.83265 52.1587 8.83991C52.1587 10.8472 55.3299 12.4744 59.2417 12.4744Z" fill="#54804F"/>
<path d="M58.3247 24.6493C59.7682 24.6493 60.9385 23.4791 60.9385 22.0355C60.9385 20.592 59.7682 19.4218 58.3247 19.4218C56.8812 19.4218 55.7109 20.592 55.7109 22.0355C55.7109 23.4791 56.8812 24.6493 58.3247 24.6493Z" fill="#54804F"/>
<path d="M55.7193 21.8272L60.9302 22.2439L62.0173 8.65042L56.8064 8.23369L55.7193 21.8272Z" fill="#54804F"/>
<path d="M35.4258 28.3744C36.8693 28.3744 38.0395 27.2042 38.0395 25.7606C38.0395 24.3171 36.8693 23.1469 35.4258 23.1469C33.9822 23.1469 32.812 24.3171 32.812 25.7606C32.812 27.2042 33.9822 28.3744 35.4258 28.3744Z" fill="#54804F"/>
<path d="M32.8204 25.5523L38.0312 25.969L39.1184 12.3755L33.9075 11.9588L32.8204 25.5523Z" fill="#54804F"/>
<path d="M38.8712 6.19025C38.9291 4.97434 35.7214 3.83367 31.7066 3.64247C27.6919 3.45128 24.3903 4.28197 24.3324 5.49787C24.2745 6.71378 27.4822 7.85446 31.497 8.04565C35.5117 8.23685 38.8133 7.40615 38.8712 6.19025Z" fill="#4D9859"/>
<path d="M17.7711 6.82425C17.82 5.79684 15.8474 4.86812 13.3651 4.74991C10.8828 4.6317 8.83088 5.36875 8.78195 6.39617C8.73302 7.42358 10.7056 8.3523 13.1879 8.47051C15.6702 8.58872 17.7221 7.85167 17.7711 6.82425Z" fill="#4D9859"/>
<path d="M63.7064 8.07269C63.7458 7.24573 62.1581 6.49822 60.1601 6.40307C58.1622 6.30792 56.5106 6.90117 56.4712 7.72813C56.4318 8.55508 58.0196 9.3026 60.0175 9.39774C62.0155 9.49289 63.6671 8.89964 63.7064 8.07269Z" fill="#4D9859"/>
<path d="M185.712 11.0581C185.76 10.0329 183.38 9.08661 180.395 8.94447C177.411 8.80232 174.951 9.51817 174.902 10.5434C174.854 11.5686 177.234 12.5149 180.219 12.657C183.203 12.7992 185.663 12.0833 185.712 11.0581Z" fill="#4D9859"/>
<path d="M152.901 12.6467C152.95 11.6215 151.196 10.705 148.984 10.5996C146.771 10.4943 144.938 11.24 144.89 12.2652C144.841 13.2904 146.595 14.2069 148.807 14.3122C151.019 14.4176 152.852 13.6719 152.901 12.6467Z" fill="#4D9859"/>
<path d="M135.33 10.3869C135.381 9.31618 132.578 8.31272 129.069 8.14561C125.56 7.9785 122.674 8.71102 122.623 9.78174C122.572 10.8525 125.375 11.8559 128.884 12.023C132.393 12.1902 135.279 11.4576 135.33 10.3869Z" fill="#4D9859"/>
<path d="M110.066 10.9053C112.388 10.7417 114.213 9.802 114.143 8.80638C114.073 7.81076 112.134 7.13628 109.812 7.29987C107.49 7.46345 105.664 8.40317 105.734 9.39879C105.805 10.3944 107.744 11.0689 110.066 10.9053Z" fill="#4D9859"/>
<path d="M283.513 18.0397C283.554 17.1715 281.48 16.3673 278.88 16.2435C276.279 16.1196 274.138 16.7231 274.096 17.5913C274.055 18.4595 276.129 19.2637 278.73 19.3876C281.33 19.5114 283.472 18.9079 283.513 18.0397Z" fill="#4D9859"/>
<path d="M241.263 20.4913C244.159 20.3347 246.464 19.4297 246.412 18.4699C246.36 17.5102 243.971 16.8591 241.075 17.0157C238.18 17.1723 235.875 18.0773 235.927 19.0371C235.979 19.9969 238.368 20.6479 241.263 20.4913Z" fill="#4D9859"/>
<path d="M303.857 19.5062C303.912 18.3448 300.579 17.2424 296.413 17.044C292.246 16.8455 288.823 17.6262 288.768 18.7877C288.713 19.9491 292.046 21.0515 296.212 21.2499C300.379 21.4483 303.802 20.6677 303.857 19.5062Z" fill="#4D9859"/>
<g opacity="0.5">
<path d="M97.042 29.9457C97.1175 30.015 97.9567 30.7616 98.9748 30.4957C99.1353 30.4538 99.6858 30.3008 100.021 29.7558C100.304 29.2964 100.341 28.7079 100.118 28.2246C99.8156 27.5686 99.0634 27.1747 98.2666 27.2807" stroke="#4B4133" stroke-width="0.449359" stroke-linecap="round" stroke-linejoin="round"/>
<path d="M100.021 29.7557L101.002 30.3294" stroke="#4B4133" stroke-width="0.449359" stroke-linecap="round" stroke-linejoin="round"/>
</g>
<path opacity="0.5" d="M105.296 30.2333C105.298 30.1927 105.321 29.9108 105.56 29.741C105.781 29.5838 106.07 29.6061 106.252 29.7195C106.587 29.9288 106.608 30.4804 106.43 30.8326C106.206 31.2757 105.636 31.465 105.174 31.3392C104.61 31.1852 104.361 30.6009 104.332 30.1762C104.293 29.5906 104.66 29.1102 105.043 28.8757C105.707 28.469 106.621 28.6791 107.128 29.2364C107.731 29.9003 107.616 30.9018 107.185 31.5307C106.646 32.3187 105.605 32.5344 104.812 32.2594C103.83 31.9189 103.196 30.8152 103.401 29.6441" stroke="#4B4133" stroke-width="0.449359" stroke-linecap="round" stroke-linejoin="round"/>
<path opacity="0.5" d="M111.554 31.1673C110.623 31.3171 109.906 30.6422 109.912 30.0553C109.918 29.533 110.497 28.9459 111.306 28.9366C110.419 29.0088 109.762 28.3295 109.781 27.7398C109.8 27.1365 110.531 26.488 111.43 26.6541" stroke="#4B4133" stroke-width="0.449359" stroke-linecap="round" stroke-linejoin="round"/>
<g opacity="0.5">
<path d="M115.102 29.682C115.529 29.682 115.876 29.3355 115.876 28.9081C115.876 28.4807 115.529 28.1342 115.102 28.1342C114.675 28.1342 114.328 28.4807 114.328 28.9081C114.328 29.3355 114.675 29.682 115.102 29.682Z" stroke="#4B4133" stroke-width="0.449359" stroke-linecap="round" stroke-linejoin="round"/>
<path d="M113.34 30.4144V27.4019" stroke="#4B4133" stroke-width="0.449359" stroke-linecap="round" stroke-linejoin="round"/>
</g>
<path opacity="0.5" d="M118.15 30.5184C117.862 29.4353 118.078 28.3652 118.756 27.7775C118.869 27.6798 119.303 27.3037 119.948 27.2978C120.676 27.2911 121.158 27.7606 121.249 27.8502C121.874 28.4594 122.022 29.5116 121.643 30.5184" stroke="#4B4133" stroke-width="0.449359" stroke-miterlimit="10" stroke-linecap="round"/>
<g opacity="0.5">
<path d="M125.406 27.5291C125.291 27.5809 124.043 28.1691 123.853 29.4473C123.823 29.6488 123.73 30.3446 124.184 30.986C124.567 31.5266 125.214 31.8531 125.867 31.8342C126.754 31.8084 127.562 31.1485 127.826 30.1972" stroke="#4B4133" stroke-width="0.449359" stroke-linecap="round" stroke-linejoin="round"/>
<path d="M125.639 28.4692C125.576 28.498 124.884 28.8241 124.778 29.5329C124.761 29.6447 124.71 30.0305 124.962 30.3861C125.174 30.6859 125.533 30.867 125.895 30.8564C126.387 30.8422 126.835 30.4763 126.981 29.9488" stroke="#4B4133" stroke-width="0.449359" stroke-linecap="round" stroke-linejoin="round"/>
<path d="M128.737 31.2541L127.826 30.1973" stroke="#4B4133" stroke-width="0.449359" stroke-linecap="round" stroke-linejoin="round"/>
</g>
<path d="M163.314 9.87018C163.314 9.87018 162.801 13.3324 161.681 13.6044C160.041 14.0027 157.987 11.2395 158.647 10.2791C159.307 9.31862 162.471 8.84863 162.471 8.84863L163.314 9.87018Z" fill="#454CA6"/>
<path d="M162.179 8.88699C162.179 8.88699 158.727 9.46856 158.122 8.48745C157.237 7.05083 159.23 4.24391 160.348 4.57485C161.465 4.90579 162.89 7.76901 162.89 7.76901L162.179 8.88699Z" fill="#454CA6"/>
<path d="M162.763 7.50361C162.763 7.50361 161.143 4.40077 161.889 3.52241C162.982 2.23624 166.268 3.26468 166.298 4.42967C166.329 5.59467 164.046 7.83421 164.046 7.83421L162.763 7.50361Z" fill="#454CA6"/>
<path d="M164.259 7.63183C164.259 7.63183 166.71 5.13261 167.776 5.57085C169.337 6.21258 169.374 9.65509 168.275 10.0442C167.177 10.4332 164.341 8.95413 164.341 8.95413L164.259 7.63183Z" fill="#454CA6"/>
<path d="M164.599 9.09424C164.599 9.09424 167.733 10.6525 167.646 11.8017C167.518 13.4845 164.255 14.5836 163.546 13.6591C162.836 12.7346 163.367 9.58087 163.367 9.58087L164.599 9.09424Z" fill="#454CA6"/>
<path d="M164.013 4.09766C164.108 4.51352 164.406 5.55922 165.353 6.4768C166.325 7.41783 167.412 7.67394 167.829 7.75037C167.619 7.81275 166.294 8.22956 165.658 9.60162C165.162 10.6707 165.39 11.6591 165.466 11.9432C165.17 11.6884 164.45 11.1377 163.369 10.9718C162.023 10.7653 160.994 11.2892 160.673 11.469C160.818 11.1153 161.158 10.1533 160.896 8.95745C160.59 7.56025 159.665 6.76923 159.386 6.54744C159.694 6.62011 160.863 6.85831 162.111 6.22052C163.422 5.55014 163.906 4.37895 164.013 4.09766Z" fill="#3D7BC0"/>
<path d="M163.395 9.86594C164.186 9.86594 164.828 9.2241 164.828 8.43236C164.828 7.64062 164.186 6.99878 163.395 6.99878C162.603 6.99878 161.961 7.64062 161.961 8.43236C161.961 9.2241 162.603 9.86594 163.395 9.86594Z" fill="#6CC0E5"/>
<path d="M264.856 24.929C264.856 24.929 265.58 28.9793 264.434 29.7017C262.755 30.7594 259.433 28.4489 259.809 27.1316C260.185 25.8142 263.534 24.1064 263.534 24.1064L264.856 24.929Z" fill="#773A79"/>
<path d="M263.223 24.2583C263.223 24.2583 259.595 26.1983 258.554 25.3314C257.029 24.062 258.2 20.188 259.569 20.1385C260.938 20.089 263.597 22.7464 263.597 22.7464L263.223 24.2583Z" fill="#773A79"/>
<path d="M263.356 22.4981C263.356 22.4981 260.39 19.6467 260.892 18.3886C261.628 16.5464 265.675 16.4626 266.145 17.7494C266.615 19.0361 264.909 22.3862 264.909 22.3862L263.356 22.4981Z" fill="#773A79"/>
<path d="M265.071 22.0808C265.071 22.0808 266.866 18.3785 268.218 18.4679C270.198 18.5987 271.528 22.4209 270.449 23.2657C269.371 24.1104 265.658 23.5236 265.658 23.5236L265.071 22.0808Z" fill="#773A79"/>
<path d="M265.999 23.583C265.999 23.583 270.074 24.1463 270.407 25.4596C270.894 27.3827 267.67 29.8287 266.534 29.064C265.397 28.2994 264.808 24.5865 264.808 24.5865L265.999 23.583Z" fill="#773A79"/>
<path d="M263.475 18.2346C263.737 18.6624 264.46 19.7164 265.859 20.3843C267.294 21.0693 268.601 20.9477 269.095 20.8765C268.884 21.0248 267.564 21.985 267.368 23.7523C267.216 25.1292 267.84 26.1454 268.031 26.4333C267.606 26.26 266.597 25.9161 265.33 26.136C263.753 26.4097 262.802 27.3787 262.513 27.699C262.542 27.2506 262.56 26.0515 261.821 24.8169C260.957 23.3745 259.63 22.8392 259.236 22.6965C259.606 22.6624 260.999 22.49 262.15 21.3123C263.36 20.0745 263.461 18.5883 263.475 18.2346Z" fill="#9A4D89"/>
<path d="M264.408 24.9816C265.339 24.9816 266.093 24.2271 266.093 23.2964C266.093 22.3657 265.339 21.6112 264.408 21.6112C263.477 21.6112 262.723 22.3657 262.723 23.2964C262.723 24.2271 263.477 24.9816 264.408 24.9816Z" fill="#BD62B2"/>
<path d="M305.49 18.7013C305.49 18.7013 305.495 21.4816 304.648 21.8275C303.406 22.3341 301.467 20.4062 301.872 19.5738C302.277 18.7414 304.706 17.9985 304.706 17.9985L305.49 18.7013Z" fill="#454CA6"/>
<path d="M304.482 18.0633C304.482 18.0633 301.84 18.9278 301.249 18.2286C300.383 17.2048 301.618 14.7645 302.534 14.8924C303.451 15.0204 304.908 17.1012 304.908 17.1012L304.482 18.0633Z" fill="#454CA6"/>
<path d="M304.778 16.9076C304.778 16.9076 303.139 14.6616 303.621 13.8835C304.327 12.7442 307.03 13.1639 307.191 14.0754C307.353 14.9869 305.824 17.0157 305.824 17.0157L304.778 16.9076Z" fill="#454CA6"/>
<path d="M305.969 16.8315C305.969 16.8315 307.598 14.5789 308.487 14.7973C309.789 15.1169 310.225 17.8166 309.408 18.252C308.591 18.6874 306.189 17.8605 306.189 17.8605L305.969 16.8315Z" fill="#454CA6"/>
<path d="M306.408 17.9401C306.408 17.9401 309.054 18.7938 309.121 19.7068C309.219 21.0438 306.787 22.2926 306.12 21.6502C305.453 21.0078 305.498 18.4679 305.498 18.4679L306.408 17.9401Z" fill="#454CA6"/>
<path d="M305.358 14.0845C305.482 14.3999 305.839 15.1862 306.691 15.795C307.566 16.4194 308.45 16.4922 308.787 16.5029C308.629 16.5767 307.638 17.0606 307.3 18.2136C307.036 19.1119 307.332 19.8614 307.426 20.0755C307.164 19.9103 306.533 19.5628 305.664 19.5602C304.582 19.557 303.835 20.0902 303.605 20.2692C303.677 19.9743 303.83 19.1785 303.483 18.2701C303.078 17.2088 302.258 16.6966 302.013 16.5554C302.263 16.5762 303.21 16.6251 304.114 15.9767C305.065 15.2953 305.307 14.3181 305.358 14.0845Z" fill="#3D7BC0"/>
<path d="M305.384 18.7011C306.013 18.7011 306.523 18.1912 306.523 17.5623C306.523 16.9334 306.013 16.4236 305.384 16.4236C304.755 16.4236 304.245 16.9334 304.245 17.5623C304.245 18.1912 304.755 18.7011 305.384 18.7011Z" fill="#6CC0E5"/>
<path d="M138.933 17.7449C138.933 17.7449 135.673 17.8729 135.23 16.8941C134.582 15.4608 136.758 13.1022 137.752 13.5408C138.745 13.9794 139.723 16.7957 139.723 16.7957L138.933 17.7449Z" fill="#773A79"/>
<path d="M139.637 16.5352C139.637 16.5352 138.508 13.4743 139.302 12.7508C140.465 11.6913 143.38 13.0321 143.27 14.1128C143.16 15.1935 140.784 16.9931 140.784 16.9931L139.637 16.5352Z" fill="#773A79"/>
<path d="M141.005 16.8313C141.005 16.8313 143.567 14.8115 144.501 15.3432C145.868 16.1217 145.493 19.3089 144.432 19.5382C143.37 19.7676 140.924 18.0636 140.924 18.0636L141.005 16.8313Z" fill="#773A79"/>
<path d="M141.146 18.2239C141.146 18.2239 143.858 20.0365 143.641 21.0886C143.323 22.6292 140.176 23.2582 139.63 22.3193C139.084 21.3803 139.949 18.5275 139.949 18.5275L141.146 18.2239Z" fill="#773A79"/>
<path d="M139.865 18.7885C139.865 18.7885 138.98 21.9285 137.912 22.0471C136.348 22.2207 134.778 19.4223 135.502 18.6126C136.226 17.803 139.207 17.7439 139.207 17.7439L139.865 18.7885Z" fill="#773A79"/>
<path d="M144.341 17.388C143.976 17.547 143.07 18 142.393 19.0263C141.699 20.0789 141.652 21.1191 141.655 21.5147C141.561 21.3327 140.95 20.1917 139.584 19.8457C138.519 19.5761 137.653 19.9557 137.406 20.0747C137.588 19.7599 137.968 19.0048 137.933 17.9856C137.89 16.717 137.232 15.865 137.012 15.6027C137.361 15.6745 138.301 15.8193 139.351 15.3726C140.578 14.8507 141.142 13.8672 141.297 13.5732C141.284 13.8673 141.268 14.9799 142.068 16.0123C142.908 17.0975 144.065 17.3382 144.341 17.388Z" fill="#9A4D89"/>
<path d="M140.264 18.9065C141.002 18.9065 141.6 18.3082 141.6 17.5702C141.6 16.8322 141.002 16.2339 140.264 16.2339C139.526 16.2339 138.927 16.8322 138.927 17.5702C138.927 18.3082 139.526 18.9065 140.264 18.9065Z" fill="#BD62B2"/>
<path d="M46.1153 13.3313C46.1153 13.3313 45.2653 16.3362 44.2432 16.4489C42.7465 16.6139 41.2452 13.9342 41.939 13.1597C42.6329 12.3853 45.4856 12.3309 45.4856 12.3309L46.1153 13.3313Z" fill="#454CA6"/>
<path d="M45.224 12.3317C45.224 12.3317 42.1034 12.4519 41.6804 11.5146C41.061 10.1422 43.1456 7.88627 44.0966 8.30681C45.0475 8.72735 45.9808 11.4237 45.9808 11.4237L45.224 12.3317Z" fill="#454CA6"/>
<path d="M45.8991 11.1744C45.8991 11.1744 44.8205 8.24367 45.5812 7.55172C46.695 6.53851 49.4847 7.82403 49.3786 8.85838C49.2725 9.89274 46.9965 11.6135 46.9965 11.6135L45.8991 11.1744Z" fill="#454CA6"/>
<path d="M47.2079 11.4587C47.2079 11.4587 49.6619 9.52731 50.555 10.0369C51.8629 10.7832 51.5023 13.8336 50.4858 14.0523C49.4693 14.271 47.1294 12.6382 47.1294 12.6382L47.2079 11.4587Z" fill="#454CA6"/>
<path d="M47.342 12.7917C47.342 12.7917 49.9372 14.5288 49.7285 15.5357C49.423 17.0101 46.4104 17.6098 45.8883 16.7107C45.3662 15.8115 46.196 13.0815 46.196 13.0815L47.342 12.7917Z" fill="#454CA6"/>
<path d="M47.3938 8.30347C47.4304 8.68232 47.5739 9.64159 48.3073 10.5618C49.0595 11.5055 49.9923 11.8564 50.353 11.9717C50.1597 12.0029 48.9401 12.2204 48.22 13.3617C47.6589 14.251 47.7477 15.1517 47.7827 15.4117C47.5503 15.1525 46.9757 14.5829 46.0378 14.3125C44.8704 13.9759 43.8999 14.3219 43.596 14.4444C43.7647 14.1481 44.1752 13.3356 44.08 12.2475C43.9688 10.9762 43.2411 10.1705 43.0195 9.94239C43.2831 10.0418 44.291 10.3863 45.4677 9.9645C46.7046 9.52116 47.2665 8.54009 47.3938 8.30347Z" fill="#3D7BC0"/>
<path d="M46.3508 13.3473C47.0572 13.3473 47.6299 12.7746 47.6299 12.0682C47.6299 11.3618 47.0572 10.7892 46.3508 10.7892C45.6444 10.7892 45.0718 11.3618 45.0718 12.0682C45.0718 12.7746 45.6444 13.3473 46.3508 13.3473Z" fill="#6CC0E5"/>
<defs>
<linearGradient id="paint0_linear_113_276" x1="161.15" y1="7.03824" x2="159.248" y2="46.9678" gradientUnits="userSpaceOnUse">
<stop stop-color="#7F6F57" stop-opacity="0"/>
<stop offset="1" stop-color="#443A2F"/>
</linearGradient>
<linearGradient id="paint1_linear_113_276" x1="245.923" y1="28.9081" x2="245.923" y2="46.8644" gradientUnits="userSpaceOnUse">
<stop stop-color="#4B4133"/>
<stop offset="1" stop-color="#241F17"/>
</linearGradient>
</defs>
</svg>
