<svg width="291" height="245" viewBox="0 0 291 245" fill="none" xmlns="http://www.w3.org/2000/svg">
<g clip-path="url(#clip0_224_2)">
<path d="M219.265 215.247C219.221 214.896 219.183 214.544 219.152 214.188C219.109 213.752 219.076 213.312 219.052 212.868C219.013 212.187 218.995 211.517 219.001 210.844C219.01 207.837 219.414 204.915 220.169 202.127C220.921 199.342 222.022 196.689 223.423 194.225C226.19 189.352 230.133 185.216 234.893 182.217C239.622 179.234 245.152 177.382 251.13 177.051C251.972 177.006 252.81 176.99 253.638 177.006C254.399 177.019 255.155 177.056 255.905 177.121C257.912 177.29 259.873 177.636 261.771 178.142C262.854 178.43 263.911 178.771 264.95 179.161C267.817 180.24 270.508 181.697 272.955 183.472C273.65 183.976 274.324 184.506 274.975 185.061C275.894 185.837 276.768 186.664 277.596 187.533C278.587 188.567 279.513 189.664 280.365 190.82C282.818 194.14 284.686 197.928 285.803 202.042C286.095 203.116 286.336 204.213 286.526 205.328C286.732 206.573 286.877 207.844 286.948 209.133C287.005 210.175 287.014 211.212 286.976 212.237C286.96 212.75 286.93 213.257 286.889 213.762C286.565 217.841 285.508 221.736 283.848 225.302C281.739 229.847 278.646 233.865 274.834 237.063C269.397 241.626 262.497 244.527 254.865 244.947C252.481 245.08 250.144 244.962 247.873 244.616C246.842 244.46 245.829 244.259 244.832 244.009L244.829 244.01C242.98 243.555 241.188 242.946 239.469 242.198C238.912 241.955 238.365 241.701 237.825 241.43C235.569 240.306 233.454 238.932 231.515 237.348C231.059 236.977 230.615 236.594 230.18 236.2C228.6 234.776 227.16 233.203 225.87 231.502C225.51 231.023 225.159 230.536 224.824 230.038C222.946 227.265 221.463 224.188 220.464 220.894L220.464 220.891C219.911 219.072 219.505 217.187 219.265 215.247Z" fill="#524351"/>
<path d="M231.514 237.35C234.35 233.419 236.48 231.118 237.958 229.776C239.734 228.167 240.571 227.941 240.571 227.941C249.912 221.802 258.796 225.569 271.742 222.251C276.255 221.094 280.364 219.335 286.89 213.76C286.564 217.842 285.508 221.736 283.85 225.304C280.972 227.08 277.52 228.691 273.494 229.66C263.963 231.955 255.223 230.426 247.043 233.401C243.544 234.673 241.707 236.015 237.825 241.431C235.569 240.304 233.454 238.933 231.514 237.35Z" fill="#714F5D"/>
<path d="M219 210.843C219.021 204.832 220.621 199.154 223.422 194.226C226.315 192.916 229.796 191.584 233.806 190.514C242.302 188.247 246.167 189.022 252.562 186.737C255.932 185.531 260.289 183.375 264.952 179.162C267.818 180.24 270.507 181.697 272.955 183.474C269.508 187.935 266.008 190.034 263.265 191.118C258.786 192.889 256.283 191.972 247.958 193.399C245.912 193.748 239.766 194.802 235.061 196.724C231.624 198.127 225.058 201.589 219 210.843Z" fill="#714F5D"/>
<path d="M247.872 244.617C250.477 242.172 255.208 239.181 259.985 237.712C265.439 236.034 271.564 236.155 274.833 237.062C269.399 241.625 262.496 244.528 254.866 244.948C252.483 245.079 250.143 244.961 247.872 244.617Z" fill="#714F5D"/>
<path d="M234.893 182.217C239.621 179.235 245.154 177.381 251.133 177.052C251.974 177.006 252.811 176.99 253.641 177.006C251.666 178.928 247.823 181.213 243.791 182.113C240.721 182.799 237.463 182.7 234.893 182.217Z" fill="#714F5D"/>
<path d="M224.825 230.039C227.204 223.338 230.639 219.893 233.225 218.011C237.839 214.65 242.76 213.464 257.11 211.911C267.142 210.825 272.225 211.381 276.687 209.214C280.615 207.303 283.589 204.637 285.804 202.043C284.687 197.93 282.819 194.139 280.368 190.821C272.349 191.878 268.449 193.548 265.378 195.612C261.753 198.045 259.957 200.406 253.994 203.267C250.085 205.144 246.182 205.895 244.996 206.117C239.181 207.201 237.59 206.113 233.434 207.537C229.282 208.96 226.653 211.493 225.724 212.408C222.943 215.145 221.366 218.246 220.464 220.893L220.464 220.895C221.462 224.189 222.946 227.264 224.825 230.039ZM270.421 199.128C272.797 198.377 276.235 198.677 276.967 200.404C277.748 202.246 275.273 205.291 272.502 206.337C269.808 207.355 266.06 206.776 265.396 204.969C264.701 203.077 267.466 200.061 270.421 199.128Z" fill="#714F5D"/>
<path d="M239.47 242.198C241.415 239.989 245.062 237.703 248.369 236.397C253.212 234.487 257.794 234.486 257.906 234.975C258.035 235.549 251.693 235.556 247.355 240.277C246.193 241.543 245.445 242.852 244.833 244.009L244.829 244.01C242.98 243.555 241.189 242.946 239.47 242.198Z" fill="#3B3654"/>
<path d="M257.881 218.557C257.815 218.063 265.95 218.615 274.895 214.095C279.792 211.618 283.543 208.323 286.526 205.328C286.732 206.573 286.878 207.844 286.948 209.133C287.005 210.175 287.015 211.212 286.976 212.237C283.442 214.008 279.62 215.466 276.394 216.431C266.659 219.342 257.949 219.07 257.881 218.557Z" fill="#3B3654"/>
<path d="M225.87 231.502C228.088 228.105 231.531 225.068 234.192 223.239C240.975 218.576 248.187 217.973 248.307 218.34C248.433 218.736 239.737 219.252 234.45 225.667C231.737 228.959 230.719 232.84 230.18 236.2C228.6 234.776 227.16 233.203 225.87 231.502Z" fill="#3B3654"/>
<path d="M219.265 215.247C219.221 214.896 219.184 214.544 219.152 214.188C220.447 212.243 222.381 209.739 224.918 207.258C228.564 203.699 235.562 196.86 242.582 198.205C245.007 198.669 246.111 199.859 248.767 199.559C251.525 199.249 252.108 197.278 255.973 195.144C257.857 194.1 257.661 194.557 262.691 192.617C267.961 190.588 270.598 189.575 272.097 188.29C273.449 187.135 274.278 185.992 274.975 185.061C275.894 185.837 276.768 186.664 277.597 187.533C276.466 188.087 275.031 188.74 273.247 189.528C263.079 194.017 262.957 193.503 259.65 195.38C253.253 199.007 253.722 200.919 249.294 202.147C244.491 203.478 243.303 201.407 237.642 202.631C232.998 203.636 229.809 205.891 227.35 207.627C223.56 210.309 220.905 213.229 219.265 215.247Z" fill="#3B3654"/>
<path d="M238.107 186.524C238.035 186.135 243.868 186.455 249.72 182.768C252.39 181.086 254.312 179.041 255.905 177.121C257.912 177.29 259.874 177.636 261.772 178.142C258.882 180.597 254.814 183.126 250.431 184.708C244.096 186.992 238.176 186.917 238.107 186.524Z" fill="#3B3654"/>
<path d="M286.955 212.738C286.92 213.417 286.866 214.088 286.792 214.754L286.791 214.756C286.134 220.731 283.942 226.208 280.635 230.811C277.366 235.364 273.006 239.062 267.958 241.538C262.94 244.003 257.242 245.261 251.262 244.955C250.421 244.912 249.587 244.839 248.763 244.735C244.833 244.247 241.123 243.092 237.744 241.394C235.007 240.019 232.488 238.285 230.242 236.259C227.648 233.92 225.421 231.191 223.649 228.168C221.564 224.609 220.107 220.642 219.432 216.434C219.057 214.108 218.92 211.709 219.045 209.263C219.125 207.699 219.31 206.164 219.592 204.668C220.348 200.644 221.81 196.883 223.837 193.511C226.417 189.215 229.917 185.55 234.048 182.773C239.934 178.811 247.106 176.655 254.738 177.046C257.121 177.168 259.436 177.533 261.658 178.115C265.13 179.025 268.377 180.469 271.311 182.347C273.434 183.706 275.393 185.294 277.154 187.074C279.484 189.426 281.468 192.112 283.032 195.051C284.607 198.01 285.756 201.224 286.4 204.606L286.4 204.608C286.9 207.23 287.097 209.952 286.955 212.738Z" fill="url(#paint0_linear_224_2)"/>
</g>
<path d="M55.3779 74.3241C57.1138 75.5454 60.1308 77.3074 64.2748 78.0546C72.4837 79.5349 78.9617 75.9238 80.6386 74.921" stroke="#355B20" stroke-width="0.966151" stroke-miterlimit="10"/>
<path d="M54.7603 77.4633C55.2335 78.2482 58.181 82.9631 63.9482 84.0004C71.3216 85.3266 76.3953 79.3991 76.6701 79.0668" stroke="#355B20" stroke-width="0.966151" stroke-miterlimit="10"/>
<path d="M101.636 83.6817C102.112 84.1943 105.383 87.6042 110.493 87.3856C114.599 87.21 117.239 84.806 117.901 84.1648" stroke="#355B20" stroke-width="0.966151" stroke-miterlimit="10"/>
<path d="M161.021 76.9616C161.381 77.301 163.992 79.6794 167.785 79.2162C171.019 78.8211 172.875 76.632 173.26 76.1564" stroke="#355B20" stroke-width="0.966151" stroke-miterlimit="10"/>
<path d="M94.728 68.6131C95.4416 69.5188 99.9162 75.0039 108.068 75.8093C116.629 76.6552 122.396 71.6625 123.216 70.9284" stroke="#355B20" stroke-width="0.966151" stroke-miterlimit="10"/>
<path d="M94.615 103.076H79.3437C79.0296 103.076 78.748 103.27 78.6359 103.563L76.8605 108.212C76.7484 108.506 76.4668 108.7 76.1527 108.7H61.6766C61.1092 108.7 60.7432 108.099 61.0033 107.595L81.8339 67.2135C81.9639 66.9615 82.2237 66.8032 82.5072 66.8032H95.7232C96.015 66.8032 96.2808 66.9708 96.4067 67.2341L115.714 107.615C115.954 108.118 115.587 108.7 115.03 108.7H97.9118C97.6031 108.7 97.3253 108.513 97.2095 108.226L95.3174 103.549C95.2016 103.263 94.9238 103.076 94.615 103.076ZM91.5468 94.0727L87.4461 83.8946C87.1883 83.2547 86.2791 83.2643 86.0348 83.9094L82.181 94.0876C81.9933 94.5833 82.3595 95.1135 82.8895 95.1135H90.844C91.3808 95.1135 91.7474 94.5707 91.5468 94.0727Z" fill="#454654"/>
<path d="M60.0469 108.565L61.0785 106.343L67.1885 101.74H69.8865L73.3779 103.407L72.5844 106.422L63.9351 110.469L60.0469 108.565Z" fill="#697976"/>
<path d="M76.1455 102.278L77.5763 100.939L81.5438 99.7379L83.5683 101.76L82.1225 103.83L78.3881 104.58L76.1455 102.278Z" fill="#708080"/>
<path d="M106.791 106.631L106.008 103.107L107.896 101.732L113.563 101.703L115.541 106.387L113.379 108.159L106.791 106.631Z" fill="#697976"/>
<path d="M91.5625 99.0222L93.8637 98.2287L98.9422 98.6254L100.609 101.879L97.1965 104.29L91.5625 102.355V99.0222Z" fill="#697976"/>
<path d="M89.8872 95.7694V96.7945H92.0297L94.7277 94.8901V92.8269L92.3074 92.3559L89.8872 95.7694Z" fill="#7E8E8D"/>
<path d="M72.8584 108.467V107.277L75.3976 105.452H78.0956V107.912L75.0802 109.499L72.8584 108.467Z" fill="#708080"/>
<path d="M101.348 94.4717L107.158 96.6413L107.508 100.146L105.431 101.259L100.851 97.7618L101.348 94.4717Z" fill="#708080"/>
<path d="M97.1964 106.007L96.0854 108.308L99.0215 109.499L103.862 107.039L104.179 104.817L100.847 103.792L97.1964 106.007Z" fill="#7E8E8D"/>
<path d="M72.2637 91.9743L72.6844 94.3718L71.4919 99.3242L68.0164 100.457L66.1738 96.7072L68.9726 91.4488L72.2637 91.9743Z" fill="#697976"/>
<path d="M80.7371 91.4187L82.8376 92.8739L84.4699 90.1587L82.7926 84.9946L80.6471 84.3356L79.1162 87.4684L80.7371 91.4187Z" fill="#7E8E8D"/>
<path d="M75.5656 96.9168L76.1607 97.6745L75.3032 100.226L73.4227 101.703L72.1929 100.137L73.5012 97.4765L75.5656 96.9168Z" fill="#7E8E8D"/>
<path d="M98.4167 93.5888L97.4375 92.8293L97.7102 89.3775L99.5952 86.9472L101.619 88.5168L100.818 92.2456L98.4167 93.5888Z" fill="#708080"/>
<path d="M96.1801 66.8032H82.0109C81.1683 68.4596 80.3256 70.116 79.4829 71.7724C79.9689 72.7699 80.833 74.1478 82.1917 74.4102C83.8867 74.7375 84.708 73.0116 86.6207 73.2142C88.482 73.4113 88.5484 75.1351 90.9326 75.7935C91.2642 75.8851 93.1713 76.3787 95.0897 75.4135C97.5674 74.1669 98.1532 71.448 98.2324 71.0496C97.5483 69.6341 96.8642 68.2187 96.1801 66.8032Z" fill="#3A3652"/>
<path d="M94.8842 69.8006C97.1418 69.8006 98.9719 68.8774 98.9719 67.7385C98.9719 66.5997 97.1418 65.6765 94.8842 65.6765C92.6266 65.6765 90.7964 66.5997 90.7964 67.7385C90.7964 68.8774 92.6266 69.8006 94.8842 69.8006Z" fill="#5E8054"/>
<path d="M89.5662 67.0021C92.9254 67.0021 95.6485 66.1581 95.6485 65.117C95.6485 64.0758 92.9254 63.2318 89.5662 63.2318C86.207 63.2318 83.4839 64.0758 83.4839 65.117C83.4839 66.1581 86.207 67.0021 89.5662 67.0021Z" fill="#5E8054"/>
<path d="M84.4449 70.89C87.5338 70.89 90.0378 69.5977 90.0378 68.0035C90.0378 66.4093 87.5338 65.117 84.4449 65.117C81.3561 65.117 78.8521 66.4093 78.8521 68.0035C78.8521 69.5977 81.3561 70.89 84.4449 70.89Z" fill="#5E8054"/>
<path d="M90.797 77.9249C91.674 77.9249 92.385 77.214 92.385 76.3369C92.385 75.4599 91.674 74.7489 90.797 74.7489C89.92 74.7489 89.209 75.4599 89.209 76.3369C89.209 77.214 89.92 77.9249 90.797 77.9249Z" fill="#5E8054"/>
<path d="M92.385 65.948H89.209V76.3369H92.385V65.948Z" fill="#5E8054"/>
<path d="M84.7413 100.25C85.6184 100.25 86.3293 99.5387 86.3293 98.6617C86.3293 97.7846 85.6184 97.0737 84.7413 97.0737C83.8643 97.0737 83.1533 97.7846 83.1533 98.6617C83.1533 99.5387 83.8643 100.25 84.7413 100.25Z" fill="#5E8054"/>
<path d="M86.3293 95.1156H83.1533V98.6617H86.3293V95.1156Z" fill="#5E8054"/>
<path d="M115.268 87.8403C115.268 73.8754 124.62 66.1653 141.493 66.1653C157.963 66.1653 166.242 72.0333 163.564 83.7098C163.485 84.054 163.17 84.302 162.817 84.302H149.133C148.666 84.302 148.301 83.8786 148.388 83.4191C149.29 78.6196 146.763 76.5929 141.871 76.5929C135.616 76.5929 133.025 79.9419 133.025 87.8403C133.025 95.8034 135.678 99.1524 141.871 99.1524C146.666 99.1524 148.846 97.3335 148.034 92.24C147.962 91.7866 148.326 91.3796 148.785 91.3796H163.197C163.55 91.3796 163.865 91.6272 163.944 91.971C166.618 103.579 158.272 109.263 141.493 109.263C124.494 109.263 115.268 101.743 115.268 87.8403Z" fill="#454654"/>
<path d="M124.758 106.421L124.497 102.821L126.564 101.735L132.175 102.531L133.451 107.453L131.054 108.892L124.758 106.421Z" fill="#697976"/>
<path d="M131.372 94.5938L130.083 93.2133L128.568 87.7671L129.352 86.0108L131.558 84.2697L133.483 85.7484L133.863 92.6703L131.372 94.5938Z" fill="#697976"/>
<path d="M137.037 99.2047L138.874 98.524L142.997 98.9533L144.081 101.601L141.946 102.95L138.213 102.195L137.037 99.2047Z" fill="#708080"/>
<path d="M153.703 108.487L154.797 105.047L153.04 103.509L147.398 102.974L145.009 107.463L147.004 109.421L153.703 108.487Z" fill="#697976"/>
<path d="M147.976 94.8479L150.391 95.15L154.775 97.7447L154.837 101.4L150.711 102.059L146.507 97.8395L147.976 94.8479Z" fill="#7E8E8D"/>
<path d="M134.213 104.213L135.004 104.864L136.366 103.21L136.61 99.9169L135.018 98.6057L133.116 100.175L134.213 104.213Z" fill="#7E8E8D"/>
<path d="M120.852 83.8351L121.994 84.1722L123.025 87.1244L122.261 89.7119L119.901 89.0152L119.233 85.6738L120.852 83.8351Z" fill="#7E8E8D"/>
<path d="M161.989 84.7622L155.792 85.0298L154.103 81.9394L155.582 80.1043L161.163 81.5389L161.989 84.7622Z" fill="#708080"/>
<path d="M137.414 106.693L137.029 109.22L140.186 109.493L144.088 105.718L143.737 103.501L140.251 103.502L137.414 106.693Z" fill="#708080"/>
<path d="M127.718 93.3871L127.863 95.8169L126.116 100.602L122.534 101.332L121.129 97.3972L124.508 92.491L127.718 93.3871Z" fill="#708080"/>
<path d="M116.888 97.7427L118.988 99.198L120.621 96.4828L118.943 91.3187L116.798 90.6596L115.267 93.7925L116.888 97.7427Z" fill="#708080"/>
<path d="M148.29 85.0298L147.745 84.2355L148.764 81.7439L150.736 80.3907L151.862 82.0323L150.386 84.6038L148.29 85.0298Z" fill="#7E8E8D"/>
<path d="M159.558 102.164L158.876 99.8241L159.539 94.7731L162.91 93.2788L165.168 96.8122L162.923 102.338L159.558 102.164Z" fill="#697976"/>
<path d="M119.292 74.6135C119.661 75.2083 120.428 76.2712 121.779 77.1191C122.323 77.4609 123.671 78.3071 125.2 78.2764C128.436 78.2114 129.172 74.2867 132.126 74.2563C134.106 74.2359 134.348 75.9922 136.406 75.96C139.182 75.9166 139.772 72.7018 142.288 72.6646C144.39 72.6336 144.555 74.8673 148.097 76.2507C149.172 76.6705 151.532 77.3923 154.273 76.7956C156.478 76.3155 158.042 75.1753 158.995 74.4797C160.104 73.671 160.921 72.8493 161.475 72.2245C161.293 72.0185 161.006 71.7034 160.633 71.3417C155.212 66.0807 147.298 66.1295 141.493 66.1653C138.407 66.1843 133.248 66.2573 128.131 68.3048C126.323 69.0281 123.006 70.3977 120.128 73.6096C119.763 74.0177 119.479 74.3716 119.292 74.6135Z" fill="#3A3652"/>
<path d="M134.08 71.4731C138.519 71.4731 142.117 69.9024 142.117 67.9648C142.117 66.0271 138.519 64.4564 134.08 64.4564C129.642 64.4564 126.044 66.0271 126.044 67.9648C126.044 69.9024 129.642 71.4731 134.08 71.4731Z" fill="#5E8054"/>
<path d="M125.404 71.9798C128.172 71.9798 130.416 70.8838 130.416 69.5317C130.416 68.1796 128.172 67.0835 125.404 67.0835C122.636 67.0835 120.393 68.1796 120.393 69.5317C120.393 70.8838 122.636 71.9798 125.404 71.9798Z" fill="#5E8054"/>
<path d="M123.214 74.6964C125.095 74.6964 126.62 73.8529 126.62 72.8124C126.62 71.7719 125.095 70.9284 123.214 70.9284C121.334 70.9284 119.809 71.7719 119.809 72.8124C119.809 73.8529 121.334 74.6964 123.214 74.6964Z" fill="#5E8054"/>
<path d="M147.093 70.7544C152.639 70.7544 157.134 69.242 157.134 67.3764C157.134 65.5107 152.639 63.9983 147.093 63.9983C141.548 63.9983 137.053 65.5107 137.053 67.3764C137.053 69.242 141.548 70.7544 147.093 70.7544Z" fill="#5E8054"/>
<path d="M156.694 71.5247C159.363 71.5247 161.526 70.4169 161.526 69.0504C161.526 67.6839 159.363 66.5761 156.694 66.5761C154.026 66.5761 151.863 67.6839 151.863 69.0504C151.863 70.4169 154.026 71.5247 156.694 71.5247Z" fill="#5E8054"/>
<path d="M149.903 73.7513C152.628 73.7513 154.837 72.7313 154.837 71.4732C154.837 70.215 152.628 69.195 149.903 69.195C147.179 69.195 144.97 70.215 144.97 71.4732C144.97 72.7313 147.179 73.7513 149.903 73.7513Z" fill="#5E8054"/>
<path d="M156.694 97.1762C157.571 97.1762 158.282 96.4652 158.282 95.5881C158.282 94.7111 157.571 94.0001 156.694 94.0001C155.817 94.0001 155.106 94.7111 155.106 95.5881C155.106 96.4652 155.817 97.1762 156.694 97.1762Z" fill="#5E8054"/>
<path d="M158.282 91.3828H155.106V95.5882H158.282V91.3828Z" fill="#5E8054"/>
<path d="M147.226 69.2923C150.654 69.2923 153.432 68.4507 153.432 67.4126C153.432 66.3745 150.654 65.533 147.226 65.533C143.798 65.533 141.02 66.3745 141.02 67.4126C141.02 68.4507 143.798 69.2923 147.226 69.2923Z" fill="#60975F"/>
<path d="M192.305 92.9404L188.793 96.3549C188.646 96.4977 188.563 96.6938 188.563 96.8987V107.89C188.563 108.309 188.224 108.649 187.805 108.649H172.196C171.777 108.649 171.438 108.309 171.438 107.89V67.5102C171.438 67.0914 171.777 66.7519 172.196 66.7519H187.805C188.224 66.7519 188.563 67.0914 188.563 67.5102V80.3422C188.563 81.0886 189.528 81.386 189.948 80.7691L199.27 67.0833C199.411 66.8759 199.646 66.7519 199.897 66.7519H217.588C218.27 66.7519 218.605 67.5819 218.114 68.0557L205.114 80.612C204.859 80.8584 204.809 81.2488 204.993 81.5518L220.785 107.496C221.093 108.001 220.729 108.649 220.137 108.649H200.322C200.013 108.649 199.736 108.461 199.619 108.176L193.536 93.1988C193.334 92.7002 192.691 92.5653 192.305 92.9404Z" fill="#454654"/>
<path d="M214.866 102.284L213.987 99.9479L208.203 94.8447L205.511 94.6658L201.914 96.1354L202.501 99.2661L210.857 103.971L214.866 102.284Z" fill="#697976"/>
<path d="M209.027 105.385L207.936 103.756L204.343 101.689L201.914 103.2L202.854 105.545L206.322 107.119L209.027 105.385Z" fill="#708080"/>
<path d="M178.965 108.093L179.747 104.569L177.86 103.194L172.193 103.165L170.214 107.849L172.376 109.621L178.965 108.093Z" fill="#697976"/>
<path d="M189.229 96.4217L186.928 95.6282L181.849 96.0249L180.183 99.2783L183.595 101.689L189.229 99.7544V96.4217Z" fill="#697976"/>
<path d="M195.791 92.4853V93.5104H193.648L190.95 91.606V89.5428L193.37 89.0718L195.791 92.4853Z" fill="#7E8E8D"/>
<path d="M204.226 108.312L204.038 107.137L201.242 105.736L198.578 106.162L198.966 108.591L202.195 109.682L204.226 108.312Z" fill="#7E8E8D"/>
<path d="M176.983 93.9038L171.173 96.0735L170.822 99.578L172.899 100.691L177.48 97.1939L176.983 93.9038Z" fill="#708080"/>
<path d="M189.092 105.755L190.203 108.056L187.267 109.247L182.427 106.787L182.109 104.565L185.442 103.54L189.092 105.755Z" fill="#7E8E8D"/>
<path d="M204.008 84.8963L203.862 87.3261L205.61 92.1109L209.192 92.8411L210.596 88.9064L207.218 84.0002L204.008 84.8963Z" fill="#708080"/>
<path d="M199.416 101.541L197.211 102.831L195.791 99.9992L197.859 94.9787L200.048 94.4858L201.335 97.7266L199.416 101.541Z" fill="#708080"/>
<path d="M216.192 101.577L215.597 102.335L216.454 104.887L218.335 106.364L219.565 104.798L218.256 102.137L216.192 101.577Z" fill="#7E8E8D"/>
<path d="M179.554 95.0478L180.739 94.6855L181.71 91.3619L180.811 88.4206L178.361 89.1692L177.786 92.9395L179.554 95.0478Z" fill="#7E8E8D"/>
<path d="M180.611 102.543L180.865 101.614L179.081 99.5969L176.774 98.9686L176.251 100.89L178.492 102.831L180.611 102.543Z" fill="#708080"/>
<path d="M182.297 83.9513L185.135 81.7209L187.191 82.827L189.67 87.9234L186.304 91.7342L183.771 90.5523L182.297 83.9513Z" fill="#697976"/>
<path d="M209.963 107.146L210.414 108.3L213.802 109.015L216.666 107.896L215.734 105.511L211.931 105.223L209.963 107.146Z" fill="#708080"/>
<path d="M171.438 66.7519V73.33C172.099 74.398 173.013 75.526 173.947 75.3353C175.43 75.0324 175.769 71.6468 176.896 71.6734C177.978 71.6989 178.047 74.8235 180.038 75.9456C180.322 76.1054 181.526 76.721 182.603 76.0328C184.283 74.9599 184.222 71.6351 185.36 71.499C185.979 71.4251 186.22 72.5113 186.899 72.4581C187.658 72.3986 188.215 71.0054 188.563 69.8634V66.7519L171.438 66.7519Z" fill="#3A3652"/>
<path d="M199.495 66.7519H219.464C215.022 70.9929 212.571 71.455 211.133 70.9615C210.586 70.7738 209.968 70.3731 209.041 70.4926C207.178 70.7326 206.785 72.7207 205.361 72.729C204.013 72.7369 203.763 70.9574 202.295 70.8894C200.785 70.8193 200.108 72.6621 198.905 72.4405C198.392 72.346 197.743 71.8694 197.172 70.1626C197.946 69.0257 198.721 67.8888 199.495 66.7519Z" fill="#3A3652"/>
<path d="M209.962 68.0778C213.932 68.0778 217.151 66.7593 217.151 65.1328C217.151 63.5063 213.932 62.1877 209.962 62.1877C205.991 62.1877 202.772 63.5063 202.772 65.1328C202.772 66.7593 205.991 68.0778 209.962 68.0778Z" fill="#5E8054"/>
<path d="M202.574 68.4417C205.145 68.4417 207.229 67.5344 207.229 66.4151C207.229 65.2958 205.145 64.3884 202.574 64.3884C200.003 64.3884 197.918 65.2958 197.918 66.4151C197.918 67.5344 200.003 68.4417 202.574 68.4417Z" fill="#5E8054"/>
<path d="M215.596 68.7804C218.433 68.7804 220.733 67.8584 220.733 66.7211C220.733 65.5838 218.433 64.6618 215.596 64.6618C212.759 64.6618 210.459 65.5838 210.459 66.7211C210.459 67.8584 212.759 68.7804 215.596 68.7804Z" fill="#5E8054"/>
<path d="M207.229 70.1865C209.013 70.1865 210.459 69.557 210.459 68.7804C210.459 68.0038 209.013 67.3742 207.229 67.3742C205.445 67.3742 203.999 68.0038 203.999 68.7804C203.999 69.557 205.445 70.1865 207.229 70.1865Z" fill="#5E8054"/>
<path d="M210.884 77.6996C211.761 77.6996 212.472 76.9887 212.472 76.1116C212.472 75.2346 211.761 74.5236 210.884 74.5236C210.007 74.5236 209.296 75.2346 209.296 76.1116C209.296 76.9887 210.007 77.6996 210.884 77.6996Z" fill="#5E8054"/>
<path d="M209.297 76.1116H212.473V67.8264H209.297V76.1116Z" fill="#5E8054"/>
<path d="M174.826 68.3381C177.74 68.3381 180.101 67.2106 180.101 65.8197C180.101 64.4288 177.74 63.3013 174.826 63.3013C171.913 63.3013 169.552 64.4288 169.552 65.8197C169.552 67.2106 171.913 68.3381 174.826 68.3381Z" fill="#5E8054"/>
<path d="M183.93 69.0661C187.818 69.0661 190.969 67.4843 190.969 65.533C190.969 63.5818 187.818 62 183.93 62C180.043 62 176.891 63.5818 176.891 65.533C176.891 67.4843 180.043 69.0661 183.93 69.0661Z" fill="#5E8054"/>
<path d="M185.984 70.7827C187.969 70.7827 189.579 70.0141 189.579 69.066C189.579 68.118 187.969 67.3494 185.984 67.3494C183.998 67.3494 182.388 68.118 182.388 69.066C182.388 70.0141 183.998 70.7827 185.984 70.7827Z" fill="#5E8054"/>
<path d="M183.761 66.5982C186.413 66.5982 188.563 65.7757 188.563 64.7611C188.563 63.7465 186.413 62.924 183.761 62.924C181.109 62.924 178.959 63.7465 178.959 64.7611C178.959 65.7757 181.109 66.5982 183.761 66.5982Z" fill="#60975F"/>
<path d="M13.0274 67.0753H28.6363C29.0552 67.0753 29.3947 67.4148 29.3947 67.8336V81.7989C29.3947 82.2178 29.7342 82.5573 30.153 82.5573H40.0113C40.4301 82.5573 40.7696 82.2178 40.7696 81.7989V67.8336C40.7696 67.4148 41.1091 67.0753 41.528 67.0753H57.1359C57.5547 67.0753 57.8942 67.4148 57.8942 67.8336V108.214C57.8942 108.632 57.5547 108.972 57.1359 108.972H41.528C41.1091 108.972 40.7696 108.632 40.7696 108.214V93.6795C40.7696 93.2607 40.4301 92.9211 40.0113 92.9211H30.153C29.7342 92.9211 29.3947 93.2607 29.3947 93.6795V108.214C29.3947 108.632 29.0552 108.972 28.6363 108.972H13.0274C12.6086 108.972 12.269 108.632 12.269 108.214V67.8336C12.269 67.4148 12.6086 67.0753 13.0274 67.0753Z" fill="#454654"/>
<path d="M29.3645 104.178L30.2342 102.422L30.2397 98.2768L27.72 96.9215L26.1543 98.9033L26.5138 102.695L29.3645 104.178Z" fill="#697976"/>
<path d="M19.8361 96.6785L18.7536 93.2352L16.4317 92.9868L11.5078 95.7929L12.1341 100.839L14.8922 101.294L19.8361 96.6785Z" fill="#697976"/>
<path d="M23.1196 95.5461L20.961 96.6712L17.7568 100.631L18.973 104.078L23.0697 103.259L25.5393 97.8379L23.1196 95.5461Z" fill="#708080"/>
<path d="M24.6239 94.1479L23.711 94.6143L22.7363 92.7064L23.2049 89.4374L25.0422 88.4988L26.5626 90.4398L24.6239 94.1479Z" fill="#7E8E8D"/>
<path d="M19.8402 88.9083V87.718L17.301 85.8929H14.603V88.3528L17.6184 89.9398L19.8402 88.9083Z" fill="#708080"/>
<path d="M18.3719 104.499L12.1825 104.895L10.8335 108.149L12.4999 109.815L17.8958 107.792L18.3719 104.499Z" fill="#708080"/>
<path d="M28.6731 106.671L29.8744 108.926L26.9879 110.232L22.0537 107.966L21.6484 105.759L24.9379 104.602L28.6731 106.671Z" fill="#697976"/>
<path d="M52.2355 101.947L51.4936 104.281L46.0157 109.62L43.3394 109.962L39.665 108.751L40.0702 105.66L48.1373 100.55L52.2355 101.947Z" fill="#697976"/>
<path d="M51.6377 105.981L53.5189 105.431L57.6015 106.15L58.4957 108.868L56.2709 110.063L52.6002 109.047L51.6377 105.981Z" fill="#708080"/>
<path d="M50.9399 97.6297L52.9237 94.6143L55.2249 95.0111L59.1925 99.058L57.2087 103.74L54.4314 103.422L50.9399 97.6297Z" fill="#697976"/>
<path d="M44.625 87.7194L46.9262 86.9259L52.0047 87.3227L53.6711 90.5761L50.259 92.9868L44.625 91.0522V87.7194Z" fill="#697976"/>
<path d="M55.3779 92.8549L55.9489 93.7062L57.7283 92.5128L58.9082 89.4284L57.759 87.715L55.4866 88.6719L55.3779 92.8549Z" fill="#7E8E8D"/>
<path d="M40.1748 100.804V99.6138L42.7141 97.7888H45.412V100.249L42.3967 101.836L40.1748 100.804Z" fill="#7E8E8D"/>
<path d="M42.7931 93.1278L36.6253 93.7795L34.7476 90.7998L36.1094 88.8765L41.7691 89.962L42.7931 93.1278Z" fill="#708080"/>
<path d="M44.1275 81.8069L43.0166 84.1081L45.9526 85.2984L50.7931 82.8385L51.1105 80.6167L47.7777 79.5915L44.1275 81.8069Z" fill="#7E8E8D"/>
<path d="M29.3947 67.0753H12.269V74.8399C13.1744 75.5076 14.5575 76.2627 16.1645 75.9772C18.8074 75.5076 19.6664 72.6481 21.7708 73.0709C23.4133 73.4008 23.6472 75.2948 25.316 75.5981C26.9501 75.8951 28.415 74.3864 29.3947 73.0709V67.0753Z" fill="#3A3652"/>
<path d="M40.7686 67.0753C40.769 68.3816 40.7695 69.6879 40.7699 70.9942C41.8784 73.4043 42.7792 73.8571 43.3753 73.8604C44.5355 73.867 44.8817 72.1923 46.2274 72.1289C47.3896 72.0742 47.5588 73.2963 49.3531 73.7574C49.8846 73.8941 50.7527 74.1172 51.7216 73.706C53.2985 73.0369 53.4926 71.3882 54.5413 71.4413C55.5135 71.4906 55.853 72.9328 56.6229 72.7624C57.2541 72.6227 57.6632 71.5125 57.925 70.4634C57.9148 69.334 57.9047 68.2046 57.8945 67.0753H40.7686Z" fill="#3A3652"/>
<path d="M17.5197 70.1075C21.251 70.1075 24.2758 68.8772 24.2758 67.3595C24.2758 65.8419 21.251 64.6116 17.5197 64.6116C13.7885 64.6116 10.7637 65.8419 10.7637 67.3595C10.7637 68.8772 13.7885 70.1075 17.5197 70.1075Z" fill="#5E8054"/>
<path d="M32.2521 89.2781C33.1291 89.2781 33.8401 88.5672 33.8401 87.6901C33.8401 86.8131 33.1291 86.1021 32.2521 86.1021C31.375 86.1021 30.6641 86.8131 30.6641 87.6901C30.6641 88.5672 31.375 89.2781 32.2521 89.2781Z" fill="#5E8054"/>
<path d="M33.8401 82.5561H30.6641V87.6901H33.8401V82.5561Z" fill="#5E8054"/>
<path d="M35.4269 87.102C36.3039 87.102 37.0149 86.391 37.0149 85.5139C37.0149 84.6369 36.3039 83.9259 35.4269 83.9259C34.5499 83.9259 33.8389 84.6369 33.8389 85.5139C33.8389 86.391 34.5499 87.102 35.4269 87.102Z" fill="#5E8054"/>
<path d="M37.0149 82.5561H33.8389V85.5139H37.0149V82.5561Z" fill="#5E8054"/>
<path d="M21.4118 68.2511C24.5997 68.2511 27.1841 67.0722 27.1841 65.6179C27.1841 64.1637 24.5997 62.9847 21.4118 62.9847C18.2239 62.9847 15.6396 64.1637 15.6396 65.6179C15.6396 67.0722 18.2239 68.2511 21.4118 68.2511Z" fill="#5E8054"/>
<path d="M17.5102 72.4704C19.1555 72.4704 20.4892 71.7755 20.4892 70.9184C20.4892 70.0613 19.1555 69.3665 17.5102 69.3665C15.865 69.3665 14.5312 70.0613 14.5312 70.9184C14.5312 71.7755 15.865 72.4704 17.5102 72.4704Z" fill="#5E8054"/>
<path d="M44.9448 69.878C47.86 69.878 50.2232 68.6196 50.2232 67.0672C50.2232 65.5149 47.86 64.2565 44.9448 64.2565C42.0297 64.2565 39.6665 65.5149 39.6665 67.0672C39.6665 68.6196 42.0297 69.878 44.9448 69.878Z" fill="#5E8054"/>
<path d="M52.8095 69.565C56.1455 69.565 58.8499 68.092 58.8499 66.2749C58.8499 64.4578 56.1455 62.9848 52.8095 62.9848C49.4734 62.9848 46.769 64.4578 46.769 66.2749C46.769 68.092 49.4734 69.565 52.8095 69.565Z" fill="#5E8054"/>
<path d="M26.5876 70.1054C28.8389 70.1054 30.664 69.1008 30.664 67.8616C30.664 66.6225 28.8389 65.6179 26.5876 65.6179C24.3363 65.6179 22.5112 66.6225 22.5112 67.8616C22.5112 69.1008 24.3363 70.1054 26.5876 70.1054Z" fill="#5E8054"/>
<path d="M21.2338 67.0672C23.2854 67.0672 24.9485 66.438 24.9485 65.6618C24.9485 64.8856 23.2854 64.2564 21.2338 64.2564C19.1822 64.2564 17.519 64.8856 17.519 65.6618C17.519 66.438 19.1822 67.0672 21.2338 67.0672Z" fill="#60975F"/>
<path d="M41.6792 136.239C42.1262 136.728 44.9262 139.694 49.4746 139.703C54.3184 139.713 57.2228 136.362 57.6164 135.892" stroke="#355B20" stroke-width="0.966151" stroke-miterlimit="10"/>
<path d="M67.7617 118.069C67.928 118.362 71.4509 124.331 78.3116 124.476C83.2289 124.58 87.8134 121.649 89.9158 117.04" stroke="#355B20" stroke-width="0.966151" stroke-miterlimit="10"/>
<path d="M13.0498 116.799H49.8915C50.3103 116.799 50.6499 117.138 50.6499 117.557V126.34C50.6499 126.759 50.3103 127.099 49.8915 127.099H30.1755C29.7567 127.099 29.4172 127.438 29.4172 127.857V132.344C29.4172 132.763 29.7567 133.102 30.1755 133.102H43.6985C44.1173 133.102 44.4569 133.442 44.4569 133.861V141.444C44.4569 141.863 44.1173 142.202 43.6985 142.202H30.1755C29.7567 142.202 29.4172 142.542 29.4172 142.96V157.937C29.4172 158.356 29.0776 158.695 28.6588 158.695H13.0498C12.631 158.695 12.2915 158.356 12.2915 157.937V117.557C12.2915 117.138 12.631 116.799 13.0498 116.799Z" fill="#454654"/>
<path d="M23.9425 152.528L22.9916 154.64L17.359 159.015H14.8719L11.6533 157.431L12.3848 154.564L20.3582 150.717L23.9425 152.528Z" fill="#697976"/>
<path d="M23.2183 156.673L24.8846 155.641L29.0109 155.245L30.598 157.625L28.7729 159.371H24.964L23.2183 156.673Z" fill="#708080"/>
<path d="M23.2183 148.489L25.202 145.474L27.5032 145.871L31.4708 149.918L29.487 154.599L26.7097 154.282L23.2183 148.489Z" fill="#697976"/>
<path d="M17.3823 138.177L19.6835 137.384L24.762 137.78L26.4284 141.034L23.0163 143.444L17.3823 141.51V138.177Z" fill="#697976"/>
<path d="M27.3442 142.876V143.902H29.4867L32.1847 141.997V139.934L29.7645 139.463L27.3442 142.876Z" fill="#7E8E8D"/>
<path d="M11.6533 151.55V150.36L14.1926 148.534H16.8905V150.994L13.8752 152.581L11.6533 151.55Z" fill="#7E8E8D"/>
<path d="M13.5078 142.816L19.6972 143.212L21.0462 146.466L19.3798 148.132L13.9839 146.109L13.5078 142.816Z" fill="#708080"/>
<path d="M15.9683 131.572L14.8574 133.873L17.7934 135.064L22.6339 132.604L22.9513 130.382L19.6185 129.357L15.9683 131.572Z" fill="#708080"/>
<path d="M12.2915 123.255C15.4891 125.992 17.7019 126.279 19.1776 125.96C21.1988 125.521 22.0873 123.891 25.2402 123.352C25.9453 123.232 27.074 123.039 28.4996 123.287C30.8558 123.697 31.5526 124.881 33.8416 125.22C35.2863 125.433 36.4399 125.173 36.9741 125.047C40.9534 124.11 41.7762 120.825 44.0124 121.124C45.8403 121.368 46.2433 123.71 47.9101 123.621C49.1239 123.556 50.0526 122.306 50.6499 121.253V116.799H12.2915V123.255Z" fill="#3A3652"/>
<path d="M29.4165 133.102C30.7338 134.924 31.8758 135.404 32.7505 135.43C34.2536 135.475 34.7292 134.172 36.3134 134.244C38.0766 134.324 38.5364 135.986 40.0059 135.988C40.7868 135.989 41.9479 135.522 43.3808 133.102H29.4165Z" fill="#3A3652"/>
<path d="M14.8564 118.369C17.5385 118.369 19.7128 117.352 19.7128 116.098C19.7128 114.844 17.5385 113.828 14.8564 113.828C12.1743 113.828 10 114.844 10 116.098C10 117.352 12.1743 118.369 14.8564 118.369Z" fill="#5E8054"/>
<path d="M45.425 118.392C48.811 118.392 51.556 117.197 51.556 115.723C51.556 114.249 48.811 113.054 45.425 113.054C42.0389 113.054 39.2939 114.249 39.2939 115.723C39.2939 117.197 42.0389 118.392 45.425 118.392Z" fill="#5E8054"/>
<path d="M37.616 118.929C41.207 118.929 44.1182 117.662 44.1182 116.098C44.1182 114.535 41.207 113.268 37.616 113.268C34.0249 113.268 31.1138 114.535 31.1138 116.098C31.1138 117.662 34.0249 118.929 37.616 118.929Z" fill="#5E8054"/>
<path d="M21.1586 119.648C23.8445 119.648 26.0218 118.701 26.0218 117.531C26.0218 116.362 23.8445 115.414 21.1586 115.414C18.4727 115.414 16.2954 116.362 16.2954 117.531C16.2954 118.701 18.4727 119.648 21.1586 119.648Z" fill="#5E8054"/>
<path d="M26.0214 118.219C30.547 118.219 34.2157 116.863 34.2157 115.192C34.2157 113.52 30.547 112.165 26.0214 112.165C21.4958 112.165 17.8271 113.52 17.8271 115.192C17.8271 116.863 21.4958 118.219 26.0214 118.219Z" fill="#5E8054"/>
<path d="M31.8582 120.666C34.0622 120.666 35.8488 119.889 35.8488 118.929C35.8488 117.97 34.0622 117.192 31.8582 117.192C29.6543 117.192 27.8677 117.97 27.8677 118.929C27.8677 119.889 29.6543 120.666 31.8582 120.666Z" fill="#5E8054"/>
<path d="M48.6894 119.143C50.9166 119.143 52.722 118.357 52.722 117.387C52.722 116.418 50.9166 115.632 48.6894 115.632C46.4622 115.632 44.6567 116.418 44.6567 117.387C44.6567 118.357 46.4622 119.143 48.6894 119.143Z" fill="#5E8054"/>
<path d="M34.2164 138.24C35.0935 138.24 35.8044 137.529 35.8044 136.652C35.8044 135.775 35.0935 135.064 34.2164 135.064C33.3394 135.064 32.6284 135.775 32.6284 136.652C32.6284 137.529 33.3394 138.24 34.2164 138.24Z" fill="#5E8054"/>
<path d="M35.8044 133.106H32.6284V136.652H35.8044V133.106Z" fill="#5E8054"/>
<path d="M16.547 127.404C17.424 127.404 18.135 126.693 18.135 125.816C18.135 124.939 17.424 124.228 16.547 124.228C15.67 124.228 14.959 124.939 14.959 125.816C14.959 126.693 15.67 127.404 16.547 127.404Z" fill="#5E8054"/>
<path d="M18.135 117.531H14.959V125.816H18.135V117.531Z" fill="#5E8054"/>
<path d="M55.1206 142.017V117.561C55.1206 117.143 55.4601 116.803 55.8789 116.803H71.4252C71.844 116.803 72.1835 117.143 72.1835 117.561V142.017C72.1835 146.946 73.6369 148.905 78.502 148.905C83.5574 148.905 84.948 147.009 84.948 142.017V117.561C84.948 117.143 85.2876 116.803 85.7064 116.803H97.4603C97.8791 116.803 98.2186 117.143 98.2186 117.561V142.017C98.2186 153.644 91.0145 159.332 78.25 159.332C62.5777 159.332 55.1206 154.213 55.1206 142.017Z" fill="#454654"/>
<path d="M63.8913 157.782L63.1089 154.258L64.9962 152.883L70.6635 152.854L72.6418 157.538L70.4798 159.31L63.8913 157.782Z" fill="#697976"/>
<path d="M70.7427 148.844L69.2019 147.373L67.1113 140.974L67.8591 138.697L70.1968 136.2L72.456 137.684L73.3861 146.077L70.7427 148.844Z" fill="#697976"/>
<path d="M73.625 152.76L75.58 152.623L79.417 154.191L79.7141 157.037L77.2863 157.733L73.9149 155.961L73.625 152.76Z" fill="#7E8E8D"/>
<path d="M97.9551 145.744L98.7375 142.22L96.8501 140.845L91.1828 140.816L89.2046 145.5L91.3666 147.272L97.9551 145.744Z" fill="#697976"/>
<path d="M84.3843 149.312L86.6855 148.519L91.764 148.916L93.4303 152.169L90.0182 154.58L84.3843 152.645V149.312Z" fill="#7E8E8D"/>
<path d="M84.6977 141.165L85.4891 141.817L86.8508 140.163L87.0953 136.869L85.5024 135.558L83.6006 137.127L84.6977 141.165Z" fill="#7E8E8D"/>
<path d="M64.1494 142.522L65.2909 142.859L66.3221 145.812L65.5579 148.399L63.1988 147.702L62.5308 144.361L64.1494 142.522Z" fill="#7E8E8D"/>
<path d="M76.0381 148.399L82.1336 148.158L83.4826 151.263L81.8162 152.854L76.4203 150.923L76.0381 148.399Z" fill="#708080"/>
<path d="M81.4488 156.795L80.3379 159.096L83.2739 160.287L88.1144 157.827L88.4318 155.605L85.099 154.58L81.4488 156.795Z" fill="#708080"/>
<path d="M61.2841 141.936L61.4296 144.366L59.6819 149.151L56.1003 149.881L54.6958 145.946L58.0741 141.04L61.2841 141.936Z" fill="#7E8E8D"/>
<path d="M60.0398 138.372L62.1403 139.827L63.7726 137.112L62.0953 131.948L59.9498 131.289L58.4189 134.422L60.0398 138.372Z" fill="#708080"/>
<path d="M63.5705 149.156L64.1656 149.914L63.3081 152.466L61.4276 153.943L60.1978 152.377L61.5061 149.716L63.5705 149.156Z" fill="#708080"/>
<path d="M55.1206 116.803V122.417C55.713 123.234 56.5874 124.156 57.6206 124.128C59.1413 124.087 59.5971 122.026 61.0961 121.958C62.8119 121.881 63.4822 124.525 64.9301 124.334C66.4293 124.136 66.6538 121.177 68.2955 121.04C69.2243 120.963 69.652 121.868 70.5257 121.673C71.3742 121.483 71.8781 120.426 72.1835 119.458V116.803H55.1206Z" fill="#3A3652"/>
<path d="M98.2188 116.803H84.9482V122.896C85.6498 123.42 86.7216 124.013 87.9668 123.789C90.0148 123.42 90.6804 121.176 92.3111 121.508C93.5838 121.767 93.7651 123.253 95.0583 123.491C96.3245 123.724 97.4597 122.54 98.2188 121.508V116.803Z" fill="#3A3652"/>
<path d="M87.3879 118.271C90.0435 118.271 92.1962 117.334 92.1962 116.178C92.1962 115.022 90.0435 114.085 87.3879 114.085C84.7323 114.085 82.5796 115.022 82.5796 116.178C82.5796 117.334 84.7323 118.271 87.3879 118.271Z" fill="#5E8054"/>
<path d="M94.7916 119.163C97.484 119.163 99.6666 118.212 99.6666 117.04C99.6666 115.868 97.484 114.918 94.7916 114.918C92.0991 114.918 89.9165 115.868 89.9165 117.04C89.9165 118.212 92.0991 119.163 94.7916 119.163Z" fill="#5E8054"/>
<path d="M91.3092 116.921C94.003 116.921 96.1867 115.97 96.1867 114.797C96.1867 113.625 94.003 112.674 91.3092 112.674C88.6154 112.674 86.4316 113.625 86.4316 114.797C86.4316 115.97 88.6154 116.921 91.3092 116.921Z" fill="#5E8054"/>
<path d="M63.6059 118.183C67.5765 118.183 70.7953 116.781 70.7953 115.053C70.7953 113.324 67.5765 111.923 63.6059 111.923C59.6353 111.923 56.4165 113.324 56.4165 115.053C56.4165 116.781 59.6353 118.183 63.6059 118.183Z" fill="#5E8054"/>
<path d="M70.2499 118.458C72.4096 118.458 74.1604 117.695 74.1604 116.755C74.1604 115.815 72.4096 115.053 70.2499 115.053C68.0902 115.053 66.3394 115.815 66.3394 116.755C66.3394 117.695 68.0902 118.458 70.2499 118.458Z" fill="#5E8054"/>
<path d="M57.1762 118.458C59.5739 118.458 61.5175 117.612 61.5175 116.568C61.5175 115.524 59.5739 114.678 57.1762 114.678C54.7786 114.678 52.835 115.524 52.835 116.568C52.835 117.612 54.7786 118.458 57.1762 118.458Z" fill="#5E8054"/>
<path d="M66.3393 120.203C68.1232 120.203 69.5693 119.573 69.5693 118.796C69.5693 118.02 68.1232 117.39 66.3393 117.39C64.5555 117.39 63.1094 118.02 63.1094 118.796C63.1094 119.573 64.5555 120.203 66.3393 120.203Z" fill="#5E8054"/>
<path d="M62.6842 125.607C63.5612 125.607 64.2722 124.896 64.2722 124.019C64.2722 123.142 63.5612 122.431 62.6842 122.431C61.8072 122.431 61.0962 123.142 61.0962 124.019C61.0962 124.896 61.8072 125.607 62.6842 125.607Z" fill="#5E8054"/>
<path d="M64.2722 115.734H61.0962V124.019H64.2722V115.734Z" fill="#5E8054"/>
<path d="M62.7484 116.178C65.158 116.178 67.1115 115.408 67.1115 114.458C67.1115 113.509 65.158 112.739 62.7484 112.739C60.3387 112.739 58.3853 113.509 58.3853 114.458C58.3853 115.408 60.3387 116.178 62.7484 116.178Z" fill="#60975F"/>
<path d="M241.617 128.195C242.124 128.71 244.673 131.187 248.445 130.921C251.888 130.679 254.052 128.313 254.584 127.697" stroke="#355B20" stroke-width="0.966151" stroke-miterlimit="10"/>
<path d="M189.333 120.958C189.675 121.327 191.947 123.695 195.604 123.619C199.281 123.542 201.458 121.055 201.781 120.673" stroke="#355B20" stroke-width="0.966151" stroke-miterlimit="10"/>
<path d="M189.804 122.387C189.485 125.975 192.276 129.041 195.604 129.143C199.039 129.247 202.07 126.162 201.786 122.45" stroke="#355B20" stroke-width="0.966151" stroke-miterlimit="10"/>
<path d="M128.279 136.936C130.668 141.035 135.061 143.543 139.743 143.462C144.782 143.375 149.359 140.302 151.427 135.614" stroke="#355B20" stroke-width="0.966151" stroke-miterlimit="10"/>
<path d="M168.114 159.526C155.349 159.526 148.146 153.839 148.146 142.211V117.756C148.146 117.337 148.485 116.997 148.904 116.997H160.657C161.076 116.997 161.415 117.337 161.415 117.756V142.211C161.415 147.203 162.806 149.099 167.861 149.099C172.727 149.099 174.181 147.14 174.181 142.211V117.756C174.181 117.337 174.52 116.997 174.939 116.997H190.484C190.903 116.997 191.242 117.337 191.242 117.756V142.211C191.242 154.407 183.785 159.526 168.114 159.526Z" fill="#454654"/>
<path d="M182.549 157.848L183.331 154.325L181.444 152.95L175.777 152.921L173.798 157.605L175.96 159.377L182.549 157.848Z" fill="#697976"/>
<path d="M150.232 145.797L151.508 144.319L152.85 138.372L151.966 136.412L149.611 134.422L147.68 135.987L147.575 143.596L150.232 145.797Z" fill="#708080"/>
<path d="M173.522 153.403L171.567 153.266L167.73 154.835L167.433 157.68L169.861 158.376L173.232 156.604L173.522 153.403Z" fill="#708080"/>
<path d="M159.263 150.746L159.941 147.201L162.219 146.687L167.434 148.907L167.393 153.991L164.705 154.761L159.263 150.746Z" fill="#708080"/>
<path d="M152.639 155.152L154.816 154.065L158.089 150.161L156.934 146.694L152.823 147.441L150.259 152.818L152.639 155.152Z" fill="#697976"/>
<path d="M181.495 140.635L180.704 141.287L179.342 139.632L179.098 136.339L180.69 135.028L182.592 136.597L181.495 140.635Z" fill="#7E8E8D"/>
<path d="M179.754 145.046L178.612 145.383L177.581 148.335L178.345 150.923L180.704 150.226L181.372 146.885L179.754 145.046Z" fill="#708080"/>
<path d="M191.566 140.975L191.901 134.782L188.829 133.059L186.978 134.518L188.352 140.115L191.566 140.975Z" fill="#697976"/>
<path d="M163.184 156.646L164.295 158.948L161.359 160.138L156.519 157.678L156.201 155.456L159.534 154.431L163.184 156.646Z" fill="#7E8E8D"/>
<path d="M184.901 141.871L184.756 144.301L186.504 149.086L190.085 149.816L191.49 145.881L188.111 140.975L184.901 141.871Z" fill="#708080"/>
<path d="M175.96 148.611L173.86 150.066L172.228 147.351L173.905 142.187L176.05 141.528L177.581 144.66L175.96 148.611Z" fill="#7E8E8D"/>
<path d="M183.064 150.127L182.469 150.885L183.326 153.437L185.207 154.914L186.437 153.348L185.128 150.687L183.064 150.127Z" fill="#7E8E8D"/>
<path d="M158.269 126.57L155.978 134.012L159.196 137.045L161.894 135.831L161.922 128.596L158.269 126.57Z" fill="#697976"/>
<path d="M148.146 116.997V121.405C148.717 122.458 149.576 123.631 150.708 123.71C152.406 123.827 153.209 121.379 154.78 121.536C156.565 121.714 156.934 125.019 158.488 125.118C159.149 125.161 160.117 124.631 161.415 121.981V116.997H148.146Z" fill="#3A3652"/>
<path d="M191.243 116.997H174.211C174.201 118.987 174.191 120.977 174.181 122.967C174.646 125.594 175.414 128.709 176.634 129.308C178.127 130.041 178.852 126.291 180.691 126.556C182.467 126.812 182.524 130.41 184.89 131.803C185.349 132.074 187.194 133.101 189.05 130.832C190.267 129.344 190.942 127.141 191.243 126.004V116.997Z" fill="#3A3652"/>
<path d="M159.275 118.96C161.676 118.96 163.623 118.031 163.623 116.884C163.623 115.738 161.676 114.808 159.275 114.808C156.873 114.808 154.927 115.738 154.927 116.884C154.927 118.031 156.873 118.96 159.275 118.96Z" fill="#5E8054"/>
<path d="M151.77 119.56C154.975 119.56 157.572 118.256 157.572 116.648C157.572 115.039 154.975 113.736 151.77 113.736C148.566 113.736 145.968 115.039 145.968 116.648C145.968 118.256 148.566 119.56 151.77 119.56Z" fill="#5E8054"/>
<path d="M150.078 120.975C151.714 120.975 153.041 120.342 153.041 119.56C153.041 118.779 151.714 118.145 150.078 118.145C148.441 118.145 147.114 118.779 147.114 119.56C147.114 120.342 148.441 120.975 150.078 120.975Z" fill="#5E8054"/>
<path d="M188.641 119.699C190.899 119.699 192.729 118.776 192.729 117.637C192.729 116.498 190.899 115.575 188.641 115.575C186.384 115.575 184.554 116.498 184.554 117.637C184.554 118.776 186.384 119.699 188.641 119.699Z" fill="#5E8054"/>
<path d="M183.313 118.583C186.849 118.583 189.715 117.407 189.715 115.956C189.715 114.505 186.849 113.329 183.313 113.329C179.777 113.329 176.911 114.505 176.911 115.956C176.911 117.407 179.777 118.583 183.313 118.583Z" fill="#5E8054"/>
<path d="M176.405 118.493C178.348 118.493 179.923 117.582 179.923 116.459C179.923 115.335 178.348 114.425 176.405 114.425C174.462 114.425 172.886 115.335 172.886 116.459C172.886 117.582 174.462 118.493 176.405 118.493Z" fill="#5E8054"/>
<path d="M179.099 120.397C180.855 120.397 182.279 119.679 182.279 118.792C182.279 117.906 180.855 117.188 179.099 117.188C177.342 117.188 175.918 117.906 175.918 118.792C175.918 119.679 177.342 120.397 179.099 120.397Z" fill="#5E8054"/>
<path d="M182.279 124.212C183.156 124.212 183.867 123.501 183.867 122.624C183.867 121.747 183.156 121.036 182.279 121.036C181.402 121.036 180.691 121.747 180.691 122.624C180.691 123.501 181.402 124.212 182.279 124.212Z" fill="#5E8054"/>
<path d="M183.867 117.49H180.691V122.624H183.867V117.49Z" fill="#5E8054"/>
<path d="M185.455 126.627C186.332 126.627 187.043 125.916 187.043 125.039C187.043 124.162 186.332 123.451 185.455 123.451C184.578 123.451 183.867 124.162 183.867 125.039C183.867 125.916 184.578 126.627 185.455 126.627Z" fill="#5E8054"/>
<path d="M187.043 116.754H183.867V125.039H187.043V116.754Z" fill="#5E8054"/>
<path d="M114.009 127.087H103.33C102.911 127.087 102.572 126.747 102.572 126.328V117.608C102.572 117.189 102.911 116.849 103.33 116.849H143.204C143.623 116.849 143.962 117.189 143.962 117.608V126.328C143.962 126.747 143.623 127.087 143.204 127.087H132.588C132.169 127.087 131.829 127.426 131.829 127.845V157.988C131.829 158.406 131.49 158.746 131.071 158.746H115.526C115.107 158.746 114.768 158.406 114.768 157.988V127.845C114.768 127.426 114.428 127.087 114.009 127.087Z" fill="#454654"/>
<path d="M132.107 155.224L132.976 153.468L132.982 149.322L130.462 147.967L128.896 149.949L129.256 153.741L132.107 155.224Z" fill="#697976"/>
<path d="M122.002 147.505L120.919 144.062L118.597 143.814L113.673 146.62L114.3 151.666L117.058 152.121L122.002 147.505Z" fill="#697976"/>
<path d="M126.574 145.257L124.416 146.383L121.211 150.343L122.428 153.79L126.524 152.97L128.994 147.549L126.574 145.257Z" fill="#708080"/>
<path d="M123.89 145.734L122.977 146.201L122.002 144.293L122.471 141.024L124.308 140.085L125.828 142.026L123.89 145.734Z" fill="#7E8E8D"/>
<path d="M122.68 138.62V137.429L120.141 135.604H117.443V138.064L120.458 139.651L122.68 138.62Z" fill="#7E8E8D"/>
<path d="M121.212 154.21L115.022 154.607L113.673 157.86L115.34 159.527L120.736 157.503L121.212 154.21Z" fill="#708080"/>
<path d="M131.008 156.498L132.119 158.8L129.183 159.99L124.342 157.53L124.025 155.308L127.358 154.283L131.008 156.498Z" fill="#697976"/>
<path d="M102.572 116.849V121.169C102.925 121.637 105.178 124.522 108.559 124.21C110.885 123.995 111.392 121.288 113.319 121.379C116.039 121.507 116.578 126.398 119.327 126.622C121.482 126.798 121.876 123.853 124.633 123.686C126.99 123.543 127.415 125.649 129.627 125.364C132.165 125.036 132.572 122.775 134.777 122.848C137.177 122.926 137.9 125.846 139.928 125.75C140.888 125.705 142.309 124.974 143.962 121.379V116.849H102.572Z" fill="#3A3652"/>
<path d="M119.463 120.23C124.591 120.23 128.748 118.611 128.748 116.614C128.748 114.617 124.591 112.998 119.463 112.998C114.336 112.998 110.179 114.617 110.179 116.614C110.179 118.611 114.336 120.23 119.463 120.23Z" fill="#5E8054"/>
<path d="M139.341 119.278C142.424 119.278 144.924 118.19 144.924 116.848C144.924 115.505 142.424 114.417 139.341 114.417C136.258 114.417 133.758 115.505 133.758 116.848C133.758 118.19 136.258 119.278 139.341 119.278Z" fill="#5E8054"/>
<path d="M104.925 118.385C107.171 118.385 108.992 117.592 108.992 116.614C108.992 115.636 107.171 114.844 104.925 114.844C102.679 114.844 100.858 115.636 100.858 116.614C100.858 117.592 102.679 118.385 104.925 118.385Z" fill="#5E8054"/>
<path d="M109.407 119.999C111.653 119.999 113.474 119.207 113.474 118.229C113.474 117.251 111.653 116.458 109.407 116.458C107.161 116.458 105.34 117.251 105.34 118.229C105.34 119.207 107.161 119.999 109.407 119.999Z" fill="#5E8054"/>
<path d="M110.226 116.87C113.154 116.87 115.528 116.077 115.528 115.099C115.528 114.121 113.154 113.329 110.226 113.329C107.298 113.329 104.925 114.121 104.925 115.099C104.925 116.077 107.298 116.87 110.226 116.87Z" fill="#5E8054"/>
<path d="M133.39 121.336C135.684 121.336 137.544 120.526 137.544 119.527C137.544 118.529 135.684 117.719 133.39 117.719C131.095 117.719 129.235 118.529 129.235 119.527C129.235 120.526 131.095 121.336 133.39 121.336Z" fill="#5E8054"/>
<path d="M129.235 118.898C132.627 118.898 135.378 117.701 135.378 116.224C135.378 114.747 132.627 113.55 129.235 113.55C125.842 113.55 123.092 114.747 123.092 116.224C123.092 117.701 125.842 118.898 129.235 118.898Z" fill="#5E8054"/>
<path d="M125.574 128.218C126.451 128.218 127.162 127.507 127.162 126.63C127.162 125.753 126.451 125.042 125.574 125.042C124.697 125.042 123.986 125.753 123.986 126.63C123.986 127.507 124.697 128.218 125.574 128.218Z" fill="#5E8054"/>
<path d="M127.162 118.345H123.986V126.63H127.162V118.345Z" fill="#5E8054"/>
<path d="M121.051 132.574C121.928 132.574 122.639 131.863 122.639 130.986C122.639 130.109 121.928 129.398 121.051 129.398C120.174 129.398 119.463 130.109 119.463 130.986C119.463 131.863 120.174 132.574 121.051 132.574Z" fill="#5E8054"/>
<path d="M122.639 117.51H119.463V130.986H122.639V117.51Z" fill="#5E8054"/>
<path d="M118.694 118.061C121.577 118.061 123.914 117.119 123.914 115.956C123.914 114.794 121.577 113.851 118.694 113.851C115.81 113.851 113.473 114.794 113.473 115.956C113.473 117.119 115.81 118.061 118.694 118.061Z" fill="#60975F"/>
<path d="M234.38 101.204C234.653 101.347 234.541 101.958 234.383 103.508C234.139 105.901 233.864 108.602 234.025 110.588C234.338 114.461 236.386 116.516 235.552 117.281C235.067 117.727 234.404 116.999 232.647 117.338C232.346 117.397 231.612 117.502 230.716 117.309C230.614 117.287 230.511 117.251 230.385 117.194C228.562 116.362 228.265 111.447 229.654 107.482C230.931 103.838 233.688 100.839 234.38 101.204Z" fill="#9CB09F"/>
<path d="M231.427 106.844C231.183 107.42 230.93 108.149 230.754 109.014C230.567 109.933 230.52 110.749 230.526 111.401" stroke="#8C9E8F" stroke-width="0.322051" stroke-miterlimit="10" stroke-linecap="round"/>
<path d="M232.54 107.21C232.359 108.402 232.234 109.896 232.326 111.609C232.427 113.469 232.755 115.051 233.1 116.277" stroke="#8C9E8F" stroke-width="0.322051" stroke-miterlimit="10" stroke-linecap="round"/>
<path d="M228.972 106.904C229.031 107.113 229.148 107.389 229.4 107.522C229.819 107.744 230.168 107.339 230.728 107.505C231.269 107.666 231.217 108.102 231.676 108.168C232.147 108.236 232.356 107.796 232.911 107.859C233.263 107.9 233.317 108.092 233.684 108.168C234.131 108.261 234.568 108.084 234.858 107.929C234.72 107.446 234.595 106.918 234.497 106.348C234.38 105.665 234.32 105.028 234.297 104.45C233.052 104.282 231.801 104.109 230.555 103.937C230.528 104.116 230.484 104.327 230.409 104.56C230.37 104.681 230.28 104.945 230.081 105.316C229.707 106.012 229.177 106.661 228.972 106.904Z" fill="#707E72"/>
<path d="M238.928 98.4596C239.149 98.7384 241.904 102.28 240.901 104.728C240.584 105.503 239.737 106.547 239.085 106.419C238.654 106.335 238.41 105.76 238.02 105.931C237.798 106.029 237.757 106.268 237.568 106.509C237.164 107.027 236.637 106.843 235.243 106.81C233.667 106.773 233.5 106.975 233.041 106.653C232.569 106.322 232.511 105.933 232.031 105.839C231.609 105.757 231.427 106.014 230.859 106.179C230.209 106.368 229.727 106.242 228.869 106.019C228.114 105.822 227.659 105.671 227.232 105.176C226.805 104.681 226.885 104.3 226.483 104.055C225.964 103.738 225.583 104.169 225.16 103.883C224.629 103.526 224.611 102.427 224.609 102.259C224.57 99.8413 227.609 97.5757 228.054 97.244C228.674 96.7818 230.858 95.1976 233.727 95.491C234.399 95.5598 236.918 95.9155 238.928 98.4596Z" fill="#335954"/>
<path d="M229.198 100.039C229.214 99.7767 229.441 99.5202 229.697 99.449C229.89 99.3952 230.093 99.3841 230.292 99.4148C230.838 99.4993 231.714 99.7118 232.287 99.7093C232.781 99.7072 233.305 99.0732 233.364 98.9779" stroke="#7DB0A5" stroke-width="0.274274" stroke-linecap="round" stroke-linejoin="round"/>
<path d="M237.028 101.224C237.091 100.968 236.95 100.656 236.727 100.513C236.558 100.404 236.367 100.333 236.169 100.304C235.622 100.223 234.722 100.167 234.175 99.9949C233.704 99.8469 233.391 99.0863 233.363 98.9779" stroke="#7DB0A5" stroke-width="0.274274" stroke-linecap="round" stroke-linejoin="round"/>
<path d="M233.446 98.8896C233.723 98.8081 233.828 98.7733 233.843 98.7634L233.845 98.7628C233.852 98.7679 233.715 98.9611 233.579 99.1489" fill="#7DB0A5"/>
<path d="M233.446 98.8896C233.723 98.8081 233.828 98.7733 233.843 98.7634L233.845 98.7628C233.852 98.7679 233.715 98.9611 233.579 99.1489" stroke="#7DB0A5" stroke-width="0.274274" stroke-linecap="round" stroke-linejoin="round"/>
<path d="M233.311 98.869C233.071 98.7094 232.981 98.6451 232.969 98.631L232.967 98.6299C232.959 98.6327 233.033 98.8579 233.108 99.0775" fill="#7DB0A5"/>
<path d="M233.311 98.869C233.071 98.7094 232.981 98.6451 232.969 98.631L232.967 98.6299C232.959 98.6327 233.033 98.8579 233.108 99.0775" stroke="#7DB0A5" stroke-width="0.274274" stroke-linecap="round" stroke-linejoin="round"/>
<path d="M230.089 100.41C230.214 100.408 230.434 100.425 230.656 100.557C230.723 100.597 231.106 100.835 231.123 101.215C231.127 101.312 231.114 101.343 231.114 101.343C231.111 101.352 231.107 101.359 231.11 101.364C231.125 101.394 231.265 101.348 231.317 101.335C231.507 101.288 231.697 101.377 231.837 101.444C232.165 101.599 232.325 101.945 232.426 102.171C232.694 102.771 232.688 103.355 232.646 103.723" stroke="#7DB0A5" stroke-width="0.274274" stroke-linecap="round" stroke-linejoin="round"/>
<path d="M236.069 101.315C235.95 101.276 235.734 101.227 235.484 101.287C235.408 101.306 234.971 101.42 234.843 101.777C234.81 101.87 234.813 101.902 234.813 101.902C234.814 101.912 234.815 101.92 234.81 101.924C234.788 101.948 234.668 101.863 234.622 101.835C234.454 101.734 234.246 101.763 234.093 101.785C233.734 101.837 233.479 102.12 233.315 102.306C232.881 102.799 232.715 103.36 232.646 103.723" stroke="#7DB0A5" stroke-width="0.274274" stroke-linecap="round" stroke-linejoin="round"/>
<path d="M199.981 117.428C199.981 117.009 200.32 116.67 200.739 116.67H218.054C238.276 116.67 244.342 119.577 244.342 130.256C244.342 135.088 242.502 138.331 239.367 139.679C238.782 139.93 238.754 140.762 239.328 141.037C245.617 144.053 243.404 153.453 244.968 157.537C245.159 158.036 244.8 158.566 244.266 158.566H228.925C228.685 158.566 228.447 158.463 228.311 158.266C225.716 154.483 230.367 144.79 220.898 144.79H217.864C217.445 144.79 217.106 145.13 217.106 145.549V157.808C217.106 158.227 216.766 158.566 216.347 158.566H200.739C200.32 158.566 199.981 158.227 199.981 157.808V117.428ZM220.645 135.375C225.005 135.375 226.648 134.237 226.648 131.078C226.648 127.918 225.069 126.781 220.645 126.781H217.864C217.445 126.781 217.106 127.12 217.106 127.539V134.617C217.106 135.035 217.445 135.375 217.864 135.375H220.645Z" fill="#454654"/>
<path d="M197.982 157.953L199.013 155.732L205.124 151.129H207.822L211.313 152.796L210.519 155.811L201.87 159.858L197.982 157.953Z" fill="#697976"/>
<path d="M210.312 148.125L212.267 147.988L216.104 149.556L216.401 152.402L213.973 153.098L210.601 151.326L210.312 148.125Z" fill="#708080"/>
<path d="M237.633 158.045L236.851 154.521L238.738 153.146L244.405 153.117L246.383 157.801L244.221 159.573L237.633 158.045Z" fill="#708080"/>
<path d="M226.171 147.421L228.472 146.627L233.551 147.024L235.217 150.277L231.805 152.688L226.171 150.753V147.421Z" fill="#697976"/>
<path d="M222.762 142.952V143.978H224.904L227.602 142.073V140.01L225.182 139.539L222.762 142.952Z" fill="#708080"/>
<path d="M212.749 158.826V157.636L215.288 155.811H217.986V158.271L214.971 159.858L212.749 158.826Z" fill="#7E8E8D"/>
<path d="M234.819 142.87L240.629 145.04L240.98 148.544L238.903 149.658L234.322 146.16L234.819 142.87Z" fill="#7E8E8D"/>
<path d="M227.758 155.707L226.647 158.008L229.583 159.199L234.424 156.739L234.741 154.517L231.409 153.492L227.758 155.707Z" fill="#7E8E8D"/>
<path d="M205.94 142.083L206.085 144.513L204.338 149.298L200.756 150.028L199.352 146.093L202.73 141.187L205.94 142.083Z" fill="#708080"/>
<path d="M209.255 141.883L211.355 143.338L212.987 140.623L211.31 135.459L209.165 134.8L207.634 137.932L209.255 141.883Z" fill="#697976"/>
<path d="M209.588 144.234L210.183 144.991L209.325 147.543L207.445 149.02L206.215 147.454L207.523 144.793L209.588 144.234Z" fill="#7E8E8D"/>
<path d="M231.538 141.987L230.559 141.228L230.831 137.776L232.716 135.346L234.74 136.915L233.939 140.644L231.538 141.987Z" fill="#7E8E8D"/>
<path d="M199.981 116.67C201.721 116.646 203.482 116.644 205.262 116.666C217.623 116.817 229.179 118.092 239.821 120.054C240.037 120.205 240.253 120.356 240.469 120.507C240.069 122.733 239.304 124.642 237.841 125.176C235.915 125.878 234.626 123.526 231.361 123.393C227.938 123.254 227.452 125.764 224.244 125.651C220.476 125.519 219.774 122.022 216.537 122.27C213.297 122.518 212.528 126.141 209.827 125.734C207.539 125.389 206.768 122.613 204.694 122.943C203.456 123.14 202.984 124.247 201.916 124.06C200.959 123.891 200.341 122.827 199.981 122.013V116.67Z" fill="#3A3652"/>
<path d="M224.807 120.018C229.245 120.018 232.843 118.447 232.843 116.51C232.843 114.572 229.245 113.001 224.807 113.001C220.369 113.001 216.771 114.572 216.771 116.51C216.771 118.447 220.369 120.018 224.807 120.018Z" fill="#5E8054"/>
<path d="M241.107 119.122C241.309 117.785 238.882 116.309 235.686 115.826C232.49 115.342 229.734 116.034 229.532 117.371C229.33 118.708 231.757 120.184 234.953 120.667C238.15 121.151 240.905 120.459 241.107 119.122Z" fill="#5E8054"/>
<path d="M235.668 122.6C237.229 122.6 238.494 121.9 238.494 121.036C238.494 120.173 237.229 119.473 235.668 119.473C234.108 119.473 232.843 120.173 232.843 121.036C232.843 121.9 234.108 122.6 235.668 122.6Z" fill="#5E8054"/>
<path d="M211.794 119.299C217.339 119.299 221.834 117.787 221.834 115.921C221.834 114.055 217.339 112.543 211.794 112.543C206.248 112.543 201.753 114.055 201.753 115.921C201.753 117.787 206.248 119.299 211.794 119.299Z" fill="#5E8054"/>
<path d="M202.192 120.069C204.861 120.069 207.024 118.962 207.024 117.595C207.024 116.229 204.861 115.121 202.192 115.121C199.524 115.121 197.361 116.229 197.361 117.595C197.361 118.962 199.524 120.069 202.192 120.069Z" fill="#5E8054"/>
<path d="M208.984 122.296C211.709 122.296 213.918 121.276 213.918 120.018C213.918 118.76 211.709 117.74 208.984 117.74C206.26 117.74 204.051 118.76 204.051 120.018C204.051 121.276 206.26 122.296 208.984 122.296Z" fill="#5E8054"/>
<path d="M219.748 141.006C220.625 141.006 221.336 140.295 221.336 139.418C221.336 138.541 220.625 137.83 219.748 137.83C218.871 137.83 218.16 138.541 218.16 139.418C218.16 140.295 218.871 141.006 219.748 141.006Z" fill="#5E8054"/>
<path d="M221.336 135.375H218.16V139.418H221.336V135.375Z" fill="#5E8054"/>
<path d="M211.091 118.042C214.17 118.042 216.667 117.078 216.667 115.889C216.667 114.7 214.17 113.736 211.091 113.736C208.012 113.736 205.516 114.7 205.516 115.889C205.516 117.078 208.012 118.042 211.091 118.042Z" fill="#60975F"/>
<path d="M275.093 119.85C271.838 122.189 264.76 120.177 262.591 116.185C260.832 112.962 263.423 110.592 261.927 107.169C261.885 107.085 261.853 107.011 261.811 106.927C261.306 105.895 260.611 105.168 259.81 104.61C258.536 103.714 256.966 103.251 255.365 102.598C253.891 101.998 252.395 101.239 251.089 99.8702C251.047 99.828 251.005 99.7753 250.963 99.7332C249.973 98.6378 249.025 97.079 248.498 94.8145C247.993 92.6342 247.866 89.78 248.435 86.0304C250.752 85.588 253.08 85.1351 255.397 84.6822C255.744 86.873 256.471 89.6746 258.188 92.0971C258.757 92.8976 259.441 93.6665 260.252 94.3511C262.938 96.6156 265.413 96.6156 267.92 97.2054C269.1 97.4898 270.279 97.9005 271.501 98.7537C272.586 99.512 273.523 100.502 274.324 101.64C274.861 102.377 275.335 103.188 275.735 104.041C276.378 105.368 276.862 106.801 277.199 108.254C278.295 113.057 277.673 117.997 275.093 119.85Z" fill="#9CB09F"/>
<path d="M250.655 93.3668C251.088 96.3355 252.204 98.0102 253.423 98.995C255.46 100.641 257.671 100.845 260.226 102.006C261.644 102.651 264.207 104.138 265.196 106.824C265.742 108.306 265.31 109.729 265.196 110.574" stroke="#8C9E8F" stroke-width="0.322051" stroke-miterlimit="10" stroke-linecap="round"/>
<path d="M254.551 90.3714C254.797 91.7917 255.236 92.7669 255.719 93.4881C256.094 94.048 256.449 94.3988 256.857 94.8001C257.62 95.5492 258.854 96.7379 260.83 97.5548C261.632 97.8863 262.919 98.3067 264.587 98.3843" stroke="#8C9E8F" stroke-width="0.322051" stroke-miterlimit="10" stroke-linecap="round"/>
<path d="M268.12 101.626C269.202 102.435 270.373 103.556 270.818 106.016C270.884 106.379 270.956 106.961 270.818 108.692C270.7 110.173 270.445 112.263 269.843 114.786" stroke="#8C9E8F" stroke-width="0.322051" stroke-miterlimit="10" stroke-linecap="round"/>
<path d="M273.291 105.367C273.706 106.381 274.234 108.049 274.211 110.149C274.195 111.517 273.95 112.664 273.696 113.508" stroke="#8C9E8F" stroke-width="0.322051" stroke-miterlimit="10" stroke-linecap="round"/>
<path d="M253.385 92.4693C253.332 92.8742 253.159 94.5442 254.26 96.1415C255.211 97.5221 256.537 98.0122 256.97 98.1524" stroke="#8C9E8F" stroke-width="0.322051" stroke-miterlimit="10" stroke-linecap="round"/>
<path d="M260.73 100.076C261.437 100.149 263.376 100.444 265.102 101.999C266.344 103.119 266.91 104.382 267.157 105.06" stroke="#8C9E8F" stroke-width="0.322051" stroke-miterlimit="10" stroke-linecap="round"/>
<path d="M268.119 108.863C268.136 110.018 267.996 111.714 267.2 113.541C266.931 114.159 266.628 114.697 266.326 115.158" stroke="#8C9E8F" stroke-width="0.322051" stroke-miterlimit="10" stroke-linecap="round"/>
<path d="M267.261 98.9142C267.884 99.033 268.978 99.3292 270.074 100.149C271.617 101.303 272.229 102.795 272.442 103.409" stroke="#8C9E8F" stroke-width="0.322051" stroke-miterlimit="10" stroke-linecap="round"/>
<path d="M260.113 91.4297C259.816 91.938 259.293 92.6086 258.406 92.8549C257.244 93.1778 256.544 92.47 255.381 92.8151C254.148 93.1811 254.265 94.1759 253.221 94.3264C252.145 94.4813 251.669 93.4786 250.404 93.623C249.603 93.7145 249.48 94.1528 248.643 94.3264C247.624 94.5376 246.627 94.1341 245.968 93.7807C246.282 92.6805 246.567 91.4766 246.79 90.1778C247.057 88.6204 247.193 87.17 247.245 85.8529C250.084 85.4688 252.936 85.0755 255.775 84.6822C255.897 85.4971 256.178 86.6089 256.856 87.8261C257.845 89.6052 259.219 90.7784 260.113 91.4297Z" fill="#707E72"/>
<path d="M232.219 69.8602C227.581 74.0326 221.822 82.0661 224.302 87.0876C225.313 89.1357 228.16 91.8297 230.49 91.3882C232.029 91.0965 232.979 89.5082 234.335 89.913C235.108 90.1436 235.216 90.7834 235.849 91.4083C237.206 92.7468 239.101 92.1711 244.043 91.8765C249.634 91.5433 250.194 92.0659 251.869 91.1287C253.592 90.1641 253.853 89.103 255.569 88.7801C257.075 88.4965 257.682 89.1626 259.672 89.5251C261.946 89.9393 263.673 89.5286 266.746 88.7977C269.986 88.0269 271.602 87.6203 272.67 86.2786C273.525 85.2066 273.459 84.3759 274.543 83.6771C275.922 82.7874 277.029 83.4889 278.092 82.9227C279.951 81.9325 279.893 78.0355 279.597 76.2634C278.352 68.8259 267.166 64.7912 264.868 64.0218C254.849 60.6669 241.352 61.6436 232.219 69.8602Z" fill="#335954"/>
<path d="M257.593 80.6144C258.888 79.518 258.428 76.8451 256.566 74.6443C254.703 72.4435 252.143 71.5482 250.847 72.6446C249.552 73.741 250.012 76.4139 251.875 78.6147C253.737 80.8155 256.298 81.7108 257.593 80.6144Z" fill="#3E6C55"/>
<path d="M270.125 83.3627C272.261 82.1294 272.568 78.663 270.812 75.6201C269.055 72.5773 265.899 71.1103 263.763 72.3435C261.627 73.5767 261.32 77.0432 263.076 80.086C264.833 83.1289 267.989 84.5959 270.125 83.3627Z" fill="#3E6C55"/>
<path d="M235.403 75.9556C236.764 74.595 237.12 72.7457 236.2 71.825C235.279 70.9044 233.43 71.2611 232.069 72.6216C230.708 73.9822 230.352 75.8315 231.272 76.7521C232.193 77.6728 234.042 77.3161 235.403 75.9556Z" fill="#3E6C55"/>
<path d="M229.777 81.1755C230.694 80.258 230.935 79.0109 230.314 78.3901C229.693 77.7692 228.446 78.0097 227.529 78.9273C226.611 79.8448 226.37 81.0919 226.991 81.7127C227.612 82.3336 228.859 82.0931 229.777 81.1755Z" fill="#3E6C55"/>
<path d="M243.376 68.8498C244.793 68.5135 245.758 67.4635 245.53 66.5047C245.302 65.5459 243.969 65.0413 242.552 65.3776C241.135 65.714 240.171 66.7639 240.398 67.7228C240.626 68.6816 241.959 69.1862 243.376 68.8498Z" fill="#3E6C55"/>
<path d="M273.698 72.8627C274.255 72.1702 273.877 70.9412 272.854 70.1175C271.83 69.2939 270.549 69.1876 269.992 69.8801C269.434 70.5726 269.812 71.8016 270.835 72.6252C271.859 73.4489 273.14 73.5552 273.698 72.8627Z" fill="#3E6C55"/>
<path d="M240.147 86.7966C240.357 85.4586 239.684 84.2412 238.642 84.0774C237.601 83.9137 236.587 84.8656 236.376 86.2036C236.166 87.5416 236.839 88.7591 237.88 88.9228C238.922 89.0866 239.936 88.1346 240.147 86.7966Z" fill="#3E6C55"/>
<path d="M239.774 77.6442C239.946 76.547 239.341 75.5403 238.422 75.3957C237.502 75.2511 236.617 76.0233 236.444 77.1205C236.272 78.2177 236.877 79.2244 237.797 79.369C238.716 79.5136 239.601 78.7413 239.774 77.6442Z" fill="#3E6C55"/>
<path d="M262.953 70.0358C263.125 68.9386 261.586 67.7851 259.514 67.4592C257.442 67.1334 255.623 67.7588 255.45 68.856C255.278 69.9532 256.817 71.1067 258.889 71.4325C260.961 71.7583 262.78 71.133 262.953 70.0358Z" fill="#3E6C55"/>
<path d="M235.353 76.4727C234.75 76.6366 234.15 76.8047 233.551 76.977C233.141 77.0948 232.714 76.8674 232.585 76.4613C232.543 76.3287 232.501 76.1961 232.459 76.0636C232.323 75.6398 232.563 75.1849 232.991 75.0618C235.898 74.225 238.845 73.4854 241.827 72.846C242.247 72.7558 242.666 73.0215 242.765 73.4403C242.797 73.576 242.829 73.7116 242.861 73.8473C242.961 74.2765 242.688 74.7026 242.257 74.7949C241.66 74.9228 241.065 75.0548 240.471 75.1908C240.04 75.2895 239.777 75.7258 239.887 76.1541C240.433 78.2802 240.961 80.4093 241.471 82.5412C241.572 82.9643 241.309 83.3878 240.886 83.4898C240.269 83.6387 239.654 83.7923 239.041 83.9505C238.623 84.0581 238.2 83.8125 238.089 83.3964C237.518 81.2675 236.929 79.1421 236.322 77.0202C236.203 76.6048 235.77 76.3592 235.353 76.4727Z" fill="#7DB0A5"/>
<path d="M244.902 72.2248C245.624 72.0877 246.348 71.9564 247.073 71.831C247.497 71.7579 247.904 72.0396 247.986 72.4614C248.143 73.2651 248.297 74.0691 248.449 74.8733C248.527 75.2908 248.921 75.5667 249.341 75.4997C250.144 75.3714 250.95 75.2505 251.758 75.1371C252.194 75.0758 252.498 74.6707 252.429 74.2354C252.305 73.4532 252.179 72.6712 252.051 71.8894C251.978 71.4502 252.283 71.0367 252.724 70.9798C253.468 70.884 254.213 70.7943 254.96 70.7108C255.387 70.6631 255.777 70.9681 255.835 71.3935C256.223 74.2395 256.58 77.087 256.905 79.9356C256.955 80.37 256.64 80.7602 256.205 80.8083C255.543 80.8814 254.883 80.9599 254.224 81.0435C253.798 81.0976 253.411 80.8032 253.35 80.3785C253.228 79.5159 253.102 78.6534 252.974 77.7912C252.91 77.3622 252.509 77.0614 252.08 77.1216C251.299 77.2309 250.52 77.3473 249.743 77.4708C249.308 77.54 249.016 77.9549 249.094 78.3885C249.246 79.2349 249.395 80.0816 249.541 80.9285C249.615 81.3582 249.325 81.7646 248.895 81.8384C248.254 81.9485 247.615 82.0636 246.977 82.1836C246.555 82.263 246.15 81.9916 246.066 81.5704C245.503 78.7663 244.909 75.9659 244.284 73.1696C244.187 72.7365 244.466 72.3076 244.902 72.2248Z" fill="#7DB0A5"/>
<path d="M259.138 70.31C261.902 70.0882 264.686 69.9509 267.486 69.9003C267.915 69.8925 268.275 70.2304 268.295 70.6582C268.302 70.7985 268.308 70.9388 268.315 71.0791C268.335 71.5209 267.986 71.8886 267.544 71.8965C266.077 71.9226 264.614 71.9729 263.157 72.047C262.711 72.0697 262.373 72.4615 262.411 72.9068C262.426 73.0866 262.441 73.2664 262.457 73.4462C262.492 73.8685 262.854 74.1837 263.277 74.1623C264.242 74.1133 265.209 74.075 266.178 74.0474C266.607 74.0351 266.97 74.3722 266.991 74.8017C266.994 74.8804 266.998 74.9591 267.002 75.0379C267.022 75.4774 266.677 75.8454 266.237 75.8579C265.313 75.8841 264.39 75.9203 263.469 75.9662C263.026 75.9882 262.69 76.3736 262.723 76.8156C262.74 77.0375 262.757 77.2594 262.773 77.4813C262.804 77.9058 263.165 78.2242 263.59 78.2031C265.027 78.1315 266.47 78.0843 267.917 78.0617C268.351 78.0549 268.713 78.4025 268.724 78.8361C268.727 78.981 268.731 79.1258 268.735 79.2707C268.745 79.7066 268.398 80.0636 267.962 80.0703C265.345 80.1108 262.745 80.2331 260.164 80.435C259.739 80.4683 259.371 80.1594 259.33 79.735C259.058 76.8865 258.754 74.0384 258.42 71.1912C258.367 70.7474 258.692 70.3458 259.138 70.31Z" fill="#7DB0A5"/>
<path d="M252.198 116.89H288.533C288.952 116.89 289.292 117.229 289.292 117.648V126.432C289.292 126.85 288.952 127.19 288.533 127.19H269.322C268.904 127.19 268.564 127.529 268.564 127.948V132.435C268.564 132.854 268.904 133.194 269.322 133.194H282.783C283.202 133.194 283.541 133.533 283.541 133.952V141.535C283.541 141.954 283.202 142.293 282.783 142.293H269.322C268.904 142.293 268.564 142.633 268.564 143.052V147.664C268.564 148.083 268.904 148.423 269.322 148.423H289.165C289.584 148.423 289.923 148.762 289.923 149.181V158.028C289.923 158.447 289.584 158.787 289.165 158.787H252.198C251.779 158.787 251.439 158.447 251.439 158.028V117.648C251.439 117.229 251.779 116.89 252.198 116.89Z" fill="#454654"/>
<path d="M258.359 153.308L259.391 151.086L265.501 146.484H268.199L271.69 148.15L270.897 151.165L262.248 155.212L258.359 153.308Z" fill="#697976"/>
<path d="M264.724 138.117L266.679 137.98L270.516 139.548L270.813 142.394L268.385 143.09L265.014 141.318L264.724 138.117Z" fill="#7E8E8D"/>
<path d="M250.357 155.366L252.39 154.243L257.18 154.025L259.193 157.24L256.353 160.204L250.828 158.873L250.357 155.366Z" fill="#708080"/>
<path d="M256.893 140.071L256.007 140.586L254.931 138.734L255.222 135.444L257.006 134.408L258.629 136.264L256.893 140.071Z" fill="#697976"/>
<path d="M265.575 158.387V157.197L268.114 155.372H270.812V157.832L267.797 159.419L265.575 158.387Z" fill="#708080"/>
<path d="M272.921 151.267L278.732 153.437L279.082 156.942L277.005 158.055L272.425 154.558L272.921 151.267Z" fill="#7E8E8D"/>
<path d="M283.606 152.699L282.495 155L285.431 156.19L290.272 153.731L290.589 151.509L287.256 150.484L283.606 152.699Z" fill="#697976"/>
<path d="M262.884 140.814L263.03 143.244L261.282 148.029L257.7 148.759L256.296 144.824L259.674 139.918L262.884 140.814Z" fill="#708080"/>
<path d="M252.319 151.882L254.42 153.337L256.052 150.622L254.375 145.458L252.229 144.799L250.698 147.932L252.319 151.882Z" fill="#7E8E8D"/>
<path d="M277.88 147.72L277.835 148.682L275.519 150.053L273.13 149.942L273.222 147.953L275.952 146.794L277.88 147.72Z" fill="#708080"/>
<path d="M290.588 158.636L290.082 159.456L287.391 159.53L285.356 158.274L286.403 156.58L289.352 156.891L290.588 158.636Z" fill="#708080"/>
<path d="M289.292 122.319C286.142 124.621 283.962 124.862 282.509 124.593C280.517 124.225 279.642 122.853 276.536 122.4C275.798 122.293 274.716 122.135 273.325 122.346C271.002 122.696 270.373 123.686 268.062 123.971C267.404 124.052 266.267 124.192 264.976 123.826C262.014 122.985 261.945 120.532 259.93 120.293C257.672 120.026 256.553 122.966 254.202 122.626C252.978 122.449 252.085 121.479 251.503 120.635V116.89H289.292V122.319Z" fill="#3A3652"/>
<path d="M282.859 133.194C281.566 135.015 280.446 135.495 279.588 135.521C278.113 135.566 277.646 134.263 276.091 134.335C274.361 134.416 273.91 136.078 272.468 136.08C271.702 136.081 270.562 135.613 269.156 133.194C273.724 133.194 278.291 133.194 282.859 133.194Z" fill="#3A3652"/>
<path d="M285.616 118.466C288.519 118.466 290.872 117.205 290.872 115.649C290.872 114.093 288.519 112.832 285.616 112.832C282.713 112.832 280.359 114.093 280.359 115.649C280.359 117.205 282.713 118.466 285.616 118.466Z" fill="#5E8054"/>
<path d="M255.824 118.943C259.318 118.943 262.151 117.71 262.151 116.188C262.151 114.667 259.318 113.434 255.824 113.434C252.33 113.434 249.497 114.667 249.497 116.188C249.497 117.71 252.33 118.943 255.824 118.943Z" fill="#5E8054"/>
<path d="M264.113 118.821C268.404 118.821 271.882 117.307 271.882 115.439C271.882 113.571 268.404 112.056 264.113 112.056C259.822 112.056 256.344 113.571 256.344 115.439C256.344 117.307 259.822 118.821 264.113 118.821Z" fill="#5E8054"/>
<path d="M281.419 120.238C284.548 120.238 287.084 119.134 287.084 117.772C287.084 116.41 284.548 115.306 281.419 115.306C278.291 115.306 275.755 116.41 275.755 117.772C275.755 119.134 278.291 120.238 281.419 120.238Z" fill="#5E8054"/>
<path d="M275.707 118.111C280.232 118.111 283.901 116.755 283.901 115.083C283.901 113.412 280.232 112.056 275.707 112.056C271.181 112.056 267.513 113.412 267.513 115.083C267.513 116.755 271.181 118.111 275.707 118.111Z" fill="#5E8054"/>
<path d="M261.036 121.256C263.239 121.256 265.026 120.479 265.026 119.519C265.026 118.56 263.239 117.782 261.036 117.782C258.832 117.782 257.045 118.56 257.045 119.519C257.045 120.479 258.832 121.256 261.036 121.256Z" fill="#5E8054"/>
<path d="M273.308 139.918C274.185 139.918 274.896 139.207 274.896 138.33C274.896 137.453 274.185 136.742 273.308 136.742C272.431 136.742 271.72 137.453 271.72 138.33C271.72 139.207 272.431 139.918 273.308 139.918Z" fill="#5E8054"/>
<path d="M274.896 133.196H271.72V138.33H274.896V133.196Z" fill="#5E8054"/>
<path d="M280.906 153.558C281.783 153.558 282.494 152.847 282.494 151.97C282.494 151.093 281.783 150.382 280.906 150.382C280.029 150.382 279.318 151.093 279.318 151.97C279.318 152.847 280.029 153.558 280.906 153.558Z" fill="#5E8054"/>
<path d="M282.494 148.424H279.318V151.97H282.494V148.424Z" fill="#5E8054"/>
<path d="M276.008 116.51C279.097 116.51 281.601 115.747 281.601 114.806C281.601 113.865 279.097 113.102 276.008 113.102C272.92 113.102 270.416 113.865 270.416 114.806C270.416 115.747 272.92 116.51 276.008 116.51Z" fill="#60975F"/>
<path d="M46.0786 25.7502C46.0552 26.2067 46.0187 26.658 45.9688 27.1064L45.9687 27.1075C45.5264 31.1263 44.0524 34.8097 41.8277 37.9062C39.6295 40.9681 36.6968 43.4552 33.3014 45.121C29.9266 46.7789 26.0942 47.6248 22.0722 47.419C21.5061 47.39 20.9455 47.3411 20.3916 47.2713C17.7477 46.9431 15.2524 46.1659 12.9799 45.0243C11.1394 44.099 9.44476 42.9331 7.93403 41.5704C6.18953 39.997 4.69176 38.1616 3.50024 36.1286C2.09723 33.7349 1.11768 31.0667 0.663569 28.2358C0.411602 26.6716 0.319176 25.0583 0.403401 23.4126C0.457223 22.361 0.581848 21.3286 0.771332 20.3221C1.28001 17.6156 2.26309 15.086 3.6265 12.8181C5.36159 9.92882 7.71546 7.46375 10.4942 5.59586C14.4533 2.9314 19.2768 1.48113 24.4098 1.74382C26.013 1.82587 27.5697 2.07155 29.064 2.46323C31.3994 3.07519 33.5831 4.04617 35.5566 5.30926C36.9848 6.22364 38.302 7.29161 39.487 8.48855C41.0538 10.0707 42.3881 11.8776 43.4401 13.8541C44.4992 15.8444 45.2724 18.0062 45.7057 20.2808L45.7056 20.2819C46.0416 22.0456 46.1745 23.8763 46.0786 25.7502Z" fill="#3B3654"/>
<path d="M54.1817 13.4784C54.766 14.1535 55.4379 14.7053 56.1678 15.1343L56.1686 15.1352C57.2871 15.7923 58.5379 16.1571 59.8048 16.2205C61.7831 16.3201 63.8015 15.6855 65.4167 14.2873C65.5446 14.1765 65.6688 14.0616 65.7877 13.9439C66.4747 13.2706 67.0146 12.4995 67.4055 11.6707C68.2104 9.96633 68.3836 8.02352 67.8988 6.20728C67.5974 5.07691 67.0415 3.9965 66.2247 3.05298C65.8009 2.56344 65.3296 2.13719 64.8242 1.77757C63.738 1.00209 62.4927 0.528838 61.2107 0.365867C60.2844 0.247562 59.3393 0.292298 58.422 0.502631C57.1922 0.783391 56.011 1.36149 54.9912 2.24427C54.8007 2.40924 54.62 2.58049 54.4506 2.75969C53.8136 3.42224 53.3133 4.17246 52.9506 4.97389C52.5109 5.94131 52.2738 6.98368 52.2428 8.03294C52.2027 9.38334 52.5041 10.7464 53.1577 11.9823C53.4344 12.5074 53.7762 13.0101 54.1817 13.4784Z" fill="#714F5D"/>
<path d="M52.2427 8.03295C53.0957 8.33022 54.1228 8.49153 55.1515 8.1685C55.4912 8.06112 55.9363 7.86841 57.7417 6.25516C60.1276 4.12301 60.3324 3.58421 61.4251 2.90205C62.1402 2.45637 63.227 1.95407 64.8241 1.77758C63.7379 1.0021 62.4926 0.528846 61.2106 0.365875C60.1647 1.47867 59.2251 2.41805 58.4395 3.18109C57.1749 4.40918 56.5403 4.95118 55.5605 5.18005C54.5855 5.40769 53.6681 5.23284 52.9505 4.9739C52.5108 5.94132 52.2737 6.98369 52.2427 8.03295Z" fill="#524351"/>
<path d="M54.1817 13.4784C54.7661 14.1535 55.4379 14.7053 56.1679 15.1343L56.1686 15.1352C57.1635 14.9733 57.8806 14.6533 58.3804 14.3628C59.3536 13.796 59.5573 13.3055 60.6495 12.6948C61.6649 12.127 62.5466 11.9594 63.3968 11.7982C64.2801 11.6307 65.6667 11.4661 67.4055 11.6707C68.2104 9.96632 68.3836 8.02352 67.8989 6.20728C67.0549 7.81509 66.0841 8.51476 65.2859 8.84565C62.9169 9.82667 60.9165 8.0379 58.4133 9.427C57.337 10.0254 57.3654 10.546 56.0442 11.2157C55.0312 11.7281 54.0203 11.9261 53.1577 11.9823C53.4344 12.5074 53.7763 13.0101 54.1817 13.4784Z" fill="#524351"/>
<path d="M59.8047 16.2205C61.783 16.3201 63.8014 15.6855 65.4166 14.2873C65.5445 14.1766 65.6687 14.0616 65.7875 13.9439C65.02 13.9593 63.6486 14.3331 62.6387 14.7258C61.624 15.1198 60.5396 15.6985 59.8047 16.2205Z" fill="#524351"/>
<path d="M54.4502 2.75971C55.0096 2.85479 55.9938 2.70803 56.7772 2.27283C57.573 1.83138 58.1519 1.09317 58.4216 0.502655C57.1918 0.783414 56.0106 1.36152 54.9908 2.24429C54.8002 2.40926 54.6195 2.58051 54.4502 2.75971Z" fill="#524351"/>
<path d="M62.6751 4.95698C63.4932 4.7437 64.5693 5.0292 64.707 5.57746C64.8512 6.15143 63.9501 6.94602 63.0585 7.12663C62.3413 7.27189 61.3469 7.07739 61.1868 6.55039C61.0162 5.98839 61.8334 5.17638 62.6751 4.95698Z" fill="#524351"/>
<path d="M39.4871 8.48855C37.3102 10.9156 35.7215 12.3026 34.6378 13.0951C33.3351 14.0447 32.7595 14.1364 32.7595 14.1364C26.0752 17.5767 20.4014 14.4248 11.5072 15.7218C8.4061 16.1744 5.53305 17.0582 0.771484 20.3221C1.28017 17.6156 2.26325 15.086 3.62665 12.8181C5.67809 11.8351 8.10091 11.0034 10.8631 10.6422C17.4005 9.78555 23.1368 11.4308 28.8196 10.0234C31.2509 9.42204 32.5745 8.65524 35.5567 5.30927C36.985 6.22364 38.3022 7.29161 39.4871 8.48855Z" fill="#5F4574"/>
<path d="M45.9688 27.1075C45.5264 31.1263 44.0524 34.8097 41.8278 37.9062C39.8002 38.5764 37.3769 39.2196 34.6191 39.6494C28.7755 40.5607 26.2451 39.7671 21.8055 40.84C19.4658 41.4067 16.3983 42.5386 12.98 45.0243C11.1395 44.0989 9.44482 42.9331 7.93408 41.5703C10.5577 38.8319 13.0475 37.6772 14.9591 37.148C18.0813 36.2826 19.6898 37.0738 25.3594 36.7123C26.7526 36.6243 30.9379 36.3573 34.2215 35.407C36.6205 34.7132 41.258 32.8653 45.9688 27.1075Z" fill="#5F4574"/>
<path d="M29.0639 2.46323C27.1479 3.91312 23.7705 5.57651 20.4713 6.21865C16.704 6.95238 12.616 6.43581 10.4941 5.59586C14.4533 2.9314 19.2768 1.48113 24.4098 1.74382C26.013 1.82587 27.5697 2.07155 29.0639 2.46323Z" fill="#5F4574"/>
<path d="M33.3014 45.121C29.9266 46.7789 26.0942 47.6248 22.0722 47.419C21.5061 47.39 20.9455 47.3411 20.3916 47.2713C21.849 46.1266 24.5817 44.8721 27.3426 44.5569C29.4447 44.3168 31.6167 44.6153 33.3014 45.121Z" fill="#5F4574"/>
<path d="M43.4401 13.8541C41.3719 18.1666 38.829 20.2261 36.9659 21.3006C33.6405 23.2202 30.2648 23.6627 20.5567 23.6796C13.7697 23.6912 10.4099 22.9578 7.27176 24.0894C4.50838 25.0876 2.32926 26.6587 0.663574 28.2358C1.11768 31.0667 2.09723 33.7349 3.50024 36.1286C8.9385 35.9929 11.6658 35.1536 13.8665 33.9919C16.4638 32.6229 17.8336 31.1717 22.0254 29.6824C24.7731 28.7058 27.4374 28.481 28.2461 28.4169C32.2126 28.1062 33.1993 28.9475 36.0798 28.2906C38.958 27.6348 40.8972 26.1278 41.5835 25.5818C43.6379 23.9495 44.9139 21.9878 45.7056 20.2819L45.7057 20.2807C45.2724 18.0062 44.4992 15.8443 43.4401 13.8541ZM10.7443 31.2813C9.10148 31.6141 6.82333 31.1685 6.45675 29.9613C6.06585 28.6739 7.93787 26.8137 9.86597 26.3111C11.7402 25.8226 14.2053 26.4766 14.5208 27.7325C14.851 29.0474 12.7868 30.8676 10.7443 31.2813Z" fill="#5F4574"/>
<path d="M46.0786 25.7502C46.0552 26.2067 46.0187 26.658 45.9688 27.1064L45.9687 27.1075C45.5264 31.1263 44.0524 34.8097 41.8277 37.9062C39.6295 40.9681 36.6968 43.4552 33.3014 45.121C29.9266 46.7789 26.0942 47.6248 22.0722 47.419C21.5061 47.39 20.9455 47.3411 20.3916 47.2713C17.7477 46.9431 15.2524 46.1659 12.9799 45.0243C11.1394 44.099 9.44476 42.9331 7.93403 41.5704C6.18953 39.997 4.69176 38.1616 3.50024 36.1286C2.09723 33.7349 1.11768 31.0667 0.663569 28.2358C0.411602 26.6716 0.319176 25.0583 0.403401 23.4126C0.457223 22.361 0.581848 21.3286 0.771332 20.3221C1.28001 17.6156 2.26309 15.086 3.6265 12.8181C5.36159 9.92882 7.71546 7.46375 10.4942 5.59586C14.4533 2.9314 19.2768 1.48113 24.4098 1.74382C26.013 1.82587 27.5697 2.07155 29.064 2.46323C31.3994 3.07519 33.5831 4.04617 35.5566 5.30926C36.9848 6.22364 38.302 7.29161 39.487 8.48855C41.0538 10.0707 42.3881 11.8776 43.4401 13.8541C44.4992 15.8444 45.2724 18.0062 45.7057 20.2808L45.7056 20.2819C46.0416 22.0456 46.1745 23.8763 46.0786 25.7502Z" fill="url(#paint1_linear_224_2)"/>
<path d="M54.1817 13.4784C54.766 14.1535 55.4379 14.7053 56.1678 15.1343L56.1686 15.1352C57.2871 15.7923 58.5379 16.1571 59.8048 16.2205C61.7831 16.3201 63.8015 15.6855 65.4167 14.2873C65.5446 14.1765 65.6688 14.0616 65.7877 13.9439C66.4747 13.2706 67.0146 12.4995 67.4055 11.6707C68.2104 9.96633 68.3836 8.02352 67.8988 6.20728C67.5974 5.07691 67.0415 3.9965 66.2247 3.05298C65.8009 2.56344 65.3296 2.13719 64.8242 1.77757C63.738 1.00209 62.4927 0.528838 61.2107 0.365867C60.2844 0.247562 59.3393 0.292298 58.422 0.502631C57.1922 0.783391 56.011 1.36149 54.9912 2.24427C54.8007 2.40924 54.62 2.58049 54.4506 2.75969C53.8136 3.42224 53.3133 4.17246 52.9506 4.97389C52.5109 5.94131 52.2738 6.98368 52.2428 8.03294C52.2027 9.38334 52.5041 10.7464 53.1577 11.9823C53.4344 12.5074 53.7762 13.0101 54.1817 13.4784Z" fill="url(#paint2_linear_224_2)"/>
<defs>
<linearGradient id="paint0_linear_224_2" x1="271.485" y1="182.459" x2="234.515" y2="239.542" gradientUnits="userSpaceOnUse">
<stop stop-color="#524351" stop-opacity="0"/>
<stop offset="0.01311" stop-color="#524655" stop-opacity="0.02347"/>
<stop offset="0.13094" stop-color="#59667B" stop-opacity="0.21519"/>
<stop offset="0.25423" stop-color="#5F829C" stop-opacity="0.38008"/>
<stop offset="0.38163" stop-color="#6398B6" stop-opacity="0.51444"/>
<stop offset="0.51448" stop-color="#67AACB" stop-opacity="0.61847"/>
<stop offset="0.65509" stop-color="#69B6D9" stop-opacity="0.6923"/>
<stop offset="0.80873" stop-color="#6BBDE2" stop-opacity="0.73606"/>
<stop offset="1" stop-color="#6CC0E5" stop-opacity="0.75"/>
</linearGradient>
<linearGradient id="paint1_linear_224_2" x1="35.6738" y1="5.38484" x2="10.8079" y2="43.778" gradientUnits="userSpaceOnUse">
<stop stop-color="#5F4574" stop-opacity="0"/>
<stop offset="0.19705" stop-color="#626491" stop-opacity="0.19315"/>
<stop offset="0.46757" stop-color="#668BB4" stop-opacity="0.43112"/>
<stop offset="0.70137" stop-color="#69A8CF" stop-opacity="0.6045"/>
<stop offset="0.88652" stop-color="#6BB9DF" stop-opacity="0.71086"/>
<stop offset="1" stop-color="#6CC0E5" stop-opacity="0.75"/>
</linearGradient>
<linearGradient id="paint2_linear_224_2" x1="64.5342" y1="1.5801" x2="55.8734" y2="14.9525" gradientUnits="userSpaceOnUse">
<stop stop-color="#714F5D" stop-opacity="0"/>
<stop offset="0.19705" stop-color="#6F6C80" stop-opacity="0.19315"/>
<stop offset="0.46757" stop-color="#6E8FAB" stop-opacity="0.43112"/>
<stop offset="0.70137" stop-color="#6CAACA" stop-opacity="0.6045"/>
<stop offset="0.88652" stop-color="#6CBADD" stop-opacity="0.71086"/>
<stop offset="1" stop-color="#6CC0E5" stop-opacity="0.75"/>
</linearGradient>
<clipPath id="clip0_224_2">
<rect width="68" height="68" fill="white" transform="translate(219 177)"/>
</clipPath>
</defs>
</svg>
