<svg width="320" height="392" viewBox="0 0 320 392" fill="none" xmlns="http://www.w3.org/2000/svg">
<path d="M322 0H-2V392H322V0Z" fill="url(#paint0_linear_113_1397)"/>
<path d="M112.591 0H112.559L116.873 24.0849L112.591 0ZM313.511 0L236.758 132.934L313.788 0H313.511ZM263.284 141.494L320 73.3687V73.227L263.284 141.494ZM0 167.954V167.959L1.55816 168.907L0 167.954ZM0 128.028V128.233L98.5778 212.87L0 128.028ZM0 200.082V200.165L52.7529 221.738L0 200.082ZM206.327 0L160.471 261.948L160.267 264.313L160.685 262.754L207.048 0H206.327ZM158.975 263.693L5.88235 0H5.10327L158.379 263.14L159.409 264.611L158.975 263.693ZM161.407 263.429L160.591 264.846L161.312 263.976L257.841 125.56L161.407 263.429ZM162.442 264.01L161.119 264.978L162.426 264.308L320 167.754V167.162L162.442 264.01ZM158.348 263.541L0 73.7743V74.561L158.996 264.626L159.393 265.027L158.348 263.541ZM159.671 264.895L159.712 265.046L159.718 265.051L159.671 264.895ZM158.63 264.557L28.983 170.378L158.008 264.328L159.216 265.061L158.63 264.557ZM161.129 264.46L160.591 265.11L198.515 226.478L161.129 264.46ZM160.115 265.134H160.068L160.089 265.242L160.12 265.188L160.115 265.134ZM158.468 265.144H158.379L158.792 265.276L158.468 265.144ZM161.689 265.129L161.093 265.32L161.903 265.129H161.689ZM169.192 265.1L165.061 265.422L320 264.816V264.509L169.192 265.1ZM159.231 265.398L159.326 265.447H159.388L159.231 265.398ZM159.728 265.447H159.786L159.681 265.378L159.707 265.418L159.556 265.271L159.566 265.276L159.425 265.139H159.341L159.514 265.246L159.587 265.33L159.305 265.139H159.21L158.939 265.002L159.127 265.139H158.886L157.339 264.196L0 184.705V184.744L158.081 264.816L158.876 265.139H158.724L159.21 265.388L159.32 265.403L158.907 265.154L159.451 265.374L159.535 265.437L159.681 265.461L159.66 265.447L159.697 265.461L159.686 265.447L159.759 265.471L159.728 265.447ZM320 199.554L162.139 264.724L161.339 265.129H161.156L160.941 265.217L161.082 265.129L160.905 265.134L160.58 265.369L160.403 265.442H160.481L160.277 265.496L160.267 265.501L160.434 265.476L160.418 265.486L160.779 265.418L160.716 265.442H160.732L160.706 265.452L161.574 265.398L161.401 265.437L162.468 265.432L163.801 265.227L165.218 265.115L164.481 265.119L320 240.692V240.57L160.863 265.393L160.79 265.418L160.837 265.398L161.668 265.129H161.49L320 199.891V199.554ZM159.958 265.505H159.963V265.496L159.958 265.505ZM159.827 265.642L159.822 265.647L159.833 265.652L159.827 265.642ZM159.822 265.647V265.672H159.827L159.822 265.647ZM160.314 265.652L160.277 265.672H160.387L160.314 265.652ZM161.94 265.515H161.072L160.784 265.589L160.486 265.564L160.455 265.579L160.669 265.613L160.429 265.672H161.888L161.265 265.623L161.94 265.515ZM159.827 265.676L159.817 265.696H159.822L159.833 265.686L159.827 265.676ZM160.146 265.696V265.706H160.152L160.146 265.696ZM160.136 265.691L160.125 265.701L160.141 265.706H160.146L160.136 265.691ZM160.115 265.706L160.12 265.711V265.706H160.115ZM160.099 265.711V265.716H160.105V265.711H160.099ZM160.11 265.711L160.105 265.716L160.11 265.73L160.125 265.72L160.11 265.711ZM159.885 265.725V265.73H159.89V265.725H159.885ZM159.838 265.72L159.817 265.711L159.812 265.706L159.796 265.735H159.801L159.812 265.72V265.73L159.838 265.72ZM160.084 265.73L160.089 265.735L160.099 265.72L160.084 265.73ZM159.059 265.676L158.855 265.706L159.315 265.745L159.383 265.725L159.059 265.676ZM160.23 265.72L160.199 265.725L160.272 265.75L160.23 265.72ZM159.791 265.696L159.691 265.735L159.744 265.75L159.807 265.701L159.791 265.696ZM159.78 265.76H159.791L159.801 265.735L159.78 265.76ZM159.838 265.725L159.807 265.764L159.822 265.769L159.843 265.745L159.838 265.725ZM159.843 265.764L159.833 265.769L159.843 265.774H159.848L159.843 265.764ZM159.833 265.779L159.843 265.784V265.774L159.833 265.779ZM160.199 265.74L160.23 265.784L160.303 265.774L160.199 265.74ZM160.178 265.735L160.209 265.789H160.22L160.178 265.735ZM160.183 265.774L160.188 265.794H160.193L160.183 265.774ZM160.167 265.73L160.162 265.735L160.146 265.72L160.141 265.73L160.152 265.735L160.131 265.745V265.74L160.115 265.745L160.12 265.75L160.11 265.755L160.136 265.794V265.799L160.146 265.804V265.799H160.152L160.173 265.794L160.167 265.73ZM160.188 265.808H160.204V265.803L160.188 265.808ZM160.235 265.803H160.23L160.241 265.813L160.235 265.803ZM160.335 265.794L160.241 265.803L160.371 265.823L160.335 265.794ZM160.136 265.828V265.843H160.141V265.828H160.136ZM161.333 265.896L160.769 265.76L160.486 265.784L160.429 265.755L160.617 265.725L160.408 265.676L160.314 265.696L160.272 265.676L160.241 265.686L160.272 265.706L160.267 265.711L160.366 265.764L160.392 265.76L160.455 265.784L160.408 265.789L160.643 265.862L160.596 265.838L161.333 265.896ZM160.22 265.862L160.209 265.857L160.261 265.906L160.22 265.862ZM159.859 265.833L159.854 265.808L159.838 265.833V265.808L159.833 265.813L159.838 265.794H159.817L159.78 265.833L159.791 265.828L159.754 265.862L159.786 265.852L159.775 265.926L159.812 265.891L159.775 265.935L159.801 265.911V265.921L159.833 265.896L159.807 265.911L159.859 265.843V265.833ZM160.319 265.901L160.309 265.896L160.387 265.984L160.319 265.901ZM160.805 265.945L160.617 265.916L160.999 266.043L160.805 265.945ZM159.88 265.965L159.827 266.106L159.89 266.019L159.88 265.965ZM160.868 265.955L161.197 266.087L161.553 266.175L160.868 265.955ZM160.69 266.053L160.366 265.921L160.512 266.048L161.067 266.326L160.69 266.053ZM160.366 266.087L160.214 265.955L160.35 266.243L160.695 266.654L160.366 266.087ZM161.919 265.672H161.888L161.339 265.716L163.582 266.063L320 277.853V277.741L161.919 265.672ZM162.928 266.273L160.952 265.965L161.705 266.209L307.603 300.389L162.928 266.273ZM159.059 265.994L52.0104 310.191L157.976 266.576L159.163 265.97L159.059 265.994ZM163.874 265.515L161.919 265.672H320V265.515H163.874ZM157.187 267.24L11.1791 356.988L158.018 267.01L158.881 266.38L157.187 267.24ZM156.22 266.121L0 290.489V290.954L156.973 266.297L158.473 265.94L156.22 266.121ZM161.056 266.791L160.633 266.361L161.595 267.729L260.099 385.485L161.056 266.791ZM161.448 267.949L160.559 266.688L161.046 267.719L230.525 387H230.562L161.448 267.949ZM0 317.184V317.379L156.282 266.869L0 317.184ZM171.796 269.444L320 316.954V316.768L171.796 269.444ZM159.315 268.545L138.583 387H138.761L159.55 269.18L159.739 266.981L159.315 268.545ZM162.458 266.781L161.156 266.248L162.395 267.001L320 346.829V346.375L162.458 266.781ZM0 382.539V382.583L24.9935 364.303L0 382.539ZM162.342 267.255L160.868 266.351L161.291 266.717L320 382.275V381.781L162.342 267.255ZM159.66 265.984L159.712 265.906L159.697 265.916L159.765 265.838L159.775 265.828L159.739 265.843L159.744 265.833L159.571 265.877L159.603 265.852L159.42 265.867L159.32 265.931L159.388 265.916L158.855 266.214L159.702 265.867H159.718L159.31 266.219L159.535 266.082L158.745 266.707L104.722 313.397L159.21 266.414L40.5281 387H40.9412L159.142 266.585L159.482 266.18L159.346 266.38L159.55 266.17L159.603 266.082L159.545 266.126L159.775 265.926L159.66 265.984ZM188.22 294.271L279.618 387H279.859L188.22 294.271ZM158.327 267.836L74.9752 387H75.5189L158.4 268.154L159.184 266.805L158.327 267.836ZM159.864 266.106L159.807 266.209V266.165L159.718 266.356L159.817 266.038L159.796 266.067L159.827 265.916L159.472 266.62L159.718 266.268L159.059 267.494L102.996 387H103.352L159.671 266.512L148.837 296.236L159.561 266.947L159.665 266.556L159.629 266.761L159.864 266.106ZM159.681 266.493L159.707 266.434L159.665 266.551L159.681 266.493ZM209.443 370.577L217.171 387H217.197L209.443 370.577ZM159.958 265.505H159.963V265.496L159.958 265.505ZM160.047 265.52V265.525L160.052 265.52H160.047ZM159.958 265.505H159.963V265.496L159.958 265.505ZM159.958 265.505H159.963V265.496L159.958 265.505ZM159.958 265.505H159.963V265.496L159.958 265.505ZM159.958 265.505H159.963V265.496L159.958 265.505ZM159.958 265.505H159.963V265.496L159.958 265.505ZM159.958 265.505H159.963V265.496L159.958 265.505ZM159.958 265.505H159.963V265.496L159.958 265.505ZM159.958 265.505H159.963V265.496L159.958 265.505ZM160.591 265.11L160.586 265.115L160.58 265.124H160.575L160.507 265.134L160.601 264.997L160.471 265.134L160.361 265.242L160.22 265.374L160.35 265.134H160.319L160.523 264.699L160.282 265.041L161.014 263.649L201.626 176.759L160.424 264.592L257.318 0H256.931L160.382 264.587L160.324 264.807L160.34 264.709L160.246 264.973L160.125 265.261V265.227L160.094 265.29L160.099 265.305L160.042 265.408L160.037 265.393L160.016 265.418L160.026 265.354L160.016 265.33L160.047 265.134L160.016 264.846L160.057 265.085L160.099 264.939L160.047 264.372L160.016 264.548V264.01L160.005 263.873L160.016 263.737L159.812 0H159.43L159.979 263.58L136.434 0H136.424L159.576 262.378L159.953 264.484L159.979 264.171V264.641L159.99 264.699L159.979 264.758V265.134L159.932 265.022L159.916 265.134H159.895L159.911 264.944L159.749 264.338L159.812 265.09L159.644 264.626L159.294 262.671L116.925 106.928L159.482 264.191L62.2275 0H61.8248L159.603 264.645L159.681 264.856L159.676 264.807L159.817 265.11V265.134L159.744 265.012L159.786 265.134H159.775L159.833 265.325L159.765 265.242L159.812 265.418L159.749 265.217L159.216 264.587L159.54 265.139H159.503L159.624 265.281L159.786 265.422L159.796 265.432L159.786 265.408L159.848 265.461L159.822 265.447L159.854 265.486V265.491L159.864 265.505V265.491L159.895 265.515H159.854L159.843 265.53L159.854 265.545H159.859L159.885 265.53L159.901 265.545L159.875 265.549H159.854L159.848 265.545V265.554L159.838 265.559V265.554L159.807 265.559L159.801 265.535H159.807L159.801 265.52L159.796 265.515H159.759L159.765 265.525L159.744 265.515V265.52L159.618 265.496L159.644 265.515H159.545L159.639 265.549L159.681 265.545L159.723 265.574L159.759 265.598L159.686 265.579L159.618 265.589L159.561 265.554L159.603 265.549L159.409 265.491L159.467 265.515L158.97 265.447H159.21L158.98 265.354L158.327 265.144H158.149L0 227.846V228.325L156.241 264.929L157.642 265.144L157.171 265.149L158.212 265.388L156.188 265.237L155.65 265.154H155.132L0 253.309V253.739L151.697 265.168L62.8601 265.515H0V266.072L102.264 265.672H159.022L158.693 265.623L159.069 265.593L159.284 265.642L159.09 265.672H159.739L159.676 265.711L159.754 265.672L159.707 265.647L159.676 265.623L159.723 265.647L159.796 265.628L159.801 265.633L159.754 265.662L159.759 265.667L159.812 265.642L159.822 265.647V265.637L159.817 265.623L159.812 265.628V265.623H159.817V265.618L159.791 265.593L159.817 265.613V265.603L159.827 265.618L159.822 265.623L159.827 265.633L159.843 265.662L159.854 265.657L159.864 265.662L159.911 265.672L159.906 265.667L159.911 265.662L159.906 265.657L159.911 265.647H159.906L159.901 265.652L159.89 265.642L159.895 265.637L159.89 265.628L159.906 265.633L159.911 265.628L159.89 265.608L159.937 265.579L159.948 265.593H159.958V265.603L159.974 265.589L159.984 265.593L159.974 265.618L159.984 265.623L159.974 265.637V265.647L159.969 265.652L159.984 265.672V265.676L159.979 265.696L159.963 265.681L159.948 265.691L159.942 265.686L159.963 265.681L159.953 265.672H159.979L159.953 265.662L159.948 265.667L159.942 265.672L159.932 265.681L159.916 265.691L159.911 265.681L159.906 265.701V265.706H159.901L159.895 265.716L159.901 265.73L159.89 265.725V265.73L159.906 265.76V265.764L159.88 265.75L159.869 265.745L159.874 265.764L159.869 265.779L159.922 265.789L159.927 265.794V265.789L159.932 265.779L159.922 265.774L159.953 265.764H159.958L159.969 265.76L159.984 265.75V265.794L159.99 265.779L160.005 265.789V265.794H160.01L160.016 265.789L160.026 265.779L160.042 265.774V265.769L160.037 265.764L160.021 265.774V265.779H160.016V265.769L160 265.774H159.995V265.769L160.005 265.74V265.73L160.01 265.74L160.016 265.735L160.01 265.725L160.026 265.686H160.021L160.026 265.672H160.089V265.681L160.105 265.696L160.099 265.701H160.115V265.696L160.136 265.691L160.125 265.676V265.672L160.105 265.642H160.11V265.637H160.105V265.633H160.099L160.094 265.618V265.613L160.099 265.603H160.105L160.11 265.598V265.608L160.12 265.628L160.131 265.618L160.136 265.623H160.141V265.628L160.131 265.642V265.647L160.125 265.652L160.136 265.657L160.125 265.672L160.141 265.657L160.146 265.667V265.672L160.157 265.676V265.681L160.167 265.691V265.686L160.162 265.676H160.167L160.261 265.672L160.23 265.657L160.256 265.637L160.371 265.569L160.413 265.574L160.444 265.559H160.392L160.424 265.535L160.366 265.554H160.356L160.455 265.515H160.376L160.329 265.549L160.23 265.545L160.319 265.559L160.303 265.569L160.329 265.559L160.34 265.564L160.22 265.633L160.178 265.623V265.613L160.173 265.618H160.157L160.22 265.545L160.251 265.52V265.515H160.241L160.251 265.505L160.193 265.53L160.199 265.515L160.209 265.501H160.199L160.209 265.442L160.152 265.505H160.162L160.152 265.515V265.505L160.146 265.496V265.471L160.131 265.51L160.11 265.53H160.131L160.141 265.535H160.105L160.078 265.554L160.073 265.545L160.078 265.535H160.073L160.052 265.53L160.063 265.545L160.057 265.554L160.042 265.53H160.031L160.037 265.525H160.026L160.031 265.515L160.037 265.51L160.042 265.515H160.047L160.047 265.525L160.052 265.52H160.063V265.515L160.068 265.51L160.11 265.442L160.078 265.466L160.094 265.442H160.11L160.12 265.422V265.437L160.11 265.442L160.131 265.466L160.146 265.457V265.442H160.152V265.452L160.146 265.457V265.461L160.131 265.481L160.146 265.471L160.167 265.457V265.461L160.209 265.442V265.437L160.22 265.432L160.209 265.442H160.246L160.22 265.486L160.397 265.344L160.314 265.442L160.528 265.276L160.81 265.134H160.695L160.889 264.963L160.617 265.134H160.586L161.302 264.611L320 127.778V127.353L160.591 265.11ZM141.386 265.515L155.587 265.461L156.329 265.515H141.386ZM158.024 265.515L157.605 265.452H158.468L158.756 265.515H158.024ZM159.571 265.593L159.482 265.559L159.54 265.554L159.608 265.589L159.571 265.593ZM159.77 265.564L159.754 265.54H159.759L159.78 265.564H159.77ZM159.864 265.642L159.854 265.652V265.647L159.864 265.633H159.854L159.859 265.618L159.864 265.633V265.642ZM159.875 265.628H159.869V265.623H159.875V265.628ZM159.88 265.613V265.608H159.885L159.88 265.613ZM159.911 265.564L159.895 265.574L159.906 265.559L159.911 265.549L159.916 265.559H159.906L159.911 265.564ZM159.916 265.545V265.535L159.922 265.54L159.916 265.545ZM160 265.496L159.995 265.51H159.99L159.979 265.515L159.984 265.52L159.974 265.525V265.53L159.958 265.52L159.942 265.515L159.927 265.501H159.948L159.953 265.476L159.958 265.471L159.942 265.447L159.969 265.432L159.974 265.442L159.979 265.427V265.447L159.99 265.442H160L159.995 265.452L159.984 265.466L160 265.496ZM160.11 265.672H160.115L160.11 265.676V265.672ZM160.152 265.535H160.162V265.54H160.152V265.535ZM160.157 265.549V265.584L160.152 265.554L160.157 265.549ZM160.146 265.564L160.152 265.598H160.157L160.152 265.603V265.618L160.146 265.613H160.136L160.141 265.608L160.115 265.593L160.146 265.564ZM160.063 265.564L160.068 265.554L160.073 265.559V265.564L160.084 265.574L160.078 265.559L160.125 265.545V265.549L160.141 265.545V265.549L160.11 265.593L160.105 265.589L160.12 265.559L160.084 265.574L160.073 265.579L160.063 265.569V265.564ZM160.016 265.564V265.549L160.026 265.559V265.569L160.016 265.564ZM160.031 265.579L160.026 265.574H160.037L160.031 265.579ZM160.037 265.535L160.031 265.554L160.026 265.549L160.021 265.545L160.037 265.535ZM160.021 265.496L160.016 265.491V265.481L160.026 265.496H160.021ZM160.016 265.457V265.442H160.026L160.016 265.457ZM160.057 265.476L160.047 265.442H160.073L160.057 265.476ZM160.141 265.422V265.388L160.178 265.344L160.141 265.422ZM159.963 265.505V265.496L159.958 265.505H159.963ZM159.958 265.505H159.963V265.496L159.958 265.505ZM159.958 265.505H159.963V265.496L159.958 265.505ZM159.958 265.505H159.963V265.496L159.958 265.505ZM159.958 265.505H159.963V265.496L159.958 265.505ZM159.958 265.505H159.963V265.496L159.958 265.505ZM159.958 265.505H159.963V265.496L159.958 265.505ZM159.958 265.505H159.963V265.496L159.958 265.505ZM160.716 268.755L192.711 387H193.119L160.465 266.966L171.671 297.311L160.444 266.81L160.329 266.493L160.34 266.507L160.277 266.287L160.272 266.282L160.293 266.4L160.152 266.004L160.199 266.062L160.188 265.965L160.131 265.906V265.901L160.105 265.887L160.089 265.843L160.131 265.872V265.901L160.136 265.872L160.173 265.901L160.141 265.862L160.136 265.852L160.141 265.843H160.136L160.131 265.852L160.115 265.838L160.094 265.813H160.089L160.084 265.808L160.078 265.799L160.068 265.779L160.057 265.784V265.779H160.052L160.042 265.774L160.031 265.784L160.026 265.779V265.794H160.031V265.799L160.037 265.808L160.057 265.818L160.052 265.823L160.078 265.833L160.047 265.828V265.838L160.052 265.852L160.042 265.848L160.037 265.867L160.11 266.009L160.12 265.97L160.115 266.033L160.141 266.092L160.115 266.058L160.11 266.102L160.099 266.072L160.105 266.038L160.026 265.916L160.021 265.926L160 265.867L159.995 265.882L159.99 265.877L160 265.867V265.862L159.99 265.838V265.833L159.984 265.828L159.974 265.852L159.963 265.843L159.974 265.828L159.958 265.833V265.828L159.974 265.823H159.953L159.937 265.813L159.942 265.828H159.948L159.942 265.833L159.948 265.838L159.932 265.848L159.942 265.891L159.89 265.955L159.895 266.014L159.942 265.901L159.948 265.921L159.969 265.877L159.979 265.891L159.984 265.887V265.901L159.99 266.058L159.984 266.077V266.546L159.932 266.263L159.922 266.302L159.969 266.82L159.984 266.722L160.01 267.289L159.984 267.543L160.037 292.879L160.021 267.411L170.573 387H170.996L160.502 269.473L160.042 266.883L160.021 267.167L160.016 266.17L160.057 266.312L160.094 266.092L160.11 266.116L160.084 266.414L160.303 267.225L160.225 266.336L160.157 266.19L160.22 266.307L160.303 266.448L160.319 266.546L160.256 266.409L160.716 268.755ZM159.953 265.882L159.958 265.857L159.963 265.867L159.953 265.882ZM159.984 265.867L159.979 265.862L159.984 265.852V265.867ZM159.958 265.505H159.963V265.496L159.958 265.505Z" fill="#C5DDDB"/>
<defs>
<linearGradient id="paint0_linear_113_1397" x1="160" y1="0" x2="160" y2="392" gradientUnits="userSpaceOnUse">
<stop stop-color="#6CC0E5"/>
<stop offset="1" stop-color="#6096BE"/>
</linearGradient>
</defs>
</svg>
