<svg width="1440" height="768" viewBox="0 0 1440 768" fill="none" xmlns="http://www.w3.org/2000/svg">
<g clip-path="url(#clip0_79_3)">
<path d="M1440 0H0V765H1440V0Z" fill="url(#paint0_linear_79_3)"/>
<path opacity="0.5" d="M719.8 764.42H719.83V764.39L719.8 764.42ZM719.8 764.42H719.83V764.39L719.8 764.42ZM719.8 764.42H719.83V764.39L719.8 764.42ZM719.8 764.42H719.83V764.39L719.8 764.42ZM719.8 764.42H719.83V764.39L719.8 764.42ZM719.8 764.42H719.83V764.39L719.8 764.42ZM719.8 764.42H719.83V764.39L719.8 764.42ZM719.8 764.42H719.83V764.39L719.8 764.42ZM719.8 764.42H719.83V764.39L719.8 764.42ZM719.8 764.42H719.83V764.39L719.8 764.42ZM719.8 764.42H719.83V764.39L719.8 764.42ZM719.8 764.42H719.83V764.39L719.8 764.42ZM719.8 764.42H719.83V764.39L719.8 764.42ZM719.8 764.42H719.83V764.39L719.8 764.42ZM719.8 764.42H719.83V764.39L719.8 764.42ZM719.8 764.42H719.83V764.39L719.8 764.42ZM722.8 763.22L722.78 763.23L722.75 763.26H722.73L722.41 763.29L722.85 762.88L722.23 763.29L721.71 763.62L721.04 764.02L721.66 763.29H721.51L722.48 761.97L721.34 763.01L724.81 758.78L917.4 494.78L722.01 761.64L1157.35 1e-05H1155.6L721.81 761.63L721.54 762.3L721.61 762L721.17 762.8L720.6 763.68V763.57L720.45 763.77L720.47 763.81L720.2 764.12L720.17 764.08L720.07 764.15L720.12 763.96L720.07 763.89L720.22 763.29L720.07 762.42L720.27 763.14L720.47 762.7L720.22 760.98L720.07 761.51V759.88L720.02 759.46L720.07 759.05L719.16 0H717.44L719.9 758.57L614.13 1e-05H614.01L717.99 754.92L719.78 761.32L719.9 760.37V761.79L719.95 761.97L719.9 762.15V763.29L719.68 762.95L719.6 763.29H719.5L719.58 762.71L718.81 760.87L719.11 763.16L718.31 761.75L716.65 755.81L515.73 282.61L717.55 760.43L280.62 1e-05H278.81L718.12 761.81L718.49 762.45L718.46 762.3L719.13 763.22V763.29L718.79 762.92L718.98 763.29H718.93L719.21 763.87L718.88 763.62L719.11 764.15L718.81 763.54L716.28 761.63L717.82 763.31H717.64L718.21 763.74L718.98 764.17L719.03 764.2L718.98 764.12L719.28 764.29L719.16 764.24L719.31 764.36V764.38L719.36 764.42V764.38L719.5 764.45H719.31L719.26 764.5L719.31 764.54H719.33L719.45 764.5L719.53 764.54L719.4 764.55H719.31L719.28 764.54V764.57L719.23 764.58V764.57L719.08 764.58L719.06 764.51H719.08L719.06 764.47L719.03 764.45H718.86L718.88 764.48L718.79 764.45V764.47L718.19 764.39L718.31 764.45H717.84L718.29 764.55L718.49 764.54L718.69 764.63L718.86 764.7L718.51 764.64L718.19 764.67L717.92 764.57L718.12 764.55L717.2 764.38L717.47 764.45L715.12 764.24H716.26L715.16 763.96L712.07 763.32H711.22L0 655.86V657.27L702.17 762.67L708.82 763.32L706.59 763.34L711.52 764.06L701.92 763.6L699.37 763.35H696.91L0 729.26V730.54L680.62 763.4L259.33 764.45H0V765H418.14L446.2 764.93H715.36L713.8 764.78L715.59 764.69L716.6 764.84L715.69 764.93H718.76L718.57 765H718.59L718.83 764.93L718.61 764.85L718.46 764.78L718.69 764.85L719.03 764.79L719.06 764.81L718.83 764.9L718.86 764.91L719.11 764.84L719.16 764.85V764.82L719.13 764.78L719.11 764.79V764.78H719.13V764.76L719.01 764.69L719.13 764.75V764.72L719.18 764.76L719.16 764.78L719.18 764.81L719.26 764.9L719.31 764.88L719.36 764.9L719.58 764.93L719.55 764.91L719.58 764.9L719.55 764.88L719.58 764.85H719.55L719.53 764.87L719.48 764.84L719.5 764.82L719.48 764.79L719.55 764.81L719.58 764.79L719.48 764.73L719.7 764.64L719.75 764.69H719.8V764.72L719.88 764.67L719.93 764.69L719.88 764.76L719.93 764.78L719.88 764.82V764.85L719.85 764.87L719.93 764.93V764.94L719.9 765L719.83 764.96L719.75 764.99L719.73 764.97L719.83 764.96L719.78 764.93H719.9L719.78 764.9L719.75 764.91L719.73 764.93L719.68 764.96L719.6 764.99L719.58 764.96L719.56 765L719.55 765.01V765.03H719.53L719.5 765.06L719.53 765.1L719.48 765.09V765.1L719.55 765.19V765.21L719.43 765.16L719.38 765.15L719.4 765.21L719.38 765.25L719.63 765.28L719.65 765.3V765.28L719.68 765.25L719.63 765.24L719.78 765.21H719.8L719.85 765.19L719.93 765.16V765.3L719.95 765.25L720.02 765.28V765.3H720.05L720.07 765.28L720.12 765.25L720.2 765.24V765.22L720.17 765.21L720.1 765.24V765.25H720.07V765.22L720 765.24H719.98V765.22L720.02 765.13V765.1L720.05 765.13L720.07 765.12L720.05 765.09L720.1 765L720.12 764.97H720.1L720.12 764.93H720.42V764.96L720.5 765L720.47 765.01H720.55V765L720.64 764.99L720.6 764.94V764.93L720.5 764.84H720.52V764.82H720.5V764.81H720.47L720.45 764.76V764.75L720.47 764.72H720.5L720.52 764.7V764.73L720.57 764.79L720.62 764.76L720.64 764.78H720.67V764.79L720.62 764.84V764.85L720.6 764.87L720.64 764.88L720.6 764.93L720.67 764.88L720.69 764.91V764.93L720.74 764.94V764.96L720.79 764.99V764.97L720.77 764.94H720.79L721.24 764.93L721.09 764.88L721.21 764.82L721.76 764.61L721.96 764.63L722.11 764.58H721.86L722.01 764.51L721.74 764.57H721.69L722.16 764.45H721.79L721.56 764.55L721.09 764.54L721.51 764.58L721.44 764.61L721.56 764.58L721.61 764.6L721.04 764.81L720.84 764.78V764.75L720.82 764.76H720.74L721.04 764.54L721.19 764.47V764.45H721.14L721.19 764.42L720.92 764.5L720.94 764.45L720.99 764.41H720.94L720.99 764.23L720.72 764.42H720.77L720.72 764.45V764.42L720.69 764.39V764.32L720.62 764.44L720.52 764.5H720.62L720.67 764.51H720.5L720.37 764.57L720.35 764.54L720.37 764.51H720.35L720.25 764.5L720.3 764.54L720.27 764.57L720.2 764.5H720.15L720.17 764.48H720.12L720.15 764.45L720.17 764.44L720.2 764.45H720.22V764.48L720.25 764.47H720.3V764.45L720.32 764.44L720.52 764.23L720.37 764.3L720.45 764.23H720.52L720.57 764.17V764.21L720.52 764.23L720.62 764.3L720.69 764.27V764.23H720.72V764.26L720.69 764.27V764.29L720.62 764.35L720.69 764.32L720.79 764.27V764.29L720.99 764.23L720.99 764.21L721.04 764.2L720.99 764.23H721.17L721.04 764.36L721.88 763.93L721.49 764.23L722.5 763.72L723.84 763.29H723.3L724.22 762.77L722.93 763.29H722.78L726.17 761.7L1440 367.38V366.14L722.8 763.22ZM631.73 764.45L699.07 764.29L702.59 764.45H631.73ZM710.63 764.45L708.64 764.26H712.73L714.1 764.45H710.63ZM717.97 764.69L717.55 764.58L717.82 764.57L718.14 764.67L717.97 764.69ZM718.91 764.6L718.83 764.52H718.86L718.96 764.6H718.91ZM719.36 764.84L719.31 764.87V764.85L719.36 764.81H719.31L719.33 764.76L719.36 764.81V764.84ZM719.4 764.79H719.38V764.78H719.4V764.79ZM719.43 764.75V764.73H719.45L719.43 764.75ZM720.52 764.93H720.55L720.52 764.94V764.93ZM720.72 764.51H720.77V764.52H720.72V764.51ZM720.74 764.55V764.66L720.72 764.57L720.74 764.55ZM720.69 764.6L720.72 764.7H720.74L720.72 764.72V764.76L720.69 764.75H720.64L720.67 764.73L720.55 764.69L720.69 764.6ZM720.3 764.6L720.32 764.57L720.35 764.58V764.6L720.4 764.63L720.37 764.58L720.6 764.54V764.55L720.67 764.54V764.55L720.52 764.69L720.5 764.67L720.57 764.58L720.4 764.63L720.35 764.64L720.3 764.61V764.6ZM719.58 764.6L719.5 764.63L719.58 764.55L719.6 764.58H719.55L719.58 764.6ZM719.6 764.54V764.51L719.63 764.52L719.6 764.54ZM719.88 764.48V764.5L719.8 764.47L719.73 764.45L719.65 764.41H719.75L719.78 764.33L719.8 764.32L719.73 764.24L719.85 764.2L719.88 764.23L719.9 764.18V764.24L719.95 764.23H720L719.98 764.26L719.93 764.3L720 764.39L719.98 764.44H719.95L719.9 764.45L719.93 764.47L719.88 764.48ZM720.07 764.6V764.55L720.12 764.58V764.61L720.07 764.6ZM720.15 764.64L720.12 764.63H720.17L720.15 764.64ZM720.17 764.51L720.15 764.57L720.12 764.55L720.1 764.54L720.17 764.51ZM720.1 764.39L720.07 764.38V764.35L720.12 764.39H720.1ZM720.07 764.27V764.23H720.12L720.07 764.27ZM720.27 764.33L720.22 764.23H720.35L720.27 764.33ZM720.67 764.17V764.06L720.84 763.93L720.67 764.17ZM719.83 764.42V764.39L719.8 764.42H719.83ZM719.8 764.42H719.83V764.39L719.8 764.42ZM719.8 764.42H719.83V764.39L719.8 764.42ZM719.8 764.42H719.83V764.39L719.8 764.42ZM719.8 764.42H719.83V764.39L719.8 764.42ZM719.8 764.42H719.83V764.39L719.8 764.42ZM719.8 764.42H719.83V764.39L719.8 764.42ZM719.8 764.42H719.83V764.39L719.8 764.42ZM719.8 764.42H719.83V764.39L719.8 764.42ZM719.8 764.42H719.83V764.39L719.8 764.42ZM719.8 764.42H719.83V764.39L719.8 764.42ZM719.8 764.42H719.83V764.39L719.8 764.42ZM719.8 764.42H719.83V764.39L719.8 764.42ZM719.8 764.42H719.83V764.39L719.8 764.42ZM719.8 764.42H719.83V764.39L719.8 764.42ZM720.22 764.47V764.48L720.25 764.47H720.22ZM719.8 764.42H719.83V764.39L719.8 764.42ZM738.37 764.45L729.1 764.93H1440V764.45H738.37ZM721.74 766.19L721.02 765.79L721.66 766.66L723.3 767.91L721.74 766.19ZM723.27 766.08L721.74 765.68L722.43 766.07L725.06 766.92L723.27 766.08ZM724.12 765.79L725.68 766.19L727.36 766.45L724.12 765.79ZM719.43 765.82L719.18 766.25L719.48 765.98L719.43 765.82ZM723.82 765.76L722.93 765.67L724.74 766.05L723.82 765.76ZM721.51 765.62L721.46 765.61L721.83 765.88L721.51 765.62ZM719.33 765.42L719.31 765.34L719.23 765.42V765.34L719.21 765.36L719.23 765.3H719.13L718.96 765.42L719.01 765.4L718.83 765.5L718.98 765.48L718.93 765.7L719.11 765.59L718.93 765.73L719.06 765.65V765.68L719.21 765.61L719.08 765.65L719.33 765.45V765.42ZM721.04 765.5L720.99 765.49L721.24 765.64L721.04 765.5ZM726.32 765.61L723.64 765.19L722.31 765.27L722.03 765.18L722.93 765.09L722.33 765L721.93 764.94L721.49 765L721.29 764.94L721.14 764.97L721.22 765L721.29 765.03L721.26 765.04L721.74 765.21L721.86 765.19L722.16 765.27L721.93 765.28L723.05 765.5L722.83 765.43L726.32 765.61ZM720.64 765.4V765.45H720.67V765.4H720.64ZM721.59 765.3L721.14 765.33L721.76 765.39L721.59 765.3ZM721.12 765.33H721.09L721.14 765.36L721.12 765.33ZM720.89 765.34H720.97V765.33L720.89 765.34ZM720.79 765.1L720.77 765.12L720.69 765.07L720.67 765.1L720.72 765.12L720.62 765.15V765.13L720.55 765.15L720.57 765.16L720.52 765.18L720.64 765.3V765.31L720.69 765.33V765.31H720.72L720.82 765.3L720.79 765.1ZM720.87 765.24L720.89 765.3H720.92L720.87 765.24ZM720.84 765.12L720.99 765.28H721.04L720.84 765.12ZM720.94 765.13L721.09 765.27L721.44 765.24L720.94 765.13ZM719.21 765.25L719.26 765.27V765.24L719.21 765.25ZM719.26 765.21L719.21 765.22L719.26 765.24H719.28L719.26 765.21ZM719.23 765.09L719.08 765.21L719.16 765.22L719.26 765.15L719.23 765.09ZM718.96 765.19H719.01L719.06 765.12L718.96 765.19ZM719.01 765L718.54 765.12L718.79 765.16L719.08 765.01L719.01 765ZM721.09 765.07L720.94 765.09L721.29 765.16L721.09 765.07ZM716.15 765L715.54 764.94L714.89 765L714.57 765.03L716.75 765.15L717.07 765.09L716.15 765ZM720.4 765.1L720.42 765.12L720.47 765.07L720.4 765.1ZM719.23 765.07L719.13 765.04L719.11 765.03L719.03 765.12H719.06L719.11 765.07V765.1L719.23 765.07ZM719.45 765.09V765.1H719.48V765.09H719.45ZM720.52 765.04L720.5 765.06L720.52 765.1L720.6 765.07L720.52 765.04ZM720.47 765.04V765.06H720.5V765.04H720.47ZM720.55 765.03L720.57 765.04V765.03H720.55ZM720.65 765L720.64 764.99L720.6 765.01L720.67 765.03H720.69L720.65 765ZM720.69 765V765.03H720.72L720.69 765ZM719.18 764.94L719.13 765H719.16L719.21 764.97L719.18 764.94ZM729.2 764.45H725.08L723.72 764.67L722.31 764.6L722.16 764.64L723.17 764.75L722.03 764.93H728.95L726 764.78L729.2 764.45ZM721.49 764.87L721.31 764.93H721.83L721.49 764.87ZM719.16 764.85V764.93H719.18L719.16 764.85ZM719.18 764.84L719.16 764.85L719.21 764.87L719.18 764.84ZM719.8 764.42H719.83V764.39L719.8 764.42ZM1440 574.29L730.14 762.05L726.35 763.28H725.48L724.46 763.54L725.13 763.28L724.29 763.29L722.75 764.01L721.91 764.23H722.28L721.31 764.39L721.26 764.41L722.06 764.33L721.98 764.36L723.69 764.15L723.4 764.23H723.47L723.35 764.26L727.46 764.09L726.65 764.21L731.7 764.2L738.03 763.57L744.75 763.23L741.25 763.25L1440 692.93V692.53L724.09 764.08L723.74 764.15L723.97 764.09L727.91 763.28H727.07L1440 575.28V574.29ZM718.71 764.24H718.98L718.49 764.03L718.61 764.15L717.89 763.71L717.94 763.72L717.27 763.31H716.88L717.69 763.63L718.04 763.89L716.7 763.31H716.26L714.97 762.89L715.86 763.31H714.72L707.38 760.44L0 531.47V531.62L710.9 762.33L714.67 763.31H713.95L716.26 764.06L716.78 764.11L714.82 763.35L717.4 764.02L717.79 764.21L718.49 764.29L718.39 764.24L718.56 764.29L718.51 764.24L718.86 764.32L718.71 764.24ZM716.36 764.09L716.8 764.24H717.1L716.36 764.09ZM763.59 763.19L744 764.17L1440 762.43V761.49L763.59 763.19ZM728.01 763.28L725.18 763.86L729.03 763.28H728.01ZM712.73 763.32H712.31L714.27 763.72L712.73 763.32ZM720.55 763.29H720.32L720.42 763.62L720.57 763.46L720.55 763.29ZM725.36 761.24L722.8 763.22L902.65 645.84L725.36 761.24ZM713.5 761.54L98.68 475.39L710.55 760.84L716.28 763.07L713.5 761.54ZM718.44 762.57L718.64 763.03L718.66 763.04L718.44 762.57ZM712.16 758.45L0 211.65V213.96L715.24 761.75L717.12 762.97L712.16 758.45ZM731.58 759.88L725.31 762.82L731.51 760.78L1440 482.64V480.89L731.58 759.88ZM726.67 758.11L722.8 762.42L726.22 759.77L1183.99 339.22L726.67 758.11ZM715.14 758.91L27.43 1e-05H23.87L712.31 757.24L717.2 761.7L715.14 758.91ZM928.14 1e-05L722.23 753.61L721.26 760.8L723.25 756.06L931.48 1e-05H928.14ZM0 575.84V576.05L211.4 631.44L0 575.84ZM0 368.1V368.67L428.72 604.5L0 368.1ZM1209.8 387.63L1440 210.48V210.11L1209.8 387.63ZM1409.9 1e-05L1084.01 361.62L1411.08 1e-05H1409.9ZM506.9 1e-05H506.84L515.48 30.9L506.9 1e-05Z" fill="#C5DDDB"/>
</g>
<defs>
<linearGradient id="paint0_linear_79_3" x1="720" y1="0" x2="720" y2="765" gradientUnits="userSpaceOnUse">
<stop stop-color="#6CC0E5"/>
<stop offset="1" stop-color="#6096BE"/>
</linearGradient>
<clipPath id="clip0_79_3">
<rect width="1440" height="767.91" fill="white"/>
</clipPath>
</defs>
</svg>
