<svg width="1440" height="429" viewBox="0 0 1440 429" fill="none" xmlns="http://www.w3.org/2000/svg">
<g clip-path="url(#clip0_79_7)">
<path d="M267.4 113.469C267.296 115.501 267.133 117.509 266.911 119.505L266.911 119.51C264.942 137.397 258.382 153.791 248.48 167.573C238.696 181.201 225.644 192.27 210.531 199.684C195.511 207.063 178.453 210.828 160.552 209.912C158.033 209.783 155.538 209.566 153.072 209.255C141.305 207.794 130.199 204.335 120.085 199.254C111.893 195.135 104.35 189.946 97.6264 183.881C89.862 176.878 83.1958 168.709 77.8926 159.661C71.6481 149.007 67.2883 137.131 65.2672 124.532C64.1457 117.57 63.7344 110.389 64.1092 103.065C64.3488 98.384 64.9035 93.7894 65.7468 89.3094C68.0108 77.2636 72.3863 66.0048 78.4545 55.911C86.1771 43.0512 96.6536 32.0798 109.021 23.7662C126.642 11.9073 148.111 5.45237 170.957 6.62158C178.092 6.98677 185.021 8.08024 191.671 9.8235C202.066 12.5472 211.785 16.8688 220.568 22.4906C226.925 26.5603 232.788 31.3136 238.062 36.6409C245.035 43.6827 250.974 51.725 255.656 60.5217C260.37 69.38 263.812 79.0019 265.74 89.1255L265.74 89.1305C267.235 96.9803 267.827 105.128 267.4 113.469Z" fill="#3B3654"/>
<path d="M303.464 58.8498C306.065 61.8542 309.055 64.3105 312.304 66.2198L312.307 66.2236C317.286 69.1482 322.853 70.772 328.491 71.0542C337.296 71.4972 346.28 68.6729 353.469 62.4497C354.038 61.9569 354.591 61.4453 355.12 60.9214C358.178 57.9249 360.581 54.4925 362.32 50.8038C365.903 43.2181 366.674 34.5711 364.516 26.4874C363.175 21.4564 360.7 16.6477 357.065 12.4483C355.179 10.2694 353.081 8.37229 350.832 6.77171C345.997 3.32021 340.455 1.21388 334.749 0.488528C330.626 -0.038022 326.42 0.161088 322.337 1.09724C316.864 2.34684 311.606 4.91985 307.067 8.8489C306.219 9.58315 305.415 10.3453 304.661 11.1429C301.826 14.0918 299.599 17.4309 297.985 20.9978C296.028 25.3036 294.973 29.943 294.835 34.613C294.656 40.6234 295.998 46.6901 298.906 52.191C300.138 54.5277 301.659 56.7652 303.464 58.8498Z" fill="#714F5D"/>
<path d="M294.834 34.613C298.631 35.9361 303.203 36.6541 307.781 35.2163C309.293 34.7384 311.274 33.8807 319.309 26.7005C329.929 17.2107 330.84 14.8126 335.703 11.7765C338.886 9.79286 343.723 7.55725 350.832 6.77171C345.997 3.32021 340.454 1.21388 334.749 0.488525C330.094 5.44136 325.912 9.62233 322.415 13.0185C316.787 18.4844 313.962 20.8968 309.601 21.9154C305.262 22.9286 301.179 22.1503 297.985 20.9978C296.028 25.3036 294.973 29.943 294.834 34.613Z" fill="#524351"/>
<path d="M303.464 58.8498C306.065 61.8542 309.055 64.3105 312.304 66.2198L312.307 66.2236C316.735 65.5032 319.927 64.0787 322.151 62.7861C326.483 60.263 327.389 58.0802 332.251 55.3621C336.77 52.8349 340.694 52.0888 344.478 51.3715C348.41 50.6259 354.581 49.8931 362.32 50.8037C365.903 43.2181 366.674 34.5711 364.516 26.4874C360.76 33.6434 356.439 36.7575 352.886 38.2302C342.342 42.5965 333.439 34.6351 322.298 40.8177C317.507 43.4809 317.634 45.7981 311.753 48.7787C307.245 51.0593 302.745 51.9407 298.906 52.191C300.138 54.5277 301.659 56.7651 303.464 58.8498Z" fill="#524351"/>
<path d="M328.491 71.0542C337.296 71.4972 346.28 68.6729 353.468 62.4497C354.038 61.9569 354.591 61.4453 355.12 60.9214C351.704 60.9901 345.6 62.6538 341.105 64.4015C336.588 66.1548 331.762 68.7306 328.491 71.0542Z" fill="#524351"/>
<path d="M304.661 11.1429C307.151 11.5661 311.531 10.9129 315.018 8.97595C318.56 7.01112 321.137 3.72552 322.337 1.09726C316.864 2.34686 311.606 4.91987 307.067 8.84892C306.219 9.58317 305.415 10.3453 304.661 11.1429Z" fill="#524351"/>
<path d="M341.267 20.9226C344.909 19.9733 349.698 21.244 350.311 23.6842C350.953 26.2388 346.942 29.7754 342.974 30.5792C339.782 31.2258 335.356 30.3601 334.643 28.0145C333.884 25.5132 337.521 21.8991 341.267 20.9226Z" fill="#524351"/>
<path d="M238.062 36.6409C228.372 47.443 221.302 53.6163 216.478 57.1437C210.68 61.3702 208.118 61.7783 208.118 61.7783C178.368 77.0903 153.115 63.0621 113.529 68.8344C99.7266 70.8489 86.9393 74.7825 65.7466 89.3094C68.0106 77.2636 72.3861 66.0048 78.4543 55.911C87.5848 51.5356 98.3683 47.8339 110.662 46.2265C139.759 42.4136 165.29 49.7362 190.583 43.4721C201.404 40.7957 207.295 37.3828 220.568 22.4906C226.925 26.5603 232.788 31.3136 238.062 36.6409Z" fill="#5F4574"/>
<path d="M266.911 119.51C264.942 137.397 258.382 153.791 248.48 167.573C239.456 170.556 228.67 173.418 216.396 175.331C190.387 179.387 179.125 175.855 159.365 180.63C148.951 183.153 135.299 188.19 120.085 199.254C111.893 195.135 104.35 189.946 97.6265 183.881C109.304 171.693 120.385 166.554 128.893 164.198C142.79 160.346 149.948 163.868 175.183 162.259C181.384 161.867 200.011 160.679 214.626 156.449C225.303 153.361 245.944 145.136 266.911 119.51Z" fill="#5F4574"/>
<path d="M191.671 9.8235C183.143 16.2767 168.111 23.68 153.427 26.5381C136.66 29.8038 118.465 27.5046 109.021 23.7662C126.642 11.9073 148.111 5.45237 170.956 6.62158C178.092 6.98677 185.02 8.08024 191.671 9.8235Z" fill="#5F4574"/>
<path d="M210.531 199.684C195.511 207.063 178.453 210.828 160.552 209.912C158.033 209.783 155.538 209.565 153.072 209.255C159.559 204.16 171.721 198.577 184.01 197.174C193.366 196.105 203.033 197.433 210.531 199.684Z" fill="#5F4574"/>
<path d="M255.656 60.5217C246.451 79.716 235.133 88.8821 226.841 93.6649C212.04 102.208 197.016 104.178 153.807 104.253C123.6 104.305 108.646 101.041 94.6787 106.077C82.3795 110.52 72.6807 117.512 65.2671 124.532C67.2882 137.131 71.648 149.007 77.8925 159.661C102.097 159.057 114.236 155.321 124.031 150.151C135.591 144.058 141.687 137.599 160.344 130.97C172.573 126.624 184.432 125.623 188.031 125.338C205.685 123.955 210.077 127.699 222.897 124.776C235.707 121.857 244.338 115.149 247.393 112.72C256.537 105.454 262.216 96.7234 265.74 89.1305L265.74 89.1255C263.812 79.0019 260.37 69.38 255.656 60.5217ZM110.134 138.087C102.822 139.568 92.6829 137.585 91.0513 132.212C89.3115 126.482 97.6434 118.202 106.225 115.966C114.567 113.791 125.538 116.702 126.942 122.292C128.412 128.144 119.225 136.245 110.134 138.087Z" fill="#5F4574"/>
<path d="M267.4 113.469C267.296 115.501 267.133 117.509 266.911 119.505L266.911 119.51C264.942 137.397 258.382 153.791 248.48 167.573C238.696 181.201 225.644 192.27 210.531 199.684C195.511 207.063 178.453 210.828 160.552 209.912C158.033 209.783 155.538 209.566 153.072 209.255C141.305 207.794 130.199 204.335 120.085 199.254C111.893 195.135 104.35 189.946 97.6264 183.881C89.862 176.878 83.1958 168.709 77.8926 159.661C71.6481 149.007 67.2883 137.131 65.2672 124.532C64.1457 117.57 63.7344 110.389 64.1092 103.065C64.3488 98.384 64.9035 93.7894 65.7468 89.3094C68.0108 77.2636 72.3863 66.0048 78.4545 55.911C86.1771 43.0512 96.6536 32.0798 109.021 23.7662C126.642 11.9073 148.111 5.45237 170.957 6.62158C178.092 6.98677 185.021 8.08024 191.671 9.8235C202.066 12.5472 211.785 16.8688 220.568 22.4906C226.925 26.5603 232.788 31.3136 238.062 36.6409C245.035 43.6827 250.974 51.725 255.656 60.5217C260.37 69.38 263.812 79.0019 265.74 89.1255L265.74 89.1305C267.235 96.9803 267.827 105.128 267.4 113.469Z" fill="url(#paint0_linear_79_7)"/>
<path d="M303.464 58.8498C306.065 61.8542 309.055 64.3105 312.304 66.2198L312.307 66.2236C317.286 69.1482 322.853 70.772 328.491 71.0542C337.296 71.4972 346.28 68.6729 353.469 62.4497C354.038 61.9569 354.591 61.4453 355.12 60.9214C358.178 57.9249 360.581 54.4925 362.32 50.8038C365.903 43.2181 366.674 34.5711 364.516 26.4874C363.175 21.4564 360.7 16.6477 357.065 12.4483C355.179 10.2694 353.081 8.37229 350.832 6.77171C345.997 3.32021 340.455 1.21388 334.749 0.488528C330.626 -0.038022 326.42 0.161088 322.337 1.09724C316.864 2.34684 311.606 4.91985 307.067 8.8489C306.219 9.58315 305.415 10.3453 304.661 11.1429C301.826 14.0918 299.599 17.4309 297.985 20.9978C296.028 25.3036 294.973 29.943 294.835 34.613C294.656 40.6234 295.998 46.6901 298.906 52.191C300.138 54.5277 301.659 56.7652 303.464 58.8498Z" fill="url(#paint1_linear_79_7)"/>
<path d="M1440 98.7761V151.266C1151 185.096 859.97 214.946 567.85 202.046C379.32 193.636 187.58 167.836 0 167.096V105.376C17.8 106.196 36.31 107.056 55.83 107.556C158 110.206 259.03 124.696 360.54 134.326C676.46 164.216 1079.13 136.416 1440 98.7761Z" fill="url(#paint2_linear_79_7)"/>
<path d="M1440 190.786V291.546C959.28 281.646 477.13 236.286 0 270.636V238.886C75.2 236.146 150.62 229.656 225.91 227.266C538.02 217.216 733.83 254.036 1045.28 233.506C1139.21 227.266 1319.96 208.066 1440 190.786Z" fill="url(#paint3_linear_79_7)"/>
<path d="M1440 325.136V422.466C1331 426.956 1220.65 432.006 1112.13 425.176C936.52 414.236 723.99 352.036 548.46 360.986C365.63 370.236 181.92 400.896 0 398.616V322.736C207.84 307.206 435.1 300.536 627.74 309.416C796.66 317.246 964.42 342.186 1133.66 344.616C1230.59 345.916 1336.39 331.366 1440 325.136Z" fill="url(#paint4_linear_79_7)"/>
<path d="M438.967 145.851C444.099 149.462 453.019 154.671 465.27 156.88C489.539 161.256 508.691 150.58 513.648 147.615" stroke="#355B20" stroke-width="2.85635" stroke-miterlimit="10"/>
<path d="M437.141 155.132C438.54 157.452 447.254 171.391 464.305 174.458C486.103 178.379 501.103 160.855 501.916 159.872" stroke="#355B20" stroke-width="2.85635" stroke-miterlimit="10"/>
<path d="M575.726 173.516C577.131 175.031 586.803 185.113 601.911 184.466C614.049 183.947 621.853 176.84 623.812 174.944" stroke="#355B20" stroke-width="2.85635" stroke-miterlimit="10"/>
<path d="M751.292 153.649C752.357 154.652 760.076 161.684 771.288 160.314C780.852 159.146 786.338 152.674 787.476 151.268" stroke="#355B20" stroke-width="2.85635" stroke-miterlimit="10"/>
<path d="M555.301 128.967C557.411 131.644 570.64 147.861 594.74 150.242C620.051 152.742 637.1 137.982 639.523 135.812" stroke="#355B20" stroke-width="2.85635" stroke-miterlimit="10"/>
<path d="M554.97 230.853H509.821C508.893 230.853 508.06 231.426 507.729 232.293L502.48 246.039C502.149 246.907 501.316 247.48 500.387 247.48H457.59C455.913 247.48 454.83 245.704 455.599 244.213L517.184 124.829C517.568 124.084 518.336 123.616 519.174 123.616H558.246C559.109 123.616 559.895 124.111 560.267 124.89L617.346 244.274C618.057 245.761 616.973 247.48 615.325 247.48H564.717C563.804 247.48 562.983 246.926 562.64 246.08L557.046 232.253C556.704 231.406 555.883 230.853 554.97 230.853ZM545.899 204.236L533.775 174.145C533.013 172.254 530.325 172.282 529.603 174.189L518.21 204.28C517.655 205.746 518.737 207.313 520.304 207.313H543.821C545.408 207.313 546.492 205.708 545.899 204.236Z" fill="#454654"/>
<path d="M452.772 247.08L455.822 240.512L473.886 226.905H481.862L492.185 231.832L489.839 240.746L464.268 252.711L452.772 247.08Z" fill="#697976"/>
<path d="M500.366 228.495L504.596 224.536L516.325 220.985L522.311 226.962L518.036 233.084L506.996 235.3L500.366 228.495Z" fill="#708080"/>
<path d="M590.966 241.364L588.653 230.946L594.233 226.881L610.988 226.796L616.836 240.644L610.444 245.883L590.966 241.364Z" fill="#697976"/>
<path d="M545.945 218.869L552.749 216.523L567.763 217.696L572.689 227.314L562.602 234.442L545.945 228.722V218.869Z" fill="#697976"/>
<path d="M540.991 209.252V212.283H547.325L555.302 206.653V200.553L548.146 199.161L540.991 209.252Z" fill="#7E8E8D"/>
<path d="M490.647 246.792V243.273L498.155 237.877H506.131V245.15L497.216 249.842L490.647 246.792Z" fill="#708080"/>
<path d="M574.873 205.416L592.051 211.83L593.087 222.191L586.946 225.482L573.405 215.143L574.873 205.416Z" fill="#708080"/>
<path d="M562.602 239.519L559.317 246.323L567.997 249.842L582.308 242.569L583.246 236L573.393 232.97L562.602 239.519Z" fill="#7E8E8D"/>
<path d="M488.891 198.032L490.135 205.12L486.609 219.762L476.334 223.11L470.887 212.025L479.161 196.479L488.891 198.032Z" fill="#697976"/>
<path d="M513.939 196.39L520.149 200.692L524.975 192.665L520.016 177.397L513.673 175.449L509.147 184.711L513.939 196.39Z" fill="#7E8E8D"/>
<path d="M498.652 212.645L500.411 214.885L497.876 222.429L492.317 226.796L488.681 222.166L492.549 214.299L498.652 212.645Z" fill="#7E8E8D"/>
<path d="M566.209 202.805L563.314 200.56L564.121 190.355L569.693 183.17L575.676 187.81L573.307 198.834L566.209 202.805Z" fill="#708080"/>
<path d="M559.595 123.616H517.705C515.214 128.513 512.722 133.41 510.231 138.307C511.668 141.256 514.222 145.33 518.239 146.105C523.25 147.073 525.678 141.97 531.333 142.569C536.836 143.152 537.033 148.248 544.081 150.195C545.062 150.466 550.7 151.925 556.371 149.072C563.696 145.386 565.428 137.348 565.662 136.17C563.64 131.985 561.617 127.801 559.595 123.616Z" fill="#3A3652"/>
<path d="M555.769 132.477C562.444 132.477 567.854 129.748 567.854 126.381C567.854 123.014 562.444 120.285 555.769 120.285C549.095 120.285 543.684 123.014 543.684 126.381C543.684 129.748 549.095 132.477 555.769 132.477Z" fill="#5E8054"/>
<path d="M540.047 124.204C549.978 124.204 558.029 121.709 558.029 118.631C558.029 115.553 549.978 113.057 540.047 113.057C530.116 113.057 522.065 115.553 522.065 118.631C522.065 121.709 530.116 124.204 540.047 124.204Z" fill="#5E8054"/>
<path d="M524.906 135.698C534.038 135.698 541.44 131.877 541.44 127.164C541.44 122.451 534.038 118.631 524.906 118.631C515.774 118.631 508.371 122.451 508.371 127.164C508.371 131.877 515.774 135.698 524.906 135.698Z" fill="#5E8054"/>
<path d="M543.684 156.496C546.277 156.496 548.379 154.395 548.379 151.802C548.379 149.209 546.277 147.107 543.684 147.107C541.091 147.107 538.989 149.209 538.989 151.802C538.989 154.395 541.091 156.496 543.684 156.496Z" fill="#5E8054"/>
<path d="M548.379 121.088H538.989V151.802H548.379V121.088Z" fill="#5E8054"/>
<path d="M525.783 222.498C528.376 222.498 530.478 220.396 530.478 217.803C530.478 215.21 528.376 213.108 525.783 213.108C523.19 213.108 521.088 215.21 521.088 217.803C521.088 220.396 523.19 222.498 525.783 222.498Z" fill="#5E8054"/>
<path d="M530.478 207.32H521.088V217.803H530.478V207.32Z" fill="#5E8054"/>
<path d="M616.028 185.81C616.028 144.524 643.679 121.73 693.561 121.73C742.253 121.73 766.729 139.078 758.812 173.599C758.579 174.616 757.647 175.35 756.603 175.35H716.149C714.767 175.35 713.69 174.098 713.945 172.739C716.614 158.55 709.143 152.558 694.68 152.558C676.186 152.558 668.526 162.459 668.526 185.81C668.526 209.353 676.371 219.254 694.68 219.254C708.855 219.254 715.3 213.876 712.9 198.818C712.687 197.477 713.763 196.274 715.12 196.274H757.727C758.77 196.274 759.702 197.006 759.936 198.023C767.841 232.341 743.168 249.146 693.561 249.146C643.305 249.146 616.028 226.914 616.028 185.81Z" fill="#454654"/>
<path d="M644.087 240.742L643.314 230.099L649.426 226.889L666.016 229.243L669.786 243.795L662.701 248.048L644.087 240.742Z" fill="#697976"/>
<path d="M663.641 205.777L659.831 201.695L655.351 185.594L657.669 180.402L664.19 175.254L669.882 179.626L671.006 200.09L663.641 205.777Z" fill="#697976"/>
<path d="M680.387 219.408L685.821 217.396L698.01 218.665L701.213 226.494L694.901 230.482L683.864 228.25L680.387 219.408Z" fill="#708080"/>
<path d="M729.661 246.85L732.895 236.681L727.7 232.134L711.02 230.553L703.958 243.824L709.857 249.613L729.661 246.85Z" fill="#697976"/>
<path d="M712.729 206.528L719.87 207.421L732.83 215.092L733.012 225.897L720.816 227.848L708.386 215.372L712.729 206.528Z" fill="#7E8E8D"/>
<path d="M672.038 234.215L674.378 236.141L678.404 231.251L679.127 221.514L674.418 217.637L668.795 222.276L672.038 234.215Z" fill="#7E8E8D"/>
<path d="M632.541 173.969L635.916 174.966L638.965 183.694L636.705 191.344L629.731 189.284L627.756 179.405L632.541 173.969Z" fill="#7E8E8D"/>
<path d="M754.156 176.71L735.837 177.501L730.843 168.365L735.214 162.939L751.715 167.181L754.156 176.71Z" fill="#708080"/>
<path d="M681.503 241.548L680.366 249.017L689.697 249.826L701.234 238.664L700.198 232.11L689.89 232.113L681.503 241.548Z" fill="#708080"/>
<path d="M652.838 202.209L653.268 209.393L648.102 223.539L637.513 225.697L633.36 214.065L643.348 199.56L652.838 202.209Z" fill="#708080"/>
<path d="M620.82 215.086L627.03 219.389L631.856 211.361L626.897 196.094L620.554 194.146L616.028 203.408L620.82 215.086Z" fill="#708080"/>
<path d="M713.658 177.501L712.046 175.153L715.06 167.787L720.888 163.786L724.22 168.639L719.855 176.242L713.658 177.501Z" fill="#7E8E8D"/>
<path d="M746.972 228.156L744.955 221.24L746.914 206.307L756.88 201.889L763.555 212.335L756.921 228.671L746.972 228.156Z" fill="#697976"/>
<path d="M627.927 146.706C629.016 148.465 631.285 151.607 635.278 154.114C636.887 155.124 640.872 157.626 645.393 157.535C654.959 157.343 657.134 145.74 665.868 145.65C671.721 145.59 672.438 150.782 678.521 150.687C686.73 150.559 688.473 141.055 695.912 140.945C702.125 140.853 702.614 147.457 713.086 151.547C716.265 152.788 723.242 154.922 731.344 153.158C737.863 151.738 742.486 148.367 745.306 146.311C748.585 143.92 750.999 141.491 752.635 139.643C752.099 139.035 751.25 138.103 750.149 137.034C734.122 121.48 710.724 121.624 693.561 121.73C684.438 121.786 669.187 122.002 654.058 128.055C648.714 130.194 638.907 134.243 630.399 143.738C629.318 144.945 628.48 145.991 627.927 146.706Z" fill="#3A3652"/>
<path d="M671.647 137.422C684.769 137.422 695.406 132.778 695.406 127.05C695.406 121.322 684.769 116.678 671.647 116.678C658.526 116.678 647.888 121.322 647.888 127.05C647.888 132.778 658.526 137.422 671.647 137.422Z" fill="#5E8054"/>
<path d="M645.998 138.92C654.181 138.92 660.815 135.68 660.815 131.682C660.815 127.685 654.181 124.445 645.998 124.445C637.815 124.445 631.181 127.685 631.181 131.682C631.181 135.68 637.815 138.92 645.998 138.92Z" fill="#5E8054"/>
<path d="M639.523 146.952C645.083 146.952 649.59 144.458 649.59 141.382C649.59 138.305 645.083 135.812 639.523 135.812C633.963 135.812 629.456 138.305 629.456 141.382C629.456 144.458 633.963 146.952 639.523 146.952Z" fill="#5E8054"/>
<path d="M710.119 135.297C726.513 135.297 739.803 130.826 739.803 125.31C739.803 119.795 726.513 115.323 710.119 115.323C693.725 115.323 680.435 119.795 680.435 125.31C680.435 130.826 693.725 135.297 710.119 135.297Z" fill="#5E8054"/>
<path d="M738.504 137.575C746.393 137.575 752.788 134.3 752.788 130.259C752.788 126.219 746.393 122.944 738.504 122.944C730.615 122.944 724.22 126.219 724.22 130.259C724.22 134.3 730.615 137.575 738.504 137.575Z" fill="#5E8054"/>
<path d="M718.427 144.157C726.482 144.157 733.012 141.142 733.012 137.422C733.012 133.703 726.482 130.687 718.427 130.687C710.371 130.687 703.841 133.703 703.841 137.422C703.841 141.142 710.371 144.157 718.427 144.157Z" fill="#5E8054"/>
<path d="M738.504 213.411C741.097 213.411 743.199 211.309 743.199 208.716C743.199 206.124 741.097 204.022 738.504 204.022C735.911 204.022 733.809 206.124 733.809 208.716C733.809 211.309 735.911 213.411 738.504 213.411Z" fill="#5E8054"/>
<path d="M743.199 196.284H733.809V208.716H743.199V196.284Z" fill="#5E8054"/>
<path d="M710.511 130.975C720.644 130.975 728.859 128.487 728.859 125.418C728.859 122.349 720.644 119.861 710.511 119.861C700.377 119.861 692.162 122.349 692.162 125.418C692.162 128.487 700.377 130.975 710.511 130.975Z" fill="#60975F"/>
<path d="M843.781 200.888L833.398 210.983C832.964 211.405 832.719 211.985 832.719 212.591V245.086C832.719 246.324 831.715 247.328 830.477 247.328H784.33C783.092 247.328 782.088 246.324 782.088 245.086V125.706C782.088 124.468 783.092 123.464 784.33 123.464H830.477C831.715 123.464 832.719 124.468 832.719 125.706V163.643C832.719 165.85 835.571 166.729 836.814 164.905L864.373 124.444C864.79 123.831 865.484 123.464 866.226 123.464H918.527C920.544 123.464 921.535 125.918 920.085 127.319L881.65 164.441C880.896 165.169 880.747 166.323 881.293 167.219L927.98 243.921C928.889 245.415 927.814 247.328 926.065 247.328H867.483C866.57 247.328 865.749 246.775 865.406 245.93L847.421 201.652C846.823 200.178 844.922 199.779 843.781 200.888Z" fill="#454654"/>
<path d="M910.482 228.513L907.884 221.606L890.783 206.518L882.824 205.99L872.19 210.334L873.927 219.59L898.63 233.499L910.482 228.513Z" fill="#697976"/>
<path d="M893.22 237.679L889.995 232.865L879.372 226.753L872.19 231.221L874.97 238.152L885.223 242.807L893.22 237.679Z" fill="#708080"/>
<path d="M804.342 245.685L806.655 235.268L801.075 231.203L784.32 231.117L778.472 244.965L784.863 250.204L804.342 245.685Z" fill="#697976"/>
<path d="M834.686 211.181L827.883 208.835L812.868 210.008L807.942 219.626L818.03 226.753L834.686 221.034V211.181Z" fill="#697976"/>
<path d="M854.088 199.543V202.574H847.754L839.778 196.943V190.844L846.933 189.451L854.088 199.543Z" fill="#7E8E8D"/>
<path d="M879.025 246.335L878.469 242.86L870.204 238.717L862.328 239.976L863.476 247.157L873.02 250.383L879.025 246.335Z" fill="#7E8E8D"/>
<path d="M798.484 203.737L781.306 210.151L780.27 220.512L786.411 223.803L799.952 213.464L798.484 203.737Z" fill="#708080"/>
<path d="M834.285 238.774L837.569 245.578L828.889 249.097L814.579 241.824L813.64 235.256L823.493 232.225L834.285 238.774Z" fill="#7E8E8D"/>
<path d="M878.38 177.107L877.95 184.29L883.117 198.436L893.706 200.595L897.858 188.962L887.87 174.457L878.38 177.107Z" fill="#708080"/>
<path d="M864.807 226.316L858.286 230.13L854.088 221.757L860.201 206.914L866.675 205.457L870.479 215.039L864.807 226.316Z" fill="#708080"/>
<path d="M914.4 226.423L912.641 228.663L915.176 236.207L920.735 240.574L924.371 235.945L920.503 228.078L914.4 226.423Z" fill="#7E8E8D"/>
<path d="M806.082 207.119L809.586 206.048L812.456 196.222L809.798 187.526L802.558 189.739L800.857 200.886L806.082 207.119Z" fill="#7E8E8D"/>
<path d="M809.211 229.279L809.959 226.53L804.687 220.568L797.866 218.71L796.319 224.39L802.945 230.13L809.211 229.279Z" fill="#708080"/>
<path d="M814.193 174.313L822.583 167.719L828.663 170.989L835.992 186.056L826.04 197.322L818.551 193.828L814.193 174.313Z" fill="#697976"/>
<path d="M895.984 242.885L897.318 246.297L907.334 248.413L915.803 245.103L913.046 238.051L901.803 237.202L895.984 242.885Z" fill="#708080"/>
<path d="M782.088 123.464V142.912C784.042 146.069 786.745 149.404 789.506 148.84C793.891 147.945 794.894 137.936 798.226 138.014C801.423 138.089 801.628 147.327 807.515 150.645C808.354 151.117 811.912 152.937 815.098 150.902C820.064 147.731 819.884 137.901 823.25 137.499C825.078 137.28 825.79 140.491 827.799 140.334C830.041 140.158 831.69 136.039 832.719 132.663V123.464L782.088 123.464Z" fill="#3A3652"/>
<path d="M865.04 123.464H924.076C910.943 136.002 903.697 137.369 899.447 135.909C897.83 135.354 896.003 134.17 893.261 134.523C887.754 135.233 886.593 141.111 882.384 141.135C878.398 141.158 877.657 135.897 873.319 135.696C868.853 135.489 866.852 140.937 863.295 140.282C861.779 140.003 859.861 138.594 858.172 133.548C860.461 130.186 862.751 126.825 865.04 123.464Z" fill="#3A3652"/>
<path d="M895.984 127.384C907.723 127.384 917.239 123.486 917.239 118.677C917.239 113.869 907.723 109.971 895.984 109.971C884.245 109.971 874.729 113.869 874.729 118.677C874.729 123.486 884.245 127.384 895.984 127.384Z" fill="#5E8054"/>
<path d="M874.141 128.46C881.742 128.46 887.904 125.777 887.904 122.468C887.904 119.159 881.742 116.477 874.141 116.477C866.539 116.477 860.377 119.159 860.377 122.468C860.377 125.777 866.539 128.46 874.141 128.46Z" fill="#5E8054"/>
<path d="M912.64 129.461C921.028 129.461 927.828 126.735 927.828 123.373C927.828 120.011 921.028 117.285 912.64 117.285C904.252 117.285 897.453 120.011 897.453 123.373C897.453 126.735 904.252 129.461 912.64 129.461Z" fill="#5E8054"/>
<path d="M887.904 133.618C893.177 133.618 897.453 131.757 897.453 129.461C897.453 127.165 893.177 125.304 887.904 125.304C882.63 125.304 878.354 127.165 878.354 129.461C878.354 131.757 882.63 133.618 887.904 133.618Z" fill="#5E8054"/>
<path d="M898.708 155.83C901.301 155.83 903.403 153.728 903.403 151.136C903.403 148.543 901.301 146.441 898.708 146.441C896.116 146.441 894.014 148.543 894.014 151.136C894.014 153.728 896.116 155.83 898.708 155.83Z" fill="#5E8054"/>
<path d="M894.014 151.135H903.403V126.641H894.014V151.135Z" fill="#5E8054"/>
<path d="M792.109 128.154C800.721 128.154 807.703 124.82 807.703 120.708C807.703 116.596 800.721 113.263 792.109 113.263C783.496 113.263 776.515 116.596 776.515 120.708C776.515 124.82 783.496 128.154 792.109 128.154Z" fill="#5E8054"/>
<path d="M819.023 130.306C830.517 130.306 839.834 125.629 839.834 119.861C839.834 114.092 830.517 109.416 819.023 109.416C807.53 109.416 798.213 114.092 798.213 119.861C798.213 125.629 807.53 130.306 819.023 130.306Z" fill="#5E8054"/>
<path d="M825.093 135.381C830.963 135.381 835.722 133.109 835.722 130.306C835.722 127.503 830.963 125.231 825.093 125.231C819.222 125.231 814.463 127.503 814.463 130.306C814.463 133.109 819.222 135.381 825.093 135.381Z" fill="#5E8054"/>
<path d="M818.523 123.01C826.363 123.01 832.719 120.578 832.719 117.578C832.719 114.579 826.363 112.147 818.523 112.147C810.682 112.147 804.327 114.579 804.327 117.578C804.327 120.578 810.682 123.01 818.523 123.01Z" fill="#60975F"/>
<path d="M313.762 124.42H359.908C361.146 124.42 362.15 125.424 362.15 126.662V167.95C362.15 169.188 363.154 170.192 364.392 170.192H393.537C394.776 170.192 395.779 169.188 395.779 167.95V126.662C395.779 125.424 396.783 124.42 398.021 124.42H444.165C445.403 124.42 446.407 125.424 446.407 126.662V246.042C446.407 247.281 445.403 248.284 444.165 248.284H398.021C396.783 248.284 395.779 247.281 395.779 246.042V203.073C395.779 201.835 394.776 200.831 393.537 200.831H364.392C363.154 200.831 362.15 201.835 362.15 203.073V246.042C362.15 247.281 361.146 248.284 359.908 248.284H313.762C312.523 248.284 311.52 247.281 311.52 246.042V126.662C311.52 125.424 312.523 124.42 313.762 124.42Z" fill="#454654"/>
<path d="M362.061 234.113L364.633 228.92L364.649 216.665L357.2 212.658L352.571 218.517L353.634 229.727L362.061 234.113Z" fill="#697976"/>
<path d="M333.891 211.94L330.691 201.76L323.826 201.026L309.269 209.322L311.121 224.24L319.275 225.585L333.891 211.94Z" fill="#697976"/>
<path d="M343.598 208.592L337.217 211.918L327.744 223.626L331.339 233.817L343.451 231.394L350.752 215.367L343.598 208.592Z" fill="#708080"/>
<path d="M348.045 204.458L345.346 205.837L342.464 200.196L343.85 190.532L349.281 187.757L353.777 193.495L348.045 204.458Z" fill="#7E8E8D"/>
<path d="M333.903 188.968V185.449L326.396 180.053H318.419V187.325L327.334 192.017L333.903 188.968Z" fill="#708080"/>
<path d="M329.563 235.06L311.264 236.233L307.276 245.851L312.202 250.778L328.155 244.795L329.563 235.06Z" fill="#708080"/>
<path d="M360.016 241.482L363.567 248.15L355.034 252.01L340.446 245.311L339.248 238.785L348.973 235.366L360.016 241.482Z" fill="#697976"/>
<path d="M429.679 227.514L427.485 234.417L411.29 250.202L403.378 251.212L392.515 247.632L393.713 238.492L417.563 223.385L429.679 227.514Z" fill="#697976"/>
<path d="M427.91 239.441L433.472 237.817L445.542 239.942L448.185 247.976L441.608 251.511L430.756 248.506L427.91 239.441Z" fill="#708080"/>
<path d="M425.849 214.752L431.714 205.837L438.517 207.01L450.247 218.975L444.382 232.816L436.171 231.877L425.849 214.752Z" fill="#697976"/>
<path d="M407.178 185.453L413.981 183.107L428.995 184.28L433.922 193.898L423.834 201.026L407.178 195.306V185.453Z" fill="#697976"/>
<path d="M438.967 200.635L440.655 203.153L445.916 199.624L449.404 190.505L446.007 185.44L439.289 188.269L438.967 200.635Z" fill="#7E8E8D"/>
<path d="M394.02 224.137V220.618L401.527 215.222H409.503V222.495L400.588 227.187L394.02 224.137Z" fill="#7E8E8D"/>
<path d="M401.761 201.442L383.527 203.369L377.975 194.56L382.001 188.874L398.734 192.083L401.761 201.442Z" fill="#708080"/>
<path d="M405.706 167.973L402.421 174.776L411.102 178.295L425.412 171.023L426.35 164.454L416.497 161.423L405.706 167.973Z" fill="#7E8E8D"/>
<path d="M362.15 124.42H311.52V147.376C314.196 149.35 318.285 151.582 323.036 150.738C330.85 149.35 333.389 140.896 339.611 142.146C344.467 143.121 345.158 148.72 350.092 149.617C354.923 150.495 359.254 146.035 362.15 142.146V124.42Z" fill="#3A3652"/>
<path d="M395.775 124.42C395.777 128.282 395.778 132.144 395.779 136.006C399.057 143.131 401.72 144.47 403.482 144.48C406.912 144.499 407.936 139.548 411.914 139.361C415.35 139.199 415.85 142.812 421.155 144.176C422.726 144.58 425.293 145.239 428.157 144.024C432.819 142.045 433.393 137.171 436.494 137.328C439.368 137.474 440.371 141.738 442.648 141.234C444.514 140.821 445.723 137.538 446.497 134.437C446.467 131.098 446.437 127.759 446.407 124.42H395.775Z" fill="#3A3652"/>
<path d="M327.04 133.385C338.071 133.385 347.014 129.747 347.014 125.261C347.014 120.774 338.071 117.136 327.04 117.136C316.008 117.136 307.066 120.774 307.066 125.261C307.066 129.747 316.008 133.385 327.04 133.385Z" fill="#5E8054"/>
<path d="M370.594 190.061C373.187 190.061 375.289 187.959 375.289 185.366C375.289 182.773 373.187 180.672 370.594 180.672C368.001 180.672 365.899 182.773 365.899 185.366C365.899 187.959 368.001 190.061 370.594 190.061Z" fill="#5E8054"/>
<path d="M375.289 170.188H365.899V185.366H375.289V170.188Z" fill="#5E8054"/>
<path d="M379.983 183.628C382.576 183.628 384.678 181.526 384.678 178.933C384.678 176.34 382.576 174.238 379.983 174.238C377.391 174.238 375.289 176.34 375.289 178.933C375.289 181.526 377.391 183.628 379.983 183.628Z" fill="#5E8054"/>
<path d="M384.678 170.188H375.289V178.933H384.678V170.188Z" fill="#5E8054"/>
<path d="M338.545 127.896C347.969 127.896 355.61 124.411 355.61 120.112C355.61 115.812 347.969 112.327 338.545 112.327C329.12 112.327 321.479 115.812 321.479 120.112C321.479 124.411 329.12 127.896 338.545 127.896Z" fill="#5E8054"/>
<path d="M327.011 140.37C331.875 140.37 335.818 138.316 335.818 135.782C335.818 133.248 331.875 131.194 327.011 131.194C322.147 131.194 318.204 133.248 318.204 135.782C318.204 138.316 322.147 140.37 327.011 140.37Z" fill="#5E8054"/>
<path d="M408.121 132.706C416.739 132.706 423.726 128.986 423.726 124.396C423.726 119.807 416.739 116.087 408.121 116.087C399.502 116.087 392.516 119.807 392.516 124.396C392.516 128.986 399.502 132.706 408.121 132.706Z" fill="#5E8054"/>
<path d="M431.37 131.781C441.233 131.781 449.228 127.426 449.228 122.054C449.228 116.682 441.233 112.327 431.37 112.327C421.507 112.327 413.512 116.682 413.512 122.054C413.512 127.426 421.507 131.781 431.37 131.781Z" fill="#5E8054"/>
<path d="M353.847 133.379C360.503 133.379 365.899 130.409 365.899 126.745C365.899 123.081 360.503 120.112 353.847 120.112C347.192 120.112 341.796 123.081 341.796 126.745C341.796 130.409 347.192 133.379 353.847 133.379Z" fill="#5E8054"/>
<path d="M338.022 124.396C344.087 124.396 349.004 122.536 349.004 120.241C349.004 117.947 344.087 116.087 338.022 116.087C331.957 116.087 327.04 117.947 327.04 120.241C327.04 122.536 331.957 124.396 338.022 124.396Z" fill="#60975F"/>
<path d="M398.471 328.896C399.792 330.344 408.07 339.111 421.517 339.139C435.838 339.168 444.424 329.262 445.588 327.872" stroke="#355B20" stroke-width="2.85635" stroke-miterlimit="10"/>
<path d="M475.581 275.179C476.073 276.046 486.488 293.692 506.771 294.122C521.308 294.429 534.862 285.765 541.078 272.138" stroke="#355B20" stroke-width="2.85635" stroke-miterlimit="10"/>
<path d="M313.83 271.423H422.749C423.988 271.423 424.991 272.427 424.991 273.665V299.633C424.991 300.871 423.988 301.875 422.749 301.875H364.461C363.222 301.875 362.219 302.878 362.219 304.117V317.382C362.219 318.62 363.222 319.624 364.461 319.624H404.44C405.679 319.624 406.682 320.628 406.682 321.866V344.285C406.682 345.523 405.679 346.527 404.44 346.527H364.461C363.222 346.527 362.219 347.531 362.219 348.769V393.045C362.219 394.284 361.215 395.287 359.977 395.287H313.83C312.592 395.287 311.588 394.284 311.588 393.045V273.665C311.588 272.427 312.592 271.423 313.83 271.423Z" fill="#454654"/>
<path d="M346.033 377.054L343.222 383.298L326.57 396.232H319.217L309.701 391.549L311.864 383.075L335.436 371.702L346.033 377.054Z" fill="#697976"/>
<path d="M343.892 389.309L348.818 386.259L361.017 385.086L365.709 392.124L360.313 397.285H349.053L343.892 389.309Z" fill="#708080"/>
<path d="M343.892 365.114L349.757 356.2L356.56 357.373L368.29 369.337L362.425 383.178L354.214 382.24L343.892 365.114Z" fill="#697976"/>
<path d="M326.639 334.627L333.442 332.281L348.456 333.454L353.383 343.073L343.295 350.2L326.639 344.48V334.627Z" fill="#697976"/>
<path d="M356.09 348.521V351.551H362.424L370.401 345.921V339.821L363.246 338.429L356.09 348.521Z" fill="#7E8E8D"/>
<path d="M309.701 374.163V370.644L317.208 365.248H325.185V372.521L316.27 377.213L309.701 374.163Z" fill="#7E8E8D"/>
<path d="M315.184 348.341L333.482 349.514L337.47 359.132L332.544 364.059L316.591 358.076L315.184 348.341Z" fill="#708080"/>
<path d="M322.458 315.101L319.174 321.904L327.854 325.423L342.164 318.15L343.103 311.582L333.25 308.551L322.458 315.101Z" fill="#708080"/>
<path d="M311.588 290.513C321.041 298.604 327.583 299.453 331.946 298.507C337.922 297.212 340.548 292.391 349.87 290.798C351.954 290.442 355.291 289.872 359.506 290.605C366.472 291.818 368.532 295.319 375.299 296.319C379.57 296.951 382.981 296.181 384.56 295.809C396.325 293.039 398.757 283.326 405.368 284.21C410.772 284.933 411.964 291.855 416.892 291.592C420.48 291.4 423.226 287.705 424.991 284.592V271.423H311.588V290.513Z" fill="#3A3652"/>
<path d="M362.218 319.624C366.113 325.009 369.489 326.429 372.075 326.506C376.519 326.639 377.925 322.786 382.608 322.999C387.821 323.237 389.181 328.15 393.525 328.156C395.834 328.159 399.266 326.777 403.503 319.624H362.218Z" fill="#3A3652"/>
<path d="M319.174 276.066C327.103 276.066 333.531 273.061 333.531 269.353C333.531 265.646 327.103 262.641 319.174 262.641C311.244 262.641 304.816 265.646 304.816 269.353C304.816 273.061 311.244 276.066 319.174 276.066Z" fill="#5E8054"/>
<path d="M409.549 276.135C419.559 276.135 427.675 272.603 427.675 268.245C427.675 263.886 419.559 260.354 409.549 260.354C399.538 260.354 391.423 263.886 391.423 268.245C391.423 272.603 399.538 276.135 409.549 276.135Z" fill="#5E8054"/>
<path d="M386.46 277.722C397.077 277.722 405.683 273.975 405.683 269.353C405.683 264.732 397.077 260.985 386.46 260.985C375.843 260.985 367.237 264.732 367.237 269.353C367.237 273.975 375.843 277.722 386.46 277.722Z" fill="#5E8054"/>
<path d="M337.806 279.849C345.746 279.849 352.184 277.046 352.184 273.589C352.184 270.133 345.746 267.33 337.806 267.33C329.865 267.33 323.428 270.133 323.428 273.589C323.428 277.046 329.865 279.849 337.806 279.849Z" fill="#5E8054"/>
<path d="M352.184 275.621C365.563 275.621 376.409 271.615 376.409 266.672C376.409 261.73 365.563 257.723 352.184 257.723C338.804 257.723 327.958 261.73 327.958 266.672C327.958 271.615 338.804 275.621 352.184 275.621Z" fill="#5E8054"/>
<path d="M369.439 282.858C375.955 282.858 381.237 280.559 381.237 277.722C381.237 274.886 375.955 272.586 369.439 272.586C362.924 272.586 357.642 274.886 357.642 277.722C357.642 280.559 362.924 282.858 369.439 282.858Z" fill="#5E8054"/>
<path d="M419.199 278.353C425.783 278.353 431.121 276.03 431.121 273.163C431.121 270.297 425.783 267.973 419.199 267.973C412.614 267.973 407.276 270.297 407.276 273.163C407.276 276.03 412.614 278.353 419.199 278.353Z" fill="#5E8054"/>
<path d="M376.409 334.813C379.002 334.813 381.104 332.711 381.104 330.118C381.104 327.525 379.002 325.423 376.409 325.423C373.816 325.423 371.714 327.525 371.714 330.118C371.714 332.711 373.816 334.813 376.409 334.813Z" fill="#5E8054"/>
<path d="M381.104 319.634H371.714V330.118H381.104V319.634Z" fill="#5E8054"/>
<path d="M324.172 302.779C326.765 302.779 328.867 300.677 328.867 298.084C328.867 295.491 326.765 293.389 324.172 293.389C321.579 293.389 319.478 295.491 319.478 298.084C319.478 300.677 321.579 302.779 324.172 302.779Z" fill="#5E8054"/>
<path d="M328.867 273.589H319.478V298.084H328.867V273.589Z" fill="#5E8054"/>
<path d="M438.208 345.979V273.678C438.208 272.44 439.212 271.436 440.45 271.436H486.411C487.649 271.436 488.653 272.44 488.653 273.678V345.979C488.653 360.551 492.95 366.342 507.333 366.342C522.279 366.342 526.391 360.738 526.391 345.979V273.678C526.391 272.44 527.394 271.436 528.633 271.436H563.382C564.62 271.436 565.624 272.44 565.624 273.678V345.979C565.624 380.355 544.326 397.169 506.588 397.169C460.254 397.169 438.208 382.036 438.208 345.979Z" fill="#454654"/>
<path d="M464.137 392.587L461.824 382.169L467.404 378.104L484.159 378.019L490.007 391.867L483.616 397.106L464.137 392.587Z" fill="#697976"/>
<path d="M484.393 366.163L479.838 361.816L473.657 342.897L475.868 336.165L482.779 328.784L489.458 333.17L492.208 357.982L484.393 366.163Z" fill="#697976"/>
<path d="M492.915 377.741L498.695 377.334L510.039 381.972L510.917 390.385L503.739 392.443L493.772 387.203L492.915 377.741Z" fill="#7E8E8D"/>
<path d="M564.846 356.997L567.159 346.58L561.58 342.514L544.825 342.429L538.976 356.277L545.368 361.516L564.846 356.997Z" fill="#697976"/>
<path d="M524.727 367.548L531.53 365.202L546.544 366.375L551.471 375.993L541.383 383.121L524.727 377.401V367.548Z" fill="#7E8E8D"/>
<path d="M525.654 343.461L527.993 345.387L532.019 340.497L532.742 330.761L528.033 326.884L522.41 331.523L525.654 343.461Z" fill="#7E8E8D"/>
<path d="M464.903 347.473L468.278 348.47L471.326 357.198L469.067 364.848L462.093 362.788L460.118 352.909L464.903 347.473Z" fill="#7E8E8D"/>
<path d="M500.051 364.848L518.072 364.135L522.06 373.316L517.134 378.019L501.181 372.308L500.051 364.848Z" fill="#708080"/>
<path d="M516.046 389.67L512.762 396.474L521.442 399.993L535.752 392.72L536.691 386.151L526.838 383.121L516.046 389.67Z" fill="#708080"/>
<path d="M456.43 345.741L456.861 352.925L451.694 367.07L441.105 369.229L436.953 357.597L446.94 343.092L456.43 345.741Z" fill="#7E8E8D"/>
<path d="M452.752 335.203L458.962 339.505L463.788 331.478L458.829 316.211L452.486 314.262L447.96 323.524L452.752 335.203Z" fill="#708080"/>
<path d="M463.191 367.086L464.95 369.326L462.415 376.87L456.856 381.237L453.22 376.607L457.088 368.74L463.191 367.086Z" fill="#708080"/>
<path d="M438.208 271.436V288.033C439.959 290.448 442.544 293.174 445.599 293.092C450.095 292.971 451.442 286.878 455.874 286.678C460.947 286.449 462.928 294.265 467.209 293.7C471.641 293.114 472.305 284.367 477.159 283.962C479.904 283.734 481.169 286.41 483.752 285.833C486.26 285.272 487.75 282.148 488.653 279.287V271.436H438.208Z" fill="#3A3652"/>
<path d="M565.624 271.436H526.391V289.45C528.465 290.999 531.633 292.751 535.315 292.089C541.369 290.999 543.337 284.365 548.158 285.346C551.921 286.112 552.457 290.505 556.28 291.209C560.024 291.898 563.38 288.398 565.624 285.346V271.436Z" fill="#3A3652"/>
<path d="M533.603 275.777C541.454 275.777 547.818 273.006 547.818 269.588C547.818 266.17 541.454 263.4 533.603 263.4C525.752 263.4 519.387 266.17 519.387 269.588C519.387 273.006 525.752 275.777 533.603 275.777Z" fill="#5E8054"/>
<path d="M555.49 278.412C563.45 278.412 569.903 275.603 569.903 272.138C569.903 268.673 563.45 265.863 555.49 265.863C547.53 265.863 541.078 268.673 541.078 272.138C541.078 275.603 547.53 278.412 555.49 278.412Z" fill="#5E8054"/>
<path d="M545.196 271.784C553.16 271.784 559.616 268.974 559.616 265.507C559.616 262.039 553.16 259.229 545.196 259.229C537.232 259.229 530.776 262.039 530.776 265.507C530.776 268.974 537.232 271.784 545.196 271.784Z" fill="#5E8054"/>
<path d="M463.293 275.515C475.032 275.515 484.548 271.373 484.548 266.262C484.548 261.152 475.032 257.009 463.293 257.009C451.554 257.009 442.038 261.152 442.038 266.262C442.038 271.373 451.554 275.515 463.293 275.515Z" fill="#5E8054"/>
<path d="M482.935 276.328C489.32 276.328 494.496 274.075 494.496 271.295C494.496 268.516 489.32 266.262 482.935 266.262C476.55 266.262 471.374 268.516 471.374 271.295C471.374 274.075 476.55 276.328 482.935 276.328Z" fill="#5E8054"/>
<path d="M444.284 276.328C451.372 276.328 457.119 273.827 457.119 270.741C457.119 267.655 451.372 265.153 444.284 265.153C437.196 265.153 431.449 267.655 431.449 270.741C431.449 273.827 437.196 276.328 444.284 276.328Z" fill="#5E8054"/>
<path d="M471.374 281.487C476.648 281.487 480.923 279.626 480.923 277.33C480.923 275.034 476.648 273.172 471.374 273.172C466.1 273.172 461.825 275.034 461.825 277.33C461.825 279.626 466.1 281.487 471.374 281.487Z" fill="#5E8054"/>
<path d="M460.569 297.466C463.162 297.466 465.264 295.364 465.264 292.771C465.264 290.178 463.162 288.076 460.569 288.076C457.976 288.076 455.874 290.178 455.874 292.771C455.874 295.364 457.976 297.466 460.569 297.466Z" fill="#5E8054"/>
<path d="M465.264 268.277H455.874V292.771H465.264V268.277Z" fill="#5E8054"/>
<path d="M460.758 269.588C467.882 269.588 473.657 267.312 473.657 264.504C473.657 261.697 467.882 259.42 460.758 259.42C453.634 259.42 447.859 261.697 447.859 264.504C447.859 267.312 453.634 269.588 460.758 269.588Z" fill="#60975F"/>
<path d="M989.567 305.117C991.067 306.638 998.603 313.962 1009.75 313.176C1019.93 312.459 1026.33 305.464 1027.9 303.643" stroke="#355B20" stroke-width="2.85635" stroke-miterlimit="10"/>
<path d="M834.993 283.722C836.004 284.812 842.722 291.813 853.534 291.588C864.403 291.36 870.84 284.007 871.794 282.879" stroke="#355B20" stroke-width="2.85635" stroke-miterlimit="10"/>
<path d="M836.386 287.944C835.443 298.552 843.695 307.618 853.532 307.918C863.689 308.228 872.65 299.106 871.81 288.133" stroke="#355B20" stroke-width="2.85635" stroke-miterlimit="10"/>
<path d="M654.491 330.958C661.555 343.076 674.542 350.491 688.384 350.251C703.282 349.993 716.815 340.908 722.926 327.051" stroke="#355B20" stroke-width="2.85635" stroke-miterlimit="10"/>
<path d="M772.26 397.744C734.519 397.744 713.224 380.929 713.224 346.554V274.253C713.224 273.015 714.228 272.011 715.466 272.011H750.213C751.451 272.011 752.455 273.015 752.455 274.253V346.554C752.455 361.313 756.566 366.917 771.512 366.917C785.898 366.917 790.195 361.126 790.195 346.554V274.253C790.195 273.015 791.199 272.011 792.437 272.011H838.395C839.633 272.011 840.637 273.015 840.637 274.253V346.554C840.637 382.611 818.591 397.744 772.26 397.744Z" fill="#454654"/>
<path d="M814.937 392.784L817.25 382.366L811.67 378.301L794.915 378.216L789.067 392.064L795.459 397.303L814.937 392.784Z" fill="#697976"/>
<path d="M719.396 357.154L723.168 352.786L727.134 335.205L724.52 329.41L717.559 323.526L711.851 328.151L711.539 350.648L719.396 357.154Z" fill="#708080"/>
<path d="M788.251 379.643L782.472 379.236L771.128 383.874L770.25 392.287L777.427 394.344L787.394 389.105L788.251 379.643Z" fill="#708080"/>
<path d="M746.093 371.786L748.1 361.306L754.834 359.786L770.25 366.349L770.129 381.381L762.184 383.657L746.093 371.786Z" fill="#708080"/>
<path d="M726.509 384.812L732.948 381.598L742.624 370.058L739.208 359.806L727.056 362.016L719.475 377.912L726.509 384.812Z" fill="#697976"/>
<path d="M811.823 341.894L809.483 343.82L805.457 338.93L804.734 329.193L809.443 325.317L815.066 329.956L811.823 341.894Z" fill="#7E8E8D"/>
<path d="M806.674 354.935L803.299 355.931L800.251 364.659L802.51 372.309L809.485 370.249L811.46 360.371L806.674 354.935Z" fill="#708080"/>
<path d="M841.598 342.899L842.587 324.59L833.504 319.497L828.032 323.81L832.095 340.356L841.598 342.899Z" fill="#697976"/>
<path d="M757.686 389.231L760.97 396.034L752.29 399.553L737.98 392.28L737.042 385.712L746.895 382.681L757.686 389.231Z" fill="#7E8E8D"/>
<path d="M821.892 345.549L821.461 352.732L826.628 366.878L837.217 369.037L841.369 357.404L831.382 342.899L821.892 345.549Z" fill="#708080"/>
<path d="M795.459 365.473L789.249 369.776L784.423 361.748L789.382 346.481L795.725 344.533L800.251 353.795L795.459 365.473Z" fill="#7E8E8D"/>
<path d="M816.46 369.956L814.701 372.196L817.236 379.741L822.795 384.107L826.431 379.478L822.563 371.611L816.46 369.956Z" fill="#7E8E8D"/>
<path d="M743.155 300.312L736.381 322.314L745.895 331.279L753.872 327.691L753.956 306.301L743.155 300.312Z" fill="#697976"/>
<path d="M713.224 272.011V285.041C714.913 288.154 717.452 291.624 720.801 291.855C725.821 292.203 728.195 284.966 732.838 285.429C738.116 285.955 739.206 295.726 743.802 296.02C745.754 296.146 748.616 294.579 752.455 286.744V272.011H713.224Z" fill="#3A3652"/>
<path d="M840.637 272.011H790.283C790.254 277.894 790.224 283.777 790.195 289.66C791.57 297.426 793.84 306.637 797.447 308.406C801.863 310.572 804.004 299.488 809.442 300.271C814.691 301.027 814.861 311.664 821.855 315.784C823.214 316.585 828.668 319.622 834.156 312.912C837.754 308.512 839.75 302.001 840.637 298.637V272.011Z" fill="#3A3652"/>
<path d="M746.126 277.814C753.225 277.814 758.98 275.066 758.98 271.677C758.98 268.287 753.225 265.539 746.126 265.539C739.026 265.539 733.271 268.287 733.271 271.677C733.271 275.066 739.026 277.814 746.126 277.814Z" fill="#5E8054"/>
<path d="M723.939 279.588C733.413 279.588 741.093 275.733 741.093 270.978C741.093 266.223 733.413 262.368 723.939 262.368C714.465 262.368 706.785 266.223 706.785 270.978C706.785 275.733 714.465 279.588 723.939 279.588Z" fill="#5E8054"/>
<path d="M718.936 283.771C723.775 283.771 727.698 281.898 727.698 279.588C727.698 277.277 723.775 275.404 718.936 275.404C714.097 275.404 710.174 277.277 710.174 279.588C710.174 281.898 714.097 283.771 718.936 283.771Z" fill="#5E8054"/>
<path d="M832.947 279.998C839.622 279.998 845.033 277.269 845.033 273.902C845.033 270.535 839.622 267.806 832.947 267.806C826.273 267.806 820.862 270.535 820.862 273.902C820.862 277.269 826.273 279.998 832.947 279.998Z" fill="#5E8054"/>
<path d="M817.195 276.699C827.649 276.699 836.123 273.221 836.123 268.932C836.123 264.642 827.649 261.165 817.195 261.165C806.741 261.165 798.267 264.642 798.267 268.932C798.267 273.221 806.741 276.699 817.195 276.699Z" fill="#5E8054"/>
<path d="M796.769 276.432C802.514 276.432 807.172 273.74 807.172 270.419C807.172 267.098 802.514 264.405 796.769 264.405C791.024 264.405 786.367 267.098 786.367 270.419C786.367 273.74 791.024 276.432 796.769 276.432Z" fill="#5E8054"/>
<path d="M804.734 282.062C809.927 282.062 814.137 279.938 814.137 277.318C814.137 274.699 809.927 272.575 804.734 272.575C799.541 272.575 795.331 274.699 795.331 277.318C795.331 279.938 799.541 282.062 804.734 282.062Z" fill="#5E8054"/>
<path d="M814.137 293.34C816.73 293.34 818.832 291.238 818.832 288.645C818.832 286.052 816.73 283.95 814.137 283.95C811.544 283.95 809.442 286.052 809.442 288.645C809.442 291.238 811.544 293.34 814.137 293.34Z" fill="#5E8054"/>
<path d="M818.832 273.466H809.442V288.645H818.832V273.466Z" fill="#5E8054"/>
<path d="M823.526 300.481C826.119 300.481 828.221 298.38 828.221 295.787C828.221 293.194 826.119 291.092 823.526 291.092C820.933 291.092 818.832 293.194 818.832 295.787C818.832 298.38 820.933 300.481 823.526 300.481Z" fill="#5E8054"/>
<path d="M828.221 271.292H818.832V295.787H828.221V271.292Z" fill="#5E8054"/>
<path d="M612.303 301.839H580.731C579.493 301.839 578.489 300.835 578.489 299.597V273.815C578.489 272.577 579.493 271.573 580.731 271.573H698.615C699.854 271.573 700.857 272.577 700.857 273.815V299.597C700.857 300.835 699.854 301.839 698.615 301.839H667.229C665.991 301.839 664.987 302.843 664.987 304.081V393.195C664.987 394.434 663.983 395.437 662.745 395.437H616.787C615.549 395.437 614.545 394.434 614.545 393.195V304.081C614.545 302.843 613.541 301.839 612.303 301.839Z" fill="#454654"/>
<path d="M665.808 385.025L668.379 379.833L668.396 367.578L660.946 363.571L656.317 369.43L657.38 380.64L665.808 385.025Z" fill="#697976"/>
<path d="M635.933 362.205L632.733 352.026L625.868 351.291L611.311 359.587L613.163 374.505L621.317 375.851L635.933 362.205Z" fill="#697976"/>
<path d="M649.452 355.56L643.071 358.886L633.598 370.594L637.193 380.785L649.305 378.362L656.606 362.335L649.452 355.56Z" fill="#708080"/>
<path d="M641.514 356.97L638.815 358.349L635.933 352.708L637.318 343.043L642.75 340.269L647.245 346.007L641.514 356.97Z" fill="#7E8E8D"/>
<path d="M637.938 335.936V332.417L630.431 327.021H622.455V334.293L631.369 338.985L637.938 335.936Z" fill="#7E8E8D"/>
<path d="M633.598 382.028L615.299 383.201L611.311 392.819L616.238 397.746L632.19 391.763L633.598 382.028Z" fill="#708080"/>
<path d="M662.559 388.793L665.843 395.596L657.163 399.115L642.852 391.843L641.914 385.274L651.767 382.243L662.559 388.793Z" fill="#697976"/>
<path d="M578.489 271.573V284.344C579.534 285.728 586.195 294.258 596.19 293.335C603.066 292.701 604.567 284.696 610.262 284.964C618.303 285.344 619.898 299.803 628.026 300.466C634.396 300.986 635.56 292.279 643.713 291.785C650.678 291.363 651.938 297.59 658.477 296.746C665.98 295.778 667.181 289.094 673.703 289.307C680.798 289.538 682.935 298.172 688.929 297.888C691.77 297.754 695.969 295.592 700.857 284.964V271.573H578.489Z" fill="#3A3652"/>
<path d="M628.423 281.569C643.583 281.569 655.872 276.782 655.872 270.878C655.872 264.973 643.583 260.187 628.423 260.187C613.263 260.187 600.974 264.973 600.974 270.878C600.974 276.782 613.263 281.569 628.423 281.569Z" fill="#5E8054"/>
<path d="M687.191 278.754C696.306 278.754 703.696 275.537 703.696 271.568C703.696 267.6 696.306 264.383 687.191 264.383C678.075 264.383 670.686 267.6 670.686 271.568C670.686 275.537 678.075 278.754 687.191 278.754Z" fill="#5E8054"/>
<path d="M585.443 276.112C592.083 276.112 597.466 273.769 597.466 270.878C597.466 267.987 592.083 265.643 585.443 265.643C578.802 265.643 573.419 267.987 573.419 270.878C573.419 273.769 578.802 276.112 585.443 276.112Z" fill="#5E8054"/>
<path d="M598.694 280.887C605.335 280.887 610.718 278.543 610.718 275.652C610.718 272.761 605.335 270.418 598.694 270.418C592.054 270.418 586.67 272.761 586.67 275.652C586.67 278.543 592.054 280.887 598.694 280.887Z" fill="#5E8054"/>
<path d="M601.116 271.634C609.772 271.634 616.789 269.29 616.789 266.399C616.789 263.508 609.772 261.165 601.116 261.165C592.46 261.165 585.442 263.508 585.442 266.399C585.442 269.29 592.46 271.634 601.116 271.634Z" fill="#5E8054"/>
<path d="M669.596 284.838C676.379 284.838 681.878 282.444 681.878 279.491C681.878 276.538 676.379 274.144 669.596 274.144C662.812 274.144 657.313 276.538 657.313 279.491C657.313 282.444 662.812 284.838 669.596 284.838Z" fill="#5E8054"/>
<path d="M657.314 277.632C667.344 277.632 675.475 274.092 675.475 269.725C675.475 265.359 667.344 261.819 657.314 261.819C647.283 261.819 639.152 265.359 639.152 269.725C639.152 274.092 647.283 277.632 657.314 277.632Z" fill="#5E8054"/>
<path d="M646.493 305.183C649.086 305.183 651.188 303.082 651.188 300.489C651.188 297.896 649.086 295.794 646.493 295.794C643.9 295.794 641.798 297.896 641.798 300.489C641.798 303.082 643.9 305.183 646.493 305.183Z" fill="#5E8054"/>
<path d="M651.188 275.994H641.798V300.489H651.188V275.994Z" fill="#5E8054"/>
<path d="M633.118 318.062C635.711 318.062 637.812 315.961 637.812 313.368C637.812 310.775 635.711 308.673 633.118 308.673C630.525 308.673 628.423 310.775 628.423 313.368C628.423 315.961 630.525 318.062 633.118 318.062Z" fill="#5E8054"/>
<path d="M637.812 273.525H628.423V313.368H637.812V273.525Z" fill="#5E8054"/>
<path d="M626.152 275.156C634.676 275.156 641.586 272.37 641.586 268.933C641.586 265.496 634.676 262.71 626.152 262.71C617.628 262.71 610.718 265.496 610.718 268.933C610.718 272.37 617.628 275.156 626.152 275.156Z" fill="#60975F"/>
<path d="M968.172 225.319C968.979 225.743 968.647 227.548 968.18 232.132C967.459 239.204 966.645 247.192 967.12 253.061C968.048 264.513 974.101 270.588 971.636 272.85C970.202 274.167 968.242 272.015 963.047 273.019C962.157 273.191 959.988 273.503 957.34 272.933C957.036 272.867 956.732 272.76 956.36 272.591C950.97 270.134 950.093 255.601 954.199 243.881C957.974 233.107 966.124 224.24 968.172 225.319Z" fill="#9CB09F"/>
<path d="M959.441 241.993C958.721 243.695 957.973 245.853 957.453 248.409C956.9 251.127 956.759 253.538 956.778 255.465" stroke="#8C9E8F" stroke-width="0.95212" stroke-miterlimit="10" stroke-linecap="round"/>
<path d="M962.734 243.074C962.198 246.599 961.828 251.015 962.103 256.081C962.4 261.579 963.37 266.256 964.391 269.881" stroke="#8C9E8F" stroke-width="0.95212" stroke-miterlimit="10" stroke-linecap="round"/>
<path d="M952.183 242.172C952.358 242.789 952.705 243.604 953.45 243.999C954.688 244.655 955.721 243.457 957.374 243.948C958.973 244.422 958.821 245.713 960.177 245.908C961.571 246.109 962.188 244.808 963.829 244.995C964.869 245.114 965.028 245.683 966.115 245.908C967.435 246.182 968.729 245.658 969.584 245.2C969.176 243.773 968.807 242.211 968.518 240.527C968.171 238.507 967.995 236.625 967.928 234.917C964.245 234.419 960.546 233.909 956.863 233.399C956.784 233.927 956.653 234.552 956.432 235.242C956.318 235.599 956.051 236.379 955.461 237.476C954.355 239.534 952.789 241.451 952.183 242.172Z" fill="#707E72"/>
<path d="M981.619 217.206C982.271 218.03 990.417 228.501 987.452 235.737C986.513 238.03 984.008 241.115 982.081 240.737C980.807 240.487 980.085 238.789 978.933 239.295C978.276 239.583 978.156 240.29 977.598 241.004C976.402 242.534 974.844 241.989 970.724 241.892C966.064 241.782 965.572 242.381 964.214 241.43C962.817 240.451 962.647 239.299 961.227 239.023C959.98 238.781 959.442 239.539 957.762 240.028C955.842 240.586 954.416 240.215 951.88 239.554C949.648 238.972 948.303 238.526 947.04 237.062C945.779 235.599 946.015 234.472 944.826 233.747C943.292 232.811 942.165 234.085 940.913 233.241C939.345 232.183 939.292 228.935 939.284 228.439C939.169 221.29 948.155 214.592 949.47 213.612C951.303 212.245 957.758 207.562 966.24 208.429C968.228 208.632 975.676 209.684 981.619 217.206Z" fill="#335954"/>
<path d="M952.852 221.875C952.899 221.099 953.569 220.341 954.326 220.131C954.898 219.972 955.498 219.939 956.085 220.03C957.7 220.279 960.291 220.908 961.985 220.9C963.443 220.894 964.993 219.019 965.167 218.738" stroke="#7DB0A5" stroke-width="0.81087" stroke-linecap="round" stroke-linejoin="round"/>
<path d="M976.002 225.377C976.187 224.622 975.771 223.7 975.11 223.275C974.611 222.954 974.047 222.745 973.46 222.658C971.843 222.419 969.182 222.253 967.566 221.745C966.175 221.307 965.249 219.058 965.167 218.738" stroke="#7DB0A5" stroke-width="0.81087" stroke-linecap="round" stroke-linejoin="round"/>
<path d="M965.412 218.477C966.229 218.236 966.54 218.133 966.585 218.104L966.591 218.102C966.611 218.117 966.205 218.688 965.804 219.243" fill="#7DB0A5"/>
<path d="M965.412 218.477C966.229 218.236 966.54 218.133 966.585 218.104L966.591 218.102C966.611 218.117 966.205 218.688 965.804 219.243" stroke="#7DB0A5" stroke-width="0.81087" stroke-linecap="round" stroke-linejoin="round"/>
<path d="M965.009 218.416C964.3 217.944 964.034 217.754 963.999 217.712L963.994 217.709C963.97 217.717 964.189 218.383 964.409 219.032" fill="#7DB0A5"/>
<path d="M965.009 218.416C964.3 217.944 964.034 217.754 963.999 217.712L963.994 217.709C963.97 217.717 964.189 218.383 964.409 219.032" stroke="#7DB0A5" stroke-width="0.81087" stroke-linecap="round" stroke-linejoin="round"/>
<path d="M955.483 222.971C955.852 222.967 956.504 223.016 957.158 223.406C957.356 223.523 958.49 224.229 958.54 225.35C958.553 225.64 958.515 225.729 958.515 225.729C958.504 225.756 958.494 225.776 958.503 225.794C958.546 225.879 958.96 225.745 959.114 225.707C959.676 225.566 960.236 225.832 960.652 226.029C961.62 226.488 962.093 227.509 962.392 228.177C963.185 229.951 963.166 231.679 963.044 232.765" stroke="#7DB0A5" stroke-width="0.81087" stroke-linecap="round" stroke-linejoin="round"/>
<path d="M973.164 225.646C972.813 225.532 972.176 225.387 971.436 225.565C971.212 225.619 969.919 225.958 969.541 227.014C969.443 227.287 969.452 227.384 969.452 227.384C969.454 227.413 969.459 227.435 969.445 227.449C969.379 227.518 969.022 227.267 968.886 227.185C968.392 226.885 967.778 226.973 967.322 227.038C966.261 227.19 965.508 228.026 965.025 228.576C963.742 230.036 963.25 231.692 963.044 232.765" stroke="#7DB0A5" stroke-width="0.81087" stroke-linecap="round" stroke-linejoin="round"/>
<path d="M866.47 273.285C866.47 272.047 867.474 271.043 868.712 271.043H919.902C979.685 271.043 997.62 279.636 997.62 311.21C997.62 325.495 992.181 335.083 982.911 339.068C981.182 339.811 981.1 342.268 982.797 343.082C1001.39 352 994.847 379.788 999.47 391.862C1000.04 393.338 998.975 394.907 997.395 394.907H952.04C951.333 394.907 950.627 394.602 950.227 394.018C942.554 382.834 956.303 354.179 928.31 354.179H919.34C918.102 354.179 917.098 355.183 917.098 356.421V392.665C917.098 393.903 916.094 394.907 914.856 394.907H868.712C867.474 394.907 866.47 393.903 866.47 392.665V273.285ZM927.562 326.343C940.452 326.343 945.308 322.98 945.308 313.638C945.308 304.298 940.64 300.935 927.562 300.935H919.34C918.102 300.935 917.098 301.938 917.098 303.177V324.101C917.098 325.339 918.102 326.343 919.34 326.343H927.562Z" fill="#454654"/>
<path d="M860.561 393.094L863.611 386.526L881.675 372.919H889.651L899.973 377.846L897.627 386.76L872.056 398.725L860.561 393.094Z" fill="#697976"/>
<path d="M897.011 364.039L902.791 363.632L914.135 368.27L915.013 376.682L907.836 378.74L897.868 373.501L897.011 364.039Z" fill="#708080"/>
<path d="M977.789 393.364L975.476 382.947L981.055 378.882L997.81 378.796L1003.66 392.644L997.267 397.883L977.789 393.364Z" fill="#708080"/>
<path d="M943.9 361.955L950.704 359.609L965.718 360.782L970.644 370.4L960.557 377.527L943.9 371.808V361.955Z" fill="#697976"/>
<path d="M933.819 348.745V351.776H940.153L948.13 346.146V340.046L940.975 338.654L933.819 348.745Z" fill="#708080"/>
<path d="M904.218 395.675V392.156L911.725 386.76H919.702V394.033L910.787 398.725L904.218 395.675Z" fill="#7E8E8D"/>
<path d="M969.47 348.502L986.647 354.916L987.684 365.277L981.543 368.568L968.002 358.228L969.47 348.502Z" fill="#7E8E8D"/>
<path d="M948.592 386.453L945.308 393.257L953.988 396.776L968.299 389.503L969.237 382.934L959.384 379.904L948.592 386.453Z" fill="#7E8E8D"/>
<path d="M884.087 346.176L884.517 353.359L879.351 367.505L868.762 369.664L864.609 358.031L874.597 343.526L884.087 346.176Z" fill="#708080"/>
<path d="M893.89 345.583L900.099 349.885L904.925 341.858L899.967 326.591L893.624 324.642L889.098 333.904L893.89 345.583Z" fill="#697976"/>
<path d="M894.871 352.533L896.63 354.773L894.095 362.318L888.535 366.684L884.899 362.055L888.767 354.188L894.871 352.533Z" fill="#7E8E8D"/>
<path d="M959.77 345.891L956.875 343.646L957.682 333.441L963.254 326.256L969.237 330.896L966.869 341.92L959.77 345.891Z" fill="#7E8E8D"/>
<path d="M866.47 271.044C871.615 270.973 876.82 270.967 882.082 271.031C918.628 271.478 952.792 275.247 984.255 281.047C984.894 281.494 985.532 281.941 986.171 282.388C984.987 288.968 982.727 294.613 978.4 296.191C972.707 298.267 968.896 291.313 959.242 290.921C949.124 290.51 947.685 297.928 938.203 297.596C927.061 297.206 924.986 286.866 915.418 287.598C905.837 288.332 903.563 299.044 895.578 297.841C888.815 296.822 886.537 288.613 880.403 289.59C876.744 290.172 875.348 293.445 872.191 292.89C869.362 292.393 867.534 289.246 866.47 286.839V271.044Z" fill="#3A3652"/>
<path d="M939.865 280.941C952.987 280.941 963.624 276.297 963.624 270.569C963.624 264.84 952.987 260.197 939.865 260.197C926.743 260.197 916.106 264.84 916.106 270.569C916.106 276.297 926.743 280.941 939.865 280.941Z" fill="#5E8054"/>
<path d="M988.057 278.292C988.655 274.34 981.479 269.977 972.03 268.548C962.58 267.118 954.435 269.163 953.837 273.116C953.239 277.068 960.415 281.431 969.865 282.86C979.314 284.29 987.459 282.245 988.057 278.292Z" fill="#5E8054"/>
<path d="M971.977 288.574C976.591 288.574 980.331 286.505 980.331 283.952C980.331 281.4 976.591 279.331 971.977 279.331C967.364 279.331 963.624 281.4 963.624 283.952C963.624 286.505 967.364 288.574 971.977 288.574Z" fill="#5E8054"/>
<path d="M901.393 278.816C917.788 278.816 931.078 274.345 931.078 268.829C931.078 263.314 917.788 258.842 901.393 258.842C884.999 258.842 871.709 263.314 871.709 268.829C871.709 274.345 884.999 278.816 901.393 278.816Z" fill="#5E8054"/>
<path d="M873.008 281.093C880.897 281.093 887.293 277.818 887.293 273.778C887.293 269.738 880.897 266.463 873.008 266.463C865.119 266.463 858.724 269.738 858.724 273.778C858.724 277.818 865.119 281.093 873.008 281.093Z" fill="#5E8054"/>
<path d="M893.086 287.676C901.141 287.676 907.671 284.661 907.671 280.941C907.671 277.221 901.141 274.206 893.086 274.206C885.03 274.206 878.5 277.221 878.5 280.941C878.5 284.661 885.03 287.676 893.086 287.676Z" fill="#5E8054"/>
<path d="M924.909 342.99C927.502 342.99 929.604 340.888 929.604 338.295C929.604 335.702 927.502 333.6 924.909 333.6C922.316 333.6 920.214 335.702 920.214 338.295C920.214 340.888 922.316 342.99 924.909 342.99Z" fill="#5E8054"/>
<path d="M929.604 326.343H920.214V338.295H929.604V326.343Z" fill="#5E8054"/>
<path d="M899.319 275.099C908.423 275.099 915.803 272.249 915.803 268.733C915.803 265.218 908.423 262.368 899.319 262.368C890.215 262.368 882.835 265.218 882.835 268.733C882.835 272.249 890.215 275.099 899.319 275.099Z" fill="#60975F"/>
<path d="M1088.53 280.446C1078.91 287.358 1057.99 281.411 1051.57 269.609C1046.37 260.081 1054.03 253.075 1049.61 242.955C1049.49 242.706 1049.39 242.488 1049.27 242.238C1047.77 239.187 1045.72 237.038 1043.35 235.388C1039.58 232.741 1034.94 231.371 1030.21 229.441C1025.85 227.666 1021.43 225.424 1017.57 221.376C1017.44 221.251 1017.32 221.095 1017.19 220.971C1014.27 217.732 1011.46 213.124 1009.91 206.429C1008.41 199.983 1008.04 191.545 1009.72 180.46C1016.57 179.152 1023.45 177.813 1030.3 176.474C1031.33 182.951 1033.48 191.233 1038.56 198.395C1040.24 200.762 1042.26 203.035 1044.66 205.059C1052.6 211.754 1059.92 211.754 1067.33 213.498C1070.82 214.338 1074.3 215.553 1077.91 218.075C1081.12 220.317 1083.89 223.244 1086.26 226.607C1087.85 228.787 1089.25 231.184 1090.43 233.706C1092.33 237.63 1093.76 241.865 1094.76 246.162C1098 260.361 1096.16 274.965 1088.53 280.446Z" fill="#9CB09F"/>
<path d="M1016.29 202.149C1017.56 210.926 1020.87 215.877 1024.47 218.789C1030.49 223.655 1037.03 224.258 1044.58 227.691C1048.77 229.597 1056.35 233.993 1059.28 241.936C1060.89 246.315 1059.61 250.524 1059.28 253.019" stroke="#8C9E8F" stroke-width="0.95212" stroke-miterlimit="10" stroke-linecap="round"/>
<path d="M1027.8 193.293C1028.53 197.493 1029.83 200.376 1031.26 202.508C1032.37 204.163 1033.42 205.2 1034.62 206.387C1036.88 208.601 1040.53 212.115 1046.37 214.531C1048.74 215.511 1052.54 216.754 1057.47 216.983" stroke="#8C9E8F" stroke-width="0.95212" stroke-miterlimit="10" stroke-linecap="round"/>
<path d="M1067.92 226.568C1071.12 228.96 1074.58 232.271 1075.89 239.545C1076.09 240.619 1076.3 242.339 1075.89 247.456C1075.54 251.834 1074.79 258.014 1073.01 265.473" stroke="#8C9E8F" stroke-width="0.95212" stroke-miterlimit="10" stroke-linecap="round"/>
<path d="M1083.21 237.628C1084.43 240.623 1085.99 245.556 1085.92 251.763C1085.88 255.809 1085.15 259.2 1084.4 261.696" stroke="#8C9E8F" stroke-width="0.95212" stroke-miterlimit="10" stroke-linecap="round"/>
<path d="M1024.36 199.496C1024.2 200.693 1023.69 205.63 1026.94 210.352C1029.76 214.434 1033.68 215.883 1034.96 216.297" stroke="#8C9E8F" stroke-width="0.95212" stroke-miterlimit="10" stroke-linecap="round"/>
<path d="M1046.07 221.984C1048.16 222.199 1053.89 223.071 1059 227.671C1062.67 230.981 1064.34 234.714 1065.07 236.718" stroke="#8C9E8F" stroke-width="0.95212" stroke-miterlimit="10" stroke-linecap="round"/>
<path d="M1067.91 247.962C1067.97 251.377 1067.55 256.392 1065.2 261.791C1064.4 263.619 1063.51 265.211 1062.62 266.573" stroke="#8C9E8F" stroke-width="0.95212" stroke-miterlimit="10" stroke-linecap="round"/>
<path d="M1065.38 218.55C1067.22 218.901 1070.46 219.776 1073.7 222.202C1078.26 225.613 1080.07 230.024 1080.7 231.839" stroke="#8C9E8F" stroke-width="0.95212" stroke-miterlimit="10" stroke-linecap="round"/>
<path d="M1044.25 196.422C1043.37 197.925 1041.82 199.908 1039.2 200.636C1035.77 201.59 1033.69 199.498 1030.26 200.518C1026.61 201.6 1026.96 204.541 1023.87 204.986C1020.69 205.444 1019.28 202.48 1015.54 202.907C1013.17 203.177 1012.81 204.473 1010.34 204.986C1007.33 205.611 1004.38 204.418 1002.43 203.373C1003.36 200.12 1004.2 196.561 1004.86 192.721C1005.65 188.117 1006.05 183.829 1006.2 179.935C1014.6 178.799 1023.03 177.636 1031.42 176.474C1031.78 178.883 1032.61 182.17 1034.62 185.768C1037.54 191.028 1041.6 194.497 1044.25 196.422Z" fill="#707E72"/>
<path d="M961.779 132.654C948.067 144.989 931.043 168.739 938.373 183.585C941.363 189.64 949.781 197.605 956.668 196.3C961.218 195.437 964.026 190.741 968.036 191.938C970.32 192.62 970.64 194.511 972.512 196.359C976.523 200.316 982.125 198.614 996.738 197.743C1013.27 196.758 1014.92 198.303 1019.87 195.532C1024.97 192.68 1025.74 189.543 1030.81 188.589C1035.27 187.75 1037.06 189.72 1042.94 190.791C1049.66 192.016 1054.77 190.802 1063.86 188.641C1073.44 186.362 1078.21 185.16 1081.37 181.193C1083.9 178.024 1083.7 175.568 1086.91 173.502C1090.99 170.872 1094.26 172.946 1097.4 171.272C1102.9 168.344 1102.73 156.823 1101.85 151.584C1098.17 129.596 1065.1 117.667 1058.31 115.393C1028.68 105.474 988.78 108.362 961.779 132.654Z" fill="#335954"/>
<path d="M1036.8 164.448C1040.63 161.206 1039.27 153.304 1033.76 146.798C1028.26 140.291 1020.69 137.644 1016.86 140.885C1013.03 144.127 1014.39 152.029 1019.89 158.536C1025.4 165.042 1032.97 167.689 1036.8 164.448Z" fill="#3E6C55"/>
<path d="M1073.85 172.573C1080.16 168.927 1081.07 158.678 1075.88 149.682C1070.68 140.686 1061.36 136.349 1055.04 139.995C1048.73 143.641 1047.82 153.89 1053.01 162.886C1058.2 171.882 1067.53 176.219 1073.85 172.573Z" fill="#3E6C55"/>
<path d="M971.196 150.674C975.218 146.652 976.273 141.184 973.551 138.462C970.829 135.741 965.362 136.795 961.339 140.818C957.317 144.84 956.263 150.307 958.984 153.029C961.706 155.751 967.173 154.696 971.196 150.674Z" fill="#3E6C55"/>
<path d="M954.562 166.107C957.275 163.394 957.986 159.707 956.151 157.871C954.315 156.036 950.628 156.747 947.916 159.46C945.203 162.172 944.492 165.859 946.327 167.695C948.163 169.53 951.85 168.819 954.562 166.107Z" fill="#3E6C55"/>
<path d="M994.77 129.667C998.96 128.672 1001.81 125.568 1001.14 122.733C1000.46 119.899 996.523 118.407 992.333 119.401C988.144 120.396 985.294 123.5 985.966 126.334C986.639 129.169 990.581 130.661 994.77 129.667Z" fill="#3E6C55"/>
<path d="M1084.41 141.53C1086.06 139.483 1084.94 135.849 1081.91 133.414C1078.89 130.979 1075.1 130.665 1073.45 132.712C1071.81 134.76 1072.92 138.393 1075.95 140.828C1078.97 143.263 1082.76 143.577 1084.41 141.53Z" fill="#3E6C55"/>
<path d="M985.22 182.725C985.843 178.769 983.851 175.17 980.773 174.686C977.695 174.202 974.695 177.016 974.073 180.972C973.451 184.927 975.442 188.527 978.52 189.011C981.599 189.495 984.598 186.681 985.22 182.725Z" fill="#3E6C55"/>
<path d="M984.12 155.666C984.63 152.422 982.84 149.446 980.121 149.019C977.403 148.591 974.786 150.874 974.276 154.118C973.766 157.362 975.556 160.338 978.274 160.766C980.992 161.193 983.61 158.91 984.12 155.666Z" fill="#3E6C55"/>
<path d="M1052.64 133.173C1053.15 129.929 1048.6 126.519 1042.48 125.555C1036.35 124.592 1030.97 126.441 1030.46 129.685C1029.95 132.928 1034.51 136.339 1040.63 137.302C1046.76 138.265 1052.13 136.417 1052.64 133.173Z" fill="#3E6C55"/>
<path d="M971.042 152.203C969.262 152.687 967.486 153.185 965.715 153.694C964.505 154.042 963.243 153.37 962.861 152.169C962.736 151.777 962.612 151.385 962.487 150.993C962.087 149.74 962.796 148.396 964.06 148.032C972.655 145.558 981.367 143.371 990.183 141.481C991.427 141.214 992.665 142 992.956 143.238C993.051 143.639 993.145 144.04 993.239 144.441C993.537 145.71 992.73 146.97 991.455 147.243C989.69 147.621 987.93 148.011 986.174 148.413C984.9 148.705 984.123 149.995 984.449 151.261C986.062 157.547 987.623 163.841 989.129 170.144C989.429 171.395 988.652 172.647 987.402 172.949C985.578 173.389 983.759 173.843 981.946 174.31C980.712 174.628 979.462 173.902 979.132 172.672C977.444 166.379 975.703 160.095 973.908 153.822C973.557 152.593 972.275 151.867 971.042 152.203Z" fill="#7DB0A5"/>
<path d="M999.274 139.644C1001.41 139.239 1003.55 138.851 1005.69 138.48C1006.95 138.264 1008.15 139.097 1008.39 140.344C1008.86 142.72 1009.31 145.097 1009.76 147.474C1009.99 148.709 1011.16 149.524 1012.4 149.326C1014.77 148.947 1017.15 148.59 1019.54 148.254C1020.83 148.073 1021.73 146.876 1021.53 145.589C1021.16 143.276 1020.79 140.964 1020.41 138.653C1020.2 137.354 1021.1 136.132 1022.4 135.964C1024.6 135.68 1026.8 135.415 1029.01 135.168C1030.27 135.027 1031.43 135.929 1031.6 137.187C1032.74 145.601 1033.8 154.019 1034.76 162.441C1034.91 163.725 1033.98 164.879 1032.69 165.021C1030.74 165.237 1028.78 165.469 1026.83 165.716C1025.58 165.876 1024.43 165.006 1024.25 163.75C1023.89 161.2 1023.52 158.65 1023.14 156.101C1022.95 154.833 1021.77 153.943 1020.5 154.121C1018.19 154.445 1015.88 154.789 1013.59 155.154C1012.3 155.358 1011.44 156.585 1011.67 157.867C1012.12 160.369 1012.56 162.872 1012.99 165.376C1013.21 166.646 1012.35 167.848 1011.08 168.066C1009.18 168.392 1007.29 168.732 1005.41 169.087C1004.16 169.322 1002.97 168.519 1002.72 167.274C1001.05 158.984 999.295 150.705 997.447 142.438C997.161 141.157 997.985 139.889 999.274 139.644Z" fill="#7DB0A5"/>
<path d="M1041.36 133.983C1049.54 133.328 1057.77 132.922 1066.05 132.772C1067.31 132.749 1068.38 133.748 1068.44 135.013C1068.46 135.428 1068.47 135.842 1068.49 136.257C1068.55 137.563 1067.52 138.65 1066.21 138.674C1061.88 138.751 1057.55 138.9 1053.25 139.119C1051.93 139.186 1050.93 140.344 1051.04 141.661C1051.09 142.192 1051.13 142.724 1051.17 143.255C1051.28 144.504 1052.35 145.436 1053.6 145.372C1056.45 145.228 1059.31 145.114 1062.18 145.033C1063.45 144.996 1064.52 145.993 1064.58 147.263C1064.59 147.495 1064.6 147.728 1064.61 147.961C1064.67 149.261 1063.65 150.348 1062.35 150.385C1059.62 150.463 1056.89 150.57 1054.17 150.705C1052.86 150.771 1051.87 151.91 1051.96 153.217C1052.01 153.873 1052.06 154.529 1052.11 155.185C1052.2 156.44 1053.27 157.381 1054.53 157.319C1058.78 157.107 1063.04 156.968 1067.32 156.901C1068.6 156.881 1069.67 157.908 1069.7 159.19C1069.71 159.618 1069.72 160.047 1069.74 160.475C1069.77 161.764 1068.74 162.819 1067.45 162.839C1059.72 162.959 1052.03 163.32 1044.4 163.917C1043.14 164.016 1042.05 163.102 1041.93 161.848C1041.13 153.426 1040.23 145.006 1039.24 136.589C1039.09 135.276 1040.05 134.089 1041.36 133.983Z" fill="#7DB0A5"/>
<path d="M1020.85 271.693H1128.27C1129.51 271.693 1130.51 272.697 1130.51 273.935V299.903C1130.51 301.141 1129.51 302.145 1128.27 302.145H1071.47C1070.24 302.145 1069.23 303.148 1069.23 304.387V317.652C1069.23 318.89 1070.24 319.894 1071.47 319.894H1111.27C1112.51 319.894 1113.51 320.898 1113.51 322.136V344.555C1113.51 345.793 1112.51 346.797 1111.27 346.797H1071.47C1070.24 346.797 1069.23 347.801 1069.23 349.039V362.676C1069.23 363.914 1070.24 364.918 1071.47 364.918H1130.14C1131.38 364.918 1132.38 365.921 1132.38 367.159V393.315C1132.38 394.554 1131.38 395.557 1130.14 395.557H1020.85C1019.61 395.557 1018.6 394.554 1018.6 393.315V273.935C1018.6 272.697 1019.61 271.693 1020.85 271.693Z" fill="#454654"/>
<path d="M1039.07 379.361L1042.12 372.792L1060.18 359.185H1068.16L1078.48 364.112L1076.13 373.026L1050.56 384.991L1039.07 379.361Z" fill="#697976"/>
<path d="M1057.88 334.451L1063.66 334.043L1075 338.681L1075.88 347.094L1068.7 349.152L1058.74 343.912L1057.88 334.451Z" fill="#7E8E8D"/>
<path d="M1015.41 385.444L1021.42 382.124L1035.58 381.48L1041.53 390.985L1033.13 399.748L1016.8 395.813L1015.41 385.444Z" fill="#708080"/>
<path d="M1034.73 340.227L1032.11 341.75L1028.93 336.273L1029.79 326.547L1035.07 323.484L1039.86 328.972L1034.73 340.227Z" fill="#697976"/>
<path d="M1060.4 394.376V390.857L1067.91 385.462H1075.88V392.734L1066.97 397.426L1060.4 394.376Z" fill="#708080"/>
<path d="M1082.12 373.328L1099.29 379.742L1100.33 390.103L1094.19 393.395L1080.65 383.055L1082.12 373.328Z" fill="#7E8E8D"/>
<path d="M1113.7 377.56L1110.42 384.364L1119.1 387.883L1133.41 380.61L1134.35 374.041L1124.49 371.011L1113.7 377.56Z" fill="#697976"/>
<path d="M1052.44 342.424L1052.87 349.607L1047.71 363.753L1037.12 365.912L1032.96 354.279L1042.95 339.774L1052.44 342.424Z" fill="#708080"/>
<path d="M1021.21 375.144L1027.42 379.447L1032.24 371.419L1027.29 356.152L1020.94 354.204L1016.42 363.466L1021.21 375.144Z" fill="#7E8E8D"/>
<path d="M1096.78 362.84L1096.64 365.685L1089.79 369.738L1082.73 369.41L1083.01 363.53L1091.08 360.103L1096.78 362.84Z" fill="#708080"/>
<path d="M1134.35 395.113L1132.85 397.537L1124.9 397.756L1118.88 394.041L1121.97 389.033L1130.69 389.954L1134.35 395.113Z" fill="#708080"/>
<path d="M1130.51 287.745C1121.2 294.549 1114.75 295.262 1110.46 294.467C1104.57 293.378 1101.98 289.324 1092.8 287.985C1090.62 287.667 1087.42 287.201 1083.3 287.823C1076.44 288.86 1074.58 291.785 1067.75 292.628C1065.8 292.867 1062.44 293.281 1058.62 292.198C1049.86 289.714 1049.66 282.46 1043.7 281.755C1037.03 280.964 1033.72 289.657 1026.77 288.652C1023.15 288.13 1020.51 285.261 1018.79 282.767V271.693H1130.51V287.745Z" fill="#3A3652"/>
<path d="M1111.5 319.894C1107.67 325.279 1104.36 326.699 1101.82 326.776C1097.46 326.909 1096.08 323.056 1091.49 323.27C1086.37 323.507 1085.04 328.42 1080.78 328.426C1078.51 328.429 1075.14 327.047 1070.98 319.894C1084.49 319.894 1097.99 319.894 1111.5 319.894Z" fill="#3A3652"/>
<path d="M1119.64 276.354C1128.23 276.354 1135.18 272.625 1135.18 268.025C1135.18 263.425 1128.23 259.696 1119.64 259.696C1111.06 259.696 1104.1 263.425 1104.1 268.025C1104.1 272.625 1111.06 276.354 1119.64 276.354Z" fill="#5E8054"/>
<path d="M1031.57 277.762C1041.9 277.762 1050.27 274.116 1050.27 269.619C1050.27 265.122 1041.9 261.476 1031.57 261.476C1021.24 261.476 1012.86 265.122 1012.86 269.619C1012.86 274.116 1021.24 277.762 1031.57 277.762Z" fill="#5E8054"/>
<path d="M1056.07 277.403C1068.76 277.403 1079.04 272.926 1079.04 267.403C1079.04 261.881 1068.76 257.404 1056.07 257.404C1043.39 257.404 1033.1 261.881 1033.1 267.403C1033.1 272.926 1043.39 277.403 1056.07 277.403Z" fill="#5E8054"/>
<path d="M1107.24 281.591C1116.49 281.591 1123.98 278.327 1123.98 274.301C1123.98 270.275 1116.49 267.011 1107.24 267.011C1097.99 267.011 1090.49 270.275 1090.49 274.301C1090.49 278.327 1097.99 281.591 1107.24 281.591Z" fill="#5E8054"/>
<path d="M1090.35 275.302C1103.73 275.302 1114.57 271.295 1114.57 266.353C1114.57 261.41 1103.73 257.404 1090.35 257.404C1076.97 257.404 1066.12 261.41 1066.12 266.353C1066.12 271.295 1076.97 275.302 1090.35 275.302Z" fill="#5E8054"/>
<path d="M1046.98 284.603C1053.49 284.603 1058.77 282.303 1058.77 279.466C1058.77 276.63 1053.49 274.33 1046.98 274.33C1040.46 274.33 1035.18 276.63 1035.18 279.466C1035.18 282.303 1040.46 284.603 1046.98 284.603Z" fill="#5E8054"/>
<path d="M1083.26 339.774C1085.85 339.774 1087.95 337.672 1087.95 335.079C1087.95 332.486 1085.85 330.385 1083.26 330.385C1080.66 330.385 1078.56 332.486 1078.56 335.079C1078.56 337.672 1080.66 339.774 1083.26 339.774Z" fill="#5E8054"/>
<path d="M1087.95 319.901H1078.56V335.079H1087.95V319.901Z" fill="#5E8054"/>
<path d="M1105.72 380.099C1108.32 380.099 1110.42 377.997 1110.42 375.404C1110.42 372.812 1108.32 370.71 1105.72 370.71C1103.13 370.71 1101.03 372.812 1101.03 375.404C1101.03 377.997 1103.13 380.099 1105.72 380.099Z" fill="#5E8054"/>
<path d="M1110.42 364.921H1101.03V375.404H1110.42V364.921Z" fill="#5E8054"/>
<path d="M1091.24 270.569C1100.37 270.569 1107.77 268.314 1107.77 265.532C1107.77 262.75 1100.37 260.495 1091.24 260.495C1082.11 260.495 1074.71 262.75 1074.71 265.532C1074.71 268.314 1082.11 270.569 1091.24 270.569Z" fill="#60975F"/>
</g>
<defs>
<linearGradient id="paint0_linear_79_7" x1="221.09" y1="22.827" x2="110.417" y2="193.707" gradientUnits="userSpaceOnUse">
<stop stop-color="#5F4574" stop-opacity="0"/>
<stop offset="0.19705" stop-color="#626491" stop-opacity="0.19315"/>
<stop offset="0.46757" stop-color="#668BB4" stop-opacity="0.43112"/>
<stop offset="0.70137" stop-color="#69A8CF" stop-opacity="0.6045"/>
<stop offset="0.88652" stop-color="#6BB9DF" stop-opacity="0.71086"/>
<stop offset="1" stop-color="#6CC0E5" stop-opacity="0.75"/>
</linearGradient>
<linearGradient id="paint1_linear_79_7" x1="349.541" y1="5.89284" x2="310.993" y2="65.4106" gradientUnits="userSpaceOnUse">
<stop stop-color="#714F5D" stop-opacity="0"/>
<stop offset="0.19705" stop-color="#6F6C80" stop-opacity="0.19315"/>
<stop offset="0.46757" stop-color="#6E8FAB" stop-opacity="0.43112"/>
<stop offset="0.70137" stop-color="#6CAACA" stop-opacity="0.6045"/>
<stop offset="0.88652" stop-color="#6CBADD" stop-opacity="0.71086"/>
<stop offset="1" stop-color="#6CC0E5" stop-opacity="0.75"/>
</linearGradient>
<linearGradient id="paint2_linear_79_7" x1="720" y1="98.7761" x2="720" y2="205.115" gradientUnits="userSpaceOnUse">
<stop stop-color="#6CC0E5" stop-opacity="0.2"/>
<stop offset="1" stop-color="#B7E0DC" stop-opacity="0.4"/>
</linearGradient>
<linearGradient id="paint3_linear_79_7" x1="0" y1="190.786" x2="1" y2="291.546" gradientUnits="userSpaceOnUse">
<stop stop-color="#6CC0E5" stop-opacity="0.2"/>
<stop offset="1" stop-color="#B7E0DC" stop-opacity="0.4"/>
</linearGradient>
<linearGradient id="paint4_linear_79_7" x1="-3.28446e-08" y1="305.441" x2="1" y2="428.515" gradientUnits="userSpaceOnUse">
<stop stop-color="#6CC0E5" stop-opacity="0.2"/>
<stop offset="1" stop-color="#B7E0DC" stop-opacity="0.4"/>
</linearGradient>
<clipPath id="clip0_79_7">
<rect width="1440" height="428.313" fill="white" transform="translate(0 0.202515)"/>
</clipPath>
</defs>
</svg>
