<svg width="1440" height="326" viewBox="0 0 1440 326" fill="none" xmlns="http://www.w3.org/2000/svg">
<path d="M444.859 66.9494C470.881 68.461 483 61.5835 489.189 54.3618C497.691 44.4418 495.325 33.4981 505.061 24.8081C514.457 16.4218 528.236 16.282 538.993 17.6933" stroke="#3F4C39" stroke-width="10" stroke-miterlimit="10" stroke-linecap="round"/>
<path d="M780.808 243.488C786.926 250.976 794.3 262.221 797.63 277.132C801.167 292.975 797.328 300.363 803.587 308.673C812.472 320.468 834.599 324.688 843.189 315.682C847.974 310.664 850.172 299.848 844.24 294.304C839.474 289.85 830.499 289.771 823.563 295.356" stroke="#3F4C39" stroke-width="10" stroke-miterlimit="10" stroke-linecap="round"/>
<path d="M1440 138.063V291.713C1427.82 286.163 1413.62 280.173 1397.56 274.313C1391.84 272.223 1385.89 270.153 1379.7 268.123C1370.7 265.163 1361.21 262.293 1351.26 259.603C1346.34 258.263 1341.32 256.973 1336.18 255.733C1325.82 253.223 1315.01 250.923 1303.78 248.913C1300.07 248.243 1296.31 247.613 1292.5 247.003C1288.42 246.363 1284.29 245.753 1280.1 245.193C1272.75 244.203 1265.65 243.393 1258.76 242.763C1254.14 242.333 1249.61 241.973 1245.17 241.703C1232.31 240.873 1220.18 240.623 1208.5 240.813C1202.69 240.903 1197 241.103 1191.39 241.403C1183.75 241.793 1176.26 242.353 1168.84 243.033C1165.53 243.343 1162.24 243.663 1158.95 244.013C1151.2 244.833 1143.48 245.773 1135.71 246.763C1132.17 247.213 1128.61 247.683 1125.03 248.153C1121.4 248.633 1117.74 249.123 1114.04 249.613C1106.06 250.673 1097.92 251.753 1089.55 252.783C1085.71 253.263 1081.81 253.733 1077.86 254.183C1070.35 255.043 1062.9 255.833 1055.5 256.533C1052.32 256.843 1049.16 257.133 1046 257.403C1034.61 258.403 1023.37 259.233 1012.27 259.883C1005.67 260.283 999.12 260.623 992.62 260.903C983.71 261.303 974.91 261.593 966.22 261.793C960.34 261.923 954.5 262.013 948.73 262.063C943.76 262.113 938.83 262.123 933.95 262.113C930.45 262.113 926.97 262.093 923.51 262.053C914.29 261.963 905.23 261.773 896.34 261.493C889.75 261.293 883.26 261.053 876.87 260.753C868.09 260.363 859.49 259.893 851.09 259.353C844.72 258.943 838.47 258.503 832.34 258.023C820.82 257.123 809.71 256.123 799.05 255.043C790.16 254.143 781.58 253.193 773.33 252.213C762.56 250.923 752.36 249.593 742.75 248.253C732.21 246.783 722.4 245.313 713.36 243.893C701.17 241.983 690.38 240.183 681.14 238.623C680.8 238.563 680.46 238.513 680.12 238.453C677.14 237.953 674.24 237.453 671.41 236.963C656.29 234.303 643.12 231.703 631.27 229.133C627.65 228.353 624.15 227.573 620.77 226.793C606.22 223.453 593.63 220.173 581.62 216.923C575.64 215.313 569.81 213.713 563.95 212.123C554.11 209.433 544.19 206.763 533.4 204.103C528.56 202.923 523.55 201.733 518.29 200.543C508.76 198.393 498.42 196.243 486.84 194.083C483.25 193.413 479.54 192.753 475.69 192.073C465.44 190.293 454.26 188.513 441.88 186.713C437.11 186.023 432.16 185.333 427.02 184.633C426.75 184.593 426.47 184.563 426.2 184.523C413.89 182.863 402.09 181.413 390.8 180.153C384.88 179.493 379.11 178.873 373.47 178.313C365.54 177.513 357.88 176.813 350.5 176.193C347.34 175.933 344.23 175.683 341.17 175.443C332.22 174.753 323.71 174.193 315.63 173.743C312.16 173.543 308.78 173.363 305.48 173.203C300.59 172.973 295.88 172.783 291.34 172.623C282.03 172.303 273.45 172.123 265.61 172.053C252.63 171.933 241.66 172.103 232.7 172.383C228.94 172.513 225.54 172.643 222.49 172.783C217.27 173.033 213.09 173.293 209.95 173.503C204.18 173.883 198.47 174.323 192.84 174.803C186.68 175.333 180.6 175.913 174.61 176.553C164.2 177.663 154.05 178.933 144.18 180.323C139.12 181.043 134.13 181.793 129.21 182.563C123.46 183.483 117.82 184.433 112.28 185.423C108.83 186.033 105.43 186.663 102.06 187.303C93.19 188.993 84.59 190.773 76.29 192.603C70.33 193.923 64.52 195.263 58.86 196.633C52.97 198.063 47.25 199.503 41.7 200.963C35.53 202.583 29.57 204.223 23.84 205.863C15.41 208.263 7.46003 210.663 0 213.013V70.613C4.28998 69.253 8.85999 67.833 13.7 66.393C18.28 65.023 23.09 63.6231 28.14 62.2031C35.64 60.113 43.64 57.983 52.14 55.873C54.21 55.363 56.31 54.853 58.44 54.333C66.92 52.303 75.85 50.303 85.22 48.383C88.83 47.643 92.51 46.913 96.25 46.2031C105.92 44.343 116.02 42.593 126.5 40.993C129.75 40.493 133.03 40.0031 136.36 39.543C143.56 38.523 150.94 37.583 158.49 36.723C164.1 36.093 169.79 35.503 175.58 34.973H175.59C181.81 34.393 188.11 33.8831 194.53 33.4431C195.3 33.3931 196.07 33.343 196.83 33.293C206.36 32.653 215.64 32.213 224.73 31.9531C232.2 31.733 239.54 31.633 246.78 31.643C256.91 31.663 266.87 31.893 276.75 32.333C283.61 32.633 290.43 33.0329 297.25 33.5229C298.94 33.643 300.63 33.7729 302.32 33.9029C313.74 34.8029 325.18 35.953 336.79 37.333C339.35 37.633 341.91 37.9429 344.49 38.2729C354.62 39.5429 364.9 40.9829 375.45 42.5729C380.77 43.3729 386.16 44.213 391.63 45.083C404.74 47.183 418.31 49.4829 432.51 51.953C434.64 52.323 436.78 52.6931 438.94 53.0731C450.66 55.1231 462.83 57.2929 475.53 59.5429C479.18 60.1929 482.88 60.853 486.62 61.513C500.36 63.953 514.73 66.483 529.84 69.103C532.95 69.633 536.09 70.173 539.27 70.723C546.36 71.933 553.61 73.163 561.03 74.413C568.09 75.593 574.98 76.753 581.72 77.883C587.63 78.873 593.41 79.8429 599.08 80.7929C608.25 82.3329 617.12 83.813 625.71 85.243C627.24 85.493 628.75 85.753 630.26 86.003C648.22 88.983 664.93 91.743 680.53 94.263C683.09 94.683 685.63 95.093 688.14 95.493C699.24 97.273 709.77 98.943 719.78 100.493C728.64 101.853 737.09 103.123 745.19 104.313C759.86 106.453 773.36 108.303 785.92 109.853C789.34 110.283 792.69 110.683 795.97 111.063C804.46 112.043 812.52 112.893 820.23 113.593C825.87 114.113 831.33 114.553 836.64 114.923C842.98 115.363 849.1 115.703 855.06 115.943C860.06 116.143 864.99 116.313 869.86 116.453C872.04 116.513 874.21 116.573 876.37 116.623C885.4 116.833 894.23 116.953 902.87 116.983C906.43 117.013 909.96 117.013 913.45 116.993C925.07 116.953 936.36 116.763 947.37 116.453C950.42 116.373 953.45 116.283 956.45 116.183C965.09 115.893 973.57 115.543 981.91 115.143C987.99 114.853 993.99 114.533 999.94 114.203C1007.47 113.783 1014.9 113.323 1022.26 112.853C1029.34 112.403 1036.36 111.933 1043.34 111.463C1052.58 110.843 1061.74 110.213 1070.88 109.603C1079.74 109.013 1088.58 108.443 1097.44 107.923C1103.81 107.553 1110.19 107.203 1116.6 106.883C1117.92 106.813 1119.23 106.753 1120.55 106.683C1132.07 106.143 1143.68 105.713 1155.49 105.453C1157.76 105.403 1160.03 105.363 1162.32 105.323C1172.52 105.153 1182.87 105.113 1193.44 105.253C1198.69 105.323 1203.99 105.433 1209.36 105.583C1222.54 105.953 1236.07 106.603 1250.09 107.593C1252.17 107.743 1254.26 107.893 1256.37 108.063C1268.63 109.003 1281.26 110.203 1294.33 111.713C1298.17 112.153 1302.04 112.623 1305.95 113.123C1319.13 114.783 1332.76 116.753 1346.91 119.073C1348.93 119.403 1350.97 119.743 1353.02 120.093C1354.29 120.303 1355.55 120.523 1356.8 120.743C1372.56 123.463 1387.02 126.273 1399.89 128.963C1406.14 130.273 1412.01 131.553 1417.48 132.783C1426.02 134.703 1433.56 136.493 1440 138.063Z" fill="url(#paint0_linear_79_779)"/>
<path opacity="0.5" d="M112.28 185.423C108.83 186.033 105.43 186.663 102.06 187.303C93.0698 154.403 85.2497 121.193 84.4598 87.213C84.1697 74.3931 84.8497 61.363 85.2197 48.3831C88.8298 47.6431 92.5098 46.9131 96.2497 46.2031C95.9097 50.7731 95.5397 55.3331 95.2897 59.9031C93.2598 97.3131 101.82 143.243 112.28 185.423Z" fill="url(#paint1_linear_79_779)"/>
<path opacity="0.5" d="M76.2901 192.603C70.3301 193.923 64.5201 195.263 58.8601 196.633C56.4001 149.703 57.6101 102.343 52.1401 55.873C54.2101 55.363 56.3101 54.853 58.4401 54.333C62.8501 90.413 58.7201 115.143 65.9801 152.153C67.8801 161.793 72.1801 178.673 76.2901 192.603Z" fill="url(#paint2_linear_79_779)"/>
<path opacity="0.5" d="M41.7002 200.963C35.5302 202.583 29.5702 204.223 23.8402 205.863C21.7302 194.843 19.8402 183.743 19.4902 172.623C18.7902 150.513 27.5002 122.713 22.9202 101.053C20.4702 89.4431 16.9202 77.923 13.7002 66.3931C18.2802 65.023 23.0902 63.6231 28.1402 62.2031C31.2102 78.5531 33.4102 94.9331 34.2602 109.813C35.4502 131.013 33.3002 152.433 35.5502 173.563C36.5102 182.393 39.1902 191.643 41.7002 200.963Z" fill="url(#paint3_linear_79_779)"/>
<path opacity="0.5" d="M192.84 174.803C186.68 175.333 180.6 175.913 174.61 176.553C175.26 167.323 176.99 157.993 177.96 148.723C181.54 114.673 171.8 74.5632 158.49 36.7231C164.1 36.0931 169.79 35.5032 175.58 34.9731H175.59C186.5 62.7131 195.09 90.8732 195.55 120.143C195.81 138.123 193.08 156.693 192.84 174.803Z" fill="url(#paint4_linear_79_779)"/>
<path opacity="0.5" d="M232.7 172.383C228.94 172.513 225.54 172.643 222.49 172.783C215.75 135.983 223.17 110.463 212.38 73.373C209.57 63.7631 203.07 46.9631 196.83 33.2931C206.36 32.6531 215.64 32.2131 224.73 31.9531C227.28 78.8231 224.56 126.423 232.7 172.383Z" fill="url(#paint5_linear_79_779)"/>
<path opacity="0.5" d="M291.34 172.623C282.03 172.303 273.45 172.123 265.61 172.053C260.62 154.773 257.11 137.243 256.02 121.283C254.58 100.073 258.42 78.3031 255.32 57.2831C254.06 48.9031 250.36 40.313 246.78 31.6431C256.91 31.663 266.87 31.8931 276.75 32.333C278.76 40.353 280.29 48.423 280.52 56.593C281.15 78.753 266.9 107.613 273.63 128.933C278.27 143.653 285.79 158.033 291.34 172.623Z" fill="url(#paint6_linear_79_779)"/>
<path opacity="0.5" d="M341.17 175.443C341.42 153.713 341.16 131.973 340.89 110.253C340.63 89.5229 340.4 68.743 338.14 48.073C337.75 44.4629 337.28 40.8831 336.79 37.333C339.35 37.6331 341.91 37.943 344.49 38.2729C344.41 45.123 344.47 51.9629 344.58 58.803C345.2 97.353 346.95 137.003 350.5 176.193C347.34 175.933 344.23 175.683 341.17 175.443Z" fill="url(#paint7_linear_79_779)"/>
<path opacity="0.5" d="M144.18 180.323C139.12 181.043 134.13 181.793 129.21 182.563C127.8 165.903 126.81 149.163 129.34 132.463C131.33 119.293 135.52 106.203 135.66 93.033C135.79 83.243 133.66 73.5829 131.56 63.9929C129.88 56.3229 128.19 48.6629 126.5 40.9929C129.75 40.4929 133.03 40.003 136.36 39.543C136.65 41.903 136.97 44.2729 137.32 46.6329C140.7 69.4329 147.04 91.983 147.25 115.023C147.45 136.663 142.33 159.033 144.18 180.323Z" fill="url(#paint8_linear_79_779)"/>
<path opacity="0.5" d="M315.63 173.743C312.16 173.543 308.78 173.363 305.48 173.203C300.48 127.263 303.94 80.303 297.38 34.423C297.34 34.123 297.29 33.823 297.25 33.5229C298.94 33.643 300.63 33.773 302.32 33.903C301.92 54.693 308.27 74.9829 310.32 95.6429C311.72 109.933 311.06 124.393 311.69 138.753C312.17 149.893 313.51 161.793 315.63 173.743Z" fill="url(#paint9_linear_79_779)"/>
<path opacity="0.5" d="M486.84 194.083C483.25 193.413 479.54 192.753 475.69 192.073C471.17 163.633 468.14 135.063 470.17 106.413C471.28 90.873 473.84 75.163 475.53 59.543C479.18 60.193 482.88 60.8529 486.62 61.5129C485.61 67.7529 484.46 73.9929 483.52 80.2329C478.53 113.663 481.47 154.803 486.84 194.083Z" fill="url(#paint10_linear_79_779)"/>
<path opacity="0.5" d="M427.02 184.633C429.52 140.343 434.26 96.0231 432.51 51.9531C434.64 52.3231 436.78 52.6931 438.94 53.0731C438.94 53.1431 438.95 53.2031 438.95 53.2731C440.84 92.7331 433.56 117.463 437.5 156.843C438.23 164.113 439.91 175.493 441.88 186.713C437.11 186.023 432.16 185.333 427.02 184.633Z" fill="url(#paint11_linear_79_779)"/>
<path opacity="0.5" d="M394.2 102.393C393.4 123.613 389.25 144.743 389.51 165.983C389.58 170.573 390.09 175.323 390.8 180.153C384.88 179.493 379.11 178.873 373.47 178.313C373.29 173.373 373.3 168.443 373.61 163.543C374.99 141.473 386.26 114.613 383.73 92.6133C381.83 75.9333 377.69 59.2332 375.45 42.5732C380.77 43.3732 386.16 44.2133 391.63 45.0833C393.8 64.7233 394.86 84.7032 394.2 102.393Z" fill="url(#paint12_linear_79_779)"/>
<path opacity="0.5" d="M597.74 161.113C593.58 179.743 585.98 198.253 581.62 216.923C575.64 215.313 569.81 213.713 563.95 212.123C566.75 202.943 570.78 193.943 574 184.823C584.77 154.293 585.22 115.723 581.72 77.8831C587.63 78.873 593.41 79.8431 599.08 80.7931C602.53 107.903 603.59 134.853 597.74 161.113Z" fill="url(#paint13_linear_79_779)"/>
<path opacity="0.5" d="M688.14 95.4932C687.39 102.393 686.8 109.323 686.27 116.243C683.15 156.293 681.13 197.653 681.14 238.623C680.8 238.563 680.46 238.513 680.12 238.453C677.14 237.953 674.24 237.453 671.41 236.963C673.95 213.723 675.86 190.423 677.77 167.133C679.46 146.463 681.17 125.753 680.86 104.963C680.81 101.373 680.68 97.8032 680.53 94.2632C683.09 94.6832 685.63 95.0931 688.14 95.4932Z" fill="url(#paint14_linear_79_779)"/>
<path opacity="0.5" d="M542.57 136.693C540.65 159.163 532.92 181.883 533.4 204.103C528.56 202.923 523.55 201.733 518.29 200.543C518.48 184.383 519.16 168.203 523.1 152.373C526.32 139.453 531.71 126.813 533.09 113.703C534.14 103.973 532.92 94.1631 531.73 84.4231C531.1 79.3131 530.47 74.213 529.84 69.103C532.95 69.6331 536.09 70.173 539.27 70.723C540.68 92.723 544.42 114.753 542.57 136.693Z" fill="url(#paint15_linear_79_779)"/>
<path opacity="0.5" d="M631.27 229.133C627.65 228.353 624.15 227.573 620.77 226.793C619.42 179.733 627.63 132.413 625.71 85.2432C627.24 85.4932 628.75 85.7532 630.26 86.0032C628.69 105.573 632.65 125.253 632.75 144.893C632.81 159.253 630.79 173.583 630.07 187.943C629.4 200.923 629.81 215.023 631.27 229.133Z" fill="url(#paint16_linear_79_779)"/>
<path opacity="0.5" d="M773.33 252.213C778.39 204.723 788.3 157.313 785.92 109.853C789.34 110.283 792.69 110.683 795.97 111.063C796.08 112.403 796.17 113.743 796.23 115.083C798.18 154.613 786.06 179.013 791.27 218.553C792.43 227.253 795.54 241.843 799.05 255.043C790.16 254.143 781.58 253.193 773.33 252.213Z" fill="url(#paint17_linear_79_779)"/>
<path opacity="0.5" d="M747.29 158.493C745.49 179.673 738.39 200.613 738.26 221.863C738.23 230.253 740.54 239.223 742.75 248.253C732.21 246.783 722.4 245.313 713.36 243.893C712.53 235.453 712.2 227.033 713.25 218.713C715.99 196.713 734.46 170.353 731.04 148.253C728.6 132.373 723.01 116.383 719.78 100.493C728.64 101.853 737.09 103.123 745.19 104.313C747.75 122.993 748.7 141.803 747.29 158.493Z" fill="url(#paint18_linear_79_779)"/>
<path opacity="0.5" d="M933.95 262.113C930.45 262.113 926.97 262.093 923.51 262.053C913.12 224.913 903.22 187.463 902.33 149.023C902.09 138.433 902.51 127.703 902.87 116.983C906.43 117.013 909.96 117.013 913.45 116.993C913.35 118.573 913.25 120.143 913.16 121.713C910.89 163.573 921.87 216.103 933.95 262.113Z" fill="url(#paint19_linear_79_779)"/>
<path opacity="0.5" d="M896.34 261.493C889.75 261.293 883.26 261.053 876.87 260.753C874.21 212.643 875.6 164.063 869.86 116.453C872.04 116.513 874.21 116.573 876.37 116.623C880.7 152.453 876.63 177.113 883.85 213.953C886.09 225.313 891.65 246.713 896.34 261.493Z" fill="url(#paint20_linear_79_779)"/>
<path opacity="0.5" d="M851.09 259.353C844.72 258.943 838.47 258.503 832.34 258.023C830.96 249.973 829.89 241.873 829.64 233.773C828.94 211.673 837.64 183.873 833.06 162.213C829.64 145.933 824.02 129.833 820.23 113.593C825.87 114.113 831.33 114.553 836.64 114.923C840.55 134.033 843.4 153.533 844.4 170.973C845.6 192.173 843.44 213.593 845.7 234.713C846.56 242.673 848.82 250.973 851.09 259.353Z" fill="url(#paint21_linear_79_779)"/>
<path opacity="0.5" d="M1012.27 259.883C1005.67 260.283 999.12 260.623 992.62 260.903C992.49 257.433 992.59 253.753 992.34 249.773C991.57 236.863 994.45 223.633 995.83 210.533C998.89 181.423 992.22 147.893 981.91 115.143C987.99 114.853 993.99 114.533 999.94 114.203C1007.6 136.313 1013.06 158.793 1013.42 181.953C1013.8 207.753 1008.03 234.783 1012.27 259.883Z" fill="url(#paint22_linear_79_779)"/>
<path opacity="0.5" d="M1055.5 256.533C1052.32 256.843 1049.16 257.133 1046 257.403C1044.28 251.013 1042.37 244.643 1041.06 238.203C1033.12 199.433 1041.4 173.473 1030.25 135.183C1028.6 129.533 1025.67 121.383 1022.26 112.853C1029.34 112.403 1036.36 111.933 1043.34 111.463C1044.88 160.233 1042.93 209.473 1055.5 256.533Z" fill="url(#paint23_linear_79_779)"/>
<path opacity="0.5" d="M1114.04 249.613C1106.06 250.673 1097.92 251.753 1089.55 252.783C1081.41 229.733 1075.38 204.933 1073.89 183.093C1072.45 161.883 1076.29 140.113 1073.19 119.093C1072.72 115.963 1071.91 112.793 1070.88 109.603C1079.74 109.013 1088.58 108.443 1097.44 107.923C1097.96 111.393 1098.3 114.883 1098.39 118.393C1099.02 140.553 1084.77 169.413 1091.51 190.743C1097.73 210.523 1109.18 229.693 1114.04 249.613Z" fill="url(#paint24_linear_79_779)"/>
<path opacity="0.5" d="M1158.95 244.013C1159.34 220.033 1159.05 196.043 1158.76 172.063C1158.5 151.333 1158.27 130.553 1156.01 109.883C1155.85 108.403 1155.67 106.923 1155.49 105.453C1157.76 105.403 1160.03 105.363 1162.32 105.323C1162.31 110.423 1162.37 115.523 1162.45 120.613C1163.1 160.813 1164.97 202.213 1168.84 243.033C1165.53 243.343 1162.24 243.663 1158.95 244.013Z" fill="url(#paint25_linear_79_779)"/>
<path opacity="0.5" d="M966.22 261.793C960.34 261.923 954.5 262.013 948.73 262.063C948.28 258.203 947.94 254.343 947.61 250.503C945.97 231.823 944.37 213.023 947.21 194.273C949.21 181.103 953.39 168.013 953.53 154.833C953.66 145.053 951.53 135.393 949.43 125.803C948.75 122.683 948.06 119.573 947.37 116.453C950.42 116.373 953.45 116.283 956.45 116.183C959.94 136.353 964.93 156.403 965.13 176.833C965.38 205.263 956.46 234.953 966.22 261.793Z" fill="url(#paint26_linear_79_779)"/>
<path opacity="0.5" d="M1135.71 246.763C1132.17 247.213 1128.61 247.683 1125.03 248.153C1118.12 201.603 1121.83 153.763 1116.6 106.883C1117.92 106.813 1119.23 106.753 1120.55 106.683C1121.9 123.673 1126.5 140.433 1128.19 157.443C1129.6 171.743 1128.94 186.193 1129.56 200.563C1130.19 215.193 1132.3 231.123 1135.71 246.763Z" fill="url(#paint27_linear_79_779)"/>
<path opacity="0.5" d="M1303.78 248.913C1300.07 248.243 1296.31 247.613 1292.5 247.003C1288.58 220.833 1286.18 194.553 1288.04 168.223C1289.37 149.483 1292.83 130.503 1294.33 111.713C1298.17 112.153 1302.04 112.623 1305.95 113.123C1304.82 122.783 1302.83 132.393 1301.39 142.043C1296.7 173.493 1299.02 211.773 1303.78 248.913Z" fill="url(#paint28_linear_79_779)"/>
<path opacity="0.5" d="M1245.17 241.703C1247.85 196.933 1252.49 152.123 1250.09 107.593C1252.17 107.743 1254.26 107.893 1256.37 108.063C1256.56 110.403 1256.72 112.743 1256.83 115.083C1258.71 154.533 1251.43 179.273 1255.37 218.653C1255.98 224.673 1257.24 233.523 1258.76 242.763C1254.14 242.333 1249.61 241.973 1245.17 241.703Z" fill="url(#paint29_linear_79_779)"/>
<path opacity="0.5" d="M1212.07 164.203C1211.27 185.423 1207.12 206.553 1207.38 227.793C1207.44 232.023 1207.88 236.383 1208.5 240.813C1202.69 240.903 1197 241.103 1191.39 241.403C1191.16 236.043 1191.14 230.683 1191.48 225.353C1192.86 203.283 1204.13 176.413 1201.6 154.423C1199.73 138.043 1195.71 121.623 1193.44 105.253C1198.69 105.323 1203.99 105.433 1209.36 105.583C1211.63 125.643 1212.74 146.123 1212.07 164.203Z" fill="url(#paint30_linear_79_779)"/>
<path opacity="0.5" d="M1415.61 208.853C1410.73 230.703 1401.14 252.373 1397.56 274.313C1391.84 272.223 1385.89 270.153 1379.7 268.123C1382.15 256.033 1387.69 244.403 1391.87 232.563C1402.32 202.933 1403.06 165.723 1399.89 128.963C1406.14 130.273 1412.01 131.553 1417.48 132.783C1420.49 158.453 1421.16 183.963 1415.61 208.853Z" fill="url(#paint31_linear_79_779)"/>
<path opacity="0.5" d="M1360.44 193.163C1358.55 215.303 1351.02 237.683 1351.26 259.603C1346.34 258.263 1341.32 256.973 1336.18 255.733C1336.39 240.003 1337.13 224.253 1340.97 208.843C1344.19 195.923 1349.58 183.283 1350.96 170.173C1352.01 160.443 1350.8 150.633 1349.6 140.893C1348.7 133.623 1347.81 126.343 1346.91 119.073C1348.93 119.403 1350.97 119.743 1353.02 120.093C1354.29 120.303 1355.55 120.523 1356.8 120.743C1356.85 121.873 1356.9 123.013 1356.96 124.143C1358.2 147.153 1362.38 170.203 1360.44 193.163Z" fill="url(#paint32_linear_79_779)"/>
<path d="M214.148 177.492C217.212 157.729 223.842 129.508 239.289 98.5767C255.46 66.1975 275.116 43.215 289.572 28.7397" stroke="#3F4C39" stroke-width="10" stroke-miterlimit="10" stroke-linecap="round"/>
<path d="M395.584 41.3105C399.47 61.8987 406.682 88.7863 420.726 118.131C437.356 152.881 457.5 178.405 473.169 195.345" stroke="#3F4C39" stroke-width="10" stroke-miterlimit="10" stroke-linecap="round"/>
<path d="M756.123 98.2134C736.245 117.037 709.721 138.717 675.894 158.674C618.217 192.703 551.387 192.91 551.506 208.714C551.577 218.145 574.627 222.976 573.505 232.284C572.649 239.385 558.365 243.782 543.3 246.591" stroke="#3F4C39" stroke-width="10" stroke-miterlimit="10" stroke-linecap="round"/>
<path d="M920.537 111.739C926.041 133.975 933.919 159.459 945.379 186.857C958.297 217.742 972.729 243.795 986.191 264.932" stroke="#3F4C39" stroke-width="10" stroke-miterlimit="10" stroke-linecap="round"/>
<path d="M113.112 37.6707C116.078 40.1534 134.515 56.119 135.246 82.7286C135.418 89.0123 137.346 114.601 121.807 122.253C111.826 127.168 95.6746 124.218 90.1877 113.558C84.9131 103.31 90.4498 87.7961 97.3021 86.681C102.082 85.9032 106.984 92.2155 109.16 95.3765" stroke="#3F4C39" stroke-width="10" stroke-miterlimit="10" stroke-linecap="round"/>
<path d="M1098.49 100.766C1102.41 122.285 1110.09 151.359 1126.08 182.967C1138.71 207.943 1152.99 227.515 1165.26 241.964" stroke="#3F4C39" stroke-width="10" stroke-miterlimit="10" stroke-linecap="round"/>
<path d="M1295.35 109.215C1316.08 135.45 1321.39 166.204 1308.66 186.418C1300.86 198.802 1282.51 213.231 1267.09 207.396C1255.66 203.071 1246.44 187.846 1250.54 176.08C1252.46 170.566 1258.16 163.359 1266.07 163.588C1273.41 163.8 1280.4 170.352 1281.82 179.665" stroke="#3F4C39" stroke-width="10" stroke-miterlimit="10" stroke-linecap="round"/>
<path d="M156.487 53.7105C178.15 33.2847 197.161 18.086 211.58 7.35349C218.666 2.07862 223.455 -1.23298 226.984 0.433935C236.433 4.89748 228.771 41.2453 219.84 74.0827C207.057 84.8113 189.651 87.0986 175.975 79.968C160.824 72.0683 157.025 56.1419 156.487 53.7105Z" fill="#87A08F"/>
<path d="M297.86 73.6179C314.513 64.6796 328.803 60.4059 338.721 58.1815C347.694 56.169 351.036 56.2943 352.795 58.1815C357.804 63.5561 347.836 80.9293 339.175 94.0483C329.125 101.224 316.109 101.24 307.394 94.5023C297.875 87.1428 297.84 75.0899 297.86 73.6179Z" fill="#87A08F"/>
<path d="M283.332 163.058C311.494 188.348 337.112 199.239 353.249 204.372C366.665 208.64 371.822 208.386 374.587 205.734C383.153 197.522 367.652 167.387 352.795 142.627C349.587 141.081 330.526 132.278 309.21 140.811C293.711 147.016 285.858 158.847 283.332 163.058Z" fill="#87A08F"/>
<path d="M500.263 78.1316C523.553 65.9675 544.937 58.6668 562.569 54.119C587.73 47.629 592.645 49.9965 594.886 52.1179C606.859 63.4518 582.237 105.366 576.253 115.294C557.898 126.243 535.339 125.716 519.479 114.15C502.155 101.517 500.473 81.2929 500.263 78.1316Z" fill="#87A08F"/>
<path d="M675.055 101.455C675.232 99.8311 676.355 96.9509 706.496 86.6181C717.176 82.9567 719.739 82.3913 721.333 83.7921C725.706 87.6359 718.733 102.731 712.148 114.879C709.423 115.896 699.005 119.415 688.126 114.526C687.509 114.249 674.321 108.179 675.055 101.455Z" fill="#87A08F"/>
<path d="M644.832 201.929C653.022 219.965 667.738 243.614 693.661 259.111C702.452 264.366 711.332 269.535 717.112 266.178C728.279 259.693 720.785 225.5 711.33 194.219C709.068 192.386 694.331 180.852 674.065 184.26C656.694 187.181 647.007 199.105 644.832 201.929Z" fill="#87A08F"/>
<path d="M808.817 131.653C829.057 118.857 846.558 109.128 859.828 102.152C875.29 94.0248 880.932 91.7771 884.412 94.1627C892.368 99.6171 883.966 125.825 875.193 147.939C872.977 149.436 856.511 160.149 836.167 154.085C818.396 148.789 810.33 134.466 808.817 131.653Z" fill="#87A08F"/>
<path d="M855.047 241.999C856.186 240.124 862.657 229.889 875.958 226.838C890.486 223.507 901.548 231.409 903.143 232.589C903.566 234.421 911.589 270.223 900.529 275.457C895.471 277.85 888.138 273.041 880.663 268.138C867.381 259.427 859.395 248.831 855.047 241.999Z" fill="#87A08F"/>
<path d="M976.928 157.344C983.171 153.852 992.774 148.946 1005.11 144.495C1018.81 139.556 1028.46 136.074 1031.64 139.521C1036.61 144.912 1023.49 164.811 1015.47 175.996C1004.35 181.962 991.587 180.781 983.974 173.509C977.897 167.705 977.083 159.916 976.928 157.344Z" fill="#87A08F"/>
<path d="M1034.96 236.924C1059.55 262.794 1083.28 275.766 1098.79 282.518C1118.73 291.198 1122.81 288.599 1124.07 287.491C1132.84 279.798 1116.61 246.892 1101.27 219.931C1098.72 218.359 1083.11 209.103 1063.55 214.542C1045.14 219.663 1036.56 234.098 1034.96 236.924Z" fill="#87A08F"/>
<path d="M1124.61 126.256C1157.99 107.37 1186.3 95.0557 1206.99 87.0598C1219.12 82.3745 1227.45 79.6318 1230.58 83.0676C1237.18 90.2831 1216.57 120.008 1196.47 145.855C1193.48 147.488 1174.3 157.567 1152.19 149.484C1135.28 143.299 1126.95 130.25 1124.61 126.256Z" fill="#87A08F"/>
<path d="M1277.56 238.919C1282.03 249.207 1290.08 264.307 1304.42 278.841C1313.62 288.166 1322.11 296.765 1328.74 294.81C1341.5 291.047 1339.87 250.404 1338.9 234.926C1336.28 232.785 1324.84 223.899 1308.05 224.764C1290.49 225.669 1279.75 236.591 1277.56 238.919Z" fill="#87A08F"/>
<path d="M1350.88 138.749C1366.55 124.712 1381.01 116.809 1391.16 112.255C1400.15 108.222 1403.23 107.953 1404.95 109.352C1410.45 113.826 1401.03 134.591 1391.52 152.541C1389.56 153.38 1378.14 158.053 1365.76 152.541C1356.69 148.503 1352.28 141.306 1350.88 138.749Z" fill="#87A08F"/>
<path d="M1382.43 233.051C1394.03 242.056 1404.72 246.607 1412.23 249.053C1421.21 251.976 1423.05 251.05 1423.84 250.308C1428.08 246.342 1420.15 230.849 1411.61 216.735C1404.67 213.386 1396.57 213.966 1390.58 218.304C1383.39 223.516 1382.54 231.766 1382.43 233.051Z" fill="#87A08F"/>
<path d="M21.3633 74.8045C32.6683 57.0579 44.4581 45.5456 53.0044 38.4219C60.5744 32.112 63.4689 31.0212 65.5006 31.9044C71.9994 34.7299 68.539 57.2644 64.2253 77.1148C62.5654 78.4513 52.8227 86.0348 39.4132 84.0685C29.5906 82.6281 23.4087 76.8859 21.3633 74.8045Z" fill="#87A08F"/>
<path d="M78.3984 181.923C78.9827 179.808 82.4126 168.196 94.3756 161.629C107.441 154.458 120.241 159.039 122.097 159.739C123.005 161.386 140.498 193.636 131.288 201.691C127.076 205.375 118.708 202.75 110.178 200.075C95.0227 195.321 84.4469 187.309 78.3984 181.923Z" fill="#87A08F"/>
<path d="M40.1556 62.2033C38.8638 55.6291 45.7213 49.3001 53.2413 42.3596C58.5291 37.4793 61.173 35.0392 62.783 35.7552C67.2658 37.7487 65.6538 59.1132 54.5744 66.6042C53.4735 67.3485 48.8085 70.5027 44.6628 68.3313C42.2944 67.0907 40.6314 64.6251 40.1556 62.2033Z" fill="#98B29F"/>
<path d="M221.5 6.75239C226.627 9.45666 221.361 42.7474 199.718 56.5064C194.162 60.0387 182.942 65.1977 178.313 61.0093C173.952 57.0632 177.544 46.7228 178.012 45.3779C181.259 36.0315 187.158 33.5597 209.666 15.1763C219.04 7.51947 220.273 6.10542 221.5 6.75239Z" fill="#98B29F"/>
<path d="M339.012 62.0498C344.754 61.338 347.625 60.9822 348.188 62.0498C349.905 65.3073 336.136 79.9114 321.626 79.1938C318.115 79.0201 312.42 77.8434 311.968 75.3304C311.562 73.0796 315.526 70.6663 318.97 68.5693C321.196 67.2142 327.85 63.4332 339.012 62.0498Z" fill="#98B29F"/>
<path d="M124.992 195.852C126.679 194.884 126.893 192.46 127.15 189.548C127.378 186.961 128.058 174.548 118.941 168.299C115.728 166.098 109.339 163.319 106.145 165.882C102.189 169.055 105.056 178.87 108.577 184.679C112.917 191.84 121.312 197.962 124.992 195.852Z" fill="#98B29F"/>
<path d="M366.755 198.319C369.315 196.117 368.176 191.088 366.313 182.867C364.919 176.712 361.884 163.314 349.978 155.052C347.174 153.107 337.427 146.343 330.552 150.196C325.223 153.182 324.04 161.188 324.371 166.09C325.811 187.449 359.665 204.419 366.755 198.319Z" fill="#98B29F"/>
<path d="M589.543 57.3929C588.606 55.9218 586.06 55.7989 564.819 60.9248C528.065 69.7945 524.647 72.827 523.76 76.3772C522.199 82.6246 528.42 90.6904 535.239 93.5956C544.282 97.4488 553.604 91.8966 562.612 86.5318C577.731 77.5269 592.503 62.0408 589.543 57.3929Z" fill="#98B29F"/>
<path d="M712.392 257.99C714.965 256.843 714.847 251.846 714.636 242.925C714.259 226.977 713.874 210.665 702.776 203.497C698.25 200.574 690.837 198.457 686.748 201.573C679.167 207.352 687.325 227.845 688.351 230.423C694.447 245.737 707.24 260.288 712.392 257.99Z" fill="#98B29F"/>
<path d="M703.097 91.9256C712.968 88.3572 715.333 85.6567 716.56 86.7967C719.049 89.1097 713.522 104.137 703.417 106.03C698.357 106.978 693.827 104.317 693.48 104.107C692.604 103.576 687.876 100.713 688.351 98.016C688.81 95.4153 693.694 95.3244 703.097 91.9256Z" fill="#98B29F"/>
<path d="M872.009 101.581C877.888 98.7966 879.339 98.266 880.353 99.0318C885.427 102.865 875.447 136.101 853.699 142.837C847.523 144.75 836.459 145.747 832.375 140.056C829.724 136.361 831.03 131.261 831.448 129.626C832.191 126.726 834.854 119.183 872.009 101.581Z" fill="#98B29F"/>
<path d="M898.588 268.122C901.276 267.145 901.396 261.323 901.47 257.704C901.57 252.831 901.821 240.586 893.712 235.539C891.022 233.865 886.041 232.129 882.629 234.431C878.986 236.889 879.233 242.535 879.305 244.183C879.572 250.288 883.19 254.434 888.171 260.142C892.322 264.899 895.966 269.075 898.588 268.122Z" fill="#98B29F"/>
<path d="M998.345 152.667C1001.19 148.958 1006.71 146.979 1017.62 143.172C1025.5 140.422 1026.2 140.672 1026.61 141.047C1029.79 143.953 1023.26 161.616 1010.19 166.129C1005.66 167.695 997.99 168.493 995.489 164.712C993.24 161.312 996.093 155.598 998.345 152.667Z" fill="#98B29F"/>
<path d="M1118.7 279.911C1120.98 278.012 1119.42 272.81 1117.18 265.592C1113.04 252.29 1108.18 236.666 1094.52 230.872C1092.21 229.891 1084.42 226.584 1078.87 230.282C1073.32 233.975 1072.72 242.861 1074.23 248.77C1076.1 256.023 1082.37 260.403 1094.83 268.869C1105.65 276.215 1115.28 282.753 1118.7 279.911Z" fill="#98B29F"/>
<path d="M1206.92 90.9015C1215.77 87.3373 1220.19 85.5552 1221.1 86.3296C1225.25 89.8822 1212.35 123.692 1187.49 129.265C1181.02 130.715 1168.64 131.398 1164.81 125.091C1162 120.482 1164.99 114.159 1165.43 113.258C1167.72 108.555 1171.02 107.424 1195.22 96.0137C1196.67 95.3329 1201 93.2899 1206.92 90.9015Z" fill="#98B29F"/>
<path d="M1326.11 283.772C1329.88 283.156 1331.57 276.15 1332.99 270.258C1334.28 264.876 1339.12 244.769 1328.41 236.587C1328.14 236.382 1322.28 232.051 1315.35 233.838C1308.43 235.623 1304 242.599 1303.67 248.727C1303.5 251.843 1304.42 254.212 1308.94 261.783C1317.91 276.848 1322.4 284.38 1326.11 283.772Z" fill="#98B29F"/>
<path d="M1419.58 241.192C1420.21 240.129 1419.43 238.729 1417.7 235.579C1410.01 221.523 1409.56 220.292 1407.2 219.318C1404.16 218.061 1399.48 217.868 1396.69 220.613C1393.34 223.925 1394.8 229.491 1394.97 230.111C1396.7 236.348 1403.35 238.942 1406.91 240.328C1411.09 241.955 1418.16 243.564 1419.58 241.192Z" fill="#98B29F"/>
<path d="M1370.91 131.796C1370.95 126.832 1376.84 123.396 1384.26 119.187C1392.74 114.384 1397.64 111.606 1399.67 113.375C1402.92 116.2 1398.59 130.377 1388.67 136.118C1388.12 136.439 1378.82 141.677 1373.68 137.519C1372.13 136.265 1370.89 134.099 1370.91 131.796Z" fill="#98B29F"/>
<path d="M219.84 74.0826C207.057 84.8112 189.651 87.0985 175.975 79.9679C160.824 72.0682 157.025 56.1418 156.487 53.7104" stroke="#255A54" stroke-width="4" stroke-miterlimit="10" stroke-linecap="round"/>
<path d="M339.175 94.0483C329.125 101.224 316.109 101.24 307.394 94.5023C297.875 87.1428 297.84 75.0899 297.86 73.6179" stroke="#255A54" stroke-width="4" stroke-miterlimit="10" stroke-linecap="round"/>
<path d="M352.795 142.627C349.587 141.081 330.526 132.278 309.21 140.811C293.711 147.016 285.858 158.847 283.332 163.058" stroke="#255A54" stroke-width="4" stroke-miterlimit="10" stroke-linecap="round"/>
<path d="M576.253 115.294C557.898 126.242 535.339 125.716 519.479 114.15C502.155 101.517 500.473 81.2927 500.263 78.1313" stroke="#255A54" stroke-width="4" stroke-miterlimit="10" stroke-linecap="round"/>
<path d="M712.148 114.88C709.423 115.896 699.005 119.415 688.126 114.526C687.509 114.249 674.321 108.179 675.055 101.456" stroke="#255A54" stroke-width="4" stroke-miterlimit="10" stroke-linecap="round"/>
<path d="M711.33 194.219C709.068 192.386 694.331 180.852 674.065 184.26C656.694 187.181 647.007 199.105 644.832 201.929" stroke="#255A54" stroke-width="4" stroke-miterlimit="10" stroke-linecap="round"/>
<path d="M875.193 147.939C872.977 149.436 856.511 160.149 836.167 154.085C818.396 148.789 810.33 134.466 808.817 131.653" stroke="#255A54" stroke-width="4" stroke-miterlimit="10" stroke-linecap="round"/>
<path d="M855.047 241.999C856.186 240.124 862.657 229.889 875.958 226.838C890.486 223.507 901.548 231.409 903.143 232.589" stroke="#255A54" stroke-width="4" stroke-miterlimit="10" stroke-linecap="round"/>
<path d="M1015.47 175.996C1004.35 181.962 991.587 180.78 983.974 173.509C977.897 167.705 977.083 159.916 976.928 157.344" stroke="#255A54" stroke-width="4" stroke-miterlimit="10" stroke-linecap="round"/>
<path d="M1101.27 219.931C1098.72 218.359 1083.11 209.103 1063.55 214.542C1045.14 219.663 1036.56 234.098 1034.96 236.924" stroke="#255A54" stroke-width="4" stroke-miterlimit="10" stroke-linecap="round"/>
<path d="M1196.47 145.855C1193.48 147.488 1174.3 157.567 1152.19 149.484C1135.28 143.3 1126.95 130.25 1124.61 126.256" stroke="#255A54" stroke-width="4" stroke-miterlimit="10" stroke-linecap="round"/>
<path d="M1338.9 234.926C1336.28 232.785 1324.84 223.899 1308.05 224.764C1290.49 225.669 1279.75 236.591 1277.56 238.919" stroke="#255A54" stroke-width="4" stroke-miterlimit="10" stroke-linecap="round"/>
<path d="M1391.52 152.541C1389.56 153.38 1378.14 158.053 1365.76 152.541C1356.69 148.503 1352.28 141.306 1350.88 138.75" stroke="#255A54" stroke-width="4" stroke-miterlimit="10" stroke-linecap="round"/>
<path d="M1411.61 216.735C1404.67 213.386 1396.57 213.966 1390.58 218.304C1383.39 223.516 1382.54 231.766 1382.43 233.051" stroke="#255A54" stroke-width="4" stroke-miterlimit="10" stroke-linecap="round"/>
<path d="M64.2253 77.1147C62.5654 78.4513 52.8227 86.0348 39.4132 84.0685C29.5906 82.6281 23.4087 76.8858 21.3633 74.8044" stroke="#255A54" stroke-width="4" stroke-miterlimit="10" stroke-linecap="round"/>
<path d="M78.3984 181.923C78.9827 179.808 82.4126 168.196 94.3756 161.629C107.441 154.458 120.241 159.039 122.097 159.739" stroke="#255A54" stroke-width="4" stroke-miterlimit="10" stroke-linecap="round"/>
<defs>
<linearGradient id="paint0_linear_79_779" x1="720" y1="31.6424" x2="720" y2="291.713" gradientUnits="userSpaceOnUse">
<stop stop-color="#3E816F"/>
<stop offset="1" stop-color="#255A54"/>
</linearGradient>
<linearGradient id="paint1_linear_79_779" x1="98.3347" y1="187.303" x2="98.3347" y2="46.2031" gradientUnits="userSpaceOnUse">
<stop stop-color="#3E816F"/>
<stop offset="1" stop-color="#255A54"/>
</linearGradient>
<linearGradient id="paint2_linear_79_779" x1="64.2151" y1="196.633" x2="64.2151" y2="54.333" gradientUnits="userSpaceOnUse">
<stop stop-color="#3E816F"/>
<stop offset="1" stop-color="#255A54"/>
</linearGradient>
<linearGradient id="paint3_linear_79_779" x1="27.7002" y1="205.863" x2="27.7002" y2="62.2031" gradientUnits="userSpaceOnUse">
<stop stop-color="#3E816F"/>
<stop offset="1" stop-color="#255A54"/>
</linearGradient>
<linearGradient id="paint4_linear_79_779" x1="177.028" y1="176.553" x2="177.028" y2="34.9732" gradientUnits="userSpaceOnUse">
<stop stop-color="#3E816F"/>
<stop offset="1" stop-color="#255A54"/>
</linearGradient>
<linearGradient id="paint5_linear_79_779" x1="214.765" y1="172.783" x2="214.765" y2="31.9531" gradientUnits="userSpaceOnUse">
<stop stop-color="#3E816F"/>
<stop offset="1" stop-color="#255A54"/>
</linearGradient>
<linearGradient id="paint6_linear_79_779" x1="269.06" y1="172.623" x2="269.06" y2="31.6431" gradientUnits="userSpaceOnUse">
<stop stop-color="#3E816F"/>
<stop offset="1" stop-color="#255A54"/>
</linearGradient>
<linearGradient id="paint7_linear_79_779" x1="343.645" y1="176.193" x2="343.645" y2="37.333" gradientUnits="userSpaceOnUse">
<stop stop-color="#3E816F"/>
<stop offset="1" stop-color="#255A54"/>
</linearGradient>
<linearGradient id="paint8_linear_79_779" x1="136.878" y1="182.563" x2="136.878" y2="39.543" gradientUnits="userSpaceOnUse">
<stop stop-color="#3E816F"/>
<stop offset="1" stop-color="#255A54"/>
</linearGradient>
<linearGradient id="paint9_linear_79_779" x1="306.44" y1="173.743" x2="306.44" y2="33.5229" gradientUnits="userSpaceOnUse">
<stop stop-color="#3E816F"/>
<stop offset="1" stop-color="#255A54"/>
</linearGradient>
<linearGradient id="paint10_linear_79_779" x1="478.183" y1="194.083" x2="478.183" y2="59.543" gradientUnits="userSpaceOnUse">
<stop stop-color="#3E816F"/>
<stop offset="1" stop-color="#255A54"/>
</linearGradient>
<linearGradient id="paint11_linear_79_779" x1="434.45" y1="186.713" x2="434.45" y2="51.9531" gradientUnits="userSpaceOnUse">
<stop stop-color="#3E816F"/>
<stop offset="1" stop-color="#255A54"/>
</linearGradient>
<linearGradient id="paint12_linear_79_779" x1="383.873" y1="180.153" x2="383.873" y2="42.5732" gradientUnits="userSpaceOnUse">
<stop stop-color="#3E816F"/>
<stop offset="1" stop-color="#255A54"/>
</linearGradient>
<linearGradient id="paint13_linear_79_779" x1="582.924" y1="216.923" x2="582.924" y2="77.8831" gradientUnits="userSpaceOnUse">
<stop stop-color="#3E816F"/>
<stop offset="1" stop-color="#255A54"/>
</linearGradient>
<linearGradient id="paint14_linear_79_779" x1="679.775" y1="238.623" x2="679.775" y2="94.2632" gradientUnits="userSpaceOnUse">
<stop stop-color="#3E816F"/>
<stop offset="1" stop-color="#255A54"/>
</linearGradient>
<linearGradient id="paint15_linear_79_779" x1="530.682" y1="204.103" x2="530.682" y2="69.103" gradientUnits="userSpaceOnUse">
<stop stop-color="#3E816F"/>
<stop offset="1" stop-color="#255A54"/>
</linearGradient>
<linearGradient id="paint16_linear_79_779" x1="626.685" y1="229.133" x2="626.685" y2="85.2432" gradientUnits="userSpaceOnUse">
<stop stop-color="#3E816F"/>
<stop offset="1" stop-color="#255A54"/>
</linearGradient>
<linearGradient id="paint17_linear_79_779" x1="786.19" y1="255.043" x2="786.19" y2="109.853" gradientUnits="userSpaceOnUse">
<stop stop-color="#3E816F"/>
<stop offset="1" stop-color="#255A54"/>
</linearGradient>
<linearGradient id="paint18_linear_79_779" x1="730.267" y1="248.253" x2="730.267" y2="100.493" gradientUnits="userSpaceOnUse">
<stop stop-color="#3E816F"/>
<stop offset="1" stop-color="#255A54"/>
</linearGradient>
<linearGradient id="paint19_linear_79_779" x1="918.105" y1="262.113" x2="918.105" y2="116.983" gradientUnits="userSpaceOnUse">
<stop stop-color="#3E816F"/>
<stop offset="1" stop-color="#255A54"/>
</linearGradient>
<linearGradient id="paint20_linear_79_779" x1="883.1" y1="261.493" x2="883.1" y2="116.453" gradientUnits="userSpaceOnUse">
<stop stop-color="#3E816F"/>
<stop offset="1" stop-color="#255A54"/>
</linearGradient>
<linearGradient id="paint21_linear_79_779" x1="835.66" y1="259.353" x2="835.66" y2="113.593" gradientUnits="userSpaceOnUse">
<stop stop-color="#3E816F"/>
<stop offset="1" stop-color="#255A54"/>
</linearGradient>
<linearGradient id="paint22_linear_79_779" x1="997.674" y1="260.903" x2="997.674" y2="114.203" gradientUnits="userSpaceOnUse">
<stop stop-color="#3E816F"/>
<stop offset="1" stop-color="#255A54"/>
</linearGradient>
<linearGradient id="paint23_linear_79_779" x1="1038.88" y1="257.403" x2="1038.88" y2="111.463" gradientUnits="userSpaceOnUse">
<stop stop-color="#3E816F"/>
<stop offset="1" stop-color="#255A54"/>
</linearGradient>
<linearGradient id="paint24_linear_79_779" x1="1092.46" y1="252.783" x2="1092.46" y2="107.923" gradientUnits="userSpaceOnUse">
<stop stop-color="#3E816F"/>
<stop offset="1" stop-color="#255A54"/>
</linearGradient>
<linearGradient id="paint25_linear_79_779" x1="1162.16" y1="244.013" x2="1162.16" y2="105.323" gradientUnits="userSpaceOnUse">
<stop stop-color="#3E816F"/>
<stop offset="1" stop-color="#255A54"/>
</linearGradient>
<linearGradient id="paint26_linear_79_779" x1="955.936" y1="262.063" x2="955.936" y2="116.183" gradientUnits="userSpaceOnUse">
<stop stop-color="#3E816F"/>
<stop offset="1" stop-color="#255A54"/>
</linearGradient>
<linearGradient id="paint27_linear_79_779" x1="1126.16" y1="248.153" x2="1126.16" y2="106.683" gradientUnits="userSpaceOnUse">
<stop stop-color="#3E816F"/>
<stop offset="1" stop-color="#255A54"/>
</linearGradient>
<linearGradient id="paint28_linear_79_779" x1="1296.67" y1="248.913" x2="1296.67" y2="111.713" gradientUnits="userSpaceOnUse">
<stop stop-color="#3E816F"/>
<stop offset="1" stop-color="#255A54"/>
</linearGradient>
<linearGradient id="paint29_linear_79_779" x1="1251.96" y1="242.763" x2="1251.96" y2="107.593" gradientUnits="userSpaceOnUse">
<stop stop-color="#3E816F"/>
<stop offset="1" stop-color="#255A54"/>
</linearGradient>
<linearGradient id="paint30_linear_79_779" x1="1201.74" y1="241.403" x2="1201.74" y2="105.253" gradientUnits="userSpaceOnUse">
<stop stop-color="#3E816F"/>
<stop offset="1" stop-color="#255A54"/>
</linearGradient>
<linearGradient id="paint31_linear_79_779" x1="1399.74" y1="274.313" x2="1399.74" y2="128.963" gradientUnits="userSpaceOnUse">
<stop stop-color="#3E816F"/>
<stop offset="1" stop-color="#255A54"/>
</linearGradient>
<linearGradient id="paint32_linear_79_779" x1="1348.56" y1="259.603" x2="1348.56" y2="119.073" gradientUnits="userSpaceOnUse">
<stop stop-color="#3E816F"/>
<stop offset="1" stop-color="#255A54"/>
</linearGradient>
</defs>
</svg>
