<?xml version="1.0" encoding="UTF-8" standalone="no"?>
<!-- Created with Inkscape (http://www.inkscape.org/) -->

<svg
   xmlns:dc="http://purl.org/dc/elements/1.1/"
   xmlns:cc="http://creativecommons.org/ns#"
   xmlns:rdf="http://www.w3.org/1999/02/22-rdf-syntax-ns#"
   xmlns:svg="http://www.w3.org/2000/svg"
   xmlns="http://www.w3.org/2000/svg"
   xmlns:sodipodi="http://sodipodi.sourceforge.net/DTD/sodipodi-0.dtd"
   xmlns:inkscape="http://www.inkscape.org/namespaces/inkscape"
   id="svg4155"
   version="1.1"
   inkscape:version="0.91 r13725"
   xml:space="preserve"
   width="1210.8722"
   height="346.72375"
   viewBox="0 0 1210.8722 346.72375"
   sodipodi:docname="MMCLogo3.svg"><metadata
     id="metadata4161"><rdf:RDF><cc:Work
         rdf:about=""><dc:format>image/svg+xml</dc:format><dc:type
           rdf:resource="http://purl.org/dc/dcmitype/StillImage" /><dc:title></dc:title></cc:Work></rdf:RDF></metadata><defs
     id="defs4159"><clipPath
       clipPathUnits="userSpaceOnUse"
       id="clipPath4169"><path
         d="m 0,1080 1080,0 L 1080,0 0,0 0,1080 Z"
         id="path4171"
         inkscape:connector-curvature="0" /></clipPath></defs><sodipodi:namedview
     pagecolor="#ffffff"
     bordercolor="#666666"
     borderopacity="1"
     objecttolerance="10"
     gridtolerance="10"
     guidetolerance="10"
     inkscape:pageopacity="0"
     inkscape:pageshadow="2"
     inkscape:window-width="1436"
     inkscape:window-height="855"
     id="namedview4157"
     showgrid="false"
     fit-margin-top="0"
     fit-margin-left="0"
     fit-margin-right="0"
     fit-margin-bottom="0"
     inkscape:zoom="0.4837037"
     inkscape:cx="605.43625"
     inkscape:cy="173.36163"
     inkscape:window-x="4"
     inkscape:window-y="0"
     inkscape:window-maximized="1"
     inkscape:current-layer="g4163" /><g
     id="g4163"
     inkscape:groupmode="layer"
     inkscape:label="MMC Logo3"
     transform="matrix(1.25,0,0,-1.25,-69.56375,848.36212)"><g
       id="g4165"><g
         id="g4167"
         clip-path="url(#clipPath4169)"><g
           id="g4173"
           transform="translate(194.3426,543.1573)"><path
             d="m 0,0 12.491,-12.491 c 6.887,-6.887 6.9,-18.01 0.014,-24.896 -6.886,-6.886 -18.037,-6.846 -24.923,0.04 -6.886,6.887 -6.913,18.078 -0.027,24.964 l 12.342,12.342 0.032,-0.035 0,0 m 0,0 0,0 L 0,0 m 4.621,4.967 48.823,52.471 0.005,-0.01 45.901,-116.572 7.407,2.925 -47.286,120.09 -0.676,1.715 -0.715,1.817 -0.725,1.84 -0.652,1.655 -5.315,-5.806 -51.452,-55.289 -51.25,55.289 -5.316,5.806 -0.652,-1.655 -0.724,-1.84 -0.716,-1.817 -0.675,-1.715 -47.286,-120.09 7.407,-2.925 45.901,116.572 0.004,0.01 L -4.675,4.893 -17.403,-7.835 c -9.659,-9.659 -9.621,-25.358 0.038,-35.018 9.66,-9.659 25.301,-9.716 34.961,-0.057 9.659,9.659 9.64,25.263 -0.02,34.922 L 4.621,4.967"
             style="fill:#000000;fill-opacity:1;fill-rule:nonzero;stroke:none"
             id="path4175"
             inkscape:connector-curvature="0" /></g><g
           id="g4177"
           transform="translate(194.341,669.6317)"><path
             d="m 0,0 c -71.48,0 -129.632,-58.153 -129.632,-129.632 0,-71.479 58.152,-129.633 129.632,-129.633 71.479,0 129.631,58.154 129.631,129.633 C 129.631,-58.153 71.479,0 0,0 m 0,-268.321 c -76.473,0 -138.69,62.215 -138.69,138.689 0,76.474 62.217,138.69 138.69,138.69 76.473,0 138.689,-62.216 138.689,-138.69 0,-76.474 -62.216,-138.689 -138.689,-138.689"
             style="fill:#000000;fill-opacity:1;fill-rule:nonzero;stroke:none"
             id="path4179"
             inkscape:connector-curvature="0" /></g><g
           id="g4181"
           transform="translate(452.3514,552.6422)"><path
             d="m 0,0 0,47.497 -18.494,-35.37 -7.578,0 -18.494,35.37 0,-47.497 -13.946,0 0,71.75 14.957,0 21.221,-40.826 21.425,40.826 14.855,0 L 13.946,0 0,0 Z"
             style="fill:#000000;fill-opacity:1;fill-rule:nonzero;stroke:none"
             id="path4183"
             inkscape:connector-curvature="0" /></g><path
           d="m 483.779,624.393 13.946,0 0,-71.75 -13.946,0 0,71.75 z"
           style="fill:#000000;fill-opacity:1;fill-rule:nonzero;stroke:none"
           id="path4185"
           inkscape:connector-curvature="0" /><g
           id="g4187"
           transform="translate(529.1512,598.6216)"><path
             d="m 0,0 0,-45.979 -13.946,0 0,71.75 10.813,0 37.392,-47.093 0,46.991 13.945,0 0,-71.648 -11.319,0 L 0,0 Z"
             style="fill:#000000;fill-opacity:1;fill-rule:nonzero;stroke:none"
             id="path4189"
             inkscape:connector-curvature="0" /></g><g
           id="g4191"
           transform="translate(625.1524,564.4648)"><path
             d="m 0,0 c 3.3,0 6.08,0.673 8.337,2.022 2.257,1.347 4.076,3.098 5.458,5.255 1.379,2.155 2.356,4.631 2.93,7.427 0.572,2.795 0.858,5.676 0.858,8.64 l 0,36.584 13.845,0 0,-36.584 C 31.428,18.426 30.838,13.81 29.66,9.5 28.48,5.188 26.629,1.416 24.101,-1.819 c -2.526,-3.233 -5.777,-5.793 -9.751,-7.68 -3.976,-1.887 -8.725,-2.829 -14.248,-2.829 -5.728,0 -10.596,0.994 -14.603,2.981 -4.009,1.987 -7.26,4.614 -9.752,7.882 -2.494,3.268 -4.295,7.057 -5.407,11.368 -1.112,4.311 -1.667,8.793 -1.667,13.441 l 0,36.584 13.946,0 0,-36.584 c 0,-3.031 0.285,-5.945 0.859,-8.741 0.572,-2.797 1.549,-5.272 2.931,-7.428 1.379,-2.155 3.183,-3.89 5.406,-5.204 C -5.962,0.657 -3.233,0 0,0"
             style="fill:#000000;fill-opacity:1;fill-rule:nonzero;stroke:none"
             id="path4193"
             inkscape:connector-curvature="0" /></g><g
           id="g4195"
           transform="translate(726.8151,612.1641)"><path
             d="m 0,0 -22.939,0 0,-59.522 -13.846,0 0,59.522 -22.939,0 0,12.229 L 0,12.229 0,0 Z"
             style="fill:#000000;fill-opacity:1;fill-rule:nonzero;stroke:none"
             id="path4197"
             inkscape:connector-curvature="0" /></g><g
           id="g4199"
           transform="translate(788.0541,564.8693)"><path
             d="m 0,0 0,-12.227 -49.821,0 0,71.75 48.912,0 0,-12.228 -34.966,0 0,-17.281 30.216,0 0,-11.318 -30.216,0 L -35.875,0 0,0 Z"
             style="fill:#000000;fill-opacity:1;fill-rule:nonzero;stroke:none"
             id="path4201"
             inkscape:connector-curvature="0" /></g><g
           id="g4203"
           transform="translate(860.0055,552.6422)"><path
             d="m 0,0 0,47.497 -18.494,-35.37 -7.578,0 -18.494,35.37 0,-47.497 -13.946,0 0,71.75 14.957,0 21.221,-40.826 21.425,40.826 14.855,0 L 13.946,0 0,0 Z"
             style="fill:#000000;fill-opacity:1;fill-rule:nonzero;stroke:none"
             id="path4205"
             inkscape:connector-curvature="0" /></g><g
           id="g4207"
           transform="translate(941.2521,564.8693)"><path
             d="m 0,0 0,-12.227 -49.821,0 0,71.75 48.912,0 0,-12.228 -34.966,0 0,-17.281 30.216,0 0,-11.318 -30.216,0 L -35.875,0 0,0 Z"
             style="fill:#000000;fill-opacity:1;fill-rule:nonzero;stroke:none"
             id="path4209"
             inkscape:connector-curvature="0" /></g><g
           id="g4211"
           transform="translate(968.6383,598.6216)"><path
             d="m 0,0 0,-45.979 -13.946,0 0,71.75 10.813,0 37.392,-47.093 0,46.991 13.945,0 0,-71.648 -11.319,0 L 0,0 Z"
             style="fill:#000000;fill-opacity:1;fill-rule:nonzero;stroke:none"
             id="path4213"
             inkscape:connector-curvature="0" /></g><g
           id="g4215"
           transform="translate(389.5446,497.1177)"><path
             d="m 0,0 c 0,3.233 0.569,6.454 1.706,9.663 1.136,3.208 2.791,6.076 4.964,8.602 2.172,2.527 4.85,4.586 8.034,6.178 3.183,1.591 6.795,2.387 10.838,2.387 4.799,0 8.905,-1.086 12.316,-3.258 3.411,-2.174 5.924,-5.003 7.542,-8.489 l -4.169,-2.578 c -0.86,1.769 -1.908,3.259 -3.146,4.473 -1.238,1.212 -2.564,2.198 -3.978,2.955 -1.416,0.759 -2.881,1.3 -4.397,1.63 -1.515,0.329 -3.007,0.492 -4.471,0.492 -3.235,0 -6.089,-0.657 -8.565,-1.97 C 14.198,18.77 12.115,17.054 10.422,14.931 8.728,12.808 7.453,10.422 6.594,7.768 5.735,5.116 5.306,2.424 5.306,-0.304 c 0,-2.981 0.517,-5.835 1.553,-8.564 1.035,-2.728 2.451,-5.143 4.244,-7.239 1.793,-2.095 3.916,-3.763 6.368,-5.001 2.45,-1.24 5.116,-1.857 7.995,-1.857 1.516,0 3.07,0.19 4.661,0.568 1.592,0.379 3.133,0.986 4.624,1.819 1.489,0.834 2.867,1.869 4.131,3.109 1.262,1.236 2.322,2.739 3.183,4.509 l 4.395,-2.275 c -0.859,-2.02 -2.071,-3.802 -3.638,-5.343 -1.566,-1.542 -3.309,-2.842 -5.23,-3.903 -1.92,-1.061 -3.954,-1.87 -6.1,-2.425 -2.148,-0.556 -4.258,-0.833 -6.329,-0.833 -3.689,0 -7.075,0.806 -10.156,2.424 -3.083,1.617 -5.735,3.726 -7.958,6.328 -2.224,2.604 -3.954,5.559 -5.192,8.869 C 0.619,-6.809 0,-3.437 0,0"
             style="fill:#000000;fill-opacity:1;fill-rule:nonzero;stroke:none"
             id="path4217"
             inkscape:connector-curvature="0" /></g><g
           id="g4219"
           transform="translate(480.5697,494.3894)"><path
             d="m 0,0 17.583,0 c 1.567,0 2.995,0.341 4.283,1.023 1.288,0.682 2.387,1.603 3.297,2.767 0.909,1.162 1.617,2.474 2.123,3.94 0.503,1.465 0.757,3.007 0.757,4.625 0,1.615 -0.292,3.169 -0.871,4.661 -0.583,1.489 -1.364,2.791 -2.35,3.902 -0.985,1.111 -2.149,1.996 -3.487,2.653 -1.338,0.655 -2.74,0.985 -4.206,0.985 L 0,24.556 0,0 Z m -5.305,-24.557 0,53.812 22.738,0 c 2.322,0 4.459,-0.492 6.404,-1.478 1.945,-0.985 3.625,-2.273 5.04,-3.866 1.414,-1.59 2.512,-3.398 3.297,-5.418 0.783,-2.021 1.175,-4.068 1.175,-6.138 0,-1.971 -0.292,-3.855 -0.873,-5.647 C 31.895,4.914 31.086,3.296 30.052,1.857 29.015,0.417 27.765,-0.795 26.3,-1.781 24.834,-2.766 23.192,-3.437 21.373,-3.79 l 13.188,-20.767 -5.987,0 -12.657,19.858 -15.917,0 0,-19.858 -5.305,0 z"
             style="fill:#000000;fill-opacity:1;fill-rule:nonzero;stroke:none"
             id="path4221"
             inkscape:connector-curvature="0" /></g><g
           id="g4223"
           transform="translate(591.0743,474.5311)"><path
             d="m 0,0 0,-4.699 -36.152,0 0,53.813 35.469,0 0,-4.7 -30.165,0 0,-19.403 26.301,0 0,-4.471 -26.301,0 0,-20.54 L 0,0 Z"
             style="fill:#000000;fill-opacity:1;fill-rule:nonzero;stroke:none"
             id="path4225"
             inkscape:connector-curvature="0" /></g><g
           id="g4227"
           transform="translate(660.9543,490.8277)"><path
             d="M 0,0 -10.839,26.602 -21.828,0 0,0 Z m -13.036,32.817 4.471,0 22.359,-53.813 -5.609,0 -6.973,16.826 -24.177,0 -6.897,-16.826 -5.685,0 22.511,53.813 z"
             style="fill:#000000;fill-opacity:1;fill-rule:nonzero;stroke:none"
             id="path4229"
             inkscape:connector-curvature="0" /></g><g
           id="g4231"
           transform="translate(745.5387,518.9456)"><path
             d="m 0,0 -19.176,0 0,-49.114 -5.306,0 0,49.114 -19.175,0 0,4.699 L 0,4.699 0,0 Z"
             style="fill:#000000;fill-opacity:1;fill-rule:nonzero;stroke:none"
             id="path4233"
             inkscape:connector-curvature="0" /></g><path
           d="m 783.736,523.645 5.305,0 0,-53.813 -5.305,0 0,53.813 z"
           style="fill:#000000;fill-opacity:1;fill-rule:nonzero;stroke:none"
           id="path4235"
           inkscape:connector-curvature="0" /><g
           id="g4237"
           transform="translate(832.4686,523.6447)"><path
             d="M 0,0 19.252,-47.219 38.427,0 43.96,0 21.525,-53.813 l -4.623,0 L -5.533,0 0,0 Z"
             style="fill:#000000;fill-opacity:1;fill-rule:nonzero;stroke:none"
             id="path4239"
             inkscape:connector-curvature="0" /></g><g
           id="g4241"
           transform="translate(948.7624,474.5311)"><path
             d="m 0,0 0,-4.699 -36.152,0 0,53.813 35.469,0 0,-4.7 -30.165,0 0,-19.403 26.301,0 0,-4.471 -26.301,0 0,-20.54 L 0,0 Z"
             style="fill:#000000;fill-opacity:1;fill-rule:nonzero;stroke:none"
             id="path4243"
             inkscape:connector-curvature="0" /></g><g
           id="g4245"
           transform="translate(1019.1188,513.5636)"><path
             d="m 0,0 c -1.516,1.718 -3.537,3.108 -6.063,4.17 -2.528,1.061 -5.408,1.591 -8.64,1.591 -4.751,0 -8.212,-0.898 -10.384,-2.691 -2.173,-1.794 -3.259,-4.232 -3.259,-7.313 0,-1.618 0.291,-2.944 0.872,-3.98 0.579,-1.036 1.478,-1.933 2.69,-2.69 1.213,-0.758 2.766,-1.415 4.661,-1.971 1.895,-0.557 4.131,-1.112 6.708,-1.667 2.881,-0.607 5.469,-1.29 7.768,-2.047 2.3,-0.757 4.257,-1.705 5.875,-2.842 1.615,-1.136 2.853,-2.514 3.714,-4.131 0.858,-1.616 1.288,-3.637 1.288,-6.063 0,-2.476 -0.481,-4.623 -1.44,-6.442 -0.961,-1.819 -2.3,-3.335 -4.018,-4.547 -1.717,-1.214 -3.764,-2.111 -6.138,-2.691 -2.375,-0.581 -4.978,-0.871 -7.808,-0.871 -8.337,0 -15.536,2.601 -21.599,7.805 l 2.652,4.322 c 0.96,-1.013 2.109,-1.971 3.449,-2.881 1.338,-0.909 2.829,-1.705 4.471,-2.387 1.641,-0.683 3.398,-1.212 5.268,-1.592 1.869,-0.379 3.839,-0.568 5.911,-0.568 4.295,0 7.642,0.768 10.044,2.31 2.398,1.542 3.599,3.878 3.599,7.013 0,1.666 -0.34,3.069 -1.023,4.205 -0.683,1.137 -1.705,2.123 -3.069,2.956 -1.364,0.833 -3.058,1.553 -5.079,2.161 -2.022,0.605 -4.371,1.212 -7.048,1.819 -2.831,0.655 -5.306,1.338 -7.427,2.045 -2.123,0.708 -3.918,1.593 -5.382,2.654 -1.466,1.06 -2.566,2.335 -3.297,3.826 -0.733,1.489 -1.098,3.322 -1.098,5.496 0,2.475 0.465,4.686 1.402,6.631 0.934,1.945 2.26,3.563 3.978,4.85 1.717,1.29 3.738,2.275 6.063,2.956 2.324,0.683 4.901,1.024 7.731,1.024 3.587,0 6.784,-0.543 9.588,-1.629 C -2.236,7.742 0.303,6.217 2.576,4.246 L 0,0 Z"
             style="fill:#000000;fill-opacity:1;fill-rule:nonzero;stroke:none"
             id="path4247"
             inkscape:connector-curvature="0" /></g></g></g></g></svg>
