<svg xmlns="http://www.w3.org/2000/svg" viewBox="0 0 59.66 43.55"><defs><style>.cls-1{fill:#485baa;}.cls-2{fill:#fff;}.cls-3{fill:#3a9bf6;}</style></defs><title>hacktogether</title><g id="Letters"><polygon class="cls-1" points="8.11 32.03 16 27.46 8.11 22.91 0.2 27.47 8.11 32.03"/><path class="cls-2" d="M8.1,32.15,0,27.47l8.1-4.68.06,0,8.05,4.64ZM.41,27.47,8.1,31.91l7.7-4.45L8.1,23Z"/><path class="cls-2" d="M.2,27.57H.15a.11.11,0,0,1,0-.09V18.35a.11.11,0,0,1,0-.09l7.9-4.56a.11.11,0,0,1,.11,0,.11.11,0,0,1,.05.09v9.12a.12.12,0,0,1-.05.09L.26,27.56Zm.11-9.16v8.88L8,22.85V14Z"/><polygon class="cls-3" points="16 18.35 16 27.46 8.11 22.91 8.11 13.79 16 18.35"/><path class="cls-2" d="M16,27.57l-.05,0L8.05,23A.12.12,0,0,1,8,22.91V13.79a.11.11,0,0,1,.05-.09.11.11,0,0,1,.11,0l7.9,4.56a.11.11,0,0,1,.05.09v9.11a.11.11,0,0,1-.05.09ZM8.21,22.85l7.69,4.44V18.41L8.21,14Z"/><polygon class="cls-1" points="27.85 43.43 35.75 38.87 27.85 34.31 19.95 38.87 27.85 43.43"/><path class="cls-2" d="M27.85,43.55l-8.1-4.68,8.1-4.68,0,0L36,38.87Zm-7.69-4.68,7.69,4.44,7.7-4.44-7.7-4.44Z"/><path class="cls-2" d="M20,39H19.9a.11.11,0,0,1,0-.09V29.75a.11.11,0,0,1,0-.09l7.9-4.56a.09.09,0,0,1,.1,0,.1.1,0,0,1,.06.09v9.12a.1.1,0,0,1-.06.09L20,39Zm.11-9.16v8.88l7.69-4.44V25.37Z"/><polygon class="cls-3" points="35.75 29.75 35.75 38.87 27.85 34.31 27.85 25.19 35.75 29.75"/><path class="cls-2" d="M35.75,39l0,0L27.8,34.4a.11.11,0,0,1-.05-.09V25.19a.11.11,0,0,1,.05-.09.09.09,0,0,1,.1,0l7.91,4.56a.11.11,0,0,1,0,.09v9.12a.09.09,0,0,1,0,.08ZM28,34.25l7.69,4.44V29.81L28,25.37Z"/><path class="cls-2" d="M20,39H19.9L8.05,32.12a.11.11,0,0,1,.11-.18L20,38.78a.1.1,0,0,1,0,.14A.09.09,0,0,1,20,39Z"/><path class="cls-2" d="M27.85,34.41H27.8L16,27.55a.11.11,0,0,1,0-.09.09.09,0,0,1,0-.08l15.8-9.12a.11.11,0,0,1,.11,0L43.7,25.1a.1.1,0,0,1,.06.09.11.11,0,0,1-.06.09L27.9,34.4ZM16.21,27.46l11.64,6.73,15.6-9L31.8,18.46Z"/><path class="cls-2" d="M27.85,25.29H27.8L16,18.44a.12.12,0,0,1,0-.09.11.11,0,0,1,0-.09l7.9-4.56a.11.11,0,0,1,.14,0,.11.11,0,0,1,0,.14l-7.75,4.48,11.64,6.72L43.6,16a.11.11,0,0,1,.14,0,.1.1,0,0,1,0,.14L27.9,25.28Z"/><polygon class="cls-1" points="31.8 18.35 39.7 13.78 31.8 9.22 23.9 13.79 31.8 18.35"/><path class="cls-2" d="M31.8,18.46l-8.1-4.67,8.1-4.68.06,0,8,4.64Zm-7.69-4.67,7.69,4.44,7.7-4.45L31.8,9.34Z"/><path class="cls-2" d="M23.9,13.89l0,0a.09.09,0,0,1-.05-.08V4.66a.12.12,0,0,1,.05-.09L31.75,0h.11a.12.12,0,0,1,.05.09V9.22a.11.11,0,0,1-.05.09L24,13.87ZM24,4.72v8.89L31.7,9.17V.28Z"/><polygon class="cls-3" points="39.7 4.66 39.7 13.78 31.8 9.22 31.8 0.1 39.7 4.66"/><path class="cls-2" d="M39.7,13.88h-.05l-7.9-4.56a.11.11,0,0,1-.05-.09V.1A.12.12,0,0,1,31.75,0h.11l7.9,4.56a.12.12,0,0,1,.05.09v9.12a.11.11,0,0,1-.05.09ZM31.91,9.17,39.6,13.6V4.72L31.91.28Z"/><polygon class="cls-1" points="51.55 29.75 59.45 25.18 51.55 20.63 43.65 25.19 51.55 29.75"/><path class="cls-2" d="M51.55,29.87l-8.1-4.68,8.1-4.68.05,0,8.06,4.64Zm-7.69-4.68,7.69,4.44,7.7-4.45-7.7-4.44Z"/><path class="cls-2" d="M43.65,25.29h0a.12.12,0,0,1-.05-.09V16.07A.11.11,0,0,1,43.6,16l7.9-4.56a.09.09,0,0,1,.1,0,.08.08,0,0,1,.06.08v9.13a.11.11,0,0,1-.06.09l-7.9,4.56Zm.11-9.17V25l7.69-4.44V11.68Z"/><polygon class="cls-3" points="59.45 16.07 59.45 25.18 51.55 20.63 51.55 11.5 59.45 16.07"/><path class="cls-2" d="M59.45,25.28H59.4l-7.9-4.55a.12.12,0,0,1,0-.09V11.5a.09.09,0,0,1,0-.08.09.09,0,0,1,.1,0L59.5,16a.1.1,0,0,1,.06.09v9.11a.1.1,0,0,1-.06.09Zm-7.79-4.71L59.35,25V16.12l-7.69-4.44Z"/><path class="cls-2" d="M51.55,20.73h0L39.65,13.87a.11.11,0,0,1,.11-.18L51.6,20.54a.1.1,0,0,1,0,.14A.11.11,0,0,1,51.55,20.73Z"/><path class="cls-2" d="M51.55,11.61l0,0L39.65,4.75a.1.1,0,0,1,0-.14.11.11,0,0,1,.14,0L51.6,11.42a.1.1,0,0,1,0,.14A.11.11,0,0,1,51.55,11.61Z"/></g></svg>