<svg xmlns="http://www.w3.org/2000/svg" viewBox="0 0 232.31 223.59"><defs><style>.cls-1{fill:#1d0f20;}.cls-2{fill:#fff;}</style></defs><title>hacktogether</title><g id="Letters"><polygon class="cls-1" points="0.5 123.05 0.5 212 19.77 223.09 19.77 134.13 0.5 123.05"/><path class="cls-2" d="M19.77,223.59a.59.59,0,0,1-.25-.07L.25,212.44A.52.52,0,0,1,0,212V123.05a.5.5,0,0,1,.75-.44L20,133.7a.47.47,0,0,1,.25.43v89a.48.48,0,0,1-.25.43A.52.52,0,0,1,19.77,223.59ZM1,211.72l18.27,10.5v-87.8L1,123.91Z"/><polygon class="cls-1" points="0.5 123.05 212.58 0.5 231.81 11.63 19.77 134.06 0.5 123.05"/><path class="cls-2" d="M19.77,134.56a.51.51,0,0,1-.24-.07l-19.28-11a.5.5,0,0,1,0-.87L212.33.07a.5.5,0,0,1,.5,0L232.06,11.2a.49.49,0,0,1,0,.86L20,134.49A.52.52,0,0,1,19.77,134.56ZM1.5,123l18.27,10.44,211-121.85L212.58,1.08Z"/><polygon class="cls-1" points="231.81 11.63 231.81 100.66 19.77 223.09 19.77 134.06 231.81 11.63"/><path class="cls-2" d="M19.77,223.59a.59.59,0,0,1-.25-.07.5.5,0,0,1-.25-.43v-89a.52.52,0,0,1,.25-.44l212-122.42a.5.5,0,0,1,.5,0,.48.48,0,0,1,.25.43v89a.5.5,0,0,1-.25.43L20,223.52A.52.52,0,0,1,19.77,223.59Zm.5-89.25v87.88l211-121.85V12.5Z"/><path class="cls-2" d="M106.72,118.18,98.32,123l-.23,6.65,8.31-4.79-.28,6.78-8.4,4.85-.59,13.38-5.6,3.24L93,119.59l14-8.08Z"/><path class="cls-2" d="M128.79,131.62l-5.65,3.26.51-11.42-8.68,5-.5,11.42-5.65,3.26,1-23.4c.33-6.33,4.73-13.59,10.52-16.93,5.18-2.62,9.4-.29,9.4,6.65Zm-4.91-14.12c0-.43.13-4,.13-5-.27-3.23-2-4-4-3-2.15,1.25-3.94,3.92-4.49,7.63-.1.53-.28,4.88-.32,5.43Z"/><path class="cls-2" d="M156.66,99.74c-.42,9.08-4.64,19.53-12.81,24.24-6.7,3.45-11.47-.21-11.47-9.85,0-.58,0-1.22,0-1.88.51-9.15,4.73-19.16,13-23.91,5.87-3.39,11.33-.4,11.33,10Zm-6,3.1V102c0-3.66-.41-8.67-5.6-6.47-4.68,2.71-6.24,8.27-6.47,13.55,0,.55,0,1.08,0,1.61,0,4.45,1.56,8.48,5.64,6.17C148.85,114.15,150.6,108.06,150.64,102.84Zm6.89,22.62c-2.11,3-3.95,4.83-5.51,5.73s-3.07.87-4.13,0c-1.79-1.56-2.94-2-4.08-1.3a8.33,8.33,0,0,0-2.3,2.49l-3-2.36a18.34,18.34,0,0,1,5.28-5.43c1.83-1.06,3.3-.9,4.4.11,1.65,1.48,2.8,1.72,3.86,1.11a10,10,0,0,0,2.57-2.81Z"/></g></svg>