<svg xmlns="http://www.w3.org/2000/svg" viewBox="0 0 1441.19 669.4"><defs><style>.cls-1{fill:#92a4cc;}.cls-2{fill:#fff;}</style></defs><title>hacktogether</title><g id="Platform"><polygon class="cls-1" points="0.54 557.09 964.59 0.5 1440.69 275.38 1440.54 668.9 0.5 668.9 0.54 557.09"/><path class="cls-2" d="M1440.54,669.4H.5a.5.5,0,0,1-.35-.14A.49.49,0,0,1,0,668.9L0,557.09a.5.5,0,0,1,.25-.43L964.34.07a.5.5,0,0,1,.5,0L1440.94,275a.48.48,0,0,1,.25.43L1441,668.9A.5.5,0,0,1,1440.54,669.4ZM1,668.4H1440l.15-392.73L964.59,1.08,1,557.38Z"/></g></svg>