<svg xmlns="http://www.w3.org/2000/svg" viewBox="0 0 232.31 223.59"><defs><style>.cls-1{fill:#1d0f20;stroke:#fff;stroke-linecap:round;stroke-linejoin:round;}.cls-2{fill:#fff;}</style></defs><title>hacktogether</title><g id="Letters"><polygon class="cls-1" points="231.81 123.05 231.81 212 212.54 223.09 212.54 134.13 231.81 123.05"/><polygon class="cls-1" points="231.81 123.05 19.73 0.5 0.5 11.63 212.54 134.06 231.81 123.05"/><polygon class="cls-1" points="0.5 11.63 0.5 100.66 212.54 223.09 212.54 134.06 0.5 11.63"/><path class="cls-2" d="M45.18,71.93l-8.4-4.85-.23,6.39,8.31,4.8-.28,6.46-8.4-4.85-.59,12.69L30,89.34l1.46-31.85,14,8.09Z"/><path class="cls-2" d="M59.56,73.77c4.54,2.73,10,6.68,10,15.64,0,5-2,6.41-4.63,6.06L69.29,112l-6-3.47-4-15.42-4.73-2.73-.64,12.72-5.65-3.26L49.74,68.1l9.77,5.64ZM54.74,84.5l5.14,3c1.47.85,4.13,1.75,4.13-1.32,0-2.65-2.66-5.41-4.13-6.26l-4.82-2.78Z"/><path class="cls-2" d="M73.24,114.31l1.47-31.85,15.37,8.88-.32,6.34L80,92.06l-.23,6.38L89.49,104l-.32,6.44-9.69-5.59-.32,6.28,9.73,5.62-.32,6.39Z"/><path class="cls-2" d="M94.21,126.42l1.47-31.85,15.37,8.88-.32,6.33L101,104.16l-.23,6.39,9.69,5.59-.32,6.44L100.45,117l-.32,6.28,9.73,5.62-.32,6.38Z"/><path class="cls-2" d="M132,115.56l-.27,6.41-5.28-3-1.19,25.43-5.65-3.26,1.19-25.43-5.64-3.26.27-6.42Z"/><path class="cls-2" d="M153.37,160.58l-5.64-3.26.5-10.84-8.67-5-.51,10.84-5.64-3.26,1-22.28c.32-6,4.73-8.14,10.51-4.8a22.22,22.22,0,0,1,9.41,17.52Zm-4.91-19.79c0-.43.14-3.79.14-4.85a10.05,10.05,0,0,0-4-7.69c-2.16-1.24-3.95-.63-4.5,2.44-.09.42-.27,4.56-.32,5.06Z"/><path class="cls-2" d="M158.88,163.76l1.52-31.82,5.6,3.23L164.53,167Z"/><path class="cls-2" d="M185.62,179.2l-15.51-9,1.51-31.82,5.65,3.26L176,167.09l9.87,5.69Z"/></g></svg>