<svg xmlns="http://www.w3.org/2000/svg" viewBox="0 0 232.31 223.59"><defs><style>.cls-1{fill:#fff;stroke:#fff;stroke-linecap:round;stroke-linejoin:round;}.cls-2{fill:#1d0f20;}</style></defs><title>hacktogether</title><g id="Letters"><polygon class="cls-1" points="0.5 123.05 0.5 212 19.77 223.09 19.77 134.13 0.5 123.05"/><polygon class="cls-1" points="0.5 123.05 212.58 0.5 231.81 11.63 19.77 134.06 0.5 123.05"/><polygon class="cls-1" points="231.81 11.63 231.81 100.66 19.77 223.09 19.77 134.06 231.81 11.63"/><path class="cls-2" d="M52.8,141.73c4.54-2.52,10-4.88,10,4.07a16,16,0,0,1-4.63,11.43l4.36,11.52-6,3.47-4-10.75-4.73,2.73-.64,13.46-5.65,3.26L43,147.4l9.78-5.65ZM48,158l5.14-3c1.47-.84,4.13-3,4.13-6.09,0-2.65-2.66-2.33-4.13-1.48l-4.82,2.78Z"/><path class="cls-2" d="M66.48,166.47,68,132.92l15.38-8.87-.32,6.7-9.73,5.62L73.05,143l9.68-5.59-.32,6.81-9.68,5.59-.33,6.65,9.73-5.62-.32,6.76Z"/><path class="cls-2" d="M106.89,117l-6.29,3.64c-4.64,2.67-8.4,9.35-8.4,14.76,0,5.14,3.54,7.6,7.94,5.06l5-2.89.51-7.93-5.28,3v-5.46l9.41-5.43-.87,19.53a74.06,74.06,0,0,1-8.31,5.43c-7.8,4.45-14,.85-14-8.1s6.28-20.12,14-24.6l6.61-3.81Z"/><path class="cls-2" d="M113.45,139.35,115,105.78l5.6-3.23-1.47,33.54Z"/><path class="cls-2" d="M143,95.93l-9.82,5.67a5,5,0,0,0-2,3.87c0,3.18,3.21,2,5.87,1.7,2.39-.22,5.14,1.27,5.14,5.88,0,.63-.22,9.83-7,13.72l-11,6.36.28-6.51L134,121.1a4.8,4.8,0,0,0,2.25-4.26c0-2.18-1.56-2.34-5.78-1.59-2.06.34-5.23-.58-5.23-5.67,0-5.73,3.35-11.69,6.29-13.38l11.7-6.76Z"/><path class="cls-2" d="M163.79,77.59l-.28,6.73-5.28,3.05L157,114.18l-5.64,3.27,1.19-26.82-5.65,3.26.28-6.73Z"/><path class="cls-2" d="M167,108.43l1.47-33.54L183.85,66l-.32,6.7-9.73,5.62L173.57,85l9.69-5.59-.33,6.81-9.68,5.59-.32,6.65,9.73-5.62-.32,6.76Z"/><path class="cls-2" d="M199.31,57.14c4.54-2.52,10-4.88,10,4.08a15.93,15.93,0,0,1-4.64,11.42L209,84.16l-6,3.47-4-10.75-4.73,2.73-.64,13.46L188,96.33l1.52-33.52,9.77-5.65Zm-4.82,16.29,5.14-3c1.47-.84,4.13-3,4.13-6.09,0-2.65-2.66-2.33-4.13-1.48l-4.82,2.78Z"/></g></svg>