<svg xmlns="http://www.w3.org/2000/svg" viewBox="0 0 251.64 234.73"><defs><style>.cls-1{fill:#1d0f20;}.cls-2{fill:#fff;}</style></defs><title>hacktogether</title><g id="Letters"><polygon class="cls-1" points="0.5 134.19 0.5 223.15 19.77 234.23 19.77 145.27 0.5 134.19"/><path class="cls-2" d="M19.77,234.73a.47.47,0,0,1-.25-.07L.25,223.58a.52.52,0,0,1-.25-.43v-89a.47.47,0,0,1,.25-.43.52.52,0,0,1,.5,0L20,144.84a.48.48,0,0,1,.25.43v89a.48.48,0,0,1-.25.43A.43.43,0,0,1,19.77,234.73ZM1,222.86l18.27,10.5v-87.8L1,135.05Z"/><polygon class="cls-1" points="0.5 134.19 231.91 0.5 251.14 11.63 19.77 145.2 0.5 134.19"/><path class="cls-2" d="M19.77,145.7a.47.47,0,0,1-.25-.07l-19.27-11a.5.5,0,0,1-.25-.43.47.47,0,0,1,.25-.43L231.66.07a.5.5,0,0,1,.5,0L251.39,11.2a.5.5,0,0,1,.25.43.49.49,0,0,1-.25.43L20,145.63A.43.43,0,0,1,19.77,145.7ZM1.5,134.19l18.27,10.43,230.37-133L231.91,1.08Z"/><polygon class="cls-1" points="251.14 11.63 251.14 100.66 19.77 234.23 19.77 145.2 251.14 11.63"/><path class="cls-2" d="M19.77,234.73a.47.47,0,0,1-.25-.07.5.5,0,0,1-.25-.43v-89a.49.49,0,0,1,.25-.43L250.89,11.2a.5.5,0,0,1,.5,0,.5.5,0,0,1,.25.43v89a.5.5,0,0,1-.25.43L20,234.66A.43.43,0,0,1,19.77,234.73Zm.5-89.24v87.87l230.37-133V12.5Z"/><path class="cls-2" d="M64.46,156.4l-9.82,5.67a5,5,0,0,0-2,3.87c0,3.18,3.21,2,5.87,1.69,2.39-.21,5.14,1.27,5.14,5.89,0,.63-.23,9.83-7,13.72l-11,6.36.27-6.52,9.55-5.51a4.82,4.82,0,0,0,2.25-4.26c0-2.18-1.56-2.34-5.78-1.59-2.07.34-5.24-.59-5.24-5.67,0-5.73,3.36-11.69,6.29-13.39l11.71-6.75Z"/><path class="cls-2" d="M85.88,170.36,82,172.62c-7.8,4.5-14.09.87-14.09-8.08s6.29-20.11,14-24.59l5.37-3.1L87,143.58l-5.09,2.94c-4.64,2.68-8.4,9.35-8.4,14.76S77.3,168.8,82,166.1l4.18-2.41Z"/><path class="cls-2" d="M112,122.58l-1.52,33.57-5.64,3.26.59-13.38-8.26,4.77-.55,13.36L91,167.42l1.47-33.55,5.65-3.26L97.51,144l8.22-4.74.59-13.38Z"/><path class="cls-2" d="M116.15,152.89l1.47-33.54L133,110.47l-.32,6.7-9.73,5.62-.23,6.65,9.69-5.59-.32,6.81-9.69,5.59-.32,6.65,9.73-5.62-.32,6.76Z"/><path class="cls-2" d="M160.1,111.3c0,9-6.28,19.84-14.09,24.35l-8.9,5.14,1.51-33.57,7.44-4.29C153.82,98.45,160.1,102.29,160.1,111.3Zm-5.64,3.26c0-5.41-2.39-8.53-7-5.86l-3.54,2L143,130.86l3-1.73C150.7,126.43,154.46,119.91,154.46,114.56Z"/><path class="cls-2" d="M173.57,114.28a9.82,9.82,0,0,0,4.59-7.36l1-23.08,5.65-3.26-1,23.47A21.93,21.93,0,0,1,173.29,121c-5.32,3.07-9.45.05-9.5-6l1-22.84,5.65-3.26-1,23C169.48,114.47,171.32,115.58,173.57,114.28Z"/><path class="cls-2" d="M204.4,101.94l-15.51,9,1.51-33.57,5.65-3.26-1.24,26.84,9.86-5.7Z"/><path class="cls-2" d="M208.34,99.66l1.47-33.54,15.38-8.88-.32,6.7-9.73,5.62-.23,6.65,9.68-5.59-.32,6.81L214.59,83l-.32,6.65L224,84.05l-.33,6.76Z"/></g></svg>