<svg xmlns="http://www.w3.org/2000/svg" viewBox="0 0 309.46 268.12"><defs><style>.cls-1{fill:#1d0f20;}.cls-2{fill:#fff;}</style></defs><title>hacktogether</title><g id="Letters"><polygon class="cls-1" points="0.5 167.58 0.5 256.54 19.77 267.62 19.77 178.67 0.5 167.58"/><path class="cls-2" d="M19.77,268.12a.57.57,0,0,1-.25-.06L.25,257a.5.5,0,0,1-.25-.43v-89a.48.48,0,0,1,.25-.43.5.5,0,0,1,.5,0L20,178.23a.5.5,0,0,1,.25.44v89a.5.5,0,0,1-.25.44A.51.51,0,0,1,19.77,268.12ZM1,256.25l18.27,10.51V179L1,168.45Z"/><polygon class="cls-1" points="0.5 167.66 289.74 0.5 308.96 11.63 19.77 178.67 0.5 167.66"/><path class="cls-2" d="M19.77,179.17a.59.59,0,0,1-.25-.07l-19.27-11a.5.5,0,0,1,0-.87L289.49.07a.5.5,0,0,1,.5,0L309.22,11.2a.5.5,0,0,1,.24.43.48.48,0,0,1-.25.43L20,179.1A.52.52,0,0,1,19.77,179.17ZM1.5,167.65l18.27,10.44L308,11.63,289.74,1.08Z"/><polygon class="cls-1" points="308.96 11.63 308.96 100.66 19.77 267.62 19.77 178.59 308.96 11.63"/><path class="cls-2" d="M19.77,268.12a.57.57,0,0,1-.25-.06.52.52,0,0,1-.25-.44v-89a.5.5,0,0,1,.25-.43l289.19-167a.5.5,0,0,1,.5,0,.48.48,0,0,1,.25.43v89a.5.5,0,0,1-.25.43L20,268.06A.51.51,0,0,1,19.77,268.12Zm.5-89.24v87.88L308.46,100.37V12.5Z"/><path class="cls-2" d="M53.84,221.76l1.42-33.52L61,185l-1.06,24.51,8-18.07,7.94,8.87,1.29-24.64,5.69-3.29L81.14,206l-6.56,3.79-6.93-9L59.8,218.31Z"/><path class="cls-2" d="M110.2,173.42c-.42,9.09-4.64,19.53-12.81,24.25-6.7,3.44-11.47-.21-11.47-9.86,0-.58,0-1.22,0-1.88.51-9.14,4.73-19.16,13-23.9,5.87-3.39,11.33-.4,11.33,10Zm-6,3.1v-.85c0-3.65-.41-8.66-5.59-6.46-4.69,2.7-6.25,8.27-6.48,13.54,0,.56,0,1.09,0,1.62,0,4.45,1.56,8.47,5.64,6.17C102.39,187.84,104.14,181.74,104.18,176.52Z"/><path class="cls-2" d="M125.25,147.88c4.54-2.52,10-4.88,10,4.08a16,16,0,0,1-4.63,11.42L135,174.91l-6,3.47-4-10.76-4.72,2.73-.65,13.46-5.64,3.26,1.51-33.52,9.78-5.64Zm-4.82,16.3,5.14-3c1.47-.85,4.13-3,4.13-6.09,0-2.66-2.66-2.34-4.13-1.49l-4.82,2.79Z"/><path class="cls-2" d="M138.92,172.63l1.47-33.54,5.64-3.26-.68,15.39,11-21.33,5.27-3L150.49,148l10.74,11.71-6.38,3.69L145.35,153l-.78,16.35Z"/><path class="cls-2" d="M183.61,120.49l-9.82,5.67a5,5,0,0,0-2,3.87c0,3.18,3.21,2,5.88,1.69,2.38-.21,5.14,1.28,5.14,5.89,0,.63-.23,9.83-7,13.72l-11,6.36.28-6.51,9.55-5.52a4.82,4.82,0,0,0,2.25-4.26c0-2.18-1.56-2.34-5.79-1.59-2.06.34-5.23-.58-5.23-5.67,0-5.73,3.35-11.69,6.29-13.38l11.7-6.76Z"/><path class="cls-2" d="M208.56,99.72l-1.51,33.58-5.65,3.26.6-13.38L193.74,128l-.55,13.35-5.65,3.26L189,111l5.64-3.26-.59,13.38,8.21-4.75.6-13.38Z"/><path class="cls-2" d="M236,100.82c-.41,9.09-4.64,19.53-12.81,24.24-6.7,3.45-11.47-.21-11.47-9.85,0-.58,0-1.22.05-1.88.5-9.14,4.72-19.16,12.94-23.91C230.53,86,236,89,236,99.41Zm-6,3.1v-.85c0-3.66-.42-8.66-5.6-6.46-4.68,2.7-6.24,8.26-6.47,13.54-.05.55-.05,1.08-.05,1.61,0,4.45,1.56,8.48,5.65,6.18C228.15,115.23,229.89,109.14,229.94,103.92Z"/><path class="cls-2" d="M261,79.5c0,8.22-5.51,12.72-10,15.34l-5,2.89-.64,13.46-5.64,3.26,1.51-33.57L251,75.24C255.52,72.72,261,70.6,261,79.5ZM246.2,91.56l5.14-3c1.47-.85,4.14-3,4.14-6.09,0-2.65-2.67-2.33-4.14-1.49l-4.81,2.79Z"/><path class="cls-2" d="M283.5,62.82l-9.82,5.67a5,5,0,0,0-2,3.87c0,3.18,3.21,2,5.87,1.7,2.39-.22,5.14,1.27,5.14,5.88,0,.63-.23,9.83-7,13.72l-11,6.36.28-6.51L274.5,88a4.82,4.82,0,0,0,2.25-4.26c0-2.18-1.56-2.33-5.78-1.59-2.07.34-5.23-.58-5.23-5.67,0-5.72,3.35-11.69,6.28-13.38l11.71-6.76Z"/></g></svg>