<?xml version="1.0" encoding="UTF-8" standalone="no"?>
<!-- Created with Inkscape (http://www.inkscape.org/) -->

<svg
   xmlns:dc="http://purl.org/dc/elements/1.1/"
   xmlns:cc="http://creativecommons.org/ns#"
   xmlns:rdf="http://www.w3.org/1999/02/22-rdf-syntax-ns#"
   xmlns:svg="http://www.w3.org/2000/svg"
   xmlns="http://www.w3.org/2000/svg"
   xmlns:sodipodi="http://sodipodi.sourceforge.net/DTD/sodipodi-0.dtd"
   xmlns:inkscape="http://www.inkscape.org/namespaces/inkscape"
   id="svg4174"
   version="1.1"
   inkscape:version="0.91 r13725"
   xml:space="preserve"
   width="1201.8676"
   height="1201.8688"
   viewBox="0 0 1201.8676 1201.8688"
   sodipodi:docname="MMCLogo1.svg"><metadata
     id="metadata4180"><rdf:RDF><cc:Work
         rdf:about=""><dc:format>image/svg+xml</dc:format><dc:type
           rdf:resource="http://purl.org/dc/dcmitype/StillImage" /><dc:title></dc:title></cc:Work></rdf:RDF></metadata><defs
     id="defs4178"><clipPath
       clipPathUnits="userSpaceOnUse"
       id="clipPath4188"><path
         d="m 0,1080 1080,0 L 1080,0 0,0 0,1080 Z"
         id="path4190"
         inkscape:connector-curvature="0" /></clipPath></defs><sodipodi:namedview
     pagecolor="#ffffff"
     bordercolor="#666666"
     borderopacity="1"
     objecttolerance="10"
     gridtolerance="10"
     guidetolerance="10"
     inkscape:pageopacity="0"
     inkscape:pageshadow="2"
     inkscape:window-width="1436"
     inkscape:window-height="855"
     id="namedview4176"
     showgrid="false"
     fit-margin-top="0"
     fit-margin-left="0"
     fit-margin-right="0"
     fit-margin-bottom="0"
     inkscape:zoom="0.4837037"
     inkscape:cx="600.93375"
     inkscape:cy="600.93463"
     inkscape:window-x="4"
     inkscape:window-y="0"
     inkscape:window-maximized="1"
     inkscape:current-layer="g4182" /><g
     id="g4182"
     inkscape:groupmode="layer"
     inkscape:label="MMC Logo1"
     transform="matrix(1.25,0,0,-1.25,-74.06625,1275.9341)"><g
       id="g4184"><g
         id="g4186"
         clip-path="url(#clipPath4188)"><g
           id="g4192"
           transform="translate(539.8717,553.4337)"><path
             d="m 0,0 43.569,-43.569 c 24.018,-24.018 24.065,-62.817 0.047,-86.835 -24.018,-24.018 -62.911,-23.875 -86.929,0.143 -24.018,24.018 -24.113,63.054 -0.095,87.072 l 43.048,43.048 0.113,-0.123 0,0.001 m 0,0 0.001,-0.002 L 0,0 m 16.119,17.325 170.29,183.014 0.015,-0.037 160.098,-406.592 25.836,10.203 -164.93,418.861 -2.356,5.984 -2.495,6.337 -2.527,6.417 -2.274,5.775 -18.54,-20.252 L -0.223,34.191 -178.98,227.035 l -18.539,20.252 -2.274,-5.775 -2.527,-6.417 -2.495,-6.337 -2.356,-5.984 -164.93,-418.861 25.836,-10.203 160.098,406.592 0.015,0.037 169.846,-183.274 -44.393,-44.394 c -33.691,-33.69 -33.558,-88.446 0.133,-122.137 33.691,-33.69 88.247,-33.89 121.938,-0.2 33.69,33.691 33.623,88.114 -0.067,121.805 L 16.119,17.325"
             style="fill:#000000;fill-opacity:1;fill-rule:nonzero;stroke:none"
             id="path4194"
             inkscape:connector-curvature="0" /></g><g
           id="g4196"
           transform="translate(540,995.1303)"><path
             d="m 0,0 c -61.448,0 -121.051,-12.032 -177.153,-35.761 -54.195,-22.923 -102.87,-55.741 -144.673,-97.544 -41.802,-41.802 -74.62,-90.477 -97.543,-144.672 -23.729,-56.102 -35.761,-115.705 -35.761,-177.153 0,-61.448 12.032,-121.051 35.761,-177.153 22.923,-54.196 55.741,-102.871 97.543,-144.673 41.803,-41.802 90.478,-74.621 144.673,-97.544 56.102,-23.729 115.705,-35.761 177.153,-35.761 61.448,0 121.051,12.032 177.154,35.761 54.194,22.923 102.869,55.742 144.672,97.544 41.802,41.802 74.62,90.477 97.543,144.673 23.73,56.102 35.761,115.705 35.761,177.153 0,61.448 -12.031,121.051 -35.761,177.153 -22.923,54.195 -55.741,102.87 -97.543,144.672 -41.803,41.803 -90.478,74.621 -144.672,97.544 C 121.051,-12.032 61.448,0 0,0 m 0,-935.878 c -64.895,0 -127.855,12.712 -187.132,37.785 -57.249,24.214 -108.661,58.876 -152.808,103.023 -44.147,44.147 -78.809,95.559 -103.023,152.807 -25.072,59.278 -37.784,122.238 -37.784,187.133 0,64.895 12.712,127.855 37.784,187.132 24.214,57.249 58.876,108.661 103.023,152.808 44.147,44.146 95.559,78.808 152.808,103.023 59.277,25.072 122.237,37.784 187.132,37.784 64.895,0 127.856,-12.712 187.132,-37.784 57.249,-24.215 108.661,-58.877 152.808,-103.023 44.147,-44.147 78.809,-95.559 103.022,-152.808 25.072,-59.277 37.785,-122.237 37.785,-187.132 0,-64.895 -12.713,-127.855 -37.785,-187.133 C 418.749,-699.511 384.087,-750.923 339.94,-795.07 295.793,-839.217 244.381,-873.879 187.132,-898.093 127.856,-923.166 64.895,-935.878 0,-935.878"
             style="fill:#000000;fill-opacity:1;fill-rule:nonzero;stroke:none"
             id="path4198"
             inkscape:connector-curvature="0" /></g></g></g></g></svg>