<?xml version="1.0" encoding="UTF-8" standalone="no"?>
<!-- Created with Inkscape (http://www.inkscape.org/) -->

<svg
   xmlns:dc="http://purl.org/dc/elements/1.1/"
   xmlns:cc="http://creativecommons.org/ns#"
   xmlns:rdf="http://www.w3.org/1999/02/22-rdf-syntax-ns#"
   xmlns:svg="http://www.w3.org/2000/svg"
   xmlns="http://www.w3.org/2000/svg"
   xmlns:sodipodi="http://sodipodi.sourceforge.net/DTD/sodipodi-0.dtd"
   xmlns:inkscape="http://www.inkscape.org/namespaces/inkscape"
   width="315.36237mm"
   height="321.73184mm"
   viewBox="0 0 1117.4257 1139.9947"
   id="svg2"
   version="1.1"
   inkscape:version="0.91 r13725"
   sodipodi:docname="MMLogo2.svg">
  <defs
     id="defs4">
    <clipPath
       id="clipPath4169"
       clipPathUnits="userSpaceOnUse">
      <path
         inkscape:connector-curvature="0"
         id="path4171"
         d="m 0,1080 1080,0 L 1080,0 0,0 0,1080 Z" />
    </clipPath>
  </defs>
  <sodipodi:namedview
     id="base"
     pagecolor="#ffffff"
     bordercolor="#666666"
     borderopacity="1.0"
     inkscape:pageopacity="0.0"
     inkscape:pageshadow="2"
     inkscape:zoom="0.35"
     inkscape:cx="920.8557"
     inkscape:cy="444.2831"
     inkscape:document-units="px"
     inkscape:current-layer="layer1"
     showgrid="false"
     fit-margin-top="0"
     fit-margin-left="0"
     fit-margin-right="0"
     fit-margin-bottom="0"
     inkscape:window-width="1436"
     inkscape:window-height="855"
     inkscape:window-x="4"
     inkscape:window-y="0"
     inkscape:window-maximized="1" />
  <metadata
     id="metadata7">
    <rdf:RDF>
      <cc:Work
         rdf:about="">
        <dc:format>image/svg+xml</dc:format>
        <dc:type
           rdf:resource="http://purl.org/dc/dcmitype/StillImage" />
        <dc:title></dc:title>
      </cc:Work>
    </rdf:RDF>
  </metadata>
  <g
     inkscape:label="Layer 1"
     inkscape:groupmode="layer"
     id="layer1"
     transform="translate(1227.2843,163.34945)">
    <g
       transform="matrix(1.25,0,0,-1.25,-1343.5714,1081.6478)"
       inkscape:label="MMC Logo2"
       id="g4163">
      <g
         id="g4165">
        <g
           clip-path="url(#clipPath4169)"
           id="g4167">
          <g
             transform="translate(558.071,695.9942)"
             id="g4173">
            <path
               inkscape:connector-curvature="0"
               id="path4175"
               style="fill:#000000;fill-opacity:1;fill-rule:nonzero;stroke:none"
               d="m 0,0 27.65,-27.65 c 15.243,-15.243 15.273,-39.866 0.03,-55.108 -15.242,-15.243 -39.925,-15.153 -55.168,0.09 -15.243,15.243 -15.303,40.016 -0.06,55.259 l 27.319,27.319 0.072,-0.077 0,0 m 0,0 0.001,-0.001 L 0,0 m 10.229,10.995 108.072,116.147 0.01,-0.024 101.603,-258.036 16.396,6.475 -104.669,265.823 -1.496,3.797 -1.583,4.022 -1.604,4.073 -1.443,3.664 -11.766,-12.852 -113.89,-122.385 -113.445,122.385 -11.766,12.852 -1.443,-3.664 -1.604,-4.073 -1.584,-4.022 -1.495,-3.797 -104.669,-265.823 16.396,-6.475 101.603,258.036 0.01,0.024 107.79,-116.312 -28.174,-28.174 c -21.381,-21.381 -21.296,-56.131 0.085,-77.512 21.381,-21.381 56.004,-21.508 77.385,-0.127 21.381,21.381 21.339,55.92 -0.042,77.301 L 10.229,10.995" />
          </g>
          <g
             transform="translate(558.0679,975.9498)"
             id="g4177">
            <path
               inkscape:connector-curvature="0"
               id="path4179"
               style="fill:#000000;fill-opacity:1;fill-rule:nonzero;stroke:none"
               d="m 0,0 c -158.223,0 -286.946,-128.723 -286.946,-286.945 0,-158.222 128.723,-286.945 286.946,-286.945 158.222,0 286.944,128.723 286.944,286.945 C 286.944,-128.723 158.222,0 0,0 m 0,-593.939 c -82.001,0 -159.095,31.933 -217.078,89.917 -57.984,57.983 -89.916,135.076 -89.916,217.077 0,82.001 31.932,159.093 89.916,217.077 57.984,57.983 135.077,89.916 217.078,89.916 82.001,0 159.093,-31.933 217.077,-89.916 57.983,-57.984 89.917,-135.076 89.917,-217.077 0,-82.001 -31.934,-159.094 -89.917,-217.077 C 159.093,-562.006 82.001,-593.939 0,-593.939" />
          </g>
          <g
             transform="translate(177.6027,203.4017)"
             id="g4181">
            <path
               inkscape:connector-curvature="0"
               id="path4183"
               style="fill:#000000;fill-opacity:1;fill-rule:nonzero;stroke:none"
               d="m 0,0 0,67.956 -26.459,-50.605 -10.845,0 -26.459,50.605 0,-67.956 -19.953,0 0,102.657 21.399,0 30.364,-58.414 30.653,58.414 21.254,0 L 19.954,0 0,0 Z" />
          </g>
          <path
             inkscape:connector-curvature="0"
             id="path4185"
             style="fill:#000000;fill-opacity:1;fill-rule:nonzero;stroke:none"
             d="m 222.569,306.058 19.953,0 0,-102.657 -19.953,0 0,102.657 z" />
          <g
             transform="translate(287.4876,269.1892)"
             id="g4187">
            <path
               inkscape:connector-curvature="0"
               id="path4189"
               style="fill:#000000;fill-opacity:1;fill-rule:nonzero;stroke:none"
               d="m 0,0 0,-65.787 -19.953,0 0,102.656 15.471,0 53.497,-67.377 0,67.234 19.953,0 0,-102.513 -16.194,0 L 0,0 Z" />
          </g>
          <g
             transform="translate(424.8447,220.3183)"
             id="g4191">
            <path
               inkscape:connector-curvature="0"
               id="path4193"
               style="fill:#000000;fill-opacity:1;fill-rule:nonzero;stroke:none"
               d="m 0,0 c 4.722,0 8.698,0.963 11.929,2.892 3.228,1.928 5.831,4.433 7.808,7.518 1.974,3.085 3.372,6.627 4.192,10.629 0.818,3.998 1.23,8.117 1.23,12.361 l 0,52.34 19.808,0 0,-52.34 c 0,-7.037 -0.844,-13.641 -2.53,-19.808 C 40.749,7.421 38.099,2.025 34.485,-2.603 30.87,-7.23 26.218,-10.893 20.531,-13.59 14.843,-16.292 8.048,-17.64 0.144,-17.64 c -8.193,0 -15.158,1.421 -20.893,4.265 -5.735,2.843 -10.387,6.602 -13.951,11.279 -3.569,4.674 -6.146,10.096 -7.737,16.266 -1.59,6.168 -2.385,12.579 -2.385,19.23 l 0,52.34 19.953,0 0,-52.34 c 0,-4.338 0.409,-8.509 1.229,-12.507 0.818,-4.002 2.216,-7.544 4.193,-10.627 1.974,-3.087 4.555,-5.567 7.735,-7.447 C -8.531,0.94 -4.626,0 0,0" />
          </g>
          <g
             transform="translate(570.2993,288.5646)"
             id="g4195">
            <path
               inkscape:connector-curvature="0"
               id="path4197"
               style="fill:#000000;fill-opacity:1;fill-rule:nonzero;stroke:none"
               d="m 0,0 -32.821,0 0,-85.163 -19.808,0 0,85.163 -32.822,0 0,17.494 L 0,17.494 0,0 Z" />
          </g>
          <g
             transform="translate(657.9183,220.897)"
             id="g4199">
            <path
               inkscape:connector-curvature="0"
               id="path4201"
               style="fill:#000000;fill-opacity:1;fill-rule:nonzero;stroke:none"
               d="m 0,0 0,-17.495 -71.281,0 0,102.656 69.981,0 0,-17.493 -50.028,0 0,-24.725 43.231,0 0,-16.195 -43.231,0 L -51.328,0 0,0 Z" />
          </g>
          <g
             transform="translate(760.865,203.4017)"
             id="g4203">
            <path
               inkscape:connector-curvature="0"
               id="path4205"
               style="fill:#000000;fill-opacity:1;fill-rule:nonzero;stroke:none"
               d="m 0,0 0,67.956 -26.459,-50.605 -10.845,0 -26.459,50.605 0,-67.956 -19.953,0 0,102.657 21.399,0 30.364,-58.414 30.653,58.414 21.254,0 L 19.954,0 0,0 Z" />
          </g>
          <g
             transform="translate(877.1121,220.897)"
             id="g4207">
            <path
               inkscape:connector-curvature="0"
               id="path4209"
               style="fill:#000000;fill-opacity:1;fill-rule:nonzero;stroke:none"
               d="m 0,0 0,-17.495 -71.281,0 0,102.656 69.981,0 0,-17.493 -50.028,0 0,-24.725 43.231,0 0,-16.195 -43.231,0 L -51.328,0 0,0 Z" />
          </g>
          <g
             transform="translate(916.296,269.1892)"
             id="g4211">
            <path
               inkscape:connector-curvature="0"
               id="path4213"
               style="fill:#000000;fill-opacity:1;fill-rule:nonzero;stroke:none"
               d="m 0,0 0,-65.787 -19.953,0 0,102.656 15.471,0 53.497,-67.377 0,67.234 19.953,0 0,-102.513 -16.194,0 L 0,0 Z" />
          </g>
          <g
             transform="translate(93.0297,122.9521)"
             id="g4215">
            <path
               inkscape:connector-curvature="0"
               id="path4217"
               style="fill:#000000;fill-opacity:1;fill-rule:nonzero;stroke:none"
               d="m 0,0 c 0,4.539 0.799,9.062 2.394,13.569 1.598,4.505 3.921,8.532 6.972,12.079 3.049,3.548 6.811,6.439 11.28,8.673 4.47,2.236 9.542,3.354 15.219,3.354 6.739,0 12.504,-1.527 17.293,-4.577 4.789,-3.051 8.318,-7.024 10.589,-11.919 l -5.853,-3.618 c -1.207,2.483 -2.679,4.576 -4.416,6.278 -1.739,1.703 -3.603,3.087 -5.588,4.15 -1.987,1.064 -4.043,1.826 -6.172,2.288 -2.129,0.461 -4.222,0.692 -6.279,0.692 -4.541,0 -8.551,-0.922 -12.026,-2.767 -3.477,-1.845 -6.404,-4.256 -8.78,-7.236 C 12.255,17.986 10.465,14.633 9.26,10.909 8.052,7.185 7.45,3.406 7.45,-0.426 c 0,-4.186 0.727,-8.193 2.181,-12.025 1.454,-3.832 3.441,-7.22 5.96,-10.162 2.518,-2.945 5.498,-5.288 8.939,-7.025 3.441,-1.74 7.185,-2.608 11.228,-2.608 2.128,0 4.31,0.266 6.545,0.799 2.236,0.531 4.399,1.383 6.492,2.554 2.092,1.171 4.025,2.623 5.801,4.363 1.772,1.737 3.261,3.847 4.469,6.333 l 6.172,-3.193 c -1.207,-2.839 -2.91,-5.34 -5.109,-7.503 -2.199,-2.166 -4.647,-3.99 -7.343,-5.481 -2.697,-1.491 -5.552,-2.626 -8.566,-3.405 -3.016,-0.781 -5.978,-1.171 -8.887,-1.171 -5.179,0 -9.933,1.134 -14.26,3.405 -4.328,2.269 -8.053,5.231 -11.175,8.887 -3.123,3.652 -5.552,7.802 -7.29,12.451 C 0.869,-9.561 0,-4.825 0,0" />
          </g>
          <g
             transform="translate(220.8413,119.1216)"
             id="g4219">
            <path
               inkscape:connector-curvature="0"
               id="path4221"
               style="fill:#000000;fill-opacity:1;fill-rule:nonzero;stroke:none"
               d="m 0,0 24.69,0 c 2.198,0 4.204,0.479 6.013,1.436 1.809,0.958 3.353,2.252 4.629,3.885 1.278,1.631 2.27,3.475 2.98,5.535 0.709,2.056 1.065,4.22 1.065,6.491 0,2.269 -0.409,4.451 -1.224,6.544 -0.817,2.093 -1.916,3.92 -3.3,5.481 -1.383,1.561 -3.016,2.802 -4.895,3.724 -1.88,0.922 -3.849,1.384 -5.906,1.384 L 0,34.48 0,0 Z m -7.45,-34.48 0,75.559 31.928,0 c 3.262,0 6.26,-0.692 8.992,-2.076 2.731,-1.383 5.09,-3.192 7.077,-5.428 1.985,-2.233 3.529,-4.772 4.629,-7.608 1.1,-2.838 1.651,-5.713 1.651,-8.62 0,-2.767 -0.409,-5.411 -1.225,-7.929 C 44.785,6.899 43.65,4.629 42.198,2.607 40.742,0.586 38.986,-1.118 36.93,-2.501 34.87,-3.884 32.565,-4.825 30.011,-5.321 l 18.518,-29.159 -8.408,0 -17.772,27.881 -22.349,0 0,-27.881 -7.45,0 z" />
          </g>
          <g
             transform="translate(376.006,91.2388)"
             id="g4223">
            <path
               inkscape:connector-curvature="0"
               id="path4225"
               style="fill:#000000;fill-opacity:1;fill-rule:nonzero;stroke:none"
               d="m 0,0 0,-6.598 -50.764,0 0,75.56 49.806,0 0,-6.599 -42.356,0 0,-27.244 36.929,0 0,-6.278 -36.929,0 L -43.314,0 0,0 Z" />
          </g>
          <g
             transform="translate(474.1274,114.1197)"
             id="g4227">
            <path
               inkscape:connector-curvature="0"
               id="path4229"
               style="fill:#000000;fill-opacity:1;fill-rule:nonzero;stroke:none"
               d="M 0,0 -15.218,37.354 -30.65,0 0,0 Z m -18.305,46.081 6.278,0 31.395,-75.56 -7.875,0 -9.791,23.625 -33.949,0 -9.684,-23.625 -7.982,0 31.608,75.56 z" />
          </g>
          <g
             transform="translate(592.8944,153.602)"
             id="g4231">
            <path
               inkscape:connector-curvature="0"
               id="path4233"
               style="fill:#000000;fill-opacity:1;fill-rule:nonzero;stroke:none"
               d="m 0,0 -26.924,0 0,-68.961 -7.45,0 0,68.961 -26.925,0 0,6.599 L 0,6.599 0,0 Z" />
          </g>
          <path
             inkscape:connector-curvature="0"
             id="path4235"
             style="fill:#000000;fill-opacity:1;fill-rule:nonzero;stroke:none"
             d="m 646.529,160.201 7.45,0 0,-75.56 -7.45,0 0,75.56 z" />
          <g
             transform="translate(714.956,160.201)"
             id="g4237">
            <path
               inkscape:connector-curvature="0"
               id="path4239"
               style="fill:#000000;fill-opacity:1;fill-rule:nonzero;stroke:none"
               d="M 0,0 27.032,-66.302 53.957,0 l 7.769,0 -31.502,-75.56 -6.491,0 L -7.769,0 0,0 Z" />
          </g>
          <g
             transform="translate(880.6554,91.2388)"
             id="g4241">
            <path
               inkscape:connector-curvature="0"
               id="path4243"
               style="fill:#000000;fill-opacity:1;fill-rule:nonzero;stroke:none"
               d="m 0,0 0,-6.598 -50.764,0 0,75.56 49.806,0 0,-6.599 -42.356,0 0,-27.244 36.929,0 0,-6.278 -36.929,0 L -43.314,0 0,0 Z" />
          </g>
          <g
             transform="translate(979.6273,146.046)"
             id="g4245">
            <path
               inkscape:connector-curvature="0"
               id="path4247"
               style="fill:#000000;fill-opacity:1;fill-rule:nonzero;stroke:none"
               d="m 0,0 c -2.128,2.411 -4.967,4.364 -8.514,5.854 -3.549,1.489 -7.593,2.234 -12.132,2.234 -6.671,0 -11.531,-1.261 -14.58,-3.777 -3.051,-2.519 -4.576,-5.943 -4.576,-10.27 0,-2.272 0.407,-4.134 1.223,-5.587 0.816,-1.456 2.075,-2.714 3.779,-3.779 1.702,-1.063 3.884,-1.987 6.545,-2.767 2.66,-0.782 5.8,-1.561 9.418,-2.341 4.044,-0.851 7.679,-1.809 10.908,-2.874 3.227,-1.063 5.976,-2.393 8.248,-3.99 2.27,-1.597 4.008,-3.531 5.214,-5.801 1.206,-2.271 1.81,-5.108 1.81,-8.513 0,-3.477 -0.675,-6.492 -2.022,-9.046 -1.349,-2.554 -3.229,-4.683 -5.64,-6.385 -2.413,-1.704 -5.287,-2.963 -8.621,-3.777 -3.336,-0.816 -6.989,-1.225 -10.961,-1.225 -11.707,0 -21.817,3.653 -30.33,10.962 l 3.724,6.065 c 1.348,-1.419 2.962,-2.767 4.842,-4.044 1.879,-1.277 3.973,-2.393 6.28,-3.352 2.304,-0.958 4.77,-1.703 7.396,-2.234 2.624,-0.533 5.391,-0.799 8.301,-0.799 6.029,0 10.73,1.08 14.101,3.246 3.368,2.163 5.055,5.445 5.055,9.844 0,2.341 -0.48,4.31 -1.438,5.907 -0.957,1.596 -2.394,2.979 -4.31,4.15 -1.915,1.171 -4.293,2.182 -7.13,3.032 -2.838,0.852 -6.138,1.704 -9.897,2.556 -3.975,0.92 -7.449,1.878 -10.429,2.872 -2.981,0.993 -5.5,2.236 -7.556,3.725 -2.059,1.49 -3.603,3.28 -4.63,5.375 -1.029,2.091 -1.542,4.664 -1.542,7.715 0,3.475 0.654,6.58 1.968,9.312 1.312,2.731 3.174,5.002 5.588,6.812 2.41,1.809 5.248,3.192 8.513,4.15 3.263,0.958 6.88,1.437 10.855,1.437 5.037,0 9.525,-0.765 13.463,-2.289 C -3.14,10.871 0.426,8.727 3.618,5.959 L 0,0 Z" />
          </g>
        </g>
      </g>
    </g>
  </g>
</svg>
