<svg width="266" height="148" viewBox="0 0 266 148" fill="none" xmlns="http://www.w3.org/2000/svg">
<path d="M98.3145 92.888L139.563 118.376L181.758 99.6278L225.151 97.8944L194.451 70L135.537 71.7562L98.3145 92.888Z" fill="white"/>
<path d="M113.14 137.067L139.563 118.376L98.3146 92.8879L64.5 136L92 132L113.14 137.067Z" fill="white"/>
<path d="M239 134.248L225.151 97.8944L181.758 99.6278L139.563 118.376L113.14 137.067L148.216 139.175L185.353 134.248L210.898 130.159L239 134.248Z" fill="white"/>
<path d="M106.293 99.5871L142.463 121.937L179.463 105.497L217.513 103.977L190.593 79.5171L138.933 81.0571L106.293 99.5871Z" fill="#65737E"/>
<path d="M119.293 138.327L142.463 121.937L106.293 99.587L77.957 133.567L101.486 135.855L119.293 138.327Z" fill="#4F5B66"/>
<path d="M229.204 132.739L217.513 103.977L179.463 105.497L142.463 121.937L119.293 138.327L150.051 140.175L182.615 135.855L205.015 132.269L229.204 132.739Z" fill="#343D46"/>
<path opacity="0.35" d="M119.575 137.198C141.392 136.928 148.812 128.437 170.474 126.34C176.209 125.784 189.392 127.328 199.415 124.928C207.011 123.109 218.739 117.662 222.992 113.775C225.228 118.126 228.016 126.878 229.725 131.462C224.857 132.061 219.983 130.671 215.086 130.405C209.626 130.109 204.199 131.214 198.841 132.301C174.002 137.342 141.02 141.387 119.575 137.198Z" fill="#112031"/>
<path d="M78.71 133.567L106.293 99.5871L138.933 81.0571L190.593 79.5171L217.513 103.977L229.204 132.739" stroke="#2A3037" stroke-width="3" stroke-miterlimit="10"/>
<path d="M106.288 99.5891L142.463 121.94L179.465 105.494L217.518 103.981" stroke="#2A3037" stroke-width="3" stroke-miterlimit="10"/>
<path d="M142.463 121.938L119.293 138.327" stroke="#2A3037" stroke-width="3" stroke-miterlimit="10"/>
<path d="M192.503 134.337L179.463 105.497" stroke="#2A3037" stroke-width="3" stroke-miterlimit="10"/>
<g style="mix-blend-mode:multiply" opacity="0.35">
<path d="M114.851 99.5891L140.639 85.2101L188.639 83.5161L206.898 99.5891L179.463 100.727L142.463 117.21L114.851 99.5891Z" fill="#A7ADBA"/>
</g>
<path d="M148.395 141.578C132.54 141.579 109.385 138.903 92.3457 135.848C72.0449 132.206 60.1182 138.798 60 138.864C60.5176 138.568 71.4228 129.046 92.875 132.895C112.465 136.409 140.164 139.414 155.196 138.37C162.605 137.855 173.122 136.029 183.292 134.265C192.836 132.608 202.705 130.896 209.856 130.304C224.614 129.085 243.046 134.692 250.756 137.054C243.271 134.761 224.487 132.105 210.104 133.294C203.086 133.874 193.284 135.575 183.806 137.221C173.561 138.998 162.967 140.836 155.405 141.362C153.294 141.51 150.937 141.578 148.395 141.578Z" fill="#ACC2E3"/>
<path d="M35.4256 105.003C35.7233 105.27 35.9104 105.586 35.9867 105.95C36.0482 106.301 36.045 106.634 35.977 106.949C35.3767 107.109 34.7586 107.334 34.1228 107.623C33.4869 107.912 32.8551 108.407 32.2273 109.106C31.0919 110.372 30.593 111.751 30.7304 113.245C30.8812 114.724 31.7307 116.158 33.2788 117.547C34.8566 118.963 36.3873 119.638 37.8709 119.572C39.3544 119.506 40.6839 118.818 41.8593 117.508C42.4738 116.823 42.9121 116.155 43.1743 115.504C43.4349 114.824 43.6123 114.177 43.7066 113.563C44.0276 113.475 44.3672 113.47 44.7256 113.55C45.0691 113.617 45.3897 113.783 45.6874 114.051C45.9405 114.278 46.1111 114.552 46.1993 114.873C46.2875 115.194 46.2732 115.584 46.1564 116.043C46.0679 116.501 45.8509 117.073 45.5056 117.757C45.1884 118.44 44.6692 119.183 43.9479 119.987C43.0663 120.969 42.1034 121.758 41.0592 122.352C40.0135 122.919 38.9198 123.254 37.7783 123.358C36.6218 123.449 35.4368 123.273 34.2231 122.829C33.0094 122.384 31.7996 121.621 30.5939 120.539C29.4329 119.497 28.5735 118.404 28.0158 117.258C27.4433 116.1 27.1331 114.948 27.0854 113.803C27.0361 112.631 27.2225 111.495 27.6445 110.395C28.08 109.281 28.7118 108.263 29.5399 107.34C30.1143 106.7 30.6948 106.173 31.2814 105.759C31.8531 105.331 32.4027 105.018 32.9301 104.82C33.4576 104.621 33.9347 104.539 34.3614 104.572C34.7881 104.606 35.1428 104.749 35.4256 105.003Z" fill="white"/>
<path d="M56.9562 106.392C56.8452 106.54 56.6798 106.746 56.4601 107.013C56.2555 107.266 56.0087 107.516 55.7196 107.763C55.1413 108.256 54.6396 108.5 54.2144 108.494C53.8045 108.476 53.3853 108.216 52.9571 107.713L42.1918 95.0905C42.2875 94.9562 42.4453 94.756 42.6651 94.4897C42.9001 94.2104 43.1469 93.9605 43.4056 93.7399C43.9534 93.2727 44.441 93.0277 44.8684 93.0049C45.2959 92.9821 45.7367 93.237 46.1909 93.7696L50.0259 98.2663L55.7325 93.3995L50.8657 87.693C50.9615 87.5587 51.1192 87.3585 51.339 87.0922C51.574 86.8129 51.8208 86.563 52.0795 86.3424C52.6273 85.8752 53.1215 85.6378 53.5618 85.6302C53.9893 85.6074 54.4301 85.8623 54.8843 86.3949L65.6301 98.9949C65.5191 99.1422 65.3538 99.3489 65.134 99.6152C64.9295 99.8685 64.6826 100.118 64.3935 100.365C63.8152 100.858 63.3135 101.102 62.8883 101.097C62.4784 101.078 62.0593 100.818 61.631 100.316L57.757 95.7735L52.0505 100.64L56.9562 106.392Z" fill="white"/>
<path d="M79.9459 83.9834L74.2886 87.61C74.5027 88.3517 74.7163 89.1295 74.9291 89.9433C75.1588 90.7463 75.3466 91.4099 75.4926 91.934C75.3674 92.1093 75.2199 92.287 75.0503 92.467C74.8974 92.6363 74.6779 92.8126 74.3917 92.9961C73.8192 93.3631 73.3029 93.5397 72.8426 93.5259C72.3716 93.4952 72.0012 93.2695 71.7313 92.8485C71.6018 92.6465 71.5029 92.4367 71.4347 92.2191C71.3725 91.9738 71.3026 91.698 71.2249 91.3914C71.0574 90.8336 70.8726 90.1563 70.6705 89.3593C70.4745 88.5347 70.2545 87.6542 70.0105 86.7177C69.7726 85.7537 69.5408 84.762 69.3149 83.7427C69.0783 82.7065 68.8465 81.7148 68.6194 80.7676C68.3983 79.7928 68.1982 78.8876 68.019 78.0522C67.8458 77.1892 67.6954 76.4542 67.5675 75.8472C67.7109 75.589 67.9552 75.2661 68.3006 74.8784C68.6628 74.4799 69.0628 74.1403 69.5006 73.8597C70.0899 73.4819 70.6881 73.2291 71.2951 73.1013C71.8913 72.9566 72.3809 73.0348 72.7638 73.3357C73.6942 74.0459 74.75 74.8776 75.9313 75.8308C77.1017 76.7672 78.2992 77.7457 79.5236 78.7663C80.7648 79.7761 81.9731 80.7714 83.1483 81.7523C84.3235 82.7332 85.3756 83.6148 86.3047 84.397C86.2551 84.6902 86.1165 84.9928 85.889 85.305C85.6891 85.6232 85.3871 85.9118 84.983 86.1708C84.3937 86.5486 83.908 86.7174 83.5259 86.6773C83.1499 86.6095 82.7488 86.3915 82.3227 86.0232L79.9459 83.9834ZM71.3211 76.755C71.4394 77.2731 71.5732 77.8525 71.7226 78.4932C71.8888 79.1231 72.0544 79.789 72.2194 80.491C72.3903 81.1654 72.5637 81.862 72.7394 82.5808C72.9044 83.2828 73.0723 83.971 73.2433 84.6453L77.6378 81.8282L71.4473 76.6741L71.3211 76.755Z" fill="white"/>
<path d="M96.3908 79.7594C95.8131 80.0349 95.271 80.083 94.7644 79.9036C94.2759 79.7156 93.8939 79.3328 93.6183 78.7552L86.6565 64.1606C86.7837 64.0556 86.9878 63.9029 87.2688 63.7023C87.5679 63.4932 87.8709 63.3154 88.1778 63.169C88.8276 62.859 89.362 62.7482 89.7808 62.8365C90.1996 62.9247 90.5597 63.2848 90.8611 63.9166L96.6604 76.0742L103.619 72.7548C103.778 72.8561 103.963 73.0116 104.174 73.2213C104.376 73.4129 104.546 73.6531 104.684 73.942C104.917 74.4293 104.98 74.8644 104.875 75.2471C104.779 75.6032 104.532 75.8759 104.135 76.0653L96.3908 79.7594Z" fill="white"/>
<path d="M115.889 71.362C115.284 71.5685 114.74 71.5531 114.257 71.316C113.794 71.0725 113.459 70.6478 113.253 70.042L108.037 54.7364C108.175 54.6469 108.396 54.519 108.698 54.3525C109.02 54.1796 109.341 54.0383 109.663 53.9286C110.345 53.6964 110.888 53.6484 111.294 53.7849C111.7 53.9213 112.015 54.3208 112.241 54.9834L116.586 67.7333L123.884 65.2462C124.03 65.3654 124.196 65.5414 124.381 65.7742C124.559 65.988 124.7 66.2464 124.804 66.5493C124.978 67.0604 124.99 67.4999 124.841 67.8677C124.704 68.2102 124.427 68.4524 124.011 68.5943L115.889 71.362Z" fill="white"/>
<path d="M136.237 65.2793C135.611 65.4121 135.072 65.332 134.622 65.0392C134.191 64.7421 133.909 64.2806 133.776 63.6545L130.85 49.8615C130.717 49.2354 130.79 48.7089 131.067 48.282C131.36 47.8315 131.82 47.5398 132.446 47.407L142.159 45.3463C142.29 45.4821 142.422 45.6689 142.554 45.9066C142.686 46.1443 142.786 46.4197 142.852 46.7328C142.96 47.2414 142.926 47.6576 142.749 47.9813C142.572 48.305 142.279 48.5105 141.868 48.5976L134.766 50.1042L135.65 54.2715L142.81 52.7524C142.942 52.8882 143.073 53.075 143.205 53.3127C143.353 53.5267 143.46 53.7903 143.526 54.1033C143.75 55.1598 143.413 55.7835 142.513 55.9744L136.291 57.2942L137.256 61.843L145.414 60.1123C145.545 60.2481 145.679 60.4446 145.816 60.7019C145.967 60.9355 146.076 61.2088 146.143 61.5218C146.367 62.5783 146.029 63.202 145.129 63.3929L136.237 65.2793Z" fill="white"/>
<path d="M158.124 61.5999C157.387 61.6559 156.858 61.5656 156.539 61.329C156.219 61.0725 156.035 60.6252 155.986 59.987L154.776 44.0428C154.975 43.747 155.277 43.5034 155.684 43.3121C156.11 43.1193 156.583 43.0032 157.101 42.9638C157.72 42.9169 158.276 42.985 158.772 43.1681C159.287 43.3496 159.759 43.755 160.188 44.3844L165.083 51.8053C165.537 52.493 165.972 53.2121 166.39 53.9626C166.827 54.6917 167.209 55.3647 167.536 55.9817L167.654 55.9427C167.465 54.7736 167.309 53.6422 167.186 52.5484C167.081 51.4331 166.988 50.337 166.906 49.2601L166.391 42.4696C166.547 42.4176 166.784 42.3596 167.1 42.2955C167.434 42.2099 167.771 42.1543 168.11 42.1286C168.848 42.0726 169.377 42.1728 169.697 42.4293C170.036 42.6644 170.229 43.101 170.278 43.7392L171.504 59.8927C171.301 60.1287 170.995 60.3225 170.585 60.4739C170.195 60.6238 169.721 60.72 169.163 60.7623C168.564 60.8077 168.008 60.7496 167.495 60.588C166.999 60.405 166.537 59.9988 166.109 59.3694L161.213 51.9485C160.761 51.2808 160.316 50.5724 159.878 49.8234C159.459 49.0529 159.085 48.3592 158.758 47.7422L158.581 47.7858C158.763 48.875 158.909 49.9973 159.017 51.1524C159.144 52.3061 159.247 53.4014 159.326 54.4384L159.841 61.2289C159.685 61.2809 159.449 61.3489 159.135 61.4329C158.82 61.517 158.483 61.5726 158.124 61.5999Z" fill="white"/>
<path d="M197.985 58.7947C197.953 59.2936 197.817 59.6755 197.579 59.9404C197.362 60.1867 197.017 60.4144 196.542 60.6236C196.272 60.7661 195.933 60.8941 195.524 61.0074C195.137 61.1021 194.702 61.1736 194.217 61.2218C193.752 61.2913 193.268 61.3395 192.765 61.3665C192.262 61.3934 191.761 61.3904 191.262 61.3575C189.845 61.264 188.54 60.9974 187.346 60.5579C186.174 60.0997 185.164 59.4518 184.318 58.6142C183.491 57.7779 182.868 56.7446 182.448 55.5143C182.028 54.284 181.873 52.8406 181.982 51.1842C182.086 49.6077 182.427 48.2372 183.005 47.0727C183.604 45.8896 184.369 44.9279 185.3 44.1876C186.251 43.4486 187.328 42.9184 188.532 42.5969C189.737 42.2556 191.018 42.1297 192.375 42.2192C193.273 42.2785 194.076 42.4117 194.784 42.6187C195.513 42.8072 196.128 43.0482 196.63 43.3419C197.153 43.6169 197.543 43.9433 197.798 44.3209C198.055 44.6786 198.171 45.0471 198.146 45.4263C198.12 45.8254 197.987 46.1674 197.748 46.4522C197.508 46.7371 197.244 46.9501 196.954 47.0914C196.457 46.7178 195.849 46.367 195.129 46.0389C194.411 45.6908 193.512 45.4812 192.435 45.4101C191.557 45.3521 190.739 45.4485 189.98 45.6991C189.224 45.9297 188.558 46.2967 187.984 46.8C187.429 47.3046 186.976 47.9461 186.624 48.7246C186.272 49.5031 186.062 50.4013 185.995 51.419C185.923 52.5167 186.01 53.4745 186.256 54.2925C186.503 55.1105 186.868 55.8061 187.351 56.3791C187.856 56.9336 188.459 57.3642 189.16 57.6711C189.883 57.9593 190.673 58.1317 191.531 58.1883C192.11 58.2265 192.642 58.2115 193.128 58.1434C193.613 58.0752 193.99 57.9798 194.259 57.8573L194.534 53.6963L190.702 53.4434C190.613 53.2772 190.537 53.0617 190.474 52.797C190.411 52.5323 190.391 52.2403 190.412 51.921C190.446 51.4021 190.591 51.0209 190.848 50.7772C191.124 50.5349 191.462 50.4269 191.861 50.4533L196.891 50.7852C197.389 50.8181 197.769 50.9835 198.03 51.2813C198.311 51.5805 198.435 51.9795 198.402 52.4784L197.985 58.7947Z" fill="white"/>
<path d="M209.547 63.1581C208.92 63.0332 208.457 62.7473 208.158 62.3005C207.879 61.8575 207.802 61.3222 207.927 60.6945L210.679 46.8656C210.804 46.2379 211.078 45.7827 211.501 45.4999C211.948 45.2013 212.485 45.1145 213.113 45.2394L222.852 47.1775C222.919 47.3539 222.966 47.5774 222.994 47.848C223.022 48.1187 223.004 48.4109 222.942 48.7247C222.84 49.2347 222.645 49.6036 222.355 49.8314C222.065 50.0592 221.714 50.1321 221.302 50.0501L214.181 48.6332L213.35 52.8113L220.529 54.2399C220.596 54.4163 220.643 54.6399 220.671 54.9105C220.722 55.1654 220.717 55.4497 220.654 55.7636C220.443 56.8228 219.887 57.2627 218.985 57.0831L212.747 55.8418L211.839 60.4024L220.019 62.0301C220.086 62.2066 220.131 62.4399 220.155 62.7301C220.202 63.0046 220.195 63.2988 220.132 63.6127C219.921 64.6719 219.365 65.1117 218.463 64.9322L209.547 63.1581Z" fill="white"/>
<path d="M235.128 66.7002C236.23 67.0636 237.106 67.1209 237.756 66.8722C238.413 66.6045 238.848 66.1478 239.061 65.502C239.256 64.9132 239.21 64.3821 238.924 63.9086C238.644 63.4162 238.136 62.9118 237.401 62.3955L235.766 61.2242C235.119 60.7582 234.548 60.2857 234.053 59.8066C233.559 59.3274 233.165 58.829 232.872 58.3113C232.586 57.7746 232.414 57.2123 232.355 56.6243C232.302 56.0173 232.395 55.3529 232.633 54.6312C233.141 53.0927 234.121 52.0682 235.574 51.5577C237.033 51.0282 238.77 51.0955 240.783 51.7596C241.581 52.0228 242.29 52.3304 242.911 52.6827C243.557 53.0222 244.089 53.3874 244.508 53.7782C244.933 54.15 245.225 54.5412 245.385 54.9518C245.563 55.3687 245.586 55.7765 245.455 56.1754C245.33 56.5553 245.125 56.8563 244.841 57.0786C244.582 57.2881 244.292 57.4345 243.97 57.5177C243.62 57.0444 243.103 56.5685 242.419 56.09C241.759 55.5988 240.983 55.2059 240.091 54.9114C239.103 54.5856 238.293 54.5186 237.662 54.7103C237.036 54.883 236.623 55.2733 236.422 55.8811C236.26 56.3749 236.305 56.8112 236.559 57.1898C236.832 57.5748 237.308 58.016 237.986 58.5135L239.441 59.562C240.931 60.6009 241.99 61.6981 242.62 62.8535C243.25 64.009 243.324 65.3179 242.841 66.7804C242.584 67.5591 242.197 68.2213 241.68 68.7668C241.164 69.3123 240.532 69.7254 239.787 70.006C239.067 70.2739 238.229 70.3872 237.274 70.3459C236.332 70.3299 235.31 70.1402 234.208 69.7768C233.334 69.4886 232.552 69.1464 231.862 68.7501C231.19 68.36 230.629 67.9539 230.179 67.5315C229.734 67.0902 229.417 66.6485 229.226 66.2063C229.06 65.7515 229.046 65.3151 229.184 64.8973C229.328 64.4604 229.573 64.1308 229.921 63.9083C230.293 63.6732 230.675 63.536 231.067 63.4968C231.404 64.0713 231.902 64.6674 232.562 65.2852C233.228 65.8839 234.083 66.3556 235.128 66.7002Z" fill="white"/>
</svg>
