<svg width="110" height="182" viewBox="0 0 110 182" fill="none" xmlns="http://www.w3.org/2000/svg">
<path d="M31.2936 22.7744C31.4283 22.9064 31.5675 23.0991 31.711 23.3525C31.8692 23.5818 31.9859 23.852 32.061 24.163C32.1877 24.6879 32.1576 25.117 31.9706 25.4502C31.803 25.7787 31.5151 25.9923 31.1068 26.0908L24.0789 27.788L25.1985 32.4247L32.1682 30.7417C32.303 30.8737 32.4397 31.0567 32.5785 31.2907C32.7368 31.5199 32.8534 31.7901 32.9286 32.1012C33.0553 32.6261 33.0252 33.0551 32.8382 33.3883C32.6659 33.6974 32.3756 33.9012 31.9674 33.9998L25.9892 35.4434L27.6582 42.3548C27.4926 42.4359 27.2516 42.5455 26.9352 42.6837C26.6382 42.8171 26.3147 42.9261 25.9648 43.0106C25.226 43.189 24.6682 43.1797 24.2915 42.9826C23.9147 42.7855 23.6488 42.3662 23.4939 41.7247L20.0856 27.6103C19.9354 26.9882 19.993 26.4599 20.2584 26.0255C20.5386 25.5669 20.9897 25.2625 21.6119 25.1123L31.2936 22.7744Z" fill="white"/>
<path d="M54.4998 33.7617L47.805 34.3425C47.6497 35.0987 47.4772 35.8866 47.2873 36.706C47.1173 37.5238 46.9751 38.1986 46.8606 38.7305C46.6683 38.8275 46.4552 38.9162 46.2212 38.9967C46.0072 39.0755 45.7309 39.1296 45.3922 39.159C44.7147 39.2178 44.1755 39.134 43.7744 38.9079C43.3716 38.6617 43.1486 38.2896 43.1054 37.7915C43.0847 37.5524 43.0947 37.3207 43.1355 37.0963C43.1944 36.8503 43.2608 36.5735 43.3345 36.266C43.4455 35.6943 43.5968 35.0086 43.7884 34.2091C43.9982 33.3879 44.2128 32.506 44.4322 31.5635C44.6698 30.5994 44.9255 29.6136 45.1995 28.6062C45.4717 27.5788 45.7275 26.593 45.9668 25.6488C46.2243 24.6829 46.4679 23.7885 46.6976 22.9656C46.9456 22.121 47.1541 21.4003 47.3231 20.8034C47.5701 20.6415 47.9365 20.4692 48.4226 20.2865C48.9285 20.1021 49.4405 19.9874 49.9586 19.9425C50.656 19.882 51.3031 19.9363 51.8999 20.1053C52.495 20.2544 52.8922 20.5512 53.0913 20.9957C53.5849 22.057 54.133 23.2842 54.7356 24.6774C55.3366 26.0506 55.9418 27.4736 56.5514 28.9464C57.1808 30.4175 57.7878 31.8605 58.3723 33.2753C58.9567 34.69 59.4784 35.9597 59.9373 37.0843C59.757 37.3207 59.4936 37.5242 59.1471 37.6948C58.8222 37.8836 58.4206 37.9988 57.9424 38.0402C57.2451 38.1007 56.7366 38.0244 56.4169 37.8112C56.1155 37.5764 55.8618 37.1969 55.6557 36.6727L54.4998 33.7617ZM50.2243 23.3523C50.0881 23.866 49.9373 24.4411 49.7717 25.0778C49.626 25.7128 49.463 26.3794 49.2827 27.0776C49.1205 27.7541 48.9501 28.4515 48.7715 29.1696C48.5912 29.8678 48.42 30.5551 48.2578 31.2317L53.4583 30.7806L50.3737 23.3393L50.2243 23.3523Z" fill="white"/>
<path d="M86.9903 29.8274C86.8132 32.0202 86.2273 33.8088 85.2326 35.1933C84.2594 36.5593 83.0171 37.5325 81.5054 38.1126C82.595 38.7825 83.5655 39.3124 84.4169 39.7022C85.2866 40.1136 86.148 40.5042 87.0009 40.8741C87.0112 40.9953 87.0131 41.0958 87.0067 41.1755C86.9986 41.2752 86.9914 41.3649 86.9849 41.4446C86.9221 42.2221 86.6661 42.7833 86.2169 43.1283C85.7876 43.4748 85.2241 43.6199 84.5264 43.5636C83.729 43.4992 82.8528 43.1675 81.8979 42.5687C80.943 41.9699 79.9253 41.1553 78.8448 40.1249L77.3064 38.6764L77.127 38.6619C75.8312 38.5572 74.6413 38.2604 73.5571 37.7716C72.4745 37.2627 71.5568 36.5766 70.8039 35.7132C70.0725 34.8314 69.5259 33.774 69.164 32.5409C68.8021 31.3077 68.684 29.9137 68.8096 28.3587C68.9352 26.8038 69.2747 25.4568 69.8282 24.3176C70.4017 23.1801 71.1293 22.2457 72.011 21.5143C72.8944 20.763 73.9004 20.2323 75.029 19.9221C76.1792 19.5937 77.3922 19.481 78.6681 19.584C79.9439 19.6871 81.1132 19.9922 82.1758 20.4994C83.2599 20.9883 84.1777 21.6744 84.929 22.5578C85.6819 23.4212 86.2401 24.4595 86.6036 25.6727C86.987 26.8875 87.116 28.2724 86.9903 29.8274ZM83.0133 29.5061C83.1808 27.4329 82.8395 25.8201 81.9895 24.668C81.1595 23.5174 79.967 22.8793 78.412 22.7537C76.877 22.6297 75.5976 23.0681 74.5737 24.0689C73.5697 25.0713 72.984 26.6092 72.8165 28.6824C72.6458 30.7955 72.9755 32.4274 73.8056 33.5779C74.6372 34.7086 75.8305 35.3367 77.3855 35.4623C78.9404 35.5879 80.219 35.1595 81.2214 34.177C82.2453 33.1762 82.8426 31.6192 83.0133 29.5061Z" fill="white"/>
<path d="M1 77.227L22.2345 62.0001L97 67.4688L96.7563 73.4747L91.5489 75.4604L96.4606 80.7679L96.1296 88.9193L89.4205 88.4278L95.878 95.1397L95.7216 99.0001L22.4736 95.5779L1 77.227Z" fill="white"/>
<path d="M21 91.0976L21.1437 99.5418L24.2681 101.461L21.2576 106.239L21.3714 112.936L26.6251 115.064L21.4853 119.633L21.5603 124L87.5951 121.447L110 100.834L85.8394 87.0001L21 91.0976Z" fill="white"/>
<path d="M70 48.0001H44V179H70V48.0001Z" fill="white"/>
<path d="M0 131.475L25.4791 112.429L88.5681 108L88.8653 115.358L80.2333 119.902L89.1583 122.634L89.4389 129.59L84.475 132.781L89.7298 136.805L90 143.504L25.9343 148L0 131.475Z" fill="white"/>
<g clip-path="url(#clip0_703_1218)">
<path d="M63.7038 58.9749H51.5127V179.724H63.7038V58.9749Z" fill="#857150" stroke="#4F432F" stroke-width="1.94957" stroke-miterlimit="10"/>
<path opacity="0.35" d="M53.9277 59.1252C52.5325 61.5192 53.1367 64.9632 53.6079 67.6937C54.4507 72.5769 53.8496 77.5752 53.6921 82.5281C53.5086 88.2978 53.9314 94.0669 54.1822 99.834C54.7448 112.769 54.4424 125.725 54.14 138.669L53.229 177.654C53.2099 178.475 53.2682 179.448 53.9645 179.883C54.3484 180.058 54.7847 180.078 55.1831 179.94C55.5815 179.802 55.9117 179.516 56.1054 179.142C56.4645 178.374 56.606 177.522 56.5145 176.68C56.3385 168.932 55.2526 161.182 55.8723 153.457C56.2483 148.771 57.25 144.137 57.3339 139.436C57.4048 135.465 56.8191 131.514 56.5934 127.548C56.2962 122.325 56.6243 117.089 56.8294 111.862C57.5198 94.267 56.8166 76.6508 56.1134 59.0567C55.2752 59.0748 54.3893 58.3333 53.9277 59.1252Z" fill="#B99073"/>
<path opacity="0.35" d="M58.9754 59.4179C57.7667 60.0853 57.4833 61.727 57.7238 63.0866C57.9642 64.4462 58.5833 65.7357 58.654 67.1145C58.5876 68.4055 58.4299 69.6902 58.1822 70.959C58.0073 72.8786 58.5075 74.7856 58.8181 76.6881C59.2635 80.0126 59.4233 83.3693 59.2958 86.7211L59.1303 104.074C59.0253 115.085 58.9186 126.124 57.5985 137.057C57.3843 138.83 58.9276 140.154 59.1387 141.928C59.3333 143.563 58.0806 151.339 58.4782 152.937C59.5073 157.073 59.0428 163.079 58.8566 167.337L58.4385 176.902C58.3787 178.27 58.943 180.208 60.2784 179.907C61.2243 165.029 62.1707 150.122 61.6777 135.221C61.4339 127.85 60.8379 120.474 61.2309 113.109C61.5072 107.932 62.2714 102.782 62.3108 97.5981C62.3829 88.0938 60.0178 78.6336 60.7751 69.1592C61.0412 65.8302 61.6908 62.4706 61.1265 59.179C60.4018 59.0381 59.6514 59.1214 58.9754 59.4179Z" fill="#B99073"/>
<path opacity="0.3" d="M63.7038 58.7589H51.5127V60.8622H63.7038V58.7589Z" fill="white"/>
<path opacity="0.35" d="M63.7862 112.975L51.6016 113.374L51.6704 115.476L63.855 115.077L63.7862 112.975Z" fill="#0D0E12"/>
<path opacity="0.35" d="M63.7938 139.336L51.6211 140.006L51.7367 142.106L63.9094 141.436L63.7938 139.336Z" fill="#0D0E12"/>
<path opacity="0.35" d="M63.9838 89.6692L51.7993 89.2656L51.7297 91.3677L63.9141 91.7713L63.9838 89.6692Z" fill="#0D0E12"/>
<path d="M63.7038 58.9749H51.5127V179.724H63.7038V58.9749Z" stroke="#4F432F" stroke-width="1.94957" stroke-miterlimit="10"/>
<path d="M15.4185 78.4129L30.0301 70.6091L81.477 73.4118L81.3094 76.4898L77.7261 77.5075L81.1058 80.2275L80.8781 84.4051L76.2615 84.1532L80.705 87.593L80.5974 89.5715L30.1947 87.8176L15.4185 78.4129Z" fill="#857150" stroke="#4F432F" stroke-width="1.94957" stroke-miterlimit="10"/>
<path d="M32.0596 96.5541L32.1687 100.81L34.5433 101.777L32.2553 104.185L32.3419 107.56L36.3346 108.632L32.4284 110.935L32.4854 113.136L82.6713 111.849L99.6989 101.461L81.337 94.4891L32.0596 96.5541Z" fill="#857150" stroke="#4F432F" stroke-width="1.94957" stroke-miterlimit="10"/>
<path d="M12.0981 130.937L31.2196 120.101L78.5661 117.581L78.7892 121.768L72.3111 124.353L79.0091 125.907L79.2196 129.865L75.4944 131.68L79.438 133.97L79.6407 137.781L31.5611 140.338L12.0981 130.937Z" fill="#857150" stroke="#4F432F" stroke-width="1.94957" stroke-miterlimit="10"/>
<path opacity="0.35" d="M22.9199 74.8297C25.9989 73.2108 29.6964 73.2329 33.1138 73.8829C36.5313 74.5329 41.9678 75.4017 45.3774 76.0918C57.543 78.5542 68.0137 74.3627 80.3328 75.8803C79.464 76.6128 78.4881 77.2077 77.439 77.6443C78.3705 77.9272 79.185 78.5047 79.7602 79.2901C74.1327 80.4192 68.3549 78.8025 62.6183 78.6132C58.8283 78.4882 55.0495 78.9892 51.2654 79.234C46.3339 79.5109 41.3899 79.4791 36.4624 79.1388C30.2762 78.7643 24.1164 78.1031 17.9829 77.1553C19.8229 75.9092 21.9816 75.323 22.9199 74.8297Z" fill="#B99073"/>
<path opacity="0.3" d="M81.5192 73.4138L28.4707 70.5241L28.3631 72.4998L81.4116 75.3896L81.5192 73.4138Z" fill="white"/>
<path opacity="0.35" d="M20.6875 81.7392C22.1316 80.8736 23.8481 80.5817 25.4972 80.9212C27.1445 81.1695 28.723 81.749 30.3523 82.0957C35.1603 83.1188 39.0303 81.5377 43.9456 81.4864C51.0613 81.412 58.2242 82.5373 65.3037 81.8167C69.8534 81.3535 75.5651 81.2073 79.9069 82.6436C80.1621 82.6977 80.3869 82.8474 80.5352 83.062C80.8578 83.6794 79.905 84.151 79.2105 84.2051L75.8833 84.4642L78.971 87.0899C71.6467 86.798 64.2933 86.503 57.0831 85.1825C54.7022 84.63 52.2748 84.3023 49.8327 84.2038C47.7557 84.3149 45.6873 84.5521 43.6391 84.9142C41.105 85.2416 38.5452 85.324 35.9953 85.1601C34.7441 85.0244 33.4837 84.994 32.2274 85.0693C31.0325 85.1938 29.8697 85.5633 28.6705 85.6361C25.4844 85.8295 22.5865 83.9466 20.6875 81.7392Z" fill="#B99073"/>
<path opacity="0.35" d="M91.238 98.4588L95.4076 99.8456C93.8027 101.218 91.6002 101.625 89.4985 101.831C87.1979 102.057 84.8832 102.103 82.5755 101.969C80.4091 101.741 78.2298 101.66 76.0525 101.726C74.0269 101.884 72.0549 102.433 70.0531 102.78C61.8435 104.203 53.4277 102.19 45.1074 102.629C40.5011 102.999 35.9326 103.744 31.4478 104.858C32.0991 103.765 33.0298 102.865 34.1442 102.251C33.5654 102.112 33.025 101.846 32.563 101.471C32.3201 101.264 32.164 100.973 32.1256 100.656C32.0872 100.339 32.1694 100.02 32.3558 99.7605C35.7957 98.6528 39.5138 99.5115 43.0731 100.137C50.195 101.388 58.1075 99.9138 65.3042 99.2114C72.9572 98.4644 82.1782 98.3692 89.8551 97.9317" fill="#B99073"/>
<path opacity="0.35" d="M32.3419 107.56C39.4952 106.005 49.6129 106.893 56.9308 106.705C60.5094 106.612 64.0819 106.366 67.6532 106.119L76.5097 105.507C82.0832 105.122 90.2697 104.198 95.8432 103.812C93.9295 106.522 88.1252 108.825 84.8128 109.005C82.5193 109.129 80.255 108.539 77.9736 108.273C72.8957 107.681 67.7795 108.699 62.6683 108.804C58.9084 108.88 55.1545 108.461 51.3938 108.45C45.6987 108.432 38.0499 110.021 32.4285 110.935C32.7967 110.464 35.1617 109.319 35.5299 108.848C35.0523 108.771 31.8901 108.124 32.3419 107.56Z" fill="#B99073"/>
<path opacity="0.35" d="M24.7271 124.477C29.78 122.335 35.5265 123.386 40.9969 123.828C46.3533 124.185 51.7288 124.146 57.0793 123.71C61.0943 123.536 65.0831 122.975 68.9901 122.034C71.8277 121.277 75.0075 120.205 77.5401 121.691C75.7973 122.783 73.9278 123.658 71.973 124.297C74.3708 124.571 76.7307 125.111 79.0089 125.907C69.3193 127.006 56.5339 127.298 46.7912 127.718C37.5639 128.116 28.3221 128.029 19.104 127.457C20.3203 125.362 23.1697 125.138 24.7271 124.477Z" fill="#B99073"/>
<path opacity="0.35" d="M14.6255 132.323C18.6066 131.608 22.6487 131.29 26.6926 131.372C30.1173 131.555 33.4871 132.311 36.904 132.606C41.3097 132.987 46.2519 130.991 50.6441 130.478C58.8503 129.519 66.5012 129.738 74.7366 129.076C76.0459 128.88 77.3824 128.978 78.6489 129.364C77.574 130.149 76.4679 130.888 75.3306 131.582C76.7153 131.911 77.9242 132.752 78.7136 133.936C67.923 135.217 59.2717 133.695 48.4483 134.661C43.0597 135.142 35.4376 135.947 30.0321 136.168C24.6266 136.389 18.9447 135.532 14.6255 132.323Z" fill="#B99073"/>
<path opacity="0.3" d="M83.8983 94.5648L32.0522 96.8511L32.1357 98.7436L83.9818 96.4574L83.8983 94.5648Z" fill="white"/>
<path d="M15.4185 78.4129L30.0301 70.6091L81.477 73.4118L81.3094 76.4898L77.7261 77.5075L81.1058 80.2275L80.8781 84.4051L76.2615 84.1532L80.705 87.593L80.5974 89.5715L30.1947 87.8176L15.4185 78.4129Z" stroke="#4F432F" stroke-width="1.94957" stroke-miterlimit="10"/>
<path opacity="0.3" d="M78.9613 117.836L29.0532 120.193L29.1443 122.122L79.0524 119.766L78.9613 117.836Z" fill="white"/>
<path d="M32.0596 96.5541L32.1687 100.81L34.5433 101.777L32.2553 104.185L32.3419 107.56L36.3346 108.632L32.4284 110.935L32.4854 113.136L82.6713 111.849L99.6989 101.461L81.337 94.4891L32.0596 96.5541Z" stroke="#4F432F" stroke-width="1.94957" stroke-miterlimit="10"/>
<path d="M12.0981 130.937L31.2196 120.101L78.5661 117.581L78.7892 121.768L72.3111 124.353L79.0091 125.907L79.2196 129.865L75.4944 131.68L79.438 133.97L79.6407 137.781L31.5611 140.338L12.0981 130.937Z" stroke="#4F432F" stroke-width="1.94957" stroke-miterlimit="10"/>
<path d="M41.1479 181.133C41.1479 181.133 46.3257 174.488 48.8604 173.987C55.4423 172.686 58.58 176.92 61.8767 176.354C66.2251 175.609 70.4485 180.558 73.5331 181.253" fill="#97AED0"/>
<path d="M73.5331 181.253C72.1582 180.858 70.8326 180.308 69.5818 179.613C67.2106 178.43 64.8166 177.074 62.3763 177.493C60.6809 177.785 58.8356 177.128 57.1971 176.419C55.0504 175.489 52.6199 174.438 49.0865 175.135C47.6355 175.421 43.1881 178.516 41.1479 181.133C42.0571 179.966 45.7005 173.956 48.6328 172.839C52.6805 171.297 55.7893 173.261 58.126 174.272C59.5503 174.888 60.6782 175.372 61.6789 175.201C64.886 174.653 65.8714 175.657 68.3181 177.409C69.9436 178.573 72.5924 181.041 73.5331 181.253L73.5331 181.253Z" fill="#ACC2E3"/>
</g>
<defs>
<clipPath id="clip0_703_1218">
<rect width="91.9063" height="123.253" fill="white" transform="translate(10 58.0001)"/>
</clipPath>
</defs>
</svg>
