<svg width="149" height="192" viewBox="0 0 149 192" fill="none" xmlns="http://www.w3.org/2000/svg">
<path d="M46.309 165L25.0001 178.649C25.0001 178.649 24.7256 197.138 55.4164 190.601L77.8731 174.606" fill="white"/>
<path d="M106.057 167L124.998 179.132C124.998 179.132 125.242 195.567 97.9615 189.756L78 175.539" fill="white"/>
<path d="M125.236 122.655C125.467 126.836 125.603 131.031 125.684 135.226C125.888 146.005 125.684 157.218 120.933 166.911C116.495 175.567 109.213 182.431 100.311 186.351C91.4386 190.223 81.7554 191.873 72.1012 191.157C55.5661 190.18 38.5015 182.713 30.1797 168.391C24.8716 159.255 23.5955 148.367 23.1611 137.805C22.3601 117.89 24.3965 97.1868 32.664 78.8598C40.5107 61.6866 55.4303 43.6175 76.2417 45.0836C87.5231 45.8846 97.6912 52.686 105.022 61.2929C113.48 71.2438 118.706 83.6112 121.72 96.318C123.638 104.981 124.814 113.792 125.236 122.655Z" fill="white"/>
<path d="M38.7821 94C32.0679 101.11 26.7401 107.23 22.9373 111.825C21.2142 113.806 17.5699 118.223 13.1532 124.085C8.52646 129.811 4.75077 136.175 1.94299 142.98C-0.790241 149.972 -0.0376138 152.091 0.615984 153.24C1.0121 153.834 2.59658 156.131 10.3407 156.112C18.3868 155.97 26.2416 153.635 33.0582 149.358L39 144.01" fill="white"/>
<path d="M113 98C119.217 104.604 124.165 110.288 127.716 114.555C129.298 116.395 132.682 120.478 136.784 125.941C141.09 131.273 144.597 137.203 147.195 143.545C149.734 150.02 149.035 151.988 148.428 153.055C148.078 153.607 146.496 155.741 139.396 155.722C131.921 155.607 124.621 153.437 118.298 149.45L114.619 146.157" fill="white"/>
<g clip-path="url(#clip0_703_1219)">
<path d="M47.1704 171.43L37.2647 177.775C37.2647 177.775 37.1371 186.37 51.404 183.331L61.8433 175.895" fill="#F26522"/>
<path d="M47.1704 171.43L37.2647 177.775C37.2647 177.775 37.1371 186.37 51.404 183.331L61.8433 175.895" stroke="#231F20" stroke-width="1.15991" stroke-miterlimit="10"/>
<path d="M103.322 171.43L113.228 177.775C113.228 177.775 113.356 186.37 99.0886 183.331L88.6494 175.895" fill="#F26522"/>
<path d="M103.322 171.43L113.228 177.775C113.228 177.775 113.356 186.37 99.0886 183.331L88.6494 175.895" stroke="#231F20" stroke-width="1.15991" stroke-miterlimit="10"/>
<path d="M117.972 120.927C118.169 124.5 118.285 128.084 118.354 131.668C118.528 140.878 118.354 150.459 114.295 158.74C110.503 166.136 104.282 172.001 96.6757 175.35C89.0947 178.659 80.8214 180.068 72.5727 179.456C58.4449 178.621 43.8648 172.242 36.7545 160.005C32.2192 152.198 31.1289 142.896 30.7577 133.872C30.0734 116.856 31.8133 99.1671 38.8771 83.5083C45.5815 68.8353 58.3289 53.3969 76.1104 54.6496C85.7493 55.3339 94.4371 61.1451 100.701 68.499C107.927 77.0011 112.393 87.568 114.968 98.4248C116.606 105.827 117.611 113.355 117.972 120.927Z" fill="#2E3192" stroke="#231F20" stroke-width="1.15991" stroke-miterlimit="10"/>
<path d="M31.3144 113.086C27.3822 117.25 24.2621 120.834 22.035 123.525C21.0259 124.685 18.8917 127.272 16.3051 130.705C13.5955 134.059 11.3843 137.786 9.73994 141.771C8.13926 145.865 8.58002 147.106 8.96279 147.779C9.19478 148.127 10.1227 149.473 14.658 149.461C19.3701 149.378 23.9701 148.011 27.9622 145.506L31.4419 142.374" fill="#2E3192"/>
<path d="M31.3144 113.086C27.3822 117.25 24.2621 120.834 22.035 123.525C21.0259 124.685 18.8917 127.272 16.3051 130.705C13.5955 134.059 11.3843 137.786 9.73994 141.771C8.13926 145.865 8.58002 147.106 8.96279 147.779C9.19478 148.127 10.1227 149.473 14.658 149.461C19.3701 149.378 23.9701 148.011 27.9622 145.506L31.4419 142.374" stroke="#231F20" stroke-width="1.15991" stroke-miterlimit="10"/>
<path d="M117.032 112.935C120.953 117.099 124.073 120.684 126.312 123.375C127.309 124.534 129.443 127.109 132.03 130.554C134.745 133.917 136.956 137.656 138.595 141.655C140.196 145.738 139.755 146.979 139.372 147.652C139.152 148 138.154 149.345 133.677 149.333C128.963 149.261 124.36 147.893 120.373 145.378L118.053 143.302" fill="#2E3192"/>
<path d="M117.032 112.935C120.953 117.099 124.073 120.684 126.312 123.375C127.309 124.534 129.443 127.109 132.03 130.554C134.745 133.917 136.956 137.656 138.595 141.655C140.196 145.738 139.755 146.979 139.372 147.652C139.152 148 138.154 149.345 133.677 149.333C128.963 149.261 124.36 147.893 120.373 145.378L118.053 143.302" stroke="#231F20" stroke-width="1.15991" stroke-miterlimit="10"/>
<path d="M107.892 156.328C111.151 148.521 111.441 141.933 111.685 134.904C111.894 128.017 111.47 121.125 110.421 114.316C108.623 100.629 105.7 93.3212 104.946 91.5233C103.113 87.2084 97.4296 73.2778 91.1312 73.649C89.9713 73.7186 87.6515 75.5281 83.0118 79.1586C77.2703 83.6823 76.6903 84.6218 74.8924 84.7146C73.8137 84.7726 72.445 84.5058 65.0448 78.7294C59.4192 74.3449 59.3264 73.8114 58.1781 73.707C49.3279 72.8371 44.7463 88.9831 42.6236 94.6667C39.0627 104.213 38.5175 111.671 37.8448 121.797C36.8356 136.992 36.2557 148.011 42.8556 158.787C44.7701 162.02 47.2536 164.881 50.1863 167.231C57.6445 173.031 66.4251 173.866 70.8327 174.306C74.3035 174.66 77.8012 174.66 81.272 174.306C85.3201 174.051 96.0377 172.845 102.858 165.097C105.044 162.496 106.749 159.527 107.892 156.328Z" fill="white" stroke="white" stroke-width="1.15991" stroke-miterlimit="10"/>
<path d="M91.4442 94.7015C93.0201 94.7015 94.2976 92.6866 94.2976 90.201C94.2976 87.7155 93.0201 85.7006 91.4442 85.7006C89.8683 85.7006 88.5908 87.7155 88.5908 90.201C88.5908 92.6866 89.8683 94.7015 91.4442 94.7015Z" fill="#231F20" stroke="#231F20" stroke-width="1.15991" stroke-miterlimit="10"/>
<path d="M68.7915 93.1587H78.9988L74.1155 100.687L68.7915 93.1587Z" fill="#FFDE17" stroke="#F7941D" stroke-width="1.15991" stroke-miterlimit="10"/>
<path d="M56.3456 94.7015C57.9215 94.7015 59.199 92.6866 59.199 90.201C59.199 87.7155 57.9215 85.7006 56.3456 85.7006C54.7697 85.7006 53.4922 87.7155 53.4922 90.201C53.4922 92.6866 54.7697 94.7015 56.3456 94.7015Z" fill="#231F20" stroke="#231F20" stroke-width="1.15991" stroke-miterlimit="10"/>
<path d="M31.3147 114.014C27.2274 118.052 23.3998 122.344 19.8547 126.866C17.5349 129.824 15.7022 132.561 14.7743 133.93C14.1131 134.927 13.278 136.18 12.3153 137.85C11.3661 139.404 10.5623 141.043 9.91425 142.745C9.42495 143.932 9.12739 145.188 9.03271 146.468C9.53698 145.493 9.96736 144.481 10.3202 143.441C15.5398 132.654 23.868 125.451 31.3147 120.73V114.014Z" fill="#524FA1"/>
<path d="M117.032 113.77C121.11 117.817 124.937 122.109 128.492 126.622C130.812 129.58 132.633 132.317 133.561 133.698C134.222 134.684 135.057 135.948 136.032 137.607C136.974 139.163 137.774 140.801 138.421 142.501C138.91 143.688 139.208 144.945 139.303 146.225C138.782 145.257 138.34 144.248 137.98 143.209C132.83 132.41 124.502 125.207 117.032 120.498V113.77Z" fill="#524FA1"/>
<path d="M49.5601 67.7797C51.7584 65.0322 54.3542 62.628 57.2619 60.6463C60.2728 58.4636 63.6691 56.8697 67.272 55.9486C70.6479 55.12 74.1487 54.9273 77.5952 55.3802C67.353 57.0798 57.7081 61.3455 49.5601 67.7797Z" fill="#524FA1"/>
<path d="M26.0596 146.016C28.1992 143.961 29.7936 141.406 30.6992 138.581C31.0789 137.386 31.324 136.153 31.43 134.904L31.5692 142.594C30.3049 143.464 28.9594 144.334 27.5095 145.181C27.03 145.482 26.5467 145.761 26.0596 146.016Z" fill="#171445"/>
<path d="M123.261 146.468C121.124 144.411 119.53 141.857 118.621 139.033C118.244 137.838 117.999 136.605 117.891 135.356L117.751 143.047C119.016 143.917 120.361 144.775 121.811 145.622L123.261 146.468Z" fill="#171445"/>
<path d="M57.2384 176.881L50.9168 181.788C48.0344 182.765 44.8965 182.67 42.0783 181.521C41.2164 181.132 40.406 180.637 39.6657 180.048L37.8562 178.111C37.8221 178.915 37.998 179.715 38.3666 180.431C39.9325 183.319 45.1173 184.293 51.2416 182.751L58.7347 177.38L57.2384 176.881Z" fill="#EF4136"/>
<path d="M93.4972 177.241L99.6448 181.788C102.527 182.765 105.665 182.67 108.483 181.521C109.348 181.137 110.159 180.642 110.896 180.048L112.589 178.111C112.674 178.907 112.533 179.711 112.183 180.431C110.745 183.273 105.56 184.282 99.32 182.751L92.0938 177.682L93.4972 177.241Z" fill="#EF4136"/>
<path d="M38.7144 177.949L46.9266 172.717L48.0865 172.822L41.4286 177.125L38.7144 177.949Z" fill="#FBB040"/>
<path d="M77.3628 94.1447L74.8458 98.2739L74.3354 98.4711L76.3537 95.0958L77.3628 94.1447Z" fill="#FDFAD9"/>
<path d="M111.986 177.914L103.762 172.694L102.603 172.787L109.26 177.09L111.986 177.914Z" fill="#FBB040"/>
<path d="M37.5898 117.54C37.4274 119.071 37.207 121.356 37.0794 124.14C36.4879 136.354 35.8383 149.577 43.4126 160.921C45.445 164.066 48.0309 166.817 51.0448 169.04C58.7119 174.538 67.5156 175.095 71.9233 175.374C75.4076 175.581 78.9038 175.449 82.3625 174.979C86.123 174.628 89.8141 173.742 93.3237 172.346C95.701 171.404 97.9313 170.127 99.9468 168.553C101.278 167.488 102.501 166.295 103.601 164.992C104.203 164.294 104.761 163.558 105.271 162.788C106.446 160.937 107.43 158.97 108.205 156.919C108.495 156.235 108.716 155.678 108.855 155.33C107.254 156.768 90.4355 171.453 69.9862 166.5C50.6156 161.872 36.0703 141.411 37.5898 117.54Z" fill="#E5ECEF"/>
</g>
<path d="M27.178 52.6078C27.0341 52.7231 26.8229 52.8827 26.5443 53.0866C26.2836 53.2816 25.9827 53.463 25.6417 53.6307C24.9598 53.9661 24.4134 54.0788 24.0027 53.9688C23.6099 53.8499 23.2679 53.4943 22.9766 52.9021L15.6553 38.0149C15.7812 37.9084 15.9835 37.7532 16.2621 37.5494C16.5587 37.3366 16.8595 37.1553 17.1646 37.0052C17.8107 36.6875 18.3437 36.5702 18.7635 36.6535C19.1834 36.7368 19.5478 37.0925 19.8567 37.7206L22.4648 43.024L29.195 39.7142L25.8852 32.984C26.0111 32.8775 26.2134 32.7223 26.492 32.5184C26.7886 32.3057 27.0894 32.1244 27.3945 31.9743C28.0406 31.6566 28.578 31.5483 29.0066 31.6495C29.4265 31.7328 29.7909 32.0885 30.0998 32.7166L37.4078 47.5768C37.264 47.6922 37.0527 47.8518 36.7741 48.0557C36.5134 48.2507 36.2126 48.4321 35.8716 48.5998C35.1896 48.9352 34.6433 49.0479 34.2325 48.9378C33.8398 48.819 33.4977 48.4634 33.2065 47.8712L30.5719 42.5139L23.8417 45.8238L27.178 52.6078Z" fill="white"/>
<path d="M62.0392 31.6177C62.3676 33.1427 62.4333 34.5402 62.2363 35.8102C62.0392 37.0801 61.6262 38.2022 60.9973 39.1765C60.3836 40.127 59.5736 40.9254 58.5671 41.5718C57.5564 42.1987 56.4157 42.649 55.1448 42.9227C53.8739 43.1964 52.649 43.2556 51.4699 43.1004C50.2865 42.9256 49.2098 42.5335 48.2398 41.9241C47.2851 41.2909 46.4565 40.4362 45.7542 39.3599C45.0519 38.2837 44.5365 36.983 44.208 35.458C43.8796 33.933 43.816 32.5453 44.0172 31.2949C44.2338 30.0207 44.6587 28.9063 45.2919 27.9515C45.9209 26.9773 46.7309 26.1788 47.722 25.5562C48.7285 24.9098 49.8574 24.4519 51.1087 24.1824C52.36 23.9129 53.5675 23.8676 54.7313 24.0466C55.9104 24.2018 56.9871 24.5939 57.9614 25.2229C58.9314 25.8323 59.7676 26.6752 60.47 27.7514C61.1877 28.8039 61.7107 30.0927 62.0392 31.6177ZM58.1386 32.4578C57.7007 30.4244 56.9086 28.9788 55.7622 28.1209C54.6313 27.2392 53.3033 26.9626 51.7782 27.2911C50.2727 27.6153 49.1742 28.4043 48.4827 29.658C47.8107 30.9075 47.6958 32.5587 48.1379 34.6116C48.5801 36.6646 49.3645 38.1221 50.4913 38.9842C51.618 39.8462 52.9439 40.1131 54.469 39.7846C55.994 39.4562 57.0925 38.6672 57.7645 37.4177C58.456 36.164 58.5807 34.5107 58.1386 32.4578Z" fill="white"/>
<path d="M85.0219 35.7134C84.8138 35.8628 84.5474 35.9791 84.2227 36.0624C83.8979 36.1456 83.5258 36.1763 83.1064 36.1545C82.5871 36.1274 82.1508 36.0446 81.7975 35.9061C81.4652 35.7486 81.238 35.4965 81.1159 35.1496C80.403 33.0698 79.8044 31.2962 79.32 29.8291C78.8356 28.3619 78.4502 27.1102 78.1637 26.0739L78.0139 26.0661C77.8843 27.4012 77.7604 28.6264 77.6423 29.7418C77.5441 30.8582 77.447 31.9546 77.3509 33.0311C77.2559 34.0875 77.1498 35.1635 77.0327 36.2589C76.9356 37.3553 76.8138 38.5406 76.6674 39.8147C76.4645 39.8642 76.2118 39.9111 75.909 39.9555C75.6063 39.9998 75.2852 40.0131 74.9457 39.9954C73.6075 39.9258 72.9644 39.3916 73.0163 38.393C73.033 38.0734 73.0684 37.5846 73.1227 36.9265C73.198 36.2495 73.2785 35.4727 73.3642 34.5959C73.4709 33.7003 73.5818 32.7247 73.6968 31.6693C73.8318 30.6149 73.9573 29.5499 74.0734 28.4745C74.2094 27.4001 74.3444 26.3457 74.4783 25.3113C74.6133 24.2569 74.7342 23.2819 74.8409 22.3862C75.0111 22.1948 75.3111 22.0101 75.7409 21.8322C76.1917 21.6354 76.7567 21.5547 77.4358 21.59C78.1947 21.6295 78.7972 21.791 79.243 22.0746C79.7099 22.3392 80.0481 22.7674 80.2576 23.3591C80.485 23.9918 80.7193 24.6849 80.9605 25.4384C81.2216 26.193 81.4817 26.9676 81.7408 27.7621C81.9998 28.5567 82.2494 29.3407 82.4895 30.1142C82.7506 30.8688 82.9939 31.5824 83.2192 32.2551L83.339 32.2613C84.1158 30.4192 84.8796 28.6365 85.6301 26.9132C86.4007 25.1909 87.0674 23.7336 87.6301 22.5412C87.876 22.4338 88.1908 22.3501 88.5744 22.29C88.9581 22.2298 89.3496 22.2101 89.7491 22.2309C90.4881 22.2694 91.0716 22.4099 91.4996 22.6525C91.9275 22.8951 92.18 23.2387 92.257 23.6833C92.3171 24.0669 92.3753 24.6808 92.4315 25.5248C92.4887 26.3489 92.5398 27.2928 92.5845 28.3566C92.6293 29.4204 92.6704 30.554 92.7079 31.7576C92.7454 32.9612 92.775 34.1243 92.7966 35.2469C92.8193 36.3496 92.8367 37.3619 92.8488 38.2838C92.8609 39.2056 92.8635 39.9267 92.8564 40.4471C92.5884 40.5934 92.3026 40.6986 91.9988 40.7629C91.715 40.8283 91.3634 40.85 90.944 40.8282C90.4247 40.8012 89.9705 40.6774 89.5815 40.4569C89.2134 40.2174 89.0245 39.807 89.0147 39.2257C89.0003 37.9633 88.9943 36.7313 88.9968 35.5298C89.0003 34.3083 89.0101 33.1573 89.0263 32.0767C89.0425 30.9961 89.054 30.0053 89.0609 29.1045C89.0688 28.1836 89.0799 27.3931 89.0942 26.733L88.9444 26.7252C88.576 27.6473 88.0742 28.8228 87.439 30.2517C86.805 31.6606 85.9992 33.4812 85.0219 35.7134Z" fill="white"/>
<path d="M104.585 43.5598C103.973 43.3726 103.54 43.0417 103.288 42.5671C103.055 42.0984 103.032 41.5581 103.22 40.9461L107.345 27.4631C107.532 26.8511 107.851 26.4257 108.3 26.1867C108.775 25.9346 109.318 25.9021 109.93 26.0893L119.426 28.9947C119.474 29.177 119.499 29.4041 119.499 29.6762C119.5 29.9482 119.453 30.2372 119.36 30.5432C119.207 31.0404 118.976 31.3878 118.664 31.5854C118.353 31.7829 117.996 31.8202 117.595 31.6973L110.652 29.5731L109.406 33.6467L116.406 35.7885C116.454 35.9707 116.479 36.1979 116.479 36.4699C116.505 36.7286 116.471 37.011 116.377 37.317C116.061 38.3497 115.463 38.7315 114.584 38.4623L108.502 36.6015L107.141 41.048L115.116 43.4882C115.165 43.6704 115.187 43.9071 115.181 44.1983C115.201 44.4762 115.164 44.7681 115.07 45.0741C114.754 46.1068 114.156 46.4886 113.277 46.2194L104.585 43.5598Z" fill="white"/>
<defs>
<clipPath id="clip0_703_1219">
<rect width="132.369" height="130.56" fill="white" transform="translate(8 54)"/>
</clipPath>
</defs>
</svg>
