<svg xmlns="http://www.w3.org/2000/svg" viewBox="0 0 212.45 254.02"><defs><style>.cls-1,.cls-2{fill:#d1d3d4;}.cls-1,.cls-4,.cls-9{stroke:#231f20;}.cls-1,.cls-10,.cls-11,.cls-12,.cls-14,.cls-2,.cls-3,.cls-4,.cls-5,.cls-6,.cls-7,.cls-8,.cls-9{stroke-miterlimit:10;}.cls-1,.cls-2,.cls-4,.cls-6,.cls-9{stroke-width:4px;}.cls-2{stroke:#f1f2f2;}.cls-14,.cls-3,.cls-5,.cls-6,.cls-7,.cls-8{fill:none;}.cls-3{stroke:#e6e7e8;}.cls-3,.cls-5,.cls-7,.cls-8{stroke-width:5px;}.cls-4{fill:#4a98d2;}.cls-5{stroke:#3577a7;}.cls-6{stroke:#4a98d2;}.cls-10,.cls-11,.cls-14,.cls-7{stroke:#6cb5e0;}.cls-8{stroke:#91c9ee;}.cls-9{fill:#296491;}.cls-10,.cls-12,.cls-13{fill:#1a497c;}.cls-10,.cls-11,.cls-12{stroke-width:0.5px;}.cls-11{fill:#6cb5e0;}.cls-12{stroke:#1a497c;}.cls-15{fill:#75bae1;}</style></defs><g id="Layer_2" data-name="Layer 2"><g id="Layer_5" data-name="Layer 5"><path class="cls-1" d="M24.06,200.51,64.05,2.4l146,32.78L166,231.71Z"/><path class="cls-2" d="M29.56,197.9,67.93,8.32,204.51,39l-42.23,188.1Z"/><path class="cls-1" d="M12.07,227,30.42,25.67l148.7,16.82L156.49,242.64Z"/><path class="cls-3" d="M16.71,222.66l17.6-192.4L174.55,46.12,152.92,237.44Z"/><path class="cls-4" d="M6.42,252,2,50H151.69V251.37Z"/><path class="cls-5" d="M10.8,247.5,6.7,54.3H147.22V246.89Z"/><path class="cls-6" d="M16.31,242.1l-4.95-183L143,59.24V241.53Z"/><path class="cls-7" d="M16.31,242.1l-4.95-183L143,59.24V241.53Z"/><path class="cls-8" d="M21.43,238.5,16.87,63.76l121.4.16V238Z"/><line class="cls-9" x1="30.42" y1="25.67" x2="151.69" y2="49.95"/><line class="cls-9" x1="179.12" y1="42.49" x2="64.05" y2="2.4"/><path class="cls-10" d="M38.76,192.23A82.38,82.38,0,0,1,41,182.12c1.57-5.37,2.76-9.45,5.8-14,2.17-3.22,5-7.25,10.2-9.33a16.7,16.7,0,0,1,7.65-1.23c5.27.44,8.81,3.45,10.83,5.17,9.11,7.75,10.8,20.5,11.15,23.86v.51a23.42,23.42,0,0,1,6.68-5.68A32.84,32.84,0,0,1,99.48,179c2.75-.93,6.22-1.85,8.47-2.45a50.83,50.83,0,0,1,5-1.09,35.84,35.84,0,0,1,4-.38,7,7,0,0,1,3.49.41c.17.08,1.87.87,1.77,1.7-.06.57-.94.86-2.08,1.29s-2.87,1.14-4.84,2.12a10.52,10.52,0,0,0-2.07,1.41,18.8,18.8,0,0,0-2,2.18l-.15.18c-.34.43-.92,1.24-3.37,4.93-2.25,3.37-2.92,4.41-3.39,5.17-.19.29-.12.2-1.86,3-1.49,2.4-1.7,2.69-3.24,5.17-3,4.75-3.6,5.92-3.95,7.43a25.83,25.83,0,0,0-.47,3.12c0,.85-.06,2.35-.06,2.35h0l-57.4.17c0-4.34.18-8,.32-10.78A112.44,112.44,0,0,1,38.76,192.23Z"/><path class="cls-11" d="M81.24,215.53l.36-.85c1.79-4.29,2-7.9,2.08-11.75A62.27,62.27,0,0,0,83,191.66a49.55,49.55,0,0,0-3-12.49c-1-2.37-4.12-10-7.57-9.8-.62,0-1.9,1-4.42,3-3.14,2.47-3.46,3-4.46,3-.59,0-1.34-.11-5.4-3.28-3.08-2.4-3.13-2.69-3.76-2.75-4.85-.48-7.36,8.37-8.52,11.48-2,5.23-2.25,9.32-2.62,14.87-.54,8.1-.85,14,2.46,19.78Z"/><path class="cls-10" d="M60.54,158.55a6.13,6.13,0,0,1,2-5.16,5.82,5.82,0,0,1,6.1-.85A5.31,5.31,0,0,0,65,155.42a4.57,4.57,0,0,0-.29,2.26,3.36,3.36,0,0,1,3-1.88,3.44,3.44,0,0,1,2.6,1.33l-3.34,2.74"/><ellipse class="cls-12" cx="73.98" cy="179.57" rx="1.72" ry="2.82"/><path class="cls-12" d="M60.51,180.33h5.6l-2.66,4.12Z"/><ellipse class="cls-12" cx="52.64" cy="179.57" rx="1.72" ry="2.82"/><path class="cls-10" d="M39.48,188.26A35.34,35.34,0,0,0,64.92,197a34.93,34.93,0,0,0,21.69-9.89s3.56-4.51,8.21-6.34l9.11,14.3L96.8,206.62s-2.41,3.08-2,8.91l-57.4.17c.13-4.8.28-8.92.42-12.21.17-3.87.3-6.14.67-9.08C38.78,191.83,39.18,189.71,39.48,188.26Z"/><path class="cls-10" d="M74,202.21a.87.87,0,0,1,.49-.79,1.69,1.69,0,0,1,.7-.15,17.77,17.77,0,0,0,2.42,0c.59-.1,1.09-.94,1.15-1.07"/><path class="cls-10" d="M83.49,202.21a.84.84,0,0,0-.49-.79,1.66,1.66,0,0,0-.7-.15,17.77,17.77,0,0,1-2.42,0c-.58-.1-1.09-.94-1.14-1.07"/><path class="cls-10" d="M78.82,200.08a3.34,3.34,0,0,0,.45-.22h0a4.65,4.65,0,0,1-.25.51"/><path class="cls-10" d="M78.65,200.08a2.29,2.29,0,0,1-.44-.22h0a4.65,4.65,0,0,0,.25.51"/><path class="cls-10" d="M75.11,202.49a1.42,1.42,0,0,1,.7.07c.08,0,.58.25.67.7a.4.4,0,0,1,0,.15v0s.18-.05.24-.07a.93.93,0,0,1,.64,0,1.62,1.62,0,0,1,.83.75,3.71,3.71,0,0,1,.54,1.8"/><path class="cls-10" d="M82.37,202.49a1.41,1.41,0,0,0-.7.07c-.09,0-.59.25-.67.7a.35.35,0,0,0,0,.15s0,0,0,0-.18-.05-.24-.07a.9.9,0,0,0-.63,0,1.58,1.58,0,0,0-.83.75,3.5,3.5,0,0,0-.54,1.8"/><path class="cls-13" d="M98,158.05c0-2.06,1.18-3.21,2.91-3.21s2.9,1.16,2.9,3.21-1.17,3.27-2.9,3.27S98,160.11,98,158.05Zm4.12,0c0-1.14-.46-1.79-1.21-1.79s-1.22.65-1.22,1.79.47,1.84,1.22,1.84S102.1,159.18,102.1,158.05Z"/><path class="cls-13" d="M104.77,156.4h1.35l.11.44h0a2,2,0,0,1,1.31-.56c1.13,0,1.86,1,1.86,2.44,0,1.65-1,2.6-2,2.6a1.52,1.52,0,0,1-1.07-.48l0,.73v1.32h-1.65Zm3,2.34c0-.79-.23-1.11-.67-1.11a.82.82,0,0,0-.66.34v1.77a.92.92,0,0,0,.62.23C107.42,160,107.75,159.66,107.75,158.74Z"/><path class="cls-13" d="M110.1,158.8a2.38,2.38,0,0,1,2.3-2.52,2.06,2.06,0,0,1,2.1,2.33,3.4,3.4,0,0,1-.07.69h-2.74a1,1,0,0,0,1.12.77,2,2,0,0,0,1-.29l.54,1a3.31,3.31,0,0,1-1.75.56A2.36,2.36,0,0,1,110.1,158.8Zm3-.58a.61.61,0,0,0-.66-.69.77.77,0,0,0-.77.69Z"/><path class="cls-13" d="M115.4,156.4h1.35l.11.57h0a2.21,2.21,0,0,1,1.52-.69c1.06,0,1.5.77,1.5,2v3h-1.65v-2.75c0-.61-.16-.77-.48-.77a1,1,0,0,0-.73.37v3.15H115.4Z"/><path class="cls-14" d="M122.93,159.5l4.81,6.15-9.22-2.15q.14,3.13.28,6.27l-7.92-5.6c-1.24,2.31-2.47,4.63-3.71,7l-3.48-5.47L95,170.76l.91-7.14-7.43-3.27,7.07-3.74-2.41-8.17,8.15,4.4,1.62-7.66,6.27,6.76,6.14-8,2.08,7.27,7.53-4.14-1.32,6.6,7.53,3.57Z"/><path class="cls-15" d="M32.22,88.85l9.8-.1,5.37,14.12c.66,1.91,1.22,4,1.88,6h.21c.62-2,1.13-4.17,1.75-6.09L56.09,88.6l9.8-.1.36,34.63-8.31.09L57.84,113a118.57,118.57,0,0,1,1-12.37h-.21L55.88,109l-4.15,11.5-4.9.05L42.45,109.1l-2.86-8.28h-.21a121.32,121.32,0,0,1,1.3,12.35l.11,10.23-8.21.09Z"/><path class="cls-15" d="M79.75,88.35l11.08-.11,10.91,34.52-9.69.1-4.12-16.79c-.89-3.3-1.79-7.5-2.68-10.95H85c-.71,3.52-1.52,7.69-2.33,11L78.94,123l-9.38.1ZM77,108.58l16.94-.18.07,7.09-16.94.17Z"/><path class="cls-15" d="M104.15,88.1,116.84,88c7.56-.08,14.09,2.62,14.18,11.36.09,8.47-6.48,12.21-13.72,12.29l-3.73,0,.11,11-9.16.09Zm12.64,16.28c3.63,0,5.31-1.87,5.28-5s-2.07-4.24-5.58-4.2l-3.1,0,.1,9.16Z"/><path class="cls-13" d="M29.17,86.55l9.8-.11,5.37,14.12c.66,1.91,1.22,4,1.88,6.06h.21c.62-2,1.13-4.16,1.75-6.09L53,86.3l9.8-.11.37,34.64-8.32.08-.1-10.23a119,119,0,0,1,1-12.37h-.21l-2.79,8.34-4.15,11.5-4.9,0L39.4,106.79l-2.86-8.28h-.21a121.62,121.62,0,0,1,1.3,12.35l.11,10.23-8.21.09Z"/><path class="cls-13" d="M76.7,86.05l11.08-.12,10.91,34.52-9.69.11-4.12-16.8c-.89-3.29-1.79-7.49-2.68-11H82c-.71,3.53-1.52,7.69-2.33,11l-3.77,16.87-9.38.1Zm-2.77,20.22,16.94-.17.07,7.08L74,113.36Z"/><path class="cls-13" d="M101.1,85.79l12.69-.13c7.56-.08,14.09,2.62,14.18,11.36.09,8.47-6.48,12.22-13.72,12.29l-3.73,0,.11,11-9.16.1Zm12.64,16.28c3.63,0,5.31-1.87,5.28-5s-2.07-4.24-5.58-4.2l-3.1,0,.1,9.17Z"/></g></g></svg>