<svg width="238" height="219" viewBox="0 0 238 219" fill="none" xmlns="http://www.w3.org/2000/svg">
<path d="M227.903 197.811C235.221 194.51 238 191.94 238 191.94C238 191.94 237.823 55.0001 134.571 55.0001C25.569 55.0001 33.1115 191.94 33.1115 191.94L56.3732 202.977L91.778 209.819C91.778 209.819 117.825 212 134.571 212C151.922 212 178.874 209.672 178.874 209.672C178.874 209.672 188.574 208.416 192.859 207.684C205.112 205.59 221.183 200.523 221.183 200.523C221.183 200.523 225.985 198.676 227.903 197.811Z" fill="white"/>
<path d="M29.7785 118.705C29.7785 118.705 57.8117 117.119 63.1152 118.705C67.1907 119.923 70.7009 122.096 73.7224 124.982C79.9731 130.952 84.1337 139.975 86.8817 149.913C89.4892 159.342 90.8249 169.597 91.467 178.852C92.6043 195.239 91.5678 208.495 91.5678 208.495L60.8423 219L47.164 214.407C47.164 214.407 47.3886 206.215 47.0011 195.105C46.8886 191.873 46.7242 188.394 46.487 184.798C46.2737 181.558 46.0014 178.223 45.6555 174.888C45.4767 173.165 45.2782 171.443 45.0581 169.733L43.7545 193.122L13.0695 202.959L0.0405768 198.584C0.0405768 198.584 -0.272066 188.183 0.838303 174.888C1.49237 167.056 2.64022 158.22 4.63662 149.913C7.02774 139.964 10.6361 130.775 16.0714 124.982C19.7437 121.068 24.2501 118.705 29.7785 118.705Z" fill="white"/>
<g clip-path="url(#clip0_703_1220)">
<path d="M218.59 190.165C225.178 187.257 227.681 184.992 227.681 184.992C227.681 184.992 227.522 64.3234 134.556 64.3234C36.4128 64.3234 43.2039 184.992 43.2039 184.992L64.1482 194.717L96.0259 200.746C96.0259 200.746 119.478 202.668 134.556 202.668C150.178 202.668 174.445 200.617 174.445 200.617C174.445 200.617 183.179 199.51 187.037 198.865C198.069 197.02 212.539 192.555 212.539 192.555C212.539 192.555 216.863 190.927 218.59 190.165Z" fill="#CADBF3"/>
<path d="M134.556 144.013C146.88 144.013 157.688 143.518 167.142 142.692L161.535 113.81C161.535 113.81 174.109 112.839 182.096 111.657C189.427 110.573 200.745 108.151 200.745 108.151L199.948 108.629C199.948 108.629 189.815 111.339 182.415 112.454C174.802 113.601 162.81 114.526 162.81 114.526L167.676 142.645C179.861 141.56 189.777 139.926 197.779 138.104H198.673C198.673 138.104 201.641 147.129 203.454 152.939C204.922 157.642 207.12 165.009 207.12 165.009C211.344 163.704 214.93 162.502 214.93 162.502L213.336 163.937C213.336 163.937 202.188 167.705 194.528 169.356C186.436 171.101 173.33 173.341 173.33 173.341L175.083 200.437H174.445L171.346 171.622C178.139 170.931 190.441 169.046 195.804 168.081C198.225 167.645 202.358 166.466 206.164 165.303L198.194 138.913C198.194 138.913 180.662 142.692 167.142 143.376C154.944 143.992 136.192 144.97 136.192 144.97L135.395 173.341C134.853 173.343 135.104 173.341 134.556 173.341V144.97C134.556 144.97 114.398 145.272 101.573 144.013C96.8286 143.547 92.1608 142.829 86.9411 141.941L85.666 140.666C90.8254 141.497 95.1627 142.069 101.573 142.645C102.94 133.019 104.616 123.117 106.66 113.731C107.025 113.758 107.393 113.784 107.763 113.81L102.103 142.692C111.474 143.518 122.232 144.013 134.556 144.013Z" fill="#A0BCE7"/>
<path d="M80.7247 110.701L80.2466 110.382C80.2466 110.382 83.6326 102.145 86.4627 97.1529C89.0254 92.6321 93.7946 85.9957 93.7946 85.9957C93.7946 85.9957 103.225 86.7855 114.196 87.3899C114.196 87.3899 116.473 81.3149 118.5 77.7075C120.344 74.4264 123.919 69.7381 123.919 69.7381H124.557C124.557 69.7381 120.839 74.5167 119.297 78.0263C117.752 81.5427 115.631 87.3899 115.631 87.3899C121.731 87.7015 129.226 88.0709 134.598 88.0678C140.34 88.0645 147.357 87.7891 153.725 87.4586C163.364 86.9584 171.518 86.332 171.518 86.332L172.054 86.9521C172.054 86.9521 145.3 89.0241 134.556 89.0241C116.385 89.0241 93.954 87.1115 93.954 87.1115C93.954 87.1115 89.566 92.6039 87.2597 96.6748C84.281 101.933 80.7247 110.701 80.7247 110.701Z" fill="#A0BCE7"/>
<path d="M144.959 70.6944L144.321 69.7381L154.203 69.2599L163.289 68.6224L164.245 68.9412C164.245 68.9412 158.512 69.4055 154.841 69.7381C150.98 70.088 144.959 70.6944 144.959 70.6944Z" fill="#A0BCE7"/>
<path d="M86.3716 198.931C87.2349 185.747 87.2438 188.272 86.2868 175.095C85.7465 167.652 84.6225 159.406 82.4286 151.824C80.1159 143.832 76.6148 136.577 71.355 131.776C68.8124 129.455 65.8586 127.708 62.4292 126.728C62.4292 126.728 89.8099 131.776 104.633 171.109C116.847 203.519 168.07 200.915 168.07 200.915C168.07 200.915 145.755 203.194 127.585 202.509C119.137 202.19 99.2139 201.871 86.3716 198.931Z" fill="#A0BCE7"/>
<path d="M134.556 64.3234C123.711 64.4225 114.147 65.9773 105.715 68.6643M134.556 64.3234C145.425 64.224 155.025 65.7917 163.506 68.6387M134.556 64.3234C126.619 64.3234 119.577 66.082 113.328 69.1909M134.556 64.3234C141.11 64.3234 147.209 66.145 152.869 69.3539M134.556 64.3234V69.8975M105.715 68.6643C95.061 72.0592 86.2117 77.2616 78.8632 83.6191M105.715 68.6643C108.171 68.8534 110.72 69.0317 113.328 69.1909M105.715 68.6643L113.328 69.1909M163.506 68.6387C173.727 72.0701 182.32 77.36 189.545 83.8294M163.506 68.6387C160.12 68.9052 156.544 69.1513 152.869 69.3539M163.506 68.6387L152.869 69.3539M113.328 69.1909C116.81 69.4035 120.397 69.582 124.007 69.7064M113.328 69.1909L124.007 69.7064M152.869 69.3539C150.022 69.5109 147.116 69.6418 144.192 69.7357M134.556 69.8975C131.067 69.8975 127.526 69.8276 124.007 69.7064M134.556 69.8975L124.007 69.7064M134.556 69.8975C137.752 69.8975 140.982 69.8388 144.192 69.7357M134.556 69.8975L144.192 69.7357M134.556 173.341C148.747 173.341 160.927 172.683 171.346 171.623M134.556 173.341C120.474 173.341 108.436 172.694 98.176 171.647M134.556 173.341V144.013M171.346 171.623C173.473 188.562 174.445 200.617 174.445 200.617M171.346 171.623C178.138 170.931 184.182 170.067 189.545 169.102C196.059 167.93 201.569 166.608 206.198 165.263M98.176 171.647C96.5633 188.643 96.0259 200.746 96.0259 200.746M98.176 171.647C84.7906 170.281 74.431 168.236 66.5042 166.06M134.556 144.013C146.879 144.013 157.687 143.518 167.141 142.692M134.556 144.013C121.999 144.013 111.068 143.499 101.573 142.645M167.141 142.692C179.571 141.607 189.661 139.952 197.778 138.104M167.141 142.692C165.533 133.079 163.638 123.189 161.436 113.81M101.573 142.645C102.94 133.019 104.615 123.117 106.659 113.731M101.573 142.645C89.3016 141.542 79.4294 139.873 71.5479 138.016M134.556 114.686C144.469 114.686 153.401 114.365 161.436 113.81M134.556 114.686C124.183 114.686 114.92 114.335 106.659 113.731M134.556 114.686V88.0678M161.436 113.81C171.022 113.148 179.332 112.152 186.509 110.97M106.659 113.731C96.3217 112.976 87.5541 111.827 80.1479 110.476M134.556 88.0678C141.418 88.0678 147.809 87.9141 153.759 87.6355M134.556 88.0678C127.184 88.0678 120.372 87.8904 114.082 87.5713M153.759 87.6355C160.182 87.3346 166.09 86.8881 171.517 86.332M153.759 87.6355C150.906 80.0821 147.723 73.85 144.192 69.7357M114.082 87.5713C106.601 87.1916 99.8576 86.6112 93.7887 85.89M114.082 87.5713C116.941 80.0285 120.229 73.8085 124.007 69.7064M224.965 157.562C227.681 173.477 227.681 184.992 227.681 184.992C227.681 184.992 225.178 187.257 218.59 190.165C216.863 190.927 212.539 192.555 212.539 192.555C212.539 192.555 198.069 197.02 187.037 198.865C183.179 199.51 174.445 200.617 174.445 200.617M224.965 157.562C223.618 149.671 221.603 140.698 218.59 131.51M224.965 157.562C221.915 159.425 216.055 162.398 206.198 165.263M174.445 200.617C174.445 200.617 150.178 202.668 134.556 202.668C119.478 202.668 96.0259 200.746 96.0259 200.746M218.59 131.51C215.813 123.042 212.187 114.391 207.453 106.236M218.59 131.51C213.907 133.577 207.159 135.969 197.778 138.104M206.198 165.263C203.995 157.111 201.2 147.757 197.778 138.104M206.198 165.263L197.778 138.104M207.453 106.236C202.692 98.0347 196.81 90.3357 189.545 83.8294M207.453 106.236C201.897 107.914 194.994 109.573 186.509 110.97M189.545 83.8294C184.227 84.7861 178.24 85.6431 171.517 86.332M186.509 110.97C182.114 102.005 177.126 93.5333 171.517 86.332M44.6951 156.856C42.5456 173.136 43.2039 184.992 43.2039 184.992L64.1482 194.717L96.0259 200.746M44.6951 156.856C45.7423 148.926 47.456 139.945 50.2367 130.773M44.6951 156.856C47.3336 158.746 53.7879 162.57 66.5042 166.06M50.2367 130.773C50.4771 129.981 50.7251 129.188 50.9817 128.393C53.4478 120.751 56.6744 113.03 60.8915 105.72M50.2367 130.773C54.6582 132.966 61.4778 135.644 71.5479 138.016M66.5042 166.06C67.6012 157.608 69.2052 147.946 71.5479 138.016M60.8915 105.72C65.5626 97.6238 71.4491 90.0335 78.8632 83.6191M60.8915 105.72C65.9397 107.377 72.2748 109.04 80.1479 110.476M78.8632 83.6191C83.3137 84.4625 88.2729 85.2344 93.7887 85.89M80.1479 110.476C83.8001 101.496 88.2841 93.0452 93.7887 85.89" stroke="#231F20" stroke-width="0.637555"/>
<path d="M34.3765 126.728C34.3765 126.728 57.966 125.453 62.4289 126.728C65.8583 127.708 68.8121 129.455 71.3546 131.776C76.6145 136.577 80.1156 143.832 82.428 151.824C84.6222 159.406 85.7462 167.652 86.2865 175.095C87.2435 188.272 86.3713 198.932 86.3713 198.932L60.5162 207.379L49.0061 203.686C49.0061 203.686 49.1952 197.098 48.8691 188.164C48.7744 185.565 48.636 182.768 48.4365 179.876C48.257 177.271 48.0278 174.589 47.7368 171.907C47.5863 170.522 47.4193 169.137 47.234 167.762L46.1371 186.57L20.3162 194.48L9.3525 190.962C9.3525 190.962 9.08942 182.598 10.0238 171.907C10.5742 165.609 11.5401 158.504 13.22 151.824C15.2321 143.824 18.2685 136.435 22.8422 131.776C25.9324 128.629 29.7244 126.728 34.3765 126.728Z" fill="#CADBF3"/>
<path d="M60.5162 207.379L86.3713 198.932C86.3713 198.932 87.2435 188.272 86.2865 175.095M60.5162 207.379L49.0061 203.686C49.0061 203.686 49.1952 197.098 48.8691 188.164C48.7744 185.565 48.636 182.768 48.4365 179.876M60.5162 207.379C60.5162 207.379 61.1911 195.999 60.3944 181.789M86.2865 175.095L60.3944 181.789M86.2865 175.095C85.7462 167.652 84.6222 159.406 82.428 151.824M48.4365 179.876L60.3944 181.789M48.4365 179.876C48.257 177.271 48.0278 174.589 47.7368 171.907C47.2446 167.374 46.5751 162.842 45.6669 158.678M60.3944 181.789C59.9345 173.577 58.9829 164.42 57.1263 155.968M34.3765 126.728C34.3765 126.728 57.966 125.453 62.4289 126.728C65.8583 127.708 68.8121 129.455 71.3546 131.776M34.3765 126.728C40.2646 126.728 44.8582 129.653 48.4365 134.388M34.3765 126.728C29.7244 126.728 25.9324 128.629 22.8422 131.776M71.3546 131.776C76.6145 136.577 80.1156 143.832 82.428 151.824M71.3546 131.776L48.4365 134.388M48.4365 134.388C52.512 139.781 55.2711 147.523 57.1263 155.968M48.4365 134.388L39.9052 143.854M22.8422 131.776L29.1392 142.101M22.8422 131.776C18.2685 136.435 15.2321 143.824 13.22 151.824M20.3162 194.48L9.3525 190.962C9.3525 190.962 9.08942 182.598 10.0238 171.907M20.3162 194.48C20.3162 194.48 20.1171 185.643 20.8241 175.095M20.3162 194.48L20.8241 175.095M20.3162 194.48L46.1371 186.57L47.234 167.762L20.8241 175.095M10.0238 171.907C10.5742 165.609 11.5401 158.504 13.22 151.824M10.0238 171.907L20.8241 175.095M20.8241 175.095C21.2445 168.825 21.9849 161.95 23.2778 155.968M82.428 151.824L57.1263 155.968M57.1263 155.968L45.6669 158.678M45.6669 158.678C45.2793 156.901 44.8483 155.191 44.3692 153.577C43.1942 149.62 41.7297 146.239 39.9052 143.854M39.9052 143.854C38.3414 141.811 36.5132 140.5 34.3765 140.189C32.356 139.894 30.6239 140.619 29.1392 142.101M29.1392 142.101C26.4596 144.776 24.5859 149.915 23.2778 155.968M23.2778 155.968L13.22 151.824M23.2778 155.968L43.8164 151.824" stroke="#231F20" stroke-width="0.637555"/>
<path d="M48.8691 188.005C48.7745 185.406 48.6361 182.608 48.4365 179.717C48.2571 177.111 48.0279 174.429 47.7368 171.747C47.5921 170.416 47.4324 169.084 47.2558 167.762L46.1372 186.57L48.8691 188.005Z" fill="black" stroke="#231F20" stroke-width="0.318777"/>
</g>
<path d="M38.2133 68.5535C39.1906 67.9285 39.7881 67.2852 40.0059 66.6235C40.2129 65.9451 40.1333 65.3194 39.7669 64.7465C39.4328 64.2243 38.9919 63.9246 38.4441 63.8477C37.8855 63.7538 37.1739 63.8291 36.3093 64.0735L34.3686 64.6026C33.5991 64.8099 32.8723 64.9542 32.1884 65.0356C31.5044 65.1169 30.8693 65.1077 30.2831 65.0078C29.6862 64.891 29.1411 64.6699 28.648 64.3443C28.1441 64.0019 27.6873 63.5105 27.2778 62.8703C26.4049 61.5056 26.2291 60.0986 26.7504 58.6493C27.2608 57.1833 28.409 55.8791 30.195 54.7368C30.9026 54.2841 31.589 53.9282 32.2541 53.669C32.9253 53.3821 33.5446 53.1997 34.112 53.1217C34.6686 53.0268 35.1564 53.0472 35.5755 53.1827C36.0114 53.3075 36.3425 53.5468 36.5688 53.9006C36.7844 54.2376 36.8887 54.5863 36.8819 54.9468C36.8811 55.2796 36.8113 55.5973 36.6724 55.8998C36.0848 55.872 35.3894 55.9726 34.5862 56.2015C33.789 56.4027 32.9945 56.7566 32.2026 57.2631C31.3265 57.8235 30.7634 58.4092 30.5132 59.0203C30.2523 59.6145 30.2942 60.1812 30.6391 60.7204C30.9193 61.1584 31.2864 61.3984 31.7406 61.4403C32.2116 61.4714 32.8541 61.381 33.6681 61.1689L35.3996 60.7025C37.1456 60.203 38.6654 60.0737 39.9591 60.3146C41.2528 60.5555 42.3145 61.3246 43.1443 62.6219C43.5861 63.3127 43.8554 64.0307 43.9523 64.776C44.0491 65.5213 43.9711 66.2715 43.7182 67.0268C43.4714 67.7545 43.0305 68.4757 42.3956 69.1904C41.7883 69.9112 40.996 70.5842 40.0188 71.2092C39.2438 71.7049 38.4846 72.0955 37.7413 72.381C37.0149 72.6557 36.3457 72.8345 35.7339 72.9172C35.1112 72.983 34.5681 72.9505 34.1046 72.8197C33.6471 72.6612 33.2998 72.3967 33.0628 72.026C32.8149 71.6385 32.7143 71.2399 32.7609 70.8302C32.8136 70.3929 32.9484 70.0099 33.1655 69.6811C33.8238 69.7824 34.6007 69.7722 35.4962 69.6504C36.381 69.5119 37.2867 69.1462 38.2133 68.5535Z" fill="white"/>
<path d="M60.1158 42.0276C60.2847 42.3902 60.3328 42.7539 60.2601 43.1188C60.179 43.4655 60.0453 43.7705 59.8591 44.0338C59.2441 43.9452 58.5874 43.9092 57.8891 43.9257C57.1907 43.9422 56.4155 44.149 55.5634 44.546C54.0225 45.264 53.022 46.3369 52.5621 47.7648C52.1202 49.1842 52.3385 50.8366 53.217 52.722C54.1124 54.6436 55.2553 55.8652 56.6457 56.3868C58.0361 56.9084 59.5289 56.7975 61.1242 56.0542C61.9581 55.6656 62.6235 55.2232 63.1204 54.7269C63.627 54.204 64.0441 53.6787 64.3719 53.1508C64.7017 53.1957 65.0158 53.3252 65.3141 53.5393C65.604 53.7352 65.8334 54.0144 66.0023 54.377C66.1459 54.6852 66.1952 55.0042 66.1503 55.334C66.1054 55.6638 65.9391 56.0171 65.6513 56.3939C65.3901 56.7804 64.9664 57.2206 64.3801 57.7144C63.8204 58.2179 63.051 58.6977 62.0721 59.1539C60.8756 59.7114 59.6804 60.0586 58.4866 60.1957C57.3024 60.3061 56.165 60.1852 55.0741 59.833C53.9748 59.4626 52.9542 58.8349 52.0123 57.9499C51.0704 57.0649 50.2574 55.8882 49.5732 54.4198C48.9143 53.0058 48.5532 51.6626 48.4899 50.3903C48.4182 49.0998 48.585 47.9189 48.9904 46.8474C49.4055 45.7494 50.0229 44.7777 50.8426 43.9324C51.6804 43.0787 52.6613 42.3899 53.7853 41.8662C54.5648 41.503 55.3056 41.2461 56.0077 41.0955C56.7013 40.9267 57.3297 40.8546 57.8927 40.8791C58.4557 40.9036 58.9269 41.015 59.3061 41.2134C59.6854 41.4118 59.9553 41.6832 60.1158 42.0276Z" fill="white"/>
<path d="M79.4154 51.8176C79.2548 51.9081 79.0204 52.0313 78.7124 52.1873C78.4236 52.3375 78.0973 52.4677 77.7336 52.5779C77.0063 52.7982 76.4489 52.8208 76.0614 52.6456C75.6932 52.4646 75.4133 52.0583 75.222 51.4267L70.4119 35.5493C70.5534 35.4646 70.7782 35.3443 71.0862 35.1883C71.4133 35.0265 71.7396 34.8963 72.065 34.7977C72.754 34.589 73.299 34.5597 73.6997 34.71C74.1005 34.8602 74.4024 35.2703 74.6053 35.9402L76.3189 41.5964L83.4967 39.4218L81.3222 32.244C81.4637 32.1593 81.6885 32.039 81.9965 31.883C82.3236 31.7212 82.6499 31.591 82.9753 31.4924C83.6643 31.2836 84.2122 31.264 84.6188 31.4334C85.0195 31.5836 85.3214 31.9937 85.5244 32.6636L90.3258 48.5123C90.1651 48.6028 89.9308 48.726 89.6228 48.882C89.3339 49.0322 89.0076 49.1624 88.6439 49.2726C87.9166 49.4929 87.3592 49.5155 86.9718 49.3403C86.6035 49.1593 86.3236 48.753 86.1323 48.1214L84.4013 42.4078L77.2235 44.5823L79.4154 51.8176Z" fill="white"/>
<path d="M102.165 46.1468C101.533 46.2457 100.999 46.1369 100.565 45.8202C100.151 45.5004 99.8941 45.0244 99.7951 44.3921L97.6149 30.4617C97.516 29.8294 97.6165 29.3075 97.9165 28.8962C98.2332 28.462 98.7077 28.1954 99.34 28.0965L109.151 26.5611C109.274 26.7037 109.395 26.8972 109.515 27.1417C109.634 27.3862 109.718 27.6666 109.768 27.9827C109.848 28.4965 109.791 28.9102 109.598 29.224C109.404 29.5377 109.099 29.727 108.685 29.792L101.512 30.9146L102.171 35.1233L109.402 33.9915C109.526 34.1341 109.647 34.3276 109.767 34.5722C109.903 34.7938 109.995 35.0627 110.045 35.3789C110.212 36.4459 109.841 37.0505 108.932 37.1928L102.648 38.1762L103.367 42.7702L111.607 41.4807C111.731 41.6233 111.853 41.8267 111.976 42.091C112.115 42.3324 112.209 42.6112 112.259 42.9273C112.426 43.9943 112.055 44.599 111.146 44.7412L102.165 46.1468Z" fill="white"/>
<path d="M134.221 34.162C134.203 33.0821 134.038 32.1547 133.725 31.3797C133.412 30.5847 132.981 29.9416 132.433 29.4505C131.905 28.9391 131.269 28.5694 130.525 28.3415C129.801 28.0933 129.009 27.9763 128.149 27.9903C127.689 27.9978 127.269 28.0247 126.89 28.0709C126.53 28.0967 126.181 28.1325 125.842 28.178L126.043 40.5064C126.384 40.5808 126.765 40.6346 127.186 40.6677C127.626 40.6805 128.056 40.6835 128.476 40.6766C130.336 40.6463 131.767 40.0828 132.769 38.9863C133.771 37.8898 134.255 36.2817 134.221 34.162ZM138.21 34.0668C138.236 35.6866 138.019 37.1103 137.559 38.338C137.119 39.5454 136.475 40.556 135.628 41.3699C134.781 42.1639 133.751 42.7708 132.538 43.1907C131.344 43.6102 130.008 43.8321 128.528 43.8562C128.188 43.8618 127.818 43.8578 127.418 43.8444C127.018 43.8509 126.597 43.8277 126.156 43.7749C125.736 43.7418 125.305 43.6888 124.864 43.616C124.442 43.5429 124.041 43.4394 123.658 43.3057C122.693 42.9614 122.203 42.3693 122.189 41.5294L121.949 26.8314C121.943 26.4714 122.039 26.1898 122.235 25.9866C122.432 25.7834 122.709 25.6188 123.067 25.4929C123.803 25.2209 124.6 25.0479 125.459 24.9738C126.338 24.8795 127.167 24.8259 127.947 24.8132C129.447 24.7887 130.82 24.9663 132.066 25.346C133.332 25.7054 134.412 26.2678 135.304 27.0333C136.197 27.7989 136.893 28.7676 137.392 29.9396C137.911 31.1113 138.184 32.487 138.21 34.0668Z" fill="white"/>
<path d="M154.936 45.3232C153.746 45.1659 152.706 44.8671 151.816 44.4266C150.929 43.9663 150.197 43.3955 149.622 42.7142C149.069 42.0157 148.678 41.2277 148.451 40.3504C148.227 39.4533 148.184 38.4793 148.323 37.4284L149.861 25.7996C150.025 25.7809 150.279 25.7641 150.624 25.7492C150.989 25.7369 151.34 25.7531 151.677 25.7976C152.391 25.892 152.889 26.089 153.172 26.3887C153.475 26.6911 153.581 27.1892 153.489 27.8832L152.18 37.787C152.014 39.0361 152.234 40.0436 152.839 40.8095C153.447 41.5556 154.286 41.9994 155.356 42.1409C156.427 42.2825 157.353 42.072 158.133 41.5094C158.916 40.9271 159.39 40.0113 159.555 38.7622L161.073 27.2821C161.257 27.266 161.521 27.2505 161.866 27.2356C162.211 27.2207 162.552 27.2355 162.889 27.2801C163.603 27.3745 164.111 27.5728 164.414 27.8751C164.717 28.1775 164.823 28.6756 164.731 29.3696L163.402 39.4221C163.263 40.4729 162.969 41.4024 162.519 42.2104C162.072 42.9986 161.481 43.6567 160.745 44.1849C160.012 44.6932 159.157 45.0543 158.181 45.2681C157.207 45.4622 156.125 45.4805 154.936 45.3232Z" fill="white"/>
<path d="M174.456 48.5793C173.838 48.4102 173.397 48.0922 173.131 47.6253C172.884 47.1637 172.845 46.6243 173.014 46.007L177.287 30.4117C177.452 30.4154 177.706 30.4333 178.05 30.4652C178.413 30.5025 178.758 30.566 179.086 30.6559C179.781 30.8461 180.258 31.1116 180.517 31.4522C180.776 31.7928 180.813 32.3006 180.628 32.9757L177.069 45.967L184.505 48.0043C184.559 48.185 184.597 48.4236 184.62 48.7201C184.648 48.9973 184.619 49.2902 184.535 49.5988C184.392 50.1196 184.156 50.4903 183.825 50.711C183.52 50.9176 183.155 50.9628 182.731 50.8465L174.456 48.5793Z" fill="white"/>
<path d="M194.708 55.0183C194.117 54.7723 193.72 54.4008 193.515 53.904C193.329 53.4148 193.358 52.8748 193.604 52.284L199.024 39.267C199.27 38.6762 199.628 38.2838 200.099 38.0898C200.596 37.8851 201.14 37.9057 201.73 38.1517L210.898 41.9683C210.928 42.1544 210.931 42.3829 210.905 42.6537C210.879 42.9245 210.804 43.2076 210.681 43.503C210.481 43.983 210.217 44.3062 209.888 44.4724C209.558 44.6387 209.2 44.6411 208.812 44.4797L202.11 41.6892L200.472 45.622L207.23 48.4355C207.261 48.6216 207.263 48.8501 207.237 49.1209C207.237 49.3809 207.176 49.6586 207.053 49.954C206.638 50.951 206.006 51.2728 205.156 50.9191L199.285 48.4747L197.498 52.7675L205.197 55.973C205.228 56.1591 205.226 56.3968 205.193 56.6861C205.185 56.9645 205.12 57.2515 204.997 57.5469C204.582 58.5439 203.949 58.8656 203.1 58.512L194.708 55.0183Z" fill="white"/>
<defs>
<clipPath id="clip0_703_1220">
<rect width="219" height="153.332" fill="white" transform="translate(9 64.0001)"/>
</clipPath>
</defs>
</svg>
