<?xml version="1.0" encoding="UTF-8"?>
<svg xmlns="http://www.w3.org/2000/svg" xmlns:xlink="http://www.w3.org/1999/xlink" viewBox="0 0 792 612">
  <defs>
    <style>
      .cls-1, .cls-2, .cls-3, .cls-4, .cls-5 {
        fill: none;
      }

      .cls-2 {
        stroke-width: 3px;
      }

      .cls-2, .cls-6, .cls-3, .cls-7, .cls-4, .cls-5 {
        stroke-miterlimit: 10;
      }

      .cls-2, .cls-4 {
        stroke: #9ad7ee;
      }

      .cls-8, .cls-6, .cls-9 {
        fill: #fff;
      }

      .cls-10 {
        fill: #857150;
      }

      .cls-11 {
        fill: #b39277;
      }

      .cls-12 {
        fill: #0e0f12;
      }

      .cls-13 {
        fill: #271f14;
      }

      .cls-14 {
        fill: #493c29;
      }

      .cls-15 {
        fill: #4f432f;
      }

      .cls-6, .cls-5 {
        stroke: #adc4e2;
        stroke-width: 4px;
      }

      .cls-3 {
        stroke: #251e16;
        stroke-width: 5px;
      }

      .cls-7 {
        fill: #0d0f12;
        stroke: #fff;
        stroke-width: .5px;
      }

      .cls-16 {
        fill: #0c0f11;
      }

      .cls-16, .cls-17, .cls-18 {
        opacity: .35;
      }

      .cls-16, .cls-17, .cls-19 {
        mix-blend-mode: multiply;
      }

      .cls-17 {
        fill: #0c0e13;
      }

      .cls-4 {
        stroke-width: 2px;
      }

      .cls-20 {
        isolation: isolate;
      }

      .cls-19, .cls-9 {
        opacity: .3;
      }

      .cls-21 {
        fill: #9ad7ee;
      }

      .cls-21, .cls-22 {
        opacity: .5;
      }

      .cls-22 {
        fill: #c1dbff;
      }

      .cls-23 {
        clip-path: url(#clippath);
      }
    </style>
    <clipPath id="clippath">
      <path class="cls-1" d="M121.05826,472.90953l28.7972,16.45554,34.49335,14.55683,39.87305,13.29102,30.37946,7.91132,37.97433,8.86068,34.49335,3.16453,57.27795,4.43034,41.45531-.31645,54.11342-5.06324,64.55636-12.34166,37.97433-11.70875,44.61984-16.772,35.44271-18.67071,8.86068-5.3797,4.11389,8.54422c4.43158,2.02781-81.84133,48.08517-178.47935,62.65761-79.7461,12.02524-177.47641,5.50638-222.14983-3.16449-59.09395-11.46982-140.08309-46.09664-158.85929-60.12603l5.06324-6.32906Z"/>
    </clipPath>
  </defs>
  <g class="cls-20">
    <g id="boards">
      <rect class="cls-10" x="214.47651" y="104.62347" width="363.214" height="41.0932"/>
      <rect class="cls-10" x="117.20149" y="150.64496" width="556.244" height="41.0932"/>
      <rect class="cls-10" x="67.47267" y="196.66645" width="659.19127" height="41.0932"/>
      <rect class="cls-10" x="49.18598" y="242.68794" width="693.01168" height="41.0932"/>
      <rect class="cls-10" x="49.18598" y="288.70943" width="693.01168" height="41.0932"/>
      <rect class="cls-10" x="49.18598" y="334.73092" width="693.01168" height="41.0932"/>
      <rect class="cls-10" x="65.0181" y="380.75241" width="657.79237" height="41.0932"/>
      <rect class="cls-10" x="117.29049" y="426.7739" width="556.61443" height="41.0932"/>
      <rect class="cls-10" x="214.50906" y="472.79539" width="362.41669" height="41.0932"/>
    </g>
    <g id="board_detail" data-name="board detail" class="cls-18">
      <path class="cls-11" d="M251.54754,134.49628c13.85367-2.7207,28.02901-3.79974,42.13487-3.20735,17.99007,.75552,35.79924,4.2129,53.79918,4.67706,14.33482,.36965,28.6482-1.16283,42.98503-1.44404,30.15571-.5915,60.6705,4.32828,90.29389-1.34374,8.44422-1.61682,16.74986-4.08726,25.31165-4.87144s17.65991,.29192,24.73193,5.18124c-18.68148,2.74844-37.49689,4.58636-56.35711,5.50504-20.18965,.98344-40.4141,.91368-60.62756,.8437l-75.17586-.26029c-31.50028-.10907-63.11748-.22615-87.09603-5.08017Z"/>
      <path class="cls-11" d="M320.89746,122.45537l33.25539,1.40134c7.77093,.32746,15.54978,.65552,23.27745,1.5374,6.03641,.68888,12.05002,1.71618,18.12413,1.85004,5.32434,.11734,10.63716-.4534,15.93221-1.02332l62.49805-6.7269c.96936,.70352,.93877,2.25366,.23947,3.22606s-1.85444,1.49414-2.97282,1.92289c-11.89696,4.56091-25.10287,3.28702-37.80412,4.29586-6.66847,.52967-13.27372,1.7048-19.94391,2.21238-26.39124,2.0083-52.72978-6.46964-79.1317-4.60692-9.24203,.65205-19.55774,2.28516-26.9073-3.35613,3.36917-1.46996,6.58824-1.02114,13.43314-.7327Z"/>
      <path class="cls-11" d="M124.01994,174.15975c23.38286-1.69536,46.95358-3.39017,70.29677-1.38289,15.88324,1.3658,31.45178,4.4303,47.25557,6.28339,48.36265,5.67082,97.52292-.09844,146.35529-2.02552,98.09847-3.87128,199.2845,7.55028,292.71708-16.36157l3.02735,19.52517c-19.1956,1.84296-38.54122,2.47613-57.86467,3.04909-89.68736,2.65928-179.43486,4.0548-269.18532,4.18566-84.30036,.12291-168.9812-.89483-232.60207-13.27334Z"/>
      <path class="cls-11" d="M117.35959,158.05714c34.39358,8.20246,70.3029,5.59109,105.61482,3.78352,153.71803-7.86865,307.83564,.45049,461.68419-4.2157-32.06695,9.00586-65.87332,9.02863-99.18088,8.98634-147.23972-.18697-294.47944-.37395-441.71916-.56092-16.56189-.02103-35.56592-1.1772-26.39896-7.99324Z"/>
      <path class="cls-11" d="M38.24334,220.45521c76.36378-8.50475,153.72422,5.41762,230.44997,.61768,34.089-2.1326,68.12467-7.95918,102.1974-5.60673,27.8195,1.92071,54.9868,9.26385,82.81671,11.04524,47.10301,3.01506,94.37624-9.98735,141.29272-5.01837,22.73621,2.40801,45.34211,9.02208,68.06587,6.51171,20.63146-2.27923,40.50735-12.02783,61.13677-9.73227-56.88571,26.38107-124.22625,11.12431-187.61271,10.42838-42.96706-.47174-86.17933,6.05176-128.74429,.5006-14.76773-1.92595-29.3145-5.29396-44.15058-6.67578-22.18066-2.06588-44.51447,.34369-66.72533,2.0974-83.95667,6.62902-168.39166,3.87958-258.72654-4.16786Z"/>
      <path class="cls-11" d="M54.86903,251.30593l73.57378,3.67516c17.12844,.8556,34.2777,1.71147,51.42078,1.23135,23.45129-.6568,46.76216-3.80971,70.18617-5.11744,28.8136-1.60862,57.69979-.42118,86.54329,.50829,136.39089,4.39512,272.96792,3.01031,409.24165-4.14949-4.62061,12.0751-20.55846,14.09908-33.48725,14.16692-33.73064,.17695-67.46127,.35391-101.19191,.53087-97.61927,.51213-195.2386,1.02426-292.8586,1.36895-32.70336,.11547-65.40678,.21216-98.11019,.30884l-142.72548,.42195c-10.77173,.03185-25.40873-3.75544-22.59223-12.94539Z"/>
      <path class="cls-11" d="M30.0707,270.25994c17.73678,6.88567,37.70631,3.07376,56.75822,1.38063,13.52942-1.20237,27.13701-1.27519,40.72413-1.34708,212.08694-1.12227,424.17388-2.24454,636.26082-3.36682-29.08616,10.61673-61.17077,9.51604-92.27647,8.62574-197.7791-5.6608-395.66908,3.12777-593.53389,4.03426-20.64923,.0946-43.13357-.49258-47.93281-9.32672Z"/>
      <path class="cls-11" d="M36.44059,316.18873c57.61799,2.06291,115.18059-3.92648,172.78309-6.38424,178.64692-7.62243,358.3711,18.70194,536.0046-1.77152,3.29724,5.90804-6.06078,10.54874-12.81639,10.92075-105.75948,5.82374-211.80135,3.62492-317.63596-.6198-21.83416-.8757-43.69702-1.83846-65.52863-.9012-25.16278,1.08027-50.19895,4.68167-75.38405,4.89028-34.77102,.28801-69.38842-5.89466-104.15001-5.03525-29.44198,.72789-58.61557,6.50176-88.06595,6.68881-15.42562,.09797-30.86063-1.34419-45.2067-7.78782Z"/>
      <path class="cls-11" d="M18.34075,300.81105l98.78016-2.80029c26.12331-.74056,52.24724-1.48114,78.37592-1.88795,120.14777-1.87062,240.2891,3.31691,360.44527,4.18115,72.62867,.52239,145.40286-.54414,217.61107-9.6749,2.04732,8.1167-7.85324,12.56492-15.08884,12.96624-171.53622,9.51378-343.39156-3.3642-515.10963-1.05443-77.48158,1.0422-154.90553,5.1764-225.01395-1.72981Z"/>
      <path class="cls-11" d="M95.68812,201.09089c80.18515,17.92035,163.5279,4.15142,245.65581,1.74217,54.46214-1.59766,108.92748,1.84956,163.38946,3.45251,62.46044,1.83837,124.99226,1.2502,187.40706-1.76272-28.62924,13.4113-61.90774,9.10115-93.48528,7.56641-50.50407-2.45463-101.08081,2.95576-151.63726,2.10068-43.8737-.74205-87.62441-6.20118-131.49797-5.45077-37.42246,.64007-74.63626,5.7943-112.04074,7.11902s-75.72325-1.3713-107.79108-14.76731Z"/>
      <path class="cls-11" d="M32.38177,392.95342c77.01631-8.50472,155.0378,5.41768,232.41918,.61776,34.38029-2.13259,68.7068-7.95915,103.07069-5.6067,28.05721,1.92072,69.27977,.29769,97.34749,2.07908,47.50551,3.01507,80.6018-3.12215,127.91918,1.84683,22.93049,2.40802,44.95692,7.7608,67.87486,5.25044,20.80776-2.27922,42.38391-8.6655,63.18961-6.36993-57.37181,26.38105-106.80899,10.42832-182.49124,10.42832-43.33678,0-49.79441-9.03716-92.63774-2.86176-25.80576,3.71962-52.14133,1.38283-88.45915-3.31348-22.27988-2.88104-44.89485,.34367-67.2955,2.09738-84.67409,6.62899-169.83058,3.87952-260.93737-4.16795Z"/>
      <path class="cls-11" d="M69.12088,403.32028c86.57129,17.72943,158.93365,1.7236,265.22041,1.72359,58.82191,0,117.60272,1.82985,176.40218,3.41572,67.43493,1.81878,133.6511,5.48643,202.3326-1.74396-30.90934,13.26843-66.83822,9.0042-100.93067,7.48581-54.52634-2.42847-82.72807,4.87398-137.31096,4.02801-47.36791-.73414-121.00607-8.0848-168.37382-7.34238-40.40287,.63326-80.58047,5.73258-120.96392,7.04319-40.38346,1.31061-81.75403-1.35668-116.37581-14.60998Z"/>
      <path class="cls-11" d="M116.38444,440.06631c20.33526-2.84768,40.96594-3.06887,61.52111-3.28463,61.76237-.64831,123.52475-1.29662,185.28712-1.94494,43.71776-.4589,87.46178-.91743,131.14043,.89228,57.45369,2.38044,115.41473,8.65672,171.63409-1.81815-2.38833,9.42418-15.06666,12.03166-25.2939,12.41221-36.33135,1.35187-72.64653-2.01317-108.9624-3.69709-59.63281-2.7651-119.38468-.99672-179.05971,.77218-79.42779,2.35441-158.85557,4.70881-236.26674-3.33186Z"/>
      <path class="cls-11" d="M162.68855,459.02135c108.14049-13.92795,271.41952-10.99928,387.32582-9.16052,20.36614,.32309,65.06913,6.34914,84.42494,12.69239-28.15317,3.50148-81.37876-7.27606-109.74841-7.43077-14.77772-.08059-60.8472,1.01401-75.61711,1.50138-23.8801,.788-89.48261-.52623-113.3558-1.50138-73.2224-2.99092-111.69479,16.28073-173.02944,3.89891Z"/>
      <path class="cls-11" d="M25.69143,342.5944c74.58979-1.68261,122.22265,4.90987,196.71329,.69271,37.62722-2.1302,82.9961-1.59077,110.94225-1.18355l68.59149,.99949c25.74358,.37513,51.48737,.75026,77.22793,1.28509,90.2514,1.87523,180.87026,5.69873,270.54402-4.3282-3.3827,9.97595-16.84644,11.97158-27.70929,12.182-84.72353,1.64112-169.48955,1.23366-254.19199-1.22186-78.02161-2.26185-156.32212-6.25247-233.9762,1.3979-15.38981,1.51618-30.82705,3.49132-46.27297,2.6644-15.94216-.85348-53.01697-7.0441-68.97104-7.0441-74.88998,0-57.67268-2.79313-92.89749-5.44388Z"/>
      <path class="cls-11" d="M62.80116,363.49621c46.95615-5.55879,94.43756-3.11616,141.69341-1.48354,49.60455,1.71376,99.23041-7.09579,148.86365-6.73515s102.98245,5.40839,152.61651,5.31786c30.20116-.05509,76.20482-4.17487,113.09236,2.07628,50.10196,8.49054,75.52727,2.0518,126.10372-2.87951-34.58476,13.43851-72.88015,12.0602-109.96945,11.01942-64.89116-1.82096-130.14696-8.76477-194.73213-2.21233-78.56948,7.97121-146.20438-.44058-219.30657-.66088l-44.82945-.13509c-42.56421-.12827-85.35877-.23912-127.36739,6.61685,3.00641-6.09826,10.2527-10.49978,13.83534-10.9239Z"/>
    </g>
    <g id="board_bkgd_lines" data-name="board bkgd lines">
      <rect class="cls-15" x="49.18598" y="283.78114" width="693.01168" height="4.92829"/>
      <rect class="cls-15" x="48.2893" y="237.75965" width="693.01168" height="4.92829"/>
      <rect class="cls-15" x="91.56882" y="191.73816" width="607.97949" height="4.92829"/>
      <rect class="cls-15" x="135.8209" y="145.71667" width="497.57436" height="4.92829"/>
      <rect class="cls-15" x="106.81789" y="421.84561" width="589.55148" height="4.92829"/>
      <rect class="cls-15" x="49.33415" y="375.82412" width="693.01168" height="4.92829"/>
      <rect class="cls-15" x="48.78036" y="329.80263" width="693.01168" height="4.92829"/>
      <rect class="cls-15" x="139.62081" y="467.8671" width="496.16021" height="4.92829"/>
    </g>
    <g id="board_highlights" data-name="board highlights">
      <rect class="cls-9" x="50.12359" y="288.70943" width="691.41182" height="2.82435"/>
      <rect class="cls-9" x="50.12359" y="242.68794" width="691.41182" height="2.82435"/>
      <rect class="cls-9" x="86.34941" y="196.66645" width="613.1989" height="2.82435"/>
      <rect class="cls-9" x="143.27794" y="150.64496" width="495.79576" height="2.82435"/>
      <rect class="cls-9" x="155.69789" y="472.79539" width="492.47053" height="2.82435"/>
      <rect class="cls-9" x="100.93961" y="426.7739" width="604.30238" height="2.82435"/>
      <rect class="cls-9" x="50.12359" y="380.75241" width="675.24075" height="2.82435"/>
      <rect class="cls-9" x="50.12359" y="334.73092" width="691.41182" height="2.82435"/>
    </g>
    <g id="sign_frame" data-name="sign frame">
      <path class="cls-14" d="M395.69182,77.03197C182.03897,77.03197,8.83482,181.00605,8.83482,309.25603s173.20414,232.22406,386.857,232.22406,386.857-103.97408,386.857-232.22406S609.34467,77.03197,395.69182,77.03197Zm252.77899,361.84135c-66.88769,40.14608-156.66153,62.25896-252.77899,62.25896s-185.8913-22.11289-252.77899-62.25896c-60.44325-36.29062-93.7302-82.32068-93.7302-129.61729s33.28695-93.32674,93.7302-129.61736c66.88769-40.14608,156.66153-62.25889,252.77899-62.25889s185.8913,22.11282,252.77899,62.25889c60.44325,36.29062,93.7302,82.32075,93.7302,129.61736s-33.28695,93.32667-93.7302,129.61729Z"/>
    </g>
    <g id="frame_detail" data-name="frame detail">
      <polygon class="cls-13" points="62.30531 429.8697 58.67668 425.32739 79.59969 428.35221 62.30531 429.8697"/>
      <polygon class="cls-13" points="262.84106 129.68336 201.24399 128.19443 259.20505 125.44134 279.10213 126.65334 262.84106 129.68336"/>
      <g>
        <polygon class="cls-13" points="100.34935 158.14655 157.96005 156.93463 94.81134 163.79315 100.34935 158.14655"/>
        <polygon class="cls-13" points="187.95663 157.77635 156.55908 157.08679 191.74454 154.72376 187.95663 157.77635"/>
      </g>
      <polygon class="cls-13" points="206.69886 109.89151 290.32355 106.45792 247.01593 105.23954 209.46789 107.01172 206.69886 109.89151"/>
      <polygon class="cls-13" points="285.85717 106.6413 385.96188 101.6504 449.0738 105.3425 381.64049 105.07176 285.85717 106.6413"/>
      <polyline class="cls-13" points="449.0738 105.3425 593.13832 103.06513 587.83989 106.6413"/>
      <polygon class="cls-13" points="533.36074 133.44764 599.96705 135.78456 548.77958 137.60304 533.36074 133.44764"/>
      <polygon class="cls-13" points="651.24992 132.23149 617.20814 135.52534 651.67049 135.52534 651.24992 132.23149"/>
      <polygon class="cls-13" points="111.39505 201.36059 58.35156 198.07863 97.56987 197.09545 117.36781 195.73986 111.39505 201.36059"/>
      <polygon class="cls-13" points="38.58257 219.79964 79.22054 221.03133 35.24104 223.67067 38.58257 219.79964"/>
      <polygon class="cls-13" points="149.90737 176.74798 131.76322 175.64536 153.11787 173.75128 149.90737 176.74798"/>
      <polygon class="cls-13" points="681.98534 201.00238 742.62118 201.8401 686.57714 205.22037 681.98534 201.00238"/>
      <g>
        <polygon class="cls-13" points="591.22208 461.5808 649.26343 461.11667 619.18013 464.03191 585.52744 463.42187 591.22208 461.5808"/>
        <polygon class="cls-13" points="647.9888 461.22333 698.45702 457.21108 688.61958 462.57429 647.9888 461.22333"/>
      </g>
      <polygon class="cls-13" points="588.48039 489.81035 639.86871 488.12738 636.95495 492.14493 588.48039 489.81035"/>
      <polygon class="cls-13" points="715.44774 383.57676 758.47681 386.12006 712.30326 387.71157 715.44774 383.57676"/>
      <polygon class="cls-13" points="756.11421 265.46592 775.57404 264.13912 776.01631 267.97211 756.11421 265.46592"/>
      <polygon class="cls-13" points="739.44618 286.69684 773.0865 288.96171 739.14192 290.48126 739.44618 286.69684"/>
      <polygon class="cls-13" points="737.33127 333.18154 782.43793 329.80263 779.81597 334.36168 737.33127 333.18154"/>
      <polygon class="cls-13" points="717.34671 241.54574 763.81388 244.10012 722.81047 247.37547 717.34671 241.54574"/>
      <polygon class="cls-13" points="751.61758 213.35086 750.33533 216.13418 731.45324 215.90781 751.61758 213.35086"/>
      <path class="cls-13" d="M225.40501,517.52103l144.70367,2.74053,50.58238,1.91356-77.52807,3.06868c-4.32765,.1713-8.66056,.16233-12.98746-.02687l-93.00536-4.0668-11.76515-3.6291Z"/>
      <polygon class="cls-13" points="407.84679 522.48993 475.43153 516.63223 513.0938 518.98163 407.84679 522.48993"/>
      <polygon class="cls-13" points="498.57248 519.23331 582.46189 512.67033 566.97014 519.43466 498.57248 519.23331"/>
      <polygon class="cls-13" points="749.56546 332.40383 782.56506 332.22122 782.01402 337.24062 749.56546 332.40383"/>
      <polygon class="cls-13" points="505.97472 491.99958 572.72544 490.27241 517.75715 489.09206 505.97472 491.99958"/>
      <polygon class="cls-13" points="465.21913 119.52706 535.46744 123.17423 489.41806 125.17007 465.21913 119.52706"/>
      <polygon class="cls-13" points="266.49827 488.38603 219.34731 493.03973 272.8985 494.45469 298.90141 494.60214 266.49827 488.38603"/>
      <polygon class="cls-13" points="158.25496 491.53517 230.5275 492.934 161.86859 495.1488 158.25496 491.53517"/>
      <g>
        <polygon class="cls-13" points="670.93947 422.25433 727.81652 423.93549 661.37622 427.90947 670.93947 422.25433"/>
        <polygon class="cls-13" points="729.36681 426.47752 711.55755 424.27976 736.51606 421.84561 729.36681 426.47752"/>
      </g>
      <polygon class="cls-13" points="63.38401 251.29187 54.51356 248.96866 20.586 247.72173 55.04156 246.64544 66.55203 246.32864 63.38401 251.29187"/>
      <polygon class="cls-13" points="51.13347 287.068 17.27532 282.26997 53.20676 282.55362 51.13347 287.068"/>
      <polygon class="cls-13" points="62.91439 429.49926 121.12265 423.76663 126.70829 427.00042 62.91439 429.49926"/>
      <polygon class="cls-13" points="179.10541 459.02135 115.99502 464.8331 189.40114 464.39338 179.10541 459.02135"/>
      <polygon class="cls-13" points="9.77949 292.89762 31.39251 295.11539 10.20595 296.86017 9.77949 292.89762"/>
      <polygon class="cls-13" points="30.0707 385.32429 82.61183 387.13217 33.34746 389.50498 30.0707 385.32429"/>
      <g>
        <polygon class="cls-13" points="619.06708 163.21685 646.23164 162.24108 699.70757 165.3544 627.48406 164.87338 619.06708 163.21685"/>
        <path class="cls-13" d="M647.54502,163.56336c-1.93133-.93493-4.12036-1.16345-6.2617-1.30069-4.44522-.28491-8.90428-.23741-13.35837-.1898l-6.58163,.07036c-.44034,.00471-.96195,.0545-1.18018,.437,.47536,.4306,1.17625,.46984,1.81743,.48633l3.88426,.09992c.56507,.01454,1.15762,.03654,1.64557,.32189,.16161,.09451,.30925,.21682,.48555,.2798,.22469,.08026,.47143,.05591,.70876,.0315,6.08591-.62614,12.23689-.61805,18.8403-.2363Z"/>
        <path class="cls-13" d="M677.31742,164.54059c5.32725,.54694,10.77331-.09568,15.82695-1.86753,1.31432-.46081,2.84501-.97838,4.01921-.22935,.71609,.4568,1.11596,1.412,.82246,2.20905s-1.33224,1.26215-2.07672,.85326l.63596,.03903c-3.11616-.41261-6.2425-.82595-9.38583-.83904-3.5384-.01474-7.11046,.47589-9.84203-.16542Z"/>
      </g>
      <path class="cls-13" d="M49.8409,248.39746c4.87361,.39494,9.66553,1.7729,14.00449,4.02712,.12703,.066,.26551,.1348,.40665,.1109,.17746-.03005,.29615-.19377,.39515-.34408l1.3426-2.03853c.10001-.15185,.20445-.32198,.17876-.50198-.03853-.27001-.33627-.40905-.5935-.49973-2.61098-.92044-5.29962-1.74692-8.067-1.82446-1.76769-.04953-3.52797,.20809-5.27758,.46503-.8307,.12199-1.6614,.24399-2.38956,.60573Z"/>
      <g>
        <polygon class="cls-13" points="674.86678 199.99414 704.01695 198.40409 674.98753 197.50158 674.86678 199.99414"/>
        <path class="cls-13" d="M684.35543,198.85906c-3.21061,.14104-6.38606,1.02952-9.20367,2.57514,.00957-2.13168,.20445-4.26249,.57124-6.39025,.82626,1.24447,2.21404,2.02914,3.65516,2.42232s2.9513,.43577,4.44456,.47596l3.22011,.08666c-.91234,.47607-1.90805,.79592-2.68739,.83016Z"/>
      </g>
      <path class="cls-13" d="M339.00424,105.10202l25.57042-2.50373c4.70864-.46105,9.42084-.92234,14.1489-1.09325,13.02107-.4707,26.02286,1.26474,38.85676,3.51434"/>
      <path class="cls-13" d="M529.89357,105.20388c7.45776-.21612,14.89621-1.09412,22.19934-2.62029,5.63477-1.17753,11.31497-2.75042,17.42331-1.92651l.57913,2.94978c.03403,.17333,.06728,.35754,.00436,.5226-.25901,.67955-1.62309,.20829-1.84518,.90079l-38.36096,.17363Z"/>
      <path class="cls-13" d="M224.48356,107.65465c1.68319,.14917,3.37963,.01115,5.0539-.21733,5.04645-.68869,9.97348-2.19712,15.05306-2.56979,3.62943-.26627,7.2748,.05252,10.89347,.43839,2.38807,.25465,4.77302,.53863,7.15411,.85184l-38.15453,1.49689Z"/>
      <path class="cls-13" d="M249.09891,127.79015c10.41254-3.36447,21.7675-3.75637,32.38722-1.11779l-32.38722,1.11779Z"/>
      <g>
        <polygon class="cls-13" points="9.21229 332.33939 38.57869 334.50758 10.02491 337.00126 9.21229 332.33939"/>
        <path class="cls-13" d="M8.4503,333.0657c5.59257-1.84639,11.63129-.3661,17.47653,.25088,8.27984,.87395,16.7025-.04094,24.72154-2.32527,.45383-.12928,.94467-.26186,1.38526-.0912,.94487,.36597,.89429,1.89614,.13024,2.57271s-1.86292,.73509-2.87286,.76015c-11.99159,.29759-23.98319,.59517-35.97478,.89276-.99294,.02464-2.00686,.04644-2.95496-.25655s-1.83573-.99436-1.91095-1.80347Z"/>
      </g>
      <polygon class="cls-13" points="69.97457 375.14769 42.6121 377.78621 71.34269 377.88394 69.97457 375.14769"/>
      <polygon class="cls-13" points="749.81444 368.75852 769.37269 367.10613 769.95477 370.05686 749.81444 368.75852"/>
      <polygon class="cls-13" points="409.6615 503.59494 498.57248 501.1303 432.5539 499.98059 409.6615 503.59494"/>
      <polyline class="cls-13" points="92.82918 453.62106 126.94061 455.48277 96.13222 456.62382"/>
      <polygon class="cls-13" points="720.82271 434.66413 691.9142 433.44948 723.85932 432.11337 720.82271 434.66413"/>
      <polygon class="cls-13" points="262.72295 125.44855 291.05229 123.85529 273.30679 129.80686 262.72295 125.44855"/>
    </g>
    <g id="icicles_bottom" data-name="icicles bottom">
      <path class="cls-8" d="M124.01994,473.73089l7.98793,55.30165c.63009,1.96798,3.42242,1.94563,4.02093-.03218l6.56663-42.04068c.58382-1.92926,3.28369-2.01472,3.98834-.12624l7.79469,32.36358c.69091,1.85163,3.32183,1.81735,3.96425-.05166l6.29363-24.09158c.35029-1.01911,.97688,.45495,0,0-4.83295-2.25076-33.80598-17.56522-40.6164-21.32289"/>
      <path class="cls-8" d="M477.51165,536.39843l7.93087,29.25508c.24985,1.25083,1.99736,1.35691,2.39668,.14548l7.86709-30.19902c.28847-.87516-.44336-1.74854-1.3555-1.61766l-16.83915,2.41611"/>
      <path class="cls-8" d="M405.37549,541.47796l5.59264,17.17582c.59612,1.83077,2.46574,1.77135,3.00206-.09541l4.00327-13.93389c.43251-1.5054-.358-3.14652-1.51564-3.14652h-11.08233"/>
      <path class="cls-8" d="M535.4568,526.08607l9.97657,19.71307c.90083,1.32748,2.89392,1.20748,3.62897-.21849l8.97032-25.31237c.8366-1.62298,1.76815-.45565,0,0l-22.57586,5.81778"/>
      <path class="cls-8" d="M613.08169,501.77331l10.10467,44.61411c.23578,1.03607,1.73004,.98046,1.88815-.07027l6.22758-51.21298c.14027-.93215,1.3988-1.12662,1.81389-.28029l7.10671,24.38245c.37023,.75487,1.46273,.70437,1.76174-.08144l7.00665-33.02535c.34817-.91499,1.68149-.78492,1.84625,.18011l9.24122,44.17185c.18723,1.09666,1.77711,1.05232,1.90294-.05307l5.37564-53.4895c.08867-.77893-.73785-1.33331-1.42145-.94953-4.69505,2.63588-18.3498,10.24409-25.60984,13.67987-8.86008,4.193-27.24414,12.13403-27.24414,12.13403"/>
      <path class="cls-8" d="M308.89846,535.47331l9.60104,37.70024c.27509,1.43438,2.28681,1.54326,2.71512,.14696l8.2157-34.51204c.08542-.27849,.47034-.30243,.58963-.03668l8.02941,17.88908c.10254,.22845,.41754,.25221,.55319,.04173l8.17808-17.21869c.12397-.19236,2.83282,.31034,2.60657,.27596l-40.48873-4.28656"/>
      <path class="cls-8" d="M213.69623,513.79927l10.3674,35.9975c.28985,.88503,1.52042,.94149,1.8901,.08672l9.45848-28.32154c.23986-.55461-.05675-1.19445-.635-1.36981l-25.46351-7.72189"/>
      <path class="cls-21" d="M130.90106,525.64201s4.39757-5.06994,2.81531-5.70284l-1.58226-.63291s2.68985-.39557,2.76896-1.26581-2.76896-1.34492-2.76896-1.34492c0,0,3.24364-.79113,3.24364-1.74049s-3.32275-1.42404-3.32275-1.42404c0,0,3.16453-.23734,3.32275-1.66138s-4.47668-2.53162-4.47668-2.53162c0,0,4.63491-.23734,4.87225-2.21517s-4.43034-2.45251-4.43034-2.45251c0,0,4.74679-.99464,5.06324-2.55426s-6.17083-3.14189-6.17083-3.14189c0,0,7.04107-1.02847,7.1993-2.61074s-7.1993-3.24364-7.1993-3.24364c0,0,5.85438,0,6.40817-1.26581s-4.90502-2.21517-4.90502-2.21517c0,0,5.3797-.07911,6.48728-2.45251s1.89872-2.13606,1.89872-2.13606l1.42404,1.8196-.94936,13.68658-4.9212,28.63645-2.43633,2.28907-2.34063-5.83995Z"/>
      <path class="cls-21" d="M154.15241,519.08407s3.79897-6.16963,2.48042-6.3806-2.21517,0-2.21517,0c0,0,2.66581-1.26581,2.49323-2.16243s-2.75848-1.79323-2.75848-1.79323c0,0,3.16606-.42194,3.21881-1.74049s-3.69195-1.74049-3.69195-1.74049c0,0,3.95566-1.05484,4.06114-1.68775s-4.48308-2.33578-4.48308-2.33578c0,0,5.69615,.39178,5.74889-.98325s-5.74889-1.95519-5.74889-1.95519c0,0,5.22147-.68565,5.43244-1.21307s1.52952-2.63711,1.52952-2.63711l3.03331,2.30015-3.95165,15.12663-2.71507,7.59539-2.43347-.39279Z"/>
      <path class="cls-21" d="M222.94939,545.99058s3.56675-6.97864,2.30093-7.2951-2.05694-.36919-2.05694-.36919c0,0,2.79533-1.0021,2.90082-1.89872s-4.0084-1.63501-4.0084-1.63501c0,0,4.48308-1.31855,4.53582-2.42614s-4.53582-.89662-4.53582-.89662c0,0,5.0105-1.39767,5.06324-2.55799s-6.22357-1.23944-6.22357-1.23944c0,0,5.84289-.73839,5.89564-1.95146s-5.12841-1.31855-5.12841-1.31855c0,0,5.66761-.58016,5.82554-1.31855s-7.75309-1.42404-7.75309-1.42404c0,0,8.30688-.50105,8.62334-1.1867s.8895-2.95205,.8895-2.95205l4.59908,4.09595-7.92334,26.80625-1.8901-.08672-1.11424-2.34593Z"/>
      <path class="cls-21" d="M317.43758,569.96328s3.30182-5.3013,2.56343-5.88146c-.6344-.49846-1.95091-.77229-1.95091-.77229,0,0,2.68985-1.42404,2.63711-2.26791s-3.24962-1.52952-3.24962-1.52952c0,0,3.7243-.58016,3.67156-1.84597s-4.3776-2.3734-4.3776-2.3734c0,0,5.06324,.25339,4.95776-1.71928s-5.59067-2.34186-5.59067-2.34186c0,0,6.69825-1.16033,6.48728-2.16243s-5.90712-1.79323-5.90712-1.79323c0,0,6.90922-.73839,6.85648-1.84597s-5.06324-1.42404-5.06324-1.42404c0,0,6.59277-2.21517,5.43244-2.58436s-5.27421-1.26215-5.27421-1.26215c0,0,6.64551,.04908,6.43454-1.74415s3.23749,1.37611,3.23749,1.37611l-5.48721,23.05035-2.62527,11.43283-2.75223-4.31126Z"/>
      <path class="cls-21" d="M336.31135,551.98978s2.65029-3.08541,1.58226-3.12497-1.26581,0-1.26581,0c0,0,2.33384-1.22625,2.33384-1.62182s-2.49207-1.26581-2.49207-1.26581c0,0,3.36231-.23734,3.40187-.9098s-4.15344-1.46359-4.15344-1.46359c0,0,4.35123-.31645,4.43034-.75158s-2.21517-.9098-2.21517-.9098c0,0,3.67876-.67246,3.79743-1.22625s2.21517-1.06803,2.21517-1.06803l1.49284,1.82984-7.36438,13.41405-1.76288-2.90223Z"/>
      <path class="cls-21" d="M544.9587,544.61574s3.62723-4.18567,2.36142-4.32119-1.74049,0-1.74049,0c0,0,2.3734-1.55956,2.45251-2.19246s-3.07344-.55379-3.07344-.55379c0,0,3.70634-1.66138,3.78545-3.24364s-5.30058-.87025-5.30058-.87025c0,0,6.17083-1.58226,6.40817-2.76896s-4.58856-1.74049-4.58856-1.74049c0,0,4.98413-1.42404,5.30058-2.13606s-1.26581-1.50315-1.26581-1.50315c0,0,3.40187-.39557,3.79743-1.42404s.63291-2.29428,.63291-2.29428l2.68985-.94936-7.91132,24.92486-3.54811-.9272Z"/>
      <path class="cls-21" d="M483.46611,562.47891s3.27967-4.77133,2.88411-6.19537c-.39557-1.42404-2.45251-.71202-2.45251-.71202,0,0,3.40187-1.10758,3.40187-2.45251s-2.92719-1.97783-2.92719-1.97783c0,0,3.48098-.25967,3.56009-1.87032s-5.06324-1.848-5.06324-1.848c0,0,5.3797-.79113,5.61704-2.21517s-4.193-1.26581-4.193-1.26581c0,0,3.73673-1.10758,4.20221-2.68985s-6.81294-.81384-6.81294-.81384c0,0,6.62891-1.54296,7.67398-2.58803,1.1867-1.1867,1.74049-3.79743,1.74049-3.79743l3.24364-.59295-4.58856,20.92504-3.31056,10.37441-2.97542-2.28032Z"/>
      <path class="cls-21" d="M410.30918,556.06479s2.71188-2.54312,2.44365-3.28423-1.60872-.60644-1.60872-.60644c0,0,2.12794-1.19662,1.88288-2.3346s-2.53738-1.04309-2.53738-1.04309c0,0,3.26894-.41245,3.26592-1.44168s-3.41015-1.08614-3.41015-1.08614c0,0,3.57203-.74173,3.66769-1.29995s-2.60334-.72363-2.60334-.72363c0,0,2.28741-.21346,2.8211-.71064s2.27647-2.39048,2.27647-2.39048l.86033,2.49818-4.61525,16.31085-2.30435-3.55341"/>
      <path class="cls-21" d="M621.71897,538.30578s1.83131-5.02704,1.70803-7.03124-1.50315-3.08541-1.50315-3.08541c0,0,1.8196-.76476,1.8196-1.8196s-2.02448-1.58226-2.02448-1.58226c0,0,2.71013-.63291,3.02658-2.32065s-4.11389-2.10969-4.11389-2.10969c0,0,3.61882-.84387,4.13007-2.0042s-4.13007-1.79323-4.13007-1.79323c0,0,4.85228-1.16033,5.06324-2.42614s-6.54002-3.05904-6.54002-3.05904c0,0,6.23326-.94936,6.54487-2.63711s-5.17357-2.63711-5.17357-2.63711c0,0,4.78206-.94936,5.18636-2.21517s-3.27883-2.10969-3.27883-2.10969c0,0,4.52701-2.10969,4.52701-3.05904v-4.0084l4.10305,1.05352-5.98925,49.25304-3.35555-6.40858Z"/>
      <path class="cls-21" d="M638.93379,516.56009s2.55739-7.7068,1.819-8.12874-1.8196-.79113-1.8196-.79113c0,0,1.89872-.15823,1.89872-1.42404s-2.58436-2.68985-2.58436-2.68985c0,0,4.43034-1.15287,4.32485-2.7916-.10548-1.63874-4.32485-1.74422-4.32485-1.74422,0,0,5.16873-1.68775,5.06324-3.3755s-6.22357-.52742-6.22357-.52742c0,0,5.67638-2.48914,6.22516-3.16453,.92139-1.13396,1.66237-5.31359,1.66237-5.31359l3.58612,1.51791-6.57643,30.99751-3.05065-2.56481Z"/>
      <path class="cls-21" d="M657.93796,522.86676s3.17329-9.45128,2.54039-9.66225-2.47888-.8175-2.47888-.8175c0,0,2.54037-.65928,2.56237-1.60863s-2.62387-1.68775-2.62387-1.68775c0,0,3.38426-1.89872,3.17329-3.27001s-3.17329-1.16033-3.17329-1.16033c0,0,3.08675-2.74259,3.18276-4.11389s-4.65078-.84387-4.65078-.84387c0,0,4.74679-1.05484,5.06324-3.69195s-5.59067-1.89872-5.59067-1.89872c0,0,6.43454-1.68775,6.54002-3.90292s-5.06324-2.0042-5.06324-2.0042c0,0,4.64449-2.10969,5.06484-3.48098s-2.6387-1.47678-2.6387-1.47678c0,0,3.27001-1.68775,3.3755-2.95356s0-3.12458,0-3.12458l3.58897,1.56936-4.84063,46.27136-.54158,5.38888-3.48975-7.53168Z"/>
      <path class="cls-2" d="M405.37549,541.47796l5.59264,17.17582c.59612,1.83077,2.46574,1.77135,3.00206-.09541l4.00327-13.93389c.43251-1.5054-.358-3.14652-1.51564-3.14652h-11.08233"/>
      <path class="cls-2" d="M535.4568,526.08607l9.97657,19.71307c.90083,1.32748,2.89392,1.20748,3.62897-.21849l8.97032-25.31237c.8366-1.62298,1.76815-.45565,0,0l-22.57586,5.81778"/>
      <path class="cls-2" d="M613.08169,501.77331l10.10467,44.61411c.23578,1.03607,1.73004,.98046,1.88815-.07027l6.22758-51.21298c.14027-.93215,1.3988-1.12662,1.81389-.28029l7.10671,24.38245c.37023,.75487,1.46273,.70437,1.76174-.08144l7.00665-33.02535c.34817-.91499,1.68149-.78492,1.84625,.18011l9.24122,44.17185c.18723,1.09666,1.77711,1.05232,1.90294-.05307l5.37564-53.4895c.08867-.77893-.73785-1.33331-1.42145-.94953-4.69505,2.63588-18.3498,10.24409-25.60984,13.67987-8.86008,4.193-27.24414,12.13403-27.24414,12.13403"/>
      <path class="cls-2" d="M308.89846,535.47331l9.60104,37.70024c.27509,1.43438,2.28681,1.54326,2.71512,.14696l8.2157-34.51204c.08542-.27849,.47034-.30243,.58963-.03668l8.02941,17.88908c.10254,.22845,.41754,.25221,.55319,.04173l8.17808-17.21869c.12397-.19236,2.83282,.31034,2.60657,.27596l-40.48873-4.28656"/>
      <path class="cls-2" d="M213.69623,513.79927l10.3674,35.9975c.28985,.88503,1.52042,.94149,1.8901,.08672l9.45848-28.32154c.23986-.55461-.05675-1.19445-.635-1.36981l-25.46351-7.72189"/>
      <path class="cls-2" d="M477.51165,536.39843l7.93087,29.25508c.24985,1.25083,1.99736,1.35691,2.39668,.14548l7.86709-30.19902c.28847-.87516-.44336-1.74854-1.3555-1.61766l-16.83915,2.41611"/>
      <path class="cls-2" d="M124.01994,473.73089l7.98793,55.30165c.63009,1.96798,3.42242,1.94563,4.02093-.03218l6.56663-42.04068c.58382-1.92926,3.28369-2.01472,3.98834-.12624l7.79469,32.36358c.69091,1.85163,3.32183,1.81735,3.96425-.05166l6.29363-24.09158c.35029-1.01911,.97688,.45495,0,0-4.83295-2.25076-33.80598-17.56522-40.6164-21.32289"/>
    </g>
    <g id="clipping_mask_shadow" data-name="clipping mask shadow" class="cls-19">
      <g class="cls-23">
        <g>
          <path class="cls-12" d="M416.45785,539.79695h-13.39673l6.30872,19.3782c.49581,1.52355,1.70195,2.49875,3.08212,2.49875h.05254c1.41629-.02517,2.62572-1.06605,3.08103-2.65198l4.0037-13.93304c.39949-1.39002,.14338-2.92342-.66765-3.99932-.61839-.82197-1.51698-1.29261-2.46373-1.29261Z"/>
          <path class="cls-12" d="M559.31693,517.80507c-.67859-.16636-1.5925,.04597-2.33896,.99928l-23.96527,6.17519,10.92096,21.57925,.10836,.18388c.71471,1.05401,1.8727,1.66474,3.13247,1.66474,.07771,0,.15651-.00219,.23532-.00657,1.35062-.08099,2.52721-.84715,3.1467-2.05001l8.80419-24.796c.9949-.51989,1.36594-1.32326,1.35937-1.99309-.00876-.84058-.58556-1.56295-1.40315-1.75668Z"/>
          <path class="cls-12" d="M667.8644,474.59623c-.82963-.55163-1.88474-.59213-2.75158-.10288-4.13394,2.32035-18.18957,10.16357-25.50633,13.62658-8.73196,4.13175-27.00799,12.0297-27.19187,12.1096l-1.28166,.55382,10.41421,45.97575c.278,1.22366,1.32654,2.05767,2.57099,2.05767,.03393,0,.06786-.00109,.10288-.00219,1.28823-.04706,2.32363-.97083,2.52283-2.29518l5.7954-47.66566,6.06903,20.82294,.10507,.26925c.46188,.94456,1.44037,1.52464,2.49219,1.47649,1.05182-.04706,1.97449-.71362,2.3499-1.69758l6.33499-29.76286,8.53057,40.77138c.22328,1.31122,1.38455,2.23388,2.67825,2.19776,1.32873-.03721,2.40244-1.02227,2.55457-2.36413l5.37402-53.46763c.11273-.99272-.33273-1.9515-1.16346-2.50313Z"/>
          <path class="cls-12" d="M346.72972,537.78744l-40.05612-4.24011,10.17506,39.94284c.27089,1.41519,1.42012,2.41885,2.85994,2.49656,.0591,.00328,.11821,.00547,.17731,.00547,1.36375,0,2.53159-.86137,2.96392-2.28204l7.27955-30.58921,6.38643,14.22965c.30044,.66765,.94073,1.11749,1.67076,1.17221,.73058,.04925,1.43106-.29223,1.82837-.90844l7.77426-16.33548,1.34077,.14229,1.45733,.22547,.84496-2.79755-1.32654-.61402c-.02463-.01204-1.9225-.69063-3.376-.44765Z"/>
          <path class="cls-12" d="M235.26485,518.58326l-25.46364-7.72173-.9752,3.21784,3.50734,1.06386,10.13292,35.17627c.35134,1.07371,1.30739,1.80046,2.43582,1.853,.04269,.00109,.08537,.00219,.12806,.00219,1.0759,0,2.03523-.62606,2.46647-1.62315l9.49264-28.40458c.2687-.68297,.24736-1.45022-.06184-2.11896-.32288-.6961-.92869-1.22256-1.66255-1.44475Z"/>
          <path class="cls-12" d="M494.11184,532.3182l-18.7204,2.68591,8.41674,31.04561c.28676,1.28604,1.3539,2.19776,2.67606,2.27766,.06129,.00438,.12368,.00657,.18497,.00657,1.26634,0,2.36632-.79352,2.79646-2.1113l7.83775-30.09777c.3185-.96645,.11821-2.00951-.53631-2.78989-.65342-.78148-1.64942-1.16346-2.65527-1.01679Z"/>
          <path class="cls-12" d="M164.87673,493.00689c-.09577,.00328-.26104,.01861-.4575,.07771-6.89428-3.37983-33.40427-17.41356-39.58713-20.82623l-2.959-1.633,8.47092,58.64792,.06239,.27253c.51332,1.60126,1.92578,2.63228,3.60475,2.63119h.03284c1.69265-.01313,3.10347-1.06933,3.5938-2.6892l6.59439-42.11434c.06786-.14666,.19044-.22328,.36502-.22875,.20194,.00219,.3081,.06786,.38362,.21452l7.76277,32.23206,.05965,.19373c.56039,1.50057,1.94767,2.46263,3.5451,2.46263h.05199c1.61932-.0208,3.00551-1.02446,3.53197-2.55567l6.05699-23.16628c.13408-.08428,.23039-.16855,.28785-.22437,.56148-.54178,.72018-1.3736,.40442-2.11677-.31631-.74317-1.025-1.21818-1.80484-1.17769Z"/>
        </g>
      </g>
    </g>
    <g id="snow_bottom" data-name="snow bottom">
      <path class="cls-6" d="M620.48321,454.03712c6.56614-3.1265,3.59769-13.16068-3.59358-12.07673-.08896,.01341-.17775,.02749-.26636,.04226-4.63102,.77184-8.85864,4.25221-11.83952,7.39906-2.22117,2.34485-5.70782,2.92574-8.58696,1.46202-2.65829-1.35143-6.97547-2.56614-13.96139-2.743-8.07988-.20455-12.58974,3.70633-15.09205,7.79042-1.94122,3.16831-5.95489,4.35651-9.30431,2.74783-1.09187-.52441-2.3723-1.02309-3.87342-1.4666-4.89518-1.4463-8.61697,2.27033-11.0416,6.10678-2.01589,3.18971-6.19427,4.28001-9.50312,2.46629-3.61938-1.98393-8.44384-3.59205-13.42121-2.24401-7.35246,1.99129-10.36752,8.65364-11.46765,12.15434-.22728,.72322-1.18662,.83863-1.58517,.19375-1.93588-3.13237-10.95051-8.2142-21.37526-7.75429-6.11501,.26978-9.3709,2.90546-11.32774,5.87486-2.30753,3.50153-7.00509,4.44028-10.34144,1.89979-3.88245-2.95633-9.3967-5.58161-16.26493-4.77358-10.16001,1.1953-13.54777,7.36396-14.65976,10.86199-.23587,.74198-1.25373,.8257-1.6151,.13608-2.44142-4.65918-9.27085-10.57614-20.64463-10.57614-11.7462,0-20.34511,9.12755-23.45849,14.5893-.40507,.7106-1.46774,.53171-1.63374-.26921-.96824-4.67156-5.52086-10.10071-14.56985-10.10071-5.06242,0-8.61236,1.75414-11.12668,4.05858-3.03698,2.78348-7.88017,2.30878-10.41964-.93499-3.91903-5.00593-10.15662-10.0413-18.95964-10.71846-9.80061-.75389-19.40398,3.87909-25.54817,8.19937-3.40116,2.39152-8.20219,1.42973-10.31202-2.15298-2.09684-3.56065-5.69494-7.12702-12.79066-8.21109-11.5855-1.77001-23.58041,4.41937-26.67888,7.93075-.51309,.58147-1.45907,.26968-1.53614-.50197-.35749-3.57913-2.05925-10.28448-9.63121-12.85895-4.74274-1.61253-9.18694-.19704-12.6423,1.84956-3.32785,1.97108-7.58239,.94246-9.72999-2.2743-1.97466-2.95771-5.36232-6.12927-11.1717-8.43594-7.17293-2.84807-13.08005-2.0042-17.19393-.44831-3.30536,1.2501-7.02829-.18317-8.78907-3.24713-1.3993-2.43495-3.62046-5.00991-7.13906-6.85299-2.64552-1.38575-5.8581-1.61438-9.06328-1.25331-6.26588,.70585-7.7692,9.16489-2.1441,12.01404,29.83241,15.1103,110.35711,49.2108,229.51235,49.2108,112.30231,0,192.53863-31.73587,224.79139-47.09318Z"/>
      <path class="cls-22" d="M175.86539,456.34612s21.15511,2.2014,24.51703,3.06143c4.53582,1.16033,15.61167,9.33536,19.72555,9.81004s16.10684,1.25773,18.7762,1.68775c4.32485,.69671,12.13069,8.12229,15.29522,8.43874s18.09055-1.73914,25.31622-.60586c2.72993,.42817,18.93442,9.67751,23.04831,9.83573s21.83316-4.42687,26.95123-4.16663c6.22357,.31645,27.89313,7.92491,32.70013,8.91342,7.1297,1.46616,42.20717-2.00729,46.30759-3.21726,6.43453-1.89873,26.26557,2.85412,29.43009,2.21516s22.4154-7.06744,26.68752-7.06744,28.90268,1.74049,33.49125,1.42404,27.42591-10.3902,31.06511-10.70665,21.51879-.89662,27.53139-3.27001,18.24878-10.12649,23.62847-11.07585,25.02107-.70113,25.02107-.70113l-42.97817,15.94361-47.56406,12.33113-54.24342,8.49946-58.66203,3.43452-47.12837-1.35229-57.57663-6.70008-43.75111-9.25078-53.80363-17.28642-23.78495-10.19461"/>
    </g>
    <g id="shadow_top_icicles" data-name="shadow top icicles">
      <path class="cls-16" d="M110.78783,225.63202l3.61885-13.06883s2.69592,13.03852,5.06932,11.61448,3.58692-17.38438,4.53582-19.72555c1.36828-3.3759,11.91972-9.68644,15.87538-11.67332,3.95566-1.98689,14.40192-7.68925,16.61543-2.30645s3.954,21.36367,6.80207,15.50929,3.0063-28.37187,6.48728-29.74656,15.8934-8.88232,19.65963-8.4887,3.03592,7.52952,3.03592,7.52952c0,0,2.38168,17.09827,4.16255,14.09197s6.34307-25.87001,6.34307-25.87001l7.1507-1.41988s2.39213,17.14376,4.35852,13.19792,4.65624-20.8384,7.34609-21.80659,92.24598-22.22326,138.23711-23.91101c25.6292-.94052,64.23346-1.29554,78.94851-.02973s55.35931,6.20055,80.99198,11.73848c24.55863,5.30588,59.54305,16.94023,59.54305,16.94023,0,0,2.90464,14.82968,5.36159,14.23036,1.946-.47468,2.18334-10.49477,4.87318-10.31701s21.36388,9.07093,21.36388,9.07093c0,0,.47136,27.59077,4.25364,23.98352,3.85481-3.67643,2.62589-20.20581,7.42542-18.35984,3.0445,1.17096,17.29942,7.91132,17.29942,7.91132,0,0,1.74565,13.97536,4.43034,12.34166,2.32065-1.41217,1.05484-7.59487,4.79476-5.78049,2.33485,1.13272,21.84001,13.9326,21.84001,13.9326l11.25466,7.41276s3.14963,12.6827,5.14814,10.48974c2.3734-2.60432,3.98041-11.92187,3.98041-11.92187l-21.17434-18.19388-67.04849-36.27264-63.21526-21.47237-71.63311-14.248-90.03081-3.63429-85.27667,8.73933-68.83582,15.93907-49.7798,20.69974-41.45919,22.98616-24.18532,17.77988,1.83205,22.10806Z"/>
    </g>
    <g id="icicles_top" data-name="icicles top">
      <path class="cls-8" d="M142.91112,179.64428l9.58915,29.89571c.20417,.63653,1.1258,.56918,1.23527-.09027l6.35068-38.25739c.08755-.5274-.4742-.92163-.94041-.65996l-16.23469,9.11191"/>
      <path class="cls-8" d="M177.7532,161.29396l10.78861,32.83168c.06988,.17796,.3306,.14712,.35703-.04224l7.74938-40.61266c.02001-.14344-.12447-.25362-.2575-.19638l-18.63751,8.0196"/>
      <path class="cls-8" d="M196.69381,153.14394l9.45546,24.3559c.07335,.16379,.31326,.13877,.35123-.03663l7.99749-30.69157c.03112-.14375-.10918-.26497-.24689-.21331l-17.55729,6.58562"/>
      <path class="cls-8" d="M568.2891,143.54409l8.09686,30.37543c.04693,.17606,.29287,.18643,.35446,.01495l8.17932-22.77414c.03286-.09149-.01035-.19285-.09911-.23249l-16.53153-7.38375"/>
      <path class="cls-8" d="M630.8077,169.73937l6.25792,28.34623c.03252,.18364,.28507,.21027,.35518,.03746l6.24426-21.11885c.03541-.08728-.00007-.18724-.08258-.23266l-12.77478-7.03218"/>
      <path class="cls-8" d="M597.25026,154.73812l7.81446,46.25221c.1203,.71206,1.13514,.73485,1.28729,.02891l8.32526-38.62786c.01867-.08661-.02658-.17431-.10798-.2093l-17.31904-7.44396"/>
      <path class="cls-8" d="M103.79674,207.66049l6.00153,17.39482c.44827,.88648,1.7603,.72424,1.97912-.24474l5.99662-27.93262c.03873-.17152-.16033-.29592-.29752-.18592l-13.67976,10.96846"/>
      <path class="cls-8" d="M671.89293,195.17508l7.38799,29.00259c.04431,.16971,.27745,.1892,.34932,.0292l4.94981-18.92054c.03503-.07797,.01234-.16979-.05496-.22248l-12.63215-9.88878"/>
      <path class="cls-21" d="M108.94665,222.58698s1.84118-1.61339,1.84118-2.56275-1.43832-1.22625-1.43832-1.22625c0,0,1.71412-.92299,1.8196-1.97783s-2.45649-1.3619-2.45649-1.3619c0,0,2.11367,.16202,2.49605-1.40706,.40038-1.64296-3.17771-1.52952-3.17771-1.52952,0,0,4.29848-.83808,4.40397-2.46569s-4.23256-.79113-4.23256-.79113c0,0,3.24364-1.06803,3.87655-2.49207s1.48997-5.06324,1.48997-5.06324l3.27001-2.21517-6.05106,26.13766"/>
      <path class="cls-4" d="M103.79674,207.66049l6.00153,17.39482c.44827,.88648,1.7603,.72424,1.97912-.24474l5.99662-27.93262c.03873-.17152-.16033-.29592-.29752-.18592l-13.67976,10.96846"/>
      <path class="cls-21" d="M151.22632,206.07551s2.14967-3.65397,1.35854-4.12865-1.14714-.51424-1.14714-.51424c0,0,1.72134-.51424,1.77047-1.1867s-1.98187-1.26581-1.98187-1.26581c0,0,2.01361-.75158,1.98275-2.01739s-2.76027-1.1867-2.76027-1.1867c0,0,2.68985-.63291,2.76896-2.33384s-3.74469-1.47678-3.74469-1.47678c0,0,4.22178-.06593,4.26013-1.88553s-5.52594-1.54271-5.52594-1.54271c0,0,4.89183-.69883,5.0105-2.16243s-5.0105-1.47678-5.0105-1.47678c0,0,5.55111-.71421,5.55111-2.4547s-4.2853-1.50096-4.2853-1.50096c0,0,5.10762-2.66564,5.69615-3.79743,.68565-1.31855,1.13028-3.74961,1.13028-3.74961l3.00997-1.07629-3.44736,22.2958-2.3258,14.01094-1.5379-.14303-.77211-2.40717Z"/>
      <path class="cls-4" d="M142.91112,179.64428l9.58915,29.89571c.20417,.63653,1.1258,.56918,1.23527-.09027l6.35068-38.25739c.08755-.5274-.4742-.92163-.94041-.65996l-16.23469,9.11191"/>
      <path class="cls-21" d="M186.47407,188.32554s2.06774-1.64005,1.98863-2.58941-1.49839-1.02847-1.49839-1.02847c0,0,1.89396-.39557,1.97307-1.89872s-2.4633-1.66138-2.4633-1.66138c0,0,2.15047-.15823,2.46511-1.50315s-3.08722-1.66138-3.08722-1.66138c0,0,3.63921-.71202,3.63921-1.74049s-3.63921-1.50315-3.63921-1.50315c0,0,3.40187-.63291,3.63921-2.29428s-5.14236-1.1867-5.14236-1.1867c0,0,5.53792-1.1867,5.53792-2.84807s-6.48728-1.58226-6.48728-1.58226c0,0,6.48728-.79113,6.48728-1.74049s-4.50945-1.42404-4.50945-1.42404c0,0,4.90502-.62459,5.06324-1.81544s-1.97783-.95352-1.97783-.95352c0,0,2.75122-.96829,3.16453-1.50315,.44831-.58016,1.13396-3.11179,1.13396-3.11179l2.74259-1.55589-5.20624,30.55569-1.43096,7.49934-1.90227-2.18031-.49023-2.27294Z"/>
      <path class="cls-4" d="M177.7532,161.29396l10.78861,32.83168c.06988,.17796,.3306,.14712,.35703-.04224l7.74938-40.61266c.02001-.14344-.12447-.25362-.2575-.19638l-18.63751,8.0196"/>
      <path class="cls-21" d="M203.36235,171.30369s3.63921-2.63711,2.63711-2.95356-1.66138-.21097-1.66138-.21097c0,0,2.24154-.68565,2.29428-1.16033s-2.90082-.84387-2.90082-.84387c0,0,3.0063-.58016,3.16453-1.68775s-3.90292-.94936-3.90292-.94936c0,0,3.54273-.47468,3.90742-1.68775s-3.90742-1.10758-3.90742-1.10758c0,0,4.11389-.15823,4.58856-1.42404s-4.27211-.94936-4.27211-.94936c0,0,3.70594-.89662,4.30548-1.84597s-5.62403-1.0021-5.62403-1.0021c0,0,6.43454-.79113,6.69825-1.66138s-3.05904-.87025-3.05904-.87025c0,0,2.68985-.52742,3.48098-1.10758s2.26791-3.32275,2.26791-3.32275l1.52952-.73839-2.53162,13.50198-4.10312,13.99321-1.36101-.80406-1.55057-3.16815Z"/>
      <path class="cls-4" d="M196.69381,153.14394l9.45546,24.3559c.07335,.16379,.31326,.13877,.35123-.03663l7.99749-30.69157c.03112-.14375-.10918-.26497-.24689-.21331l-17.55729,6.58562"/>
      <path class="cls-21" d="M574.71791,169.05054s1.71586-2.32541,1.79497-3.35389-1.34492-1.06803-1.34492-1.06803c0,0,1.93827-.55379,2.01739-1.42404s-2.01739-1.02847-2.01739-1.02847c0,0,2.55799,.28416,2.55799-.87025s-3.00804-1.42404-3.00804-1.42404c0,0,3.13989-.37523,3.37723-1.76988s-3.79743-1.15731-3.79743-1.15731c0,0,3.83699-.2769,3.99522-1.78005s-4.39078-1.54271-4.39078-1.54271c0,0,5.16873-.05274,5.56429-.92299s-5.16873-1.84597-5.16873-1.84597c0,0,5.51014,.16209,6.0126-.07911,.76476-.36711,2.3734-2.29428,2.3734-2.29428l.97259,3.95787-4.87708,13.57952-2.59259,7.21871-1.46872-4.1951Z"/>
      <path class="cls-4" d="M568.2891,143.54409l8.09686,30.37543c.04693,.17606,.29287,.18643,.35446,.01495l8.17932-22.77414c.03286-.09149-.01035-.19285-.09911-.23249l-16.53153-7.38375"/>
      <path class="cls-21" d="M603.40621,194.30484s2.57279-3.3547,2.61235-4.50185-1.62182-1.58226-1.62182-1.58226c0,0,1.97783-.31645,2.13606-.83069s-2.65029-2.0965-2.65029-2.0965c0,0,3.08541-.23734,3.24364-1.34492s-3.40187-2.45251-3.40187-2.45251c0,0,3.59965,.03956,3.75788-.83069s-4.31167-1.78005-4.31167-1.78005c0,0,4.23256-.19778,4.54901-1.1867s-4.54901-2.3734-4.54901-2.3734c0,0,5.18191-.43512,5.26103-1.58226s-5.89393-3.32275-5.89393-3.32275c0,0,6.40817,1.38448,6.52684-.63291s-6.52684-3.63921-6.52684-3.63921c0,0,6.49042-.15823,6.52841-1.26581s-5.61861-1.66138-5.61861-1.66138c0,0,7.52891,.13708,7.71354-1.70093s3.04586,.79113,3.04586,.79113l-2.18571,8.3978-3.41156,15.82907-2.55139,13.27277-2.65191-5.50597Z"/>
      <path class="cls-4" d="M597.25026,154.73812l7.81446,46.25221c.1203,.71206,1.13514,.73485,1.28729,.02891l8.32526-38.62786c.01867-.08661-.02658-.17431-.10798-.2093l-17.31904-7.44396"/>
      <path class="cls-21" d="M635.35163,192.03917s2.02566-3.19872,2.02566-3.93711-1.47678-.89662-1.47678-.89662c0,0,2.05694-.42194,2.21517-1.10758s-2.16243-1.74049-2.16243-1.74049c0,0,2.74259,.05485,2.63711-1.15927s-3.23873-1.58332-3.23873-1.58332c0,0,3.08644-.05274,3.2417-.79113s-3.2417-1.74049-3.2417-1.74049c0,0,3.29147,.58016,3.66067-.26371s1.21307-3.21727,1.21307-3.21727l2.10969,2.26791-3.00251,11.12314-2.19605,7.42731-1.78486-4.38137Z"/>
      <path class="cls-4" d="M630.8077,169.73937l6.25792,28.34623c.03252,.18364,.28507,.21027,.35518,.03746l6.24426-21.11885c.03541-.08728-.00007-.18724-.08258-.23266l-12.77478-7.03218"/>
      <path class="cls-21" d="M677.61174,219.43088s1.5505-2.01739,1.5505-3.20408-1.1867-1.1867-1.1867-1.1867c0,0,1.58226-.47468,1.70093-1.26581s-2.06473-1.26581-2.06473-1.26581c0,0,2.4603-.31645,2.38119-.75158s-2.61074-1.26581-2.61074-1.26581c0,0,3.08541-.06648,3.04586-.74526s-3.24364-1.74681-3.24364-1.74681c0,0,3.75788,.39557,3.75788-.31645s-2.21517-1.14714-2.21517-1.14714c0,0,3.99522-.39557,3.79743-1.22625s.87025,4.43666,.87025,4.43666l-3.28974,10.22678-2.14388,1.5088"/>
      <path class="cls-4" d="M671.89293,195.17508l7.38799,29.00259c.04431,.16971,.27745,.1892,.34932,.0292l4.94981-18.92054c.03503-.07797,.01234-.16979-.05496-.22248l-12.63215-9.88878"/>
    </g>
    <g id="inner_border" data-name="inner border">
      <path class="cls-3" d="M395.69182,501.1303c-96.12265,0-185.89499-22.11118-252.7807-62.26197-60.43962-36.28063-93.72514-82.3111-93.72514-129.6123s33.28552-93.33112,93.72514-129.61175c66.88571-40.1508,156.65804-62.26252,252.7807-62.26252s185.89499,22.11172,252.78124,62.26252c60.43962,36.28063,93.72459,82.3111,93.72459,129.61175s-33.28497,93.33167-93.72459,129.6123c-66.88625,40.1508-156.65859,62.26197-252.78124,62.26197Z"/>
    </g>
    <g id="snow_shadow" data-name="snow shadow">
      <path class="cls-17" d="M119.09232,149.24401s11.09032,4.57566,17.15567,1.41113c4.7478-2.47711,11.65601-4.3776,18.7762-4.0084,6.84039,.35469,19.19813-4.74679,22.36266-8.22777,2.39182-2.631,2.57779-5.60672,6.8499-5.4485,2.40838,.0892,7.46172,3.83014,13.76569,1.26581,9.33536-3.79743,15.2561-15.96007,20.76485-19.68682,5.85438-3.96057,29.86759-10.69265,38.41182-9.58506,5.69112,.73774,10.12649,8.54422,18.98717,6.96196,5.25453-.93831,9.49358-6.96196,15.03151-6.98837,2.93869-.01402,6.72488,2.39259,10.12649,2.08335,3.48098-.31645,4.11389-3.32275,8.06955-3.63921,3.94621-.3157,9.33536,3.7691,17.24667,2.28011s12.41237-12.92982,18.57181-15.44959c2.32065-.94936,12.44714-4.74679,21.61769,4.62525,5.96542,6.09649,14.80602,4.66339,18.35426,4.27211,8.70245-.95965,19.66909-8.97235,24.99977-10.60117,5.69615-1.74049,7.97064-2.04089,10.66049,.33251s9.76819,10.46463,17.02913,11.05979c9.65181,.79113,18.82894-5.69615,22.62637-5.06324s8.86356,13.49725,18.99322,14.24664c12.0252,.88961,20.87983-11.09241,26.7342-10.93418,5.85438,.15823,52.04629,9.52502,54.48919,13.05366,2.84807,4.11389,10.26475,12.36713,18.88168,14.24037,7.27841,1.58226,11.28024-2.60042,14.28654-1.65106,3.0063,.94936,7.39048,7.98012,15.46002,8.29657s5.00126-.7966,10.44294-.31645c5.3797,.47468,13.97008,5.15267,15.39412,7.20961,1.42404,2.05694,6.32906,15.52502,17.56313,15.52502s7.23225-.89939,14.10649,2.32619c3.55781,1.66942,8.09884,6.40448,12.00744,7.03306,5.7374,.92269,12.7356-4.2048,12.7356-4.2048,0,0-121.07237-74.96154-217.01136-77.01327-95.93899-2.05173-188.04254-20.87549-355.49089,66.59474Z"/>
    </g>
    <g id="outer_border" data-name="outer border">
      <ellipse class="cls-3" cx="395.69182" cy="309.25603" rx="386.8536" ry="232.22193"/>
    </g>
    <g id="snow_top" data-name="snow top">
      <path class="cls-8" d="M676.1617,150.63098c7.589,4.83222,16.88785-2.9462,13.49179-11.27748-1.97143-4.83635-4.26633-9.01044-6.78612-10.99509-4.1519-3.27014-10.0229-4.42179-14.82075-4.7603-4.32516-.30516-7.97086-3.37545-8.85621-7.62002-1.10293-5.28773-4.21353-11.82495-12.60962-14.62365-5.81844-1.93948-10.5828-1.97363-14.30119-1.21915-4.4051,.89382-8.94529-1.29763-10.72625-5.42461-1.67069-3.87145-5.32719-7.87188-12.94688-10.23372-7.13777-2.21246-12.3931-1.36408-16.15063,.49909-4.26695,2.11577-9.40398,.9996-12.18755-2.865-2.27251-3.15506-5.81177-6.33919-11.3239-8.60445-10.90248-4.48047-18.72321-3.5942-23.91049-1.45834-4.09758,1.68718-8.8618,.51421-11.48379-3.05817-1.92831-2.62727-4.9675-4.9611-9.75297-5.60998-4.54145-.61579-8.29488,.39653-11.26851,1.9961-3.95472,2.12732-8.72764,1.09117-11.79164-2.19169-1.72219-1.84521-4.30548-3.48129-8.16319-4.44572-5.29675-1.32419-9.30822-.74781-12.30421,.61374-4.27876,1.94451-9.34061,.47872-11.95642-3.42596-3.05569-4.56131-8.44124-9.04695-17.93307-10.68976-10.07324-1.74344-17.59547,1.54691-22.72972,5.50571-3.97656,3.06615-9.6361,2.76479-13.01682-.94803-2.66394-2.92562-6.89627-5.68048-13.62009-7.0893-9.66368-2.0248-16.57867,1.41608-20.96049,5.12848-3.42385,2.90078-8.46816,3.06296-12.01238,.31054-4.11732-3.1975-10.28943-6.2038-18.50855-5.43901-8.86262,.82466-14.3518,5.07434-17.64827,9.20511-2.82175,3.53591-7.70602,4.5552-11.7916,2.6128-3.32574-1.58115-7.82925-2.62373-13.5926-1.69142-8.08046,1.30713-12.72477,4.98364-15.39293,8.70613-2.49296,3.47807-6.85731,5.03558-10.92194,3.69747-2.41152-.79389-5.53873-1.16237-9.54978-.58937-4.05789,.5797-6.89653,2.06465-8.88216,3.84806-3.30346,2.96701-8.1406,3.18527-11.87876,.78898-3.36866-2.15943-8.16587-3.71424-14.89276-3.16026-12.0881,.99549-18.40962,7.60997-21.6143,13.13252-1.89499,3.26558-5.43035,5.29875-9.1934,4.99149-2.76234-.22555-6.73817,.0704-12.44084,1.49606-8.53258,2.13315-12.58414,6.65617-14.50753,10.42132-1.63666,3.20385-5.02041,5.07919-8.61807,5.08994-3.8042,.01136-9.03392,.75167-15.3027,3.47591-7.0049,3.04414-12.19931,11.66299-14.99927,17.38407-1.51307,3.0916-4.5585,5.15414-7.99315,5.37888-2.89628,.18951-7.06187,.65879-12.84018,1.7094-1.74049,.31645-3.31679,1.04341-4.74274,2.07331-9.41732,6.80168,.5769,21.1985,10.48474,15.13355l13.96271-8.54708c1.91609-1.17291,4.19023-1.59409,6.40505-1.21762,4.31975,.73425,12.01959,1.47534,17.77169-1.1131,4.13343-1.86004,8.14328-5.98348,11.15891-9.70675,2.69385-3.32598,7.30259-4.16873,11.18004-2.35645,2.27852,1.06496,5.1397,1.62026,8.46245,.6709,5.64801-1.61372,8.85145-7.4546,10.43194-11.47799,1.01673-2.58825,3.11377-4.58761,5.76074-5.43985,6.25409-2.01361,17.35016-5.55466,22.04254-6.85614,4.4682-1.2393,15.79736-4.09206,22.87399-5.86125,3.39364-.84842,6.98115,.28367,9.23665,2.9575,2.62618,3.11326,6.56782,6.59955,10.66605,5.92232,2.55678-.4225,4.83362-2.53073,6.70524-5.06925,2.70666-3.67111,7.60601-4.61108,11.72669-2.65581,1.53553,.72861,3.39377,1.05638,5.61848,.63262,2.21517-.42194,4.3526-1.43969,6.31273-2.72898,3.92883-2.58423,9.13989-1.565,12.14028,2.05599,.89718,1.08275,2.15513,1.71181,3.90965,1.51686,5.4249-.60277,12.7273-8.74012,16.45725-13.34084,1.6072-1.9824,3.95594-3.21993,6.50208-3.3935l16.06538-1.09517c3.2667-.22269,6.47434,1.21495,8.33427,3.90967,2.2491,3.25856,6.3325,7.16884,12.97801,7.16884,8.07332,0,15.93474-6.14158,19.83013-9.7201,1.75955-1.61642,4.08731-2.46209,6.47553-2.38987l15.39893,.4657c3.05802,.09248,5.88659,1.68336,7.507,4.27841,2.32677,3.72628,6.03583,8.63167,9.43766,8.63167,3.07316,0,9.58042-3.21794,14.70909-6.04801,3.96094-2.1857,8.93651-1.17754,11.70256,2.40231,3.53319,4.57271,8.6747,9.92072,13.67236,10.39669,5.842,.55638,12.34421-4.86127,16.09655-8.61724,2.13457-2.13664,5.16334-3.09249,8.13631-2.56045,8.81828,1.57813,27.35379,5.02542,39.38598,8.18078,9.94255,2.60736,18.55796,5.01053,23.7499,6.48379,3.05059,.86563,5.39521,3.26496,6.27997,6.31006,.88639,3.05072,2.37712,6.58828,4.66261,7.50248,2.2166,.88664,7.30087-.29155,11.62807-1.60979,3.68266-1.12189,7.57263,.34991,9.8461,3.45667,1.10019,1.50344,2.61843,2.89991,4.68592,3.6383,3.60081,1.28601,7.96617,.51992,10.826-.27431,2.11156-.58642,4.35522-.43193,6.34922,.4772l17.87349,8.14915c2.08977,.9528,3.75832,2.64339,4.64996,4.75998,1.51488,3.59606,4.35905,9.12369,7.98021,10.51644,3.41238,1.31245,8.36073,.7147,11.61332,.0755,2.27284-.44666,4.62266,.00528,6.58825,1.23075,1.85494,1.15649,4.36349,2.73014,7.15997,4.51077Z"/>
      <path class="cls-22" d="M689.44186,146.87646l-7.9305,5.22701-12.50964-5.98326-18.20154-1.30626-9.7902-13.26175-19.39311-9.56183-15.651-.19048-12.16583-7.64289-16.83888,1.5433-10.94258-13.81254-36.74456-9.52678-29.29797-5.18307-20.27203,11.25925-22.04362-13.97559-19.09455,7.18831-12.81586-11.80017-11.02439-1.31845-12.87325,.6925-20.46887,11.09438-11.64549-3.87732-7.74324-6.76159-18.06206,.62648-8.9383,4.75003-12.72861,11.275-6.59579-.71255-8.23984-3.44713-10.21316,4.12012-11.3025-1.53814-12.74793,8.63058-9.34235-4.45621-6.57821-4.53209-26.85613,5.96973-25.18788,8.62091-7.80669,11.99301-8.50685,3.64131-11.40698-1.85884-13.93489,11.57267-12.10889,3.00139-12.6786-.24112-20.22841,10.76941c.17298-3.72448,21.54462-21.73367,35.01673-22.31392,13.74716-.59209,15.76705-13.08004,25.52719-18.56523,9.76012-5.48518,31.8413-8.96615,36.07561-10.65391,4.2343-1.68775,17.18904-12.44714,27.42588-12.86908,10.23686-.42194,33.22754,2.95356,39.55662,2.10968,6.32904-.84387,22.99584-13.36155,32.38365-10.75939,8.0168,2.22213,24.53393-6.96235,32.17271-8.43875,12.55263-2.42613,29.64106,2.95356,38.92369,4.64131,9.28259,1.68774,32.27816-3.66847,41.56079-4.00841,9.28259-.33993,16.0336,1.16033,27.42588,5.3797,11.39232,4.21937,21.46172,11.4,32.06723,9.59907,11.18132-1.89872,19.16498-1.94161,32.68115-1.36701,14.78675,.62862,28.95901,4.66645,36.09456,9.06736,6.81397,4.20256,23.79215,9.91551,31.01239,10.33745,7.22017,.42193,21.30779,2.42613,28.96665,5.27421,3.48374,1.29549,23.86629,12.82016,28.25731,17.29942,6.26426,6.39013,9.12563,11.81424,14.39984,13.50198,0,0,13.60749,2.21517,17.29939,.84388,3.69197-1.37129,2.41749-11.36971,2.41749-11.36971l9.65031,8.97208,1.9961,12.3319Z"/>
      <path class="cls-5" d="M677.88499,150.63098c7.61206,4.83222,16.93915-2.9462,13.53278-11.27748-1.97742-4.83635-4.27929-9.01044-6.80674-10.99509-4.16452-3.27014-10.05335-4.42179-14.86578-4.7603-4.3383-.30516-7.99508-3.37545-8.88311-7.62002-1.10629-5.28773-4.22633-11.82495-12.64794-14.62365-5.83611-1.93948-10.61495-1.97363-14.34464-1.21915-4.41848,.89382-8.97247-1.29763-10.75884-5.42461-1.67576-3.87145-5.34337-7.87188-12.98622-10.23372-7.15945-2.21246-12.43075-1.36408-16.1997,.49909-4.27992,2.11577-9.43255,.9996-12.22458-2.865-2.27941-3.15506-5.82943-6.33919-11.3583-8.60445-10.93561-4.48047-18.7801-3.5942-23.98314-1.45834-4.11003,1.68718-8.88872,.51421-11.51868-3.05817-1.93417-2.62727-4.98259-4.9611-9.78261-5.60998-4.55525-.61579-8.32008,.39653-11.30274,1.9961-3.96673,2.12732-8.75415,1.09117-11.82747-2.19169-1.72742-1.84521-4.31856-3.48129-8.18799-4.44572-5.31284-1.32419-9.3365-.74781-12.34159,.61374-4.29176,1.94451-9.36899,.47872-11.99274-3.42596-3.06497-4.56131-8.46688-9.04695-17.98756-10.68976-10.10384-1.74344-17.64893,1.54691-22.79877,5.50571-3.98864,3.06615-9.66538,2.76479-13.05637-.94803-2.67203-2.92562-6.91722-5.68048-13.66147-7.0893-9.69304-2.0248-16.62903,1.41608-21.02418,5.12848-3.43426,2.90078-8.49389,3.06296-12.04887,.31054-4.12983-3.1975-10.32069-6.2038-18.56478-5.43901-8.88954,.82466-14.39541,5.07434-17.70189,9.20511-2.83032,3.53591-7.72943,4.5552-11.82742,2.6128-3.33585-1.58115-7.85304-2.62373-13.6339-1.69142-8.10501,1.30713-12.76343,4.98364-15.43969,8.70613-2.50053,3.47807-6.87814,5.03558-10.95513,3.69747-2.41885-.79389-5.55555-1.16237-9.57879-.58937-4.07022,.5797-6.91748,2.06465-8.90915,3.84806-3.31349,2.96701-8.16533,3.18527-11.91485,.78898-3.3789-2.15943-8.19068-3.71424-14.938-3.16026-12.12483,.99549-18.46555,7.60997-21.67997,13.13252-1.90074,3.26558-5.44685,5.29875-9.22134,4.99149-2.77073-.22555-6.75864,.0704-12.47864,1.49606-8.55851,2.13315-12.62237,6.65617-14.55161,10.42132-1.64163,3.20385-5.03566,5.07919-8.64426,5.08994-3.81576,.01136-9.06137,.75167-15.34919,3.47591-7.02618,3.04414-12.23637,11.66299-15.04484,17.38407-1.51766,3.0916-4.57235,5.15414-8.01744,5.37888-2.90508,.18951-7.08333,.65879-12.87919,1.7094-1.74578,.31645-3.32686,1.04341-4.75715,2.07331-9.44593,6.80168,.57865,21.1985,10.51659,15.13355l14.00513-8.54708c1.92191-1.17291,4.20296-1.59409,6.42451-1.21762,4.33287,.73425,12.0561,1.47534,17.82569-1.1131,4.14599-1.86004,8.16802-5.98348,11.19281-9.70675,2.70204-3.32598,7.32478-4.16873,11.214-2.35645,2.28544,1.06496,5.15531,1.62026,8.48816,.6709,5.66517-1.61372,8.87834-7.4546,10.46363-11.47799,1.01982-2.58825,3.12323-4.58761,5.77824-5.43985,6.2731-2.01361,17.40287-5.55466,22.10951-6.85614,4.48177-1.2393,15.84536-4.09206,22.94349-5.86125,3.40395-.84842,7.00236,.28367,9.26471,2.9575,2.63416,3.11326,6.58778,6.59955,10.69845,5.92232,2.56455-.4225,4.84831-2.53073,6.72561-5.06925,2.71488-3.67111,7.62912-4.61108,11.76232-2.65581,1.5402,.72861,3.40408,1.05638,5.63555,.63262,2.2219-.42194,4.36583-1.43969,6.33191-2.72898,3.94076-2.58423,9.16766-1.565,12.17717,2.05599,.8999,1.08275,2.16168,1.71181,3.92153,1.51686,5.44139-.60277,12.76597-8.74012,16.50725-13.34084,1.61208-1.9824,3.96796-3.21993,6.52184-3.3935l16.11419-1.09517c3.27662-.22269,6.49401,1.21495,8.35959,3.90967,2.25593,3.25856,6.35174,7.16884,13.01744,7.16884,8.09785,0,15.98316-6.14158,19.89038-9.7201,1.7649-1.61642,4.09972-2.46209,6.49521-2.38987l15.44571,.4657c3.06731,.09248,5.90448,1.68336,7.52981,4.27841,2.33384,3.72628,6.05417,8.63167,9.46633,8.63167,3.0825,0,9.60952-3.21794,14.75378-6.04801,3.97297-2.1857,8.96367-1.17754,11.73811,2.40231,3.54393,4.57271,8.70105,9.92072,13.7139,10.39669,5.85974,.55638,12.38172-4.86127,16.14546-8.61724,2.14105-2.13664,5.17903-3.09249,8.16103-2.56045,8.84507,1.57813,27.4369,5.02542,39.50564,8.18078,9.97276,2.60736,18.61434,5.01053,23.82206,6.48379,3.05986,.86563,5.4116,3.26496,6.29905,6.31006,.88908,3.05072,2.38434,6.58828,4.67678,7.50248,2.22333,.88664,7.32305-.29155,11.6634-1.60979,3.69385-1.12189,7.59563,.34991,9.87601,3.45667,1.10354,1.50344,2.62639,2.89991,4.70016,3.6383,3.61175,1.28601,7.99038,.51992,10.85889-.27431,2.11797-.58642,4.36845-.43193,6.36851,.4772l17.92779,8.14915c2.09612,.9528,3.76974,2.64339,4.66409,4.75998,1.51948,3.59606,4.37229,9.12369,8.00445,10.51644,3.42275,1.31245,8.38613,.7147,11.6486,.0755,2.27974-.44666,4.63671,.00528,6.60826,1.23075,1.86058,1.15649,4.37675,2.73014,7.18173,4.51077Z"/>
    </g>
    <g id="type_backup" data-name="type backup">
      <g>
        <path class="cls-15" d="M202.00539,305.49896c-6.22766,1.14252-13.39221-2.0163-15.05997-10.42041-1.0835-5.51724-2.16699-11.03452-3.2505-16.55179-6.58408,1.29303-13.15933,2.64612-19.72502,4.0593,1.18311,5.49673,2.36621,10.99356,3.54933,16.4903,1.76666,8.29062-3.7067,14.14603-9.74059,15.52469-6.18776,1.40387-13.49199-1.45001-15.50873-9.77725-4.40784-18.35992-8.81567-36.71991-13.2235-55.07988-1.99606-8.24004,3.84413-14.34813,10.36674-15.82745,6.6842-1.52629,14.40057,1.40215,16.1869,9.78316,.98895,4.59476,1.97794,9.18948,2.9669,13.78427,6.71709-1.44574,13.44398-2.83012,20.17992-4.15294-.9057-4.61191-1.8114-9.22382-2.7171-13.83571-1.65082-8.31609,4.4231-14.1725,10.98784-15.37602,6.72745-1.24362,14.30173,2.00574,15.7375,10.45384,3.20097,18.60835,6.40193,37.21671,9.60289,55.82507,1.41986,8.35706-4.27957,13.97736-10.35263,15.10083Z"/>
        <path class="cls-7" d="M145.62599,304.02365c-4.35004-18.37375-8.70007-36.74747-13.05011-55.12122-1.43144-6.00703,2.49556-10.55128,7.58353-11.70752,5.08781-1.15993,10.56648,1.13393,11.89882,7.27286,1.24268,5.68655,2.48535,11.37314,3.72803,17.05969,9.01872-1.97089,18.05547-3.83051,27.10823-5.57883-1.10374-5.71513-2.20747-11.43031-3.31122-17.14545-1.17995-6.06174,3.03557-10.45724,8.04335-11.37726,5.2341-.96532,10.48935,1.57689,11.56497,7.7659,3.25934,18.59822,6.51865,37.19644,9.77792,55.79468,1.05713,6.08398-2.80109,10.32489-7.57314,11.20572-4.77267,.8772-9.87201-1.60492-11.07202-7.77173-1.27869-6.62106-2.5574-13.24216-3.83609-19.86325-8.90167,1.71918-17.78763,3.54773-26.65584,5.48572,1.43967,6.58798,2.8793,13.17587,4.31895,19.76385,1.3093,6.03467-2.48294,10.4585-7.11899,11.51575-4.84711,1.10187-9.95044-1.18738-11.4064-7.29892Z"/>
        <path class="cls-15" d="M273.43417,294.68369c-3.88947,.44376-10.92242-.27133-14.63892-10.41092-.50787-1.34009-1.01697-2.67987-1.52737-4.01938-6.02676,.77896-12.04868,1.60806-18.06506,2.48727-.17879,1.79575-.35542,3.59146-.53,5.38712-.44678,7.05499-4.71024,11.84845-11.44507,12.92462-4.28583,.6846-8.12726-.35849-10.84695-2.96027-3.26115-3.12286-4.62126-8.10956-3.75053-14.06363,2.33084-16.2728,4.87738-32.54752,7.63985-48.81961,1.82809-11.06339,8.69452-18.07474,19.21002-19.521,10.44955-1.43304,18.38223,3.21011,23.39853,13.634,7.15775,15.17157,14.09952,30.40594,20.82431,45.69861,2.08221,4.8125,1.93927,9.92651-.30719,13.69965-1.41074,2.36609-4.27115,5.30591-9.96161,5.96353Zm-25.15892-36.67282c-1.56371-3.54219-3.13786-7.08147-4.72244-10.61771-.56989,3.83287-1.129,7.66579-1.67735,11.49878,2.13263-.29984,4.26587-.59354,6.3998-.88107Z"/>
        <path class="cls-7" d="M280.53723,276.36487c2.75742,6.35239,1.05386,13.99869-7.49036,14.97891-4.70633,.54559-8.67233-1.74921-11.01962-8.21603-.82147-2.18637-1.64618-4.3718-2.4743-6.55655-7.8499,.99478-15.69179,2.07437-23.5242,3.23868-.26349,2.69443-.52225,5.38889-.77626,8.0831-.33076,5.8642-3.65822,9.05646-8.5554,9.83926-7.65189,1.23001-11.93735-4.49997-10.6481-13.25323,2.3748-16.26852,4.96544-32.53828,7.77211-48.80489,1.56256-9.28568,6.85092-15.37869,16.11679-16.6552,9.37984-1.28375,15.53944,3.229,19.66298,11.73277,7.19476,15.1425,14.17383,30.34846,20.93637,45.61317Zm-36.48076-36.52361c-1.00975,.13765-2.01933,.27666-3.02879,.41699-1.1243,7.53795-2.20703,15.07622-3.2482,22.61455,5.16742-.74826,10.33871-1.46017,15.51357-2.13577-3.03847-6.97667-6.11732-13.94203-9.23657-20.89577Z"/>
        <path class="cls-15" d="M321.96158,290.26749c-24.72388,1.76733-41.83606-12.26385-44.73892-37.85524-2.85284-25.12221,11.76031-42.72554,38.22095-44.63876,24.28802-1.7001,39.21448,10.01938,39.58484,21.67992,.31473,8.77136-6.16843,13.61023-12.7334,13.94052-4.0867,.20233-7.9946-1.37231-11.04068-4.44977l-.07806-.0787-.07202-.0829c-2.24164-2.57881-5.4361-4.91774-13.42407-4.35854-10.87549,.78381-14.58435,5.03098-13.69916,15.41624,.93301,10.94841,5.44211,14.61858,16.65283,13.81892,7.72998-.53433,10.25415-3.4852,12.71854-6.358,2.18942-2.4861,5.17947-5.85298,10.88434-6.13048,5.95401-.29143,12.44125,3.89604,12.73093,12.09279,.42999,13.83456-15.28882,25.60007-35.0061,27.004Z"/>
        <path class="cls-7" d="M280.72382,252.03897c-2.62454-23.89069,11.30832-39.21027,34.95853-40.91165,22.35641-1.56268,35.44101,8.92194,35.77811,18.46675,.26538,6.70284-4.41266,10.19533-9.33203,10.44164-2.91034,.14423-5.88556-.97491-8.27686-3.39806-3.25262-3.75674-7.82532-6.16998-16.40909-5.56752-11.52948,.82306-18.16595,5.6095-16.9679,19.07045,1.25644,14.11391,8.71457,17.69716,20.39438,16.87267,9.06808-.62592,12.35855-4.3136,15.16013-7.56992,2.1795-2.46701,4.27875-4.71529,8.36966-4.91423,4.42697-.21526,8.87399,2.91029,9.10666,8.86882,.40466,11.71249-14.0296,22.25064-31.78058,23.51556-23.29092,1.67075-38.39883-11.12973-41.00101-34.87451Z"/>
        <path class="cls-15" d="M372.62872,287.88141c-6.30432,.14484-12.85168-4.10632-13.17157-12.66855-.668-18.86984-1.33603-37.73969-2.00406-56.60953-.31732-8.47237,6.57324-13.29512,13.21875-13.44717,6.81168-.1657,13.75388,4.23827,13.83896,12.80714,.05328,4.47035,.10657,8.94075,.15982,13.41112,5.2149-6.93193,10.52588-13.82808,15.93256-20.6864,2.83246-3.69719,7.16254-5.81929,11.8121-5.76213,3.00659,.03636,5.90088,.96446,8.35275,2.67873l.10739,.07764c3.00909,2.27023,4.88123,5.54886,5.15726,8.97757,.27148,3.35382-.99371,6.65756-3.53305,9.31442-5.5524,6.21629-11.01553,12.47292-16.38895,18.76804,6.01028,7.25473,11.9039,14.55753,17.68033,21.90564,2.21094,2.94138,3.08435,6.4017,2.53683,9.79272-.54272,3.35132-2.46844,6.42615-5.26703,8.45157-2.36475,1.78287-5.3374,2.76004-8.33365,2.72046-4.19232-.05658-8.05511-2.06989-10.63797-5.54492-5.5784-7.46863-11.27182-14.89453-17.07996-22.2749,.05881,4.93713,.11765,9.87427,.17651,14.8114,.08374,8.47644-6.40796,13.12659-12.55704,13.27716Z"/>
        <path class="cls-7" d="M421.05542,268.69321c3.50336,4.65689,2.14557,10.47971-2.00323,13.48544-4.26703,3.21436-10.57092,2.82043-14.21359-2.09579-7.03287-9.44791-14.2493-18.82779-21.64841-28.13431-.5907,.00792-1.18134,.01637-1.77197,.02524,.11368,7.55887,.22739,15.11777,.34109,22.67667,.08389,6.17426-4.48581,9.75562-9.21011,9.86957-4.93945,.11542-9.45557-3.14404-9.6669-9.42307-.60907-18.87183-1.21802-37.74365-1.82709-56.61549-.20816-6.17168,4.51181-9.84319,9.69617-9.96391,5.18478-.1245,10.07034,3.21297,10.15598,9.49432,.11908,7.91386,.2381,15.82765,.35712,23.74152,7.23105-9.7636,14.65201-19.45775,22.26184-29.07689,3.91815-5.09763,10.52032-5.56174,15.06-2.3896,4.20264,3.16626,5.53198,8.94836,1.24152,13.44064-6.18851,6.94772-12.26584,13.9455-18.23141,20.99063,6.62692,7.93445,13.11349,15.92737,19.45901,23.97504Z"/>
        <path class="cls-15" d="M462.55368,289.4881c-7.04489-.41962-12.3074-6.35236-11.97617-13.60626,.88245-18.47003,1.76495-36.94005,2.6474-55.4101,.34045-7.43077,6.28259-12.77699,13.8183-12.3311,12.12717,.71732,24.24582,1.62454,36.35162,2.72159,7.78729,.70497,13.28168,7.04518,12.51855,14.32191-.76337,7.28029-7.29279,12.36034-14.87448,11.67441-7.24408-.65648-14.49292-1.24339-21.74548-1.76083-.16949,2.37561-.33899,4.75122-.50845,7.12682,3.66492-.02861,7.33179-.03932,11.00015-.03215,.70007-.00087,1.35303-.006,1.95508-.01051,1.66055-.01228,2.97263-.01854,4.18759,.08656,6.93381,.60004,11.64456,6.29315,10.96368,13.15211-.69342,6.98335-6.40253,11.73128-13.28525,11.13744-1.51691-.13098-3.37073-.41937-5.68509-.80444-3.56943-.4751-7.14175-.93298-10.7168-1.37341-.30484,4.27322-.60971,8.54642-.91458,12.81961-.54074,7.36023-6.57175,12.7132-13.73608,12.28836Z"/>
        <path class="cls-7" d="M454.00064,276.05075c.94022-18.46719,1.88034-36.93437,2.82059-55.40158,.27911-5.63527,4.62024-9.47203,10.02344-9.15207,12.09222,.71526,24.1759,1.61983,36.2467,2.71373,5.39377,.48732,9.82526,4.78456,9.23621,10.61078-.58887,5.8266-5.69714,9.16574-10.9852,8.68834-8.45154-.76587-16.90967-1.43744-25.3725-2.01459-.32117,4.70946-.6424,9.41896-.96356,14.12845,4.93008-.0551,9.86362-.07774,14.8002-.06781,2.58078-.00339,4.38193-.06284,5.83139,.06221,4.79974,.41496,8.24902,4.38103,7.76282,9.46793-.50647,5.30031-4.68402,8.53773-9.50528,8.12196-1.31769-.11343-2.95374-.36044-5.46152-.77856-4.81134-.64056-9.62781-1.24988-14.4491-1.82776-.37192,5.45306-.7438,10.90625-1.11572,16.35931-.39264,5.63046-4.86237,9.48239-10.11588,9.17059-5.04095-.30063-9.02576-4.55057-8.75259-10.08093Z"/>
        <path class="cls-15" d="M545.12128,297.57861c-24.03058-3.27112-38.10806-20.81555-35.75812-45.87372,2.34262-24.98744,20.82605-39.66371,46.97485-36.11093,26.21332,3.61087,40.17255,22.73251,35.71008,47.42963-4.46893,24.7684-22.83563,37.86734-46.92682,34.55502Zm7.63513-55.80608c-10.14661-1.37973-15.68042,2.90115-16.89581,12.88005-1.19922,9.85562,3.1283,15.42502,12.84241,16.74692,9.78564,1.34625,15.49255-2.84888,16.98535-12.66443,1.51178-9.93826-2.71112-15.55551-12.93195-16.96254Z"/>
        <path class="cls-7" d="M512.86493,252.05801c2.30896-23.71341,19.82141-36.2951,43.01733-33.13275,23.30719,3.20041,36.84088,20.0351,32.6897,43.496-4.15485,23.50983-21.4234,34.78339-42.99493,31.82605-21.4671-2.93103-35.0264-18.42822-32.7121-42.1893Zm56.30835,7.20724c1.80176-11.56152-3.58032-19.11905-15.96112-20.82402-12.27087-1.66801-19.47546,4.16539-20.84729,15.78603-1.36188,11.53613,4.0528,18.89508,15.88232,20.50351,11.93579,1.64334,19.13806-3.98752,20.92609-15.46552Z"/>
        <path class="cls-15" d="M637.98743,314.43356c-5.80273-1.31647-9.45325-5.60602-10.04816-11.84262-.49847-4.55688-1.01434-9.11456-1.54767-13.67285-.34583-3.16312-1.32861-4.41287-4.36517-5.5242-1.46234-.45676-2.92596-.91055-4.39044-1.36136-.95306,4.7308-1.90607,9.46164-2.85907,14.19244-1.67749,8.23886-8.96826,11.39664-14.98761,10.26215-6.22144-1.18246-11.76318-6.67722-10.29816-15.04791,3.22522-18.20767,6.45044-36.41531,9.6756-54.62299,1.47858-8.44077,8.77582-11.7041,15.2085-10.48531,7.96393,1.5036,15.91608,3.09106,23.85516,4.76237,20.12415,4.25699,29.82239,16.43683,26.06958,31.79959-2.03149,8.43289-7.43579,14.4537-14.88025,17.14285,2.33405,3.07294,3.09601,6.49225,3.46674,9.64911,.44635,3.21848,.88312,6.43661,1.31012,9.65433,.68744,4.91608-.83539,9.40198-4.11414,12.30603-3.17218,2.80743-7.56744,3.81512-12.09503,2.78836Zm-8.95941-51.6528c3.33911,.69321,7.47278,.81729,8.22382-2.65869,.27948-1.29443-.21832-3.6991-6.73169-5.06163-2.38397-.4962-4.7691-.98463-7.15546-1.46536-.51758,2.5692-1.03516,5.13835-1.55267,7.70753,2.40649,.48477,4.81177,.97751,7.216,1.47815Z"/>
        <path class="cls-7" d="M592.87708,292.04446c3.28235-18.19745,6.56458-36.39488,9.84692-54.59238,1.08838-6.07883,6.02954-8.76178,11.02747-7.81721,7.94092,1.49924,15.87024,3.08212,23.78632,4.74863,18.13525,3.83733,26.55237,14.03355,23.27411,27.67778-2.02179,8.50223-8.26703,15.30283-18.82452,16.10223,5.39624,2.9527,6.85535,7.01617,7.43518,11.84808,.4577,3.24005,.90582,6.4798,1.34387,9.71906,1.12628,8.03992-4.87836,13.05048-12.03503,11.42392-4.42993-1.00449-6.94128-4.16812-7.37317-8.84015-.48822-4.57468-.99396-9.1503-1.51709-13.72665-.48572-4.56683-2.49512-6.84967-6.70734-8.37192-2.72742-.85205-5.45862-1.69385-8.19348-2.52521-1.17981,5.95325-2.35962,11.90649-3.53949,17.85974-1.20966,6.05658-6.32172,8.51422-10.98608,7.63309-4.87579-.92441-8.62543-5.05911-7.53766-11.13901Zm24.79547-28.14023c3.55927,.70541,7.11603,1.42813,10.67004,2.16821,6.479,1.3501,11.32458-.30347,12.39948-5.19379,1.0744-4.8866-3.51959-7.85889-9.5368-9.11002-3.56311-.74158-7.12878-1.46597-10.69696-2.17313-.94525,4.76958-1.89044,9.53912-2.83575,14.30872Z"/>
      </g>
      <g>
        <path class="cls-15" d="M181.91693,401.37747c-6.22504,1.16806-13.40079-1.96811-15.09329-10.36627-1.1008-5.51404-2.20154-11.02808-3.30234-16.54211-6.56772,1.31113-13.12723,2.67783-19.6778,4.09985,1.19287,5.49484,2.38577,10.98972,3.57864,16.48453,1.7825,8.28598-3.68149,14.1517-9.71547,15.53552-6.18762,1.40988-13.49222-1.44418-15.50753-9.7706-4.40784-18.35995-8.81568-36.71994-13.22352-55.07993-1.99519-8.24152,3.80827-14.33972,10.2942-15.81732,6.64677-1.5235,14.33252,1.39868,16.13512,9.77667,.99704,4.59286,1.99414,9.18564,2.99118,13.7785,6.69057-1.45248,13.39027-2.8483,20.0984-4.18747-.92009-4.60886-1.84013-9.21774-2.76022-13.82663-1.67583-8.31216,4.34395-14.1796,10.86896-15.40329,6.68716-1.26349,14.24164,1.95459,15.72035,10.3959,3.2919,18.5925,6.5838,37.18503,9.87569,55.77756,1.46176,8.34863-4.2117,13.99731-10.28238,15.14508Z"/>
        <path class="cls-7" d="M125.55219,400.01855c-4.35439-18.37274-8.70878-36.74548-13.06316-55.11819-1.43218-6.00693,2.46923-10.54642,7.52996-11.70145,5.06058-1.15845,10.51852,1.13226,11.86115,7.26953,1.25136,5.68451,2.50273,11.3689,3.75409,17.05341,8.98531-1.97797,17.98738-3.85352,27.00449-5.6264l-3.36871-17.13373c-1.19968-6.05768,2.97675-10.46289,7.95552-11.39856,5.20398-.98135,10.44781,1.5405,11.55296,7.7247,3.34584,18.58289,6.69167,37.16577,10.03751,55.74863,1.08615,6.07892-2.75247,10.33691-7.5213,11.23672-4.76942,.89648-9.87691-1.56885-11.09676-7.73053-1.30099-6.61691-2.60193-13.23392-3.90292-19.8508-8.8774,1.74545-17.74007,3.59183-26.58621,5.53925,1.44981,6.58594,2.89961,13.17188,4.34943,19.75778,1.31921,6.03232-2.46594,10.46109-7.10069,11.52225-4.84584,1.10605-9.94885-1.18216-11.40533-7.2926Z"/>
        <path class="cls-15" d="M235.30359,392.59528c-22.65805,3.22446-36.56949-5.93674-40.34445-27.48758-2.04666-11.92838-4.09335-23.85672-6.14003-35.78513-1.44971-8.35458,4.71811-14.05478,11.26624-15.10034,6.71066-1.08047,14.16788,2.34225,15.41718,10.8205,1.71312,11.47864,3.42622,22.95728,5.13934,34.43591,.92424,6.16025,4.22136,8.33786,11.03552,7.37408,6.89047-.96628,9.4877-3.97336,8.67503-10.14969-1.52345-11.50534-3.04692-23.01077-4.57042-34.51605-1.12895-8.40369,5.24226-13.86298,11.81711-14.65579,6.73854-.82199,14.05116,2.88419,14.97545,11.40411,1.32742,12.02972,2.65482,24.05933,3.98227,36.08905,2.32138,21.75613-8.51907,34.40158-31.25323,37.57092Z"/>
        <path class="cls-7" d="M198.40428,364.5217c-2.01207-11.93433-4.02412-23.86853-6.03621-35.8028-1.03484-6.08813,3.13972-10.35883,8.24974-11.17679,5.10886-.82126,10.3905,1.82437,11.32765,8.03674,1.74638,11.47363,3.49275,22.94727,5.23914,34.4209,1.35812,8.84326,7.26785,11.26678,14.96178,10.1824,7.69325-1.08322,12.80687-5.0582,11.67043-13.93277-1.49013-11.50974-2.98027-23.01944-4.47041-34.52914-.80104-6.12302,3.52779-10.23019,8.65781-10.85123,5.12958-.62448,10.30092,2.22226,10.9998,8.46555,1.36221,12.02576,2.72446,24.05157,4.0867,36.07733,2.0798,18.87671-6.43701,30.82214-28.25612,33.85391-21.59904,3.08218-33.18269-5.81906-36.4303-24.74411Z"/>
        <path class="cls-15" d="M354.56497,381.97571c-7.1087,.26755-12.74634-5.02029-13.11664-12.39194-.31204-6.44821-.62405-12.89639-.93613-19.34464-2.00427,7.42703-3.96533,14.85898-5.88306,22.29538-1.50537,6.53958-6.33826,10.70804-12.94641,11.14386-6.60837,.43469-12.18961-3.03662-14.61487-9.13214-2.92459-7.26102-5.89322-14.51163-8.90585-21.75137,.54578,6.51355,1.09161,13.0271,1.63742,19.54068,.6138,7.47769-4.04092,13.319-11.06067,13.98053-7.08871,.66812-13.02084-4.29355-13.80585-11.63257-1.77286-16.87228-3.54575-33.7446-5.3186-50.61691-1.24377-11.58881,5.46838-19.61725,17.53674-20.70026,13.69495-1.20187,18.70532,6.69131,22.00235,15.30612,3.32193,8.11151,6.58939,16.23602,9.8024,24.37289,2.04251-8.49799,4.13901-16.99115,6.28937-25.47906,1.91351-8.00098,5.95917-17.40845,19.77826-18.02106,11.54797-.49252,19.79938,6.69797,20.06024,17.25797,.46988,17.27805,.93991,34.55612,1.40979,51.83414,.19061,7.5004-4.8269,13.07083-11.9285,13.33838Z"/>
        <path class="cls-7" d="M278.34244,374.33023c-1.724-16.87735-3.44806-33.75473-5.17206-50.63211-.95648-9.20624,3.87482-16.047,14.27972-16.98279,10.39584-.91736,14.81741,4.0036,18.33978,13.12671,4.77017,11.5639,9.42947,23.15442,13.97778,34.77017,2.87515-12.10483,5.85983-24.20004,8.95401-36.28415,2.20038-9.07626,6.25385-14.97769,16.44565-15.42361,10.08588-.42703,16.11066,5.70535,16.34433,14.00107,.51984,17.27661,1.03973,34.55322,1.5596,51.82983,.14731,5.1105-2.94443,9.66745-8.63297,9.8804-5.68829,.21579-9.33075-4.08585-9.56949-9.19254-.61774-13.57935-1.2356-27.15869-1.85333-40.73807l-.22403,.01022c-3.98669,14.32248-7.81232,28.66397-11.47668,43.02173-1.13071,4.97098-4.5972,8.26035-9.85306,8.6062-5.14981,.3392-9.32455-2.23093-11.20688-7.00189-5.52628-13.82227-11.21188-27.60706-17.05649-41.35162l-.33566,.02902c1.17429,13.5426,2.34854,27.08521,3.52283,40.62778,.43558,5.0936-2.28958,9.80905-7.96234,10.34198-5.67209,.53635-9.55478-3.55338-10.08072-8.63834Z"/>
        <path class="cls-15" d="M427.35977,381.38898c-3.90683-.10193-10.76089-1.79523-13.009-12.35681-.31378-1.39795-.62872-2.79578-.94489-4.19351-6.0574-.07507-12.1152-.1037-18.173-.08612-.42984,1.75247-.85776,3.50522-1.28369,5.25812-1.43701,6.91995-6.3255,11.06015-13.12463,11.16373-4.32654,.06567-7.96698-1.51752-10.27682-4.48285-2.76898-3.55844-3.39514-8.68942-1.6875-14.45648,4.61899-15.7688,9.43619-31.51093,14.45142-47.2226,3.3616-10.69064,11.08847-16.65176,21.6214-16.60049,10.46533,.0549,17.617,5.75974,21.108,16.78198,4.93665,16.022,9.66876,32.07339,14.19626,48.15027,1.39215,5.05301,.54456,10.0975-2.19928,13.52319-1.72241,2.14865-4.96008,4.66367-10.67825,4.52158Zm-19.70389-39.83694c-1.04395-3.72733-2.09772-7.45328-3.16135-11.17792-1.09897,3.71429-2.18808,7.43018-3.26736,11.14737,2.14291,.00449,4.28586,.01468,6.42871,.03055Z"/>
        <path class="cls-7" d="M436.9238,364.23615c1.84543,6.672-.8989,14.01141-9.48175,13.79153-4.72861-.116-8.32657-2.94351-9.73999-9.67551-.50543-2.27988-1.01398-4.55942-1.52567-6.83862-7.88596-.11578-15.77286-.1532-23.65933-.11234-.64053,2.62985-1.27682,5.2601-1.90863,7.89093-1.15564,5.75793-4.89252,8.44489-9.83514,8.52032-7.72449,.12405-11.12891-6.16348-8.60971-14.64075,4.65915-15.75961,9.51651-31.49197,14.5719-47.19339,2.84766-8.96976,8.89722-14.24734,18.18085-14.2041,9.39658,.05145,14.82321,5.37994,17.69916,14.37778,4.97375,15.99945,9.74323,32.02881,14.30832,48.08414Zm-30.87506-41.26688c-1.01309-.00604-2.02615-.01086-3.03922-.01443-2.16385,7.30371-4.28958,14.61322-6.37717,21.92807,5.19528-.00882,10.39066,.01584,15.58569,.07401-2.01819-7.33432-4.07471-14.66367-6.16931-21.98764Z"/>
        <path class="cls-15" d="M499.10345,385.45596c-5.27789-.45459-9.83887-3.43835-12.90237-8.43805-5.6257-9.59528-11.40115-19.1507-17.32574-28.66269-.42453,7.2836-.84903,14.56723-1.27359,21.85083-.44284,7.36771-6.17911,12.59683-13.34647,12.25681-7.10583-.33762-12.27295-6.08621-12.01532-13.46234,.68643-18.65594,1.37296-37.31201,2.05939-55.96796,.31458-9.05368,8.0885-13.51389,15.60126-13.14157,8.28683,.40924,12.31339,6.3894,13.61917,8.34595,6.07477,9.70737,11.99823,19.45883,17.76993,29.25095,.57034-7.48367,1.14066-14.96738,1.71103-22.45105,.55161-7.41821,6.71988-12.58795,14.34106-11.92517,7.68726,.66821,12.92163,6.8313,12.18317,14.233-1.75543,17.94412-3.51093,35.88828-5.2663,53.83237-.89795,9.00055-7.26929,14.9577-15.15521,14.27893Z"/>
        <path class="cls-7" d="M445.66135,369.13135c.74042-18.65393,1.48083-37.30786,2.22119-55.96179,.2114-5.52969,4.40927-10.28079,11.85397-9.92026,5.26434,.25851,8.4267,3.31863,10.73682,6.75745,8.08472,12.87418,15.90265,25.82687,23.45276,38.84946,.88458-11.18045,1.76923-22.36093,2.65387-33.54138,.43784-5.62506,4.86862-9.34039,10.47055-8.85349,5.60056,.48679,9.4404,4.92239,8.89957,10.53882-1.70355,17.94913-3.40704,35.89828-5.11053,53.84741-.61255,6.36258-4.70453,11.84171-11.44785,11.25842-4.71576-.40567-8.14758-3.3447-10.26913-6.81873-7.44565-12.74573-15.15482-25.42188-23.1264-38.02002-.60449,10.91483-1.20898,21.82968-1.81351,32.74451-.31342,5.52838-4.40308,9.34729-9.76788,9.09256-5.25745-.24954-8.96564-4.43997-8.75342-9.97296Z"/>
        <path class="cls-15" d="M532.10779,388.76697c-6.27563-.72354-12.1803-5.83975-11.31244-14.36285,1.94653-18.78107,3.89319-37.56213,5.83972-56.3432,.86792-8.52573,8.15454-12.28061,14.89764-11.50336,6.57849,.74939,12.98376,6.16565,11.91077,14.57681-2.35449,18.73428-4.70886,37.4686-7.06335,56.20291-1.073,8.40762-8.15088,12.12704-14.27234,11.42969Z"/>
        <path class="cls-7" d="M524.20483,374.76248c2.00092-18.77533,4.00189-37.55078,6.00275-56.32611,.64624-6.14096,5.69531-9.14145,10.9422-8.53839,5.13385,.58682,9.48749,4.66525,8.72705,10.7934-2.30023,18.74106-4.6004,37.48215-6.90057,56.22318-.76038,6.12836-5.67664,9.06171-10.48547,8.51196-4.9151-.56476-8.93231-4.52264-8.28595-10.66403Z"/>
        <path class="cls-15" d="M576.09308,394.65585c-7.11322-1.09067-11.93097-7.31766-10.95764-14.27185,1.99304-14.03522,3.98608-28.07043,5.97919-42.10568-1.79846-.25537-3.59741-.50677-5.39685-.75412-7.70923-1.06082-13.04541-7.54642-12.13788-14.87018,.91418-7.38022,7.83118-12.39371,15.73639-11.30606,12.79169,1.75848,25.56281,3.7157,38.30872,5.87155,7.87775,1.33173,12.98969,8.18939,11.65118,15.50446-1.32758,7.25922-8.37555,11.84607-16.05768,10.54797-1.86676-.31573-3.73407-.6272-5.60193-.9342-2.29938,13.98828-4.59882,27.97662-6.89819,41.9649-1.15234,6.92654-7.57202,11.43314-14.62531,10.35321Z"/>
        <path class="cls-7" d="M568.53131,380.87125c2.19452-15.13855,4.38898-30.27716,6.5835-45.41571-2.97852-.43179-5.95825-.85257-8.93909-1.26233-5.35687-.73816-9.77386-5.27704-9.03455-11.08545,.75287-5.91495,6.25946-9.18112,11.71722-8.42883,12.75726,1.75378,25.49408,3.70575,38.20587,5.8558,5.55298,.93771,9.72449,5.68539,8.67145,11.55426-1.03418,5.76395-6.50598,8.78799-11.95648,7.86771-3.04413-.51495-6.0899-1.01825-9.13702-1.51013-2.43744,15.10141-4.87482,30.20273-7.31219,45.30414-.85553,5.25528-5.61884,8.36398-10.72772,7.5816-5.1098-.78363-8.82721-5.19092-8.07098-10.46106Z"/>
        <path class="cls-15" d="M638.15796,405.88342c-7.00177-1.46317-11.39752-8.16428-9.99384-15.34772,1.18317-5.99084,2.36627-11.98181,3.54938-17.97272-4.65942-11.85986-9.50769-23.69696-14.54486-35.50681-1.89001-4.38568-1.2406-9.10657,1.8111-12.60751,3.09216-3.54996,8.10034-5.09299,13.35651-4.09549,4.93011,.93451,8.77325,4.18164,10.50873,8.87015,2.37201,6.83365,4.68756,13.67258,6.94702,20.51599,4.85699-5.3447,9.76581-10.66171,14.72638-15.95053,3.2652-3.59003,8.23773-5.09113,13.22736-3.95142,5.13947,1.17242,9.08356,4.55762,10.52252,9.01187,1.43634,4.43716,.19415,9.04807-3.25604,12.3512-9.3476,8.70746-18.52802,17.5174-27.53955,26.4249-1.33594,6.06482-2.67175,12.1297-4.00763,18.19455-1.58862,7.14499-8.30591,11.52481-15.30707,10.06354Z"/>
        <path class="cls-7" d="M631.53796,391.20709c1.26288-6.29861,2.52582-12.59732,3.78876-18.89597-4.74792-12.17371-9.6947-24.3241-14.83997-36.4462-2.93512-6.80093,2.7265-13.81235,11.22308-12.20831,3.84344,.72876,6.50653,3.31219,7.7276,6.59152,3.01105,8.62344,5.93231,17.25546,8.76379,25.89453l.44019,.09189c6.125-6.76935,12.33313-13.49469,18.62408-20.17441,2.32068-2.54086,5.91211-3.81693,9.73206-2.94476,8.33301,1.90875,10.73218,10.60321,5.41925,15.68475-9.56201,8.94092-18.94812,17.98889-28.15692,27.1387-1.38623,6.38174-2.77246,12.76352-4.15869,19.1452-1.20569,5.51273-6.18481,8.5665-11.25586,7.50806-5.07214-1.06006-8.40857-5.85052-7.30737-11.38501Z"/>
      </g>
      <g>
        <path class="cls-15" d="M261.20328,195.37933c-4.40634,.66119-7.84857-1.89798-8.56993-6.41603-1.27661-8.06015-2.55319-16.1203-3.8298-24.18047-.6881-4.30392,2.12624-8.08371,6.55197-8.74672,4.42509-.66338,8.2213,2.12596,8.82506,6.44241,.7854,5.55647,1.57074,11.11296,2.35614,16.66943,1.77435-.25082,3.54919-.49637,5.32465-.73668,4.30005-.58241,8.09186,2.34816,8.62799,6.62866,.52982,4.22923-2.36105,7.95558-6.57648,8.52664-4.23978,.5739-8.47641,1.17815-12.70959,1.81274Z"/>
        <path class="cls-7" d="M260.7048,192.05417c-2.44467,.36661-4.2728-.87314-4.69876-3.61853-1.24628-8.0649-2.49258-16.12981-3.73892-24.1947-.41922-2.69844,1.39062-4.55098,3.58669-4.87962,2.19545-.32939,4.4612,.86482,4.85817,3.61414,.96722,6.66263,1.93451,13.32526,2.90176,19.9879,2.8981-.42073,5.79764-.82744,8.69864-1.22014,2.23715-.30327,4.46146,1.16399,4.79462,3.73203,.33328,2.56801-1.43265,4.45955-3.64517,4.75941-4.25555,.57605-8.50793,1.18256-12.75702,1.81952Z"/>
        <path class="cls-15" d="M297.93597,191.21077c-11.5874,1.25676-20.42688-5.7202-22.02515-17.68681-1.59686-11.94888,5.49866-21.09634,17.68686-22.41942,12.21841-1.31691,21.11246,6.10173,22.10779,18.11562,.99664,12.03172-6.15375,20.73766-17.7695,21.99062Zm-2.67841-24.76102c-2.74411,.2971-4.48062,1.30693-4.03674,5.21107,.37985,3.34361,1.8436,4.55403,5.05533,4.20528,3.2457-.34966,4.43002-1.84645,4.08658-5.19392-.40106-3.90869-2.33167-4.52228-5.10516-4.22243Z"/>
        <path class="cls-7" d="M279.33801,173.08426c-1.34961-10.45375,4.70685-17.56203,14.62128-18.6369,9.96323-1.07529,17.39114,4.5752,18.30792,15.07567,.91797,10.51178-5.13788,17.31305-14.69284,18.34492-9.50812,1.03003-16.8858-4.319-18.23636-14.78369Zm24.45984-2.7597c-.50604-5.15123-3.56171-7.79271-8.90186-7.21764-5.29208,.57495-7.71335,3.80835-7.10645,8.94884,.60214,5.09917,3.65976,7.71672,8.84818,7.15318,5.23584-.56393,7.66187-3.77432,7.16013-8.88438Z"/>
        <path class="cls-15" d="M345.17532,187.35577c-2.91241,.1601-5.71765-1.14838-7.72028-3.60207-1.78256-2.27199-3.57779-4.53874-5.38574-6.80013,.0824,1.19547,.16486,2.39096,.24725,3.58641,.29172,4.323-2.67416,7.79715-6.89633,8.1234-4.19598,.32401-7.64099-2.65546-8.0163-6.97186-.70331-8.22495-1.40668-16.44983-2.10999-24.67477-.40057-4.60298,2.86072-8.25581,7.75775-8.63046,3.02963-.23151,5.70572,.978,7.92706,3.58432,1.83755,2.29593,3.66232,4.59729,5.47437,6.90388-.0784-1.24675-.15677-2.49345-.23514-3.7402-.27969-4.3495,2.82706-7.84416,7.22842-8.08453,4.42926-.24217,7.91864,2.89265,8.11407,7.24678,.36911,7.96382,.73825,15.92766,1.10733,23.89148,.22803,5.08118-2.92352,8.9158-7.49249,9.16776Z"/>
        <path class="cls-7" d="M320.79626,181.40785c-.67249-8.22748-1.34497-16.45499-2.01746-24.6825-.20172-2.43932,1.33795-4.74165,4.52921-4.98653,2.25769-.17224,3.7738,.99338,4.95361,2.37219,4.17355,5.19328,8.28177,10.41441,12.32449,15.66209l-.87781-14.85168c-.14923-2.49071,1.51355-4.3828,3.92151-4.51436,2.40863-.13171,4.31567,1.56573,4.43848,4.05788,.39896,7.96239,.79794,15.92476,1.19687,23.88716,.13943,2.8223-1.29477,5.48276-4.27502,5.64644-2.08298,.11482-3.76022-.96397-4.89328-2.35774-4.01108-5.1347-8.08676-10.24286-12.22665-15.32333,.35052,4.82098,.70105,9.64197,1.05154,14.46294,.17569,2.44185-1.3978,4.3481-3.76047,4.53064-2.31604,.17888-4.16394-1.46336-4.36502-3.9032Z"/>
        <path class="cls-15" d="M385.33856,185.94456c-2.63678,.02756-4.76361-1.07013-6.02173-2.97316-2.2746,2.0433-5.27393,3.15497-8.90146,3.25299-10.29025,.28307-17.04929-7.0703-17.647-19.44687-.59857-12.22769,7.21448-20.56445,19.91339-20.86919,11.95886-.26939,18.41663,5.6891,18.41956,11.2552,.00671,1.82672-.61273,3.4859-1.65909,4.78888,1.71063,1.24251,2.75464,3.23689,2.76044,5.6124,.01025,3.70375,.02057,7.40758,.03088,11.11136,.00607,4.11829-2.95847,7.22711-6.89499,7.26839Zm-12.28436-24.70016c-3.78586,.10805-4.90994,1.28621-4.80252,4.95665,.09641,3.32288,.98276,4.54541,2.75681,4.90912-.76886-.83575-1.51306-2.15146-1.5683-4.14166-.07254-2.58333,1.37173-4.74065,3.61401-5.72411Z"/>
        <path class="cls-7" d="M356.21417,166.62665c-.47791-10.71788,6.34552-17.11522,16.54651-17.3569,9.15765-.21074,14.83984,3.82442,14.85992,7.914,.01587,2.30751-1.76428,4.24947-4.23636,4.27991-1.40707,.01756-2.19095-.53551-3.07617-1.22849-1.32806-1.05959-2.71667-2.45668-7.24783-2.35416-5.16693,.12172-8.46265,2.2635-8.25565,8.4258,.202,6.02551,3.05527,8.41843,8.26367,8.29231,4.1105-.09676,6.51639-2.0612,7.10281-4.66164,.03983-.51831-.29886-.60788-.92392-.59729-1.10574,.06569-2.35446,.18382-3.41016,.29994-1.48935,.07773-2.89981-.59512-2.95236-2.76003-.04117-1.69424,1.14279-2.80652,2.8851-2.84254,3.04834-.04706,6.0968-.07901,9.14511-.09586,2.37192-.02498,3.83298,1.42711,3.84607,3.63913l.07251,11.11118c.01392,2.35379-1.58807,3.86993-3.53006,3.89043-2.18002,.02295-3.5712-1.13193-3.7962-3.43649-.18265-1.64528-.36612-3.29051-.55051-4.93568-.20721,.00314-.41449,.00632-.62177,.00961-1.07471,4.96419-3.90283,8.48222-10.01044,8.64345-8.1792,.22379-13.64093-5.5549-14.11029-16.23668Z"/>
        <path class="cls-15" d="M420.46713,186.35661c-4.25797-.12177-7.40659-3.46829-7.32449-7.82724,.03772-1.86064,.07538-3.7213,.11304-5.58192-1.63184-.03302-3.26367-.06174-4.8956-.08603-.02774,1.86079-.05545,3.72166-.08313,5.58246-.0784,4.78525-3.92349,7.58728-7.59454,7.56506-4.25919-.02826-7.48172-3.30463-7.49533-7.66437-.0144-8.34906-.02893-16.69809-.04333-25.04715-.01389-4.35852,3.34152-7.65732,7.80414-7.62779,4.46262,.02937,7.7731,3.37181,7.70203,7.72983-.02167,1.45277-.04327,2.90559-.06491,4.35837,1.65894,.0247,3.31775,.05385,4.97656,.08745,.02939-1.45265,.05881-2.90532,.08826-4.35797,.08951-4.7859,4.12338-7.56624,7.96933-7.45444,4.46115,.12741,7.69937,3.54208,7.53232,7.89732-.30777,8.3434-.61557,16.68678-.92334,25.03017-.16696,4.35648-3.50333,7.51779-7.76099,7.39626Z"/>
        <path class="cls-7" d="M396.58841,178.34508l.05054-25.04715c.0033-2.73077,2.07239-4.28104,4.2868-4.26604,2.21317,.01424,4.26242,1.54445,4.22922,4.32207-.02872,2.57356-.05734,5.14714-.08606,7.7207,3.96375,.04417,7.92719,.11385,11.8902,.20894,.06177-2.573,.12354-5.14597,.18527-7.71896,.06345-2.73016,2.21402-4.23315,4.37875-4.17081,2.263,.06439,4.22839,1.63776,4.13474,4.41403-.27649,8.34448-.55304,16.68896-.82956,25.03346-.09259,2.72867-2.13379,4.21478-4.26517,4.15434-2.13135-.06129-4.08441-1.61449-4.01974-4.39104,.07156-2.98094,.1431-5.96187,.21463-8.94281-3.92709-.09425-7.85471-.16325-11.7825-.20703-.03326,2.98161-.06647,5.96321-.0997,8.94482-.03241,2.73-2.08789,4.26021-4.1713,4.24709-2.17899-.01469-4.11978-1.52434-4.11612-4.30162Z"/>
        <path class="cls-15" d="M448.06714,187.56912c-11.62335-.68602-19.16241-9.03496-18.74905-21.10074,.41238-12.04817,8.91165-19.88914,21.1377-19.16866,12.25531,.73167,19.79504,9.52538,18.77902,21.53758-1.01657,12.03008-9.51651,19.42632-21.16766,18.73181Zm1.4747-24.86176c-2.75244-.16316-4.62994,.54433-4.84113,4.46788-.18103,3.36017,1.05981,4.79706,4.28033,4.98679,3.25583,.19443,4.67191-1.08447,4.88947-4.44261,.25409-3.92105-1.54694-4.84686-4.32867-5.01205Z"/>
        <path class="cls-7" d="M432.76434,166.60434c.40762-10.5325,7.5477-16.53586,17.49234-15.94818,9.99347,.59525,16.37927,7.40152,15.53793,17.90839-.84186,10.51791-7.94427,16.21841-17.52838,15.64815-9.53683-.56416-15.91-7.06468-15.50189-17.60835Zm24.54877,1.34309c.35727-5.16365-2.2153-8.2762-7.57217-8.5965-5.30844-.31245-8.22891,2.47386-8.48495,7.6436-.25394,5.12823,2.32114,8.2175,7.52597,8.52393,5.2518,.31387,8.17648-2.44867,8.53116-7.57103Z"/>
        <path class="cls-15" d="M492.70901,191.33374c-3.42007-.37444-5.88419-2.683-6.60699-6.20251-.43295-1.96872-.8699-3.93716-1.311-5.90538-.09598-.44022-.18649-.59198-.20193-.61504h0c-.00888-.00095-.10092-.05496-.33435-.12708-.14084,1.42886-.28171,2.85779-.42261,4.28665-.43118,4.3114-3.93607,7.24347-8.15573,6.86287-4.24615-.38333-7.18768-3.89673-6.84024-8.21579,.66714-8.14925,1.33432-16.29848,2.00143-24.44771,.34964-4.34453,3.86221-7.36061,8.16806-6.97307,3.44174,.30968,6.88223,.63838,10.3212,.98611,9.78796,.9944,15.25806,6.71489,14.29306,14.70667-.43619,3.67845-2.12704,6.6627-4.73038,8.62883,.5668,1.04692,.89072,2.12328,1.11771,3.10646,.34833,1.37701,.6944,2.75421,1.0383,4.13156,.69928,2.71495,.11658,5.38185-1.57758,7.29887-1.65128,1.8688-4.1102,2.76825-6.75894,2.47855Z"/>
        <path class="cls-7" d="M472.22839,181.70158c.69772-8.1467,1.39542-16.29337,2.09308-24.44005,.23099-2.72087,2.22665-4.11034,4.38287-3.91605,3.42941,.30861,6.85757,.63609,10.28427,.98257,7.84134,.7971,11.89255,4.79115,11.17596,10.95938-.44147,3.83693-2.77448,7.16356-7.28183,8.05017,2.46176,1.02287,3.2905,2.72829,3.77991,4.8201,.35822,1.39818,.71423,2.79655,1.06787,4.19511,.90005,3.46902-1.45157,5.98999-4.6557,5.63855-1.98199-.21684-3.23047-1.48363-3.63998-3.51538-.4303-1.9861-.8645-3.97197-1.30289-5.95758-.42203-1.98352-1.39304-2.88815-3.27991-3.35931-1.21582-.24631-2.43225-.49023-3.64941-.73167-.2532,2.67175-.50656,5.34351-.75983,8.01524-.25992,2.71785-2.38596,4.02898-4.4642,3.84187-2.17151-.19633-3.98102-1.86244-3.75021-4.58296Zm9.56076-13.46103c1.55865,.14778,3.117,.29951,4.67502,.45522,2.84229,.28421,4.84406-.6861,5.077-2.88684,.23303-2.20065-1.86212-3.27432-4.48407-3.53595-1.55283-.15511-3.10587-.30629-4.65921-.45354-.20291,2.14035-.40579,4.28076-.60873,6.42111Z"/>
        <path class="cls-15" d="M527.76007,195.86786c-2.88983-.43201-5.3786-2.28052-6.84985-5.08829-1.28998-2.58557-2.5932-5.16858-3.90973-7.74879l-.48193,3.56136c-.5874,4.29295-4.19946,7.09563-8.40656,6.56181-4.18002-.53062-6.95456-4.1443-6.45047-8.44785,.97202-8.19751,1.944-16.39502,2.91602-24.59253,.53662-4.58913,4.47168-7.50783,9.35007-6.88499,3.01837,.38553,5.39984,2.11121,7.0517,5.1134,1.33862,2.62007,2.66406,5.2429,3.97595,7.86838l.52515-3.71115c.60455-4.31635,4.3587-7.1109,8.72833-6.45567,4.39728,.65907,7.19073,4.43529,6.5025,8.7393-1.24713,7.87424-2.49432,15.74844-3.74146,23.62267-.80273,5.02229-4.67346,8.14015-9.20972,7.46236Z"/>
        <path class="cls-7" d="M505.04431,185.11366c1.00275-8.19382,2.00555-16.38763,3.00833-24.58144,.29504-2.42963,2.26978-4.37366,5.44901-3.96841,2.24756,.28749,3.50037,1.73567,4.37872,3.32446,3.04474,5.9299,6.02106,11.87408,8.92883,17.83131,.71332-4.90764,1.42657-9.81529,2.13983-14.72292,.35712-2.4695,2.3703-3.9864,4.76123-3.62798,2.39111,.35841,3.92053,2.40666,3.53735,4.87221-1.21759,7.87885-2.43513,15.75769-3.65265,23.63655-.43365,2.79221-2.37946,5.10767-5.3382,4.66498-2.06805-.3089-3.49591-1.70462-4.32727-3.29903-2.8988-5.84004-5.86511-11.66692-8.89893-17.4794-.63031,4.79243-1.26056,9.58488-1.89081,14.37732-.32129,2.42706-2.24994,3.9758-4.60443,3.67705-2.30661-.29256-3.78683-2.27452-3.49103-4.70471Z"/>
      </g>
      <g>
        <path class="cls-15" d="M324.41496,448.48245c-4.18757,0-8.51853-3.2069-8.51853-8.57435,0-3.23973,1.15799-5.63232,3.75415-7.75785l9.16538-7.65606,.49472-.4192c1.42286-1.20395,4.07101-3.4455,4.07101-4.51045,.03119-.04816-.27691-.28019-1.28933-.28019-1.39713,0-1.5241,.23641-1.80265,.75302l-.17403,.33054c-.79461,1.52136-2.44786,4.68886-7.15806,4.68886-4.3512,0-7.50939-3.39406-7.50939-8.06978,0-7.24124,5.98694-14.57114,17.42889-14.57114,8.45231,0,16.98069,4.83443,16.98069,15.63609,0,6.75856-4.41851,11.41459-6.97473,13.67474h.75411c4.55642,0,8.1256,3.69176,8.1256,8.40579,0,4.76-3.7339,8.34997-8.68599,8.34997h-18.66185Z"/>
        <path class="cls-7" d="M343.63719,435.089c2.46592,0,4.76328,2.01717,4.76328,5.04348,0,3.25068-2.57756,4.98766-5.32367,4.98766h-18.66185c-2.5781,0-5.15621-1.96135-5.15621-5.21203,0-2.18573,.67257-3.64251,2.52174-5.15621l9.1911-7.67685c2.63392-2.24264,5.77242-4.70746,5.77242-7.51049,0-1.73698-1.12077-3.64251-4.65164-3.64251-2.85775,0-3.97907,1.06495-4.76328,2.52174-.78476,1.45788-1.45733,3.25068-4.37145,3.25068-2.46592,0-4.14708-1.90553-4.14708-4.70746,0-5.49222,4.76383-11.20882,14.06657-11.20882,9.91949,0,13.61837,6.27698,13.61837,12.27377,0,6.16425-4.65164,10.19969-6.89319,12.0494l-6.1648,4.98766h10.19969Z"/>
        <path class="cls-15" d="M373.7295,449.15448c-12.46531,0-19.61461-8.51743-19.61461-23.36876s7.1493-23.36986,19.61461-23.36986,19.61461,8.51853,19.61461,23.36986-7.1493,23.36876-19.61461,23.36876Zm0-29.64574c-1.68061,0-3.41868,0-3.41868,6.27698s1.73807,6.27698,3.41868,6.27698,3.41868,0,3.41868-6.27698-1.73807-6.27698-3.41868-6.27698Z"/>
        <path class="cls-7" d="M373.7295,405.77818c12.38541,0,16.25229,9.6393,16.25229,20.00754,0,10.36714-3.86688,20.00644-16.25229,20.00644-12.32904,0-16.25229-9.6393-16.25229-20.00644,0-10.36824,3.92325-20.00754,16.25229-20.00754Zm0,29.64684c5.09984,0,6.781-3.47505,6.781-9.6393s-1.68116-9.6393-6.781-9.6393-6.781,3.47505-6.781,9.6393,1.68116,9.6393,6.781,9.6393Z"/>
        <path class="cls-15" d="M404.55074,448.48245c-4.18757,0-8.51853-3.2069-8.51853-8.57435,0-3.24083,1.15799-5.63341,3.75415-7.75785l9.16538-7.65606,.49253-.41701c1.42286-1.20505,4.07265-3.44769,4.07265-4.51264,.03065-.04816-.27691-.28019-1.28933-.28019-1.39659,0-1.52464,.23641-1.80265,.75411l-.17403,.32945c-.79461,1.52246-2.44731,4.68886-7.15806,4.68886-4.35175,0-7.50939-3.39406-7.50939-8.06978,0-7.24124,5.98694-14.57114,17.42889-14.57114,8.45286,0,16.98123,4.83443,16.98123,15.63609,0,6.75856-4.41851,11.41459-6.97418,13.67474h.75302c4.55752,0,8.12669,3.69176,8.12669,8.40579,0,4.76-3.73445,8.34997-8.68708,8.34997h-18.6613Z"/>
        <path class="cls-7" d="M423.77242,435.089c2.46592,0,4.76438,2.01717,4.76438,5.04348,0,3.25068-2.57865,4.98766-5.32476,4.98766h-18.6613c-2.57865,0-5.15621-1.96135-5.15621-5.21203,0-2.18573,.67203-3.64251,2.52174-5.15621l9.19055-7.67685c2.63447-2.24264,5.77242-4.70746,5.77242-7.51049,0-1.73698-1.12077-3.64251-4.65164-3.64251-2.85775,0-3.97852,1.06495-4.76328,2.52174-.78476,1.45788-1.45679,3.25068-4.37145,3.25068-2.46592,0-4.14708-1.90553-4.14708-4.70746,0-5.49222,4.76438-11.20882,14.06657-11.20882,9.91949,0,13.61892,6.27698,13.61892,12.27377,0,6.16425-4.65164,10.19969-6.89319,12.0494l-6.16534,4.98766h10.19969Z"/>
        <path class="cls-15" d="M442.88137,448.48245c-4.18757,0-8.51853-3.2069-8.51853-8.57435,0-3.23973,1.15799-5.63232,3.75415-7.75785l9.16647-7.65606,.49362-.4192c1.42286-1.20395,4.07046-3.4455,4.07046-4.51045,.03065-.04816-.27691-.28019-1.28823-.28019-1.39768,0-1.52574,.23641-1.80374,.75411l-.17184,.32616c-.79461,1.52246-2.44731,4.69214-7.15915,4.69214-4.35175,0-7.51049-3.39406-7.51049-8.06978,0-7.24124,5.98694-14.57114,17.42889-14.57114,8.45286,0,16.98123,4.83443,16.98123,15.63609,0,6.75856-4.41851,11.41459-6.97418,13.67474h.75302c4.55752,0,8.12669,3.69176,8.12669,8.40579,0,4.76-3.73445,8.34997-8.68708,8.34997h-18.6613Z"/>
        <path class="cls-7" d="M462.10306,435.089c2.46592,0,4.76438,2.01717,4.76438,5.04348,0,3.25068-2.57865,4.98766-5.32476,4.98766h-18.6613c-2.57865,0-5.15621-1.96135-5.15621-5.21203,0-2.18573,.67312-3.64251,2.52174-5.15621l9.19165-7.67685c2.63338-2.24264,5.77132-4.70746,5.77132-7.51049,0-1.73698-1.12077-3.64251-4.65055-3.64251-2.85885,0-3.97962,1.06495-4.76438,2.52174-.78367,1.45788-1.45679,3.25068-4.37036,3.25068-2.46592,0-4.14817-1.90553-4.14817-4.70746,0-5.49222,4.76438-11.20882,14.06657-11.20882,9.91949,0,13.61892,6.27698,13.61892,12.27377,0,6.16425-4.65164,10.19969-6.89319,12.0494l-6.16425,4.98766h10.19859Z"/>
      </g>
    </g>
    <g id="logo"/>
  </g>
</svg>