<svg width="1512" height="1050" viewBox="0 0 1512 1050" fill="none" xmlns="http://www.w3.org/2000/svg">
<path d="M0 186.212C0 186.212 172.22 -17.1537 293.14 1.16754C414.06 19.4888 615.594 12.1601 729.186 12.1601C939.927 12.1601 1517 293.14 1517 293.14V1049.14H0V186.212Z" fill="#0F121A"/>
<path d="M578.952 13.4788C566.874 13.5549 554.633 13.603 542.31 13.6075C542.31 13.6075 607.292 44.2356 646.741 67.7886C693.948 95.9737 724.488 108.36 762.165 148.402C781.635 169.095 806.136 206.366 806.136 206.366H875.756C875.756 206.366 845.879 169.101 823.541 148.37C781.28 109.148 750.594 95.1414 699.872 67.7242C654.342 43.113 578.952 13.4788 578.952 13.4788Z" fill="#2A2F36"/>
<path d="M0 520.483C0 520.483 226.596 354.916 384.746 270.837C540.477 188.044 682.922 225.09 848.274 184.38C969.194 154.609 1064.46 87.2773 1161.57 87.2773C1258.67 87.2773 1517 239.631 1517 239.631V1049.14H0V520.483Z" fill="#171F2C"/>
<path d="M588.113 270.837C612.629 245.374 654.069 208.852 654.069 208.852C679.44 207.162 705.035 205.562 731.018 203.142C731.018 203.142 694.41 243.667 672.39 270.837C642.055 308.27 622.037 327.715 599.105 370.089C576.905 411.112 556.966 481.849 556.966 481.849H448.871C448.871 481.849 480.599 407.357 509.331 364.593C535.864 325.103 554.746 305.492 587.598 271.371L588.113 270.837Z" fill="#5C6879"/>
<path d="M0 575.288C0 575.288 208.398 436.046 393.907 436.046C767.661 436.046 1517 558.798 1517 558.798V1047.98H0V575.288Z" fill="#9DB4D4"/>
<path d="M859.687 691.549C724.629 594.667 516.659 439.71 516.659 439.71C603.966 444.099 701.859 452.447 801.299 462.774C801.299 462.774 997.412 621.336 1137.75 691.549C1385.09 815.296 1517 851.939 1517 851.939V1031.49C1517 1031.49 1198.21 934.384 859.687 691.549Z" fill="#D9E1EB"/>
<path d="M859.687 691.549C724.629 594.667 516.659 439.71 516.659 439.71H512.995C512.995 439.71 771.848 636.735 910.566 736.515C1119.43 886.749 1517 1042.48 1517 1042.48V1031.49C1517 1031.49 1198.21 934.384 859.687 691.549Z" fill="#E1E8F1"/>
<path d="M1137.75 691.549C997.412 621.336 801.3 462.774 801.3 462.774C793.128 461.925 784.967 461.09 776.821 460.269C776.821 460.269 977.523 624 1123.09 705.368C1268.76 786.792 1517 873.924 1517 873.924V851.939C1517 851.939 1385.09 815.296 1137.75 691.549Z" fill="#89A5C7"/>
</svg>
