<?xml version="1.0" encoding="UTF-8"?><svg xmlns="http://www.w3.org/2000/svg" viewBox="0 0 333.96817 94.5"><defs><style>.d{fill:#857150;}.e{fill:none;stroke:#4f432f;stroke-miterlimit:10;stroke-width:4.5px;}.f{fill:#fff;opacity:.3;}.g{fill:#b99073;opacity:.35;}</style></defs><g id="a"/><g id="b"><g id="c"><g><polygon class="d" points="2.25 92.25 331.71817 92.25 331.71817 82.08636 313.67211 76.76579 331.71817 70.39104 331.71817 58.72047 313.1399 47.42082 331.71817 34.14522 331.71817 34.14522 331.71817 28.17983 302.51312 19.72352 331.71817 13.25114 331.71817 2.25 2.25 2.25 2.25 15.80291 20.25181 19.72352 2.25 31.50993 2.25 38.79292 15.76554 50.43814 2.25 61.35576 2.25 73.63006 26.60736 77.92044 2.25 85.53335 2.25 92.25"/><rect class="f" x="2.25" y="2.25" width="329.4682" height="7.03471"/><path class="g" d="M20.48501,18.51266c14.12869-6.81629,25.47012-4.06513,41.13198-3.17737s31.08669,4.08778,46.61257,6.33033c65.98069,9.53023,157.60334-1.10347,223.72182-9.62534-1.47714,1.35266-27.445,5.52559-28.92215,6.87825,3.46336,.38653,6.79138,1.90331,9.35512,4.26372-7.88845,2.10503-16.02135,3.11441-24.12392,4.11799-49.34174,6.11145-99.09548,12.23371-148.65341,8.23756-45.72056-3.68672-92.39682-15.87032-136.67473-3.89419,3.25613-5.45955,13.91129-13.60282,17.55272-13.13095Z"/><path class="g" d="M13.34283,47.71201c20.00896,1.4997,40.06135-1.28824,60.11225-2.04255,51.5869-1.94067,83.96895,5.17354,135.43986,1.20869,18.41983-1.4189,57.00397-6.37232,75.10573-10.06413,29.647-6.04644,28.23524-3.78762,44.44986-1.50212-4.25483,4.33911-12.37498,8.67822-16.62981,13.01734,4.39528,3.018,9.02312,5.69724,13.82894,8.00612-10.00381,2.07414-20.30191,2.16189-30.51826,2.09467-96.93432-.63778-194.42385-14.45958-290.40311-.87094,3.96716-3.04586,7.93432-6.09171,8.61455-9.84709Z"/><path class="g" d="M7.55228,74.56402c43.83422-6.18418,98.21212-10.43517,142.46722-9.35373,29.92652,.7313,59.7401,4.79176,89.67382,4.4696,29.40063-.31642,63.0795-9.75699,92.02484-4.59325,0,5.3044-13.38787,9.57752-18.5475,10.30222,2.88336,.78011,12.24739,4.21555,14.54501,6.12429-29.85872,.66579-60.93309,5.12406-91.43257,3.83773-31.09196-1.31131-68.99668-12.34577-100.01359-9.81968-42.52762,3.46354-85.15486,14.11504-127.37146,7.92201l12.19854-4.91486c-1.21175-.65628-12.72796-3.26056-13.54432-3.97434Z"/><polygon class="e" points="2.25 92.25 331.71817 92.25 331.71817 82.08636 313.67211 76.76579 331.71817 70.39104 331.71817 58.72047 313.1399 47.42082 331.71817 34.14522 331.71817 34.14522 331.71817 28.17983 302.51312 19.72352 331.71817 13.25114 331.71817 2.25 2.25 2.25 2.25 15.80291 20.25181 19.72352 2.25 31.50993 2.25 38.79292 15.76554 50.43814 2.25 61.35576 2.25 73.63006 26.60736 77.92044 2.25 85.53335 2.25 92.25"/></g></g></g></svg>