<svg width="393" height="422" viewBox="0 0 393 422" fill="none" xmlns="http://www.w3.org/2000/svg">
<path d="M137.547 303.877L112.396 320.088C112.396 320.088 112.066 341.895 148.305 334.172L174.943 315.297" fill="#F26522"/>
<path d="M137.547 303.877L112.396 320.088C112.396 320.088 112.066 341.895 148.305 334.172L174.943 315.297" stroke="#231F20" stroke-width="0.565285" stroke-miterlimit="10"/>
<path d="M280.112 303.877C288.468 309.26 296.845 314.636 305.242 320.006C305.242 320.006 305.572 341.813 269.353 334.089L242.695 315.215" fill="#F26522"/>
<path d="M280.112 303.877C288.468 309.26 296.845 314.636 305.242 320.006C305.242 320.006 305.572 341.813 269.353 334.089L242.695 315.215" stroke="#231F20" stroke-width="0.565285" stroke-miterlimit="10"/>
<path d="M317.281 175.656C317.797 184.743 318.086 193.829 318.251 202.915C318.705 226.313 318.251 250.639 307.926 271.662C298.779 290.454 282.218 305.158 263.22 313.852C244.223 322.546 222.871 325.478 201.995 324.177C166.127 322.112 129.144 305.88 111.137 274.801C99.615 254.976 96.848 231.434 95.9188 208.45C94.1636 165.248 98.5619 120.353 116.568 80.5797C133.501 43.3669 165.879 4.13028 211.019 7.39311C235.488 9.10713 257.542 23.9138 273.442 42.4995C291.799 64.121 303.218 90.8638 309.744 118.536C313.885 137.325 316.406 156.436 317.281 175.656Z" fill="#231F20" stroke="#231F20" stroke-width="0.565285" stroke-miterlimit="10"/>
<path d="M97.2814 155.769C87.3077 166.342 79.3989 175.532 73.7204 182.182C71.1805 185.197 65.7703 191.681 59.2658 200.396C52.3917 208.947 46.7799 218.439 42.6017 228.584C38.4718 238.91 39.5042 242.11 40.64 243.824C41.2181 244.712 43.7374 248.12 55.0946 248.099C67.0319 247.884 78.6841 244.414 88.7944 238.063C91.6854 235.392 94.59 232.742 97.5085 230.112" fill="#231F20"/>
<path d="M97.2814 155.769C87.3077 166.342 79.3989 175.532 73.7204 182.182C71.1805 185.197 65.7703 191.681 59.2658 200.396C52.3917 208.947 46.7799 218.439 42.6017 228.584C38.4718 238.91 39.5042 242.11 40.64 243.824C41.2181 244.712 43.7374 248.12 55.0946 248.099C67.0319 247.884 78.6841 244.414 88.7944 238.063C91.6854 235.392 94.59 232.742 97.5085 230.112" stroke="#231F20" stroke-width="0.565285" stroke-miterlimit="10"/>
<path d="M314.987 155.377C324.94 165.929 332.87 175.036 338.652 181.727C341.191 184.742 346.602 191.227 353.106 199.941C359.998 208.483 365.618 217.978 369.791 228.13C373.921 238.455 372.868 241.656 371.753 243.37C371.174 244.258 368.655 247.665 357.298 247.645C345.338 247.433 333.663 243.956 323.536 237.588L317.734 232.322" fill="#231F20"/>
<path d="M314.987 155.377C324.94 165.929 332.87 175.036 338.652 181.727C341.191 184.742 346.602 191.227 353.106 199.941C359.998 208.483 365.618 217.978 369.791 228.13C373.921 238.455 372.868 241.656 371.753 243.37C371.174 244.258 368.655 247.665 357.298 247.645C345.338 247.433 333.663 243.956 323.536 237.588L317.734 232.322" stroke="#231F20" stroke-width="0.565285" stroke-miterlimit="10"/>
<path d="M291.694 265.549C299.954 245.704 300.718 228.997 301.338 211.155C301.843 193.713 300.771 176.261 298.137 159.012C293.553 124.277 286.119 105.732 284.24 101.189C279.697 90.1617 265.139 54.8281 249.136 55.7574C246.266 55.9226 240.36 60.5277 228.693 69.738C214.114 81.2198 212.648 83.6153 208.043 83.8425C205.276 83.9871 201.849 83.3262 183.016 68.6641C168.748 57.5333 168.562 56.2736 165.609 55.9019C143.122 53.5684 131.455 94.5603 126.086 108.975C117.041 133.219 115.761 152.155 113.965 177.866C111.404 216.462 109.938 244.444 126.685 271.765C131.519 279.991 137.818 287.263 145.269 293.221C164.184 307.842 186.568 310.073 197.677 311.188C206.534 312.078 215.458 312.078 224.315 311.188C234.64 310.527 261.794 307.47 279.098 287.811C285.355 280.707 288.205 273.892 291.694 265.549Z" fill="white" stroke="white" stroke-width="0.565285" stroke-miterlimit="10"/>
<path d="M249.943 109.098C253.946 109.098 257.191 103.976 257.191 97.6577C257.191 91.3393 253.946 86.2172 249.943 86.2172C245.94 86.2172 242.695 91.3393 242.695 97.6577C242.695 103.976 245.94 109.098 249.943 109.098Z" fill="#231F20" stroke="#231F20" stroke-width="0.565285" stroke-miterlimit="10"/>
<path d="M192.434 105.175H218.349L205.959 124.277L192.434 105.175Z" fill="#FFDE17" stroke="#F7941D" stroke-width="0.565285" stroke-miterlimit="10"/>
<path d="M160.84 109.098C164.843 109.098 168.088 103.976 168.088 97.6577C168.088 91.3393 164.843 86.2172 160.84 86.2172C156.837 86.2172 153.592 91.3393 153.592 97.6577C153.592 103.976 156.837 109.098 160.84 109.098Z" fill="#231F20" stroke="#231F20" stroke-width="0.565285" stroke-miterlimit="10"/>
<path d="M241.353 420.802L244.698 372.397C244.698 372.397 19.4336 358.912 10.0794 318.973C10.0794 318.973 -23.5999 360.481 40.3721 386.646L241.353 420.802Z" fill="#F15A29" stroke="#231F20" stroke-width="0.565285" stroke-miterlimit="10"/>
<path d="M106.016 276.577V291.631C106.016 291.631 203.585 348.731 307.885 291.631V276.577C307.885 276.577 204.803 322.876 106.016 276.577Z" fill="#27AAE1" stroke="#231F20" stroke-width="0.423964" stroke-miterlimit="10"/>
<path d="M116.113 280.996L116.444 297.558" stroke="#231F20" stroke-width="0.423964" stroke-miterlimit="10"/>
<path d="M136.516 287.522L136.825 304.084" stroke="#231F20" stroke-width="0.423964" stroke-miterlimit="10"/>
<path d="M157.04 293.924L157.349 310.486" stroke="#231F20" stroke-width="0.423964" stroke-miterlimit="10"/>
<path d="M180.478 296.34L180.849 315.132" stroke="#231F20" stroke-width="0.423964" stroke-miterlimit="10"/>
<path d="M203.875 297.847L204.267 317.92" stroke="#231F20" stroke-width="0.423964" stroke-miterlimit="10"/>
<path d="M229.892 295.885L230.284 316.082" stroke="#231F20" stroke-width="0.423964" stroke-miterlimit="10"/>
<path d="M253.082 292.932L253.453 312.199" stroke="#231F20" stroke-width="0.423964" stroke-miterlimit="10"/>
<path d="M271.975 288.513L272.346 307.037" stroke="#231F20" stroke-width="0.423964" stroke-miterlimit="10"/>
<path d="M290.106 283.412L290.416 299.974" stroke="#231F20" stroke-width="0.423964" stroke-miterlimit="10"/>
<path d="M99.7163 130.72C100.563 126.59 101.781 121.159 103.475 115.067C105.639 107.548 108.225 100.157 111.218 92.9289C114.602 84.6376 118.491 76.5617 122.864 68.7468C119.048 67.1652 114.953 66.3632 110.821 66.388C106.69 66.4128 102.605 67.264 98.8078 68.8914C86.129 74.7768 83.0522 88.1999 81.9991 92.8463C81.2351 96.1711 77.6628 111.763 87.6158 122.914C90.898 126.529 95.0701 129.22 99.7163 130.72Z" fill="#DA1C5C" stroke="#231F20" stroke-width="0.565285" stroke-miterlimit="10"/>
<path d="M311.684 124.401C310.858 120.167 309.619 114.819 307.946 108.727C305.783 101.181 303.198 93.7622 300.202 86.5065C296.786 78.2118 292.848 70.1418 288.412 62.345C292.26 60.7686 296.384 59.9749 300.543 60.0104C304.702 60.0458 308.812 60.9097 312.633 62.5515C325.312 68.4783 328.368 81.9013 329.421 86.5065C330.185 89.8313 333.758 105.423 323.805 116.595C320.506 120.2 316.33 122.889 311.684 124.401Z" fill="#DA1C5C" stroke="#231F20" stroke-width="0.565285" stroke-miterlimit="10"/>
<path d="M100.895 68.1042L118.271 77.3866L122.883 68.7527L105.507 59.4703L100.895 68.1042Z" fill="#1C75BC" stroke="#231F20" stroke-width="0.565285" stroke-miterlimit="10"/>
<path d="M305.754 53.1009L288.36 62.35L292.955 70.9927L310.349 61.7437L305.754 53.1009Z" fill="#1C75BC" stroke="#231F20" stroke-width="0.565285" stroke-miterlimit="10"/>
<path d="M109.898 60.5896L121.937 67.1979C124.167 64.0177 155.183 20.2998 209.924 21.5389C258.76 22.6334 286.864 58.5245 290.313 63.109L300.885 54.8487C278.295 18.0076 237.14 -2.76716 195.449 1.61082C138.87 7.55826 112.005 56.6247 109.898 60.5896Z" fill="#DA1C5C" stroke="#231F20" stroke-width="0.565285" stroke-miterlimit="10"/>
<path d="M94.8024 169.337L88.4837 159.011C88.4837 159.011 64.7368 171.65 72.1087 181.975L91.8082 216.173L94.8024 169.337Z" fill="#27AAE1" stroke="#231F20" stroke-width="0.423964" stroke-miterlimit="10"/>
<path d="M91.8092 216.049L70.912 181.191C66.8608 183.139 63.14 185.71 59.8852 188.811C55.8998 192.611 51.7906 196.534 51.6254 202.213C51.5859 204.567 52.1701 206.89 53.3187 208.945C56.3079 215.428 59.9544 221.587 64.2009 227.325C71.4504 237.068 80.3213 245.493 90.4257 252.23L91.8092 216.049Z" fill="#27AAE1" stroke="#231F20" stroke-width="0.423964" stroke-miterlimit="10"/>
<path d="M85.5307 249.627C70.4705 238.562 58.8452 223.464 51.996 206.075C49.9128 206.818 47.9559 207.877 46.1935 209.214C44.3144 210.618 39.9987 213.881 39.6063 218.672C39.4819 220.392 39.8094 222.115 40.5562 223.669C42.7406 228.392 45.1596 233.003 47.8042 237.485C54.6804 247.191 58.3973 252.415 65.6659 256.69C67.6988 257.869 69.8262 258.878 72.026 259.705C74.0264 259.4 75.9606 258.758 77.7459 257.805C81.126 255.952 83.8465 253.095 85.5307 249.627Z" fill="#27AAE1" stroke="#231F20" stroke-width="0.423964" stroke-miterlimit="10"/>
<path d="M315.792 160.891L322.111 150.565C322.111 150.565 345.837 163.142 338.486 173.467L318.786 207.665L315.792 160.891Z" fill="#27AAE1" stroke="#231F20" stroke-width="0.423964" stroke-miterlimit="10"/>
<path d="M318.788 207.624C325.753 196.018 332.719 184.405 339.685 172.786C343.695 174.754 347.384 177.316 350.629 180.385C354.594 184.185 358.724 188.129 358.889 193.788C358.917 196.147 358.334 198.474 357.196 200.541C349.049 218.152 336.183 233.162 320.027 243.907C319.641 231.792 319.228 219.698 318.788 207.624Z" fill="#27AAE1" stroke="#231F20" stroke-width="0.423964" stroke-miterlimit="10"/>
<path d="M325.064 241.202C332.011 236.107 338.259 230.122 343.648 223.401C349.896 215.616 354.935 206.935 358.599 197.649C360.682 198.393 362.639 199.451 364.401 200.788C366.26 202.213 370.596 205.476 370.988 210.267C371.107 211.989 370.773 213.712 370.018 215.264C367.855 220.014 365.443 224.647 362.79 229.142C355.914 238.848 352.197 244.093 344.929 248.368C342.894 249.543 340.767 250.552 338.569 251.383C336.566 251.075 334.631 250.425 332.849 249.462C329.448 247.598 326.724 244.707 325.064 241.202Z" fill="#27AAE1" stroke="#231F20" stroke-width="0.423964" stroke-miterlimit="10"/>
<path d="M319.055 200.83C319.055 200.83 329.855 168.325 322.256 157.463C314.657 146.6 206.226 184.577 206.226 184.577L205.4 184.33L204.554 184.577C204.554 184.577 96.1236 146.373 88.5246 157.36C80.9256 168.346 91.7253 200.726 91.7253 200.726C84.2708 214.335 92.1589 234.16 92.1589 234.16C82.5982 269.907 99.9437 280.686 99.9437 280.686C131.372 300.098 169.388 307.326 205.4 308.173C241.392 307.326 279.408 300.098 310.836 280.686C310.836 280.686 328.265 269.907 318.621 234.263C318.621 234.263 326.509 214.438 319.055 200.83Z" fill="#27AAE1" stroke="#231F20" stroke-width="0.565285" stroke-miterlimit="10"/>
<path d="M238.069 222.141C238.069 222.141 302.083 219.147 319.614 198.992" stroke="#231F20" stroke-width="0.423964" stroke-miterlimit="10"/>
<path d="M173.23 222.141C173.23 222.141 109.216 219.147 91.6851 198.992" stroke="#231F20" stroke-width="0.423964" stroke-miterlimit="10"/>
<path d="M238.069 254.914C238.069 254.914 302.083 251.941 319.614 231.785" stroke="#231F20" stroke-width="0.423964" stroke-miterlimit="10"/>
<path d="M173.23 256.07C173.23 256.07 109.216 253.076 91.6851 232.921" stroke="#231F20" stroke-width="0.423964" stroke-miterlimit="10"/>
<path d="M328.141 119.63C323.261 118.295 318.061 118.799 313.528 121.045C308.994 123.291 305.443 127.123 303.548 131.814C300.853 129.71 297.68 128.304 294.312 127.72C290.943 127.136 287.482 127.393 284.236 128.467C280.991 129.542 278.06 131.401 275.705 133.88C273.35 136.358 271.643 139.38 270.736 142.677C270.201 144.697 269.957 146.783 270.013 148.872C267.65 146.746 264.821 145.204 261.753 144.37C259.131 143.637 256.39 143.43 253.687 143.76C250.985 144.091 248.374 144.953 246.006 146.296C243.637 147.64 241.558 149.438 239.888 151.589C238.217 153.739 236.988 156.198 236.272 158.826C235.973 159.942 235.772 161.082 235.673 162.233C234.358 161.56 232.973 161.034 231.543 160.663C226.647 159.32 221.428 159.827 216.882 162.088C210.564 157.401 200.776 155.893 190.988 158.929C187.381 160.031 183.978 161.712 180.911 163.906C180.81 162.302 180.526 160.716 180.064 159.177C179.045 155.792 177.173 152.725 174.629 150.27C172.085 147.816 168.953 146.056 165.534 145.158C162.115 144.261 158.522 144.256 155.101 145.145C151.679 146.034 148.543 147.787 145.993 150.235C146.014 146.279 144.905 142.4 142.795 139.054C140.686 135.707 137.664 133.034 134.086 131.348C130.508 129.662 126.523 129.033 122.599 129.537C118.676 130.04 114.978 131.654 111.942 134.189C110.527 131.182 108.408 128.561 105.764 126.548C103.12 124.535 100.029 123.19 96.7544 122.628C93.4795 122.065 90.1172 122.301 86.9529 123.315C83.7887 124.33 80.916 126.093 78.5787 128.455C76.2415 130.817 74.5088 133.708 73.5278 136.883C72.5468 140.058 72.3465 143.423 72.9438 146.692C73.5411 149.961 74.9184 153.038 76.9588 155.661C78.9992 158.283 81.6424 160.375 84.6639 161.758C83.4306 163.933 82.6486 166.334 82.3647 168.817C82.0809 171.301 82.301 173.817 83.012 176.214C86.3778 187.159 99.9445 192.734 113.305 188.604C117.381 187.351 121.141 185.239 124.331 182.409C124.446 183.297 124.632 184.174 124.889 185.031C128.276 195.976 142.4 201.325 156.441 196.988C162.146 195.305 167.253 192.032 171.164 187.551C174.819 198.145 188.985 203.204 203.15 198.826C204.1 198.537 205.029 198.207 205.938 197.835C206.799 199.146 207.858 200.317 209.077 201.304C206.921 202.746 205.179 204.726 204.024 207.048C202.868 209.37 202.34 211.954 202.49 214.543C202.64 217.133 203.464 219.638 204.88 221.811C206.296 223.984 208.255 225.749 210.564 226.932C208.548 228.152 206.853 229.837 205.62 231.845C204.388 233.854 203.653 236.128 203.477 238.478C203.301 240.827 203.69 243.185 204.61 245.355C205.53 247.524 206.955 249.442 208.767 250.949C206.676 252.42 205 254.407 203.902 256.716C202.804 259.025 202.321 261.579 202.5 264.13C202.678 266.68 203.513 269.142 204.922 271.275C206.331 273.409 208.267 275.143 210.543 276.308C209.779 276.804 202.799 281.471 202.469 289.525C202.139 298.219 209.758 305.302 217.089 306.376C219.299 306.67 221.547 306.48 223.676 305.818L223.8 201.531C228.606 202.062 233.446 200.889 237.476 198.218C241.506 195.546 244.471 191.544 245.853 186.911C249.904 191.268 255.111 194.384 260.866 195.894C275.031 199.756 288.99 193.953 292.005 182.904C292.243 182.047 292.402 181.169 292.48 180.282C295.76 183.011 299.592 184.998 303.713 186.105C317.197 189.802 330.557 183.834 333.593 172.786C334.222 170.383 334.364 167.879 334.009 165.421C333.654 162.963 332.811 160.601 331.528 158.474C335.389 156.691 338.605 153.76 340.737 150.08C342.869 146.401 343.813 142.152 343.44 137.916C343.068 133.68 341.396 129.662 338.654 126.411C335.912 123.16 332.233 120.835 328.121 119.754L328.141 119.63Z" fill="white" stroke="#231F20" stroke-width="0.565285" stroke-miterlimit="10"/>
<path d="M241.166 410.745L244.512 362.34C244.512 362.34 19.247 348.855 9.89284 308.916C9.89284 308.916 -23.7864 350.424 40.1856 376.589L241.166 410.745Z" fill="#FBB040" stroke="#231F20" stroke-width="0.565285" stroke-miterlimit="10"/>
<path d="M359.797 311.642L375.842 330.228C381.156 323.95 386.47 317.686 391.783 311.436C390.953 312.564 389.871 313.483 388.624 314.12C386.831 314.755 384.925 315.008 383.028 314.864C378.75 315.219 374.455 315.35 370.163 315.256C368.599 315.316 367.034 315.198 365.497 314.905C363.351 314.318 361.39 313.196 359.797 311.642Z" fill="#231F20" stroke="#231F20" stroke-width="0.282643" stroke-miterlimit="10"/>
<path d="M375.718 317.796C384.979 317.796 392.486 313.793 392.486 308.854C392.486 303.916 384.979 299.912 375.718 299.912C366.458 299.912 358.951 303.916 358.951 308.854C358.951 313.793 366.458 317.796 375.718 317.796Z" fill="#414042" stroke="#231F20" stroke-width="0.282643" stroke-miterlimit="10"/>
<path d="M378.114 194.407H373.323V308.834H378.114V194.407Z" fill="#6D6E71" stroke="#231F20" stroke-width="0.282643" stroke-miterlimit="10"/>
<path d="M377.947 158.846H373.508C370.645 158.846 368.325 161.167 368.325 164.03V194.015C368.325 196.878 370.645 199.198 373.508 199.198H377.947C380.81 199.198 383.13 196.878 383.13 194.015V164.03C383.13 161.167 380.81 158.846 377.947 158.846Z" fill="#BE1E2D" stroke="#231F20" stroke-width="0.282643" stroke-miterlimit="10"/>
<path opacity="0.54" d="M8.38428 313.728C10.9552 319.842 14.6144 325.44 19.1839 330.248C31.0574 342.639 45.863 345.716 66.1614 349.722C117.165 359.8 121.089 360.213 121.089 360.213C157.06 363.992 196.335 368.308 241.475 373.14L241.847 364.88C213.185 361.989 184.4 359.035 142.523 354.699C107.415 350.575 72.7267 343.438 38.8422 333.366C34.6278 332.103 30.5527 330.415 26.6797 328.328C19.7795 324.561 13.5884 319.62 8.38428 313.728Z" fill="#FFF33E"/>
<path d="M125.116 349.185C121.108 351.188 117.665 354.163 115.101 357.838C106.387 370.497 112.747 386.088 113.387 387.575L98.8084 384.911C97.304 381.542 96.4426 377.921 96.2686 374.235C95.5871 358.87 107.626 348.318 109.691 346.562C113.298 346.137 116.953 346.425 120.449 347.409C122.056 347.857 123.618 348.452 125.116 349.185Z" fill="#A97C50" stroke="#231F20" stroke-width="0.282643" stroke-miterlimit="10"/>
<path d="M164.887 355.484C160.879 357.487 157.436 360.462 154.872 364.136C146.179 376.795 152.539 392.387 153.158 393.874L138.58 391.21C137.075 387.84 136.214 384.219 136.04 380.533C135.359 365.169 147.418 354.616 149.483 352.84C153.084 352.435 156.731 352.729 160.22 353.708C161.828 354.152 163.391 354.747 164.887 355.484Z" fill="#A97C50" stroke="#231F20" stroke-width="0.282643" stroke-miterlimit="10"/>
<path opacity="0.76" d="M87.6578 121.2C85.8105 114.622 85.0571 107.785 85.4276 100.962C85.4551 95.2374 86.6349 89.5767 88.8967 84.3177C91.5826 78.5356 95.6712 73.5167 100.791 69.7175C97.5229 71.0059 94.5304 72.9052 91.9735 75.3139C87.9228 79.4482 85.1115 84.6349 83.8583 90.2857C81.7043 96.6296 81.3188 103.44 82.7432 109.987C83.697 113.989 85.3616 117.787 87.6578 121.2Z" fill="#1C75BC"/>
<path opacity="0.76" d="M323.6 115.191C325.437 108.61 326.19 101.775 325.83 94.9527C325.792 89.229 324.613 83.5703 322.361 78.3081C319.675 72.5261 315.586 67.5072 310.467 63.708C313.735 64.9964 316.727 66.8957 319.284 69.3044C323.335 73.4387 326.146 78.6254 327.399 84.2762C329.552 90.6203 329.938 97.4307 328.514 103.977C327.561 107.979 325.896 111.777 323.6 115.191Z" fill="#00A79D"/>
<path opacity="0.8" d="M294.194 57.5951C294.194 57.5951 262.992 -2.29232 197.348 3.38666C197.348 3.38666 253.865 -8.30171 298.757 54.1671L294.194 57.5951Z" fill="#00A79D"/>
<path opacity="0.27" d="M273.564 47.7653C280.42 58.0313 286.567 68.7533 291.963 79.8567C301.771 100.033 303.175 109.305 303.568 115.252C303.882 120.015 303.702 124.797 303.031 129.522C306.293 124.772 308.028 122.212 308.028 122.212L308.4 115.727C308.916 105.67 296.671 80.7447 296.671 80.7447C289.134 65.4011 284.942 60.0938 283.558 58.3179C280.521 54.5328 277.179 51.0034 273.564 47.7653Z" fill="#27AAE1"/>
<path opacity="0.76" d="M121.606 64.6991C129.916 54.0732 139.954 44.921 151.3 37.6259C159.335 32.3632 168.037 28.1963 177.174 25.2353C197.514 19.0343 219.255 19.1447 239.53 25.5522C259.806 31.9597 277.663 44.3631 290.746 61.1265C284.943 52.3912 270.097 32.4838 244.822 22.0758C235.982 18.5122 226.703 16.1575 217.234 15.0751C203.558 13.2242 189.637 14.6758 176.637 19.3086C166.549 22.4735 156.998 27.1452 148.306 33.1653C137.038 41.4169 127.887 52.224 121.606 64.6991Z" fill="#9E1F63"/>
<path opacity="0.2" d="M94.6589 122.315C94.0953 131.825 96.4358 141.281 101.37 149.43C109.63 162.502 123.3 166.735 145.002 173.178C149.731 174.582 166.849 179.373 200.405 182.285C218.783 183.834 234.146 184.123 245.069 184.061C244.372 187.729 242.671 191.132 240.155 193.891C238.329 195.8 236.166 197.354 233.774 198.475C225.865 202.606 217.833 202.605 214.013 201.408C212.571 200.962 211.185 200.353 209.883 199.59C208.231 198.558 208.004 197.959 207.054 197.525C204.989 196.679 202.779 198.351 200.632 199.322C194.623 202.027 187.808 199.59 183.493 198.062C180.841 197.372 178.387 196.071 176.327 194.263C173.209 191.227 173.065 188.067 171.082 187.881C169.43 187.737 169.017 189.843 165.28 192.59C163.356 194.011 161.243 195.158 159.002 195.997C156.025 197.198 152.887 197.957 149.69 198.248C145.503 198.728 141.263 198.234 137.3 196.803C133.97 195.882 130.996 193.974 128.772 191.33C125.509 186.911 126.438 181.872 124.642 181.624C123.527 181.48 123.196 183.545 120.512 185.754C117.828 187.964 115.453 188.233 111.529 188.955C108.809 189.479 106.033 189.646 103.27 189.451C101.003 189.279 98.7647 188.843 96.5999 188.15C93.3922 187.283 90.4255 185.694 87.9271 183.503C85.6511 181.746 83.9712 179.331 83.1158 176.585C82.3931 173.818 82.9506 171.175 83.9211 166.632C84.6852 163.018 85.0362 163.286 84.871 162.316C84.2722 158.475 79.4609 158.186 75.8472 152.61C74.929 151.196 74.2327 149.65 73.7823 148.025C73.1384 145.121 73.245 142.1 74.092 139.249C74.686 135.746 76.1013 132.434 78.2219 129.584C84.0863 122.439 93.2134 122.294 94.6589 122.315Z" fill="#738ABA"/>
<path opacity="0.6" d="M89.6406 186.994C90.5492 190.669 91.4647 194.352 92.387 198.042C94.3735 200.189 96.5506 202.152 98.8916 203.907C103.703 207.52 109.443 210.453 125.137 214.232C135.982 216.985 147.031 218.864 158.176 219.849C166.291 220.531 173.168 220.654 178.289 220.592C165.459 220.222 152.736 218.139 140.459 214.397C121.858 208.753 104.577 199.435 89.6406 186.994Z" fill="#1C75BC"/>
<path opacity="0.33" d="M320.522 186.994C319.613 190.669 318.684 194.345 317.775 198.042C315.776 200.184 313.592 202.146 311.25 203.907C306.459 207.52 300.719 210.453 285.005 214.232C274.16 216.989 263.112 218.867 251.966 219.849C243.871 220.531 236.974 220.654 231.853 220.592C244.69 220.224 257.419 218.14 269.703 214.397C288.305 208.753 305.585 199.435 320.522 186.994Z" fill="#8DC63F"/>
<path opacity="0.6" d="M90.3638 221.191C90.5909 222.926 90.942 224.826 91.4169 226.849C91.9375 229.004 92.5786 231.127 93.3373 233.21C95.1003 234.746 96.9553 236.174 98.892 237.484C106.945 242.957 114.193 245.167 125.137 247.81C130.176 249.008 136.309 250.474 143.99 251.692C147.914 252.312 151.342 252.663 158.156 253.406C163.631 254.196 169.146 254.686 174.675 254.872C174.675 254.398 157.02 252.807 140.521 248.037C122.154 242.585 105.088 233.451 90.3638 221.191Z" fill="#1C75BC"/>
<path opacity="0.6" d="M90.8589 255.72C90.9576 260.189 91.7877 264.611 93.3162 268.812C93.9616 270.573 94.7345 272.285 95.6289 273.934C97.4348 276.174 99.439 278.248 101.617 280.129C103.331 281.595 108.783 286.076 128.049 292.829C129.886 293.469 136.721 295.844 145.952 298.364C152.477 300.139 157.226 301.193 160.613 301.936C167.648 303.482 174.794 304.477 181.985 304.91H183.472C183.472 304.91 148.368 296.34 143.247 294.44C135.966 291.923 128.947 288.708 122.287 284.837C109.919 277.397 99.22 267.485 90.8589 255.72Z" fill="#1C75BC"/>
<path opacity="0.6" d="M107.089 286.386V290.888C118.285 296.982 130.041 301.989 142.193 305.839C149.957 308.235 161.562 311.085 161.562 311.085C161.562 311.085 172.279 312.902 179.837 313.893C189.377 315.173 202.902 316.35 203.026 315.524C203.15 314.698 182.686 311.642 159.249 305.199C141.371 300.387 123.923 294.094 107.089 286.386Z" fill="#1C75BC"/>
<path opacity="0.47" d="M70.6846 258.136C73.429 254.964 75.8179 251.502 77.8086 247.81C79.8736 243.99 84.4371 234.387 85.6348 204.154C85.8206 199.301 86.0064 192.321 85.8206 183.834L90.2809 200.933C88.7817 204.871 87.8433 209 87.4932 213.199C87.1506 217.081 87.3242 220.99 88.0094 224.826C88.6074 227.947 89.5636 230.989 90.8591 233.892L87.2248 249.875L85.5315 248.616C85.5315 248.616 77.9119 260.717 70.6846 258.136Z" fill="#1C75BC"/>
<path opacity="0.47" d="M347.613 245.002C344.591 244.523 341.721 243.349 339.229 241.574C335.967 239.178 333.86 235.936 331.465 229.617C328.646 221.935 326.807 213.928 325.993 205.786C325.188 198.979 324.767 192.133 324.733 185.279L320.604 200.995C322.293 204.889 323.339 209.032 323.701 213.261C323.969 216.66 323.823 220.079 323.267 223.442C322.736 226.812 321.843 230.114 320.604 233.293L321.698 241.243L324.589 239.178C326.717 242.198 329.262 244.903 332.147 247.211C335.017 249.483 336.669 250.102 338.341 249.937C339.606 249.68 340.802 249.16 341.852 248.409C343.215 247.604 345.238 246.447 347.613 245.002Z" fill="#1C75BC"/>
<path opacity="0.38" d="M290.229 289.876C290.229 289.876 328.493 267.16 313.501 237.03C313.501 237.03 320.109 211.444 313.357 204.361L316.991 201.594C316.991 201.594 325.437 213.137 317.673 232.384L317.383 235.668C317.383 235.668 335.947 273.293 290.229 289.876Z" fill="#D7DF23"/>
<path opacity="0.54" d="M338.652 176.978C340.551 177.881 342.363 178.96 344.062 180.199C350.633 185.297 355.29 192.464 357.278 200.54C359.35 200.927 361.293 201.821 362.936 203.142C362.936 203.142 365.331 205.104 369.13 214.273C369.453 213.475 369.655 212.632 369.729 211.774C369.752 208.802 368.593 205.942 366.508 203.824C364.515 201.519 361.897 199.841 358.971 198.992L357.608 197.649C357.555 195.63 357.222 193.629 356.617 191.702C354.764 186.348 351.173 181.768 346.416 178.692C344.416 177.28 342.253 176.115 339.973 175.222" fill="#8DC63F"/>
<path opacity="0.54" d="M71.7587 185.486C69.8549 186.381 68.043 187.46 66.3485 188.707C59.7823 193.801 55.126 200.96 53.1329 209.028C51.0647 209.419 49.127 210.321 47.4956 211.651C47.4956 211.651 45.1003 213.716 41.3008 222.761C40.9681 221.973 40.7659 221.136 40.7019 220.283C40.6809 217.304 41.8389 214.439 43.9233 212.311C45.903 209.996 48.5265 208.321 51.4603 207.5L52.8232 206.157C52.8433 204.138 53.135 202.131 53.6904 200.189C55.5838 194.827 59.2188 190.254 64.0152 187.2C66.011 185.822 68.1589 184.679 70.4165 183.793" fill="#8DC63F"/>
<path opacity="0.62" d="M338.259 149.677C339.567 146.032 339.808 142.089 338.956 138.311C338.104 134.533 336.193 131.076 333.448 128.345C325.704 120.766 315.173 123.12 314.512 123.286C318.117 121.412 322.242 120.789 326.239 121.514C330.237 122.239 333.88 124.271 336.598 127.292C339.315 130.312 340.953 134.149 341.254 138.201C341.554 142.252 340.501 146.289 338.259 149.677Z" fill="#27AAE1"/>
<path opacity="0.62" d="M303.549 136.399C301.229 134.199 298.331 132.705 295.194 132.091C292.057 131.477 288.81 131.768 285.832 132.93C283.263 134.079 281.007 135.826 279.251 138.024C277.494 140.223 276.288 142.809 275.734 145.568C275.575 142.497 276.334 139.448 277.916 136.81C279.497 134.173 281.829 132.067 284.613 130.761C287.936 129.377 291.635 129.182 295.085 130.209C298.535 131.236 301.524 133.423 303.549 136.399Z" fill="#27AAE1"/>
<path opacity="0.62" d="M314.389 182.925C317.577 182.726 320.642 181.622 323.224 179.742C325.806 177.861 327.799 175.284 328.967 172.311C329.879 169.647 330.139 166.804 329.726 164.02C329.313 161.235 328.238 158.59 326.592 156.306C329.199 158.419 331.028 161.338 331.792 164.605C332.557 167.872 332.213 171.3 330.814 174.349C329.416 177.399 327.043 179.897 324.07 181.449C321.096 183.002 317.69 183.521 314.389 182.925Z" fill="#27AAE1"/>
<path d="M162.14 317.713L146.095 330.104C138.769 332.597 130.789 332.355 123.628 329.422C121.411 328.449 119.329 327.193 117.434 325.685L112.891 320.77C112.799 322.816 113.24 324.851 114.171 326.676C118.156 334.007 131.31 336.485 146.859 332.644L165.877 319.014L162.14 317.713Z" fill="#EF4136"/>
<path d="M254.216 318.643L269.806 330.187C277.125 332.68 285.098 332.438 292.252 329.505C294.472 328.537 296.555 327.28 298.447 325.767L302.722 320.687C302.975 322.766 302.624 324.874 301.71 326.758C298.055 333.966 284.88 336.526 269.042 332.727L250.706 319.84L254.216 318.643Z" fill="#EF4136"/>
<path d="M115.122 320.46L135.978 307.181L138.786 307.409L121.833 318.354L115.122 320.46Z" fill="#FBB040"/>
<path d="M301.153 320.377L280.276 307.099L277.468 307.326L294.359 318.271L301.153 320.377Z" fill="#FBB040"/>
<path d="M372.062 160.478C374.255 160.471 376.379 161.247 378.05 162.667C379.496 163.989 380.28 165.785 380.549 182.182C380.716 184.867 380.577 187.562 380.136 190.215C379.516 193.499 378.071 197.649 378.216 197.691C379.297 197.236 380.253 196.528 381.003 195.626C381.603 194.771 382.018 193.8 382.222 192.776C382.056 184.33 382.325 177.102 382.325 177.102C382.325 174.479 382.325 171.836 382.325 169.213C382.668 167.036 382.352 164.807 381.416 162.811C380.773 161.693 379.828 160.777 378.69 160.168C377.63 159.731 376.487 159.532 375.342 159.586C374.196 159.639 373.077 159.944 372.062 160.478Z" fill="#F15A29"/>
<path d="M380.88 301.296C382.537 301.522 384.081 302.265 385.293 303.417C386.505 304.57 387.323 306.074 387.633 307.718C387.677 308.817 387.501 309.913 387.116 310.943C386.731 311.972 386.145 312.915 385.391 313.715C384.637 314.515 383.731 315.157 382.726 315.602C381.721 316.047 380.637 316.288 379.538 316.309C381.364 316.316 383.172 315.953 384.854 315.243C386.536 314.534 388.057 313.491 389.326 312.179C389.942 311.608 390.432 310.914 390.763 310.142C391.094 309.37 391.258 308.537 391.246 307.697C390.937 305.385 388.459 304.022 386.641 303.03C384.855 302.076 382.897 301.486 380.88 301.296Z" fill="#939598"/>
<path d="M377.204 199.756L377.266 308.173" stroke="#939598" stroke-width="0.141321" stroke-miterlimit="10"/>
<path d="M164.33 356.433C159.838 361.596 156.597 367.725 154.86 374.344C153.123 380.963 152.936 387.893 154.315 394.596C153.53 393.151 147.17 381.008 153.035 368.535C155.478 363.444 159.419 359.221 164.33 356.433Z" fill="#F7941D"/>
<path d="M123.898 350.941C120.309 355.322 117.603 360.357 115.927 365.768C113.646 373.034 113.192 380.752 114.606 388.236C113.883 386.852 108.039 374.999 113.408 362.835C115.607 357.892 119.268 353.74 123.898 350.941Z" fill="#F7941D"/>
</svg>
