<svg width="122" height="85" viewBox="0 0 122 85" fill="none" xmlns="http://www.w3.org/2000/svg">
<path d="M79.77 9.05045L86.7033 4.9809C86.7033 4.9809 86.7926 -0.531974 76.8067 1.41725L69.4999 6.18614" fill="#F26522"/>
<path d="M79.77 9.05045L86.7033 4.9809C86.7033 4.9809 86.7926 -0.531974 76.8067 1.41725L69.4999 6.18614" stroke="#231F20" stroke-width="0.318411" stroke-miterlimit="10"/>
<path d="M40.4674 9.05045L33.534 4.9809C33.534 4.9809 33.4447 -0.531974 43.4307 1.41725L50.7375 6.18614" fill="#F26522"/>
<path d="M40.4674 9.05045L33.534 4.9809C33.534 4.9809 33.4447 -0.531974 43.4307 1.41725L50.7375 6.18614" stroke="#231F20" stroke-width="0.318411" stroke-miterlimit="10"/>
<path d="M30.2137 41.4433C30.0757 39.1518 29.9945 36.8529 29.9458 34.554C29.824 28.6468 29.9458 22.5016 32.7873 17.1896C35.4412 12.446 39.7958 8.68408 45.1195 6.5358C50.4257 4.41392 56.2166 3.5099 61.9901 3.90212C71.8787 4.43779 82.0838 8.52967 87.0606 16.3786C90.235 21.3856 90.9981 27.3523 91.2579 33.1405C91.7369 44.0546 90.5191 55.4003 85.5749 65.444C80.8823 74.8553 71.9598 84.7577 59.5139 83.9542C52.7673 83.5152 46.6864 79.7879 42.3024 75.0711C37.2444 69.6177 34.1187 62.8401 32.3164 55.8764C31.1695 51.1288 30.4661 46.3003 30.2137 41.4433Z" fill="#2E3192" stroke="#231F20" stroke-width="0.318411" stroke-miterlimit="10"/>
<path d="M90.868 46.4725C93.6202 43.8017 95.8041 41.5028 97.3629 39.7767C98.0692 39.0328 99.5631 37.3737 101.374 35.1715C103.27 33.0207 104.818 30.6302 105.969 28.074C107.089 25.4477 106.781 24.6517 106.513 24.2202C106.35 23.997 105.701 23.134 102.526 23.1414C99.2282 23.1946 96.0085 24.0718 93.2143 25.6784L90.7787 27.6871" fill="#2E3192"/>
<path d="M90.868 46.4725C93.6202 43.8017 95.8041 41.5028 97.3629 39.7767C98.0692 39.0328 99.5631 37.3737 101.374 35.1715C103.27 33.0207 104.818 30.6302 105.969 28.074C107.089 25.4477 106.781 24.6517 106.513 24.2202C106.35 23.997 105.701 23.134 102.526 23.1414C99.2282 23.1946 96.0085 24.0718 93.2143 25.6784L90.7787 27.6871" stroke="#231F20" stroke-width="0.318411" stroke-miterlimit="10"/>
<path d="M30.8711 46.5693C28.127 43.8984 25.9431 41.5995 24.3762 39.8735C23.678 39.1295 22.1841 37.4779 20.3737 35.2682C18.4734 33.1116 16.9255 30.7132 15.7785 28.1484C14.6582 25.5296 14.9667 24.7335 15.2346 24.302C15.3888 24.0788 16.087 23.2158 19.2208 23.2232C22.5201 23.2696 25.7418 24.1473 28.5329 25.7602L30.1567 27.0919" fill="#2E3192"/>
<path d="M30.8711 46.5693C28.127 43.8984 25.9431 41.5995 24.3762 39.8735C23.678 39.1295 22.1841 37.4779 20.3737 35.2682C18.4734 33.1116 16.9255 30.7132 15.7785 28.1484C14.6582 25.5296 14.9667 24.7335 15.2346 24.302C15.3888 24.0788 16.087 23.2158 19.2208 23.2232C22.5201 23.2696 25.7418 24.1473 28.5329 25.7602L30.1567 27.0919" stroke="#231F20" stroke-width="0.318411" stroke-miterlimit="10"/>
<path d="M37.2688 18.737C34.9875 23.744 34.7845 27.9698 34.614 32.4783C34.468 36.8957 34.7642 41.3161 35.499 45.6839C36.7574 54.4629 38.8033 59.1499 39.331 60.3031C40.6137 63.0707 44.5919 72.0059 49.0003 71.7678C49.8122 71.7232 51.4359 70.5626 54.6834 68.2339C58.7021 65.3324 59.108 64.7298 60.3664 64.6703C61.1215 64.6331 62.0795 64.8042 67.2592 68.5092C71.1967 71.3214 71.2617 71.6637 72.0654 71.7306C78.26 72.2886 81.4668 61.9324 82.9525 58.2869C85.445 52.164 85.8265 47.3802 86.2974 40.8853C87.0037 31.1392 87.4097 24.0714 82.7902 17.1598C81.4501 15.0857 79.7118 13.2508 77.6592 11.7437C72.4389 8.02376 66.2931 7.4881 63.208 7.20539C60.7787 6.97844 58.3305 6.97844 55.9012 7.20539C53.0678 7.36906 45.5661 8.1428 40.7923 13.1126C39.2624 14.7806 38.0692 16.6852 37.2688 18.737Z" fill="white" stroke="white" stroke-width="0.318411" stroke-miterlimit="10"/>
<path d="M48.7809 58.2646C47.6778 58.2646 46.7836 59.557 46.7836 61.1512C46.7836 62.7455 47.6778 64.0379 48.7809 64.0379C49.8839 64.0379 50.7781 62.7455 50.7781 61.1512C50.7781 59.557 49.8839 58.2646 48.7809 58.2646Z" fill="#231F20" stroke="#231F20" stroke-width="0.318411" stroke-miterlimit="10"/>
<path d="M64.6367 59.2541H57.4922L60.9102 54.4257L64.6367 59.2541Z" fill="#FFDE17" stroke="#F7941D" stroke-width="0.318411" stroke-miterlimit="10"/>
<path d="M73.348 58.2646C72.245 58.2646 71.3508 59.557 71.3508 61.1512C71.3508 62.7455 72.245 64.0379 73.348 64.0379C74.451 64.0379 75.3452 62.7455 75.3452 61.1512C75.3452 59.557 74.451 58.2646 73.348 58.2646Z" fill="#231F20" stroke="#231F20" stroke-width="0.318411" stroke-miterlimit="10"/>
<path d="M90.8681 45.8774C93.729 43.2874 96.4081 40.5342 98.8894 37.6341C100.513 35.7369 101.796 33.9812 102.445 33.1033C102.908 32.4634 103.493 31.6599 104.167 30.5886C104.831 29.5917 105.393 28.5407 105.847 27.449C106.19 26.688 106.398 25.8819 106.464 25.0609C106.111 25.6866 105.81 26.3356 105.563 27.0026C101.91 33.9216 96.0803 38.5417 90.8681 41.5697V45.8774Z" fill="#524FA1"/>
<path d="M30.8711 46.0336C28.0168 43.4379 25.3381 40.6851 22.8498 37.7903C21.2261 35.8932 19.9515 34.1374 19.302 33.2521C18.8392 32.6197 18.2547 31.8087 17.5727 30.7449C16.913 29.7467 16.3533 28.6959 15.9003 27.6053C15.5578 26.8442 15.3495 26.0381 15.2832 25.2171C15.6477 25.8381 15.9572 26.485 16.2088 27.1514C19.8135 34.0779 25.6427 38.698 30.8711 41.7185V46.0336Z" fill="#524FA1"/>
<path d="M78.0974 75.5323C76.5587 77.2946 74.7418 78.8367 72.7066 80.1078C70.5992 81.5078 68.222 82.5301 65.7002 83.1209C63.3372 83.6524 60.8869 83.776 58.4746 83.4855C65.6434 82.3954 72.3943 79.6593 78.0974 75.5323Z" fill="#524FA1"/>
<path d="M94.5459 25.351C93.0483 26.6691 91.9323 28.308 91.2984 30.1199C91.0327 30.8862 90.8611 31.6772 90.7869 32.4783L90.6895 27.5458C91.5745 26.9878 92.5162 26.4298 93.5311 25.8867C93.8666 25.6932 94.2049 25.5147 94.5459 25.351Z" fill="#171445"/>
<path d="M26.5114 25.0609C28.0071 26.3803 29.1228 28.0187 29.7588 29.8298C30.0231 30.5963 30.1946 31.3872 30.2703 32.1882L30.3677 27.2556C29.4828 26.6976 28.541 26.1471 27.5262 25.604L26.5114 25.0609Z" fill="#171445"/>
<path d="M72.7228 5.55376L77.1475 2.40674C79.165 1.78022 81.3613 1.84096 83.3339 2.57785C83.9372 2.82773 84.5044 3.1451 85.0226 3.52271L86.2891 4.76515C86.3129 4.24916 86.1898 3.73637 85.9319 3.27719C84.8358 1.42469 81.2068 0.799743 76.9202 1.78923L71.6755 5.23385L72.7228 5.55376Z" fill="#EF4136"/>
<path d="M47.3438 5.32314L43.041 2.40674C41.0235 1.78021 38.8272 1.84096 36.8546 2.57785C36.2493 2.82424 35.6816 3.14187 35.1659 3.52271L33.9806 4.76515C33.9216 4.25457 34.02 3.73907 34.2647 3.27719C35.2714 1.45444 38.9005 0.80718 43.2683 1.78923L48.3262 5.04043L47.3438 5.32314Z" fill="#EF4136"/>
<path d="M85.6885 4.86931L79.9405 8.22466L79.1286 8.15769L83.7887 5.39753L85.6885 4.86931Z" fill="#FBB040"/>
<path d="M58.6371 58.6217L60.3989 55.9731L60.7561 55.8467L59.3434 58.0116L58.6371 58.6217Z" fill="#FDFAD9"/>
<path d="M34.4027 4.89164L40.1588 8.23954L40.9707 8.18002L36.3106 5.41986L34.4027 4.89164Z" fill="#FBB040"/>
<path d="M86.476 43.6157C86.5897 42.6336 86.7439 41.168 86.8332 39.3824C87.2473 31.5484 87.7019 23.067 82.4004 15.7909C80.9779 13.7733 79.1679 12.0089 77.0584 10.5831C71.6919 7.0566 65.5299 6.69949 62.4448 6.52094C60.006 6.38769 57.5588 6.4724 55.138 6.77388C52.5058 6.99897 49.9223 7.56767 47.4658 8.46272C45.8019 9.06688 44.2408 9.88611 42.8301 10.8955C41.8985 11.5787 41.042 12.3437 40.2727 13.1795C39.8509 13.6277 39.4604 14.0998 39.1036 14.5931C38.2809 15.7806 37.5926 17.042 37.0496 18.3576C36.8466 18.7966 36.6924 19.1537 36.5949 19.3769C37.7153 18.4543 49.4874 9.03558 63.8006 12.2124C77.3587 15.1808 87.5395 28.3046 86.476 43.6157Z" fill="#E5ECEF"/>
<path d="M89.9823 42.5C122.08 42.5 121.604 84.5 121.604 84.5H0.360477C0.360477 84.5 -4.182 68.0706 18.9822 55C26.2237 50.9139 40.6858 55.8471 53.4822 55C64.7139 54.2565 84.4327 42.5 89.9823 42.5Z" fill="#9DB4D4"/>
<path d="M53.4822 55C40.6858 55.8471 26.2237 50.9139 18.9822 55C1.30209 64.9762 -0.237401 76.909 0.0246195 82C0.28664 87.091 14.7465 69.5743 25.9822 68C36.5117 66.5246 42.8752 70.7346 53.4822 70C68.6438 68.9499 75.8642 53.4431 90.9822 55C104.975 56.4411 121.53 81 121.184 78C119.826 66.2086 114.098 42.5 89.9823 42.5C84.4327 42.5 64.7139 54.2565 53.4822 55Z" fill="#A3BBDD"/>
<path d="M53.4823 55C40.6859 55.8471 26.2238 50.9139 18.9823 55C3.32238 63.8363 0.0273867 74.1999 0.0268555 80C0.0267181 81.5 10.2413 68.734 18.9823 65.5C31.666 60.8073 40.1101 67.52 53.4823 65.5C68.9498 63.1635 75.9378 50.249 91.4824 52C105.835 53.6167 120.71 74.5 120.426 73C118.073 60.5653 111.033 42.5 89.9824 42.5C84.4328 42.5 64.714 54.2565 53.4823 55Z" fill="#AFC5E2"/>
</svg>
