<svg xmlns="http://www.w3.org/2000/svg" viewBox="0 0 25.12 91.36"><defs><style>.cls-1{isolation:isolate;}.cls-2{fill:#754c29;}.cls-2,.cls-3,.cls-4,.cls-5{stroke:#231f20;}.cls-2,.cls-3,.cls-4,.cls-5,.cls-6{stroke-miterlimit:10;}.cls-2,.cls-3,.cls-5{stroke-width:0.75px;}.cls-3{fill:#fff;}.cls-4,.cls-6{fill:none;}.cls-4{stroke-width:0.5px;}.cls-5{fill:#ed1c24;}.cls-6{stroke:#a97c50;}.cls-7{fill:#fbb040;opacity:0.51;}.cls-8{fill:#2b3990;mix-blend-mode:multiply;opacity:0.09;}</style></defs><g class="cls-1"><g id="Layer_2" data-name="Layer 2"><g id="shading"><rect class="cls-2" x="4.93" y="32.26" width="4.31" height="58.93" rx="1.49" transform="translate(9 -0.38) rotate(8.31)"/><path class="cls-3" d="M4.4,33.56a12,12,0,0,0,6.41,2.58,12.22,12.22,0,0,0,7.75-2.06c5.49-3.56,6.11-10.15,6.18-11a22.78,22.78,0,0,0-3.58-12.94,22.85,22.85,0,0,0-11.42-9s2.54,8.67-5.37,16.73C2.1,20.1.23,22.88.38,26.34.53,29.46,2.6,31.92,4.4,33.56Z"/><line class="cls-4" x1="12.18" y1="29.34" x2="11.23" y2="35.9"/><line class="cls-4" x1="7.04" y1="31.94" x2="7.66" y2="35.25"/><line class="cls-4" x1="15.64" y1="26.32" x2="12.46" y2="36.05"/><path class="cls-5" d="M6.93,14.11a1.74,1.74,0,0,0-.47,1.41,2.08,2.08,0,0,0,2.68,1,9.7,9.7,0,0,1,3.74-.75c1.22.07,1.94,1.73,2.17,2.1.14.21.23.4.3.52a3.19,3.19,0,0,0,.73,1,3.38,3.38,0,0,0,2.25.89,3.46,3.46,0,0,0,3-2.38c.26-.84.56-1.05.78-1.09s.49.22,1,.23a1.63,1.63,0,0,0,1-.29c.77-.71-1.58-6.05-5.74-10.24A26.59,26.59,0,0,0,9.26.63a15.29,15.29,0,0,1,.49,5.7A16.32,16.32,0,0,1,8.56,10.9,19.23,19.23,0,0,1,6.93,14.11Z"/><line class="cls-6" x1="11.64" y1="36.69" x2="3.77" y2="89.63"/><path class="cls-7" d="M10.06,1.58a26,26,0,0,1,10.1,9,24.82,24.82,0,0,1,2.82,6,.68.68,0,0,0,.63-.11c.19-.21,0-.64-.4-1.67s-.6-1.44-.68-1.6a24.55,24.55,0,0,0-2.11-3.37,28.13,28.13,0,0,0-2.48-2.88A28,28,0,0,0,10.06,1.58Z"/><path class="cls-8" d="M24.2,19.67s2.48,14.58-12.93,16.5c0,0-4.06.87-9.73-6.05C1.54,30.12,14.64,40.14,24.2,19.67Z"/></g></g></g></svg>