<svg xmlns="http://www.w3.org/2000/svg" viewBox="0 0 78.03 64.64"><defs><style>.cls-1{fill:#603913;}.cls-1,.cls-2,.cls-3,.cls-4,.cls-5{stroke:#231f20;stroke-miterlimit:10;}.cls-2{fill:#00aeef;}.cls-3{fill:#009444;}.cls-4{fill:#fbb040;}.cls-5{fill:#ed1c24;}.cls-6{fill:#8b5e3c;}.cls-7{fill:#3c2415;}.cls-8{fill:#ffde17;}.cls-10,.cls-8,.cls-9{opacity:0.68;}.cls-9{fill:#f1f2f2;}.cls-10{fill:#8dc63f;}</style></defs><g id="Layer_2" data-name="Layer 2"><g id="shading"><path class="cls-1" d="M75.44,15.49C68.55.58,46.66-4,26.54,5.32S-4.3,34.24,2.59,49.15s28.78,19.46,48.9,10.17S82.33,30.4,75.44,15.49ZM65.18,36.85c-5.11,2.36-10.66,1.2-12.41-2.58s1-8.76,6.08-11.11S69.5,22,71.25,25.73,70.28,34.49,65.18,36.85Z"/><path class="cls-2" d="M34.38,26.69A5.59,5.59,0,0,0,32,28.63c-1.48,2.55.36,7.58,3.6,8.46,2.57.7,5-1.5,7-3.27a5.78,5.78,0,0,0,1.28-1.6,4.25,4.25,0,0,0,.64-2.59,5.7,5.7,0,0,0-1.17-2.33c-.79-1.22-1.19-1.84-1.73-2.07-.74-.31-1.14.05-3.24.55C35.93,26.38,35.58,26.09,34.38,26.69Z"/><path class="cls-3" d="M8.7,35.4c-1.08.86-2.64,2.09-2.79,3.83-.23,2.54,2.66,5,5.32,5.85,3.88,1.18,8.55-.84,9.48-3.56.54-1.58-.46-2.63.48-4.26s2.66-1.61,2.9-2.9S22.93,31.57,21.62,31c0,0-2-.86-5.33.5-.47.18-.49.25-1.74.89C9.84,34.77,9.56,34.72,8.7,35.4Z"/><path class="cls-4" d="M26.9,11.14a6.67,6.67,0,0,0-3.47,2.58c-1.82,3.23.95,9.16,4.17,9.8,2.28.45,2.7-2.18,8.11-3.79,1.66-.5,3.12-.7,4.08-2a5.38,5.38,0,0,0,.81-3.31,4.92,4.92,0,0,0-1.24-3.6,4.23,4.23,0,0,0-1.72-.95,7,7,0,0,0-3.06-.06,17,17,0,0,0-1.76.31C28.06,10.9,27.84,10.78,26.9,11.14Z"/><path class="cls-5" d="M30.78,46.43c-1.68-.65-3.81.17-5.11,1.26-1.54,1.3-2.73,3.65-2.09,5.49,1.2,3.41,8.18,3.41,11,3.41a19.47,19.47,0,0,0,5.77-.86,10.43,10.43,0,0,0,4.41-2.2A4.13,4.13,0,0,0,45.88,52a4.46,4.46,0,0,0,.18-2.62c-.15-.77-.75-4-3.7-5.07a5.13,5.13,0,0,0-5.17.93c-.75.81-.63,1.6-1.58,2.11a3.65,3.65,0,0,1-2.61.15C31.83,47.25,31.62,46.75,30.78,46.43Z"/><path class="cls-6" d="M4.85,25.83c2-2.72,14.92-20.28,37.82-22a50.51,50.51,0,0,1,28.58,6.57A29.63,29.63,0,0,0,64.12,5a32.06,32.06,0,0,0-8.52-3,40.35,40.35,0,0,0-13.45-.2A50.9,50.9,0,0,0,23.22,7.83,50.44,50.44,0,0,0,4.85,25.83Z"/><path class="cls-7" d="M8.08,55.38a51.17,51.17,0,0,0,20.4,4.82,54,54,0,0,0,23.37-5A56.63,56.63,0,0,0,74.17,36.59a37,37,0,0,1-3.41,6.19,39.06,39.06,0,0,1-6.64,7.41A51.85,51.85,0,0,1,53,57.82,51.27,51.27,0,0,1,33.8,63.3a44.11,44.11,0,0,1-10.72-.55,33.28,33.28,0,0,1-6.56-1.83,19.62,19.62,0,0,1-5.29-2.82C10,57.16,8.08,55.38,8.08,55.38Z"/><path class="cls-7" d="M57.22,23.45a20.51,20.51,0,0,1,3.37-1.31,13.34,13.34,0,0,1,3-.59,8.55,8.55,0,0,1,6.84,2.79,7.92,7.92,0,0,1,1.73,5.17c.16-.48,1.54-5-.81-7.76C68.8,18.76,62.24,18.59,57.22,23.45Z"/><path class="cls-8" d="M25.49,13.09c5.35-2.23,10.33-1.72,12.26.93a5,5,0,0,1,.93,2.84c.16-.37,1.26-3,0-4.62-1-1.26-2.82-1.2-5.15-1.09A22,22,0,0,0,25.49,13.09Z"/><path class="cls-9" d="M33.29,28.5c3.83-1.59,7.38-1.23,8.76.66a3.63,3.63,0,0,1,.66,2c.11-.26.9-2.14,0-3.3-.69-.9-2-.86-3.68-.78A15.87,15.87,0,0,0,33.29,28.5Z"/><path class="cls-10" d="M10.62,44c4.13.1,7.33-1.49,8-3.71a3.53,3.53,0,0,0-.09-2.09c.2.2,1.59,1.64,1.15,3-.33,1.07-1.58,1.5-3.16,2A16,16,0,0,1,10.62,44Z"/><path class="cls-9" d="M35.86,54.26c4.12.1,7.32-1.49,8-3.71a3.51,3.51,0,0,0-.08-2.09c.2.2,1.58,1.63,1.15,3-.34,1.07-1.59,1.5-3.17,2A16.14,16.14,0,0,1,35.86,54.26Z"/></g></g></svg>