<svg xmlns="http://www.w3.org/2000/svg" viewBox="0 0 91.08 40.92"><defs><style>.cls-1{fill:#fff;stroke:#231f20;stroke-miterlimit:10;}.cls-2{fill:#8cc6ec;opacity:0.53;}.cls-3{fill:#2b3990;opacity:0.19;}</style></defs><g id="Layer_2" data-name="Layer 2"><g id="shading"><path class="cls-1" d="M53.93,9.31c.62-1.2,3.93-7.25,10.47-8.56A13.18,13.18,0,0,1,68.84.64c1.94.4,3.13,1.63,3,2.64a2,2,0,0,1-.71,1.23,2.88,2.88,0,0,1-2,.49c-2.07-.13-5.25.13-6.52,1.12s-2.09,2.5-2.44,5.06C60.2,11.18,56.24,13.19,53.93,9.31Z"/><path class="cls-1" d="M11.64,18.9S58.55-17.44,89.77,32.34c0,0,15.55,22.89-89.23-8.4C.54,23.94-.82,16.64,11.64,18.9Z"/><path class="cls-2" d="M88.08,31.55A72.39,72.39,0,0,0,39.54,7.82a43.47,43.47,0,0,1,15.23-.28A46.26,46.26,0,0,1,66,10.93C78.23,16.48,85.41,27.13,88.08,31.55Z"/><path class="cls-3" d="M42.35,32.9a169.94,169.94,0,0,0,21.29,4.78c9.62,1.42,17.06,1.52,17,1.69s-7,.25-15.74-.7a158.57,158.57,0,0,1-17.09-2.94c-10.38-2.22-18.33-4.24-20-4.67-7-1.8-16.34-4.28-27.33-7.54a3.86,3.86,0,0,1,1-2.86,8,8,0,0,1,2.29-1.39h0C31.78,29.92,42.35,32.9,42.35,32.9Z"/></g></g></svg>