<svg xmlns="http://www.w3.org/2000/svg" viewBox="0 0 398.27 96.9"><defs><style>.cls-1{fill:#fff;stroke:#fff;stroke-miterlimit:10;stroke-width:0.75px;}</style></defs><g id="Layer_2" data-name="Layer 2"><g id="Layer_2-2" data-name="Layer 2"><path class="cls-1" d="M118.45,60.19S115,48.07,96.27,38.63c0,0-26.49-8.83-43.94-10.07s-31-12.73-31-12.73a40.17,40.17,0,0,0,6.18,7.45,41.51,41.51,0,0,0,17.77,9.77q27.88,8.58,27.25,12.61-.45,2.85-15.07,3.44s8.42,1.85,26.9,6.16,11.3,12.11,11.3,12.11-9.45,5.75-17,7-11.5-6.77-11.5-6.77-2-9.45,9.66-9.45l6.16-.41S72.86,52.59,55.41,52,9.62,52.79,2,57.31c0,0,17-3.25,26.07,4.23,0,0-1-12.65,23-1.15,0,0,16.62,11.16,17.07,17.88,0,0,3.47,13-9,8.2,0,0-1.3,7-19.49,5.38,0,0,15.22,6.5,35.82-4.64,2-1.54,5-3.79,8.64-6.43,6.36-4.59,9.55-6.89,12-8,3.46-1.65,10.26-3.79,21.46-.73l11,5.38s-5.38-12.63-22.09-21.16c0,0-16.15-4.64-21.72-6.32s-5-9.83,1.86-8.53S108,45.64,106.35,53.8Z"/><path class="cls-1" d="M279.82,60.19S283.31,48.07,302,38.63c0,0,26.49-8.83,43.94-10.07s31-12.73,31-12.73a40.17,40.17,0,0,1-6.18,7.45A41.51,41.51,0,0,1,353,33.05q-27.89,8.58-27.25,12.61.45,2.85,15.07,3.44s-8.42,1.85-26.9,6.16-11.3,12.11-11.3,12.11,9.45,5.75,17.05,7,11.5-6.77,11.5-6.77,2-9.45-9.65-9.45l-6.16-.41s10.06-5.13,27.51-5.75,45.79.82,53.38,5.34c0,0-17-3.25-26.07,4.23,0,0,1-12.65-23-1.15,0,0-16.62,11.16-17.07,17.88,0,0-3.47,13,9,8.2,0,0,1.3,7,19.49,5.38,0,0-15.22,6.5-35.82-4.64-2-1.54-5-3.79-8.64-6.43-6.36-4.59-9.55-6.89-12-8-3.46-1.65-10.26-3.79-21.46-.73l-11,5.38S275,64.75,291.74,56.22c0,0,16.15-4.64,21.72-6.32s5-9.83-1.86-8.53-21.35,4.27-19.68,12.43Z"/><path class="cls-1" d="M152.45,78.63a3.41,3.41,0,0,1-.54,1.85,3.61,3.61,0,0,1-2.39,1.5c-9.94-9.44-12.13-13.32-11.21-14.68,1.7-2.55,15.36,2.11,15.36,2.11,0-5.19-.72-14.86-6.55-23.91a40.78,40.78,0,0,0-5.63-6.9,39.92,39.92,0,0,0-14-8.78l-17.14.1L94.22,24.79c4.71,4.42,8.78,8.4,12.14,11.76,7.39,7.4,9.35,9.8,10.22,10.89a76.64,76.64,0,0,1,8.9,14.17l-1.83,1.73A15.33,15.33,0,0,1,129.47,66c3.46,2.61,9.17,15.08,5.81,17.61-.82.61-2.38.78-5.56-.81l-6.1-3c1.4,1.74,3.51,4.31,6.23,7.33a46.17,46.17,0,0,0,4,4.21c1.93,1.63,5.5,3.94,11.71,4.71-2.49-2.38-3.51-5-2.68-6.81a3.85,3.85,0,0,1,2.68-1.87c6.6-1.86,15.15,8,15.15,8a47.45,47.45,0,0,0-1.47-4.66A46.33,46.33,0,0,0,152.45,78.63Zm-23-21.8c-3-4-5.44-7.23-7-9.41-4-5.53-8.47-12-8.48-12h0c6.29-.19,12,2.29,15.7,4h0c4.34,2,6.51,2.93,8.12,4.42,2.78,2.59,4.18,5.56,5.58,8.54a43.63,43.63,0,0,1,2.77,7.7,22.25,22.25,0,0,1-16.68-3.22Z"/><path class="cls-1" d="M181.12,28.75a19.28,19.28,0,0,1-4.15,7,57.57,57.57,0,0,1-4.31,4h0a16.48,16.48,0,0,1,2.89,12.31c-3.51,3-7.87,1.69-10.09.66a16.81,16.81,0,0,1-2-10.3,20.44,20.44,0,0,1-5.62-1.67A20.68,20.68,0,0,1,150,34.33c.24.86.63,2.19,1.18,3.81.28.85.45,1.34,1,2.75.34.92.84,2.3,1.41,4,.72,2.13,2.63,8.28,3.44,11.77,1.94,8.38,1.47,18.29,1.23,22a33.26,33.26,0,0,0,4.82-5,32.58,32.58,0,0,0,2.5-3.69,34.42,34.42,0,0,1-1-10.42,10.63,10.63,0,0,1,7.28-2.12,10.07,10.07,0,0,1,4.29,1.48,23.36,23.36,0,0,1,.8,5.43,23.71,23.71,0,0,1-.73,6.55,48,48,0,0,1,4,7.12c.44,1,.82,1.88,1.17,2.79a62.92,62.92,0,0,0,5.27-10c.6-1.42,1.12-2.8,1.57-4.14,0,0-2.9-10-3.72-13A102.26,102.26,0,0,1,181.12,28.75Z"/><path class="cls-1" d="M218.69,40a122.84,122.84,0,0,0-11.63,38.19A12.2,12.2,0,0,1,213.54,76a12,12,0,0,1,5.58,1.16c0-2.2,0-4.53.18-6.95A90.35,90.35,0,0,1,222,53.3a50.53,50.53,0,0,0,13.62,32.38,57.1,57.1,0,0,1,1.07-15.25c3.51-16.76,13.82-27.54,18.87-32.15A13.51,13.51,0,0,1,240.72,31L230.67,65a31.28,31.28,0,0,1-1.51-9.87c.11-9,4.29-17.94,4.29-17.94a13,13,0,0,1-8.2,4.08A12.69,12.69,0,0,1,218.69,40Z"/><path class="cls-1" d="M188.17,40.35c3.93,3.22,7.08,3.44,8.57,3.38a22.7,22.7,0,0,0,5.42-1.22c3.36-1,4-1.62,6-1.92a13.38,13.38,0,0,1,6.08.56,23,23,0,0,0-6.67,7.8,42.35,42.35,0,0,0-2.43,7c-1,3.38-1.71,5.71-2.43,9.12-2.18,10.24-.79,14.08-.22,15.41a9,9,0,0,0,3,3.9l.46.31a11.13,11.13,0,0,0,6,1.47l-6.46,1.44-2.43.55s-2.44,1.55-4.44,2.6a31.49,31.49,0,0,1-4.56,2c-5,1.58-11.7-3.34-13.33-4.59a10.71,10.71,0,0,0,4.43-2.55,14.59,14.59,0,0,0,2.48-3.66,51.6,51.6,0,0,0,2.69-5.81c.93-2.28,1.38-3.42,1.68-4.37a29.42,29.42,0,0,0,1-11.27c-.12-1.26-.29-2.22-.43-3A153.29,153.29,0,0,0,188.17,40.35Z"/><path class="cls-1" d="M197,27.16l-7.26,4.59a66.51,66.51,0,0,1,4-17.53,67.29,67.29,0,0,1,6.49-12.9,44.41,44.41,0,0,0,2.16,14.87,44.66,44.66,0,0,0,6.93,13.21l-8.22-1,1.3,8.6-5.73.08Q196.78,32.11,197,27.16Z"/><path class="cls-1" d="M285,35.26a16.92,16.92,0,0,1-6.32-3.61,28.58,28.58,0,0,1-.9,7.32c-.74,2.86-2,7.7-5.42,10.73a10.38,10.38,0,0,1-6.54,2.56v0c1.05-2.92,2-5.18,2.76-8.22a30.68,30.68,0,0,0,1-5.1,20.36,20.36,0,0,0-2.1-10.57,14.54,14.54,0,0,1-11.09,3.93,12.76,12.76,0,0,1,4.31,5.07c1.62,3.56,1,7,.37,10.45a23,23,0,0,1-1.41,4.81,18.24,18.24,0,0,0-7.92,2.82,22.49,22.49,0,0,0-5.68,5.27c-5.06,6.59-4.95,14.15-5,18.94a40.54,40.54,0,0,0,3.15,15.76,9.79,9.79,0,0,1,16-.21c.06.09.09.12.1.12s-.83-1.56-1.1-2c-2.11-3.74-6.85-10.27-8.37-14.45-1-2.84-1.57-7.28,1.21-14a18.26,18.26,0,0,1,5.43-5.61c-1.06,4.11-2.21,10.43-.87,16.18a26.09,26.09,0,0,0,1.61,4.77l2.78,5.51a24.57,24.57,0,0,1,.58-9.57c.69-2,2.31-4.68,6.43-7.14a15.22,15.22,0,0,1-2.7-3.94,14.55,14.55,0,0,1-1.4-6.28,6.76,6.76,0,0,1,.27-1.72c3.25-.14,6.05.71,9.93-1,2.21-1,3.06-2.07,9.33-9.36,4.32-5,7.67-8.9,9.34-10.82A17,17,0,0,1,285,35.26Z"/></g></g></svg>