<svg xmlns="http://www.w3.org/2000/svg" viewBox="0 0 29.92 85.93"><defs><style>.cls-1{fill:#603913;stroke:#231f20;stroke-miterlimit:10;}.cls-2{fill:#3c2415;}.cls-3{fill:#8b5e3c;}</style></defs><g id="Layer_2" data-name="Layer 2"><g id="shading"><path class="cls-1" d="M23.24,14.09C21.34,5.35,14.82-.65,8.69.69S-.88,10.18,1,18.92c1.59,7.31,6.42,12.69,11.54,13.47l11,50.72a2.95,2.95,0,0,0,5.76-1.26l-11-50.71C22.67,28.3,24.82,21.4,23.24,14.09Z"/><path class="cls-2" d="M8.72,1.35A17.24,17.24,0,0,0,3.46,9.07a17.6,17.6,0,0,0,.73,12.55,18.41,18.41,0,0,0,10,9.43l12,53.68a2.13,2.13,0,0,1-.86-.23,2.6,2.6,0,0,1-1.22-1.93q-5.49-25.32-11-50.66a15.31,15.31,0,0,1-5.71-2.63C1.72,25,1.15,18.12,1,16.66.66,12.25,1.6,4.84,6.51,2.16A7.88,7.88,0,0,1,8.72,1.35Z"/><path class="cls-2" d="M8.8,6.09A13.51,13.51,0,0,1,17.27,13c3,6.24-.41,12.17-.67,12.6a21.37,21.37,0,0,0-1.12-10.21A21.49,21.49,0,0,0,8.8,6.09Z"/><path class="cls-3" d="M12.29,1.27A13.87,13.87,0,0,1,17.21,4a15.4,15.4,0,0,1,4.07,6.12A19.56,19.56,0,0,1,23,21.54a18.2,18.2,0,0,1-3.45,7.84c.64-1.16,4.7-8.69,1.57-17.4A21,21,0,0,0,12.29,1.27Z"/></g></g></svg>