<svg xmlns="http://www.w3.org/2000/svg" viewBox="0 0 78.85 61.66"><defs><style>.cls-1,.cls-2{fill:#fff;stroke:#231f20;stroke-miterlimit:10;}.cls-2{stroke-width:0.75px;}.cls-3,.cls-5{fill:#2b3990;}.cls-3{opacity:0.2;}.cls-4,.cls-6{fill:#8cc6ec;}.cls-4{opacity:0.57;}.cls-5{opacity:0.19;}.cls-6{opacity:0.53;}</style></defs><g id="Layer_2" data-name="Layer 2"><g id="C_shade" data-name="C shade"><path class="cls-1" d="M77.91,23.29c-1.54-5.61-6.86-9.32-13.14-9.84C63.71,8,60.32,3.38,55.23,1.44s-10.57-.79-15,2.5A15.7,15.7,0,0,0,30.73.69c-7.57,0-13.95,5.51-16,13.05-8,1-14.24,6.87-14.24,14s6.39,13.16,14.63,14V61.16H61.91V42a19.9,19.9,0,0,0,3.67-.64C74.46,38.9,80,30.81,77.91,23.29Z"/><line class="cls-2" x1="19.65" y1="61.16" x2="19.65" y2="49.24"/><line class="cls-2" x1="23.1" y1="61.16" x2="23.1" y2="54.81"/><line class="cls-2" x1="56.82" y1="61.16" x2="56.82" y2="50.09"/><line class="cls-2" x1="53.71" y1="61.16" x2="53.71" y2="47.19"/><line class="cls-2" x1="49.4" y1="61.16" x2="49.4" y2="57.99"/><line class="cls-2" x1="34.71" y1="61.16" x2="34.71" y2="54.81"/><path class="cls-3" d="M15.63,51.28a16.42,16.42,0,0,0,4.12,4.6,18.08,18.08,0,0,0,6.18,2.89A46.06,46.06,0,0,0,38.5,60.64l-22.87,0Z"/><path class="cls-4" d="M18.09,13.21A16.06,16.06,0,0,1,37.81,6S22.7-3,18.09,13.21Z"/><path class="cls-5" d="M15.56,41.3A21.47,21.47,0,0,1,6,32,21.28,21.28,0,0,1,3.64,20.27C3.1,21,.07,25.48,1.44,30.82A12.93,12.93,0,0,0,6,37.48,16.44,16.44,0,0,0,15.56,41.3Z"/><path class="cls-6" d="M43,4.82a15.57,15.57,0,0,1,11.8.56,15.44,15.44,0,0,1,7.43,7.83S57.52-3.79,43,4.82Z"/><path class="cls-6" d="M64.06,16.33A13.61,13.61,0,0,1,75.68,31.15S79.22,15.73,64.06,16.33Z"/><path class="cls-5" d="M15.56,41.3a39.58,39.58,0,0,1,18.22-3.9,40.62,40.62,0,0,1,24.49,9.43q.12,6.9.23,13.81l2.86,0,.07-19.09a46.71,46.71,0,0,0-16.62-5.68A48.42,48.42,0,0,0,15.56,41.3Z"/></g></g></svg>