<svg xmlns="http://www.w3.org/2000/svg" viewBox="0 0 134.54 81.46"><defs><style>.cls-1{isolation:isolate;}.cls-2,.cls-5{fill:#fbb040;}.cls-2,.cls-3,.cls-4,.cls-5{stroke:#231f20;stroke-miterlimit:10;}.cls-3{fill:#1c75bc;}.cls-4,.cls-8{fill:#2b3990;}.cls-5{stroke-width:0.25px;}.cls-6{fill:#f15a29;opacity:0.29;}.cls-7{fill:#fcd450;}.cls-7,.cls-8,.cls-9{opacity:0.79;}.cls-10,.cls-9{fill:#27aae1;}.cls-11{fill:#262262;mix-blend-mode:multiply;opacity:0.09;}</style></defs><g class="cls-1"><g id="Layer_2" data-name="Layer 2"><g id="shading"><path class="cls-2" d="M1.24,37.7S56.53,89.15,133.06,53.83c0,0-28.67-7.43-29.69-11L100,36.17l1.28-19.46S80.33-5.3,51.41,6c0,0-8.7,15.87-9.21,19.2L38.61,31.3S13.27,37.45,1.24,37.7Z"/><path class="cls-3" d="M42.2,25.16a104,104,0,0,0,17,6.92A106.55,106.55,0,0,0,100,36.17l3.33,6.65A81.13,81.13,0,0,1,78.74,45,83.23,83.23,0,0,1,38.61,31.3Z"/><polygon class="cls-3" points="116.31 28.77 117.48 39.92 103.57 42.53 100.16 35.91 115.65 22.43 116.31 28.77"/><path class="cls-4" d="M112.1,24.9l-11.23,10,.48-12.3,7.47-2.54Z"/><path class="cls-5" d="M5,41.47l.64-4.32"/><path class="cls-5" d="M11,45.16l.64-8.85"/><path class="cls-5" d="M17.23,49.07l.64-13.91"/><path class="cls-5" d="M31.24,56.7l.64-23.86"/><path class="cls-5" d="M24,53l.62-18.49"/><path class="cls-5" d="M29.76,33.18l-3.11-2.87"/><path class="cls-5" d="M16.14,36l2.17-3.64"/><path class="cls-5" d="M9.13,36.92,5.34,35.05"/><path class="cls-5" d="M43.58,20.64l-1.34-4"/><path class="cls-5" d="M50.2,8.17l-1.29-4"/><path class="cls-5" d="M66.77,3,63.66.09"/><path class="cls-5" d="M76.62,3.94,80.38,2"/><path class="cls-5" d="M123.5,50.79l3.76-1.94"/><path class="cls-5" d="M107.1,45.86l3.76-1.94"/><path class="cls-5" d="M78.41,24.8l-1.36-2.08"/><path class="cls-5" d="M63.66,30.31,66,29.42"/><path class="cls-5" d="M41.75,41.62l2.32-.88"/><path class="cls-5" d="M58.36,23.34l-1.68-1.82"/><path class="cls-5" d="M91.63,25.6,94,24.72"/><path class="cls-5" d="M70.29,8.21l2.31-.89"/><path class="cls-5" d="M58.27,9.85V7.37"/><path class="cls-5" d="M85,63.29V60.81"/><path class="cls-5" d="M58,54.72l-2.39-.64"/><path class="cls-5" d="M77.34,53.66l2.32-.89"/><path class="cls-5" d="M113.49,56.12l2.32-.89"/><path class="cls-5" d="M35.69,54.37l-.89-2.31"/><path class="cls-5" d="M98.29,53.64l1.53,2"/><path class="cls-5" d="M22.46,41.8l-1.28-2.12"/><path class="cls-5" d="M71.21,63.11,69.94,61"/><path class="cls-5" d="M86.37,6.47l3.76-1.94"/><path class="cls-5" d="M101.09,20.71,104,17.6"/><path class="cls-5" d="M96.37,13l-1-4.12"/><path class="cls-5" d="M115.13,48.59l-1-4.12"/><path class="cls-5" d="M48.72,11.24l46,.65"/><path class="cls-5" d="M44.46,19.15l56.41.65"/><path class="cls-5" d="M47.54,27.38l52.62.64"/><path class="cls-5" d="M9.88,36.83l38.84.65"/><path class="cls-5" d="M8.41,43.4l59.06.65"/><path class="cls-5" d="M20.07,50.52l102.75.65"/><path class="cls-5" d="M34.71,57.64l86,.65"/><path class="cls-5" d="M59.74,64.07l34,.65"/><path class="cls-5" d="M65.41,33.53l34.81.64"/><path class="cls-5" d="M38.61,59.14l.64-27.84"/><path class="cls-5" d="M45.66,62.05l.64-26.4"/><path class="cls-5" d="M47.54,27.7l.64-16.46"/><path class="cls-5" d="M54,30.45,54.66,5.5"/><path class="cls-5" d="M60.38,32.55,61,3.43"/><path class="cls-5" d="M67.47,33.85l.64-31.58"/><path class="cls-5" d="M74.32,34.91,75,3.22"/><path class="cls-5" d="M81.5,36.19l.65-31.4"/><path class="cls-5" d="M88.57,36.19l.64-28.42"/><path class="cls-5" d="M96.37,36.19,97,12.52"/><path class="cls-5" d="M52.65,63l.64-23.92"/><path class="cls-5" d="M59.74,64.6l.64-22.77"/><path class="cls-5" d="M66.83,65.57l.64-22.21"/><path class="cls-5" d="M73.68,66.21,74.32,44"/><path class="cls-5" d="M81.18,66.2l.65-21"/><path class="cls-5" d="M88.25,66.2l.64-21"/><path class="cls-5" d="M96.05,65.63l.64-21"/><path class="cls-5" d="M103.05,64.4l.64-21"/><path class="cls-5" d="M110.31,62.18,111,47.05"/><path class="cls-5" d="M117.48,60l.64-10.88"/><path class="cls-5" d="M125.38,56.74l.64-5.22"/><path class="cls-6" d="M38.5,31.9c-5.37,1.36-11.13,2.64-17.25,3.75-6.42,1.17-12.52,2-18.26,2.66A123.77,123.77,0,0,0,32.13,55.77a129.24,129.24,0,0,0,21.86,7,110.43,110.43,0,0,0,23,3,104.29,104.29,0,0,0,23.73-2.23,59.34,59.34,0,0,1-23.32-1.11C53.61,56.35,41.44,36.92,38.5,31.9Z"/><path class="cls-7" d="M51.88,6.43c1-.26,23.58-5.85,38.12,9.26a35.87,35.87,0,0,1,9.38,19.9q.63-9.3,1.25-18.61A50.35,50.35,0,0,0,84.77,6.71,43,43,0,0,0,67.26,3.16,41.53,41.53,0,0,0,51.88,6.43Z"/><path class="cls-8" d="M66,42.37a41.37,41.37,0,0,1-19.22-11A38,38,0,0,1,42.47,26q-1.61,2.46-3.22,4.9c.82.64,2,1.54,3.49,2.52A55.93,55.93,0,0,0,56.2,39.69,81,81,0,0,0,66,42.37Z"/><path class="cls-9" d="M72.11,43.52s11.66,1.15,21.57-3.25a30.81,30.81,0,0,0,5.92-3.46q1.41,2.8,2.81,5.63c-1.34.34-3.31.81-5.7,1.2a72.26,72.26,0,0,1-14.87.82A61.06,61.06,0,0,1,75.11,44l-3-.43Z"/><path class="cls-10" d="M110.75,27.58l4.37-3.84,1.65,15.63-2.1.39a6.06,6.06,0,0,0,.75-1.43c1.19-3.28-.69-7.17-2.93-9.38A10.06,10.06,0,0,0,110.75,27.58Z"/><path class="cls-6" d="M46.44,16.92q-.93,1.71-1.83,3.72c-.65,1.44-1.2,2.82-1.67,4.13a103.48,103.48,0,0,0,13.32,5.65,102,102,0,0,0,12.67,3.49,98.16,98.16,0,0,0,12.59,1.72,57.6,57.6,0,0,1-11.43-2.86A60.49,60.49,0,0,1,46.44,16.92Z"/><path class="cls-11" d="M15.31,81.46A226.71,226.71,0,0,0,55.18,78c25.2-4.42,46.6-12.6,46.23-14.05-.25-1-10.29,2.75-26.9,2A121.2,121.2,0,0,1,43.3,60.34a140,140,0,0,1-15.12-5.58,82.61,82.61,0,0,0-12.87,26.7Z"/></g></g></g></svg>