<svg xmlns="http://www.w3.org/2000/svg" viewBox="0 0 49.84 132.91"><defs><style>.cls-1{fill:#8b5e3c;}.cls-1,.cls-2,.cls-3,.cls-4{stroke:#231f20;stroke-miterlimit:10;}.cls-1,.cls-2,.cls-3{stroke-width:0.75px;}.cls-2,.cls-8{fill:#603913;}.cls-3{fill:#ef4136;}.cls-4{fill:#a7a9ac;}.cls-5{fill:#808285;}.cls-6{fill:#d1d3d4;}.cls-7{fill:#3c2415;}.cls-9{fill:#be1e2d;}.cls-10{fill:#f7941d;}</style></defs><g id="Layer_2" data-name="Layer 2"><g id="shading"><rect class="cls-1" x="29.48" y="58.33" width="6.57" height="61.47" transform="translate(-15.42 7.31) rotate(-10.32)"/><rect class="cls-2" x="20.97" y="38.23" width="8.4" height="20.8" rx="0.97" transform="translate(-8.3 5.29) rotate(-10.32)"/><path class="cls-3" d="M49.4,124.1c-.65-3.54-5.54-5.62-10.92-4.64s-9.23,4.65-8.58,8.19,5.53,5.62,10.91,4.64S50,127.64,49.4,124.1Zm-9.34,4c-3.46.63-6.59-.7-7-3s2-4.62,5.5-5.25,6.58.71,7,3S43.51,127.5,40.06,128.12Z"/><path class="cls-4" d="M27.23,46.41l20-3.5c-.39-2.26-1-5.55-1.81-9.52-1.33-6.39-2-9.6-2.71-11.58A41.08,41.08,0,0,0,31.09,5.4C26.71,1.69,23.86,1,22.57.74a15.44,15.44,0,0,0-5.4,0h-.09a.29.29,0,0,0-.1,0,15.17,15.17,0,0,0-5,1.9C10.81,3.36,8.4,5,5.61,10A41.13,41.13,0,0,0,.5,29.49c0,2.12.54,5.35,1.55,11.8.63,4,1.23,7.29,1.66,9.54l20-3.77Z"/><path class="cls-5" d="M3.34,17.13S-3,42.56,45.5,42.5L4.16,50l-3-18.83S-.11,25.58,3.34,17.13Z"/><path class="cls-6" d="M12.66,5.23A23.43,23.43,0,0,1,20,4.34a25.38,25.38,0,0,1,15.12,6A24.81,24.81,0,0,0,30.21,5.4a26.46,26.46,0,0,0-4-2.5,16.63,16.63,0,0,0-2.46-1.08,11.44,11.44,0,0,0-2.18-.58,10.14,10.14,0,0,0-2-.09,9.74,9.74,0,0,0-6.83,4.08Z"/><path class="cls-7" d="M21.32,48.18l2.8-.52Q25,53.09,26,58.53c-.41.11-.76.19-1,.25-1,.22-1.24.24-1.47.08a.78.78,0,0,1-.28-.43Z"/><path class="cls-8" d="M24.54,59.8l1.59-.37q5.31,29.83,10.61,59.66l-.77.13-.54.09h0s-.26-1.3-.39-2c-.25-1.28-.42-2.22-.53-2.85-.53-3-.79-4.14-1.54-8.27-.34-1.88-.57-3.21-.67-3.81C31.73,99.11,29.81,88.51,24.54,59.8Z"/><path class="cls-9" d="M33.69,121.82a6,6,0,0,0,4,10.14,8.24,8.24,0,0,1-2.05-.12,6.6,6.6,0,0,1-4.34-2.27,5.44,5.44,0,0,1-1.07-2.82,6.8,6.8,0,0,1,2.15-4.07A5.71,5.71,0,0,1,33.69,121.82Z"/><path class="cls-9" d="M36.74,128.61a14.18,14.18,0,0,0,5.11-.55A6.82,6.82,0,0,0,44.07,127a5.8,5.8,0,0,0,1.26-1.34,3.74,3.74,0,0,0,.63-1.23,3.69,3.69,0,0,0-.31-2.57A4,4,0,0,0,43.78,120a4.83,4.83,0,0,1,3.31,3.77,4.78,4.78,0,0,1-1.2,3.54,6.89,6.89,0,0,1-5.38,2.28A7.8,7.8,0,0,1,36.74,128.61Z"/><path class="cls-10" d="M42.53,131.34c3.44-1.07,5.54-4.06,5.21-6.84a6.17,6.17,0,0,0-2.64-4.1,6.25,6.25,0,0,1,2.18,1.22,4.57,4.57,0,0,1,1.51,2,4.23,4.23,0,0,1,.09,2.41,4.75,4.75,0,0,1-1.64,2.54,11.81,11.81,0,0,1-2.3,1.71A12.35,12.35,0,0,1,42.53,131.34Z"/></g></g></svg>