<svg xmlns="http://www.w3.org/2000/svg" viewBox="0 0 46.1 56.73"><defs><style>.cls-1{fill:#f26522;}.cls-1,.cls-2{stroke:#231f20;stroke-miterlimit:10;}.cls-2{fill:#009444;}.cls-3{fill:#ef4136;}.cls-4{fill:#f7941d;}.cls-5{fill:#006838;}</style></defs><g id="Layer_2" data-name="Layer 2"><g id="shading"><path class="cls-1" d="M3,55.69A8.88,8.88,0,0,1,.83,52a9.74,9.74,0,0,1,.29-5.82C4.24,36.07,6.43,31.89,6.43,31.89c5-9.46,7.52-14.24,12.1-16.87a14.22,14.22,0,0,1,7.84-2.18A13,13,0,0,1,31.14,14a12.08,12.08,0,0,1,4.4,5.26,12.63,12.63,0,0,1,.93,5.17c-.25,4.28-3.43,6.93-7.07,10.7C23.15,41.57,13.91,53,9.47,55.29a9,9,0,0,1-3.2.93A7.82,7.82,0,0,1,3,55.69Z"/><path class="cls-2" d="M39.55,10.24c1.56-2.63,1.92-5.19.71-6.12s-4.08.28-6.37,2.93C33.39,3.21,31.55.29,29.75.51s-2.87,3.55-2.38,7.42c.45,3.57,2.07,6.33,3.73,6.56a1.82,1.82,0,0,0,.54.82,1.84,1.84,0,0,0,.51.24C33.29,16.68,36,17.27,39,16.88c3.87-.49,6.82-2.34,6.59-4.15C45.38,11.15,42.8,10.13,39.55,10.24Z"/><path class="cls-3" d="M34.74,19.1a36.54,36.54,0,0,1-2.16,6.55c-1.26,2.83-2.71,5.09-9.73,13.1C14.42,48.39,11.43,50.94,8.42,53.09,6.9,54.17,5.58,55,4.65,55.57l.54.2h0c2.08.59,4.28-1.1,5.29-1.92A77.27,77.27,0,0,0,18.53,46c2.89-3.11,2.69-2.75,5.62-5.94,3.6-3.91,3.53-4,5.24-5.69,1.56-1.51,2.23-2.23,3.55-3.67a14.46,14.46,0,0,0,1.72-2.1,9.45,9.45,0,0,0,1.61-3.88A8.11,8.11,0,0,0,34.74,19.1Z"/><path class="cls-4" d="M11.84,23.45a17.87,17.87,0,0,1,4.73-6.27,15.55,15.55,0,0,1,7.3-3.6,8.47,8.47,0,0,1,4.64.26,7.32,7.32,0,0,1,2,1.23,18.39,18.39,0,0,0-5.87,0C17.42,16.37,13.12,21.72,11.84,23.45Z"/><path class="cls-3" d="M3.19,42s5-.55,6.46,3.05S8.56,37.18,4.5,38.31Z"/><path class="cls-3" d="M7,32.56s5-.1,6.16,3.62S12.75,28.23,8.61,29Z"/><path class="cls-3" d="M11.84,23.52s5,.29,5.87,4.08.24-8-4-7.51Z"/><path class="cls-5" d="M30.39,1.28a1.39,1.39,0,0,0-1,0c-.21.1-.43.28-.78,1A8.49,8.49,0,0,0,28,4.25a11.63,11.63,0,0,0-.28,1.86,10.43,10.43,0,0,0,.77,4.45,10.15,10.15,0,0,0,1.73,2.78,9.62,9.62,0,0,0,2.09,1.76,9.43,9.43,0,0,0,5.83,1.17A9.8,9.8,0,0,1,31.76,13,10.1,10.1,0,0,1,29.7,7.77,13.15,13.15,0,0,1,30.39,1.28Z"/></g></g></svg>