<svg xmlns="http://www.w3.org/2000/svg" viewBox="0 0 108.76 30.86"><defs><style>.cls-1{fill:#231f20;}.cls-2{fill:#27aae1;opacity:0.31;}</style></defs><g id="Layer_2" data-name="Layer 2"><g id="shading"><path class="cls-1" d="M8.94,0V20.88h.17c.56.73,8.73,11,21.89,9.9C41.79,29.86,47.84,22,48.78,20.71l10.24,0c1,1.3,7.29,9.19,18.33,10.05,13.26,1,21.51-9,22.19-9.9V0Z"/><rect class="cls-1" x="99.03" y="0.5" width="5.4" height="13.42" transform="translate(48.09 -79.53) rotate(54.21)"/><rect class="cls-1" x="5.2" y="0.88" width="5.4" height="14.93" transform="translate(-3.05 11.83) rotate(-64.25)"/><path class="cls-2" d="M57.3.87c0,.21,4.11.42,13.78,1.61a104.08,104.08,0,0,1,11,1.73c6.32,1.45,9.49,2.18,11.76,4.5,3.29,3.36,5,9.3,5,9.3h0V.87C65.86.43,57.3.58,57.3.87Z"/></g></g></svg>