<svg xmlns="http://www.w3.org/2000/svg" viewBox="0 0 97.14 72.82"><defs><style>.cls-1,.cls-3{fill:#6d6e71;}.cls-1,.cls-2,.cls-4,.cls-5,.cls-6{stroke:#231f20;stroke-miterlimit:10;}.cls-2,.cls-6{fill:none;}.cls-4{fill:#27aae1;}.cls-5,.cls-7,.cls-8{fill:#414042;}.cls-5,.cls-6{stroke-width:0.75px;}.cls-8{opacity:0.07;}</style></defs><g id="Layer_2" data-name="Layer 2"><g id="shading"><polygon class="cls-1" points="4.59 55.05 47 72.28 95.07 56.52 62.46 44.71 4.59 55.05"/><polygon class="cls-1" points="0.5 5.29 0.5 46.39 58.37 36.05 58.37 0.54 0.5 5.29"/><line class="cls-2" x1="0.5" y1="5.3" x2="4.59" y2="8.91"/><line class="cls-2" x1="0.5" y1="46.39" x2="4.59" y2="50.01"/><line class="cls-2" x1="58.37" y1="0.54" x2="62.46" y2="4.16"/><rect class="cls-3" x="2.26" y="44.02" width="3.55" height="4.2" transform="translate(-33.17 18.57) rotate(-48.49)"/><rect class="cls-3" x="57.77" y="1.48" width="2.39" height="4.2" transform="translate(17.2 45.36) rotate(-48.49)"/><rect class="cls-3" x="55.04" y="0.6" width="2.39" height="4.2" transform="translate(59.25 58.92) rotate(-95.81)"/><rect class="cls-3" x="1.26" y="41.84" width="2.39" height="4.2"/><polygon class="cls-1" points="4.59 8.91 4.59 50.01 62.46 39.67 62.46 4.16 4.59 8.91"/><polygon class="cls-4" points="10.44 12.59 10.44 45.37 56.6 37.12 56.6 8.8 10.44 12.59"/><rect class="cls-3" x="3.75" y="50.96" width="2.39" height="4.2" transform="translate(56.11 38.15) rotate(79.09)"/><rect class="cls-3" x="9.08" y="50.06" width="2.39" height="7.05" transform="translate(64.08 62.71) rotate(110.48)"/><rect class="cls-3" x="6.56" y="50.72" width="2.39" height="7.05" transform="translate(60.9 67.61) rotate(112.25)"/><rect class="cls-3" x="7.14" y="50.31" width="2.39" height="4.2" transform="translate(58.21 34.3) rotate(79.09)"/><rect class="cls-3" x="4.23" y="49.54" width="2.39" height="4.2" transform="translate(57.06 46.21) rotate(90)"/><rect class="cls-3" x="90.76" y="51.21" width="2.39" height="4.2" transform="translate(173.43 -14.96) rotate(109.94)"/><rect class="cls-3" x="92.89" y="51.99" width="2.39" height="4.2" transform="translate(177.01 -15.93) rotate(109.94)"/><rect class="cls-3" x="93.14" y="50.29" width="2.39" height="4.2" transform="translate(175.75 -18.43) rotate(109.94)"/><rect class="cls-3" x="88.33" y="52.26" width="2.39" height="4.2" transform="translate(171.15 -11.28) rotate(109.94)"/><rect class="cls-3" x="91.75" y="52.54" width="2.39" height="5.31" transform="translate(119.08 -49.69) rotate(73.28)"/><rect class="cls-3" x="95.27" y="54.02" width="1.2" height="1.92" transform="matrix(-0.94, -0.34, 0.34, -0.94, 167.24, 139.36)"/><polygon class="cls-1" points="4.59 50.01 47 67.24 95.07 51.48 62.46 39.67 4.59 50.01"/><line class="cls-2" x1="2.84" y1="48.47" x2="2.54" y2="54.81"/><line class="cls-2" x1="46.91" y1="66.66" x2="46.91" y2="72.28"/><line class="cls-2" x1="96.64" y1="51.47" x2="96.64" y2="56.7"/><path class="cls-5" d="M20.34,51.59,48,61.08,83.5,50.66l-23-6.94L28.1,50.07Z"/><line class="cls-6" x1="28.1" y1="50.07" x2="55.14" y2="58.98"/><line class="cls-6" x1="36.7" y1="48.46" x2="62.53" y2="56.81"/><line class="cls-6" x1="45.55" y1="46.7" x2="70.16" y2="54.65"/><line class="cls-6" x1="54.11" y1="44.98" x2="77.56" y2="52.4"/><line class="cls-6" x1="34.55" y1="56.41" x2="73.82" y2="47.7"/><line class="cls-6" x1="42.88" y1="59.34" x2="79.7" y2="49.51"/><line class="cls-6" x1="27.32" y1="54.01" x2="66.13" y2="45.4"/><polygon class="cls-7" points="0.5 5.29 4.59 8.91 4.43 48.84 0.5 46.39 0.5 5.29"/><path class="cls-7" d="M3.26,54.59l.24-4.23,42.66,17.3,0,3.49Z"/><path class="cls-8" d="M4.59,8.91,62.46,39.67,46.91,68.17,4.82,50Q4.7,29.44,4.59,8.91Z"/></g></g></svg>