<svg xmlns="http://www.w3.org/2000/svg" viewBox="0 0 46.65 44.82"><defs><style>.cls-1{fill:#9e1f63;stroke:#231f20;stroke-miterlimit:10;}.cls-2{fill:#ec008c;opacity:0.65;}.cls-3{fill:#262262;opacity:0.55;}</style></defs><g id="Layer_2" data-name="Layer 2"><g id="shading"><path class="cls-1" d="M17.58,10.06S-7.31,26.17,3,36s18.89.18,18.89.18A9,9,0,0,0,25,43.74c3.64,3.12,9.34-7.25,9.67-8.63l1.68-6.93Z"/><path class="cls-1" d="M35.42,27.37,18.55,11.64c-2.27-2.11-2.06-6.05.45-8.75h0C21.52.19,25.44-.3,27.7,1.82L44.58,17.54c2.26,2.11,2.06,6.05-.46,8.75h0C41.6,29,37.69,29.48,35.42,27.37Z"/><path class="cls-2" d="M28.48,3.59s-8.81,1.63-8.45,8L18.76,12.9S-3.3,25,5.79,37.35c0,0-15.44-7.54,11.42-26.14l1.07-.82S16.16,7.68,19.87,3.1C19.87,3.1,24.07-1.2,28.48,3.59Z"/><path class="cls-3" d="M37.16,27.63h0c.44.14.79.23.83.24a5,5,0,0,0,2.1-.08,6.3,6.3,0,0,0,1.34-.48,7.1,7.1,0,0,0,2.36-1.77,6.32,6.32,0,0,0,1.57-5,5.07,5.07,0,0,0-.77-1.92A11.8,11.8,0,0,0,43,17.1s-.74-.67-1.58-1.47c-.66-.63-1.19-1.16-1.55-1.51a10.12,10.12,0,0,1,1,1.81,11,11,0,0,1,.76,2.86,17.23,17.23,0,0,1,.19,3.47,6.8,6.8,0,0,1-2.64,4.48A5.84,5.84,0,0,1,37.16,27.63Z"/></g></g></svg>