<svg xmlns="http://www.w3.org/2000/svg" viewBox="0 0 59.64 110.66"><defs><style>.cls-1{fill:#6d6e71;stroke-width:0.5px;}.cls-1,.cls-2{stroke:#231f20;stroke-miterlimit:10;}.cls-2{fill:#da1c5c;}.cls-3{fill:#00a79d;opacity:0.67;}.cls-4,.cls-5{fill:#9e1f63;}.cls-4{opacity:0.76;}</style></defs><g id="Layer_2" data-name="Layer 2"><g id="L_shade" data-name="L shade"><rect class="cls-1" x="38.89" y="47.84" width="2.37" height="62.74" transform="translate(-11.9 7.25) rotate(-9.01)"/><path class="cls-2" d="M54.07,3.09C49.31-.86,42.72.79,41.27,1.15c-8.48,2.12-12.2,10.1-12.77,11.36-.35-.45-6.95-8.54-16.16-6.87-1,.18-7.21,1.42-10.24,7.08C-2.59,21.51,4,34.13,9.16,40.2c7.1,8.38,16.53,10.34,22.18,10.71a3.89,3.89,0,0,0,0,1c.18,1.1.37,2.21.56,3.31l1.3-.18q1.1-.16,2.13-.36l2.52-.4,1.35-.19c.57-.08,1.13-.17,1.69-.27l-.53-3.34A4.25,4.25,0,0,0,40,49.3,31.44,31.44,0,0,0,55.28,34.44C59.83,24.92,61.42,9.2,54.07,3.09Z"/><path class="cls-3" d="M39.26,48.78A32.34,32.34,0,0,0,53,33.71C54.19,31,59,18.81,52.75,10.44a14.38,14.38,0,0,0-7.36-5.33c-6-1.8-11.12,1.22-12.09,1.81a17.21,17.21,0,0,1,7.08-4.84c1.51-.53,6.09-2.16,10.66,0a12.12,12.12,0,0,1,4.3,3.45c4.7,5.87,2.82,16.53,2.39,19a32.12,32.12,0,0,1-4.1,11.94A31.37,31.37,0,0,1,39.26,48.78Z"/><polygon class="cls-4" points="31.79 50.31 33.99 48.41 34.52 54.07 32.59 54.35 31.79 50.31"/><path class="cls-5" d="M31.79,50.31A29.28,29.28,0,0,1,20.39,48C8.14,42.73,3.76,30.58,2.89,28A39,39,0,0,0,14.5,42.12a33.48,33.48,0,0,0,4.33,2.73A32.45,32.45,0,0,0,34,48.41Z"/></g></g></svg>