<svg xmlns="http://www.w3.org/2000/svg" viewBox="0 0 109.72 71.23"><defs><style>.cls-1,.cls-5{fill:#00a79d;}.cls-1{opacity:0.74;}.cls-2{fill:#da1c5c;}.cls-2,.cls-3{stroke:#231f20;stroke-miterlimit:10;}.cls-3{fill:none;}.cls-4{fill:#9e1f63;opacity:0.76;}.cls-5{opacity:0.67;}</style></defs><g id="Layer_2" data-name="Layer 2"><g id="shading"><path class="cls-1" d="M88.22,3.37a4.72,4.72,0,0,1,2.53-.68c2.86.09,5.64,3.13,6.76,7.62a12.48,12.48,0,0,0-1-4.19c-.39-1-2.08-5-4.75-5.06a4.19,4.19,0,0,0-2.3.75A3.92,3.92,0,0,0,88.22,3.37Z"/><path class="cls-2" d="M9.94,67.31l5.93,3.26C17,69,32.28,47.43,59.3,48c24.11.54,38,18.25,39.68,20.51l5.21-4.09C93,46.3,72.73,36,52.15,38.21,24.23,41.14,11,65.35,9.94,67.31Z"/><polyline class="cls-3" points="17.48 21.79 21.57 27.16 31.87 27.16 22.43 36.25 32.56 35.1 36.7 42.37"/><polyline class="cls-3" points="92.31 20.26 88.23 25.63 77.92 25.63 87.36 34.73 77.23 33.57 73.09 40.85"/><path class="cls-2" d="M109.06,12.44c-.94-3.06-5.75-4.32-10.88-2.9-.8-5.44-4.05-9.46-7.3-9S85.6,5.81,86.37,11.29c.51,3.6,2.1,6.58,4.06,8.08,1.68,2.34,6.15,3.13,10.79,1.71C106.51,19.46,110,15.59,109.06,12.44Z"/><path class="cls-2" d="M19,3.77c-3.17-.4-6.29,3.48-7.1,8.74C6.56,11,1.56,12.32.64,15.47s2.65,7,8,8.53c3.49,1,6.86.78,9-.39,2.82-.57,5.37-4.33,6-9.14C24.31,9,22.22,4.19,19,3.77Z"/><path class="cls-4" d="M16.15,69.57A59.16,59.16,0,0,1,30.8,56.22a52.56,52.56,0,0,1,12.77-6.15,51.9,51.9,0,0,1,56,17.71C96.75,63.47,89.41,53.64,77,48.51a52.09,52.09,0,0,0-13.61-3.45,44.23,44.23,0,0,0-13.42.33,45.2,45.2,0,0,0-6.61,1.78,51.78,51.78,0,0,0-14,6.85A43.64,43.64,0,0,0,16.15,69.57Z"/><path class="cls-5" d="M101.07,65.81S85.67,36.26,53.28,39.07c0,0,27.89-5.78,50.05,25.06Z"/><path class="cls-1" d="M13.36,9.17c.59-.28,4.2-1.93,6.54-.39,2.7,1.77,3.41,7.6-.5,13.17a14.59,14.59,0,0,0,2.78-4.53c1.22-3.2,1.87-8.45-1-11.49a4.14,4.14,0,0,0-2.75-1.58C16.52,4.24,14.46,6.13,13.36,9.17Z"/><path class="cls-1" d="M102.1,9.68c.47.45,3.3,3.24,2.69,6-.7,3.16-5.89,5.9-12.48,4.23a14.7,14.7,0,0,0,5.21,1c3.43,0,8.56-1.26,10.4-5a4.21,4.21,0,0,0,.5-3.14C107.83,10.88,105.32,9.62,102.1,9.68Z"/></g></g></svg>