<svg xmlns="http://www.w3.org/2000/svg" viewBox="0 0 27.17 31.48"><defs><style>.cls-1{fill:#009444;stroke:#231f20;stroke-miterlimit:10;stroke-width:0.5px;}.cls-2{fill:#006838;}.cls-3{fill:#39b54a;}</style></defs><g id="Layer_2" data-name="Layer 2"><g id="shading"><path class="cls-1" d="M26.87,13.74c-.55-3.24-5.84-5-11.81-4a19.38,19.38,0,0,0-3.49.93c0-.57,0-1.16-.11-1.76-.61-5.09-3.34-9-6.1-8.62C2.9.56,1.07,5.83,1.46,10.09a13.32,13.32,0,0,0,3.42,7.54l.94,1.16A13.1,13.1,0,0,0,4,20.52a14.48,14.48,0,0,0-2.6,4.79,25.93,25.93,0,0,0-1.16,5.9h0L2.58,31A17.92,17.92,0,0,1,6.9,19.9a16.89,16.89,0,0,0,10.16,1.54C23,20.42,27.42,17,26.87,13.74Z"/><path class="cls-2" d="M14.86,21.29c-1.49.16-5.4.36-8.32-2.13a12.23,12.23,0,0,1-2.44-3,13.93,13.93,0,0,1-2.29-5.64A12.83,12.83,0,0,1,2.6,3.94,17.28,17.28,0,0,0,4,11.63C7,18.37,13.47,20.8,14.86,21.29Z"/><path class="cls-2" d="M6.32,18.83a11.27,11.27,0,0,0-1.83,1.68A14.61,14.61,0,0,0,2.8,23,25.9,25.9,0,0,0,.63,30.87l1.59-.15a18.75,18.75,0,0,1,1-5.13,20.15,20.15,0,0,1,2.07-4A4.28,4.28,0,0,1,6.9,19.9c.68-.35,1.29-.37,1.3-.53S7.9,19.07,6.32,18.83Z"/><path class="cls-3" d="M22.23,19.33a5.53,5.53,0,0,0,2.2-6.2c-1-2.63-4.32-3.2-4.71-3.26a6.26,6.26,0,0,0-1.52,0,8.73,8.73,0,0,1,2.58,0c.54.09,5.15.86,5.71,3.79C26.88,15.71,25.2,18.29,22.23,19.33Z"/><path class="cls-3" d="M11.22,11.18A11.74,11.74,0,0,0,8.61,5.35,9.74,9.74,0,0,0,5.89,3.06L3.64,2h0A4,4,0,0,1,5.35.54a2.88,2.88,0,0,1,2.25.79,7.23,7.23,0,0,1,2.25,3,13.3,13.3,0,0,1,.83,2.31A16.38,16.38,0,0,1,11.22,11.18Z"/></g></g></svg>