<svg xmlns="http://www.w3.org/2000/svg" viewBox="0 0 46.35 44.87"><defs><style>.cls-1{fill:#9e1f63;stroke:#231f20;stroke-miterlimit:10;}.cls-2{fill:#ec008c;opacity:0.65;}.cls-3{fill:#262262;opacity:0.55;}</style></defs><g id="Layer_2" data-name="Layer 2"><g id="shading"><path class="cls-1" d="M28.78,10.11s24.88,16.11,14.57,26-18.88.17-18.88.17a9.07,9.07,0,0,1-3.06,7.56c-3.65,3.12-9.34-7.24-9.68-8.63l-1.68-6.93Z"/><path class="cls-1" d="M11.2,27.17,27.89,11.62c2.24-2.09,2-6-.5-8.71h0C24.87.2,21-.3,18.74,1.79L2,17.34c-2.24,2.09-2,6,.51,8.72h0C5.07,28.76,9,29.26,11.2,27.17Z"/><path class="cls-2" d="M17.75,3.62s8.81,1.63,8.46,8l1.27,1.34S49.54,25,40.45,37.38c0,0,15.43-7.54-11.42-26.14L28,10.42s2.12-2.71-1.58-7.29C26.37,3.13,22.16-1.17,17.75,3.62Z"/><path class="cls-3" d="M9.46,27.51h0c-.44.15-.79.24-.83.25a5,5,0,0,1-2.11-.08,7,7,0,0,1-1.33-.48,7.34,7.34,0,0,1-2.37-1.78,6.33,6.33,0,0,1-1.56-5A4.93,4.93,0,0,1,2,18.55,10.33,10.33,0,0,1,3.64,17l1.57-1.46c.67-.63,1.2-1.16,1.56-1.52a10.49,10.49,0,0,0-1,1.82A11.2,11.2,0,0,0,5,18.66a16.56,16.56,0,0,0-.19,3.47,6.74,6.74,0,0,0,2.63,4.48A6,6,0,0,0,9.46,27.51Z"/></g></g></svg>