<svg xmlns="http://www.w3.org/2000/svg" viewBox="0 0 100.48 24.68"><defs><style>.cls-1{fill:#f26522;}.cls-1,.cls-2,.cls-3,.cls-4{stroke:#231f20;}.cls-1,.cls-2,.cls-3,.cls-4,.cls-6{stroke-miterlimit:10;}.cls-2{fill:#8b5e3c;}.cls-2,.cls-3,.cls-4,.cls-6{stroke-width:0.5px;}.cls-3{fill:#3c2415;}.cls-4{fill:#754c29;}.cls-5{fill:#ef4136;}.cls-6{fill:none;stroke:#ffde17;}</style></defs><g id="Layer_2" data-name="Layer 2"><g id="shading"><path class="cls-1" d="M13.59.42.64,8.72S.47,20,19.13,16L32.86,6.26"/><path class="cls-1" d="M87,.42l13,8.3S100.15,20,81.49,16L67.76,6.26"/><path class="cls-2" d="M19.6,21v3.21l4.13-2.8c-.07-1.12-.14-2.23-.2-3.35Z"/><path class="cls-3" d="M6.43,20.51l12.76,3.7v-4L6.39,16.58Z"/><path class="cls-2" d="M25.89,16.29v3.2L30,16.7l-.21-3.35Z"/><path class="cls-3" d="M21.09,18l4.38,1.48v-4L21,14.64Z"/><path class="cls-2" d="M4.25,6.66a15.64,15.64,0,0,1,6.63.79,16.45,16.45,0,0,1,8.65,7.35l5.75-3A12.93,12.93,0,0,0,22.77,7.2c-4.28-5-11-4.86-12.11-4.82a27.06,27.06,0,0,0-5,3.1C5.15,5.87,4.68,6.27,4.25,6.66Z"/><path class="cls-2" d="M.25,9.24a11.16,11.16,0,0,0,3.58,5.82c3,2.43,6.5,2.48,9.27,2.52a22.27,22.27,0,0,0,6-.75l11.26-8-.12,3.94L19.6,20.44a28,28,0,0,1-5.57.91,16.64,16.64,0,0,1-6.69-.48,13.06,13.06,0,0,1-6.39-5C.72,13.67.48,11.46.25,9.24Z"/><path class="cls-2" d="M19.6,20.44c-.17-1.2-.33-2.41-.5-3.61"/><path class="cls-4" d="M81.66,20.84v3.21l-4.13-2.79c.07-1.12.14-2.24.2-3.36Z"/><path class="cls-3" d="M94.83,20.35l-12.76,3.7V20l12.8-3.59Z"/><path class="cls-4" d="M74.89,16.7v3.21l-4.13-2.8c.07-1.11.14-2.23.2-3.35Z"/><path class="cls-3" d="M79.69,18.43,75.3,19.91v-4l4.46-.81Z"/><path class="cls-4" d="M98.05,6.57A17,17,0,0,0,91,8.06a17.84,17.84,0,0,0-8.61,8.77l-6.49-2.69A14,14,0,0,1,78.14,9c4.12-5.8,11.36-6.31,12.58-6.38a29.17,29.17,0,0,1,5.7,2.86C97,5.81,97.54,6.19,98.05,6.57Z"/><path class="cls-4" d="M100.06,9a11.12,11.12,0,0,1-3.58,5.81c-3,2.44-6.5,2.48-9.27,2.52a21.88,21.88,0,0,1-6-.75L70,8.63l.12,3.93,10.64,7.67a27.92,27.92,0,0,0,5.57.92A16.76,16.76,0,0,0,93,20.66a13.09,13.09,0,0,0,6.4-5C99.59,13.46,99.83,11.25,100.06,9Z"/><path class="cls-4" d="M80.71,20.23c.17-1.2.33-2.4.5-3.61"/><path class="cls-5" d="M1.46,9.1a15.41,15.41,0,0,0,3,2.58,17.66,17.66,0,0,0,12,2.34l1.38-.95L19.21,15l-.38.27-1.27.33a22.64,22.64,0,0,1-5.82.53C9.68,16,6.43,15.84,3.93,13.8a6.4,6.4,0,0,1-2.06-2.66A5.74,5.74,0,0,1,1.46,9.1Z"/><path class="cls-5" d="M99.15,9.14a15.41,15.41,0,0,1-3,2.58,17.78,17.78,0,0,1-11.8,2.46h0l-.87,1.38h0c4.16.91,5.42.6,5.42.6h0c2.06-.11,5.31-.28,7.81-2.32a6.33,6.33,0,0,0,2.06-2.66A6,6,0,0,0,99.15,9.14Z"/><line class="cls-6" x1="95.14" y1="7.62" x2="98.35" y2="9.43"/><line class="cls-6" x1="5.21" y1="7.38" x2="2.21" y2="9.52"/><line class="cls-6" x1="96.12" y1="0.89" x2="96.16" y2="0.93"/></g></g></svg>