<svg xmlns="http://www.w3.org/2000/svg" viewBox="0 0 174.2 115.48"><defs><style>.cls-1{fill:#fbb040;stroke:#231f20;stroke-miterlimit:10;}.cls-2,.cls-3,.cls-4{fill:#f15a29;}.cls-2{opacity:0.83;}.cls-3{opacity:0.84;}.cls-4{opacity:0.47;}.cls-5{fill:#ffde17;opacity:0.63;}.cls-6{fill:#414042;opacity:0.22;}</style></defs><g id="Layer_2" data-name="Layer 2"><g id="shading"><path class="cls-1" d="M1.28,86.73a124.54,124.54,0,0,0,15,3.1A124.52,124.52,0,0,0,37.43,91q3.48-8.3,7-16.59a92.52,92.52,0,0,0-33,7.21A90.65,90.65,0,0,0,1.28,86.73Z"/><path class="cls-1" d="M173,78.64A99.55,99.55,0,0,1,156.55,84a99.76,99.76,0,0,1-18.06,2.48l-6.42-15.23c6.4,1.1,11.56,1.81,15.11,2.25s7.25,1,10.88,1.41a46.85,46.85,0,0,1,9.21,1.51A35.93,35.93,0,0,1,173,78.64Z"/><path class="cls-1" d="M172,77.24,85.42.69,2.21,85a167.76,167.76,0,0,1,23.9-7.41,174.2,174.2,0,0,1,26.38-3.87c28.89-2.35,51.5-4.19,82.76-1.45C144.72,73.07,157.28,74.52,172,77.24Z"/><path class="cls-2" d="M37.09,90.41A113.79,113.79,0,0,1,22.4,90a112.37,112.37,0,0,1-19-3.44,101.64,101.64,0,0,1,10-4.46,104.53,104.53,0,0,1,29.83-6.58Z"/><path class="cls-3" d="M139.12,85.9a122.13,122.13,0,0,0,14.15-1.8,76.72,76.72,0,0,0,11.62-2.9,70,70,0,0,0,6.53-2.6c-.67-.24-1.76-.63-3.11-1C162.17,75.63,157.17,75,145.58,74c-4.49-.4-8.51-.72-11.93-1Q136.38,79.47,139.12,85.9Z"/><path class="cls-4" d="M84.92,2.66A306.52,306.52,0,0,0,64,35.52c-6.24,11.3-6.82,14-6.31,16.46,3.25,15.71,49.88,18.17,63,18.66-21.86-.24-40.13.27-53.93.89-14.18.64-22.84,1.35-33.37,3.43A179.64,179.64,0,0,0,5.05,83Q33.8,54.46,62.62,25.3,73.81,14,84.92,2.66Z"/><path class="cls-5" d="M95.38,13.06l74.27,65s-74-55.76-75.17-62.72"/><path class="cls-6" d="M32.15,115.48s34.61-45.12,105.9-30.36l-5.47-12.88s-51.76-4.07-89.12,1.58C43.46,73.82,32,99,32.15,115.48Z"/></g></g></svg>