<svg xmlns="http://www.w3.org/2000/svg" viewBox="0 0 122.04 63.96"><defs><style>.cls-1{fill:#da1c5c;}.cls-1,.cls-2{stroke:#231f20;stroke-miterlimit:10;}.cls-2,.cls-3{fill:#1c75bc;}.cls-3,.cls-4,.cls-6{opacity:0.76;}.cls-4,.cls-5{fill:#00a79d;}.cls-5{opacity:0.8;}.cls-6{fill:#9e1f63;}</style></defs><g id="Layer_2" data-name="Layer 2"><g id="shading"><path class="cls-1" d="M9.69,63.3c.4-2,1-4.63,1.82-7.58A98.81,98.81,0,0,1,15.26,45,106,106,0,0,1,20.9,33.29a15,15,0,0,0-11.65.07C3.11,36.21,1.62,42.71,1.1,45,.74,46.57-1,54.12,3.82,59.52A13.61,13.61,0,0,0,9.69,63.3Z"/><path class="cls-1" d="M112.34,60.24c-.4-2.05-1-4.64-1.82-7.59a98.22,98.22,0,0,0-3.74-10.76,102.87,102.87,0,0,0-5.71-11.7,15.16,15.16,0,0,1,11.73.1c6.14,2.87,7.62,9.37,8.13,11.6.37,1.61,2.1,9.16-2.72,14.57A13.7,13.7,0,0,1,112.34,60.24Z"/><rect class="cls-2" x="10.8" y="30.77" width="9.54" height="4.74" transform="translate(13.7 69.7) rotate(-151.89)"/><rect class="cls-2" x="101.6" y="27.66" width="9.54" height="4.74" transform="translate(-1.65 53.46) rotate(-28)"/><path class="cls-1" d="M14.62,29.34l5.83,3.2C21.53,31,36.55,9.83,63.06,10.43,86.71,11,100.32,28.34,102,30.56l5.12-4C96.17,8.72,76.24-1.34,56.05.78,28.65,3.66,15.64,27.42,14.62,29.34Z"/><path class="cls-3" d="M3.84,58.69a30.12,30.12,0,0,1-1.07-9.8,20.47,20.47,0,0,1,1.68-8.06,18.52,18.52,0,0,1,5.76-7.07,13.28,13.28,0,0,0-4.27,2.71A15,15,0,0,0,2,43.72a17.86,17.86,0,0,0-.54,9.54A16.65,16.65,0,0,0,3.84,58.69Z"/><path class="cls-4" d="M118.11,55.78a30.47,30.47,0,0,0,1.08-9.8,20.83,20.83,0,0,0-1.68-8.06,18.61,18.61,0,0,0-5.76-7.07A13.26,13.26,0,0,1,116,33.56,15,15,0,0,1,120,40.81a17.87,17.87,0,0,1,.54,9.54A16.64,16.64,0,0,1,118.11,55.78Z"/><path class="cls-5" d="M103.87,27.89S88.75-1.11,57,1.64c0,0,27.37-5.66,49.11,24.59Z"/><path class="cls-6" d="M20.29,31.33A58.24,58.24,0,0,1,34.67,18.22a52.29,52.29,0,0,1,12.53-6,50.93,50.93,0,0,1,55,17.38C99.38,25.34,92.18,15.7,80,10.66A51.32,51.32,0,0,0,66.59,7.27a43.53,43.53,0,0,0-13.16.33,43,43,0,0,0-6.49,1.75,50.81,50.81,0,0,0-13.72,6.71A42.76,42.76,0,0,0,20.29,31.33Z"/></g></g></svg>