<svg xmlns="http://www.w3.org/2000/svg" viewBox="0 0 119.03 55.87"><defs><style>.cls-1{fill:#f15a29;}.cls-1,.cls-2,.cls-4{stroke:#231f20;stroke-miterlimit:10;}.cls-2{fill:#fbb040;}.cls-3{fill:#fff33e;opacity:0.54;}.cls-4{fill:#a97c50;stroke-width:0.5px;}.cls-5{fill:#f7941d;}</style></defs><g id="Layer_2" data-name="Layer 2"><g id="shading"><path class="cls-1" d="M116.88,55.29l1.62-23.44S9.41,25.32,4.88,6c0,0-16.31,20.1,14.67,32.77Z"/><path class="cls-2" d="M116.79,50.42,118.41,27S9.32,20.45,4.79,1.11c0,0-16.31,20.1,14.67,32.77Z"/><path class="cls-3" d="M4.06,3.44a26.68,26.68,0,0,0,5.23,8c5.75,6,12.92,7.49,22.75,9.43,24.7,4.88,26.6,5.08,26.6,5.08,17.42,1.83,36.44,3.92,58.3,6.25l.18-4c-13.88-1.4-27.82-2.83-48.1-4.93A299.63,299.63,0,0,1,18.81,12.89a31.45,31.45,0,0,1-5.89-2.44A32.77,32.77,0,0,1,4.06,3.44Z"/><path class="cls-4" d="M60.59,20.61a12.92,12.92,0,0,0-4.85,4.19c-4.22,6.13-1.14,13.68-.83,14.4l-7.06-1.29a14.34,14.34,0,0,1-1.23-5.17c-.33-7.44,5.5-12.56,6.5-13.41a13.83,13.83,0,0,1,5.21.41A13.19,13.19,0,0,1,60.59,20.61Z"/><path class="cls-4" d="M79.85,23.65A13.14,13.14,0,0,0,75,27.85c-4.21,6.13-1.13,13.68-.83,14.4L67.11,41a14.34,14.34,0,0,1-1.23-5.17c-.33-7.44,5.51-12.56,6.51-13.41a13.46,13.46,0,0,1,7.46,1.27Z"/><path class="cls-5" d="M79.58,24.12a21.53,21.53,0,0,0-4.85,18.47C74.35,41.9,71.27,36,74.11,30A13.43,13.43,0,0,1,79.58,24.12Z"/><path class="cls-5" d="M60,21.46a21.25,21.25,0,0,0-3.86,7.18,22.42,22.42,0,0,0-.59,10.83c-.35-.67-3.18-6.41-.58-12.31A12.78,12.78,0,0,1,60,21.46Z"/></g></g></svg>