<svg xmlns="http://www.w3.org/2000/svg" viewBox="0 0 16.74 83.62"><defs><style>.cls-1{fill:#231f20;}.cls-1,.cls-2,.cls-3,.cls-4{stroke:#231f20;stroke-width:0.5px;}.cls-1,.cls-2,.cls-3,.cls-4,.cls-7{stroke-miterlimit:10;}.cls-2{fill:#414042;}.cls-3{fill:#6d6e71;}.cls-4{fill:#be1e2d;}.cls-5{fill:#f15a29;}.cls-6{fill:#939598;}.cls-7{fill:none;stroke:#939598;stroke-width:0.25px;}</style></defs><g id="Layer_2" data-name="Layer 2"><g id="shading"><path class="cls-1" d="M.66,74.24l7.77,9,7.72-9.1a4.36,4.36,0,0,1-1.53,1.3,6.61,6.61,0,0,1-2.71.36A57,57,0,0,1,5.68,76a10.79,10.79,0,0,1-2.26-.16A6.45,6.45,0,0,1,.66,74.24Z"/><ellipse class="cls-2" cx="8.37" cy="72.89" rx="8.12" ry="4.33"/><rect class="cls-3" x="7.21" y="17.48" width="2.32" height="55.41"/><rect class="cls-4" x="4.79" y="0.25" width="7.17" height="19.54" rx="2.51"/><path class="cls-5" d="M6.6,1.05A4.46,4.46,0,0,1,9.5,2.11c.7.64,1.08,1.5,1.21,9.45a17.15,17.15,0,0,1-.2,3.88c-.3,1.6-1,3.61-.93,3.62h0a3.59,3.59,0,0,0,1.35-.94,3.61,3.61,0,0,0,.58-1.39c-.07-4.08.05-7.59.05-7.59,0-1.27,0-2.55,0-3.82a5.29,5.29,0,0,0-.44-3.09A3.27,3.27,0,0,0,9.83,1,3.71,3.71,0,0,0,6.6,1.05Z"/><path class="cls-6" d="M10.87,69.24a3.84,3.84,0,0,1,3.27,3.11,4,4,0,0,1-3.92,4.15,6.54,6.54,0,0,0,4.74-2,2.92,2.92,0,0,0,.93-2.18c-.15-1.11-1.35-1.77-2.23-2.26A7.35,7.35,0,0,0,10.87,69.24Z"/><line class="cls-7" x1="9.09" y1="20.06" x2="9.12" y2="72.57"/></g></g></svg>