<svg xmlns="http://www.w3.org/2000/svg" viewBox="0 0 63.55 67.48"><defs><style>.cls-1{isolation:isolate;}.cls-2{fill:#754c29;}.cls-2,.cls-3,.cls-4{stroke:#231f20;stroke-width:0.5px;}.cls-2,.cls-3,.cls-4,.cls-5,.cls-6{stroke-miterlimit:10;}.cls-3,.cls-7,.cls-8{fill:#1c75bc;}.cls-4{fill:#ffde17;}.cls-5{fill:#fff33e;stroke:#a97c50;}.cls-5,.cls-6{stroke-width:0.75px;}.cls-6{fill:none;stroke:#8ed3d5;opacity:0.41;}.cls-7{mix-blend-mode:multiply;opacity:0.22;}.cls-8{mix-blend-mode:darken;opacity:0.25;}</style></defs><g class="cls-1"><g id="Layer_2" data-name="Layer 2"><g id="shading"><rect class="cls-2" x="8.15" y="-0.6" width="2.83" height="68.69" rx="1" transform="translate(8.28 -1.31) rotate(13.73)"/><path class="cls-3" d="M58.64,6A20.65,20.65,0,0,1,52.5,8.55C44.71,10.43,38.13,7.12,36,6A19.55,19.55,0,0,0,28.6,3.44,19.76,19.76,0,0,0,18.11,5l-3.35,14.4a21.08,21.08,0,0,1,5.43-.51A21.77,21.77,0,0,1,30.63,22.1a22.08,22.08,0,0,0,10.54,2.95c9.62.15,15.94-6.34,17.1-7.58,0,0,4.28-11.67,4.9-14.25Z"/><path class="cls-4" d="M55.86,19.7A22.94,22.94,0,0,1,43.45,25a23.24,23.24,0,0,1-15.29-4.07,20.57,20.57,0,0,0-8.92-2,20.14,20.14,0,0,0-4.48.55L11.1,34.05A19.33,19.33,0,0,1,15,33.82c4.27.17,7.09,1.68,10.35,3C25.82,37,32,39.49,36,39.94s9.52-.63,17.1-7.58q1.13-3,2.22-6.16c1-2.95,2-5.86,3-8.73Z"/><line class="cls-5" x1="17.95" y1="1.89" x2="2.32" y2="65.87"/><path class="cls-6" d="M20,6.09a16.51,16.51,0,0,1,7.73-1A22.27,22.27,0,0,1,34.4,7.15c2.83,1.24,3,1.73,4.84,2.52,5.5,2.44,11.17,1.24,13.41.76a26.36,26.36,0,0,0,7.28-2.74"/><path class="cls-7" d="M22.73,35.49c.63-1.18,1.62-3,2.79-5.35,2-4,3.12-6.43,6.71-14.1l3.14-6.71q-1.47,8.58-2.8,17.53-.88,5.92-1.64,11.74c-1.11-.35-2.27-.74-3.47-1.18C25.77,36.8,24.2,36.15,22.73,35.49Z"/><path class="cls-8" d="M44.25,38A31,31,0,0,0,49.76,9.53c3.29-1.16,5.9-2.28,7.76-3.13S63,3.8,63,3.8h0a151.54,151.54,0,0,0-5.49,15.26c-.69,2.34-.78,2.9-1.53,5.2-1.1,3.41-2.19,6.13-2.93,7.88a43.92,43.92,0,0,1-4.45,3.38A42.35,42.35,0,0,1,44.25,38Z"/></g></g></g></svg>