<svg xmlns="http://www.w3.org/2000/svg" viewBox="0 0 108.52 95.63"><defs><style>.cls-1{fill:#f1f2f2;}.cls-1,.cls-2{stroke:#231f20;stroke-miterlimit:10;}.cls-2{fill:#9e1f63;}.cls-3{fill:#738aba;}.cls-3,.cls-7{opacity:0.2;}.cls-4,.cls-5,.cls-6{fill:#8cc6ec;}.cls-4{opacity:0.79;}.cls-5{opacity:0.77;}.cls-6{opacity:0.53;}.cls-7{fill:#2b3990;}.cls-8{fill:#ec008c;opacity:0.75;}</style></defs><g id="Layer_2" data-name="Layer 2"><g id="shading"><path class="cls-1" d="M78.42,21.88a9.3,9.3,0,0,0-6-7.3c-.08-4.5-2.08-8.41-5.65-10.11S59,3.65,55.46,6.33C51.93,1.72,46.42-.58,41.31,1s-8.17,6.29-8.65,11.88a10.22,10.22,0,1,0,10,17.26,11.59,11.59,0,0,0,7.75.38,10.86,10.86,0,0,0,1.79-.74A8.83,8.83,0,0,0,54.09,31a9.71,9.71,0,0,0,7.4.23A11.5,11.5,0,0,0,69,32.75C74.9,32,79.12,27.09,78.42,21.88Z"/><path class="cls-2" d="M52,25.77c-22.61,0-40.93,20.38-40.93,45.52H92.92C92.92,46.15,74.59,25.77,52,25.77Z"/><path class="cls-1" d="M108,74.35a7.21,7.21,0,0,0-6.47-7.15c0-.16,0-.31,0-.48a8.61,8.61,0,0,0-17.21,0c0,.16,0,.32,0,.47-.22,0-.42-.06-.65-.06a7.18,7.18,0,0,0-5.31,2.36,8.64,8.64,0,0,0-12.55,1.2A8.13,8.13,0,0,0,59.08,67,8,8,0,0,0,53,69.78a7,7,0,0,0-8.05.58,7.2,7.2,0,0,0-10.09-.09,7.17,7.17,0,0,0-5-2c-.11,0-.22,0-.33,0a8.08,8.08,0,0,0-7.75-5.78,7.89,7.89,0,0,0-3.62.87A9,9,0,0,0,3.91,74.53C.57,77.67-.52,82.35,1.56,86c2.27,3.92,7.51,5.23,12.22,3.27a8.48,8.48,0,0,0,14.87.55,9.76,9.76,0,0,0,17.13.29,9.9,9.9,0,0,0,17.09.32,9,9,0,0,0,15.92-.46,7.17,7.17,0,0,0,12.15-2,7.15,7.15,0,0,0,3.41.89,7.23,7.23,0,0,0,7.23-7.22s0,0,0-.08A7.2,7.2,0,0,0,108,74.35Z"/><path class="cls-3" d="M12.32,60a22.58,22.58,0,0,0,3.23,13.09c4,6.31,10.58,8.36,21.06,11.47,9.58,2.84,17.6,3.58,26.75,4.38,6.47.57,11.83.76,15.47.82a9.84,9.84,0,0,1-3.24,3.76c-.57.38-4,2.59-7.23,1.48-3.12-1-4-4.36-5.67-4-.83.21-.72,1.06-1.87,2.19-2.08,2-5.21,2-6.14,2a11,11,0,0,1-6.12-2.11c-1.6-1.22-1.77-2.16-2.74-2.16-1.52,0-1.75,2.24-4.38,3.49a8.42,8.42,0,0,1-3.56.7,9.35,9.35,0,0,1-4.94-.91c-2.71-1.47-2.82-4-4.43-3.92-1.08,0-1.12,1.11-3,2.14a9.21,9.21,0,0,1-5,1,8.16,8.16,0,0,1-4-1.06c-1.87-1.11-1.6-2.16-3-2.79-1.9-.85-3,.76-5.61.47A8.28,8.28,0,0,1,2.55,86.8c-.2-.27-2.44-3.3-1.63-6.58.58-2.32,2.23-3,2.34-5.66a14.36,14.36,0,0,0-.19-2.41c-.28-2.46-.62-3-.65-4a7.33,7.33,0,0,1,2-4.67C7.21,60.06,11.62,60,12.32,60Z"/><path class="cls-4" d="M56.88,6.81a11.08,11.08,0,0,1,14.05,6.13S67.51.52,56.88,6.81Z"/><path class="cls-4" d="M89.83,60.38a8.24,8.24,0,0,1,10.46,4.56S97.74,55.7,89.83,60.38Z"/><path class="cls-4" d="M99.22,68.3a8.51,8.51,0,0,1,5.71,3,8.39,8.39,0,0,1,1.89,5.55S108.36,67.35,99.22,68.3Z"/><path class="cls-5" d="M69.24,15.11a11.06,11.06,0,0,1,6.6,13.83S81.39,17.31,69.24,15.11Z"/><path class="cls-6" d="M40.1,4.07a11.42,11.42,0,0,1,8.63-.31A11.36,11.36,0,0,1,54.61,9S50.17-3.08,40.1,4.07Z"/><path class="cls-3" d="M31.38,31.16A38.24,38.24,0,0,1,48,25.27a39.23,39.23,0,0,1,24.38,5.67A68.87,68.87,0,0,0,26.34,21a9.14,9.14,0,0,0,.16,4.36A9.85,9.85,0,0,0,31.38,31.16Z"/><path class="cls-7" d="M70.68,67.09a7,7,0,0,0-3,1.34,9.2,9.2,0,0,0-1,1.1c-.19.24-.59.78-.59.78h0a8.77,8.77,0,0,0-2.84-2.65,8.67,8.67,0,0,0-5-1.17,7.54,7.54,0,0,0-3.7,1.25A7.41,7.41,0,0,0,53,69.25,6.94,6.94,0,0,0,45,69.7a10.25,10.25,0,0,0-1.35-.85,8.07,8.07,0,0,0-3-1,7.48,7.48,0,0,0-1.8,0,6.55,6.55,0,0,0-2.55.7,5.82,5.82,0,0,0-1.44,1.08A8.29,8.29,0,0,0,33,68.44a5.44,5.44,0,0,0-1.8-.54c-.51-.05-1.36-.05-1.36-.05-.08-.16-.22-.41-.4-.7a11.57,11.57,0,0,0-3-3.7A7.45,7.45,0,0,0,21,62a13.45,13.45,0,0,0-2.6.71c-.09-.12-.23-.3-.42-.51a6.84,6.84,0,0,0-1.92-1.42,7.61,7.61,0,0,0-1-.46,7.72,7.72,0,0,0-2.2-.5q1.79-4.91,3.56-9.82a128.78,128.78,0,0,0,23.18,9.4c21.07,6.23,44.15,7.05,44.1,7.05h0a8.93,8.93,0,0,0-3.53,1,13.5,13.5,0,0,0-1.83,1.35h0a10.1,10.1,0,0,0-1.57-.9l-.78-.33L74.59,67a4.68,4.68,0,0,0-2-.19"/><path class="cls-8" d="M58.76,27.33A54.14,54.14,0,0,1,73.28,36.8,54.72,54.72,0,0,1,87.84,59a14.06,14.06,0,0,0,.42-1.84A13.28,13.28,0,0,0,88,52c-.34-1.51-1.4-4.88-5.42-10a39.6,39.6,0,0,0-7.8-7.92A36.91,36.91,0,0,0,58.76,27.33Z"/></g></g></svg>