<svg xmlns="http://www.w3.org/2000/svg" viewBox="0 0 121.74 76.38"><defs><style>.cls-1,.cls-4{fill:none;}.cls-1,.cls-2,.cls-3{stroke:#231f20;}.cls-1,.cls-2,.cls-3,.cls-4{stroke-miterlimit:10;}.cls-1{stroke-width:0.5px;}.cls-2,.cls-5,.cls-8{fill:#006838;}.cls-3{fill:#009444;}.cls-4{stroke:#8dc63f;}.cls-5{opacity:0.66;}.cls-6,.cls-7{fill:#39b54a;}.cls-7{opacity:0.45;}</style></defs><g id="Layer_2" data-name="Layer 2"><g id="shading"><line class="cls-1" x1="90.76" y1="70" x2="90.76" y2="76.38"/><line class="cls-1" x1="105.96" y1="70" x2="105.96" y2="76.38"/><line class="cls-1" x1="109.46" y1="58.11" x2="109.46" y2="64.49"/><line class="cls-1" x1="112.09" y1="58.28" x2="112.09" y2="64.67"/><line class="cls-1" x1="114.91" y1="58.11" x2="114.91" y2="64.49"/><line class="cls-1" x1="103.42" y1="70" x2="103.42" y2="76.38"/><line class="cls-1" x1="100.9" y1="70" x2="100.9" y2="76.38"/><rect class="cls-2" x="100.9" y="23.62" width="15.09" height="35.1"/><rect class="cls-3" x="90.17" y="23.62" width="16.76" height="46.94"/><path class="cls-3" d="M11.37,3.24A97.59,97.59,0,0,0,44.14,14.73C77.42,20,103.69,6,112.7.6a2.82,2.82,0,0,1,1.26,0c2.22.43,3.34,3.66,4.13,6.3a96.89,96.89,0,0,1,3.11,15l-.89.54A129.68,129.68,0,0,1,81,37.78S44.46,45.53,4.17,26a6.75,6.75,0,0,1-2.6-2.12c-2.64-3.71,0-9.08,3.57-16.3C5.9,6,7,4,9.17,3.34A5,5,0,0,1,11.37,3.24Z"/><line class="cls-1" x1="95.95" y1="70" x2="95.95" y2="76.38"/><line class="cls-1" x1="93.35" y1="70" x2="93.35" y2="76.38"/><line class="cls-1" x1="98.55" y1="70" x2="98.55" y2="76.38"/><path class="cls-4" d="M5.55,25.4c-.49-1.78-1-3.56-1.48-5.34l4.32-1.8L6.23,13.74l3.46-2.07L8.39,8.81,12.5,6.53,10.92,4.44"/><path class="cls-4" d="M15.11,29.68,13.64,24,18,22.15,15.8,17.64l3.47-2.08L18,12.71l4.11-2.29L20.1,9"/><path class="cls-4" d="M24.78,32.81c-.29-1.35-.58-2.71-.88-4.06L28.23,27l-2.17-4.52,3.47-2.07-1.3-2.85,4.1-2.29-1.88-2.4"/><path class="cls-4" d="M38.36,36.09l-1.89-5,4.33-1.8-2.17-4.51,3.47-2.08-1.3-2.85,4.1-2.28-2.25-1.83"/><path class="cls-4" d="M51.52,38c-.53-1.78-1.05-3.56-1.58-5.34l4.32-1.8L52.1,26.31l3.46-2.08-1.3-2.85,4.11-2.28-1.43-2.2"/><path class="cls-4" d="M65.62,38.39l-1.83-5.77,4.32-1.8L66,26.31l3.47-2.08-1.31-2.85,4.11-2.28-2-3"/><path class="cls-4" d="M79.68,37.29l-2.49-4.71,4.66-2.43L78.93,25.4l4.14-2-2.59-3.91,4.87-2.93L83.4,13.7"/><path class="cls-4" d="M91.71,46.11c0-1.34,0-2.68,0-4l4.37.82.36-4,3.27.6L101,35.88l4.61.29,0-3.92"/><path class="cls-4" d="M91.56,58.27c0-2,0-4,.07-6l4.43,1.85-.55-5.35,4.75,1.89-.15-5.51L105.43,47c0-1.6.09-3.2.13-4.8"/><path class="cls-4" d="M91.71,68.17V63.94l4.36,1-.35-5.44,4,2,.6-5.81,5.25,3c0-1.34,0-2.69.08-4"/><path class="cls-4" d="M96.43,69.19h3.9c-.1-1.1-.19-2.2-.28-3.31l3.46,2c0-1.45,0-2.89,0-4.34l2.72.32"/><path class="cls-4" d="M92.71,34l-1.64-6.39,3.42-4-2.38-3.09L95.8,17l-1.31-2.86,4.11-2.28c-.52-.89-1-1.79-1.54-2.68"/><path class="cls-4" d="M103.53,30.2q-1.31-3.3-2.63-6.58l5.31-1.95-2.64-4.39,3.8-4.12-1.3-2.86L110.18,8l-1.57-4.38"/><path class="cls-4" d="M111.89,26.15,111.78,23l4.33-1.8c-.72-1.23-1.43-2.46-2.14-3.69l3.93-.82c-1.15-1.37-2.29-2.74-3.44-4.1l3-2.73q-.82-2.62-1.64-5.25"/><path class="cls-5" d="M11,3.69A45.59,45.59,0,0,0,19.12,20c15.66,19.81,43,18.63,46.77,18.4A131.48,131.48,0,0,1,42.7,37.06c-6-.9-11.08-2.12-13.84-2.79-4.27-1-6.83-1.84-8.18-2.28-2.71-.88-4.81-1.7-6.53-2.37-.62-.24-.35-.14-5.86-2.46-3.49-1.46-4.86-2-6-3.55A7.83,7.83,0,0,1,1,21.13a30.05,30.05,0,0,1,1-5.28,31,31,0,0,1,1.87-4.92A43,43,0,0,1,6.51,6.54C7.39,5.16,7.93,4.42,8.91,4A4.26,4.26,0,0,1,11,3.69Z"/><path class="cls-6" d="M106.93,4.81s9.55-3.5,13.48,16.48c0,0-2.42-20.45-7.31-20.35Z"/><path class="cls-7" d="M104.89,31.55,105,69.83h1.22q0-19.74,0-39.47Z"/><path class="cls-8" d="M90.89,47.87a18.33,18.33,0,0,1,1.76-7.18,18.52,18.52,0,0,1,6.41-7.39L90.76,36Q90.82,41.92,90.89,47.87Z"/></g></g></svg>