<svg width="44" height="28" viewBox="0 0 44 28" fill="none" xmlns="http://www.w3.org/2000/svg">
<g clip-path="url(#clip0_158_1733)">
<path d="M43.4133 10.6624C43.3738 11.097 42.9959 11.4201 42.5533 11.3806C42.3425 11.3614 42.1521 11.2611 42.0163 11.099C41.8806 10.9369 41.8168 10.7313 41.836 10.5206C41.9252 9.52983 41.1705 8.32129 40.1889 7.88063C39.343 7.50176 38.4383 7.30928 37.4993 7.30928H37.4729C36.6443 7.31232 35.6495 7.3498 34.598 7.3883H34.5858C31.9611 7.48757 28.9868 7.59901 26.823 7.26167C25.5557 7.06413 24.2651 6.21724 22.9877 4.7443C22.6767 4.38569 22.3738 3.99669 22.0881 3.58946L21.9635 3.41218L21.8389 3.58946C21.5533 3.99669 21.2504 4.38569 20.9394 4.7443C19.6619 6.21724 18.3713 7.06413 17.104 7.26167C14.9412 7.59901 11.966 7.48758 9.34124 7.38931H9.32909C8.27655 7.3498 7.28278 7.31232 6.45412 7.30928C5.50694 7.30928 4.59218 7.4977 3.7382 7.88063C2.75658 8.32129 2.00188 9.52983 2.09103 10.5206C2.11027 10.7313 2.04645 10.9369 1.91071 11.099C1.77496 11.2611 1.58451 11.3614 1.3738 11.3806C0.931112 11.4201 0.553254 11.097 0.513746 10.6624C0.362806 8.97875 1.47004 7.16239 3.08987 6.43605C4.14139 5.965 5.26584 5.72592 6.43184 5.72592H6.45919C7.31722 5.72896 8.3272 5.76645 9.40101 5.80697C11.9548 5.90219 14.848 6.01058 16.8599 5.69756C18.2923 5.47469 19.6761 3.86196 20.3731 2.92086L20.4308 2.84286L20.3792 2.74865C20.053 2.1155 19.7977 1.61203 19.6204 1.25241C19.509 1.02752 19.4279 0.858342 19.3732 0.736779C19.2101 0.375129 19.2385 0.168472 19.4664 0.0469088C19.5971 -0.0240029 19.7673 -0.00779454 19.8878 0.0854037L19.9 0.0935079C19.9851 0.148211 20.3417 0.337647 21.765 1.0032C21.7883 1.01333 21.8106 1.02752 21.8339 1.04474L21.8764 1.07817L21.9311 1.07614C21.9524 1.07513 21.9737 1.07513 21.9949 1.07614L22.0496 1.07817L22.0932 1.04474C22.1165 1.02752 22.1388 1.01333 22.1621 1.0032C23.5763 0.342712 23.9359 0.15125 24.025 0.095534L24.0402 0.0843907C24.1618 -0.0138727 24.3289 -0.028055 24.4697 0.0509609C24.6916 0.170498 24.7169 0.375129 24.5538 0.736779C24.4981 0.859355 24.4181 1.02853 24.3067 1.25241C24.1304 1.61001 23.8751 2.11348 23.5479 2.74865L23.4972 2.84488L23.554 2.92086C24.2509 3.86196 25.6347 5.47469 27.0671 5.69756C29.08 6.01058 31.9732 5.90219 34.5311 5.80697C35.5998 5.76645 36.6098 5.72896 37.4689 5.72592H37.4952C38.0787 5.72592 38.6511 5.78569 39.2093 5.90422C39.7674 6.02274 40.3114 6.20002 40.8372 6.43605C42.456 7.16239 43.5643 8.97875 43.4133 10.6624Z" fill="#030303"/>
<path d="M38.5261 11.9384C38.4552 12.3689 38.0459 12.6617 37.6154 12.5908C36.9812 12.4864 36.0138 12.4479 35.0048 12.8582C34.6482 13.0031 32.8541 13.8044 32.5583 15.3067C32.5198 15.5062 32.5107 15.6248 32.5087 15.6774V15.6947L32.5107 15.7109C32.5604 15.9712 32.5168 16.1941 32.378 16.3916C31.9556 16.9913 31.2607 16.7462 30.5252 16.418L30.512 16.4129C30.4614 16.3896 30.4158 16.3693 30.3803 16.3541C29.6996 16.0705 28.8375 16.3298 28.1456 16.5385C26.5774 17.0116 25.5776 18.5676 24.9799 19.4986C23.6316 21.5986 22.8627 24.1696 22.7553 26.9301V26.9443C22.7543 26.9565 22.7523 26.9676 22.7512 26.9798L22.7492 26.996C22.7492 27.0051 22.7482 27.0142 22.7462 27.0223C22.7462 27.0345 22.7421 27.0466 22.7401 27.0598L22.7371 27.0709C22.735 27.08 22.733 27.0902 22.731 27.0993C22.728 27.1104 22.7249 27.1206 22.7188 27.1398C22.7158 27.151 22.7117 27.1621 22.7087 27.1732C22.7047 27.1834 22.7006 27.1925 22.6945 27.2087C22.6895 27.2198 22.6844 27.232 22.6793 27.2442C22.6743 27.2533 22.6692 27.2634 22.6621 27.2756C22.656 27.2877 22.6499 27.2999 22.6429 27.31C22.6378 27.3191 22.6317 27.3282 22.6236 27.3404C22.6165 27.3515 22.6094 27.3627 22.6003 27.3738C22.5952 27.3819 22.5892 27.389 22.579 27.4012C22.5709 27.4113 22.5628 27.4214 22.5537 27.4306C22.5456 27.4397 22.5375 27.4488 22.5284 27.4579C22.5203 27.467 22.5112 27.4761 22.501 27.4842C22.4919 27.4934 22.4828 27.5015 22.4727 27.5096C22.4636 27.5177 22.4544 27.5248 22.4443 27.5329C22.4342 27.54 22.424 27.5481 22.4129 27.5552C22.4028 27.5622 22.3926 27.5693 22.3825 27.5754C22.3714 27.5825 22.3602 27.5886 22.3491 27.5947C22.3389 27.6007 22.3278 27.6068 22.3157 27.6129C22.3045 27.618 22.2934 27.623 22.2822 27.6281C22.2701 27.6332 22.2579 27.6382 22.2458 27.6433C22.2346 27.6473 22.2235 27.6514 22.2123 27.6554C22.1981 27.6595 22.185 27.6635 22.1718 27.6676C22.1607 27.6706 22.1495 27.6727 22.1394 27.6757C22.1242 27.6787 22.109 27.6818 22.0948 27.6838C22.0837 27.6858 22.0735 27.6879 22.0614 27.6889C22.0462 27.6909 22.031 27.6919 22.0158 27.6929L21.9641 27.696L21.9125 27.6929C21.8973 27.6919 21.8811 27.6909 21.8659 27.6889C21.8557 27.6879 21.8446 27.6858 21.8345 27.6838C21.8193 27.6818 21.8041 27.6787 21.7899 27.6757C21.7787 27.6727 21.7676 27.6706 21.7575 27.6676C21.7433 27.6635 21.7291 27.6595 21.7159 27.6554C21.7048 27.6514 21.6937 27.6473 21.6835 27.6433C21.6704 27.6392 21.6582 27.6342 21.645 27.6281C21.6339 27.623 21.6227 27.618 21.6136 27.6129C21.6015 27.6068 21.5893 27.6007 21.5782 27.5947C21.567 27.5886 21.5569 27.5825 21.5468 27.5764C21.5356 27.5693 21.5245 27.5622 21.5143 27.5541C21.5042 27.5481 21.4941 27.541 21.484 27.5329C21.4738 27.5248 21.4647 27.5167 21.4536 27.5086C21.4455 27.5005 21.4363 27.4934 21.4272 27.4853C21.4171 27.4761 21.408 27.467 21.3968 27.4549C21.3887 27.4468 21.3816 27.4397 21.3745 27.4316C21.3654 27.4214 21.3573 27.4113 21.3482 27.4002C21.3411 27.391 21.334 27.3829 21.3269 27.3738C21.3188 27.3627 21.3117 27.3505 21.3006 27.3353C21.2955 27.3272 21.2905 27.3191 21.2854 27.311C21.2783 27.2999 21.2722 27.2877 21.2631 27.2705C21.2591 27.2624 21.254 27.2533 21.2489 27.2442C21.2439 27.233 21.2398 27.2219 21.2317 27.2016C21.2277 27.1925 21.2236 27.1834 21.2196 27.1732C21.2165 27.1631 21.2135 27.152 21.2074 27.1337C21.2033 27.1216 21.2003 27.1104 21.1973 27.0993C21.1952 27.0902 21.1932 27.08 21.1912 27.0709L21.1882 27.0598C21.1861 27.0466 21.1831 27.0345 21.1821 27.0223C21.18 27.0142 21.179 27.0051 21.179 26.996L21.177 26.9798C21.176 26.9676 21.174 26.9565 21.174 26.9433V26.9342C21.0656 24.1696 20.2967 21.5986 18.9473 19.4976C18.3507 18.5676 17.3508 17.0116 15.7827 16.5385C15.3086 16.3957 14.7565 16.2295 14.2358 16.2295C13.9957 16.2295 13.7627 16.265 13.5479 16.3552C13.5135 16.3693 13.4709 16.3886 13.4223 16.4099L13.4031 16.418C12.6676 16.7462 11.9717 16.9913 11.5512 16.3926C11.4104 16.1931 11.3669 15.9692 11.4165 15.7099L11.4206 15.6926V15.6754C11.4175 15.6227 11.4084 15.5052 11.3699 15.3067C11.0741 13.8044 9.28005 13.0031 8.92346 12.8582C7.9155 12.4479 6.94705 12.4864 6.3129 12.5908C5.88135 12.6627 5.4731 12.3689 5.40219 11.9384C5.33128 11.5078 5.62404 11.0996 6.05559 11.0287C7.254 10.8311 8.45241 10.9567 9.52014 11.3913C10.1634 11.6537 12.3039 12.6688 12.8631 14.7414L12.9057 14.9015L13.0617 14.8447C14.2277 14.4162 15.4382 14.7809 16.2395 15.022C18.3679 15.6633 19.6119 17.6012 20.2805 18.6426C20.9035 19.613 21.4222 20.6858 21.8203 21.8326L21.9641 22.2449L22.108 21.8326C22.5061 20.6868 23.0248 19.613 23.6478 18.6426C24.3164 17.6012 25.5604 15.6633 27.6887 15.022C28.49 14.7809 29.7006 14.4162 30.8666 14.8447L31.0226 14.9015L31.0651 14.7414C31.6243 12.6688 33.7649 11.6537 34.4071 11.3913C35.1466 11.0905 35.9489 10.9375 36.7705 10.9375C37.1352 10.9375 37.5039 10.9679 37.8727 11.0287C38.3042 11.0996 38.597 11.5078 38.5261 11.9384Z" fill="#030303"/>
<path d="M22.901 27.0113C22.9 27.0224 22.899 27.0346 22.897 27.0447C22.8939 27.0619 22.8909 27.0781 22.8878 27.0944C22.8878 27.0964 22.8868 27.0994 22.8858 27.1014L23.0368 27.1207C23.0408 27.1035 23.0438 27.0863 23.0469 27.068C23.0489 27.0549 23.0509 27.0407 23.052 27.0265L22.901 27.0113ZM22.8645 27.1825C22.8605 27.1967 22.8564 27.2109 22.8514 27.225C22.8463 27.2392 22.8402 27.2524 22.8342 27.2666C22.8281 27.2808 22.823 27.2949 22.8159 27.3091C22.8098 27.3223 22.8027 27.3344 22.7967 27.3466C22.7886 27.3608 22.7815 27.375 22.7734 27.3891C22.7663 27.4013 22.7582 27.4124 22.7501 27.4236C22.742 27.4378 22.7329 27.4509 22.7227 27.4641C22.7146 27.4753 22.7055 27.4864 22.6974 27.4965C22.6873 27.5087 22.6771 27.5208 22.667 27.533C22.6569 27.5431 22.6467 27.5543 22.6366 27.5644C22.6265 27.5755 22.6153 27.5857 22.6042 27.5958C22.5941 27.6059 22.5819 27.6161 22.5708 27.6262C22.5596 27.6353 22.5485 27.6444 22.5363 27.6535C22.5242 27.6627 22.512 27.6718 22.4988 27.6799C22.4877 27.689 22.4755 27.6971 22.4634 27.7042C22.4502 27.7123 22.437 27.7204 22.4229 27.7275C22.4107 27.7346 22.3975 27.7417 22.3844 27.7488C22.3702 27.7549 22.357 27.7619 22.3428 27.768C22.3287 27.7741 22.3145 27.7802 22.3003 27.7852C22.2861 27.7903 22.2729 27.7954 22.2598 27.7994C22.2436 27.8055 22.2274 27.8096 22.2111 27.8146C22.198 27.8177 22.1848 27.8207 22.1716 27.8237C22.1544 27.8278 22.1372 27.8308 22.119 27.8339C22.1058 27.8359 22.0936 27.8379 22.0805 27.8399C22.0622 27.842 22.044 27.844 22.0247 27.845C22.0166 27.845 22.0085 27.847 22.0004 27.847C21.9893 27.848 21.9771 27.848 21.966 27.848H21.9619C21.9508 27.848 21.9386 27.848 21.9275 27.847C21.9194 27.847 21.9113 27.845 21.9032 27.845C21.8839 27.844 21.8657 27.842 21.8475 27.8399C21.8343 27.8379 21.8221 27.8359 21.809 27.8339C21.7918 27.8308 21.7735 27.8278 21.7553 27.8237C21.7431 27.8207 21.73 27.8177 21.7178 27.8146C21.7006 27.8096 21.6844 27.8045 21.6682 27.7994C21.655 27.7954 21.6418 27.7903 21.6287 27.7852C21.6135 27.7802 21.5983 27.7741 21.5841 27.767C21.5709 27.7609 21.5577 27.7559 21.5446 27.7488C21.5314 27.7417 21.5172 27.7346 21.5041 27.7275C21.4909 27.7204 21.4777 27.7123 21.4656 27.7052C21.4524 27.6971 21.4402 27.688 21.4271 27.6799C21.4159 27.6708 21.4038 27.6627 21.3916 27.6535C21.3794 27.6444 21.3683 27.6353 21.3562 27.6252C21.345 27.6161 21.3339 27.6059 21.3237 27.5968C21.3126 27.5857 21.3014 27.5745 21.2903 27.5634C21.2802 27.5533 21.2711 27.5431 21.2609 27.533C21.2508 27.5208 21.2407 27.5087 21.2305 27.4965C21.2214 27.4854 21.2133 27.4753 21.2052 27.4641C21.1951 27.4509 21.186 27.4368 21.1768 27.4236C21.1698 27.4124 21.1616 27.4013 21.1556 27.3891C21.1465 27.375 21.1394 27.3608 21.1313 27.3466C21.1252 27.3344 21.1181 27.3223 21.112 27.3091C21.1049 27.2949 21.0988 27.2808 21.0928 27.2656C21.0877 27.2524 21.0816 27.2392 21.0766 27.225C21.0715 27.2109 21.0674 27.1967 21.0634 27.1825C21.0583 27.1673 21.0533 27.1521 21.0492 27.1369C21.0462 27.1227 21.0431 27.1085 21.0401 27.0944C21.0401 27.0933 21.0401 27.0913 21.0391 27.0903L20.8932 27.1308C20.8962 27.145 20.8983 27.1602 20.9023 27.1744C20.9064 27.1906 20.9114 27.2068 20.9195 27.2311C20.9236 27.2463 20.9287 27.2615 20.9337 27.2767C20.9388 27.2909 20.9449 27.3051 20.954 27.3263C20.9611 27.3436 20.9671 27.3598 20.9753 27.375C20.9813 27.3881 20.9884 27.4013 20.9975 27.4175C21.0056 27.4347 21.0148 27.4509 21.0249 27.4682C21.032 27.4793 21.0401 27.4915 21.0502 27.5077C21.0603 27.5229 21.0715 27.5391 21.0826 27.5543C21.0928 27.5674 21.1029 27.5796 21.112 27.5918C21.1232 27.6059 21.1353 27.6201 21.1485 27.6343C21.1576 27.6454 21.1687 27.6566 21.1819 27.6698C21.1941 27.6829 21.2072 27.6961 21.2204 27.7082C21.2326 27.7194 21.2457 27.7305 21.2579 27.7407C21.2721 27.7528 21.2863 27.764 21.2994 27.7741C21.3126 27.7852 21.3268 27.7944 21.341 27.8045C21.3551 27.8146 21.3703 27.8247 21.3855 27.8339C21.3997 27.843 21.4139 27.8511 21.4291 27.8592C21.4453 27.8683 21.4605 27.8764 21.4777 27.8855C21.4929 27.8926 21.5071 27.8997 21.5223 27.9058C21.5395 27.9139 21.5567 27.921 21.575 27.9281C21.5902 27.9331 21.6043 27.9392 21.6206 27.9443C21.6398 27.9504 21.658 27.9554 21.6783 27.9615C21.6925 27.9645 21.7067 27.9686 21.7229 27.9727C21.7431 27.9767 21.7634 27.9808 21.7847 27.9838C21.7988 27.9868 21.814 27.9889 21.8282 27.9909C21.8505 27.9929 21.8718 27.9949 21.8971 27.997C21.9052 27.998 21.9133 27.999 21.9214 27.999C21.9346 27.999 21.9478 28 21.967 28C21.9802 28 21.9933 27.999 22.0055 27.999C22.0146 27.999 22.0227 27.999 22.0349 27.997C22.0562 27.9949 22.0774 27.9929 22.0987 27.9909C22.1139 27.9889 22.1281 27.9868 22.1443 27.9838C22.1645 27.9808 22.1848 27.9767 22.2051 27.9727C22.2203 27.9686 22.2355 27.9645 22.2517 27.9605C22.2699 27.9554 22.2881 27.9504 22.3074 27.9443C22.3236 27.9382 22.3388 27.9331 22.354 27.9271C22.3712 27.921 22.3884 27.9139 22.4046 27.9068C22.4208 27.8997 22.436 27.8926 22.4512 27.8845C22.4674 27.8764 22.4826 27.8683 22.4978 27.8602C22.513 27.8511 22.5282 27.843 22.5434 27.8329C22.5576 27.8247 22.5718 27.8146 22.586 27.8055C22.6001 27.7954 22.6143 27.7852 22.6285 27.7741C22.6427 27.764 22.6559 27.7528 22.669 27.7417C22.6822 27.7305 22.6954 27.7194 22.7075 27.7072C22.7207 27.6961 22.7329 27.6829 22.745 27.6708C22.7572 27.6586 22.7683 27.6465 22.7805 27.6343C22.7926 27.6211 22.8038 27.6069 22.82 27.5867C22.8291 27.5755 22.8372 27.5644 22.8453 27.5543C22.8564 27.5391 22.8666 27.5239 22.8787 27.5056C22.8868 27.4925 22.8949 27.4803 22.903 27.4672C22.9132 27.4509 22.9213 27.4347 22.9314 27.4165C22.9385 27.4033 22.9466 27.3891 22.9527 27.375C22.9608 27.3588 22.9679 27.3415 22.977 27.3192C22.9831 27.3051 22.9891 27.2909 22.9942 27.2767C22.9993 27.2605 23.0043 27.2453 23.0114 27.222C23.0165 27.2058 23.0216 27.1906 23.0256 27.1734C23.0297 27.1602 23.0317 27.145 23.0347 27.1308L22.8858 27.1014C22.8838 27.1136 22.8818 27.1247 22.8787 27.1369C22.8747 27.1521 22.8696 27.1673 22.8645 27.1825ZM21.0259 27.0022V26.9961L20.876 27.0265C20.877 27.0407 20.879 27.0549 20.881 27.068C20.8841 27.0863 20.8871 27.1035 20.8912 27.1207L21.0391 27.0903C21.037 27.0751 21.034 27.0609 21.031 27.0447C21.0289 27.0316 21.0279 27.0164 21.0259 27.0022Z" fill="#231F20"/>
</g>
<defs>
<clipPath id="clip0_158_1733">
<rect width="42.9269" height="28" fill="white" transform="translate(0.5)"/>
</clipPath>
</defs>
</svg>
