<svg width="25" height="24" viewBox="0 0 25 24" fill="none" xmlns="http://www.w3.org/2000/svg">
<g clip-path="url(#clip0_158_1745)">
<path d="M13.5752 23.5419V15.1556H16.6812L17.2073 12.2909H13.5752V10.7763C13.5752 9.75916 13.7903 9.0737 14.2527 8.6196C14.7133 8.16729 15.4075 7.95673 16.4375 7.95673C16.7431 7.95673 17.1291 7.9608 17.4491 7.97661V5.39565C16.8868 5.28043 15.8947 5.1765 15.2864 5.1765C11.6746 5.1765 10.0638 6.82123 10.0638 10.5097V12.2909H7.73382V15.1556H10.0638V23.3363L9.69947 23.246C7.23167 22.6337 4.998 21.1937 3.4093 19.1906C1.77179 17.1257 0.90625 14.6382 0.90625 11.9976C0.90625 8.902 2.11213 5.99119 4.30196 3.80243C6.49179 1.61276 9.40343 0.407227 12.4999 0.407227C15.5964 0.407227 18.5081 1.61276 20.6974 3.80197C22.8868 5.99119 24.0931 8.90155 24.0931 11.9972C24.0931 17.855 19.7126 22.8009 13.9042 23.5022L13.5752 23.5419ZM14.1627 15.743V22.8746C19.5119 22.0653 23.5056 17.4469 23.5056 11.9972C23.5056 9.05834 22.3607 6.29528 20.2821 4.21722C18.2034 2.13917 15.4396 0.994631 12.4999 0.994631C9.56026 0.994631 6.79642 2.13917 4.71778 4.21722C2.63913 6.29528 1.49427 9.05834 1.49427 11.9972C1.49427 14.504 2.31597 16.8654 3.86987 18.8255C5.29947 20.6284 7.27913 21.951 9.47619 22.5786V15.743H7.14625V11.7035H9.47619V10.5097C9.47619 8.48766 9.94263 7.02863 10.9022 6.04902C11.8644 5.0667 13.2986 4.5891 15.2864 4.5891C16.0362 4.5891 17.2918 4.73324 17.8215 4.88054L18.0366 4.94018V8.61914L17.7121 8.5848C17.464 8.5586 17.0116 8.54414 16.4375 8.54414C15.5711 8.54414 15.0079 8.70138 14.6644 9.03891C14.3223 9.37509 14.1627 9.92725 14.1627 10.7763V11.7035H17.9124L17.1702 15.743H14.1623H14.1627Z" fill="#FA881F"/>
<path d="M13.2813 23.8729V14.8612H16.4361L16.8541 12.5839H13.2813V10.7756C13.2813 9.67442 13.5244 8.92254 14.0465 8.40969C14.5653 7.90001 15.3251 7.66234 16.4374 7.66234C16.6372 7.66234 16.8998 7.66414 17.1552 7.67092V5.63895C16.5857 5.54316 15.7893 5.46906 15.2862 5.46906C11.8313 5.46906 10.3574 6.97643 10.3574 10.5085V12.5834H8.02748V14.8608H10.3574V23.7107L9.62839 23.5299C7.09776 22.9023 4.8076 21.4257 3.17912 19.372C1.50002 17.2551 0.612793 14.7044 0.612793 11.9969C0.612793 8.82269 1.8494 5.83822 4.09437 3.59388C6.3398 1.34954 9.32466 0.113281 12.4998 0.113281C15.6749 0.113281 18.6598 1.34954 20.9052 3.59388C23.1502 5.83822 24.3868 8.82269 24.3868 11.9969C24.3868 18.0029 19.8951 23.0745 13.9393 23.7938L13.2813 23.8734V23.8729ZM23.7992 12.0087C23.7965 14.7067 22.8248 17.3197 21.0625 19.3671C19.3012 21.4135 16.8664 22.7618 14.2065 23.1644L14.1893 23.1671C19.6867 22.3443 23.7934 17.6048 23.7992 12.0091V12.0087ZM3.71562 19.1023C5.13844 20.8573 7.07336 22.1572 9.22161 22.8092C7.07743 22.1581 5.13211 20.8487 3.71562 19.1023ZM14.4564 16.0365V22.5273C16.8456 22.0867 19.0227 20.8374 20.6173 18.9843C22.2905 17.0405 23.2117 14.5589 23.2117 11.9974C23.2117 9.13672 22.0975 6.44776 20.074 4.42528C18.051 2.4028 15.3608 1.28854 12.4998 1.28854C9.63878 1.28854 6.94861 2.40235 4.92556 4.42528C2.90251 6.44776 1.78793 9.13717 1.78793 11.9974C1.78793 14.4374 2.58748 16.7355 4.10025 18.6432C5.4033 20.2866 7.19675 21.5323 9.18274 22.1816V16.0369H6.85279V11.41H9.18274V10.5099C9.18274 8.40744 9.67675 6.88109 10.6928 5.84364C11.7129 4.80213 13.2157 4.2956 15.2867 4.2956C16.0709 4.2956 17.3414 4.44245 17.9005 4.59789L18.3308 4.71718V8.94559L17.6817 8.87736C17.4435 8.85251 17.0019 8.8385 16.4379 8.8385C15.6537 8.8385 15.1556 8.96908 14.8704 9.24878C14.5879 9.52622 14.4564 10.012 14.4564 10.7769V11.4104H18.2648L17.4151 16.0374H14.4564V16.0365ZM13.8688 10.7566C13.8688 10.7629 13.8688 10.7693 13.8688 10.776C13.8688 10.7697 13.8688 10.7629 13.8688 10.7566ZM13.8702 10.6301C13.8702 10.6301 13.8702 10.6342 13.8702 10.6364C13.8702 10.6342 13.8702 10.6323 13.8702 10.6301ZM13.8711 10.6012C13.8711 10.6012 13.8711 10.6039 13.8711 10.6052C13.8711 10.6039 13.8711 10.6025 13.8711 10.6012ZM13.8716 10.5754C13.8716 10.5754 13.8716 10.579 13.8716 10.5813C13.8716 10.5795 13.8716 10.5777 13.8716 10.5754ZM13.8738 10.5198C13.8738 10.523 13.8738 10.5262 13.8738 10.5289C13.8738 10.5257 13.8738 10.5225 13.8738 10.5198ZM13.8756 10.4742C13.8752 10.4864 13.8743 10.499 13.8738 10.5117C13.8743 10.499 13.8747 10.4868 13.8756 10.4742ZM13.8765 10.4588C13.8765 10.4629 13.8765 10.467 13.8761 10.471C13.8761 10.467 13.8761 10.4629 13.8765 10.4588ZM13.8774 10.4426C13.8774 10.4426 13.8774 10.4435 13.8774 10.4439C13.8774 10.4439 13.8774 10.443 13.8774 10.4426ZM13.8792 10.4096C13.8792 10.4123 13.8792 10.4155 13.8788 10.4182C13.8788 10.4155 13.8788 10.4123 13.8792 10.4096ZM13.8797 10.4051C13.8797 10.4051 13.8797 10.406 13.8797 10.4064C13.8797 10.4064 13.8797 10.4055 13.8797 10.4051ZM13.8801 10.4005C13.8801 10.4005 13.8801 10.4005 13.8801 10.401C13.8801 10.401 13.8801 10.401 13.8801 10.4005ZM16.6874 8.2511C17.1534 8.25471 17.5226 8.26917 17.7427 8.29221V8.28544L17.434 8.27007C17.1986 8.25833 16.9247 8.25336 16.6869 8.25155L16.6874 8.2511ZM15.2903 4.88256C15.3554 4.88256 15.4254 4.88391 15.4991 4.88617C15.4259 4.88391 15.3558 4.88256 15.2903 4.88256ZM12.2792 0.702945C9.345 0.758975 6.59471 1.92655 4.51336 4.00642C6.59471 1.92655 9.345 0.758523 12.2792 0.702945Z" fill="#FA881F"/>
<path d="M13.4624 23.669V15.0423H16.5869L17.0715 12.4035H13.462V10.776C13.462 9.72631 13.688 9.01555 14.1729 8.53885C14.6556 8.06441 15.3752 7.84345 16.4373 7.84345C16.685 7.84345 17.0294 7.84616 17.3359 7.85836V5.48841C16.7546 5.37861 15.843 5.28914 15.2861 5.28914C13.4954 5.28914 12.2245 5.69807 11.4014 6.53851C10.5774 7.37985 10.177 8.67892 10.177 10.5094V12.4035H7.84705V15.0423H10.177V23.4806L9.67214 23.3555C7.18039 22.7373 4.92457 21.2833 3.32095 19.2603C1.66807 17.1751 0.793945 14.6632 0.793945 11.9969C0.793945 8.87096 2.01157 5.93213 4.22265 3.72168C6.43372 1.51123 9.37338 0.293945 12.5002 0.293945C15.6269 0.293945 18.5666 1.51123 20.7777 3.72168C22.9887 5.93213 24.2064 8.87096 24.2064 11.9969C24.2064 17.9116 19.7833 22.9059 13.918 23.6139L13.4624 23.669ZM13.6884 15.2682V23.4142L13.8909 23.3898C19.6428 22.6953 23.9804 17.7972 23.9804 11.9969C23.9804 8.93105 22.7863 6.04916 20.6181 3.88118C18.45 1.71366 15.5668 0.51987 12.5002 0.51987C9.43349 0.51987 6.55078 1.71366 4.38219 3.88118C2.21406 6.04916 1.01993 8.93105 1.01993 11.9969C1.01993 14.6117 1.87688 17.0747 3.49813 19.1198C5.07101 21.1034 7.28298 22.5299 9.72683 23.1359L9.95101 23.1914V15.2682H7.62106V12.1776H9.95101V10.5094C9.95101 8.61702 10.3727 7.26644 11.24 6.38036C12.1083 5.49383 13.4317 5.06277 15.2866 5.06277C15.8859 5.06277 16.8866 5.16443 17.4719 5.28417L17.5623 5.3027V8.09468L17.4439 8.0888C17.1158 8.07254 16.7158 8.06892 16.4378 8.06892C15.4389 8.06892 14.77 8.26955 14.332 8.69971C13.8927 9.13122 13.6884 9.79092 13.6884 10.7755V12.1771H17.3431L16.7754 15.2678H13.6884V15.2682ZM14.05 23.0053V15.6293H17.0764L17.777 11.8157H14.05V10.7755C14.05 9.89394 14.2199 9.31648 14.5856 8.95726C14.9517 8.59759 15.5402 8.4304 16.4382 8.4304C17.0159 8.4304 17.4728 8.44486 17.7246 8.47152L17.9243 8.49276V5.02526L17.7919 4.98866C17.2699 4.84362 16.0292 4.70129 15.2871 4.70129C13.3313 4.70129 11.9234 5.1676 10.9838 6.12733C10.0459 7.0848 9.58988 8.51806 9.58988 10.5089V11.8157H7.25993V15.6293H9.58988V22.7274L9.4457 22.6863C7.2301 22.0532 5.21835 20.7067 3.78197 18.8948C2.2118 16.9143 1.38197 14.529 1.38197 11.9964C1.38197 9.0273 2.53858 6.23622 4.63846 4.13648C6.73835 2.03673 9.53022 0.88135 12.5002 0.88135C15.4701 0.88135 18.262 2.03763 20.3623 4.13693C22.4622 6.23622 23.6188 9.02775 23.6188 11.9969C23.6188 14.656 22.6624 17.2315 20.9259 19.249C19.193 21.2625 16.7971 22.5896 14.1797 22.9858L14.05 23.0057V23.0053ZM14.276 15.8556V22.7418C16.789 22.3302 19.0859 21.0411 20.7546 19.1017C22.4559 17.1249 23.3928 14.6018 23.3928 11.9969C23.3928 9.0883 22.2597 6.3537 20.2023 4.29688C18.1449 2.24006 15.4095 1.10727 12.5002 1.10727C9.59078 1.10727 6.85541 2.24006 4.79801 4.29688C2.74061 6.3537 1.6075 9.0883 1.6075 11.9969C1.6075 14.478 2.42061 16.8149 3.95869 18.7547C5.33496 20.4907 7.24999 21.7902 9.36344 22.4269V15.8552H7.03349V11.5897H9.36344V10.5089C9.36344 8.45616 9.84027 6.97093 10.822 5.96918C11.8064 4.96381 13.2667 4.47536 15.2866 4.47536C16.0441 4.47536 17.3151 4.62176 17.852 4.77087L18.1499 4.85356V8.74354L17.7006 8.69609C17.4561 8.67034 17.0077 8.65633 16.4378 8.65633C15.603 8.65633 15.0647 8.80318 14.7438 9.11857C14.4247 9.43215 14.276 9.95856 14.276 10.7755V11.5897H18.0482L17.2649 15.8552H14.276V15.8556Z" fill="#FA881F"/>
<path d="M13.1685 24V14.7479H16.3423L16.7192 12.6965H13.1689V10.7753C13.1689 9.64202 13.4229 8.86439 13.968 8.32895C14.5095 7.79712 15.2941 7.54905 16.4381 7.54905C16.6031 7.54905 16.8209 7.55041 17.0428 7.55493V5.73488C16.4855 5.64767 15.7497 5.5817 15.2869 5.5817C13.5793 5.5817 12.3771 5.96171 11.6119 6.74295C10.8444 7.52691 10.4711 8.75866 10.4711 10.5082V12.6961H8.14113V14.7475H10.4711V23.855L9.60192 23.6394C7.04734 23.0059 4.73503 21.5153 3.09119 19.4417C1.39582 17.3045 0.5 14.7298 0.5 11.9966C0.5 8.79209 1.74836 5.77961 4.01458 3.51358C6.28124 1.24801 9.29458 0 12.5 0C15.7054 0 18.7188 1.24801 20.9854 3.51358C23.2521 5.77961 24.5 8.79209 24.5 11.9966C24.5 18.0595 19.9658 23.1794 13.9531 23.9056L13.1685 24.0005V24ZM14.5696 16.1491V22.3901C16.8801 21.9328 18.9863 20.7056 20.5321 18.9099C22.1877 16.9864 23.0993 14.5315 23.0993 11.9966C23.0993 9.16622 21.9969 6.50528 19.9951 4.50404C17.9933 2.5028 15.3316 1.40073 12.5005 1.40073C9.66927 1.40073 7.00802 2.5028 5.00576 4.50404C3.00395 6.50528 1.90158 9.16622 1.90158 11.9966C1.90158 14.4108 2.69254 16.6846 4.18949 18.5724C5.44328 20.1539 7.16531 21.3684 9.0704 22.0241V16.1491H6.74045V11.2962H9.0704V10.5091C9.0704 8.37549 9.5748 6.82338 10.6125 5.76379C11.6553 4.69924 13.1843 4.18187 15.2873 4.18187C16.0797 4.18187 17.3646 4.33053 17.9314 4.48822L18.4444 4.63056V9.06998L17.6706 8.98865C17.436 8.96379 16.9985 8.95024 16.4385 8.95024C15.6959 8.95024 15.2092 9.07405 14.9506 9.32844C14.6948 9.57967 14.5705 10.0532 14.5705 10.7757V11.2962H18.4019L17.5106 16.1491H14.571H14.5696Z" fill="#FA881F"/>
<path d="M12.5002 23.5859C11.5551 23.5859 10.6127 23.4711 9.69974 23.2448L9.47692 23.1896V15.7418H7.14697V11.7023H9.47692V10.5085C9.47692 8.48645 9.94336 7.02743 10.9029 6.04782C11.8652 5.0655 13.2993 4.58789 15.2871 4.58789C16.0369 4.58789 17.2925 4.73203 17.8222 4.87933L18.0374 4.93898V8.61794L17.7128 8.5836C17.4647 8.55739 17.0123 8.54293 16.4383 8.54293C15.5718 8.54293 15.0087 8.70017 14.6652 9.03771C14.323 9.37388 14.1635 9.92604 14.1635 10.7751V11.7023H17.9131L17.1709 15.7418H14.163V23.4698L13.9045 23.501C13.438 23.5574 12.9657 23.5859 12.5002 23.5859ZM10.0645 22.7274C11.2071 22.9854 12.3913 23.0613 13.5754 22.9461V15.1544H16.6814L17.2075 12.2897H13.5754V10.7751C13.5754 9.75796 13.7906 9.0725 14.253 8.61839C14.7135 8.16609 15.4078 7.95553 16.4378 7.95553C16.7434 7.95553 17.1293 7.95959 17.4493 7.97541V5.39444C16.8871 5.27922 15.895 5.1753 15.2866 5.1753C11.6749 5.1753 10.064 6.82003 10.064 10.5085V12.2897H7.73409V15.1544H10.064V22.7274H10.0645Z" fill="#FA881F"/>
<path d="M12.5 23.8798C11.531 23.8798 10.5651 23.7619 9.62858 23.5296L9.18248 23.4189V16.0353H6.85254V11.4083H9.18248V10.5082C9.18248 8.40578 9.67649 6.87943 10.6925 5.84198C11.7127 4.80047 13.2155 4.29395 15.2864 4.29395C16.0706 4.29395 17.3411 4.4408 17.9002 4.59623L18.3305 4.71552V8.94393L17.6815 8.8757C17.4433 8.85085 17.0017 8.83684 16.4376 8.83684C15.6534 8.83684 15.1554 8.96743 14.8702 9.24712C14.5877 9.52456 14.4562 10.0103 14.4562 10.7753V11.4088H18.2645L17.4148 16.0357H14.4562V23.7307L13.9391 23.7931C13.4609 23.8509 12.9768 23.8798 12.4995 23.8798H12.5ZM13.0785 23.2775C12.9068 23.2861 12.7346 23.2911 12.5628 23.2924C12.7341 23.2915 12.9063 23.2865 13.0785 23.2775ZM13.4419 23.2531C13.4419 23.2531 13.4415 23.2531 13.441 23.2531C13.441 23.2531 13.4415 23.2531 13.4419 23.2531ZM13.6218 23.2368L13.6037 23.2386C13.5508 23.2436 13.498 23.2486 13.4446 23.2531C13.5038 23.2481 13.5626 23.2427 13.6218 23.2368ZM9.97842 23.0091C10.0525 23.0258 10.1267 23.0421 10.2012 23.0575C10.1339 23.0434 10.0666 23.029 9.99966 23.0136L9.97887 23.0091H9.97842ZM10.3581 22.4904C11.3185 22.6856 12.2998 22.7479 13.2815 22.6765V14.8609H16.4363L16.8543 12.5836H13.2815V10.7753C13.2815 9.67412 13.5246 8.92224 14.0467 8.40939C14.5655 7.89971 15.3253 7.66203 16.4376 7.66203C16.6374 7.66203 16.9 7.66384 17.1554 7.67062V5.63865C16.5859 5.54286 15.7895 5.46875 15.2864 5.46875C11.8315 5.46875 10.3576 6.97613 10.3576 10.5082V12.5831H8.02768V14.8605H10.3576V22.4899L10.3581 22.4904ZM16.4376 8.24944C15.5997 8.24944 15.0107 8.39313 14.608 8.69903C15.0121 8.39222 15.601 8.24944 16.4444 8.24944H16.4376ZM16.6876 8.25034C17.1536 8.25396 17.5228 8.26842 17.7429 8.29146V5.1624V8.28468L17.4342 8.26932C17.1988 8.25757 16.9249 8.2526 16.6871 8.25079L16.6876 8.25034ZM15.2901 4.8818C15.3551 4.8818 15.4252 4.88316 15.4989 4.88542C15.4256 4.88316 15.3556 4.8818 15.2901 4.8818Z" fill="#FA881F"/>
<path d="M12.5004 23.699C11.5463 23.699 10.5949 23.5829 9.67282 23.3542L9.36412 23.2774V15.8544H7.03418V11.589H9.36412V10.5082C9.36412 8.45541 9.84096 6.97018 10.8227 5.96842C11.8071 4.96306 13.2674 4.47461 15.2873 4.47461C16.0448 4.47461 17.3158 4.62101 17.8527 4.77012L18.1506 4.85281V8.74278L17.7013 8.69534C17.4568 8.66958 17.0084 8.65557 16.4385 8.65557C15.6037 8.65557 15.0654 8.80243 14.7445 9.11782C14.4254 9.4314 14.2767 9.95781 14.2767 10.7747V11.589H18.0489L17.2656 15.8544H14.2767V23.5698L13.9187 23.6132C13.4477 23.6701 12.9709 23.699 12.5008 23.699H12.5004ZM9.59011 23.1012L9.72751 23.1351C10.6315 23.3592 11.5648 23.4731 12.5008 23.4731C12.9619 23.4731 13.4297 23.4446 13.8916 23.389L14.0507 23.3701V15.629H17.0771L17.7777 11.8154H14.0507V10.7752C14.0507 9.89364 14.2206 9.31618 14.5863 8.95696C14.9524 8.59729 15.5408 8.4301 16.4389 8.4301C17.0166 8.4301 17.4735 8.44456 17.7253 8.47122L17.925 8.49246V5.02496L17.7926 4.98836C17.2706 4.84332 16.0299 4.70099 15.2877 4.70099C13.332 4.70099 11.9241 5.16729 10.9845 6.12702C10.0466 7.08449 9.59056 8.51776 9.59056 10.5086V11.8154H7.26062V15.629H9.59056V23.1012H9.59011ZM12.4963 23.1116C11.6697 23.1116 10.8471 23.0199 10.0398 22.8378L9.95169 22.8179V15.2675H7.62175V12.1768H9.95169V10.5086C9.95169 8.61626 10.3734 7.26568 11.2407 6.37961C12.109 5.49308 13.4324 5.06201 15.2873 5.06201C15.8866 5.06201 16.8873 5.16368 17.4726 5.28342L17.563 5.30195V8.09393L17.4446 8.08805C17.1164 8.07178 16.7164 8.06817 16.4385 8.06817C15.4396 8.06817 14.7707 8.26879 14.3327 8.69895C13.8934 9.13047 13.6891 9.79017 13.6891 10.7747V12.1764H17.3438L16.7761 15.267H13.6891V23.0483L13.5869 23.0583C13.2236 23.0935 12.8597 23.1111 12.4968 23.1111L12.4963 23.1116ZM10.1777 22.6367C11.2552 22.8708 12.3594 22.9404 13.4627 22.8432V15.0416H16.5872L17.0717 12.4028H13.4622V10.7752C13.4622 9.72555 13.6882 9.0148 14.1732 8.53809C14.6559 8.06365 15.3754 7.8427 16.4376 7.8427C16.6853 7.8427 17.0297 7.84541 17.3361 7.85761V5.48766C16.7549 5.37786 15.8432 5.28839 15.2864 5.28839C13.4956 5.28839 12.2247 5.69731 11.4016 6.53776C10.5777 7.3791 10.1772 8.67817 10.1772 10.5086V12.4028H7.84729V15.0416H10.1772V22.6367H10.1777Z" fill="#FA881F"/>
<path d="M12.5002 23.993C11.5221 23.993 10.5468 23.8742 9.60167 23.6396L9.06969 23.5077V16.1489H6.73975V11.296H9.06969V10.5089C9.06969 8.37526 9.5741 6.82315 10.6118 5.76357C11.6545 4.69901 13.1836 4.18164 15.2866 4.18164C16.079 4.18164 17.3639 4.3303 17.9307 4.48799L18.4437 4.63033V9.06975L17.6699 8.98842C17.4353 8.96357 16.9978 8.95001 16.4378 8.95001C15.6952 8.95001 15.2084 9.07382 14.9499 9.32821C14.6941 9.57944 14.5698 10.053 14.5698 10.7755V11.296H18.4012L17.5099 16.1489H14.5703V23.8308L13.9538 23.9053C13.4715 23.9636 12.9825 23.993 12.5007 23.993H12.5002ZM10.4713 22.3975C11.3585 22.5697 12.2634 22.628 13.1687 22.571V14.7477H16.3425L16.7194 12.6963H13.1691V10.775C13.1691 9.64179 13.4231 8.86416 13.9682 8.32872C14.5097 7.79689 15.2943 7.54883 16.4383 7.54883C16.6032 7.54883 16.8211 7.55018 17.043 7.5547V5.73465C16.4857 5.64744 15.7499 5.58147 15.2871 5.58147C13.5795 5.58147 12.3773 5.96148 11.6121 6.74272C10.8446 7.52668 10.4713 8.75843 10.4713 10.508V12.6958H8.14133V14.7472H10.4713V22.3971V22.3975Z" fill="#FA881F"/>
</g>
<defs>
<clipPath id="clip0_158_1745">
<rect width="24" height="24" fill="white" transform="translate(0.5)"/>
</clipPath>
</defs>
</svg>
