<?xml version="1.0" encoding="UTF-8" standalone="no"?>
<svg
   xmlns:dc="http://purl.org/dc/elements/1.1/"
   xmlns:cc="http://creativecommons.org/ns#"
   xmlns:rdf="http://www.w3.org/1999/02/22-rdf-syntax-ns#"
   xmlns:svg="http://www.w3.org/2000/svg"
   xmlns="http://www.w3.org/2000/svg"
   xmlns:xlink="http://www.w3.org/1999/xlink"
   xmlns:sodipodi="http://sodipodi.sourceforge.net/DTD/sodipodi-0.dtd"
   xmlns:inkscape="http://www.inkscape.org/namespaces/inkscape"
   id="svg6965"
   version="1.1"
   viewBox="0 0 1245.1628 248.44839"
   height="248.44839mm"
   width="1245.1628mm"
   sodipodi:docname="15x3.svg"
   inkscape:version="0.92.1 r15371">
  <sodipodi:namedview
     pagecolor="#ffffff"
     bordercolor="#666666"
     borderopacity="1"
     objecttolerance="10"
     gridtolerance="10"
     guidetolerance="10"
     inkscape:pageopacity="0"
     inkscape:pageshadow="2"
     inkscape:window-width="1920"
     inkscape:window-height="1001"
     id="namedview5928"
     showgrid="false"
     inkscape:zoom="0.2217725"
     inkscape:cx="2068.2808"
     inkscape:cy="188.20273"
     inkscape:window-x="-9"
     inkscape:window-y="-9"
     inkscape:window-maximized="1"
     inkscape:current-layer="g6751" />
  <defs
     id="defs6959">
    <linearGradient
       gradientTransform="translate(-5201.1817,-41.470017)"
       gradientUnits="userSpaceOnUse"
       y2="-1326.8623"
       x2="-3945.5557"
       y1="-2087.531"
       x1="-3945.5557"
       id="linearGradient6063"
       xlink:href="#linearGradient6061" />
    <linearGradient
       id="linearGradient6061">
      <stop
         id="stop6057"
         offset="0"
         style="stop-color:#2a2c5b;stop-opacity:1" />
      <stop
         id="stop6059"
         offset="1"
         style="stop-color:#441299;stop-opacity:1" />
    </linearGradient>
    <linearGradient
       y2="205.26659"
       x2="-211.2188"
       y1="205.26659"
       x1="-329.11542"
       gradientTransform="matrix(9.2082285,0,0,9.2082285,-459.34857,-3635.1019)"
       gradientUnits="userSpaceOnUse"
       id="linearGradient10371"
       xlink:href="#linearGradient7354" />
    <linearGradient
       id="linearGradient7354">
      <stop
         id="stop7350"
         offset="0"
         style="stop-color:#ff0863;stop-opacity:1" />
      <stop
         id="stop7352"
         offset="1"
         style="stop-color:#ff962e;stop-opacity:1" />
    </linearGradient>
    <clipPath
       id="clipPath7851-7-9"
       clipPathUnits="userSpaceOnUse">
      <path
         id="path7853-2-4"
         d="M 0,792 H 612 V 0 H 0 Z" />
    </clipPath>
    <clipPath
       id="clipPath7851-7-9-1"
       clipPathUnits="userSpaceOnUse">
      <path
         inkscape:connector-curvature="0"
         id="path7853-2-4-2"
         d="M 0,792 H 612 V 0 H 0 Z" />
    </clipPath>
    <linearGradient
       inkscape:collect="always"
       xlink:href="#linearGradient7354"
       id="linearGradient6639"
       gradientUnits="userSpaceOnUse"
       gradientTransform="matrix(9.2082285,0,0,9.2082285,-459.34857,-3635.1019)"
       x1="-329.11542"
       y1="205.26659"
       x2="-211.2188"
       y2="205.26659" />
    <linearGradient
       inkscape:collect="always"
       xlink:href="#linearGradient7354"
       id="linearGradient6641"
       gradientUnits="userSpaceOnUse"
       gradientTransform="matrix(9.2082285,0,0,9.2082285,-459.34857,-3635.1019)"
       x1="-329.11542"
       y1="205.26659"
       x2="-211.2188"
       y2="205.26659" />
  </defs>
  <metadata
     id="metadata6962">
    <rdf:RDF>
      <cc:Work
         rdf:about="">
        <dc:format>image/svg+xml</dc:format>
        <dc:type
           rdf:resource="http://purl.org/dc/dcmitype/StillImage" />
        <dc:title />
      </cc:Work>
    </rdf:RDF>
  </metadata>
  <g
     transform="translate(590.83137,-7.2222318)"
     id="layer1">
    <g
       transform="matrix(0.32814866,0,0,0.32814866,2638.6802,708.2391)"
       id="g6751">
      <rect
         y="-2136.2783"
         x="-9841.6113"
         height="757.12146"
         width="3794.5083"
         id="rect6055"
         style="opacity:1;fill:url(#linearGradient6063);fill-opacity:1;stroke:none;stroke-width:2.22522092;stroke-linecap:round;stroke-linejoin:miter;stroke-miterlimit:4;stroke-dasharray:none;stroke-opacity:1" />
    </g>
  </g>
  <g
     id="g6301"
     transform="matrix(0.48771556,0,0,0.48771556,1903.7384,946.36151)">
    <path
       id="path6291"
       d="m -2532.9154,-1833.3292 c -0.364,0 -0.7353,0.097 -1.0921,0.2766 -1.1889,0.7137 -1.8992,2.1434 -1.1859,3.5698 l 30.912,67.7659 -46.8466,101.2905 c -0.4753,0.7137 -0.2345,1.9053 0.2405,2.6186 0.4749,0.7136 1.1859,1.1862 2.137,1.1862 h 15.9346 c 0.9511,0 1.9022,-0.7108 2.3778,-1.6617 l 77.2771,-167.8703 h 9.7464 l -76.0853,165.7272 c -0.4751,0.9512 -0.4751,1.9053 0,2.6186 0.4748,0.7136 1.4266,1.1862 2.3779,1.1862 h 15.6936 c 0.9513,0 1.9023,-0.7108 2.3778,-1.6617 l 77.5122,-167.8703 h 9.7521 l -39.4721,85.5968 v 0.2404 0.2345 0.2405 0.2345 h -0.2405 v 0.2345 0.2404 h 0.2405 v 0.2344 0.2405 0.2345 0.2406 l 36.6189,79.655 c 0.4752,0.951 1.4266,1.4266 2.3778,1.427 0.4752,0 0.7108,0 1.1859,-0.2406 1.4266,-0.4752 1.9052,-2.1373 1.1919,-3.564 l -35.9086,-78.4692 40.6644,-88.45 c 0.2375,-0.951 0.2345,-1.9053 -0.2406,-2.6185 -0.4751,-0.7137 -1.4235,-1.1859 -2.1372,-1.1859 h -15.9342 c -0.9513,0 -1.9023,0.7106 -2.3782,1.6614 l -77.2772,167.8702 h -9.9867 l 76.3259,-165.7272 c 0.4751,-0.951 0.4751,-1.9053 0,-2.6185 -0.7137,-0.7137 -1.4266,-1.1859 -2.3777,-1.1859 h -15.6937 c -1.189,0 -2.1403,0.7106 -2.3783,1.6614 l -77.5118,167.8702 h -9.7524 l 45.6547,-98.4371 v -0.2406 c 0.2375,0 0.2406,-0.2345 0.2406,-0.2345 v -0.2403 -0.2345 -0.2345 -0.2406 -0.2345 -0.2403 c 0,0 0,-0.2345 -0.2406,-0.2345 v -0.2405 l -31.6223,-68.7168 c -0.3562,-1.0701 -1.3852,-1.7364 -2.4776,-1.7026 z m -953.7122,0.036 c -1.4268,0 -2.6186,1.1917 -2.6186,2.6185 v 83.935 c 0,1.6646 1.1918,2.8536 2.6186,2.8536 h 14.0263 l -15.453,11.6486 c -0.7136,0.475 -1.1919,1.1915 -1.1919,2.1427 v 17.5963 0.2345 0.2345 c 0,0 0,0.2375 0.2407,0.4756 0,0.2375 0,0.4779 0.2349,0.7163 l 0.4756,0.4756 c 0.2373,0.2375 0.2381,0.2346 0.4754,0.2346 0.7137,0.4751 0.9512,0.4753 1.4268,0.4753 0.9512,-0.2373 1.4268,-0.4722 1.9022,-1.1858 1.4266,-0.7135 3.3291,-2.3781 6.6581,-4.7557 l 37.8048,-28.2993 h 14.5079 l -62.5404,47.0813 c -0.7136,0.4762 -1.186,1.192 -1.186,2.1431 v 17.596 c 0,1.1889 0.475,1.9026 1.4266,2.3778 0.9512,0.4754 2.1401,0.472 2.8534,-0.2404 l 92.0201,-68.9578 h 14.5019 l -109.616,82.5086 c -1.1888,0.7137 -1.4235,2.3805 -0.7104,3.5697 0.7135,0.7135 1.4238,1.1859 2.1371,1.1859 0.7136,0 1.1917,-0.2375 1.6673,-0.4756 l 116.2742,-87.499 c 0.951,-0.4763 1.1889,-1.9023 0.951,-2.8533 -0.4743,-1.1871 -1.4266,-1.9001 -2.6127,-1.9026 v 0 h -23.5378 c -0.4759,0 -1.1859,0.2375 -1.6614,0.4757 l -88.2154,66.339 v -10.9381 l 68.0007,-51.1207 c 0.9512,-0.4763 1.1889,-1.9023 0.9512,-2.8533 -0.4753,-1.1889 -1.424,-1.9026 -2.6129,-1.9026 h -23.5435 c -0.7137,0 -1.186,0.2375 -1.6616,0.4757 0,0 -29.7207,22.5926 -41.1339,31.1526 v -10.9378 l 20.9251,-15.9346 c 0.9512,-0.4763 1.1889,-1.9023 0.9512,-2.8533 -0.4752,-1.1889 -1.4299,-1.9026 -2.6186,-1.9026 h -19.2577 v -81.3165 c 0,-1.4266 -1.189,-2.6185 -2.8534,-2.6185 z m 262.0392,0 c -0.9512,0 -1.9022,0.7135 -2.3778,1.4266 l -19.7332,40.4232 c -0.7137,1.1889 -0.2409,2.616 0.7103,3.3292 l 61.8242,46.6059 8.5602,17.3552 -73.4727,-55.401 c -0.7135,-0.4748 -1.4297,-0.4756 -2.143,-0.4756 -0.951,0.2375 -1.6645,0.7137 -1.9022,1.4268 l -6.4173,13.0752 c -0.4752,1.1889 -0.2375,2.6159 0.9512,3.3292 l 102.0069,76.5669 8.3196,17.3552 -113.4207,-85.362 c -0.7137,-0.4749 -1.4209,-0.7139 -2.3721,-0.4755 -0.7135,0.2376 -1.4294,0.7135 -1.6673,1.4266 l -45.1791,92.2606 c -0.7137,1.1889 0,2.8508 1.1918,3.5641 0.4752,0.2375 0.9482,0.2406 1.186,0.2406 1.1889,0 2.1429,-0.4763 2.6186,-1.427 l 43.5117,-89.1667 120.0786,90.118 c 0.951,0.7133 2.3778,0.7103 3.329,-0.2405 0.951,-0.7137 1.1855,-2.1372 0.7103,-3.0885 l -13.7915,-28.0585 c -0.2375,-0.4751 -0.472,-0.7137 -0.7104,-0.9513 l -100.8209,-75.8505 3.8046,-7.8496 79.8958,59.9218 c 1.1889,0.7137 2.3777,0.7137 3.3289,0 0.9511,-0.7137 1.4235,-2.1399 0.7105,-3.3289 l -13.5509,-28.0587 c -0.2373,-0.2376 -0.475,-0.7137 -0.951,-0.9512 l -60.6323,-45.4141 16.4042,-33.5247 28.0585,57.538 c 0.7137,1.1889 2.3809,1.9053 3.5699,1.192 1.4266,-0.7137 1.8993,-2.3809 1.186,-3.5698 l -30.4366,-62.5344 c -0.475,-0.7137 -1.4266,-1.4266 -2.3778,-1.4266 z m 198.3364,0 c -32.1002,0 -61.8218,17.5969 -77.2774,45.6547 -0.7136,1.1888 -0.4726,2.6185 0.7164,3.5697 l 132.9189,99.8638 c -2.14,2.1401 -4.5208,4.0423 -6.8986,5.7068 -14.7423,-11.1758 -128.1633,-96.2999 -128.6388,-96.7758 -0.7137,-0.4749 -1.6618,-0.4783 -2.6128,-0.2404 -0.7137,0.2375 -1.4298,0.7165 -1.6675,1.6674 -1.6643,4.9931 -3.0911,10.2218 -3.8045,15.4531 -0.2375,0.951 0.2374,1.9022 0.9511,2.3778 0.7137,0.4752 96.7763,72.7624 117.2252,87.9806 -3.3288,1.4266 -6.6552,2.6155 -10.2219,3.3288 l -100.1046,-75.1401 c -5.7066,-4.28 -5.7099,-4.2769 -7.3743,-3.5637 -0.951,0.4749 -1.4267,1.4267 -1.4267,2.3778 0.2376,7.1331 1.4268,14.0266 3.3291,20.6843 0,0.9509 0.4782,1.1891 4.5208,4.2802 l 71.5705,53.4986 c -23.0645,-2.3775 -44.4664,-14.7375 -58.4952,-33.7594 -0.7137,-1.1889 -2.6157,-1.6672 -3.8047,-0.7165 -1.1888,0.9512 -1.4269,2.6157 -0.4755,3.8046 16.6445,22.8266 43.2748,36.6191 71.5705,36.6191 1.1887,0 2.1429,-0.7139 2.6185,-1.9027 0.2375,-0.9509 0,-2.1399 -0.9512,-2.8532 -0.7137,-0.7137 -73.4729,-55.1632 -81.5573,-61.1078 -1.1889,-4.2801 -1.9023,-8.5605 -2.3779,-12.8406 20.4488,15.4559 99.864,75.1373 100.815,75.8507 0.7137,0.4751 1.4299,0.7142 2.143,0.4755 5.7068,-1.4264 11.4138,-3.3321 16.645,-5.9476 0.9511,-0.2375 1.4266,-1.1859 1.4266,-2.137 0.2376,-0.951 -0.2374,-1.9023 -0.9509,-2.3778 l -115.5637,-86.7886 c -1.6646,-1.4267 -3.0884,-2.3809 -4.0394,-3.0942 0.7135,-3.0912 1.4267,-6.1796 2.3778,-9.2708 0.7137,0.7137 1.4268,1.189 2.3779,1.9023 l 124.8342,93.9221 c 0.9512,0.7137 2.378,0.7137 3.3291,0 4.042,-2.8531 7.8471,-6.1853 11.4136,-9.752 0.4753,-0.4753 0.7105,-1.1859 0.7105,-2.137 0,-0.7137 -0.4753,-1.4268 -0.9512,-1.9023 l -133.8701,-100.3398 c 14.98,-25.4421 42.0858,-40.8988 71.5705,-40.8988 22.1133,0 43.0365,8.5608 58.7298,24.2539 0.9512,0.9512 2.6157,0.9512 3.8047,0 0.9511,-0.951 0.9511,-2.8534 0,-3.8044 -16.6444,-16.6444 -38.9947,-25.9213 -62.5345,-25.9213 z m 101.5605,0 c -1.4267,0 -2.6186,1.1917 -2.6186,2.6185 v 171.4343 c 0,1.4266 1.1919,2.6186 2.6186,2.6186 1.6645,0 2.8536,-1.192 2.8536,-2.6186 v -171.4343 c 0,-1.4268 -1.1891,-2.6185 -2.8536,-2.6185 z m 82.7434,0 c -0.951,0 -1.6616,0.4778 -2.137,1.1917 l -64.6777,85.5969 c -0.7136,0.951 -0.7136,2.1429 0,3.0941 l 64.6777,85.5967 c 0.475,0.7137 1.186,1.192 2.137,1.192 0.4752,0 0.9513,-0.2376 1.4268,-0.4757 1.1887,-0.951 1.4293,-2.6159 0.7162,-3.8048 l -63.2508,-84.1757 62.2997,-82.7434 h 10.9382 l -61.1138,81.3168 c -0.7137,0.951 -0.7137,2.1429 0,3.0941 l 64.4427,85.5967 c 0.4751,0.7137 1.1861,1.192 2.1371,1.192 h 17.5962 c 1.1888,0 2.1429,-0.4762 2.6185,-1.4271 0.4753,-0.951 0.2345,-2.1399 -0.2408,-2.8534 l -63.2507,-84.1767 62.2998,-82.7432 h 10.938 l -61.1078,81.3166 c -0.7137,0.9512 -0.7137,2.1432 0,3.0942 l 64.4369,85.5968 c 0.9509,1.1889 2.6157,1.4291 3.8043,0.7163 1.1892,-0.9511 1.4272,-2.6158 0.4757,-3.8047 l -63.2508,-84.176 63.2508,-83.9352 c 0.7137,-0.7136 0.7108,-1.9021 0.2348,-2.8534 -0.4752,-0.951 -1.4268,-1.4266 -2.378,-1.4266 h -17.8307 c -0.7137,0 -1.4239,0.4779 -2.1374,1.1919 l -64.4427,85.5967 c -0.7134,0.9512 -0.7134,2.1432 0,3.0942 l 61.3486,81.3165 h -10.938 l -62.5346,-82.9841 63.2509,-83.9352 c 0.7135,-0.7136 0.7108,-1.9021 0.2346,-2.8534 -0.475,-0.951 -1.4265,-1.4266 -2.3777,-1.4266 z m 94.1923,0 c -1.4267,0 -2.6127,1.1917 -2.6127,2.6185 0,1.6645 1.186,2.8533 2.6127,2.8533 h 66.8205 v 18.7819 c 0,0.9512 0.7139,1.9022 1.4268,2.3779 0.9512,0.4752 2.1401,0.2405 2.8534,-0.2345 l 27.8178,-20.925 h 14.7427 l -45.6546,34.2354 c -0.7137,0.7136 -1.1861,1.4266 -1.1861,2.3778 v 17.5959 c 0,1.1888 0.7139,2.1431 1.4268,2.6188 0.9512,0.4748 2.1401,0.2344 2.8534,-0.2406 l 75.375,-56.5869 h 14.7426 l -93.2117,69.903 c -0.7137,0.7135 -1.1861,1.4296 -1.1861,2.1429 v 96.535 c 0,1.4267 1.1862,2.6185 2.6128,2.6185 1.6646,0 2.8535,-1.1918 2.8535,-2.6185 v -95.1084 l 98.6779,-74.1888 c 0.951,-0.4754 1.1888,-1.9024 0.951,-2.8534 -0.4753,-1.1889 -1.424,-1.9022 -2.6125,-1.9022 h -23.7788 c -0.7135,0 -1.1917,0.2374 -1.6673,0.4755 l -71.5703,53.9742 v -11.1729 l 51.1208,-38.5212 c 0.9512,-0.4754 1.4267,-1.9024 0.9512,-2.8534 -0.4752,-1.1889 -1.424,-1.9022 -2.6127,-1.9022 h -23.7786 c -0.4752,0 -0.9511,0.2374 -1.4268,0.4755 l -24.2539,18.3123 v -16.1693 c 0,-1.4266 -1.1889,-2.6185 -2.8535,-2.6185 z m -601.6786,0.7163 c -1.4266,0 -2.8476,1.1859 -2.8476,2.6125 v 170.724 c 0,1.4266 1.421,2.6186 2.8476,2.6186 1.4268,0 2.6186,-1.192 2.6186,-2.6186 v -170.724 c 0,-1.4266 -1.1918,-2.6125 -2.6186,-2.6125 z"
       style="font-style:normal;font-variant:normal;font-weight:normal;font-stretch:normal;font-size:25.82233047px;line-height:1.25;font-family:Razor;-inkscape-font-specification:'Razor, Normal';font-variant-ligatures:normal;font-variant-caps:normal;font-variant-numeric:normal;font-feature-settings:normal;text-align:start;letter-spacing:0px;word-spacing:0px;writing-mode:lr-tb;text-anchor:start;fill:url(#linearGradient6639);fill-opacity:1;stroke:url(#linearGradient6641);stroke-width:5.88527727;stroke-miterlimit:4;stroke-dasharray:none"
       inkscape:connector-curvature="0" />
    <path
       style="font-style:normal;font-variant:normal;font-weight:normal;font-stretch:normal;font-size:9.51096344px;line-height:1.25;font-family:'SF Alien Encounters Solid';-inkscape-font-specification:'SF Alien Encounters Solid, Normal';font-variant-ligatures:normal;font-variant-caps:normal;font-variant-numeric:normal;font-feature-settings:normal;text-align:start;letter-spacing:0px;word-spacing:0px;writing-mode:lr-tb;text-anchor:start;fill:#bbb9ea;fill-opacity:1;stroke:none;stroke-width:1.79124188"
       d="m -3491.8623,-1592.9217 v 9.6743 h 28.4877 a 0.1779886,0.1779886 0 0 1 0.019,0 0.1779886,0.1779886 0 0 1 0.019,0 0.1779886,0.1779886 0 0 1 0.046,0.019 0.1779886,0.1779886 0 0 1 0.019,0 0.1779886,0.1779886 0 0 1 0.019,0.019 0.1779886,0.1779886 0 0 1 0.019,0.019 0.1779886,0.1779886 0 0 1 0.019,0.019 0.1779886,0.1779886 0 0 1 0.019,0.019 0.1779886,0.1779886 0 0 1 0.021,0.048 0.1779886,0.1779886 0 0 1 0.019,0.019 0.1779886,0.1779886 0 0 1 0,0.019 0.1779886,0.1779886 0 0 1 0,0.019 0.1779886,0.1779886 0 0 1 0,0.019 v 7.1723 a 0.1779886,0.1779886 0 0 1 0,0.019 0.1779886,0.1779886 0 0 1 0,0.019 0.1779886,0.1779886 0 0 1 -0.019,0.046 0.1779886,0.1779886 0 0 1 0,0.021 0.1779886,0.1779886 0 0 1 -0.021,0.019 0.1779886,0.1779886 0 0 1 -0.019,0.021 0.1779886,0.1779886 0 0 1 -0.019,0.019 0.1779886,0.1779886 0 0 1 -0.019,0.019 0.1779886,0.1779886 0 0 1 -0.046,0.019 0.1779886,0.1779886 0 0 1 -0.021,0.019 0.1779886,0.1779886 0 0 1 -0.019,0 0.1779886,0.1779886 0 0 1 -0.019,0 0.1779886,0.1779886 0 0 1 -0.019,0 h -21.4971 c -1.9682,0 -3.6029,0.6671 -4.9706,2.035 -1.3344,1.3343 -2.035,2.9856 -2.035,4.954 v 25.6153 h 39.0511 v -9.6744 h -28.486 a 0.1779886,0.1779886 0 0 1 -0.019,0 0.1779886,0.1779886 0 0 1 -0.019,0 0.1779886,0.1779886 0 0 1 -0.046,-0.019 0.1779886,0.1779886 0 0 1 -0.019,0 0.1779886,0.1779886 0 0 1 -0.019,-0.019 0.1779886,0.1779886 0 0 1 -0.019,-0.019 0.1779886,0.1779886 0 0 1 -0.021,-0.019 0.1779886,0.1779886 0 0 1 -0.019,-0.019 0.1779886,0.1779886 0 0 1 -0.019,-0.046 0.1779886,0.1779886 0 0 1 -0.019,-0.021 0.1779886,0.1779886 0 0 1 0,-0.019 0.1779886,0.1779886 0 0 1 0,-0.019 0.1779886,0.1779886 0 0 1 0,-0.019 v -12.877 a 0.1779886,0.1779886 0 0 1 0,-0.019 0.1779886,0.1779886 0 0 1 0,-0.019 0.1779886,0.1779886 0 0 1 0.019,-0.046 0.1779886,0.1779886 0 0 1 0,-0.021 0.1779886,0.1779886 0 0 1 0.019,-0.019 0.1779886,0.1779886 0 0 1 0.019,-0.019 0.1779886,0.1779886 0 0 1 0.021,-0.019 0.1779886,0.1779886 0 0 1 0.019,-0.019 0.1779886,0.1779886 0 0 1 0.048,-0.019 0.1779886,0.1779886 0 0 1 0.019,-0.019 0.1779886,0.1779886 0 0 1 0.019,0 0.1779886,0.1779886 0 0 1 0.019,0 0.1779886,0.1779886 0 0 1 0.019,0 h 21.4971 c 1.9682,0 3.603,-0.6672 4.9539,-2.035 1.3344,-1.3345 2.035,-2.9689 2.035,-4.9539 v -12.8935 c 0,-1.9683 -0.6672,-3.603 -2.035,-4.9709 -1.3344,-1.3343 -2.9857,-2.0181 -4.9539,-2.0181 z"
       id="path6293"
       inkscape:connector-curvature="0" />
    <path
       style="font-style:normal;font-variant:normal;font-weight:normal;font-stretch:normal;font-size:9.51096344px;line-height:1.25;font-family:'SF Alien Encounters Solid';-inkscape-font-specification:'SF Alien Encounters Solid, Normal';font-variant-ligatures:normal;font-variant-caps:normal;font-variant-numeric:normal;font-feature-settings:normal;text-align:start;letter-spacing:0px;word-spacing:0px;writing-mode:lr-tb;text-anchor:start;fill:#bbb9ea;fill-opacity:1;stroke:none;stroke-width:1.79124188"
       d="m -3130.6375,-1592.9217 c -1.9683,0 -3.6029,0.6671 -4.954,2.035 -1.3345,1.3344 -2.0349,2.9856 -2.0349,4.9538 v 35.827 c 0,1.9683 0.6672,3.6028 2.0349,4.9706 1.3343,1.3344 2.9857,2.035 4.954,2.035 h 25.0865 c 1.9683,0 3.6031,-0.6672 4.954,-2.035 1.3344,-1.3344 2.035,-3.0023 2.035,-4.9706 v -35.827 c 0,-1.9682 -0.6672,-3.603 -2.035,-4.9538 -1.3343,-1.3344 -2.969,-2.035 -4.954,-2.035 z m 3.5362,9.6743 h 0.046 17.9093 a 0.1779886,0.1779886 0 0 1 0.019,0 0.1779886,0.1779886 0 0 1 0.019,0 0.1779886,0.1779886 0 0 1 0.048,0.019 0.1779886,0.1779886 0 0 1 0.019,0 0.1779886,0.1779886 0 0 1 0.019,0.019 0.1779886,0.1779886 0 0 1 0.019,0.019 0.1779886,0.1779886 0 0 1 0.019,0.019 0.1779886,0.1779886 0 0 1 0.019,0.019 0.1779886,0.1779886 0 0 1 0.019,0.048 0.1779886,0.1779886 0 0 1 0.019,0.019 0.1779886,0.1779886 0 0 1 0,0.019 0.1779886,0.1779886 0 0 1 0,0.019 0.1779886,0.1779886 0 0 1 0,0.019 v 30.094 a 0.1779886,0.1779886 0 0 1 0,0.019 0.1779886,0.1779886 0 0 1 0,0.019 0.1779886,0.1779886 0 0 1 -0.019,0.048 0.1779886,0.1779886 0 0 1 0,0.019 0.1779886,0.1779886 0 0 1 -0.019,0.019 0.1779886,0.1779886 0 0 1 -0.019,0.019 0.1779886,0.1779886 0 0 1 -0.019,0.019 0.1779886,0.1779886 0 0 1 -0.019,0.019 0.1779886,0.1779886 0 0 1 -0.048,0.019 0.1779886,0.1779886 0 0 1 -0.019,0.019 0.1779886,0.1779886 0 0 1 -0.019,0 0.1779886,0.1779886 0 0 1 -0.019,0 0.1779886,0.1779886 0 0 1 -0.019,0 h -17.9093 a 0.1779886,0.1779886 0 0 1 -0.019,0 0.1779886,0.1779886 0 0 1 -0.019,0 0.1779886,0.1779886 0 0 1 -0.046,-0.019 0.1779886,0.1779886 0 0 1 -0.021,0 0.1779886,0.1779886 0 0 1 -0.019,-0.019 0.1779886,0.1779886 0 0 1 -0.019,-0.019 0.1779886,0.1779886 0 0 1 -0.021,-0.019 0.1779886,0.1779886 0 0 1 -0.019,-0.019 0.1779886,0.1779886 0 0 1 -0.019,-0.048 0.1779886,0.1779886 0 0 1 -0.019,-0.019 0.1779886,0.1779886 0 0 1 0,-0.019 0.1779886,0.1779886 0 0 1 0,-0.019 0.1779886,0.1779886 0 0 1 0,-0.019 v -30.094 a 0.1779886,0.1779886 0 0 1 0,-0.019 0.1779886,0.1779886 0 0 1 0,-0.019 0.1779886,0.1779886 0 0 1 0.019,-0.048 0.1779886,0.1779886 0 0 1 0,-0.019 0.1779886,0.1779886 0 0 1 0.019,-0.019 0.1779886,0.1779886 0 0 1 0.019,-0.019 0.1779886,0.1779886 0 0 1 0.021,-0.019 0.1779886,0.1779886 0 0 1 0.019,-0.019 0.1779886,0.1779886 0 0 1 0.048,-0.019 0.1779886,0.1779886 0 0 1 0.019,-0.019 z"
       id="path6295"
       inkscape:connector-curvature="0" />
    <path
       style="font-style:normal;font-variant:normal;font-weight:normal;font-stretch:normal;font-size:9.51096344px;line-height:1.25;font-family:'SF Alien Encounters Solid';-inkscape-font-specification:'SF Alien Encounters Solid, Normal';font-variant-ligatures:normal;font-variant-caps:normal;font-variant-numeric:normal;font-feature-settings:normal;text-align:start;letter-spacing:0px;word-spacing:0px;writing-mode:lr-tb;text-anchor:start;fill:#bbb9ea;fill-opacity:1;stroke:none;stroke-width:1.79124188"
       d="m -2783.3807,-1592.9217 v 9.6743 h 6.9889 a 0.1779886,0.1779886 0 0 1 0.021,0 0.1779886,0.1779886 0 0 1 0.019,0 0.1779886,0.1779886 0 0 1 0.048,0.019 0.1779886,0.1779886 0 0 1 0.019,0 0.1779886,0.1779886 0 0 1 0.021,0.019 0.1779886,0.1779886 0 0 1 0.019,0.019 0.1779886,0.1779886 0 0 1 0.019,0.019 0.1779886,0.1779886 0 0 1 0.019,0.019 0.1779886,0.1779886 0 0 1 0.019,0.048 0.1779886,0.1779886 0 0 1 0.021,0.019 0.1779886,0.1779886 0 0 1 0,0.019 0.1779886,0.1779886 0 0 1 0,0.019 0.1779886,0.1779886 0 0 1 0,0.019 v 39.9484 h 10.3751 v -49.8062 z"
       id="path6297"
       inkscape:connector-curvature="0" />
    <path
       style="font-style:normal;font-variant:normal;font-weight:normal;font-stretch:normal;font-size:9.51096344px;line-height:1.25;font-family:'SF Alien Encounters Solid';-inkscape-font-specification:'SF Alien Encounters Solid, Normal';font-variant-ligatures:normal;font-variant-caps:normal;font-variant-numeric:normal;font-feature-settings:normal;text-align:start;letter-spacing:0px;word-spacing:0px;writing-mode:lr-tb;text-anchor:start;fill:#bbb9ea;fill-opacity:1;stroke:none;stroke-width:1.79124188"
       d="m -2450.6086,-1592.9217 v 9.6743 h 28.4844 a 0.1779886,0.1779886 0 0 1 0.019,0 0.1779886,0.1779886 0 0 1 0.019,0 0.1779886,0.1779886 0 0 1 0.048,0.019 0.1779886,0.1779886 0 0 1 0.019,0 0.1779886,0.1779886 0 0 1 0.021,0.019 0.1779886,0.1779886 0 0 1 0.019,0.019 0.1779886,0.1779886 0 0 1 0.019,0.019 0.1779886,0.1779886 0 0 1 0.021,0.019 0.1779886,0.1779886 0 0 1 0.019,0.048 0.1779886,0.1779886 0 0 1 0.019,0.019 0.1779886,0.1779886 0 0 1 0,0.019 0.1779886,0.1779886 0 0 1 0,0.019 0.1779886,0.1779886 0 0 1 0,0.019 v 39.9484 h 10.3917 v -42.8158 c 0,-1.9682 -0.6672,-3.6028 -2.035,-4.9706 -1.3345,-1.3344 -2.969,-2.0351 -4.9539,-2.0351 z"
       id="path6299"
       inkscape:connector-curvature="0" />
  </g>
  <rect
     style="opacity:1;fill:#bbb9ea;fill-opacity:1;stroke:none;stroke-width:3.03522897;stroke-linecap:round;stroke-linejoin:round;stroke-miterlimit:4;stroke-dasharray:none;stroke-opacity:1"
     id="rect6303"
     width="2.1178677"
     height="186.51149"
     x="793.30243"
     y="28.730453"
     rx="0"
     ry="0" />
  <g
     id="g5641"
     transform="matrix(0.5087081,0,0,0.5087081,4798.8248,529.03779)">
    <g
       transform="matrix(0.59499111,0,0,0.59499111,-5358.1324,191.27011)"
       id="g6437">
      <g
         style="fill:#bbb9ea;fill-opacity:1"
         transform="matrix(2.2518733,0,0,2.2518733,-4530.8333,299.86595)"
         id="g6415">
        <g
           style="fill:#bbb9ea;fill-opacity:1"
           id="g6413">
          <g
             transform="matrix(2.4402871,0,0,-2.4402871,281.00937,-925.85584)"
             id="g6307"
             style="fill:#bbb9ea;fill-opacity:1">
            <path
               inkscape:connector-curvature="0"
               id="path6305"
               style="fill:#bbb9ea;fill-opacity:1;fill-rule:nonzero;stroke:none"
               d="M 0,0 -0.167,0.333 -0.292,0.708 -0.333,0.875 -0.354,1.063 V 1.271 L -0.292,1.834 -0.25,2 -0.083,2.375 0.062,2.584 0.208,2.813 0.333,2.959 0.479,3.105 0.625,3.23 0.771,3.334 0.938,3.438 1.271,3.626 1.438,3.709 1.625,3.792 1.875,3.876 2.209,3.959 2.48,4.022 2.688,4.063 2.834,4.084 3.042,4.105 3.334,4.126 H 3.792 L 3.98,4.105 4.147,4.084 H 4.334 L 4.543,4.063 5.063,3.98 6.001,3.876 H 6.335 L 6.564,3.897 6.751,3.917 7.022,3.959 7.272,4.022 7.46,4.084 7.606,4.147 7.772,4.251 7.939,4.376 8.064,4.501 8.21,4.626 8.335,4.751 8.46,4.897 8.606,5.022 8.752,5.126 8.939,5.189 H 9.21 L 9.544,5.147 9.877,5.022 10.085,4.855 10.169,4.688 10.106,4.438 9.731,3.313 9.669,3.146 9.606,2.959 9.564,2.771 9.523,2.605 9.481,2.417 9.419,2.23 9.356,1.959 9.252,1.646 9.148,1.375 9.085,1.188 9.002,0.813 8.939,0.563 8.856,0.313 8.793,0.104 8.731,-0.062 8.689,-0.25 8.627,-0.5 8.543,-0.875 8.481,-1.125 8.418,-1.313 8.356,-1.479 8.273,-1.855 8.231,-2.021 8.189,-2.209 v -0.146 l 0.063,-0.083 0.166,-0.021 h 0.209 l 0.187,0.021 0.521,0.083 0.271,0.021 0.25,-0.062 0.125,-0.25 L 9.939,-2.959 9.773,-3.209 9.523,-3.334 9.335,-3.376 9.189,-3.438 9.002,-3.48 8.814,-3.501 8.46,-3.522 8.252,-3.542 8.002,-3.605 7.793,-3.772 7.668,-4.001 7.626,-4.188 7.606,-4.376 7.543,-4.563 7.481,-4.73 7.418,-4.918 7.356,-5.084 7.314,-5.272 7.251,-5.459 7.21,-5.626 7.147,-5.814 7.064,-5.98 7.001,-6.168 6.96,-6.335 6.876,-6.522 6.793,-6.668 6.73,-6.835 6.647,-7.022 6.585,-7.189 6.501,-7.376 6.335,-7.71 6.23,-7.856 6.105,-8.022 5.793,-8.46 5.647,-8.585 5.376,-8.835 5.23,-8.96 5.084,-9.064 4.897,-9.148 4.688,-9.231 4.418,-9.335 4.126,-9.419 3.855,-9.481 3.626,-9.523 3.501,-9.544 3.292,-9.564 H 3.105 l -0.375,0.041 -0.209,0.042 -0.5,0.125 -0.187,0.062 -0.167,0.084 -0.188,0.083 -0.208,0.146 -0.187,0.167 -0.146,0.166 -0.167,0.188 -0.146,0.229 -0.25,0.5 -0.042,0.167 -0.083,0.375 v 0.459 l 0.042,0.333 0.062,0.271 0.084,0.187 0.062,0.167 0.063,0.188 0.125,0.229 0.145,0.229 0.125,0.146 0.126,0.125 0.145,0.167 0.23,0.229 0.166,0.125 0.167,0.021 L 1.98,-4.334 2.271,-4.543 2.417,-4.668 2.501,-4.813 2.521,-5.001 2.459,-5.168 2.375,-5.334 2.271,-5.459 2.188,-5.626 2.084,-5.814 2,-6.001 1.917,-6.376 1.896,-6.564 1.875,-6.772 1.917,-7.147 1.98,-7.335 2.063,-7.502 2.167,-7.668 2.271,-7.814 2.417,-7.96 2.584,-8.064 2.751,-8.147 2.938,-8.21 3.126,-8.252 h 0.208 l 0.271,0.021 0.312,0.084 0.23,0.125 0.166,0.125 0.188,0.187 0.167,0.188 0.125,0.166 0.104,0.146 0.166,0.334 0.126,0.333 0.062,0.188 0.104,0.25 0.146,0.437 0.063,0.25 0.145,0.438 0.125,0.333 0.084,0.375 0.062,0.271 0.042,0.271 -0.042,0.208 -0.146,0.084 -0.187,0.021 H 5.459 L 5.272,-3.396 H 5.084 l -0.187,0.02 H 4.709 l -0.187,0.021 -0.167,0.084 -0.104,0.145 -0.021,0.167 0.021,0.188 0.062,0.187 0.125,0.146 0.146,0.104 0.271,0.021 h 0.334 l 0.354,-0.021 0.354,-0.041 0.313,0.02 0.208,0.084 0.083,0.146 0.042,0.208 0.042,0.125 0.041,0.229 0.063,0.167 0.041,0.187 0.126,0.376 0.041,0.166 0.063,0.188 0.041,0.187 0.125,0.375 0.042,0.188 0.063,0.208 0.02,0.125 0.042,0.209 0.25,0.75 L 7.585,1.75 7.647,1.959 7.689,2.084 7.752,2.292 7.793,2.521 7.835,2.646 7.877,2.855 7.939,3.042 8.002,3.209 8.043,3.334 8.022,3.355 7.918,3.271 7.626,3.063 7.46,2.98 7.251,2.896 7.126,2.855 6.918,2.792 6.73,2.751 6.543,2.73 H 5.418 L 5.23,2.751 5.063,2.771 4.834,2.792 4.709,2.813 4.48,2.834 4.313,2.855 4.126,2.876 3.917,2.896 H 3.563 L 3.167,2.876 2.98,2.855 2.813,2.813 2.625,2.751 2.417,2.667 2.313,2.605 2.125,2.501 1.959,2.396 1.813,2.292 1.688,2.167 1.563,2 1.438,1.771 1.354,1.542 1.334,1.334 V 1.084 L 1.396,0.834 1.479,0.667 1.605,0.521 1.75,0.396 1.959,0.313 2.146,0.271 H 2.292 L 2.521,0.25 H 2.876 L 3.063,0.292 3.251,0.354 3.584,0.521 3.813,0.583 4.084,0.521 4.313,0.292 4.376,0.021 4.313,-0.187 4.188,-0.333 3.897,-0.583 3.751,-0.667 3.563,-0.75 3.397,-0.813 3.209,-0.875 3.021,-0.917 2.667,-0.979 2.292,-1.021 H 2.105 l -0.376,0.042 -0.27,0.062 -0.25,0.063 -0.376,0.125 -0.145,0.104 -0.167,0.104 -0.146,0.104 -0.125,0.125 z" />
          </g>
          <g
             transform="matrix(2.4402871,0,0,-2.4402871,309.79019,-925.44927)"
             id="g6311"
             style="fill:#bbb9ea;fill-opacity:1">
            <path
               inkscape:connector-curvature="0"
               id="path6309"
               style="fill:#bbb9ea;fill-opacity:1;fill-rule:nonzero;stroke:none"
               d="m 0,0 -0.188,0.563 -0.02,0.187 v 0.188 l 0.041,0.187 0.084,0.188 0.104,0.146 0.125,0.145 0.146,0.126 0.166,0.083 0.188,0.041 H 0.834 L 1.021,1.813 1.188,1.709 1.313,1.584 1.396,1.417 1.459,1.229 V 0.667 L 1.417,0.458 V 0.292 L 1.459,0.125 1.563,-0.021 1.709,-0.167 1.855,-0.292 2,-0.458 2.23,-0.729 2.375,-0.854 2.646,-1.125 2.792,-1.292 2.876,-1.396 3.021,-1.563 3.167,-1.688 3.292,-1.834 3.501,-2.167 3.563,-2.355 3.626,-2.605 3.688,-2.876 3.667,-3.063 3.605,-3.251 3.522,-3.417 3.397,-3.563 3.188,-3.897 3.063,-4.042 2.959,-4.209 2.855,-4.355 2.73,-4.522 2.626,-4.688 2.501,-4.855 2.396,-5.022 2.042,-5.73 1.98,-5.918 1.917,-6.085 1.875,-6.272 1.834,-6.48 1.792,-6.668 1.771,-6.856 V -7.064 L 1.855,-7.481 1.959,-7.647 2.063,-7.835 2.209,-7.96 2.375,-8.064 2.584,-8.106 H 2.98 l 0.187,0.042 0.188,0.062 0.187,0.084 0.146,0.104 0.313,0.208 0.166,0.125 0.146,0.125 0.125,0.125 0.125,0.167 0.375,0.438 0.313,0.5 0.104,0.146 0.104,0.187 0.105,0.167 0.083,0.167 0.104,0.187 0.063,0.125 0.125,0.229 0.083,0.167 0.063,0.167 0.083,0.166 0.187,0.105 0.271,-0.063 0.188,-0.208 V -4.813 L 6.751,-5.001 6.585,-5.355 6.501,-5.522 6.397,-5.689 6.23,-6.022 6.022,-6.355 5.918,-6.543 5.834,-6.647 5.73,-6.835 5.522,-7.168 5.272,-7.502 5.105,-7.731 4.959,-7.939 4.709,-8.231 4.563,-8.356 4.313,-8.606 4.147,-8.731 3.959,-8.856 3.626,-9.023 3.438,-9.106 3.271,-9.189 3.084,-9.252 2.917,-9.294 2.709,-9.335 H 2.23 l -0.271,0.021 -0.417,0.083 -0.167,0.062 -0.208,0.105 -0.313,0.208 -0.146,0.125 -0.125,0.125 -0.125,0.167 -0.104,0.146 -0.083,0.187 -0.083,0.167 -0.042,0.187 -0.042,0.209 -0.042,0.187 -0.02,0.188 v 0.187 l 0.083,0.751 0.063,0.187 0.062,0.167 0.083,0.187 0.105,0.23 0.125,0.229 0.104,0.187 0.146,0.23 0.145,0.208 0.105,0.187 0.125,0.23 0.166,0.229 0.125,0.167 0.167,0.291 0.229,0.334 0.105,0.229 0.062,0.312 L 2,-2.375 1.792,-2.042 1.667,-1.875 1.334,-1.5 1.209,-1.354 1.042,-1.229 0.875,-1.271 0.792,-1.459 0.75,-1.646 0.688,-1.834 0.646,-2.021 0.604,-2.188 0.542,-2.375 0.354,-2.876 0.292,-3.063 0.229,-3.23 0.167,-3.417 0.062,-3.667 -0.042,-3.897 -0.125,-4.084 -0.229,-4.334 -0.333,-4.563 -0.438,-4.772 -0.542,-5.001 -0.667,-5.23 -0.771,-5.397 -0.896,-5.501 h -0.188 l -0.166,0.104 -0.125,0.146 0.021,0.167 0.062,0.187 0.083,0.188 0.063,0.166 0.062,0.188 0.167,0.375 0.063,0.125 0.083,0.208 0.083,0.167 0.063,0.188 0.083,0.187 0.063,0.188 0.062,0.166 0.167,0.376 0.042,0.187 0.062,0.188 0.042,0.187 0.083,0.188 0.042,0.187 0.041,0.167 0.042,0.188 0.063,0.187 0.041,0.208 V -0.5 l -0.041,0.167 z" />
          </g>
          <g
             transform="matrix(2.4402871,0,0,-2.4402871,334.90997,-921.43207)"
             id="g6315"
             style="fill:#bbb9ea;fill-opacity:1">
            <path
               inkscape:connector-curvature="0"
               id="path6313"
               style="fill:#bbb9ea;fill-opacity:1;fill-rule:nonzero;stroke:none"
               d="M 0,0 -0.292,-0.125 -0.542,-0.25 -0.708,-0.354 -1,-0.604 -1.188,-0.792 -1.354,-0.979 -1.5,-1.146 -1.646,-1.375 -1.792,-1.584 -1.896,-1.771 -2.021,-2 -2.105,-2.25 -2.188,-2.438 -2.25,-2.605 l -0.021,-0.146 0.104,-0.104 0.271,-0.062 0.417,-0.021 0.208,-0.021 h 0.583 l 0.209,0.042 0.187,0.041 0.209,0.084 0.125,0.041 0.208,0.105 0.146,0.104 0.146,0.125 0.146,0.146 0.146,0.125 0.125,0.166 0.104,0.146 0.083,0.167 0.104,0.188 0.125,0.375 0.042,0.208 0.021,0.188 L 1.417,-0.5 1.334,-0.313 1.209,-0.167 1.042,-0.042 0.854,0.042 0.667,0.083 0.479,0.104 0.271,0.062 Z M 2.542,-2.501 2.438,-2.646 2.188,-2.938 1.896,-3.188 1.75,-3.292 1.563,-3.397 1.438,-3.438 1.229,-3.563 1.104,-3.626 0.917,-3.709 0.708,-3.772 0.521,-3.834 0.333,-3.855 0.125,-3.897 -0.104,-3.918 -0.354,-3.959 -0.542,-3.98 h -0.187 l -0.375,0.042 -0.375,0.02 -0.188,0.021 -0.563,0.125 H -2.375 L -2.48,-3.855 -2.521,-4.001 v -0.187 l -0.021,-0.209 v -0.354 l 0.021,-0.208 0.041,-0.167 0.125,-0.375 0.209,-0.334 0.125,-0.145 0.125,-0.125 0.333,-0.209 0.209,-0.062 0.187,-0.063 0.146,-0.021 0.188,-0.041 0.187,-0.021 h 0.208 l 0.188,0.021 0.542,0.104 0.187,0.042 0.188,0.062 0.167,0.063 0.354,0.145 0.333,0.167 0.292,0.229 0.146,0.104 0.146,0.126 0.291,0.27 0.25,0.292 0.105,0.146 0.125,0.167 0.208,0.291 0.104,0.167 0.083,0.167 0.105,0.167 0.083,0.166 0.104,0.146 0.084,0.167 0.083,0.187 0.083,0.167 0.105,0.167 0.145,0.104 H 4.251 L 4.438,-2.813 4.543,-3.001 4.522,-3.188 4.438,-3.376 4.334,-3.605 4.209,-3.834 4.105,-4.063 3.98,-4.293 3.855,-4.501 3.647,-4.834 3.584,-4.959 3.459,-5.147 3.251,-5.439 3.126,-5.585 3.001,-5.71 2.876,-5.855 2.73,-6.022 2.667,-6.105 2.521,-6.272 2.396,-6.418 2.105,-6.668 1.896,-6.835 1.709,-7.001 1.375,-7.21 0.854,-7.439 0.688,-7.502 0.5,-7.564 0.229,-7.606 -0.021,-7.668 -0.458,-7.71 -0.729,-7.731 -0.958,-7.752 h -0.188 l -0.75,0.084 -0.167,0.041 -0.187,0.063 -0.188,0.083 -0.167,0.084 -0.333,0.187 -0.167,0.084 -0.146,0.125 -0.146,0.145 -0.083,0.105 -0.146,0.166 -0.125,0.146 -0.104,0.167 -0.083,0.146 -0.084,0.187 -0.062,0.167 -0.063,0.187 -0.041,0.188 -0.042,0.167 -0.042,0.187 -0.062,0.563 v 0.396 l 0.021,0.187 v 0.188 l 0.125,0.563 0.062,0.166 0.042,0.188 0.062,0.187 0.042,0.188 0.063,0.187 0.083,0.23 0.104,0.25 0.104,0.187 0.125,0.229 0.146,0.209 0.084,0.187 0.104,0.146 0.125,0.146 0.312,0.333 0.313,0.313 0.167,0.146 0.187,0.146 0.209,0.146 0.187,0.145 0.208,0.125 0.209,0.105 0.187,0.083 0.271,0.125 0.438,0.146 0.375,0.083 0.271,0.042 H 0.75 L 1.021,1.25 1.354,1.188 1.625,1.125 1.813,1.063 2,0.979 2.167,0.896 2.292,0.813 2.584,0.563 2.709,0.417 2.834,0.208 2.938,-0.042 3.001,-0.229 3.042,-0.417 3.063,-0.604 v -0.25 L 3.042,-1.125 3.021,-1.334 2.959,-1.584 2.876,-1.834 2.792,-2.042 2.73,-2.146 2.626,-2.334 Z" />
          </g>
          <g
             transform="matrix(2.4402871,0,0,-2.4402871,354.48567,-921.43207)"
             id="g6319"
             style="fill:#bbb9ea;fill-opacity:1">
            <path
               inkscape:connector-curvature="0"
               id="path6317"
               style="fill:#bbb9ea;fill-opacity:1;fill-rule:nonzero;stroke:none"
               d="M 0,0 -0.292,-0.125 -0.542,-0.25 -0.708,-0.354 -1,-0.604 -1.188,-0.792 -1.354,-0.979 -1.5,-1.146 -1.646,-1.375 -1.792,-1.584 -1.896,-1.771 -2.021,-2 -2.105,-2.25 -2.188,-2.438 -2.25,-2.605 l -0.021,-0.146 0.104,-0.104 0.271,-0.062 0.417,-0.021 0.208,-0.021 h 0.583 l 0.209,0.042 0.187,0.041 0.209,0.084 0.125,0.041 0.208,0.105 0.146,0.104 0.146,0.125 0.146,0.146 0.146,0.125 0.125,0.166 0.104,0.146 0.083,0.167 0.104,0.188 0.125,0.375 0.042,0.208 0.021,0.188 L 1.417,-0.5 1.334,-0.313 1.209,-0.167 1.042,-0.042 0.854,0.042 0.667,0.083 0.479,0.104 0.271,0.062 Z M 2.542,-2.501 2.438,-2.646 2.188,-2.938 1.896,-3.188 1.75,-3.292 1.563,-3.397 1.438,-3.438 1.229,-3.563 1.104,-3.626 0.917,-3.709 0.708,-3.772 0.521,-3.834 0.333,-3.855 0.125,-3.897 -0.104,-3.918 -0.354,-3.959 -0.542,-3.98 h -0.187 l -0.375,0.042 -0.375,0.02 -0.188,0.021 -0.563,0.125 H -2.375 L -2.48,-3.855 -2.521,-4.001 v -0.187 l -0.021,-0.209 v -0.354 l 0.021,-0.208 0.041,-0.167 0.125,-0.375 0.209,-0.334 0.125,-0.145 0.125,-0.125 0.333,-0.209 0.209,-0.062 0.187,-0.063 0.146,-0.021 0.188,-0.041 0.187,-0.021 h 0.208 l 0.188,0.021 0.542,0.104 0.187,0.042 0.188,0.062 0.167,0.063 0.354,0.145 0.333,0.167 0.292,0.229 0.146,0.104 0.146,0.126 0.291,0.27 0.25,0.292 0.105,0.146 0.125,0.167 0.208,0.291 0.104,0.167 0.083,0.167 0.105,0.167 0.083,0.166 0.104,0.146 0.084,0.167 0.083,0.187 0.083,0.167 0.105,0.167 0.145,0.104 H 4.251 L 4.438,-2.813 4.543,-3.001 4.522,-3.188 4.438,-3.376 4.334,-3.605 4.209,-3.834 4.105,-4.063 3.98,-4.293 3.855,-4.501 3.647,-4.834 3.584,-4.959 3.459,-5.147 3.251,-5.439 3.126,-5.585 3.001,-5.71 2.876,-5.855 2.73,-6.022 2.667,-6.105 2.521,-6.272 2.396,-6.418 2.105,-6.668 1.896,-6.835 1.709,-7.001 1.375,-7.21 0.854,-7.439 0.688,-7.502 0.5,-7.564 0.229,-7.606 -0.021,-7.668 -0.458,-7.71 -0.729,-7.731 -0.958,-7.752 h -0.188 l -0.75,0.084 -0.167,0.041 -0.187,0.063 -0.188,0.083 -0.167,0.084 -0.333,0.187 -0.167,0.084 -0.146,0.125 -0.146,0.145 -0.083,0.105 -0.146,0.166 -0.125,0.146 -0.104,0.167 -0.083,0.146 -0.084,0.187 -0.062,0.167 -0.063,0.187 -0.041,0.188 -0.042,0.167 -0.042,0.187 -0.062,0.563 v 0.396 l 0.021,0.187 v 0.188 l 0.125,0.563 0.062,0.166 0.042,0.188 0.062,0.187 0.042,0.188 0.063,0.187 0.083,0.23 0.104,0.25 0.104,0.187 0.125,0.229 0.146,0.209 0.084,0.187 0.104,0.146 0.125,0.146 0.312,0.333 0.313,0.313 0.167,0.146 0.187,0.146 0.209,0.146 0.187,0.145 0.208,0.125 0.209,0.105 0.187,0.083 0.271,0.125 0.438,0.146 0.375,0.083 0.271,0.042 H 0.75 L 1.021,1.25 1.354,1.188 1.625,1.125 1.813,1.063 2,0.979 2.167,0.896 2.292,0.813 2.584,0.563 2.709,0.417 2.834,0.208 2.938,-0.042 3.001,-0.229 3.042,-0.417 3.063,-0.604 v -0.25 L 3.042,-1.125 3.021,-1.334 2.959,-1.584 2.876,-1.834 2.792,-2.042 2.73,-2.146 2.626,-2.334 Z" />
          </g>
          <g
             transform="matrix(2.4402871,0,0,-2.4402871,379.96018,-914.21139)"
             id="g6323"
             style="fill:#bbb9ea;fill-opacity:1">
            <path
               inkscape:connector-curvature="0"
               id="path6321"
               style="fill:#bbb9ea;fill-opacity:1;fill-rule:nonzero;stroke:none"
               d="M 0,0 V -0.229 L -0.083,-0.438 -0.333,-0.896 -0.417,-1.084 -0.5,-1.25 -0.708,-1.584 -0.792,-1.729 -0.896,-1.896 -1.063,-2.209 -1.146,-2.355 -1.271,-2.542 -1.521,-2.834 -1.625,-3.001 -1.73,-3.146 -1.855,-3.292 -2.25,-3.688 -2.542,-3.917 -2.834,-4.167 -3.001,-4.292 -3.23,-4.418 -3.48,-4.522 -3.667,-4.605 -3.855,-4.668 -4.022,-4.709 -4.209,-4.73 h -0.584 l -0.187,0.021 -0.188,0.041 -0.25,0.084 -0.229,0.104 -0.167,0.104 -0.291,0.25 -0.105,0.146 -0.104,0.167 -0.166,0.333 -0.063,0.167 -0.063,0.187 -0.041,0.188 -0.042,0.167 v 0.187 l -0.021,0.188 v 0.187 L -6.731,-2 v 0.187 l 0.063,0.563 v 0.187 l 0.104,0.938 0.042,0.187 0.021,0.188 0.083,0.375 0.063,0.271 0.062,0.25 0.042,0.188 0.062,0.187 0.042,0.188 0.062,0.187 0.042,0.188 0.042,0.25 0.083,0.271 0.125,0.375 v 0.166 l -0.062,0.105 -0.146,0.041 -0.167,0.021 -0.208,0.042 -0.209,0.083 -0.146,0.188 -0.041,0.187 -0.021,0.209 0.042,0.166 0.083,0.146 0.146,0.104 0.271,0.021 0.312,-0.021 h 0.313 l 0.208,0.063 0.084,0.146 0.041,0.208 0.042,0.167 0.062,0.187 0.084,0.167 0.083,0.188 0.063,0.166 0.125,0.375 0.083,0.376 0.063,0.187 0.083,0.167 0.125,0.375 0.062,0.167 0.084,0.187 0.062,0.188 0.063,0.166 0.062,0.188 0.084,0.167 0.083,0.187 0.042,0.167 0.062,0.187 0.084,0.188 0.104,0.146 0.166,0.104 0.188,0.042 0.208,-0.021 0.25,-0.042 L -2.605,9.169 -2.417,9.064 -2.25,8.918 -2.188,8.689 -2.23,8.502 -2.334,8.231 -2.459,7.939 -2.563,7.668 -2.626,7.46 -2.667,7.335 -2.73,7.126 -2.959,6.439 -3.021,6.272 -3.084,6.085 -3.167,5.814 -3.292,5.501 -3.438,5.064 -3.48,4.876 -3.563,4.709 -3.626,4.543 V 4.397 l 0.125,-0.104 0.23,-0.042 h 0.208 l 0.354,0.021 0.292,0.021 h 0.646 L -1.5,4.272 -1.354,4.147 -1.313,3.917 V 3.647 L -1.375,3.459 -1.479,3.313 -1.625,3.209 -1.813,3.146 -2,3.105 -2.209,3.084 -2.771,3.063 h -0.23 L -3.188,3.084 H -3.959 L -4.084,3.001 -4.147,2.834 -4.23,2.584 -4.313,2.25 -4.397,1.896 -4.501,1.563 -4.584,1.209 -4.668,0.875 -4.73,0.583 -4.751,0.458 -4.814,0.167 l -0.062,-0.23 -0.062,-0.208 -0.084,-0.375 -0.021,-0.25 -0.041,-0.271 -0.042,-0.375 v -0.583 l 0.042,-0.271 0.041,-0.25 0.063,-0.188 0.083,-0.187 0.104,-0.146 0.23,-0.146 0.291,-0.125 0.23,-0.042 h 0.208 l 0.229,0.042 0.5,0.25 0.584,0.5 0.146,0.146 0.104,0.125 0.208,0.271 0.271,0.333 0.104,0.146 0.083,0.167 0.105,0.166 0.125,0.167 0.104,0.146 0.104,0.167 0.083,0.166 0.063,0.188 0.104,0.208 0.104,0.167 0.125,0.208 0.25,0.167 0.271,-0.042 z" />
          </g>
          <g
             transform="matrix(2.4402871,0,0,-2.4402871,403.19809,-912.73668)"
             id="g6327"
             style="fill:#bbb9ea;fill-opacity:1">
            <path
               inkscape:connector-curvature="0"
               id="path6325"
               style="fill:#bbb9ea;fill-opacity:1;fill-rule:nonzero;stroke:none"
               d="M 0,0 -0.042,-0.104 -0.146,-0.313 -0.25,-0.458 -0.333,-0.625 -0.417,-0.813 -0.5,-0.979 -0.708,-1.313 -0.813,-1.459 -0.917,-1.625 -1,-1.792 l -0.104,-0.167 -0.125,-0.146 -0.125,-0.166 -0.125,-0.146 -0.23,-0.292 -0.125,-0.146 -0.125,-0.125 -0.583,-0.5 -0.167,-0.104 -0.187,-0.104 -0.23,-0.104 -0.25,-0.105 -0.187,-0.062 -0.188,-0.042 h -0.208 l -0.25,0.021 -0.25,0.063 -0.188,0.062 -0.146,0.104 -0.145,0.125 -0.146,0.209 -0.146,0.229 -0.063,0.187 -0.062,0.25 -0.021,0.271 v 0.209 l 0.021,0.271 0.021,0.25 -0.063,0.041 -0.104,-0.146 -0.208,-0.333 -0.209,-0.292 -0.125,-0.146 -0.104,-0.145 -0.125,-0.146 -0.104,-0.146 -0.146,-0.125 -0.125,-0.125 -0.146,-0.125 -0.146,-0.104 -0.167,-0.105 -0.229,-0.145 -0.312,-0.146 -0.334,-0.105 -0.271,-0.062 -0.375,-0.042 -0.208,0.021 -0.25,0.042 -0.25,0.062 -0.188,0.063 -0.166,0.062 -0.146,0.105 -0.292,0.25 -0.104,0.145 -0.104,0.167 -0.125,0.229 -0.125,0.313 -0.063,0.271 -0.021,0.208 -0.041,0.271 -0.021,0.334 v 0.27 l 0.021,0.209 0.02,0.271 0.042,0.25 0.063,0.208 0.062,0.25 0.063,0.271 0.062,0.188 0.084,0.166 0.062,0.188 0.5,1 0.104,0.167 0.104,0.146 0.105,0.166 0.208,0.292 0.125,0.146 0.271,0.312 0.083,0.084 0.146,0.166 0.292,0.251 0.187,0.187 0.23,0.167 0.291,0.229 0.167,0.104 0.146,0.104 0.187,0.084 0.25,0.104 0.23,0.125 0.208,0.104 0.25,0.083 0.25,0.063 0.209,0.062 0.52,0.042 0.188,0.021 h 0.25 L -4.334,4.855 -3.855,4.813 -3.397,4.73 -3.209,4.688 -2.98,4.626 -2.146,4.251 -2,4.126 -1.854,4.022 -1.709,3.897 -1.584,3.751 -1.542,3.521 -1.625,3.23 -1.854,2.98 -2.084,2.834 -2.25,2.813 -2.417,2.876 -2.584,3.001 -2.771,3.105 -2.938,3.209 -3.084,3.271 -3.251,3.355 -3.438,3.438 -3.605,3.48 -3.959,3.563 -4.167,3.626 -4.376,3.667 H -4.793 L -4.938,3.646 -5.147,3.626 -5.418,3.563 -5.939,3.376 -6.147,3.271 -6.355,3.146 -6.501,3.042 -6.668,2.938 -6.814,2.834 -6.96,2.709 -7.126,2.563 -7.21,2.48 -7.356,2.313 -7.481,2.167 -7.585,2.021 -7.835,1.729 -7.939,1.584 -8.043,1.417 -8.293,0.917 -8.397,0.75 -8.522,0.375 -8.606,0.187 -8.689,0.021 -8.814,-0.542 -8.877,-0.75 -8.939,-1.313 v -0.583 l 0.021,-0.209 0.062,-0.187 0.083,-0.167 0.105,-0.167 0.125,-0.125 0.187,-0.083 0.25,-0.042 0.271,0.021 0.188,0.063 0.333,0.166 0.292,0.251 0.125,0.125 0.146,0.125 0.125,0.145 0.104,0.146 0.125,0.146 0.104,0.146 0.229,0.313 0.104,0.145 0.313,0.501 0.125,0.229 0.146,0.271 0.083,0.125 0.25,0.541 0.084,0.188 0.041,0.146 0.084,0.187 0.062,0.167 0.063,0.188 0.083,0.229 0.125,0.417 0.084,0.229 0.062,0.208 0.125,0.188 0.208,0.104 0.188,0.042 L -3.646,2.855 -3.459,2.813 -3.126,2.646 -2.959,2.542 -2.876,2.417 -2.855,2.23 -2.917,2.063 -2.959,1.875 -3.021,1.688 -3.105,1.313 -3.167,1.125 -3.209,0.958 -3.334,0.583 -3.376,0.375 -3.397,0.25 -3.459,0 -3.501,-0.188 -3.584,-0.542 -3.646,-0.792 -3.688,-1 -3.73,-1.229 l -0.062,-0.313 -0.063,-0.354 -0.021,-0.313 0.021,-0.271 0.104,-0.166 0.209,-0.105 0.312,-0.02 0.25,0.083 0.188,0.104 0.291,0.209 0.146,0.145 0.25,0.271 0.251,0.292 0.208,0.292 0.104,0.166 0.125,0.167 0.042,0.125 0.333,0.5 0.084,0.167 0.104,0.167 L -0.438,0.75 -0.25,0.854 0,0.813 0.167,0.604 0.188,0.396 0.104,0.208 Z" />
          </g>
          <g
             transform="matrix(2.4402871,0,0,-2.4402871,405.58799,-929.72054)"
             id="g6331"
             style="fill:#bbb9ea;fill-opacity:1">
            <path
               inkscape:connector-curvature="0"
               id="path6329"
               style="fill:#bbb9ea;fill-opacity:1;fill-rule:nonzero;stroke:none"
               d="M 0,0 0.104,0.167 0.271,0.313 0.438,0.417 0.646,0.479 0.834,0.521 H 1.042 L 1.229,0.479 1.396,0.375 1.542,0.25 1.688,0.104 1.792,-0.063 1.855,-0.25 1.875,-0.438 V -0.646 L 1.813,-0.833 1.709,-1 1.584,-1.167 1.438,-1.292 1.271,-1.417 1.084,-1.5 0.875,-1.542 l -0.187,0.021 -0.209,0.042 -0.333,0.208 -0.125,0.146 -0.104,0.166 -0.042,0.188 -0.021,0.188 0.021,0.187 0.042,0.208 z M 3.355,-6.397 V -6.626 L 3.292,-6.814 3.126,-7.147 2.938,-7.46 2.834,-7.647 2.751,-7.814 2.626,-8.002 2.563,-8.127 2.459,-8.314 2.355,-8.481 2.25,-8.627 2.125,-8.793 2.021,-8.939 1.813,-9.273 1.438,-9.71 l -0.25,-0.271 -0.146,-0.146 -0.125,-0.146 -0.146,-0.125 -0.458,-0.354 -0.146,-0.104 -0.188,-0.084 -0.187,-0.062 -0.167,-0.042 -0.375,-0.083 h -0.354 l -0.23,0.021 -0.166,0.062 -0.188,0.063 -0.166,0.104 -0.146,0.125 -0.105,0.146 -0.104,0.166 -0.083,0.188 -0.042,0.167 -0.041,0.187 -0.021,0.188 v 0.187 l 0.041,0.375 0.042,0.188 0.063,0.187 0.083,0.375 0.062,0.167 0.042,0.188 0.063,0.187 0.062,0.167 0.188,0.563 0.02,0.166 0.042,0.188 0.063,0.187 0.041,0.188 0.042,0.167 0.125,0.375 0.063,0.25 0.062,0.271 0.125,0.375 0.042,0.187 0.041,0.146 0.042,0.188 0.084,0.208 0.062,0.167 0.125,0.562 0.063,0.188 0.062,0.25 0.083,0.271 0.063,0.187 0.083,0.167 0.125,0.104 0.188,0.084 0.167,0.02 0.208,-0.02 0.375,-0.042 0.333,-0.125 0.105,-0.146 V -2.751 L 1.042,-2.938 0.979,-3.188 0.917,-3.459 0.792,-3.834 0.75,-4.001 0.708,-4.188 0.646,-4.397 0.583,-4.647 0.375,-5.272 0.333,-5.459 0.25,-5.73 0.104,-6.168 0.063,-6.355 0.021,-6.522 -0.021,-6.71 l -0.146,-0.354 -0.041,-0.187 -0.146,-0.521 -0.125,-0.375 -0.042,-0.188 -0.062,-0.271 -0.063,-0.333 -0.042,-0.355 0.042,-0.312 0.167,-0.229 0.229,-0.063 0.188,0.021 0.187,0.083 0.146,0.104 0.167,0.126 0.687,0.687 0.125,0.146 0.104,0.146 0.125,0.167 0.209,0.333 0.125,0.146 0.083,0.125 0.104,0.167 0.125,0.187 0.084,0.188 0.166,0.354 0.251,0.5 0.104,0.167 0.187,0.104 0.271,-0.042 z" />
          </g>
          <g
             transform="matrix(2.4402871,0,0,-2.4402871,418.6565,-926.16097)"
             id="g6335"
             style="fill:#bbb9ea;fill-opacity:1">
            <path
               inkscape:connector-curvature="0"
               id="path6333"
               style="fill:#bbb9ea;fill-opacity:1;fill-rule:nonzero;stroke:none"
               d="m 0,0 -0.292,-0.875 -0.041,-0.188 -0.063,-0.187 -0.083,-0.271 -0.146,-0.438 -0.063,-0.208 -0.02,-0.125 -0.063,-0.209 -0.062,-0.187 -0.042,-0.208 0.042,-0.125 0.125,0.083 0.208,0.167 0.854,0.854 0.104,0.146 0.105,0.167 0.125,0.187 0.083,0.083 0.125,0.188 0.146,0.187 0.146,0.209 0.146,0.229 0.104,0.167 0.083,0.146 0.104,0.145 L 1.792,0.271 1.875,0.479 1.938,0.604 2.021,0.813 2.105,1 2.146,1.188 2.209,1.375 2.271,1.604 2.355,1.834 2.417,2.063 2.501,2.292 2.521,2.5 2.542,2.688 V 3.084 L 2.501,3.251 2.438,3.417 2.292,3.522 2.125,3.563 1.938,3.522 1.75,3.376 1.604,3.251 1.5,3.126 1.396,2.98 1.292,2.813 1.084,2.5 0.979,2.313 0.896,2.125 0.813,1.959 0.729,1.771 0.646,1.604 0.563,1.417 0.5,1.25 0.417,1.021 0.292,0.708 0.208,0.521 Z M 3.459,0.583 3.355,0.396 3.188,0.062 3.084,-0.167 2.938,-0.396 2.834,-0.542 2.73,-0.708 2.626,-0.854 2.521,-1.042 2.438,-1.167 2.334,-1.334 2.188,-1.521 2,-1.73 1.813,-1.917 1.73,-2.021 1.584,-2.188 1.313,-2.459 1.188,-2.605 0.959,-2.855 0.813,-2.98 0.646,-3.146 0.417,-3.313 0.104,-3.584 -0.062,-3.688 -0.521,-3.98 -0.667,-4.042 -0.833,-4.147 -1.063,-4.334 -1.209,-4.522 -1.292,-4.688 -1.334,-4.918 -1.396,-5.293 V -5.418 L -1.438,-5.626 -1.479,-5.814 -1.5,-6.022 V -6.46 l -0.021,-0.271 v -0.416 l 0.042,-0.23 0.02,-0.125 0.042,-0.208 0.083,-0.187 0.084,-0.167 0.125,-0.146 0.167,-0.104 0.166,-0.063 0.209,-0.041 h 0.354 l 0.167,0.02 0.187,0.063 0.25,0.104 0.229,0.125 0.167,0.125 0.208,0.167 0.188,0.187 0.25,0.23 0.167,0.146 0.125,0.166 0.083,0.104 0.125,0.167 0.083,0.146 0.125,0.187 0.084,0.105 0.125,0.187 0.167,0.313 0.104,0.166 0.125,0.188 0.104,0.188 0.104,0.208 0.188,0.271 0.208,0.167 0.271,-0.042 0.167,-0.208 V -5.147 L 3.709,-5.334 3.626,-5.501 3.522,-5.668 3.438,-5.855 3.355,-6.022 3.292,-6.189 3.188,-6.355 3.105,-6.501 3.001,-6.668 2.876,-6.856 2.834,-6.96 2.73,-7.147 2.605,-7.314 2.396,-7.606 2.25,-7.793 2.167,-7.877 2.021,-8.064 1.896,-8.21 1.73,-8.418 1.542,-8.585 1.396,-8.731 1.271,-8.835 1.125,-8.96 0.938,-9.064 0.771,-9.148 0.583,-9.231 0.417,-9.314 0.25,-9.377 0.063,-9.46 l -0.251,-0.084 -0.416,-0.083 -0.25,-0.021 -0.23,0.021 h -0.125 l -0.208,0.021 -0.188,0.042 -0.166,0.062 -0.188,0.063 -0.166,0.083 -0.167,0.104 -0.146,0.125 -0.125,0.125 -0.125,0.146 -0.083,0.167 -0.084,0.187 -0.062,0.167 -0.042,0.188 -0.062,0.187 -0.021,0.188 -0.042,0.208 v 0.125 l -0.042,0.229 -0.02,0.188 v 0.187 l 0.02,0.188 0.021,0.208 v 0.125 l 0.021,0.271 0.063,0.459 0.02,0.25 v 0.187 l 0.042,0.188 0.042,0.208 0.146,0.688 0.062,0.25 0.063,0.375 0.041,0.104 0.063,0.25 0.041,0.125 0.084,0.313 0.062,0.271 0.042,0.187 0.063,0.25 0.083,0.292 0.021,0.146 0.083,0.291 0.083,0.271 0.063,0.146 0.083,0.271 0.084,0.25 0.083,0.188 0.208,0.541 0.042,0.125 0.125,0.292 0.146,0.334 0.104,0.25 0.084,0.187 0.062,0.125 0.104,0.188 0.146,0.354 0.104,0.208 0.104,0.188 0.125,0.187 0.167,0.271 L 0.125,3.542 0.25,3.709 0.521,3.98 0.604,4.084 0.75,4.23 0.896,4.334 1.229,4.563 1.459,4.709 1.688,4.813 1.875,4.876 2.063,4.918 H 2.438 L 2.646,4.876 2.771,4.855 2.98,4.793 3.146,4.709 3.438,4.459 3.542,4.293 3.688,4.084 3.792,3.834 3.876,3.646 3.959,3.396 4.001,3.126 V 2.75 L 3.959,2.188 3.876,1.813 3.813,1.646 3.772,1.438 3.605,0.938 3.522,0.771 Z" />
          </g>
          <g
             transform="matrix(2.4402871,0,0,-2.4402871,305.10678,-879.22032)"
             id="g6339"
             style="fill:#bbb9ea;fill-opacity:1">
            <path
               inkscape:connector-curvature="0"
               id="path6337"
               style="fill:#bbb9ea;fill-opacity:1;fill-rule:nonzero;stroke:none"
               d="M 0,0 V 2.704 H -3.446 V 0 H -4.18 v 5.894 h 0.734 V 3.358 H 0 V 5.894 H 0.733 V 0 Z" />
          </g>
          <g
             transform="matrix(2.4402871,0,0,-2.4402871,319.98639,-891.74948)"
             id="g6343"
             style="fill:#bbb9ea;fill-opacity:1">
            <path
               inkscape:connector-curvature="0"
               id="path6341"
               style="fill:#bbb9ea;fill-opacity:1;fill-rule:nonzero;stroke:none"
               d="m 0,0 -1.255,-3.172 h 2.501 z m 1.988,-5.134 -0.521,1.308 h -2.934 l -0.521,-1.308 h -0.84 L -0.46,0.76 h 0.911 l 2.377,-5.894 z" />
          </g>
          <g
             id="g6347"
             transform="matrix(2.4402871,0,0,-2.4402871,281.00937,-925.85584)"
             style="fill:#bbb9ea;fill-opacity:1">
            <path
               inkscape:connector-curvature="0"
               d="M 0,0 -0.167,0.333 -0.292,0.708 -0.333,0.875 -0.354,1.063 V 1.271 L -0.292,1.834 -0.25,2 -0.083,2.375 0.062,2.584 0.208,2.813 0.333,2.959 0.479,3.105 0.625,3.23 0.771,3.334 0.938,3.438 1.271,3.626 1.438,3.709 1.625,3.792 1.875,3.876 2.209,3.959 2.48,4.022 2.688,4.063 2.834,4.084 3.042,4.105 3.334,4.126 H 3.792 L 3.98,4.105 4.147,4.084 H 4.334 L 4.543,4.063 5.063,3.98 6.001,3.876 H 6.335 L 6.564,3.897 6.751,3.917 7.022,3.959 7.272,4.022 7.46,4.084 7.606,4.147 7.772,4.251 7.939,4.376 8.064,4.501 8.21,4.626 8.335,4.751 8.46,4.897 8.606,5.022 8.752,5.126 8.939,5.189 H 9.21 L 9.544,5.147 9.877,5.022 10.085,4.855 10.169,4.688 10.106,4.438 9.731,3.313 9.669,3.146 9.606,2.959 9.564,2.771 9.523,2.605 9.481,2.417 9.419,2.23 9.356,1.959 9.252,1.646 9.148,1.375 9.085,1.188 9.002,0.813 8.939,0.563 8.856,0.313 8.793,0.104 8.731,-0.062 8.689,-0.25 8.627,-0.5 8.543,-0.875 8.481,-1.125 8.418,-1.313 8.356,-1.479 8.273,-1.855 8.231,-2.021 8.189,-2.209 v -0.146 l 0.063,-0.083 0.166,-0.021 h 0.209 l 0.187,0.021 0.521,0.083 0.271,0.021 0.25,-0.062 0.125,-0.25 L 9.939,-2.959 9.773,-3.209 9.523,-3.334 9.335,-3.376 9.189,-3.438 9.002,-3.48 8.814,-3.501 8.46,-3.522 8.252,-3.542 8.002,-3.605 7.793,-3.772 7.668,-4.001 7.626,-4.188 7.606,-4.376 7.543,-4.563 7.481,-4.73 7.418,-4.918 7.356,-5.084 7.314,-5.272 7.251,-5.459 7.21,-5.626 7.147,-5.814 7.064,-5.98 7.001,-6.168 6.96,-6.335 6.876,-6.522 6.793,-6.668 6.73,-6.835 6.647,-7.022 6.585,-7.189 6.501,-7.376 6.335,-7.71 6.23,-7.856 6.105,-8.022 5.793,-8.46 5.647,-8.585 5.376,-8.835 5.23,-8.96 5.084,-9.064 4.897,-9.148 4.688,-9.231 4.418,-9.335 4.126,-9.419 3.855,-9.481 3.626,-9.523 3.501,-9.544 3.292,-9.564 H 3.105 l -0.375,0.041 -0.209,0.042 -0.5,0.125 -0.187,0.062 -0.167,0.084 -0.188,0.083 -0.208,0.146 -0.187,0.167 -0.146,0.166 -0.167,0.188 -0.146,0.229 -0.25,0.5 -0.042,0.167 -0.083,0.375 v 0.459 l 0.042,0.333 0.062,0.271 0.084,0.187 0.062,0.167 0.063,0.188 0.125,0.229 0.145,0.229 0.125,0.146 0.126,0.125 0.145,0.167 0.23,0.229 0.166,0.125 0.167,0.021 L 1.98,-4.334 2.271,-4.543 2.417,-4.668 2.501,-4.813 2.521,-5.001 2.459,-5.168 2.375,-5.334 2.271,-5.459 2.188,-5.626 2.084,-5.814 2,-6.001 1.917,-6.376 1.896,-6.564 1.875,-6.772 1.917,-7.147 1.98,-7.335 2.063,-7.502 2.167,-7.668 2.271,-7.814 2.417,-7.96 2.584,-8.064 2.751,-8.147 2.938,-8.21 3.126,-8.252 h 0.208 l 0.271,0.021 0.312,0.084 0.23,0.125 0.166,0.125 0.188,0.187 0.167,0.188 0.125,0.166 0.104,0.146 0.166,0.334 0.126,0.333 0.062,0.188 0.104,0.25 0.146,0.437 0.063,0.25 0.145,0.438 0.125,0.333 0.084,0.375 0.062,0.271 0.042,0.271 -0.042,0.208 -0.146,0.084 -0.187,0.021 H 5.459 L 5.272,-3.396 H 5.084 l -0.187,0.02 H 4.709 l -0.187,0.021 -0.167,0.084 -0.104,0.145 -0.021,0.167 0.021,0.188 0.062,0.187 0.125,0.146 0.146,0.104 0.271,0.021 h 0.334 l 0.354,-0.021 0.354,-0.041 0.313,0.02 0.208,0.084 0.083,0.146 0.042,0.208 0.042,0.125 0.041,0.229 0.063,0.167 0.041,0.187 0.126,0.376 0.041,0.166 0.063,0.188 0.041,0.187 0.125,0.375 0.042,0.188 0.063,0.208 0.02,0.125 0.042,0.209 0.25,0.75 L 7.585,1.75 7.647,1.959 7.689,2.084 7.752,2.292 7.793,2.521 7.835,2.646 7.877,2.855 7.939,3.042 8.002,3.209 8.043,3.334 8.022,3.355 7.918,3.271 7.626,3.063 7.46,2.98 7.251,2.896 7.126,2.855 6.918,2.792 6.73,2.751 6.543,2.73 H 5.418 L 5.23,2.751 5.063,2.771 4.834,2.792 4.709,2.813 4.48,2.834 4.313,2.855 4.126,2.876 3.917,2.896 H 3.563 L 3.167,2.876 2.98,2.855 2.813,2.813 2.625,2.751 2.417,2.667 2.313,2.605 2.125,2.501 1.959,2.396 1.813,2.292 1.688,2.167 1.563,2 1.438,1.771 1.354,1.542 1.334,1.334 V 1.084 L 1.396,0.834 1.479,0.667 1.605,0.521 1.75,0.396 1.959,0.313 2.146,0.271 H 2.292 L 2.521,0.25 H 2.876 L 3.063,0.292 3.251,0.354 3.584,0.521 3.813,0.583 4.084,0.521 4.313,0.292 4.376,0.021 4.313,-0.187 4.188,-0.333 3.897,-0.583 3.751,-0.667 3.563,-0.75 3.397,-0.813 3.209,-0.875 3.021,-0.917 2.667,-0.979 2.292,-1.021 H 2.105 l -0.376,0.042 -0.27,0.062 -0.25,0.063 -0.376,0.125 -0.145,0.104 -0.167,0.104 -0.146,0.104 -0.125,0.125 z"
               style="fill:#bbb9ea;fill-opacity:1;fill-rule:nonzero;stroke:none"
               id="path6345" />
          </g>
          <g
             id="g6351"
             transform="matrix(2.4402871,0,0,-2.4402871,309.79019,-925.44927)"
             style="fill:#bbb9ea;fill-opacity:1">
            <path
               inkscape:connector-curvature="0"
               d="m 0,0 -0.188,0.563 -0.02,0.187 v 0.188 l 0.041,0.187 0.084,0.188 0.104,0.146 0.125,0.145 0.146,0.126 0.166,0.083 0.188,0.041 H 0.834 L 1.021,1.813 1.188,1.709 1.313,1.584 1.396,1.417 1.459,1.229 V 0.667 L 1.417,0.458 V 0.292 L 1.459,0.125 1.563,-0.021 1.709,-0.167 1.855,-0.292 2,-0.458 2.23,-0.729 2.375,-0.854 2.646,-1.125 2.792,-1.292 2.876,-1.396 3.021,-1.563 3.167,-1.688 3.292,-1.834 3.501,-2.167 3.563,-2.355 3.626,-2.605 3.688,-2.876 3.667,-3.063 3.605,-3.251 3.522,-3.417 3.397,-3.563 3.188,-3.897 3.063,-4.042 2.959,-4.209 2.855,-4.355 2.73,-4.522 2.626,-4.688 2.501,-4.855 2.396,-5.022 2.042,-5.73 1.98,-5.918 1.917,-6.085 1.875,-6.272 1.834,-6.48 1.792,-6.668 1.771,-6.856 V -7.064 L 1.855,-7.481 1.959,-7.647 2.063,-7.835 2.209,-7.96 2.375,-8.064 2.584,-8.106 H 2.98 l 0.187,0.042 0.188,0.062 0.187,0.084 0.146,0.104 0.313,0.208 0.166,0.125 0.146,0.125 0.125,0.125 0.125,0.167 0.375,0.438 0.313,0.5 0.104,0.146 0.104,0.187 0.105,0.167 0.083,0.167 0.104,0.187 0.063,0.125 0.125,0.229 0.083,0.167 0.063,0.167 0.083,0.166 0.187,0.105 0.271,-0.063 0.188,-0.208 V -4.813 L 6.751,-5.001 6.585,-5.355 6.501,-5.522 6.397,-5.689 6.23,-6.022 6.022,-6.355 5.918,-6.543 5.834,-6.647 5.73,-6.835 5.522,-7.168 5.272,-7.502 5.105,-7.731 4.959,-7.939 4.709,-8.231 4.563,-8.356 4.313,-8.606 4.147,-8.731 3.959,-8.856 3.626,-9.023 3.438,-9.106 3.271,-9.189 3.084,-9.252 2.917,-9.294 2.709,-9.335 H 2.23 l -0.271,0.021 -0.417,0.083 -0.167,0.062 -0.208,0.105 -0.313,0.208 -0.146,0.125 -0.125,0.125 -0.125,0.167 -0.104,0.146 -0.083,0.187 -0.083,0.167 -0.042,0.187 -0.042,0.209 -0.042,0.187 -0.02,0.188 v 0.187 l 0.083,0.751 0.063,0.187 0.062,0.167 0.083,0.187 0.105,0.23 0.125,0.229 0.104,0.187 0.146,0.23 0.145,0.208 0.105,0.187 0.125,0.23 0.166,0.229 0.125,0.167 0.167,0.291 0.229,0.334 0.105,0.229 0.062,0.312 L 2,-2.375 1.792,-2.042 1.667,-1.875 1.334,-1.5 1.209,-1.354 1.042,-1.229 0.875,-1.271 0.792,-1.459 0.75,-1.646 0.688,-1.834 0.646,-2.021 0.604,-2.188 0.542,-2.375 0.354,-2.876 0.292,-3.063 0.229,-3.23 0.167,-3.417 0.062,-3.667 -0.042,-3.897 -0.125,-4.084 -0.229,-4.334 -0.333,-4.563 -0.438,-4.772 -0.542,-5.001 -0.667,-5.23 -0.771,-5.397 -0.896,-5.501 h -0.188 l -0.166,0.104 -0.125,0.146 0.021,0.167 0.062,0.187 0.083,0.188 0.063,0.166 0.062,0.188 0.167,0.375 0.063,0.125 0.083,0.208 0.083,0.167 0.063,0.188 0.083,0.187 0.063,0.188 0.062,0.166 0.167,0.376 0.042,0.187 0.062,0.188 0.042,0.187 0.083,0.188 0.042,0.187 0.041,0.167 0.042,0.188 0.063,0.187 0.041,0.208 V -0.5 l -0.041,0.167 z"
               style="fill:#bbb9ea;fill-opacity:1;fill-rule:nonzero;stroke:none"
               id="path6349" />
          </g>
          <g
             id="g6355"
             transform="matrix(2.4402871,0,0,-2.4402871,334.90997,-921.43207)"
             style="fill:#bbb9ea;fill-opacity:1">
            <path
               inkscape:connector-curvature="0"
               d="M 0,0 -0.292,-0.125 -0.542,-0.25 -0.708,-0.354 -1,-0.604 -1.188,-0.792 -1.354,-0.979 -1.5,-1.146 -1.646,-1.375 -1.792,-1.584 -1.896,-1.771 -2.021,-2 -2.105,-2.25 -2.188,-2.438 -2.25,-2.605 l -0.021,-0.146 0.104,-0.104 0.271,-0.062 0.417,-0.021 0.208,-0.021 h 0.583 l 0.209,0.042 0.187,0.041 0.209,0.084 0.125,0.041 0.208,0.105 0.146,0.104 0.146,0.125 0.146,0.146 0.146,0.125 0.125,0.166 0.104,0.146 0.083,0.167 0.104,0.188 0.125,0.375 0.042,0.208 0.021,0.188 L 1.417,-0.5 1.334,-0.313 1.209,-0.167 1.042,-0.042 0.854,0.042 0.667,0.083 0.479,0.104 0.271,0.062 Z M 2.542,-2.501 2.438,-2.646 2.188,-2.938 1.896,-3.188 1.75,-3.292 1.563,-3.397 1.438,-3.438 1.229,-3.563 1.104,-3.626 0.917,-3.709 0.708,-3.772 0.521,-3.834 0.333,-3.855 0.125,-3.897 -0.104,-3.918 -0.354,-3.959 -0.542,-3.98 h -0.187 l -0.375,0.042 -0.375,0.02 -0.188,0.021 -0.563,0.125 H -2.375 L -2.48,-3.855 -2.521,-4.001 v -0.187 l -0.021,-0.209 v -0.354 l 0.021,-0.208 0.041,-0.167 0.125,-0.375 0.209,-0.334 0.125,-0.145 0.125,-0.125 0.333,-0.209 0.209,-0.062 0.187,-0.063 0.146,-0.021 0.188,-0.041 0.187,-0.021 h 0.208 l 0.188,0.021 0.542,0.104 0.187,0.042 0.188,0.062 0.167,0.063 0.354,0.145 0.333,0.167 0.292,0.229 0.146,0.104 0.146,0.126 0.291,0.27 0.25,0.292 0.105,0.146 0.125,0.167 0.208,0.291 0.104,0.167 0.083,0.167 0.105,0.167 0.083,0.166 0.104,0.146 0.084,0.167 0.083,0.187 0.083,0.167 0.105,0.167 0.145,0.104 H 4.251 L 4.438,-2.813 4.543,-3.001 4.522,-3.188 4.438,-3.376 4.334,-3.605 4.209,-3.834 4.105,-4.063 3.98,-4.293 3.855,-4.501 3.647,-4.834 3.584,-4.959 3.459,-5.147 3.251,-5.439 3.126,-5.585 3.001,-5.71 2.876,-5.855 2.73,-6.022 2.667,-6.105 2.521,-6.272 2.396,-6.418 2.105,-6.668 1.896,-6.835 1.709,-7.001 1.375,-7.21 0.854,-7.439 0.688,-7.502 0.5,-7.564 0.229,-7.606 -0.021,-7.668 -0.458,-7.71 -0.729,-7.731 -0.958,-7.752 h -0.188 l -0.75,0.084 -0.167,0.041 -0.187,0.063 -0.188,0.083 -0.167,0.084 -0.333,0.187 -0.167,0.084 -0.146,0.125 -0.146,0.145 -0.083,0.105 -0.146,0.166 -0.125,0.146 -0.104,0.167 -0.083,0.146 -0.084,0.187 -0.062,0.167 -0.063,0.187 -0.041,0.188 -0.042,0.167 -0.042,0.187 -0.062,0.563 v 0.396 l 0.021,0.187 v 0.188 l 0.125,0.563 0.062,0.166 0.042,0.188 0.062,0.187 0.042,0.188 0.063,0.187 0.083,0.23 0.104,0.25 0.104,0.187 0.125,0.229 0.146,0.209 0.084,0.187 0.104,0.146 0.125,0.146 0.312,0.333 0.313,0.313 0.167,0.146 0.187,0.146 0.209,0.146 0.187,0.145 0.208,0.125 0.209,0.105 0.187,0.083 0.271,0.125 0.438,0.146 0.375,0.083 0.271,0.042 H 0.75 L 1.021,1.25 1.354,1.188 1.625,1.125 1.813,1.063 2,0.979 2.167,0.896 2.292,0.813 2.584,0.563 2.709,0.417 2.834,0.208 2.938,-0.042 3.001,-0.229 3.042,-0.417 3.063,-0.604 v -0.25 L 3.042,-1.125 3.021,-1.334 2.959,-1.584 2.876,-1.834 2.792,-2.042 2.73,-2.146 2.626,-2.334 Z"
               style="fill:#bbb9ea;fill-opacity:1;fill-rule:nonzero;stroke:none"
               id="path6353" />
          </g>
          <g
             id="g6359"
             transform="matrix(2.4402871,0,0,-2.4402871,354.48567,-921.43207)"
             style="fill:#bbb9ea;fill-opacity:1">
            <path
               inkscape:connector-curvature="0"
               d="M 0,0 -0.292,-0.125 -0.542,-0.25 -0.708,-0.354 -1,-0.604 -1.188,-0.792 -1.354,-0.979 -1.5,-1.146 -1.646,-1.375 -1.792,-1.584 -1.896,-1.771 -2.021,-2 -2.105,-2.25 -2.188,-2.438 -2.25,-2.605 l -0.021,-0.146 0.104,-0.104 0.271,-0.062 0.417,-0.021 0.208,-0.021 h 0.583 l 0.209,0.042 0.187,0.041 0.209,0.084 0.125,0.041 0.208,0.105 0.146,0.104 0.146,0.125 0.146,0.146 0.146,0.125 0.125,0.166 0.104,0.146 0.083,0.167 0.104,0.188 0.125,0.375 0.042,0.208 0.021,0.188 L 1.417,-0.5 1.334,-0.313 1.209,-0.167 1.042,-0.042 0.854,0.042 0.667,0.083 0.479,0.104 0.271,0.062 Z M 2.542,-2.501 2.438,-2.646 2.188,-2.938 1.896,-3.188 1.75,-3.292 1.563,-3.397 1.438,-3.438 1.229,-3.563 1.104,-3.626 0.917,-3.709 0.708,-3.772 0.521,-3.834 0.333,-3.855 0.125,-3.897 -0.104,-3.918 -0.354,-3.959 -0.542,-3.98 h -0.187 l -0.375,0.042 -0.375,0.02 -0.188,0.021 -0.563,0.125 H -2.375 L -2.48,-3.855 -2.521,-4.001 v -0.187 l -0.021,-0.209 v -0.354 l 0.021,-0.208 0.041,-0.167 0.125,-0.375 0.209,-0.334 0.125,-0.145 0.125,-0.125 0.333,-0.209 0.209,-0.062 0.187,-0.063 0.146,-0.021 0.188,-0.041 0.187,-0.021 h 0.208 l 0.188,0.021 0.542,0.104 0.187,0.042 0.188,0.062 0.167,0.063 0.354,0.145 0.333,0.167 0.292,0.229 0.146,0.104 0.146,0.126 0.291,0.27 0.25,0.292 0.105,0.146 0.125,0.167 0.208,0.291 0.104,0.167 0.083,0.167 0.105,0.167 0.083,0.166 0.104,0.146 0.084,0.167 0.083,0.187 0.083,0.167 0.105,0.167 0.145,0.104 H 4.251 L 4.438,-2.813 4.543,-3.001 4.522,-3.188 4.438,-3.376 4.334,-3.605 4.209,-3.834 4.105,-4.063 3.98,-4.293 3.855,-4.501 3.647,-4.834 3.584,-4.959 3.459,-5.147 3.251,-5.439 3.126,-5.585 3.001,-5.71 2.876,-5.855 2.73,-6.022 2.667,-6.105 2.521,-6.272 2.396,-6.418 2.105,-6.668 1.896,-6.835 1.709,-7.001 1.375,-7.21 0.854,-7.439 0.688,-7.502 0.5,-7.564 0.229,-7.606 -0.021,-7.668 -0.458,-7.71 -0.729,-7.731 -0.958,-7.752 h -0.188 l -0.75,0.084 -0.167,0.041 -0.187,0.063 -0.188,0.083 -0.167,0.084 -0.333,0.187 -0.167,0.084 -0.146,0.125 -0.146,0.145 -0.083,0.105 -0.146,0.166 -0.125,0.146 -0.104,0.167 -0.083,0.146 -0.084,0.187 -0.062,0.167 -0.063,0.187 -0.041,0.188 -0.042,0.167 -0.042,0.187 -0.062,0.563 v 0.396 l 0.021,0.187 v 0.188 l 0.125,0.563 0.062,0.166 0.042,0.188 0.062,0.187 0.042,0.188 0.063,0.187 0.083,0.23 0.104,0.25 0.104,0.187 0.125,0.229 0.146,0.209 0.084,0.187 0.104,0.146 0.125,0.146 0.312,0.333 0.313,0.313 0.167,0.146 0.187,0.146 0.209,0.146 0.187,0.145 0.208,0.125 0.209,0.105 0.187,0.083 0.271,0.125 0.438,0.146 0.375,0.083 0.271,0.042 H 0.75 L 1.021,1.25 1.354,1.188 1.625,1.125 1.813,1.063 2,0.979 2.167,0.896 2.292,0.813 2.584,0.563 2.709,0.417 2.834,0.208 2.938,-0.042 3.001,-0.229 3.042,-0.417 3.063,-0.604 v -0.25 L 3.042,-1.125 3.021,-1.334 2.959,-1.584 2.876,-1.834 2.792,-2.042 2.73,-2.146 2.626,-2.334 Z"
               style="fill:#bbb9ea;fill-opacity:1;fill-rule:nonzero;stroke:none"
               id="path6357" />
          </g>
          <g
             id="g6363"
             transform="matrix(2.4402871,0,0,-2.4402871,379.96018,-914.21139)"
             style="fill:#bbb9ea;fill-opacity:1">
            <path
               inkscape:connector-curvature="0"
               d="M 0,0 V -0.229 L -0.083,-0.438 -0.333,-0.896 -0.417,-1.084 -0.5,-1.25 -0.708,-1.584 -0.792,-1.729 -0.896,-1.896 -1.063,-2.209 -1.146,-2.355 -1.271,-2.542 -1.521,-2.834 -1.625,-3.001 -1.73,-3.146 -1.855,-3.292 -2.25,-3.688 -2.542,-3.917 -2.834,-4.167 -3.001,-4.292 -3.23,-4.418 -3.48,-4.522 -3.667,-4.605 -3.855,-4.668 -4.022,-4.709 -4.209,-4.73 h -0.584 l -0.187,0.021 -0.188,0.041 -0.25,0.084 -0.229,0.104 -0.167,0.104 -0.291,0.25 -0.105,0.146 -0.104,0.167 -0.166,0.333 -0.063,0.167 -0.063,0.187 -0.041,0.188 -0.042,0.167 v 0.187 l -0.021,0.188 v 0.187 L -6.731,-2 v 0.187 l 0.063,0.563 v 0.187 l 0.104,0.938 0.042,0.187 0.021,0.188 0.083,0.375 0.063,0.271 0.062,0.25 0.042,0.188 0.062,0.187 0.042,0.188 0.062,0.187 0.042,0.188 0.042,0.25 0.083,0.271 0.125,0.375 v 0.166 l -0.062,0.105 -0.146,0.041 -0.167,0.021 -0.208,0.042 -0.209,0.083 -0.146,0.188 -0.041,0.187 -0.021,0.209 0.042,0.166 0.083,0.146 0.146,0.104 0.271,0.021 0.312,-0.021 h 0.313 l 0.208,0.063 0.084,0.146 0.041,0.208 0.042,0.167 0.062,0.187 0.084,0.167 0.083,0.188 0.063,0.166 0.125,0.375 0.083,0.376 0.063,0.187 0.083,0.167 0.125,0.375 0.062,0.167 0.084,0.187 0.062,0.188 0.063,0.166 0.062,0.188 0.084,0.167 0.083,0.187 0.042,0.167 0.062,0.187 0.084,0.188 0.104,0.146 0.166,0.104 0.188,0.042 0.208,-0.021 0.25,-0.042 L -2.605,9.169 -2.417,9.064 -2.25,8.918 -2.188,8.689 -2.23,8.502 -2.334,8.231 -2.459,7.939 -2.563,7.668 -2.626,7.46 -2.667,7.335 -2.73,7.126 -2.959,6.439 -3.021,6.272 -3.084,6.085 -3.167,5.814 -3.292,5.501 -3.438,5.064 -3.48,4.876 -3.563,4.709 -3.626,4.543 V 4.397 l 0.125,-0.104 0.23,-0.042 h 0.208 l 0.354,0.021 0.292,0.021 h 0.646 L -1.5,4.272 -1.354,4.147 -1.313,3.917 V 3.647 L -1.375,3.459 -1.479,3.313 -1.625,3.209 -1.813,3.146 -2,3.105 -2.209,3.084 -2.771,3.063 h -0.23 L -3.188,3.084 H -3.959 L -4.084,3.001 -4.147,2.834 -4.23,2.584 -4.313,2.25 -4.397,1.896 -4.501,1.563 -4.584,1.209 -4.668,0.875 -4.73,0.583 -4.751,0.458 -4.814,0.167 l -0.062,-0.23 -0.062,-0.208 -0.084,-0.375 -0.021,-0.25 -0.041,-0.271 -0.042,-0.375 v -0.583 l 0.042,-0.271 0.041,-0.25 0.063,-0.188 0.083,-0.187 0.104,-0.146 0.23,-0.146 0.291,-0.125 0.23,-0.042 h 0.208 l 0.229,0.042 0.5,0.25 0.584,0.5 0.146,0.146 0.104,0.125 0.208,0.271 0.271,0.333 0.104,0.146 0.083,0.167 0.105,0.166 0.125,0.167 0.104,0.146 0.104,0.167 0.083,0.166 0.063,0.188 0.104,0.208 0.104,0.167 0.125,0.208 0.25,0.167 0.271,-0.042 z"
               style="fill:#bbb9ea;fill-opacity:1;fill-rule:nonzero;stroke:none"
               id="path6361" />
          </g>
          <g
             id="g6367"
             transform="matrix(2.4402871,0,0,-2.4402871,403.19809,-912.73668)"
             style="fill:#bbb9ea;fill-opacity:1">
            <path
               inkscape:connector-curvature="0"
               d="M 0,0 -0.042,-0.104 -0.146,-0.313 -0.25,-0.458 -0.333,-0.625 -0.417,-0.813 -0.5,-0.979 -0.708,-1.313 -0.813,-1.459 -0.917,-1.625 -1,-1.792 l -0.104,-0.167 -0.125,-0.146 -0.125,-0.166 -0.125,-0.146 -0.23,-0.292 -0.125,-0.146 -0.125,-0.125 -0.583,-0.5 -0.167,-0.104 -0.187,-0.104 -0.23,-0.104 -0.25,-0.105 -0.187,-0.062 -0.188,-0.042 h -0.208 l -0.25,0.021 -0.25,0.063 -0.188,0.062 -0.146,0.104 -0.145,0.125 -0.146,0.209 -0.146,0.229 -0.063,0.187 -0.062,0.25 -0.021,0.271 v 0.209 l 0.021,0.271 0.021,0.25 -0.063,0.041 -0.104,-0.146 -0.208,-0.333 -0.209,-0.292 -0.125,-0.146 -0.104,-0.145 -0.125,-0.146 -0.104,-0.146 -0.146,-0.125 -0.125,-0.125 -0.146,-0.125 -0.146,-0.104 -0.167,-0.105 -0.229,-0.145 -0.312,-0.146 -0.334,-0.105 -0.271,-0.062 -0.375,-0.042 -0.208,0.021 -0.25,0.042 -0.25,0.062 -0.188,0.063 -0.166,0.062 -0.146,0.105 -0.292,0.25 -0.104,0.145 -0.104,0.167 -0.125,0.229 -0.125,0.313 -0.063,0.271 -0.021,0.208 -0.041,0.271 -0.021,0.334 v 0.27 l 0.021,0.209 0.02,0.271 0.042,0.25 0.063,0.208 0.062,0.25 0.063,0.271 0.062,0.188 0.084,0.166 0.062,0.188 0.5,1 0.104,0.167 0.104,0.146 0.105,0.166 0.208,0.292 0.125,0.146 0.271,0.312 0.083,0.084 0.146,0.166 0.292,0.251 0.187,0.187 0.23,0.167 0.291,0.229 0.167,0.104 0.146,0.104 0.187,0.084 0.25,0.104 0.23,0.125 0.208,0.104 0.25,0.083 0.25,0.063 0.209,0.062 0.52,0.042 0.188,0.021 h 0.25 L -4.334,4.855 -3.855,4.813 -3.397,4.73 -3.209,4.688 -2.98,4.626 -2.146,4.251 -2,4.126 -1.854,4.022 -1.709,3.897 -1.584,3.751 -1.542,3.521 -1.625,3.23 -1.854,2.98 -2.084,2.834 -2.25,2.813 -2.417,2.876 -2.584,3.001 -2.771,3.105 -2.938,3.209 -3.084,3.271 -3.251,3.355 -3.438,3.438 -3.605,3.48 -3.959,3.563 -4.167,3.626 -4.376,3.667 H -4.793 L -4.938,3.646 -5.147,3.626 -5.418,3.563 -5.939,3.376 -6.147,3.271 -6.355,3.146 -6.501,3.042 -6.668,2.938 -6.814,2.834 -6.96,2.709 -7.126,2.563 -7.21,2.48 -7.356,2.313 -7.481,2.167 -7.585,2.021 -7.835,1.729 -7.939,1.584 -8.043,1.417 -8.293,0.917 -8.397,0.75 -8.522,0.375 -8.606,0.187 -8.689,0.021 -8.814,-0.542 -8.877,-0.75 -8.939,-1.313 v -0.583 l 0.021,-0.209 0.062,-0.187 0.083,-0.167 0.105,-0.167 0.125,-0.125 0.187,-0.083 0.25,-0.042 0.271,0.021 0.188,0.063 0.333,0.166 0.292,0.251 0.125,0.125 0.146,0.125 0.125,0.145 0.104,0.146 0.125,0.146 0.104,0.146 0.229,0.313 0.104,0.145 0.313,0.501 0.125,0.229 0.146,0.271 0.083,0.125 0.25,0.541 0.084,0.188 0.041,0.146 0.084,0.187 0.062,0.167 0.063,0.188 0.083,0.229 0.125,0.417 0.084,0.229 0.062,0.208 0.125,0.188 0.208,0.104 0.188,0.042 L -3.646,2.855 -3.459,2.813 -3.126,2.646 -2.959,2.542 -2.876,2.417 -2.855,2.23 -2.917,2.063 -2.959,1.875 -3.021,1.688 -3.105,1.313 -3.167,1.125 -3.209,0.958 -3.334,0.583 -3.376,0.375 -3.397,0.25 -3.459,0 -3.501,-0.188 -3.584,-0.542 -3.646,-0.792 -3.688,-1 -3.73,-1.229 l -0.062,-0.313 -0.063,-0.354 -0.021,-0.313 0.021,-0.271 0.104,-0.166 0.209,-0.105 0.312,-0.02 0.25,0.083 0.188,0.104 0.291,0.209 0.146,0.145 0.25,0.271 0.251,0.292 0.208,0.292 0.104,0.166 0.125,0.167 0.042,0.125 0.333,0.5 0.084,0.167 0.104,0.167 L -0.438,0.75 -0.25,0.854 0,0.813 0.167,0.604 0.188,0.396 0.104,0.208 Z"
               style="fill:#bbb9ea;fill-opacity:1;fill-rule:nonzero;stroke:none"
               id="path6365" />
          </g>
          <g
             id="g6371"
             transform="matrix(2.4402871,0,0,-2.4402871,405.58799,-929.72054)"
             style="fill:#bbb9ea;fill-opacity:1">
            <path
               inkscape:connector-curvature="0"
               d="M 0,0 0.104,0.167 0.271,0.313 0.438,0.417 0.646,0.479 0.834,0.521 H 1.042 L 1.229,0.479 1.396,0.375 1.542,0.25 1.688,0.104 1.792,-0.063 1.855,-0.25 1.875,-0.438 V -0.646 L 1.813,-0.833 1.709,-1 1.584,-1.167 1.438,-1.292 1.271,-1.417 1.084,-1.5 0.875,-1.542 l -0.187,0.021 -0.209,0.042 -0.333,0.208 -0.125,0.146 -0.104,0.166 -0.042,0.188 -0.021,0.188 0.021,0.187 0.042,0.208 z M 3.355,-6.397 V -6.626 L 3.292,-6.814 3.126,-7.147 2.938,-7.46 2.834,-7.647 2.751,-7.814 2.626,-8.002 2.563,-8.127 2.459,-8.314 2.355,-8.481 2.25,-8.627 2.125,-8.793 2.021,-8.939 1.813,-9.273 1.438,-9.71 l -0.25,-0.271 -0.146,-0.146 -0.125,-0.146 -0.146,-0.125 -0.458,-0.354 -0.146,-0.104 -0.188,-0.084 -0.187,-0.062 -0.167,-0.042 -0.375,-0.083 h -0.354 l -0.23,0.021 -0.166,0.062 -0.188,0.063 -0.166,0.104 -0.146,0.125 -0.105,0.146 -0.104,0.166 -0.083,0.188 -0.042,0.167 -0.041,0.187 -0.021,0.188 v 0.187 l 0.041,0.375 0.042,0.188 0.063,0.187 0.083,0.375 0.062,0.167 0.042,0.188 0.063,0.187 0.062,0.167 0.188,0.563 0.02,0.166 0.042,0.188 0.063,0.187 0.041,0.188 0.042,0.167 0.125,0.375 0.063,0.25 0.062,0.271 0.125,0.375 0.042,0.187 0.041,0.146 0.042,0.188 0.084,0.208 0.062,0.167 0.125,0.562 0.063,0.188 0.062,0.25 0.083,0.271 0.063,0.187 0.083,0.167 0.125,0.104 0.188,0.084 0.167,0.02 0.208,-0.02 0.375,-0.042 0.333,-0.125 0.105,-0.146 V -2.751 L 1.042,-2.938 0.979,-3.188 0.917,-3.459 0.792,-3.834 0.75,-4.001 0.708,-4.188 0.646,-4.397 0.583,-4.647 0.375,-5.272 0.333,-5.459 0.25,-5.73 0.104,-6.168 0.063,-6.355 0.021,-6.522 -0.021,-6.71 l -0.146,-0.354 -0.041,-0.187 -0.146,-0.521 -0.125,-0.375 -0.042,-0.188 -0.062,-0.271 -0.063,-0.333 -0.042,-0.355 0.042,-0.312 0.167,-0.229 0.229,-0.063 0.188,0.021 0.187,0.083 0.146,0.104 0.167,0.126 0.687,0.687 0.125,0.146 0.104,0.146 0.125,0.167 0.209,0.333 0.125,0.146 0.083,0.125 0.104,0.167 0.125,0.187 0.084,0.188 0.166,0.354 0.251,0.5 0.104,0.167 0.187,0.104 0.271,-0.042 z"
               style="fill:#bbb9ea;fill-opacity:1;fill-rule:nonzero;stroke:none"
               id="path6369" />
          </g>
          <g
             id="g6375"
             transform="matrix(2.4402871,0,0,-2.4402871,418.6565,-926.16097)"
             style="fill:#bbb9ea;fill-opacity:1">
            <path
               inkscape:connector-curvature="0"
               d="m 0,0 -0.292,-0.875 -0.041,-0.188 -0.063,-0.187 -0.083,-0.271 -0.146,-0.438 -0.063,-0.208 -0.02,-0.125 -0.063,-0.209 -0.062,-0.187 -0.042,-0.208 0.042,-0.125 0.125,0.083 0.208,0.167 0.854,0.854 0.104,0.146 0.105,0.167 0.125,0.187 0.083,0.083 0.125,0.188 0.146,0.187 0.146,0.209 0.146,0.229 0.104,0.167 0.083,0.146 0.104,0.145 L 1.792,0.271 1.875,0.479 1.938,0.604 2.021,0.813 2.105,1 2.146,1.188 2.209,1.375 2.271,1.604 2.355,1.834 2.417,2.063 2.501,2.292 2.521,2.5 2.542,2.688 V 3.084 L 2.501,3.251 2.438,3.417 2.292,3.522 2.125,3.563 1.938,3.522 1.75,3.376 1.604,3.251 1.5,3.126 1.396,2.98 1.292,2.813 1.084,2.5 0.979,2.313 0.896,2.125 0.813,1.959 0.729,1.771 0.646,1.604 0.563,1.417 0.5,1.25 0.417,1.021 0.292,0.708 0.208,0.521 Z M 3.459,0.583 3.355,0.396 3.188,0.062 3.084,-0.167 2.938,-0.396 2.834,-0.542 2.73,-0.708 2.626,-0.854 2.521,-1.042 2.438,-1.167 2.334,-1.334 2.188,-1.521 2,-1.73 1.813,-1.917 1.73,-2.021 1.584,-2.188 1.313,-2.459 1.188,-2.605 0.959,-2.855 0.813,-2.98 0.646,-3.146 0.417,-3.313 0.104,-3.584 -0.062,-3.688 -0.521,-3.98 -0.667,-4.042 -0.833,-4.147 -1.063,-4.334 -1.209,-4.522 -1.292,-4.688 -1.334,-4.918 -1.396,-5.293 V -5.418 L -1.438,-5.626 -1.479,-5.814 -1.5,-6.022 V -6.46 l -0.021,-0.271 v -0.416 l 0.042,-0.23 0.02,-0.125 0.042,-0.208 0.083,-0.187 0.084,-0.167 0.125,-0.146 0.167,-0.104 0.166,-0.063 0.209,-0.041 h 0.354 l 0.167,0.02 0.187,0.063 0.25,0.104 0.229,0.125 0.167,0.125 0.208,0.167 0.188,0.187 0.25,0.23 0.167,0.146 0.125,0.166 0.083,0.104 0.125,0.167 0.083,0.146 0.125,0.187 0.084,0.105 0.125,0.187 0.167,0.313 0.104,0.166 0.125,0.188 0.104,0.188 0.104,0.208 0.188,0.271 0.208,0.167 0.271,-0.042 0.167,-0.208 V -5.147 L 3.709,-5.334 3.626,-5.501 3.522,-5.668 3.438,-5.855 3.355,-6.022 3.292,-6.189 3.188,-6.355 3.105,-6.501 3.001,-6.668 2.876,-6.856 2.834,-6.96 2.73,-7.147 2.605,-7.314 2.396,-7.606 2.25,-7.793 2.167,-7.877 2.021,-8.064 1.896,-8.21 1.73,-8.418 1.542,-8.585 1.396,-8.731 1.271,-8.835 1.125,-8.96 0.938,-9.064 0.771,-9.148 0.583,-9.231 0.417,-9.314 0.25,-9.377 0.063,-9.46 l -0.251,-0.084 -0.416,-0.083 -0.25,-0.021 -0.23,0.021 h -0.125 l -0.208,0.021 -0.188,0.042 -0.166,0.062 -0.188,0.063 -0.166,0.083 -0.167,0.104 -0.146,0.125 -0.125,0.125 -0.125,0.146 -0.083,0.167 -0.084,0.187 -0.062,0.167 -0.042,0.188 -0.062,0.187 -0.021,0.188 -0.042,0.208 v 0.125 l -0.042,0.229 -0.02,0.188 v 0.187 l 0.02,0.188 0.021,0.208 v 0.125 l 0.021,0.271 0.063,0.459 0.02,0.25 v 0.187 l 0.042,0.188 0.042,0.208 0.146,0.688 0.062,0.25 0.063,0.375 0.041,0.104 0.063,0.25 0.041,0.125 0.084,0.313 0.062,0.271 0.042,0.187 0.063,0.25 0.083,0.292 0.021,0.146 0.083,0.291 0.083,0.271 0.063,0.146 0.083,0.271 0.084,0.25 0.083,0.188 0.208,0.541 0.042,0.125 0.125,0.292 0.146,0.334 0.104,0.25 0.084,0.187 0.062,0.125 0.104,0.188 0.146,0.354 0.104,0.208 0.104,0.188 0.125,0.187 0.167,0.271 L 0.125,3.542 0.25,3.709 0.521,3.98 0.604,4.084 0.75,4.23 0.896,4.334 1.229,4.563 1.459,4.709 1.688,4.813 1.875,4.876 2.063,4.918 H 2.438 L 2.646,4.876 2.771,4.855 2.98,4.793 3.146,4.709 3.438,4.459 3.542,4.293 3.688,4.084 3.792,3.834 3.876,3.646 3.959,3.396 4.001,3.126 V 2.75 L 3.959,2.188 3.876,1.813 3.813,1.646 3.772,1.438 3.605,0.938 3.522,0.771 Z"
               style="fill:#bbb9ea;fill-opacity:1;fill-rule:nonzero;stroke:none"
               id="path6373" />
          </g>
          <g
             id="g6379"
             transform="matrix(2.4402871,0,0,-2.4402871,305.10678,-879.22032)"
             style="fill:#bbb9ea;fill-opacity:1">
            <path
               inkscape:connector-curvature="0"
               d="M 0,0 V 2.704 H -3.446 V 0 H -4.18 v 5.894 h 0.734 V 3.358 H 0 V 5.894 H 0.733 V 0 Z"
               style="fill:#bbb9ea;fill-opacity:1;fill-rule:nonzero;stroke:none"
               id="path6377" />
          </g>
          <g
             id="g6383"
             transform="matrix(2.4402871,0,0,-2.4402871,319.98639,-891.74948)"
             style="fill:#bbb9ea;fill-opacity:1">
            <path
               inkscape:connector-curvature="0"
               d="m 0,0 -1.255,-3.172 h 2.501 z m 1.988,-5.134 -0.521,1.308 h -2.934 l -0.521,-1.308 h -0.84 L -0.46,0.76 h 0.911 l 2.377,-5.894 z"
               style="fill:#bbb9ea;fill-opacity:1;fill-rule:nonzero;stroke:none"
               id="path6381" />
          </g>
          <g
             transform="matrix(2.4402871,0,0,-2.4402871,203.02989,949.32204)"
             id="g6411"
             style="fill:#bbb9ea;fill-opacity:1">
            <g
               id="g6409"
               clip-path="url(#clipPath7851-7-9-1)"
               style="fill:#bbb9ea;fill-opacity:1">
              <g
                 id="g6387"
                 transform="translate(52.7259,752.2571)"
                 style="fill:#bbb9ea;fill-opacity:1">
                <path
                   inkscape:connector-curvature="0"
                   d="m 0,0 c 0,1.812 1.334,3.049 3.031,3.049 1.043,0 1.767,-0.504 2.236,-1.167 L 4.648,1.538 C 4.312,2.033 3.703,2.395 3.031,2.395 1.741,2.395 0.76,1.405 0.76,0 c 0,-1.396 0.981,-2.395 2.271,-2.395 0.672,0 1.281,0.354 1.617,0.857 L 5.276,-1.882 C 4.781,-2.554 4.074,-3.049 3.031,-3.049 1.334,-3.049 0,-1.812 0,0"
                   style="fill:#bbb9ea;fill-opacity:1;fill-rule:nonzero;stroke:none"
                   id="path6385" />
              </g>
              <g
                 id="g6391"
                 transform="translate(64.2669,749.3144)"
                 style="fill:#bbb9ea;fill-opacity:1">
                <path
                   inkscape:connector-curvature="0"
                   d="M 0,0 -2.236,2.651 -2.828,1.979 V 0 h -0.733 v 5.894 h 0.733 V 2.846 l 2.607,3.048 H 0.698 L -1.759,3.093 0.91,0 Z"
                   style="fill:#bbb9ea;fill-opacity:1;fill-rule:nonzero;stroke:none"
                   id="path6389" />
              </g>
              <g
                 id="g6395"
                 transform="translate(67.7841,749.3144)"
                 style="fill:#bbb9ea;fill-opacity:1">
                <path
                   inkscape:connector-curvature="0"
                   d="M 0,0 V 5.894 H 3.862 V 5.24 H 0.733 V 3.34 H 3.8 V 2.686 H 0.733 V 0.654 H 3.862 V 0 Z"
                   style="fill:#bbb9ea;fill-opacity:1;fill-rule:nonzero;stroke:none"
                   id="path6393" />
              </g>
              <g
                 id="g6399"
                 transform="translate(78.0349,753.4324)"
                 style="fill:#bbb9ea;fill-opacity:1">
                <path
                   inkscape:connector-curvature="0"
                   d="m 0,0 c 0,0.663 -0.477,1.122 -1.175,1.122 h -1.547 v -2.253 h 1.547 C -0.477,-1.131 0,-0.663 0,0 m -0.044,-4.118 -1.503,2.342 h -1.175 v -2.342 h -0.733 v 5.894 h 2.368 C -0.009,1.776 0.76,1.087 0.76,0 c 0,-1.06 -0.725,-1.644 -1.529,-1.714 l 1.591,-2.404 z"
                   style="fill:#bbb9ea;fill-opacity:1;fill-rule:nonzero;stroke:none"
                   id="path6397" />
              </g>
              <g
                 id="g6403"
                 transform="translate(81.3663,750.1451)"
                 style="fill:#bbb9ea;fill-opacity:1">
                <path
                   inkscape:connector-curvature="0"
                   d="m 0,0 0.433,0.557 c 0.389,-0.433 1.025,-0.84 1.856,-0.84 1.051,0 1.387,0.566 1.387,1.016 0,0.707 -0.716,0.902 -1.493,1.114 -0.946,0.247 -1.997,0.512 -1.997,1.67 0,0.972 0.866,1.635 2.023,1.635 0.902,0 1.6,-0.3 2.095,-0.822 L 3.862,3.791 C 3.42,4.277 2.801,4.498 2.156,4.498 1.449,4.498 0.946,4.118 0.946,3.561 0.946,2.969 1.626,2.793 2.377,2.589 3.34,2.333 4.436,2.032 4.436,0.795 4.436,-0.062 3.853,-0.937 2.262,-0.937 1.237,-0.937 0.486,-0.548 0,0"
                   style="fill:#bbb9ea;fill-opacity:1;fill-rule:nonzero;stroke:none"
                   id="path6401" />
              </g>
              <g
                 id="g6407"
                 transform="translate(91.2906,739.0006)"
                 style="fill:#bbb9ea;fill-opacity:1">
                <path
                   inkscape:connector-curvature="0"
                   d="m 0,3.4293329 c -1.716,0.372 -3.856,0.562 -6.36,0.562 -9.16,0 -20.538,-2.531 -20.672,-2.562 l -0.403,-0.162 c 0.012,0.098 0.026,0.227 0.044,0.395 0.094,0.847 0.27,2.423 0.531,2.945 l 0.08,0.158 -0.175,0.035 c -0.643,0.129 -1.057,-0.089 -1.456,-0.772 -0.177,0.066 -0.381,0.1 -0.607,0.1 -0.118,0 -0.232,-0.009 -0.336,-0.023 -0.105,0.014 -0.219,0.023 -0.336,0.023 -0.227,0 -0.43,-0.034 -0.607,-0.1 -0.4,0.683 -0.814,0.901 -1.457,0.772 l -0.174,-0.035 0.08,-0.159 c 0.261,-0.521 0.436,-2.097 0.53,-2.944 0.018,-0.169 0.033,-0.298 0.045,-0.395 l -0.424,0.168 c -0.114,0.025 -11.492,2.556 -20.652,2.556 -2.504,0 -4.644,-0.19 -6.36,-0.562 l -0.606,-0.131 0.606,-0.134 c 4.229,-0.932 6.716,-2.36399999 7.192,-4.14000002 l 0.05,-0.18399998 0.158,0.107 c 0.427,0.29099998 1.151,0.45799998 1.985,0.45799998 1.855,0 3.819,-0.80899998 3.985,-2.35399998 l 0.017,-0.159 0.155,0.043 c 1.311,0.362 3.294,0.845 5.37,0.845 4.562,0 7.663,-2.373 9.226,-7.0560005 0.066,-0.1959999 -0.453,-0.7239999 -0.515,-0.9940004 -0.011,-0.044 0.026,-0.086 0.071,-0.087 h 0.564 c 0.122,0 0.227,-0.084 0.254,-0.203 l 0.763,-3.306 c 0.019,-0.085 0.14,-0.085 0.159,0 l 0.762,3.305 c 0.028,0.119 0.134,0.203 0.256,0.202 l 0.537,-0.003 c 0.046,0 0.084,0.041 0.074,0.086 -0.06,0.274 -0.558,0.8030005 -0.493,0.9980004 1.563,4.6840005 4.664,7.0580005 9.228,7.0580005 2.075,0 4.058,-0.483 5.369,-0.845 l 0.155,-0.043 0.016,0.159 c 0.166,1.545 2.131,2.35399998 3.986,2.35399998 0.835,0 1.558,-0.167 1.986,-0.45799998 l 0.157,-0.107 0.049,0.18399998 C -6.716,0.80033291 -4.229,2.2323329 0,3.1643329 l 0.606,0.134 z"
                   style="fill:#bbb9ea;fill-opacity:1;fill-rule:nonzero;stroke:none"
                   id="path6405" />
              </g>
            </g>
          </g>
        </g>
      </g>
    </g>
    <g
       style="fill:#bbb9ea;fill-opacity:1"
       transform="matrix(0.38472593,0,0,0.38472593,-7693.4185,-694.38206)"
       id="g14098">
      <g
         style="fill:#bbb9ea;fill-opacity:1"
         id="g14088">
        <path
           style="fill:#bbb9ea;fill-opacity:1"
           inkscape:connector-curvature="0"
           d="m 213.2,74.3 -3.6,10.2 h -0.3 c -0.6,-2.3 -1.7,-5.8 -3.5,-10 L 186.5,26 h -18.9 v 77.3 h 12.5 V 55.6 c 0,-3 0,-6.4 -0.1,-10.6 -0.1,-2.1 -0.3,-3.7 -0.4,-4.9 h 0.3 c 0.6,3 1.3,5.2 1.8,6.6 l 23.2,56.4 h 8.8 l 23,-56.9 c 0.5,-1.3 1,-3.9 1.5,-6.1 h 0.3 c -0.3,5.7 -0.5,10.8 -0.6,13.9 v 49 h 13.3 V 25.8 H 233 Z m 50.6,-26.7 h 13 V 103 h -13 z m 6.6,-23.4 c -2.2,0 -4,0.8 -5.5,2.2 -1.5,1.4 -2.3,3.2 -2.3,5.4 0,2.1 0.8,3.9 2.3,5.3 1.5,1.4 3.3,2.1 5.5,2.1 2.2,0 4.1,-0.8 5.5,-2.1 1.5,-1.4 2.3,-3.2 2.3,-5.3 0,-2.1 -0.8,-3.9 -2.3,-5.4 -1.3,-1.4 -3.2,-2.2 -5.5,-2.2 m 52.5,22.9 c -2.4,-0.5 -4.9,-0.8 -7.3,-0.8 -5.9,0 -11.3,1.3 -15.8,3.9 -4.5,2.6 -8.1,6.2 -10.4,10.7 -2.4,4.6 -3.6,9.9 -3.6,16 0,5.3 1.2,10 3.5,14.3 2.3,4.2 5.5,7.6 9.8,9.9 4.1,2.3 8.9,3.5 14.3,3.5 6.2,0 11.5,-1.3 15.7,-3.7 l 0.1,-0.1 v -12 l -0.5,0.4 c -1.9,1.4 -4.1,2.6 -6.3,3.3 -2.3,0.8 -4.4,1.2 -6.2,1.2 -5.2,0 -9.3,-1.5 -12.2,-4.8 -3,-3.2 -4.5,-7.6 -4.5,-13.1 0,-5.7 1.5,-10.2 4.6,-13.5 3.1,-3.3 7.2,-5 12.2,-5 4.2,0 8.5,1.4 12.4,4.2 l 0.5,0.4 V 49.2 l -0.1,-0.1 c -1.7,-0.7 -3.6,-1.5 -6.2,-2 m 42.9,-0.4 c -3.2,0 -6.2,1 -8.8,3.1 -2.2,1.8 -3.7,4.4 -5,7.5 h -0.1 v -9.7 h -13 V 103 h 13 V 74.7 c 0,-4.8 1,-8.8 3.2,-11.7 2.2,-3 5,-4.5 8.4,-4.5 1.2,0 2.4,0.3 3.9,0.5 1.4,0.4 2.4,0.8 3.1,1.3 l 0.5,0.4 v -13 l -0.3,-0.1 C 369.8,47 368,46.7 365.8,46.7 m 35.4,-0.3 c -9.1,0 -16.4,2.7 -21.5,8 -5.2,5.3 -7.7,12.6 -7.7,21.8 0,8.6 2.6,15.6 7.6,20.7 5,5 11.8,7.6 20.3,7.6 8.9,0 16,-2.7 21.1,-8.1 5.2,-5.4 7.7,-12.6 7.7,-21.5 0,-8.8 -2.4,-15.8 -7.3,-20.9 -4.7,-5.1 -11.6,-7.6 -20.2,-7.6 M 411.6,89 c -2.4,3.1 -6.2,4.6 -10.9,4.6 -4.7,0 -8.5,-1.5 -11.2,-4.8 -2.7,-3.1 -4,-7.6 -4,-13.3 0,-5.9 1.4,-10.4 4,-13.6 2.7,-3.2 6.4,-4.8 11.1,-4.8 4.6,0 8.2,1.5 10.8,4.6 2.6,3.1 4,7.6 4,13.5 -0.2,6 -1.3,10.7 -3.8,13.8 m 46.1,-18.4 c -4.1,-1.7 -6.7,-3 -7.9,-4.1 -1,-1 -1.5,-2.4 -1.5,-4.2 0,-1.5 0.6,-3 2.1,-4 1.5,-1 3.2,-1.5 5.7,-1.5 2.2,0 4.5,0.4 6.7,1 2.2,0.6 4.2,1.5 5.8,2.7 l 0.5,0.4 V 48.7 l -0.3,-0.1 c -1.5,-0.6 -3.5,-1.2 -5.9,-1.7 -2.4,-0.4 -4.6,-0.6 -6.4,-0.6 -6.2,0 -11.3,1.5 -15.3,4.8 -4,3.1 -5.9,7.3 -5.9,12.2 0,2.6 0.4,4.9 1.3,6.8 0.9,1.9 2.2,3.7 4,5.2 1.8,1.4 4.4,3 8,4.5 3,1.3 5.3,2.3 6.7,3.1 1.4,0.8 2.3,1.7 3,2.4 0.5,0.8 0.8,1.8 0.8,3.1 0,3.7 -2.8,5.5 -8.5,5.5 -2.2,0 -4.5,-0.4 -7.2,-1.3 -2.7,-0.9 -5.2,-2.2 -7.3,-3.7 l -0.5,-0.4 v 12.7 l 0.3,0.1 c 1.9,0.9 4.2,1.5 7,2.2 2.8,0.5 5.3,0.9 7.5,0.9 6.7,0 12.2,-1.5 16.1,-4.8 4,-3.2 6.1,-7.3 6.1,-12.6 0,-3.7 -1,-7 -3.2,-9.5 -2.9,-2.4 -6.5,-4.9 -11.7,-6.9 m 49.2,-24.2 c -9.1,0 -16.4,2.7 -21.5,8 -5.1,5.3 -7.7,12.6 -7.7,21.8 0,8.6 2.6,15.6 7.6,20.7 5,5 11.8,7.6 20.3,7.6 8.9,0 16,-2.7 21.1,-8.1 5.2,-5.4 7.7,-12.6 7.7,-21.5 0,-8.8 -2.4,-15.8 -7.3,-20.9 -4.7,-5.1 -11.6,-7.6 -20.2,-7.6 M 517.2,89 c -2.4,3.1 -6.2,4.6 -10.9,4.6 -4.8,0 -8.5,-1.5 -11.2,-4.8 -2.7,-3.1 -4,-7.6 -4,-13.3 0,-5.9 1.4,-10.4 4,-13.6 2.7,-3.2 6.4,-4.8 11.1,-4.8 4.5,0 8.2,1.5 10.8,4.6 2.6,3.1 4,7.6 4,13.5 0,6 -1.3,10.7 -3.8,13.8"
           id="path14084" />
        <path
           style="fill:#bbb9ea;fill-opacity:1"
           inkscape:connector-curvature="0"
           d="M 603.9,58.3 V 47.6 H 590.8 V 31.2 l -0.4,0.1 -12.4,3.7 -0.3,0.1 v 12.5 h -19.6 v -7 c 0,-3.2 0.8,-5.7 2.2,-7.3 1.4,-1.6 3.5,-2.4 6.1,-2.4 1.8,0 3.7,0.4 5.8,1.3 l 0.5,0.3 V 21.2 l -0.3,-0.1 c -1.8,-0.6 -4.2,-1 -7.3,-1 -3.9,0 -7.3,0.9 -10.4,2.4 -3.1,1.7 -5.4,4 -7.1,7.1 -1.7,3 -2.6,6.4 -2.6,10.3 v 7.7 h -9.1 V 58.2 H 545 V 103 h 13.1 V 58.3 h 19.6 v 28.5 c 0,11.7 5.5,17.6 16.5,17.6 1.8,0 3.7,-0.3 5.5,-0.6 1.9,-0.4 3.3,-0.9 4.1,-1.3 l 0.1,-0.1 V 91.7 l -0.5,0.4 c -0.8,0.5 -1.5,0.9 -2.7,1.2 -1,0.3 -1.9,0.4 -2.6,0.4 -2.6,0 -4.4,-0.6 -5.7,-2.1 -1.2,-1.4 -1.8,-3.7 -1.8,-7.1 V 58.3 Z"
           id="path14086" />
      </g>
      <path
         style="fill:#bbb9ea;fill-opacity:1"
         inkscape:connector-curvature="0"
         d="M 0,0 H 61.3 V 61.3 H 0 Z"
         id="path14090" />
      <path
         style="fill:#bbb9ea;fill-opacity:1"
         inkscape:connector-curvature="0"
         d="M 67.7,0 H 129 V 61.3 H 67.7 Z"
         id="path14092" />
      <path
         style="fill:#bbb9ea;fill-opacity:1"
         inkscape:connector-curvature="0"
         d="M 0,67.7 H 61.3 V 129 H 0 Z"
         id="path14094" />
      <path
         style="fill:#bbb9ea;fill-opacity:1"
         inkscape:connector-curvature="0"
         d="M 67.7,67.7 H 129 V 129 H 67.7 Z"
         id="path14096" />
    </g>
    <text
       xml:space="preserve"
       style="font-style:normal;font-weight:normal;font-size:24.6239357px;line-height:1.25;font-family:sans-serif;letter-spacing:0px;word-spacing:0px;fill:#bbb9ea;fill-opacity:1;stroke:none;stroke-width:0.61559838"
       x="-7703.9111"
       y="-937.30658"
       id="text5303"><tspan
         sodipodi:role="line"
         id="tspan5301"
         x="-7703.9111"
         y="-937.30658"
         style="fill:#bbb9ea;fill-opacity:1;stroke-width:0.61559838">BROUGHT TO YOU BY</tspan></text>
  </g>
</svg>
