<?xml version="1.0" encoding="UTF-8" standalone="no"?>
<!-- Created with Inkscape (http://www.inkscape.org/) -->

<svg
   xmlns:dc="http://purl.org/dc/elements/1.1/"
   xmlns:cc="http://creativecommons.org/ns#"
   xmlns:rdf="http://www.w3.org/1999/02/22-rdf-syntax-ns#"
   xmlns:svg="http://www.w3.org/2000/svg"
   xmlns="http://www.w3.org/2000/svg"
   xmlns:xlink="http://www.w3.org/1999/xlink"
   xmlns:sodipodi="http://sodipodi.sourceforge.net/DTD/sodipodi-0.dtd"
   xmlns:inkscape="http://www.inkscape.org/namespaces/inkscape"
   width="2022.8131mm"
   height="778.27576mm"
   viewBox="0 0 2022.8131 778.27576"
   version="1.1"
   id="svg9597"
   inkscape:version="0.92.1 r15371"
   sodipodi:docname="nancy.svg">
  <defs
     id="defs9591">
    <linearGradient
       inkscape:collect="always"
       xlink:href="#linearGradient7330"
       id="linearGradient10371"
       gradientUnits="userSpaceOnUse"
       gradientTransform="matrix(4.3068218,0,0,4.3068218,-626.9883,-1491.2814)"
       x1="-83.851128"
       y1="308.72525"
       x2="337.6037"
       y2="310.57724" />
    <linearGradient
       id="linearGradient7330"
       inkscape:collect="always">
      <stop
         id="stop7326"
         offset="0"
         style="stop-color:#ff0066;stop-opacity:1;" />
      <stop
         id="stop7328"
         offset="1"
         style="stop-color:#ffb32a;stop-opacity:1" />
    </linearGradient>
  </defs>
  <sodipodi:namedview
     id="base"
     pagecolor="#ffffff"
     bordercolor="#666666"
     borderopacity="1.0"
     inkscape:pageopacity="0.0"
     inkscape:pageshadow="2"
     inkscape:zoom="0.04375"
     inkscape:cx="-5329.8864"
     inkscape:cy="-789.13192"
     inkscape:document-units="mm"
     inkscape:current-layer="layer1"
     showgrid="false"
     fit-margin-top="0"
     fit-margin-left="0"
     fit-margin-right="0"
     fit-margin-bottom="0"
     inkscape:window-width="1920"
     inkscape:window-height="1001"
     inkscape:window-x="-9"
     inkscape:window-y="-9"
     inkscape:window-maximized="1" />
  <metadata
     id="metadata9594">
    <rdf:RDF>
      <cc:Work
         rdf:about="">
        <dc:format>image/svg+xml</dc:format>
        <dc:type
           rdf:resource="http://purl.org/dc/dcmitype/StillImage" />
        <dc:title></dc:title>
      </cc:Work>
    </rdf:RDF>
  </metadata>
  <g
     inkscape:label="Layer 1"
     inkscape:groupmode="layer"
     id="layer1"
     transform="translate(1022.7458,324.97121)">
    <path
       inkscape:connector-curvature="0"
       style="font-style:normal;font-variant:normal;font-weight:normal;font-stretch:normal;font-size:25.82233047px;line-height:1.25;font-family:Razor;-inkscape-font-specification:'Razor, Normal';font-variant-ligatures:normal;font-variant-caps:normal;font-variant-numeric:normal;font-feature-settings:normal;text-align:start;letter-spacing:0px;word-spacing:0px;writing-mode:lr-tb;text-anchor:start;fill:url(#linearGradient10371);fill-opacity:1;stroke:url(#linearGradient10371);stroke-width:10.40363979;stroke-miterlimit:4;stroke-dasharray:none"
       d="m 673.0001,-319.76939 c -0.6435,0 -1.2998,0.1711 -1.9305,0.489 -2.1018,1.2616 -3.3574,3.7889 -2.0964,6.3104 l 54.6443,119.7925 -82.8126,179.055318 c -0.8401,1.26158 -0.4145,3.36798 0.4252,4.6289902 0.8395,1.26158 2.0963,2.0969 3.7775,2.0969 h 28.1683 c 1.6814,0 3.3626,-1.25651 4.2033,-2.9374002 L 813.9851,-307.08479 h 17.229 L 696.7152,-14.122172 c -0.84,1.68148 -0.84,3.36798 0,4.6289902 0.8394,1.26158 2.5219,2.0969 4.2034,2.0969 h 27.7424 c 1.6815,0 3.3627,-1.25651 4.2033,-2.9374002 L 869.8857,-307.08479 h 17.2391 l -69.7764,151.313 v 0.4249 0.4145 0.4252 0.4145 h -0.4252 v 0.4145 0.4249 h 0.4252 v 0.4145 0.4252 0.4145 0.4253 l 64.7326,140.809208 c 0.8401,1.6811802 2.5219,2.5219002 4.2034,2.5225902 0.84,0 1.2565,0 2.0963,-0.4253 2.5219,-0.83999 3.368,-3.7780902 2.107,-6.3003102 l -63.477,-138.712988 71.8842,-156.3567 c 0.4197,-1.6811 0.4144,-3.368 -0.4254,-4.6289 -0.84,-1.2616 -2.5165,-2.0963 -3.7781,-2.0963 h -28.1676 c -1.6815,0 -3.3626,1.2562 -4.204,2.937 L 725.7139,-17.074692 H 708.06 L 842.9845,-310.03729 c 0.8397,-1.6811 0.8397,-3.368 0,-4.6289 -1.2617,-1.2616 -2.522,-2.0963 -4.2034,-2.0963 h -27.7424 c -2.1017,0 -3.7835,1.2562 -4.2041,2.937 L 669.8139,-17.074692 h -17.2396 l 80.7055,-174.011198 v -0.4253 c 0.4199,0 0.4253,-0.4145 0.4253,-0.4145 v -0.4248 -0.4145 -0.4146 -0.4252 -0.4145 -0.4249 c 0,0 0,-0.4145 -0.4253,-0.4145 v -0.4252 l -55.8999,-121.4733 c -0.6298,-1.8917 -2.4488,-3.0695 -4.3798,-3.0098 z m -1685.9152,0.064 c -2.5222,0 -4.6289,2.1067 -4.6289,4.6289 v 148.3752 c 0,2.9425 2.1067,5.0445 4.6289,5.0445 h 24.79493 l -27.31683,20.5916 c -1.2616,0.8397 -2.107,2.1063 -2.107,3.7878 v 31.1057 0.4145 0.4145 c 0,0 0,0.4199 0.4255,0.8407 0,0.4199 0,0.8448 0.4152,1.2663 l 0.8407,0.8408 c 0.4196,0.4198 0.4209,0.4145 0.8404,0.4145 1.2617,0.84 1.6815,0.8404 2.5223,0.8404 1.6814,-0.4195 2.5222,-0.8347 3.3626,-2.0963 2.5219,-1.2613 5.8848,-4.2037 11.76972,-8.4068 l 66.82921,-50.0258 h 25.64609 l -110.55512,83.227498 c -1.2616,0.8418 -2.0966,2.1071 -2.0966,3.7885 v 31.105 c 0,2.10169 0.8397,3.36331 2.5218,4.20341 1.6815,0.8404 3.7832,0.83439 5.0441,-0.42492 l 162.66752,-121.899488 h 25.6357 l -193.77252,145.853698 c -2.1017,1.26161 -2.5165,4.20809 -1.2559,6.3103902 1.2613,1.26132 2.5169,2.09632 3.7778,2.09632 1.2616,0 2.1067,-0.41981 2.9474,-0.84071 L -804.43548,-162.92479 c 1.6811,-0.8418 2.1016,-3.3626 1.6811,-5.0438 -0.8384,-2.0986 -2.5219,-3.3589 -4.6185,-3.3633 v 0 h -41.6088 c -0.8414,0 -2.0963,0.4199 -2.937,0.8408 l -155.94192,117.270188 v -19.33569 l 120.20762,-90.368198 c 1.6815,-0.8418 2.1017,-3.3626 1.6815,-5.0438 -0.8401,-2.1017 -2.5172,-3.3633 -4.6189,-3.3633 h -41.6188 c -1.2616,0 -2.09659,0.4199 -2.93729,0.8408 0,0 -52.53841,39.9379 -72.71413,55.0699 v -19.3353 l 36.99022,-28.1683 c 1.68151,-0.8418 2.1017,-3.3626 1.68151,-5.0438 -0.8401,-2.1017 -2.52761,-3.3633 -4.62901,-3.3633 h -34.04272 v -143.7463 c 0,-2.5219 -2.1017,-4.6289 -5.0441,-4.6289 z m 463.21723,0 c -1.6815,0 -3.36261,1.2612 -4.2033,2.5218 l -34.8832,71.4579 c -1.26161,2.1016 -0.4259,4.6242 1.25558,5.8851 l 109.28911,82.3871 15.13232,30.6795 -129.88071,-97.9346 c -1.26132,-0.8394 -2.52722,-0.8407 -3.78819,-0.8407 -1.68111,0.4198 -2.94241,1.2616 -3.36262,2.5222 l -11.34409,23.1135 c -0.84011,2.1016 -0.41989,4.6242 1.68151,5.8851 l 180.32158,135.350398 14.70681,30.67939 -200.4981,-150.897788 c -1.26161,-0.8394 -2.51179,-1.262 -4.1933,-0.8404 -1.2613,0.4199 -2.5269,1.2613 -2.94741,2.5219 l -79.8649,163.092708 c -1.26158,2.10169 0,5.0393902 2.10669,6.3002902 0.84011,0.41992 1.6764,0.42531 2.09661,0.42531 2.1017,0 3.7882,-0.8418 4.629,-2.52261 l 76.91741,-157.6233982 212.2677,159.3051882 c 1.68119,1.26101 4.20341,1.25561 5.88489,-0.42518 1.68111,-1.26161 2.0956,-3.7781202 1.2556,-5.4596002 l -24.37979,-49.60031 c -0.41989,-0.8397 -0.83442,-1.2616 -1.2559,-1.6815 l -178.225,-134.083998 6.7255,-13.876 141.2349,105.9261 c 2.10169,1.2616 4.2033,1.2616 5.88478,0 1.68122,-1.2616 2.51622,-3.7828 1.25593,-5.8845 l -23.9545,-49.6006 c -0.4195,-0.4199 -0.83971,-1.2616 -1.68111,-1.6815 l -107.1821,-80.2804 28.9983,-59.2629 49.6003,101.7124 c 1.26159,2.1016 4.2087,3.368 6.31039,2.107 2.52191,-1.2616 3.35759,-4.2087 2.09662,-6.3104 l -53.80392,-110.5447 c -0.83979,-1.2616 -2.52191,-2.5218 -4.20339,-2.5218 z m 350.6071,0 c -56.74471,0 -109.28471,31.1067 -136.6062,80.7056 -1.26161,2.1017 -0.83539,4.6289 1.2663,6.3104 l 234.966015,176.533098 c -3.782805,3.7832 -7.991515,7.14581 -12.194915,10.08819 -26.06051,-19.75579 -226.5593,-170.233088 -227.40001,-171.074488 -1.26159,-0.8394 -2.93738,-0.8454 -4.6186,-0.4249 -1.26158,0.4199 -2.52748,1.2666 -2.94769,2.9475 -2.94209,8.8265 -5.46431,18.0696 -6.72531,27.3171 -0.4199,1.6811 0.41952,3.3626 1.68121,4.2034 1.26159,0.84 171.07519,128.624998 207.2236,155.526688 -5.88449,2.52191 -11.76459,4.62362 -18.06969,5.88452 L -339.47477,-154.51639 c -10.0879,-7.566 -10.09361,-7.5606 -13.03599,-6.2997 -1.68111,0.8394 -2.5219,2.5219 -2.5219,4.2034 0.41989,12.6094 2.52219,24.7953 5.88489,36.5643 0,1.6811 0.84539,2.102 7.9915,7.5663 l 126.51811,94.571608 c -40.772,-4.20272 -78.60501,-26.0519 -103.40433,-59.67771 -1.26158,-2.1017 -4.62388,-2.9472 -6.72557,-1.2667 -2.10161,1.6815 -2.52251,4.6239 -0.84071,6.7256 29.4232,40.3515 76.4986,64.7329002 126.518,64.7329002 2.1014,0 3.7882,-1.2619 4.629,-3.3633002 0.41981,-1.68111 0,-3.7828 -1.68151,-5.0438 -1.26159,-1.26159 -129.881,-97.514298 -144.1722,-108.022698 -2.10169,-7.566 -3.3627,-15.1327 -4.20338,-22.6987 36.14809,27.3219 176.53349,132.823108 178.2146,134.084088 1.26159,0.84003 2.52759,1.26262 3.7882,0.84071 10.08819,-2.5215 20.17678,-5.8902 29.42418,-10.5138 1.68121,-0.41978 2.5219,-2.09629 2.5219,-3.7778 0.41992,-1.68111 -0.41989,-3.36259 -1.68108,-4.2033 L -336.53768,-183.51469 c -2.94248,-2.5219 -5.45928,-4.2087 -7.1405,-5.4697 1.2613,-5.4643 2.52191,-10.9239 4.20341,-16.3882 1.26159,1.2616 2.5222,2.1017 4.20339,3.3626 l 220.6744,166.029788 c 1.68151,1.26162 4.2037,1.26162 5.88492,0 7.14539,-5.04338 13.871685,-10.93398 20.176385,-17.23898 0.84011,-0.8401 1.2559,-2.09632 1.2559,-3.77751 0,-1.26161 -0.84008,-2.52219 -1.68148,-3.3629 L -325.60877,-237.73419 c 26.48079,-44.975 74.39689,-72.2985 126.518,-72.2985 39.0906,0 76.0774,15.1333 103.819095,42.8747 1.68151,1.6814 4.62391,1.6814 6.7256,0 1.68151,-1.6812 1.68151,-5.0441 0,-6.7253 -29.422885,-29.4229 -68.932295,-45.8221 -110.544695,-45.8221 z m 179.532575,0 c -2.5219,0 -4.62888,2.1067 -4.62888,4.6289 v 303.051188 c 0,2.5219002 2.10698,4.6289102 4.62888,4.6289102 2.9424,0 5.0444,-2.10701 5.0444,-4.6289102 V -315.07649 c 0,-2.5222 -2.102,-4.6289 -5.0444,-4.6289 z m 146.268895,0 c -1.6812,0 -2.9374,0.8447 -3.7778,2.1067 L 8.5997048,-166.28579 c -1.2616,1.6812 -1.2616,3.7882 0,5.4697 L 122.9329,-9.5034018 c 0.8397,1.26162 2.0966,2.10701 3.7778,2.10701 0.84,0 1.6815,-0.41989 2.5222,-0.84071 2.1013,-1.68119 2.5266,-4.6242802 1.266,-6.7260002 L 18.687905,-163.76389 128.8177,-310.03269 h 19.3357 l -108.033195,143.7469 c -1.2616,1.6812 -1.2616,3.7882 0,5.4697 L 154.0382,-9.5034018 c 0.8398,1.26162 2.0967,2.10701 3.7778,2.10701 h 31.1054 c 2.1016,0 3.7882,-0.84169 4.6289,-2.52259 0.8401,-1.6811102 0.4145,-3.7828002 -0.4256,-5.0441202 L 81.313805,-163.76549 191.4436,-310.03409 h 19.3357 l -108.0228,143.7467 c -1.2616,1.6815 -1.2616,3.7885 0,5.4696 L 216.6641,-9.5048018 c 1.6811,2.10172 4.6239,2.52632 6.7252,1.26632 2.1021,-1.6815 2.5229,-4.6242002 0.8408,-6.7259202 l -111.811,-148.801088 111.811,-148.3756 c 1.2616,-1.2616 1.2566,-3.3626 0.4151,-5.0441 -0.84,-1.6812 -2.5222,-2.5219 -4.2037,-2.5219 h -31.5201 c -1.2616,0 -2.5169,0.8448 -3.7782,2.107 l -113.917995,151.3127 c -1.2612,1.6815 -1.2612,3.7885 0,5.4696 L 179.6736,-17.071382 H 160.3379 L 49.793205,-163.76549 161.6042,-312.14109 c 1.2613,-1.2616 1.2566,-3.3626 0.4148,-5.0441 -0.8397,-1.6812 -2.5218,-2.5219 -4.2033,-2.5219 z m 166.5073,0 c -2.5219,0 -4.6185,2.1067 -4.6185,4.6289 0,2.9424 2.0966,5.0438 4.6185,5.0438 h 118.1214 v 33.2016 c 0,1.6815 1.2619,3.3626 2.5222,4.2034 1.6815,0.8401 3.7831,0.4252 5.0441,-0.4145 l 49.1747,-36.9899 h 26.0612 l -80.7056,60.5192 c -1.2616,1.2616 -2.0966,2.5219 -2.0966,4.2033 v 31.1051 c 0,2.1016 1.2619,3.7885 2.5222,4.6292 1.6815,0.8394 3.7831,0.4145 5.0441,-0.4252 l 133.2433,-100.0309 h 26.0612 l -164.7742,123.5703 c -1.2616,1.2612 -2.0966,2.5272 -2.0966,3.7881 v 170.648698 c 0,2.5221902 2.0969,4.6289102 4.6188,4.6289102 2.9425,0 5.0441,-2.10672 5.0441,-4.6289102 V -180.15109 l 174.4369,-131.1466 c 1.6811,-0.8404 2.1016,-3.363 1.6811,-5.0441 -0.8401,-2.1017 -2.5172,-3.3626 -4.6182,-3.3626 h -42.0346 c -1.2613,0 -2.1067,0.4198 -2.9475,0.8407 l -126.5177,95.4124 v -19.7509 l 90.3683,-68.0955 c 1.6815,-0.8404 2.5222,-3.363 1.6815,-5.0441 -0.8401,-2.1017 -2.5172,-3.3626 -4.6186,-3.3626 h -42.0343 c -0.84,0 -1.6814,0.4198 -2.5222,0.8407 l -42.8747,32.3713 v -28.5831 c 0,-2.5219 -2.1016,-4.6289 -5.0441,-4.6289 z m -1063.61108,1.2663 c -2.5219,0 -5.0338,2.0963 -5.0338,4.6182 v 301.795588 c 0,2.5219002 2.5119,4.6289102 5.0338,4.6289102 2.5222,0 4.6289,-2.10701 4.6289,-4.6289102 V -313.82089 c 0,-2.5219 -2.1067,-4.6182 -4.6289,-4.6182 z"
       id="path10353" />
    <path
       inkscape:export-ydpi="338.42538"
       inkscape:export-xdpi="338.42538"
       inkscape:connector-curvature="0"
       id="path10355"
       d="m -1022.1686,105.20851 v 17.10179 h 50.35882 a 0.31463755,0.31463755 0 0 1 0.034,0 0.31463755,0.31463755 0 0 1 0.034,0 0.31463755,0.31463755 0 0 1 0.081,0.034 0.31463755,0.31463755 0 0 1 0.034,0 0.31463755,0.31463755 0 0 1 0.034,0.034 0.31463755,0.31463755 0 0 1 0.034,0.034 0.31463755,0.31463755 0 0 1 0.034,0.034 0.31463755,0.31463755 0 0 1 0.034,0.034 0.31463755,0.31463755 0 0 1 0.037,0.084 0.31463755,0.31463755 0 0 1 0.034,0.034 0.31463755,0.31463755 0 0 1 0,0.034 0.31463755,0.31463755 0 0 1 0,0.034 0.31463755,0.31463755 0 0 1 0,0.034 v 12.67878 a 0.31463755,0.31463755 0 0 1 0,0.034 0.31463755,0.31463755 0 0 1 0,0.034 0.31463755,0.31463755 0 0 1 -0.034,0.081 0.31463755,0.31463755 0 0 1 0,0.037 0.31463755,0.31463755 0 0 1 -0.037,0.034 0.31463755,0.31463755 0 0 1 -0.034,0.037 0.31463755,0.31463755 0 0 1 -0.034,0.034 0.31463755,0.31463755 0 0 1 -0.034,0.034 0.31463755,0.31463755 0 0 1 -0.081,0.034 0.31463755,0.31463755 0 0 1 -0.037,0.034 0.31463755,0.31463755 0 0 1 -0.034,0 0.31463755,0.31463755 0 0 1 -0.034,0 0.31463755,0.31463755 0 0 1 -0.034,0 h -38.00132 c -3.4793,0 -6.3691,1.1794 -8.7867,3.5973 -2.3589,2.35889 -3.5974,5.27791 -3.5974,8.75749 v 45.28119 h 69.03223 v -17.10175 h -50.35583 a 0.31463755,0.31463755 0 0 1 -0.034,0 0.31463755,0.31463755 0 0 1 -0.034,0 0.31463755,0.31463755 0 0 1 -0.081,-0.034 0.31463755,0.31463755 0 0 1 -0.034,0 0.31463755,0.31463755 0 0 1 -0.034,-0.034 0.31463755,0.31463755 0 0 1 -0.034,-0.034 0.31463755,0.31463755 0 0 1 -0.037,-0.034 0.31463755,0.31463755 0 0 1 -0.034,-0.034 0.31463755,0.31463755 0 0 1 -0.034,-0.08 0.31463755,0.31463755 0 0 1 -0.034,-0.037 0.31463755,0.31463755 0 0 1 0,-0.034 0.31463755,0.31463755 0 0 1 0,-0.034 0.31463755,0.31463755 0 0 1 0,-0.034 v -22.7633 a 0.31463755,0.31463755 0 0 1 0,-0.034 0.31463755,0.31463755 0 0 1 0,-0.034 0.31463755,0.31463755 0 0 1 0.034,-0.081 0.31463755,0.31463755 0 0 1 0,-0.037 0.31463755,0.31463755 0 0 1 0.034,-0.034 0.31463755,0.31463755 0 0 1 0.034,-0.034 0.31463755,0.31463755 0 0 1 0.037,-0.034 0.31463755,0.31463755 0 0 1 0.034,-0.034 0.31463755,0.31463755 0 0 1 0.084,-0.034 0.31463755,0.31463755 0 0 1 0.034,-0.034 0.31463755,0.31463755 0 0 1 0.034,0 0.31463755,0.31463755 0 0 1 0.034,0 0.31463755,0.31463755 0 0 1 0.034,0 h 38.00132 c 3.4794,0 6.3691,-1.17938 8.7572,-3.59738 2.3589,-2.35892 3.59741,-5.2483 3.59741,-8.7571 v -22.7925 c 0,-3.47941 -1.17951,-6.36911 -3.59741,-8.78711 -2.35889,-2.35889 -5.2778,-3.56751 -8.7572,-3.56751 z"
       style="font-style:normal;font-variant:normal;font-weight:normal;font-stretch:normal;font-size:9.51096344px;line-height:1.25;font-family:'SF Alien Encounters Solid';-inkscape-font-specification:'SF Alien Encounters Solid, Normal';font-variant-ligatures:normal;font-variant-caps:normal;font-variant-numeric:normal;font-feature-settings:normal;text-align:start;letter-spacing:0px;word-spacing:0px;writing-mode:lr-tb;text-anchor:start;fill:#bbb9ea;fill-opacity:1;stroke:none;stroke-width:3.16645002" />
    <path
       inkscape:export-ydpi="338.42538"
       inkscape:export-xdpi="338.42538"
       inkscape:connector-curvature="0"
       id="path10357"
       d="m -383.61708,105.20851 c -3.47941,0 -6.36911,1.1794 -8.7575,3.59741 -2.35889,2.35889 -3.59709,5.2778 -3.59709,8.7571 v 63.3328 c 0,3.47941 1.17949,6.36879 3.59709,8.78669 2.35892,2.35891 5.27809,3.5974 8.7575,3.5974 h 44.34652 c 3.47938,0 6.36907,-1.17948 8.75718,-3.5974 2.35892,-2.3589 3.5974,-5.30728 3.5974,-8.78669 v -63.3328 c 0,-3.4793 -1.17948,-6.36911 -3.5974,-8.7571 -2.3586,-2.3589 -5.2483,-3.59741 -8.75718,-3.59741 z m 6.25102,17.10179 h 0.081 31.65901 a 0.31463755,0.31463755 0 0 1 0.034,0 0.31463755,0.31463755 0 0 1 0.034,0 0.31463755,0.31463755 0 0 1 0.084,0.034 0.31463755,0.31463755 0 0 1 0.034,0 0.31463755,0.31463755 0 0 1 0.034,0.034 0.31463755,0.31463755 0 0 1 0.034,0.034 0.31463755,0.31463755 0 0 1 0.034,0.034 0.31463755,0.31463755 0 0 1 0.034,0.034 0.31463755,0.31463755 0 0 1 0.034,0.084 0.31463755,0.31463755 0 0 1 0.034,0.034 0.31463755,0.31463755 0 0 1 0,0.034 0.31463755,0.31463755 0 0 1 0,0.034 0.31463755,0.31463755 0 0 1 0,0.034 v 53.19829 a 0.31463755,0.31463755 0 0 1 0,0.034 0.31463755,0.31463755 0 0 1 0,0.034 0.31463755,0.31463755 0 0 1 -0.034,0.084 0.31463755,0.31463755 0 0 1 0,0.034 0.31463755,0.31463755 0 0 1 -0.034,0.034 0.31463755,0.31463755 0 0 1 -0.034,0.034 0.31463755,0.31463755 0 0 1 -0.034,0.034 0.31463755,0.31463755 0 0 1 -0.034,0.034 0.31463755,0.31463755 0 0 1 -0.084,0.034 0.31463755,0.31463755 0 0 1 -0.034,0.034 0.31463755,0.31463755 0 0 1 -0.034,0 0.31463755,0.31463755 0 0 1 -0.034,0 0.31463755,0.31463755 0 0 1 -0.034,0 h -31.65901 a 0.31463755,0.31463755 0 0 1 -0.034,0 0.31463755,0.31463755 0 0 1 -0.034,0 0.31463755,0.31463755 0 0 1 -0.081,-0.034 0.31463755,0.31463755 0 0 1 -0.037,0 0.31463755,0.31463755 0 0 1 -0.034,-0.034 0.31463755,0.31463755 0 0 1 -0.034,-0.034 0.31463755,0.31463755 0 0 1 -0.037,-0.034 0.31463755,0.31463755 0 0 1 -0.034,-0.034 0.31463755,0.31463755 0 0 1 -0.034,-0.084 0.31463755,0.31463755 0 0 1 -0.034,-0.034 0.31463755,0.31463755 0 0 1 0,-0.034 0.31463755,0.31463755 0 0 1 0,-0.034 0.31463755,0.31463755 0 0 1 0,-0.034 V 122.7003 a 0.31463755,0.31463755 0 0 1 0,-0.034 0.31463755,0.31463755 0 0 1 0,-0.034 0.31463755,0.31463755 0 0 1 0.034,-0.084 0.31463755,0.31463755 0 0 1 0,-0.034 0.31463755,0.31463755 0 0 1 0.034,-0.034 0.31463755,0.31463755 0 0 1 0.034,-0.034 0.31463755,0.31463755 0 0 1 0.037,-0.034 0.31463755,0.31463755 0 0 1 0.034,-0.034 0.31463755,0.31463755 0 0 1 0.084,-0.034 0.31463755,0.31463755 0 0 1 0.034,-0.034 z"
       style="font-style:normal;font-variant:normal;font-weight:normal;font-stretch:normal;font-size:9.51096344px;line-height:1.25;font-family:'SF Alien Encounters Solid';-inkscape-font-specification:'SF Alien Encounters Solid, Normal';font-variant-ligatures:normal;font-variant-caps:normal;font-variant-numeric:normal;font-feature-settings:normal;text-align:start;letter-spacing:0px;word-spacing:0px;writing-mode:lr-tb;text-anchor:start;fill:#bbb9ea;fill-opacity:1;stroke:none;stroke-width:3.16645002" />
    <path
       inkscape:export-ydpi="338.42538"
       inkscape:export-xdpi="338.42538"
       inkscape:connector-curvature="0"
       id="path10359"
       d="m 230.2427,105.20851 v 17.10179 h 12.3545 a 0.31463755,0.31463755 0 0 1 0.037,0 0.31463755,0.31463755 0 0 1 0.034,0 0.31463755,0.31463755 0 0 1 0.084,0.034 0.31463755,0.31463755 0 0 1 0.034,0 0.31463755,0.31463755 0 0 1 0.037,0.034 0.31463755,0.31463755 0 0 1 0.034,0.034 0.31463755,0.31463755 0 0 1 0.034,0.034 0.31463755,0.31463755 0 0 1 0.034,0.034 0.31463755,0.31463755 0 0 1 0.034,0.084 0.31463755,0.31463755 0 0 1 0.037,0.034 0.31463755,0.31463755 0 0 1 0,0.034 0.31463755,0.31463755 0 0 1 0,0.034 0.31463755,0.31463755 0 0 1 0,0.034 v 70.61841 h 18.3403 v -88.04453 z"
       style="font-style:normal;font-variant:normal;font-weight:normal;font-stretch:normal;font-size:9.51096344px;line-height:1.25;font-family:'SF Alien Encounters Solid';-inkscape-font-specification:'SF Alien Encounters Solid, Normal';font-variant-ligatures:normal;font-variant-caps:normal;font-variant-numeric:normal;font-feature-settings:normal;text-align:start;letter-spacing:0px;word-spacing:0px;writing-mode:lr-tb;text-anchor:start;fill:#bbb9ea;fill-opacity:1;stroke:none;stroke-width:3.16645002" />
    <path
       inkscape:export-ydpi="338.42538"
       inkscape:export-xdpi="338.42538"
       inkscape:connector-curvature="0"
       id="path10361"
       d="m 818.4971,105.20851 v 17.10179 h 50.3531 a 0.31463755,0.31463755 0 0 1 0.034,0 0.31463755,0.31463755 0 0 1 0.034,0 0.31463755,0.31463755 0 0 1 0.084,0.034 0.31463755,0.31463755 0 0 1 0.034,0 0.31463755,0.31463755 0 0 1 0.037,0.034 0.31463755,0.31463755 0 0 1 0.034,0.034 0.31463755,0.31463755 0 0 1 0.034,0.034 0.31463755,0.31463755 0 0 1 0.037,0.034 0.31463755,0.31463755 0 0 1 0.034,0.084 0.31463755,0.31463755 0 0 1 0.034,0.034 0.31463755,0.31463755 0 0 1 0,0.034 0.31463755,0.31463755 0 0 1 0,0.034 0.31463755,0.31463755 0 0 1 0,0.034 v 70.61841 h 18.3698 v -75.68732 c 0,-3.4793 -1.1795,-6.36879 -3.5974,-8.78671 -2.3589,-2.35889 -5.2483,-3.59738 -8.7571,-3.59738 z"
       style="font-style:normal;font-variant:normal;font-weight:normal;font-stretch:normal;font-size:9.51096344px;line-height:1.25;font-family:'SF Alien Encounters Solid';-inkscape-font-specification:'SF Alien Encounters Solid, Normal';font-variant-ligatures:normal;font-variant-caps:normal;font-variant-numeric:normal;font-feature-settings:normal;text-align:start;letter-spacing:0px;word-spacing:0px;writing-mode:lr-tb;text-anchor:start;fill:#bbb9ea;fill-opacity:1;stroke:none;stroke-width:3.16645002" />
    <rect
       y="322.34378"
       x="-639.78265"
       height="130.96063"
       width="328.93472"
       id="rect7501"
       style="opacity:1;fill:#bbb9ea;fill-opacity:1;stroke:none;stroke-width:1.56537068;stroke-linecap:round;stroke-linejoin:miter;stroke-miterlimit:4;stroke-dasharray:none;stroke-opacity:1" />
    <rect
       style="opacity:1;fill:#ff0863;fill-opacity:1;stroke:none;stroke-width:1.56537068;stroke-linecap:round;stroke-linejoin:miter;stroke-miterlimit:4;stroke-dasharray:none;stroke-opacity:1"
       id="rect7503"
       width="328.93472"
       height="130.96063"
       x="-310.84802"
       y="322.34378" />
    <rect
       y="322.3439"
       x="18.086481"
       height="130.96063"
       width="328.93472"
       id="rect7505"
       style="opacity:1;fill:#ff5d47;fill-opacity:1;stroke:none;stroke-width:1.56537068;stroke-linecap:round;stroke-linejoin:miter;stroke-miterlimit:4;stroke-dasharray:none;stroke-opacity:1" />
    <rect
       style="opacity:1;fill:#ff962e;fill-opacity:1;stroke:none;stroke-width:1.56537068;stroke-linecap:round;stroke-linejoin:miter;stroke-miterlimit:4;stroke-dasharray:none;stroke-opacity:1"
       id="rect7507"
       width="328.93472"
       height="130.96063"
       x="347.02142"
       y="322.3439" />
    <rect
       y="322.3439"
       x="671.13251"
       height="130.96063"
       width="328.93472"
       id="rect9531"
       style="opacity:1;fill:#330080;fill-opacity:1;stroke:none;stroke-width:1.56537068;stroke-linecap:round;stroke-linejoin:miter;stroke-miterlimit:4;stroke-dasharray:none;stroke-opacity:1" />
  </g>
</svg>
