<svg xmlns="http://www.w3.org/2000/svg" viewBox="0 0 1085.5 1085.5"><defs><style>.cls-1{fill:#1e1e1e;}.cls-2{fill:#d7d7d7;}</style></defs><title>Asset 1</title><g id="Layer_2" data-name="Layer 2"><g id="svg2"><rect class="cls-1" width="1085.5" height="1085.5"/><g id="layer1"><g id="g10595"><path id="path119698" class="cls-2" d="M336.84,437.81l-1.14-2.29-.86-2.57-.29-1.14-.14-1.29v-1.43l.43-3.86.29-1.14,1.14-2.57,1-1.43,1-1.57.86-1,1-1,1-.86,1-.71,1.14-.71,2.29-1.29,1.14-.57,1.29-.57,1.71-.57,2.29-.57,1.86-.43,1.43-.29,1-.14,1.43-.14,2-.14h3.14l1.29.14,1.14.14h1.29l1.43.14,3.57.57,6.43.71h2.29l1.57-.14,1.29-.14,1.86-.29,1.71-.43,1.29-.43,1-.43,1.14-.71,1.14-.86.86-.86,1-.86.86-.86.86-1,1-.86,1-.71,1.29-.43H400l2.29.29,2.29.86,1.43,1.14.57,1.14-.43,1.72-2.57,7.72-.43,1.14-.43,1.29-.29,1.29-.29,1.14-.29,1.29-.43,1.29-.43,1.86-.71,2.14-.71,1.86-.43,1.29-.57,2.57-.43,1.71-.57,1.72-.43,1.43-.43,1.14-.29,1.29-.43,1.71-.57,2.57-.43,1.72-.43,1.29-.43,1.14-.57,2.57-.29,1.14L393,453v1l.43.57,1.14.14H396l1.29-.14,3.57-.57,1.86-.14,1.71.43.86,1.72L405,458.1l-1.14,1.72-1.71.86-1.29.29-1,.43-1.29.29-1.29.14-2.43.14-1.43.14-1.71.43-1.43,1.14-.86,1.57-.29,1.29-.14,1.29-.43,1.29-.43,1.14-.43,1.29-.43,1.14L387,474l-.43,1.29-.29,1.14-.43,1.29-.57,1.14-.43,1.29-.29,1.14-.57,1.29-.57,1-.43,1.14-.57,1.29-.43,1.14-.57,1.29-1.14,2.29-.71,1-.86,1.14-2.14,3-1,.86-1.86,1.71-1,.86-1,.71-1.29.57-1.43.57-1.86.71-2,.57-1.86.43-1.57.29-.86.14-1.43.14h-1.29l-2.57-.29-1.43-.29L350.7,502l-1.29-.43-1.14-.57L347,500.4l-1.43-1-1.29-1.14-1-1.14-1.14-1.29-1-1.57-1.72-3.43-.29-1.14-.57-2.57V484l.29-2.29.43-1.86.57-1.29.43-1.14.43-1.29.86-1.57,1-1.57.86-1,.86-.86,1-1.14,1.57-1.57,1.14-.86,1.14-.14,1.29.14,2,1.43,1,.86.57,1,.14,1.29-.43,1.14-.57,1.14-.71.86-.57,1.14-.71,1.29-.57,1.29-.57,2.57-.14,1.29-.14,1.43.29,2.57.43,1.29.57,1.14.71,1.14.71,1,1,1,1.14.71,1.14.57,1.29.43,1.29.29h1.43l1.86-.14,2.14-.57,1.57-.86,1.14-.86,1.29-1.29,1.14-1.29.86-1.14.71-1,1.14-2.29.86-2.29.43-1.29.71-1.71,1-3L375,475l1-3,.86-2.29.57-2.57.43-1.86.29-1.86-.29-1.43-1-.57-1.29-.14h-1.29L373,461.1H371.7l-1.29-.14h-1.29l-1.29-.14-1.14-.57-.71-1-.14-1.14.14-1.29.43-1.29.86-1,1-.71,1.86-.14h2.29l2.43.14,2.43.29,2.14-.14,1.43-.57.57-1,.29-1.43.29-.86.29-1.57.43-1.14.29-1.29.86-2.57.29-1.14.43-1.29.29-1.29.86-2.57L386,436l.43-1.43.14-.86.29-1.43,1.72-5.14.29-1.29.43-1.43.29-.86.43-1.43.29-1.57.29-.86.29-1.43.43-1.29.43-1.14.29-.86-.14-.14-.71.57-2,1.43-1.14.57-1.43.57-.86.29-1.43.43-1.29.29-1.29.14H374l-1.29-.14-1.14-.14-1.57-.14-.86-.14-1.57-.14-1.14-.14-1.29-.14-1.43-.14h-2.43l-2.72.14-1.29.14-1.14.29-1.29.43-1.43.57-.71.43-1.29.71-1.14.71-1,.71-.86.86-.86,1.14-.86,1.57-.57,1.57-.14,1.43v1.72l.43,1.71.57,1.14.86,1,1,.86,1.43.57,1.29.29h1l1.57.14h2.43l1.29-.29,1.29-.43,2.29-1.14,1.57-.43,1.86.43,1.57,1.57.43,1.86-.43,1.43-.86,1-2,1.71-1,.57-1.29.57-1.14.43-1.29.43-1.29.29-2.43.43-2.57.29h-1.29l-2.57-.29-1.86-.43-1.71-.43-2.57-.86-1-.71-1.14-.71-1-.71-.86-.86Z"/><path id="path119702" class="cls-2" d="M417.72,439l-1.29-3.86-.14-1.29v-1.29l.29-1.29.57-1.29.71-1,.86-1,1-.86,1.14-.57,1.29-.29h1.29l1.29.29,1.14.71.86.86.57,1.14.43,1.29v3.86l-.29,1.43V437l.29,1.14.71,1,1,1,1,.86,1,1.14L433,444l1,.86,1.86,1.86,1,1.14.57.71,1,1.14,1,.86.86,1,1.43,2.29.43,1.29.43,1.71.43,1.86-.14,1.29-.43,1.29-.57,1.14-.86,1-1.43,2.29-.86,1-.71,1.14-.71,1-.86,1.14-.71,1.14-.86,1.14-.71,1.14-2.43,4.86-.43,1.29-.43,1.14-.29,1.29-.29,1.43-.29,1.29-.14,1.29v1.43l.57,2.86.71,1.14.71,1.29,1,.86,1.14.71,1.43.29h2.72l1.29-.29,1.29-.43,1.29-.57,1-.71,2.14-1.43,1.14-.86,1-.86.86-.86.86-1.14,2.57-3,2.14-3.43.71-1,.71-1.29.71-1.14.57-1.14.71-1.29.43-.86.86-1.57.57-1.14.43-1.14.57-1.14,1.29-.71,1.86.43,1.29,1.43V472l-.43,1.29-1.14,2.43-.57,1.14-.71,1.14-1.14,2.29L459,482.54l-.71,1.29-.57.71-.71,1.29-1.43,2.29-1.71,2.29L452.73,492l-1,1.43-1.71,2-1,.86L447.3,498l-1.14.86-1.29.86-2.29,1.14-1.29.57-1.14.57-1.29.43-1.14.29-1.43.29H433l-1.86-.14-2.86-.57-1.14-.43-1.43-.71-2.14-1.43-1-.86-.86-.86-.86-1.14-.71-1-.57-1.29L419,493.4l-.29-1.29-.29-1.43-.29-1.29-.14-1.29v-1.29l.57-5.14.43-1.29.43-1.14L420,478l.71-1.57.86-1.57.71-1.29,1-1.57,1-1.43.71-1.29.86-1.57L427,466.1l.86-1.14,1.14-2,1.57-2.29.71-1.57.43-2.14-.29-1.71L430,453l-.86-1.14-2.29-2.57-.86-1-1.14-.86-1.14.29-.57,1.29-.29,1.29-.43,1.29-.29,1.29-.29,1.14-.43,1.29-1.29,3.43-.43,1.29-.43,1.14-.43,1.29-.71,1.71-.71,1.57-.57,1.29-.71,1.71-.71,1.57-.71,1.43-.71,1.57-.86,1.57-.71,1.14-.86.71h-1.29l-1.14-.71-.86-1,.14-1.14.43-1.29.57-1.29.43-1.14.43-1.29,1.14-2.57.43-.86.57-1.43.57-1.14.43-1.29.57-1.29.43-1.29.43-1.14,1.14-2.57.29-1.29.43-1.29.29-1.29.57-1.29.29-1.29.29-1.14.29-1.29.43-1.29.29-1.43v-1.29l-.29-1.14Z"/><path id="path119706" class="cls-2" d="M488.31,450.24l-2,.86-1.71.86-1.14.71-2,1.71-1.29,1.29L479,457l-1,1.14-1,1.57-1,1.43-.71,1.29-.86,1.57-.57,1.71L473.3,467l-.43,1.14-.14,1,.71.71,1.86.43,2.86.14,1.43.14h4l1.43-.29,1.29-.29,1.43-.57.86-.29,1.43-.71,1-.71,1-.86,1-1,1-.86.86-1.14.71-1,.57-1.14.71-1.29.86-2.57.29-1.43.14-1.29-.14-1.43-.57-1.29-.86-1-1.14-.86-1.29-.57-1.29-.29-1.29-.14-1.43.29Zm17.43,17.15-.71,1-1.71,2-2,1.71-1,.71-1.29.71-.86.29-1.43.86-.86.43-1.29.57-1.43.43-1.29.43-1.29.14-1.43.29-1.57.14-1.72.29-1.29.14h-1.29l-2.57-.29-2.57-.14-1.29-.14-3.86-.86h-1l-.71.57-.29,1V479l-.14,1.43v2.43l.14,1.43.29,1.14.86,2.57,1.43,2.29.86,1,.86.86,2.29,1.43L479,494l1.29.43,1,.14,1.29.29,1.29.14h1.43l1.29-.14,3.72-.71,1.29-.29,1.29-.43L494,493l2.43-1,2.29-1.14,2-1.57,1-.71,1-.86,2-1.86,1.72-2,.71-1,.86-1.14,1.43-2,.71-1.14.57-1.14.71-1.14.57-1.14.71-1,.57-1.14.57-1.29.57-1.14.71-1.14,1-.71h1.29l1.29.86.71,1.29-.14,1.29-.57,1.29L518,475l-.86,1.57-.71,1.57-.86,1.57-.86,1.43-1.43,2.29-.43.86-.86,1.29-1.43,2-.86,1-.86.86-.86,1-1,1.14-.43.57-1,1.14-.86,1-2,1.71-1.43,1.14L500,498.26l-2.29,1.43-3.57,1.57-1.14.43-1.29.43-1.86.29-1.71.43-3,.29-1.86.14-1.57.14h-1.29l-5.15-.57-1.14-.29-1.29-.43-1.29-.57-1.14-.57-2.29-1.29-1.14-.57-1-.86-1-1-.57-.71-1-1.14-.86-1-.71-1.14-.57-1-.57-1.29-.43-1.14-.43-1.29-.29-1.29-.29-1.14-.29-1.29-.43-3.86v-2.71l.14-1.29v-1.29l.86-3.86.43-1.14.29-1.29.43-1.29.29-1.29.43-1.29L462,464l.71-1.72.71-1.29.86-1.57,1-1.43.57-1.29.71-1,.86-1,2.14-2.29,2.14-2.14,1.14-1,1.29-1,1.43-1,1.29-1,1.43-.86,1.43-.71,1.29-.57,1.86-.86,3-1,2.57-.57,1.86-.29h3.14l1.86.29,2.29.43,1.86.43,1.29.43,1.29.57,1.14.57.86.57,2,1.71.86,1,.86,1.43.71,1.71.43,1.29.29,1.29.14,1.29v1.72l-.14,1.86-.14,1.43-.43,1.72-.57,1.71-.57,1.43L507,465l-.71,1.29Z"/><path id="path119710" class="cls-2" d="M543.32,450.24l-2,.86-1.71.86-1.14.71-2,1.71-1.29,1.29L534,457l-1,1.14-1,1.57-1,1.43-.71,1.29-.86,1.57-.57,1.71-.57,1.29-.43,1.14-.14,1,.71.71,1.86.43,2.86.14,1.43.14h4l1.43-.29,1.29-.29,1.43-.57.86-.29,1.43-.71,1-.71,1-.86,1-1,1-.86.86-1.14.71-1,.57-1.14.71-1.29.86-2.57.29-1.43.14-1.29-.14-1.43-.57-1.29-.86-1-1.14-.86-1.29-.57-1.29-.29-1.29-.14-1.43.29Zm17.43,17.15-.71,1-1.71,2-2,1.71-1,.71-1.29.71-.86.29-1.43.86-.86.43-1.29.57-1.43.43-1.29.43-1.29.14-1.43.29-1.57.14-1.72.29-1.29.14h-1.29l-2.57-.29-2.57-.14-1.29-.14-3.86-.86h-1l-.71.57-.29,1V479l-.14,1.43v2.43l.14,1.43.29,1.14.86,2.57,1.43,2.29.86,1,.86.86,2.29,1.43L534,494l1.29.43,1,.14,1.29.29,1.29.14h1.43l1.29-.14,3.72-.71,1.29-.29,1.29-.43L549,493l2.43-1,2.29-1.14,2-1.57,1-.71,1-.86,2-1.86,1.72-2,.71-1,.86-1.14,1.43-2,.71-1.14.57-1.14.71-1.14.57-1.14.71-1,.57-1.14.57-1.29.57-1.14.71-1.14,1-.71h1.29l1.29.86.71,1.29-.14,1.29-.57,1.29L573,475l-.86,1.57-.71,1.57-.86,1.57-.86,1.43-1.43,2.29-.43.86-.86,1.29-1.43,2-.86,1-.86.86-.86,1-1,1.14-.43.57-1,1.14-.86,1-2,1.71-1.43,1.14L555,498.26l-2.29,1.43-3.57,1.57-1.14.43-1.29.43-1.86.29-1.71.43-3,.29-1.86.14-1.57.14h-1.29l-5.15-.57-1.14-.29-1.29-.43-1.29-.57-1.14-.57-2.29-1.29-1.14-.57-1-.86-1-1-.57-.71-1-1.14-.86-1-.71-1.14-.57-1-.57-1.29-.43-1.14-.43-1.29-.29-1.29-.29-1.14-.29-1.29L513.6,481v-2.71l.14-1.29v-1.29l.86-3.86.43-1.14.29-1.29.43-1.29.29-1.29.43-1.29L517,464l.71-1.72.71-1.29.86-1.57,1-1.43.57-1.29.71-1,.86-1,2.14-2.29,2.14-2.14,1.14-1,1.29-1,1.43-1,1.29-1,1.43-.86,1.43-.71,1.29-.57,1.86-.86,3-1,2.57-.57,1.86-.29h3.14l1.86.29,2.29.43,1.86.43,1.29.43,1.29.57,1.14.57.86.57,2,1.71.86,1,.86,1.43.71,1.71.43,1.29.29,1.29.14,1.29v1.72l-.14,1.86-.14,1.43-.43,1.72-.57,1.71-.57,1.43L562,465l-.71,1.29Z"/><path id="path119714" class="cls-2" d="M614.91,470.53v1.57l-.57,1.43-1.71,3.14-.57,1.29-.57,1.14-1.43,2.29-.57,1-.71,1.14-1.14,2.14-.57,1-.86,1.29-1.71,2-.71,1.14-.71,1-.86,1-2.72,2.72-2,1.57-2,1.71-1.14.86-1.57.86-1.71.71-1.29.57-1.29.43-1.14.29L586,503h-4l-1.29-.14-1.29-.29-1.72-.57-1.57-.71-1.14-.71-2-1.72-.71-1-.71-1.14-1.14-2.29-.43-1.14-.43-1.29-.29-1.29-.29-1.14v-1.29L568.9,487v-1.29l-.14-1.43V483l.43-3.86v-1.29l.71-6.43.29-1.29.14-1.29.57-2.57.43-1.86.43-1.72.29-1.29.43-1.29.29-1.29.43-1.29.29-1.29.29-1.71.57-1.86.86-2.57V449l-.43-.71-1-.29-1.14-.14-1.43-.29-1.43-.57-1-1.29-.29-1.29-.14-1.43.29-1.14.57-1,1-.71L572,440l2.14.14h2.14l1.43-.43.57-1,.29-1.43.29-1.14.43-1.29.57-1.14.57-1.29.43-1.14.86-2.57.57-2.57.43-1.29.57-1.14.86-2.57.43-1.14.57-1.29.43-1.29.43-1.14.43-1.29.57-1.14.57-1.29.29-1.14.43-1.29.57-1.29.71-1,1.14-.71,1.29-.29,1.43.14,1.71.29,1.86.43,1.29.71,1.14,1,.43,1.57-.29,1.29-.71,1.86-.86,2-.71,1.86-.43,1.43-.29.86-.43,1.43-1.57,4.72-.43,1.14-.43,1.29-.57,1.86-.86,2.14-1,3L591,437.1l-.57,1.14-.43,1.14v1l.86.71,1.57.29h1.43l2.43-.14,2-.14h4.43l1.86.14,1,.86.29,1.57v1.86l-.43,1.29-.71,1-1,.71-1.29.43-1.29.29-1.43.14-3.86.14h-1.57l-1.29-.14h-5.29l-.86.57-.43,1.14-.57,1.72-.57,2.29-.57,2.43-.71,2.29-.57,2.43-.57,2.29-.43,2-.14.86-.43,2-.43,1.57-.43,1.43-.57,2.57-.14,1.71-.29,1.86-.29,2.57v4L580,487l.29,1.72.43,1.29.57,1.29.71,1,1.57,1,2,.86,1.57.29h1.43l1.57-.29,3.43-1.71,4-3.43,1-1,.71-.86,1.43-1.86,1.86-2.29.71-1,.57-1.14.71-1.14.86-1.14.71-1,.71-1.14.57-1.14.43-1.29.71-1.43.71-1.14.86-1.43,1.71-1.14,1.86.29Z"/><path id="path119718" class="cls-2" d="M680.21,474.68l-.29.71-.71,1.43-.71,1-.57,1.14-.57,1.29-.57,1.14-1.43,2.29-.71,1-.71,1.14-.57,1.14-.71,1.14-.86,1-.86,1.14-.86,1-1.57,2-.86,1-.86.86-4,3.43-1.14.71-1.29.71-1.57.71-1.71.71-1.29.43-1.29.29h-1.43l-1.71-.14-1.72-.43-1.29-.43-1-.71-1-.86-1-1.43-1-1.57-.43-1.29-.43-1.71-.14-1.86v-1.43l.14-1.86.14-1.72-.43-.29-.71,1-1.43,2.29-1.43,2-.86,1-.71,1-.86,1-.71,1-1,.86-.86.86-1,.86-1,.71-1.14.71-1.57,1-2.14,1-2.29.71-1.86.43-2.57.29-1.43-.14-1.71-.29-1.72-.43-1.29-.43-1.14-.43-1-.71-2-1.72-.71-1-.71-1.14-.86-1.57-.86-2.14-.43-1.86-.14-1.43-.29-1.86-.14-2.29v-1.86l.14-1.43.14-1.86.29-1.72.43-1.43.43-1.72.43-1.86.43-1.29.57-1.14.43-1.29,3.43-6.86.71-1.14.71-1,.71-1.14,1.43-2,.86-1,1.86-2.14.57-.57,1-1.14,2-1.72,1.29-1.29,1.57-1.14,2-1.57,1.14-.71,1-.71,1.29-.57,1.71-.71,1.57-.86,1.43-.71,1.71-.57,1.71-.43,1.43-.43,3.57-.29,1.29-.14h1.71l2.86.14,3.29.29,3.14.57,1.29.29,1.57.43,5.72,2.57,1,.86,1,.71,1,.86.86,1,.29,1.57-.57,2-1.57,1.72-1.57,1-1.14.14-1.14-.43-1.14-.86-1.29-.71-1.14-.71-1-.43-1.14-.57-1.29-.57-1.14-.29-2.43-.57-1.43-.43-1.43-.29h-2.86l-1,.14-1.43.14-1.86.43-3.57,1.29-1.43.71-1.43.86-1,.71-1.14.71-1,.71-1,.86-1.14,1-.57.57-1,1.14-.86,1-.71,1-1.72,2-.71,1-.71,1.14-1.72,3.43-.71,1.14-.86,2.57-.57,1.29-.57,1.14-.86,3.86-.43,1.43-.43,3.86v4l.14,1.43.43,1.29.57,1.14.71,1.14.86.86,1.29.57,1.72.29,1.86-.14,1.29-.43,2.29-1.14,2-1.71.86-.86,1-.86.86-1,.71-1,.86-1,.71-1,1.57-2.14.71-1,2.14-3.43.86-1.57,1-1.86.57-.86,1.71-3.72.57-1.29.29-1,.57-1.29.43-1.14.43-1.29.57-1.57.86-2.86.57-1.57.43-1.43.86-1.29,1.43-.71,1.29-.29,1.29.14,1.29.29,2.29,1.14,1.14.71.57.86.14,1.29-.43,1.14-.29,1.29-.43,1.29-.57,2.57-.43,1.29-.29,1.14-.86,2.57-.29,1.43-.14.86-.43,1.71-.29,1.29-.57,2.43-.43,1.71-.29,1.43-.29,1.57-.43,2.14-.43,2.43-.14,2.14.14,1.86.71,1.14,1.43.71,2.14.14,1.71-.57,1.29-.71,2-1.43,1-1,1.72-1.86,1.71-2,1.43-2,.71-1.14.86-1.14.29-.86,2.29-3.43.57-1.14.71-1.14,2.86-5.72,1.29-.71,1.71.29,1.14,1.43.14,1.43-.57,1.29Z"/><path id="path119722" class="cls-2" d="M686.93,427l.71-1.14,1.14-1,1.14-.71,1.43-.43,1.29-.29h1.43l1.29.29,1.14.71,1,.86,1,1,.71,1.14.43,1.29.14,1.29v1.43l-.43,1.29-.71,1.14-.86,1.14-1,.86-1.14.86-1.29.57-1.43.29-1.29-.14-1.43-.29-2.29-1.43-.86-1-.71-1.14-.29-1.29-.14-1.29.14-1.29.29-1.43Zm23,43.87v1.57l-.43,1.29L708.36,476l-1.29,2.14-.71,1.29-.57,1.14-.86,1.29-.43.86-.71,1.29-.71,1.14-.71,1-.86,1.14-.71,1-1.43,2.29-2.57,3-1.72,1.86-1,1-.86,1-1,.86-3.14,2.43-1,.71-1.29.57-1.29.43-1.14.29-2.57.57h-2.43l-1.57-.14-1.14-.43-1.29-.43-1.14-.71-1-.86-.71-1-.71-1.14-.57-1.29-.29-1.14-.29-1.29-.14-1.29v-1.29l.29-2.57.29-1.29.43-1.29.57-2.57.43-1.14.29-1.29.43-1.29.43-1.14,1.29-3.86.14-1.14.29-1.29.43-1.29.29-1.29.29-1.14.86-2.57.43-1.71.43-1.86.86-2.57.29-1.29.29-1,.29-1.29.57-1.43.43-1.14.86-3.86.43-1.29.43-1.72.57-1.86.43-1.29.57-1.14.86-.71,1.29-.57,1.14-.14,1.43.14,2.57.29,2.29.86.71,1v1.29l-.29,1.29-.43,1.71-.43,1.86-.86,2.57-.29,1.14-.29,1.29-.43,1.43-.43,1.71-1.43,4.29-.29,1.29-.57,1.86-1,3-.29,1.29-.29,1.14-.29,1.29-1,2.43-.29,1.29-1,3.57-.86,2.57-.29,1.29-.43,1.86-.43,2.29-.29,2.43.29,2.14,1.14,1.57,1.57.43,1.29-.14,1.29-.57,1-.71,1.14-.86,4.72-4.72.86-1,.71-1,.86-1.14,1.43-2.29.86-1,.57-.86.71-1.14.86-1.29.57-1.29,1.14-2.43,1.71-3.43.71-1.14,1.29-.71,1.86.29,1.14,1.43Z"/><path id="path119726" class="cls-2" d="M723.65,437l-2,6-.29,1.29-.43,1.29-.57,1.86-1,3-.43,1.43-.14.86-.43,1.43-.43,1.29-.29,1.43.29.86.86-.57,1.43-1.14,5.86-5.86.71-1,.71-1.14.86-1.29.57-.57.86-1.29,1-1.29,1-1.43,1-1.57.71-1.14.57-1,.71-1,1.14-2.29.57-1.43.43-.86.57-1.43.57-1.29.29-1.29.43-1.29.43-1.57.57-1.57.43-1.57.57-1.57.14-1.43.14-1.29V415.8l-.29-1.14-.43-1.14-1-.71-1.14-.29-1.29.29-1.29,1-1,.86-.71.86-.71,1-.71,1.14-1.43,2.14-.71,1.29-.57,1.29-.57,1.14-.57,1.29-.57,1.14-.57,1.29-.43,1.14-.57,1.57-.86,2.14-.57,1.29Zm23.72-4-.71,1.29-1.14,2.29-.71,1.57-1,1.57-.71,1-.71,1.14-.71,1-.71,1.29-.57.86-.71,1.14-1,1.29-1.29,1.43-1.29,1.29-.57.71-1,1.14-1.86,1.86-.86,1-1.57,1.71-1,.86-1.14,1.14-1.57,1.14-2.14,1.86-1.14.71-3.14,2-1,.43-1.14.71-1.57,1.29-1,1.29-.57,1.14-.29,1.57-.43,2.57v.86l-.29,1.43-.29,1.29-.14,1.43v3l-.14,1.86V486l.29,1.57.14.86.29,1.43.57,1.29.57,1.14.86,1,1.14.71,1.14.43,1.43.29h2.43l1.14-.14,1.29-.43,1.72-.71,1.57-.86,1.14-.86,1.43-1.14,1.29-1.29,1.72-1.57,1.14-1,.86-1.14.57-.71.86-1.14.57-1,.86-1.29.57-.71.86-1.29,1.14-2.14.71-1.14.86-1.29.71-1.29.71-1.43,1.29-1.86,1.43-1.14,1.86.29,1.14,1.43v1.43l-.43,1.29-.57,1.14-.71,1.14-.57,1.29-.57,1.14-.43,1.14-.71,1.14-.57,1-.71,1.14-.86,1.29-.29.71-.71,1.29-.86,1.14-1.43,2-1,1.29-.57.57-1,1.29-.86,1-1.14,1.43-1.29,1.14-1,1-.86.71-1,.86-1.29.71-1.14.57-1.29.57-1.14.57-1.14.43-1.29.57-1.71.57-2.86.57-1.72.14-1.57-.14h-.86l-1.43-.14-1.29-.29-1.14-.43-1.29-.43-1.14-.57-1.14-.71-1-.86-.86-.86-.86-1-.57-1.14-.57-1.29-.43-1.14-.29-1.29-.43-1.29-.14-1.29-.29-1.43V488l-.29-1.57-.14-1.29v-1.29l.14-1.29.14-1.43v-.86l.14-1.86.43-3.14.14-1.71v-1.29l.29-1.29.29-1.43,1-4.72.43-1.71.43-2.57.29-.71.43-1.72.29-.86.57-2.14.43-1.86.29-1.29.43-1.72.57-2,.14-1,.57-2,.57-1.86.43-1,.57-1.86.57-1.71.57-1.29,1.43-3.72.29-.86.86-2,1-2.29.71-1.71.57-1.29.43-.86.71-1.29,1-2.43.71-1.43.71-1.29.86-1.29,1.14-1.86,1.86-2.57.86-1.14,1.86-1.86.57-.71,1-1,1-.71,2.29-1.57,1.57-1,1.57-.71,1.29-.43,1.29-.29h2.57l1.43.29.86.14,1.43.43,1.14.57,2,1.71.71,1.14,1,1.43.71,1.71.57,1.29.57,1.71.29,1.86v2.57l-.29,3.86-.57,2.57-.43,1.14-.29,1.43-1.14,3.43-.57,1.14Z"/><path id="path119732" class="cls-2" d="M406.3,568.87V550.32H382.67v18.54h-5V528.44h5v17.39H406.3V528.44h5v40.42Z"/><path id="path119736" class="cls-2" d="M448.12,533.66l-8.61,21.76h17.15Zm13.63,35.21-3.58-9H438.06l-3.58,9h-5.76L445,528.45h6.24l16.3,40.42Z"/><path id="path119740" class="cls-2" d="M481,548.69c0-12.42,9.15-20.91,20.79-20.91a18.08,18.08,0,0,1,15.33,8l-4.24,2.36a13.64,13.64,0,0,0-11.09-5.88c-8.85,0-15.57,6.79-15.57,16.42s6.73,16.42,15.57,16.42a13.48,13.48,0,0,0,11.09-5.88l4.3,2.36c-3.39,4.61-8.24,8-15.39,8-11.63,0-20.79-8.48-20.79-20.91"/><path id="path119744" class="cls-2" d="M560.17,568.87l-15.33-18.18-4.06,4.61v13.57h-5V528.44h5v20.91l17.88-20.91H565l-16.85,19.21,18.3,21.21Z"/><path id="path119748" class="cls-2" d="M584.29,568.87V528.44h26.48v4.48H589.32v13h21v4.48h-21v13.94h21.45v4.48Z"/><path id="path119752" class="cls-2" d="M654.59,540.63c0-4.55-3.27-7.7-8.06-7.7h-10.6v15.45h10.6c4.79,0,8.06-3.21,8.06-7.76m-.3,28.24L644,552.81h-8.06v16.06h-5V528.45h16.24c7.39,0,12.67,4.73,12.67,12.18,0,7.27-5,11.27-10.48,11.76l10.91,16.48Z"/><path id="path119756" class="cls-2" d="M677.43,563.17l3-3.82a17.09,17.09,0,0,0,12.73,5.76c7.21,0,9.51-3.88,9.51-7,0-4.85-4.91-6.18-10.24-7.64-6.48-1.7-13.7-3.52-13.7-11.45,0-6.67,5.94-11.21,13.88-11.21,6.18,0,11,2.06,14.36,5.63l-3,3.7a15.47,15.47,0,0,0-11.7-4.85c-4.85,0-8.3,2.6-8.3,6.42,0,4.06,4.67,5.27,9.82,6.67,6.61,1.76,14.12,3.82,14.12,12.3,0,5.88-4,11.88-14.91,11.88-7,0-12.18-2.67-15.51-6.42"/><path id="path119760" class="cls-2" d="M744.05,639.6c-11.77-2.55-26.44-3.85-43.61-3.85-62.82,0-140.84,17.35-141.76,17.57l-2.77,1.11c.08-.67.18-1.55.31-2.71.64-5.81,1.85-16.62,3.64-20.19l.55-1.09-1.2-.24c-4.41-.88-7.25.61-10,5.3a11.83,11.83,0,0,0-4.16-.69,16.92,16.92,0,0,1-4.61,0,11.82,11.82,0,0,0-4.16.69c-2.74-4.69-5.58-6.18-10-5.3l-1.2.24.55,1.09c1.79,3.57,3,14.38,3.64,20.19.13,1.16.23,2,.31,2.71l-2.91-1.15c-.78-.17-78.81-17.53-141.63-17.53-17.17,0-31.84,1.3-43.61,3.85l-4.16.9,4.15.92c29,6.39,46.05,16.21,49.32,28.39l.34,1.27,1.09-.74c2.93-2,7.89-3.14,13.62-3.14,12.72,0,26.19,5.55,27.33,16.15l.12,1.09,1.06-.29c9-2.49,22.59-5.79,36.83-5.79,31.29,0,52.55,16.27,63.27,48.38.45,1.35-3.1,5-3.53,6.82a.5.5,0,0,0,.49.6h3.87a1.79,1.79,0,0,1,1.74,1.39l5.23,22.68a.56.56,0,0,0,1.09,0l5.23-22.67a1.79,1.79,0,0,1,1.76-1.39l3.68,0a.5.5,0,0,0,.51-.59c-.41-1.88-3.83-5.5-3.38-6.85,10.72-32.12,32-48.4,63.28-48.4,14.24,0,27.83,3.31,36.82,5.79l1.06.29.11-1.09c1.14-10.6,14.61-16.15,27.33-16.15,5.72,0,10.68,1.15,13.62,3.14l1.08.74.34-1.27c3.27-12.18,20.32-22,49.32-28.39l4.16-.92Z"/></g></g></g></g></svg>