<svg xmlns="http://www.w3.org/2000/svg" xmlns:xlink="http://www.w3.org/1999/xlink" viewBox="0 0 540 87.48"><defs><style>.cls-1{fill:none;}.cls-2{clip-path:url(#clip-path);}.cls-3{fill:#1e1e1e;}</style><clipPath id="clip-path" transform="translate(0)"><rect class="cls-1" width="542.17" height="90.24"/></clipPath></defs><title>UTCS_Logo</title><g id="Layer_2" data-name="Layer 2"><g id="svg2"><g class="cls-2"><path id="path21444" class="cls-3" d="M120.89,65.63l-1.26,7a46.94,46.94,0,0,1-11.81,3.79c-9,0-17.49-6.12-17.49-17.45s7.53-16.87,18.37-18.32a21.16,21.16,0,0,1,11.61,3.79V51h-2.67l-1.56-4.52A11.07,11.07,0,0,0,108,43.18c-7.19,0-12.1,5.11-12.1,14.63,0,7.87,4.81,15.94,13.31,15.94A9.84,9.84,0,0,0,115.59,71l2.62-5.4Z" transform="translate(0)"/><path id="path21448" class="cls-3" d="M136.34,73.89c3.89,0,5.88-4,5.88-9.23,0-6.17-3-10.3-7.19-10.3-3.93,0-5.88,4-5.88,9.28,0,5.54,2.87,10.25,7.19,10.25m10.74-10.25c0,7.24-4.42,11.42-12,12.63-6.46,0-10.84-5-10.84-11.62,0-7.29,4.42-11.42,12-12.68,6.46,0,10.84,5.06,10.84,11.67" transform="translate(0)"/><path id="path21452" class="cls-3" d="M183.29,75.45l-4.61.14-.24-1.7,2.43-.48V59.51c0-2.53-1.07-3.65-2.82-3.65-1.46,0-3.26,1-5,2.19l-1.46,1V73.41l2.19.48-.24,1.7-4.13-.14-4.37.14-.24-1.7,2.19-.48V59.51c0-2.53-1.07-3.65-2.82-3.65-1.46,0-3.26,1-5,2.19l-1.46,1V73.41l2.43.48-.25,1.7-4.37-.14-5.59.14-.24-1.7,3.4-.48V55.67l-3.4.29-.24-1.7,5.83-1.5,2.09-.15.25,4L164.39,52c4.71,0,6.46,1.41,7,4.76L178.23,52c6.22,0,7.24,2.33,7.24,8.5V73.41l3.64.48-.24,1.7Z" transform="translate(0)"/><path id="path21456" class="cls-3" d="M205.06,55.62c-1.31,0-2.87.87-4.67,2.23L198.94,59v12.2a6.24,6.24,0,0,0,5.3,2.68c3.5,0,5.88-3.45,5.88-9s-2.14-9.18-5.05-9.18m-6.12,19.63v9.33l5.1.49-.24,1.7-7-.15-5.59.15-.24-1.7,3.4-.49v-29l-3.4.29-.24-1.66,5.83-1.5,2.09-.15.24,4L205.06,52c6.27,0,9.91,4.28,9.91,11.32,0,8.26-5,12-12.2,13a7.92,7.92,0,0,1-3.84-1" transform="translate(0)"/><path id="path21460" class="cls-3" d="M239.42,69.23a7.91,7.91,0,0,0,.59,3.64h2.43l.19,1.7-6.27,1.22L235,71.85l-7,4.42c-6.41,0-7.48-2.28-7.48-7.92V55.67l-3.4.25-.24-1.9,5.83-1.26,2.43-.2V68.74c0,2.53,1.07,3.64,3.45,3.64,1.51,0,3.45-1.22,5.3-2.43l1-.63V55.67l-2.92.25-.24-1.9L237,52.75l2.43-.2Z" transform="translate(0)"/><path id="path21464" class="cls-3" d="M243.84,55.47v-.83l1.7-1.7h3.16V49.79l3.16-3.16h1.26v6.65h7.34v2.19h-7.29V69.71c0,1.4.53,2.91,2.58,2.91a8.21,8.21,0,0,0,3.84-1.17l.83,1.66-5.68,3.16c-5.45,0-6.17-1.94-6.17-6.32V55.47Z" transform="translate(0)"/><path id="path21468" class="cls-3" d="M275.68,60.72c0-3.74-.73-6.32-4.47-6.32-3,0-4.86,2.77-5.25,6.8Zm-9.77,2.43c0,5.54,3,9.47,8.07,9.47a12.61,12.61,0,0,0,6.07-2l.78,1.85a29.63,29.63,0,0,1-8.5,3.84c-5.88,0-11.18-4.18-11.18-11.81,0-7.19,4.33-11,11-12.49,6.41,0,8.6,4,8.6,9.14v2Z" transform="translate(0)"/><path id="path21472" class="cls-3" d="M291.13,59l5.54-6.8h3.89v4.86H297c-1.17.24-3.3,1.85-4.62,3.45l-1,1.16V73.26l5.1.49-.24,1.84-7-.14-5.44.14-.24-1.7,3.4-.48V55.67l-3.4.29-.24-1.7,5.83-1.5,1.94-.15Z" transform="translate(0)"/><path id="path21476" class="cls-3" d="M320,70.68a9.1,9.1,0,0,0,6.85,3.06c4.18,0,6.61-2.63,6.61-6.18,0-3.3-2.14-5.19-5.05-6.46l-5.88-2.57c-3.5-1.5-6.37-3.74-6.37-8.07,0-5.3,4.86-8.4,11.61-9.81a15.61,15.61,0,0,1,8.9,2.82V50h-2.43l-1.41-4.42a7.2,7.2,0,0,0-5.73-2.38c-3.84,0-6.12,2.09-6.12,5.34,0,2.67,1.9,4.33,4.57,5.5l5.59,2.42c3.84,1.66,7.19,4.09,7.14,9,0,4.57-3.11,9-12.24,10.89A15.13,15.13,0,0,1,316,73.12l-1.07-6.56h3.4Z" transform="translate(0)"/><path id="path21480" class="cls-3" d="M355.77,55.33a4.16,4.16,0,0,0-2.81-.77c-3.31,0-5.84,3.69-5.84,9s2.82,9.09,7.58,9.09a10.65,10.65,0,0,0,5.49-2l.77,1.84A27.32,27.32,0,0,1,353,76.27c-6.22,0-10.84-4.08-10.84-11.57S347.8,53.43,353.78,52a11.63,11.63,0,0,1,6.71,2.43v4.86h-3.6Z" transform="translate(0)"/><path id="path21484" class="cls-3" d="M367.28,42l3.5-.25,1.36.25.24,2.72-.54,2.33-3.45.3-1.31-.3-.29-2.72Zm2.43,33.43-5.59.14-.24-1.7,3.4-.48V55.67l-3.4.29-.25-1.7,5.83-1.5,2.43-.2V73.41l3.65.48-.25,1.7Z" transform="translate(0)"/><path id="path21488" class="cls-3" d="M392,60.72c0-3.74-.73-6.32-4.47-6.32-3,0-4.86,2.77-5.25,6.8Zm-9.77,2.43c0,5.54,3,9.47,8.07,9.47a12.62,12.62,0,0,0,6.08-2l.77,1.85a29.62,29.62,0,0,1-8.51,3.84c-5.88,0-11.18-4.18-11.18-11.81,0-7.19,4.33-11,11-12.49,6.41,0,8.6,4,8.6,9.14v2Z" transform="translate(0)"/><path id="path21492" class="cls-3" d="M405.68,75.45l-5.59.14-.25-1.7,3.4-.48V55.67l-3.4.29-.24-1.7,5.83-1.5,2.09-.15.24,4.08L415,52c6.22,0,7.24,2.09,7.24,7.92V73.41l3.7.48-.24,1.7-5.59-.14-4.67.14-.24-1.7,2.43-.48V59.51c0-2.53-1.12-3.65-3.21-3.65-1.7,0-3.4,1.08-5.05,2.19l-1.46,1V73.41l2.67.48-.24,1.7Z" transform="translate(0)"/><path id="path21496" class="cls-3" d="M441.25,55.33a4.17,4.17,0,0,0-2.82-.77c-3.31,0-5.83,3.69-5.83,9s2.82,9.09,7.58,9.09a10.63,10.63,0,0,0,5.49-2l.78,1.84a27.25,27.25,0,0,1-7.92,3.84c-6.22,0-10.84-4.08-10.84-11.57S433.28,53.43,439.26,52A11.61,11.61,0,0,1,446,54.4v4.86h-3.6Z" transform="translate(0)"/><path id="path21500" class="cls-3" d="M463.9,60.72c0-3.74-.73-6.32-4.47-6.32-3,0-4.86,2.77-5.25,6.8Zm-9.77,2.43c0,5.54,3,9.47,8.07,9.47a12.61,12.61,0,0,0,6.07-2l.78,1.85a29.57,29.57,0,0,1-8.51,3.84c-5.88,0-11.17-4.18-11.17-11.81,0-7.19,4.33-11,11-12.49,6.41,0,8.6,4,8.6,9.14v2Z" transform="translate(0)"/><path id="path21502" class="cls-3" d="M33.9,29.22H34v0H33.9Z" transform="translate(0)"/><path id="path21506" class="cls-3" d="M51.31,14.59V12.25H49.87v-4h-1a42.45,42.45,0,0,1-6.11-.59,36.28,36.28,0,0,0-5.11-.52,8.65,8.65,0,0,0-3.74.72,8.66,8.66,0,0,0-3.74-.72,36.36,36.36,0,0,0-5.11.52A42.42,42.42,0,0,1,19,8.26H18v4H16.56v2.34H18v3.17H16.58v2.35H18v4.34h1a42.49,42.49,0,0,0,6.47-.66,33.85,33.85,0,0,1,4.86-.53,5.78,5.78,0,0,1,2.69.51h1.88a5.78,5.78,0,0,1,2.68-.51,33.84,33.84,0,0,1,4.87.53,42.48,42.48,0,0,0,6.46.66h1V20.11H51.3V17.76H49.87V14.59ZM25.15,21.86c-1.62.25-3.29.5-4.94.6l.44-12.31c1.62-.11,3.19-.33,4.73-.55a34.58,34.58,0,0,1,4.83-.5,7,7,0,0,1,2.73.45v1.7l-.37,10.3a9.68,9.68,0,0,0-2.25-.24,35.19,35.19,0,0,0-5.16.55m17.58,0a35.09,35.09,0,0,0-5.17-.55,9.67,9.67,0,0,0-2.24.24l-.37-10.3V9.54a7,7,0,0,1,2.73-.45,34.58,34.58,0,0,1,4.83.5c1.54.22,3.11.44,4.73.55l.44,12.31c-1.66-.09-3.32-.34-4.94-.6" transform="translate(0)"/><path id="path21510" class="cls-3" d="M25.42,11.36l-.29,0c-.92.13-1.85.27-2.79.38l-.06,1.57c1-.11,2.06-.26,3.07-.41h.06Z" transform="translate(0)"/><path id="path21514" class="cls-3" d="M26.58,11.19v1.58a21.51,21.51,0,0,1,4.51-.29l.05-1.55a22.34,22.34,0,0,0-4.56.27" transform="translate(0)"/><path id="path21518" class="cls-3" d="M25.42,18.5l-.29,0c-1,.14-2,.29-3,.41L22,20.53c1.13-.12,2.24-.28,3.33-.44h.06Z" transform="translate(0)"/><path id="path21522" class="cls-3" d="M26.58,18.34v1.57a23.13,23.13,0,0,1,4.25-.3l.05-1.55a23.51,23.51,0,0,0-4.3.28" transform="translate(0)"/><path id="path21526" class="cls-3" d="M25.17,15v1.58l.18,0A28.17,28.17,0,0,1,31,16L31,14.49a29.25,29.25,0,0,0-5.84.48" transform="translate(0)"/><path id="path21530" class="cls-3" d="M24,15.14l-1.79.23-.06,1.57c.63-.07,1.24-.15,1.85-.24Z" transform="translate(0)"/><path id="path21534" class="cls-3" d="M40.58,11.1a19.63,19.63,0,0,0-3.85-.17l.06,1.55a19.35,19.35,0,0,1,3.8.19Z" transform="translate(0)"/><path id="path21538" class="cls-3" d="M45.54,11.78c-.94-.11-1.87-.25-2.79-.38l-1-.15v1.58l.77.11c1,.15,2,.3,3.08.41Z" transform="translate(0)"/><path id="path21542" class="cls-3" d="M40.26,14.64a19.83,19.83,0,0,0-3.4-.14L36.91,16a18.22,18.22,0,0,1,3.34.16Z" transform="translate(0)"/><path id="path21546" class="cls-3" d="M45.67,15.37c-1-.11-2-.25-2.92-.4l-1.32-.19v1.58l1.1.16c1,.15,2.12.3,3.2.42Z" transform="translate(0)"/><path id="path21550" class="cls-3" d="M42.6,20.1c1.06.15,2.15.31,3.26.43L45.8,19c-1-.11-2-.26-3-.41l-.15,0Z" transform="translate(0)"/><path id="path21554" class="cls-3" d="M41.43,18.36a24.14,24.14,0,0,0-4.44-.3L37,19.61a23.25,23.25,0,0,1,4.39.33Z" transform="translate(0)"/><path id="path21558" class="cls-3" d="M19.54,41.75h0l8.82,6.42L25,58.61a.08.08,0,0,0,0,.05H25l8.89-6.47,8.89,6.46h.06a.08.08,0,0,0,0-.1l-3.38-10.4,8.82-6.41h0a.08.08,0,0,0,.05-.1.08.08,0,0,0-.1,0H37.39L34,31.23h0a.08.08,0,0,0-.08-.08.08.08,0,0,0-.07.08h0L30.49,41.6H19.58a.08.08,0,0,0-.1,0,.08.08,0,0,0,.05.1m12.37,1.8,2-5.08,2,5.08,5.46.36-4.2,3.51,1.34,5.3L33.94,49.8l-4.63,2.92,1.34-5.3-4.21-3.51Z" transform="translate(0)"/><path id="path21562" class="cls-3" d="M55.84,49.2A7.44,7.44,0,0,0,61,40.42l-.18-.81-.8.24a7.35,7.35,0,0,0-2.5,1.3,7.45,7.45,0,0,0-2.94-7.38l-.68-.49-.45.71a7.44,7.44,0,0,0,1.9,10,7.38,7.38,0,0,0-.57,2,7.41,7.41,0,0,0-2.25-3.2l-.65-.53-.49.68A7.45,7.45,0,0,0,52.67,53l0,0a7.41,7.41,0,0,0-1,1.89,7.42,7.42,0,0,0-1.55-3.59l-.52-.66-.62.57a7.44,7.44,0,0,0-.79,10.14l0,0A7.32,7.32,0,0,0,46.86,63a7.44,7.44,0,0,0-.77-3.84l-.37-.75-.72.43a7.45,7.45,0,0,0-2.87,9.76l0,0A7.28,7.28,0,0,0,40.45,70a7.41,7.41,0,0,0,0-3.92l-.22-.81-.79.27a7.44,7.44,0,0,0-4.86,8.78l-.75.51-.75-.51a7.43,7.43,0,0,0-4.86-8.78l-.79-.27-.21.81a7.43,7.43,0,0,0,0,3.92,7.15,7.15,0,0,0-1.69-1.32l0,0a7.45,7.45,0,0,0-2.87-9.76L22,58.45l-.37.75A7.43,7.43,0,0,0,20.9,63a7.37,7.37,0,0,0-1.38-1.65l0,0a7.44,7.44,0,0,0-.79-10.14l-.62-.57-.52.66a7.45,7.45,0,0,0-1.55,3.59,7.44,7.44,0,0,0-1-1.89l0,0a7.44,7.44,0,0,0,1.32-10.09l-.49-.68-.65.53A7.4,7.4,0,0,0,13,45.94a7.1,7.1,0,0,0-.57-2,7.44,7.44,0,0,0,1.9-10l-.45-.71-.68.49a7.45,7.45,0,0,0-2.94,7.38,7.37,7.37,0,0,0-2.5-1.3L7,39.61l-.18.81a7.43,7.43,0,0,0,5.12,8.78l.71.21a7.54,7.54,0,0,0,.43,1.75A7.28,7.28,0,0,0,9.69,50L8.86,50v.83a7.44,7.44,0,0,0,6.82,7.53l.73.06A7.33,7.33,0,0,0,17.19,60a7.38,7.38,0,0,0-2.59-.47,8.56,8.56,0,0,0-1,.06l-.83.11.16.81a7.48,7.48,0,0,0,2.94,4.61,7.49,7.49,0,0,0,5.29,1.35l.73-.1A7.62,7.62,0,0,0,23,67.79a7.38,7.38,0,0,0-3.55.32l-.79.28.33.77a7.46,7.46,0,0,0,3.83,3.9,7.33,7.33,0,0,0,3,.64,7.59,7.59,0,0,0,2.45-.41l.58-.2a42.62,42.62,0,0,0,3.58,2.68c-.69.45-1.45,1-2.3,1.49l1.47.91,2.23-1.47,2.23,1.47,1.46-.91-2.3-1.49a42.75,42.75,0,0,0,3.58-2.68l.58.2a7.57,7.57,0,0,0,2.44.41,7.38,7.38,0,0,0,3-.64,7.47,7.47,0,0,0,3.83-3.9l.33-.77-.79-.28a7.37,7.37,0,0,0-3.55-.32,7.32,7.32,0,0,0,1.1-1.42l.73.1a7.38,7.38,0,0,0,.93.06h0a7.38,7.38,0,0,0,4.36-1.41,7.47,7.47,0,0,0,2.93-4.61l.16-.81-.83-.11a8.65,8.65,0,0,0-1-.06,7.38,7.38,0,0,0-2.59.47,7.47,7.47,0,0,0,.79-1.61l.73-.06a7.44,7.44,0,0,0,6.82-7.53V50l-.84.07a7.29,7.29,0,0,0-3.37,1.14,7.55,7.55,0,0,0,.44-1.75ZM14.18,47.73a5.89,5.89,0,0,1,1.44-3.15,5.88,5.88,0,0,1-.85,6.55,5.81,5.81,0,0,1-.58-3.41m-2.34-9a5.89,5.89,0,0,1,1.62-3.05,5.88,5.88,0,0,1-1.25,6.5,5.83,5.83,0,0,1-.37-3.44m-.31,8.71A5.87,5.87,0,0,1,8.2,41.67a5.87,5.87,0,0,1,3.33,5.72m.4,7.47a5.85,5.85,0,0,1-1.46-3.14,5.86,5.86,0,0,1,4.43,4.9,5.85,5.85,0,0,1-3-1.76M18.32,53a5.85,5.85,0,0,1,.52,6.59A5.88,5.88,0,0,1,18.32,53M16.84,63.85a5.84,5.84,0,0,1-2.08-2.77A5.86,5.86,0,0,1,20.11,65a5.87,5.87,0,0,1-3.27-1.11m11.77,3.54a5.85,5.85,0,0,1,3.14,5.82,5.89,5.89,0,0,1-3.14-5.82M22.68,64.2a5.85,5.85,0,0,1,0-3.45,5.87,5.87,0,0,1,1.86,6.34,5.83,5.83,0,0,1-1.91-2.89m.82,7.43a5.85,5.85,0,0,1-2.61-2.28,5.87,5.87,0,0,1,6,2.69,5.83,5.83,0,0,1-3.43-.41m13.18-1.82a5.87,5.87,0,0,1,2.47-2.43A5.88,5.88,0,0,1,36,73.21a5.91,5.91,0,0,1,.67-3.39m10.19-.46a5.88,5.88,0,0,1-5,2.79,5.9,5.9,0,0,1-1-.09,5.86,5.86,0,0,1,6-2.69M45.09,64.2a5.85,5.85,0,0,1-1.91,2.88,5.82,5.82,0,0,1,0-3.45A5.88,5.88,0,0,1,45,60.74a5.9,5.9,0,0,1,0,3.46m3.08-8A5.9,5.9,0,0,1,49.44,53a5.88,5.88,0,0,1-.51,6.59,5.88,5.88,0,0,1-.76-3.37m2.76,7.6A5.86,5.86,0,0,1,47.66,65,5.85,5.85,0,0,1,53,61.08a5.86,5.86,0,0,1-2.08,2.77m8.64-22.18a5.88,5.88,0,0,1-3.33,5.72,5.86,5.86,0,0,1,3.33-5.72m-5.64-2.61a5.9,5.9,0,0,1,.38-3.44,5.9,5.9,0,0,1,1.25,6.49,5.9,5.9,0,0,1-1.62-3.06M51.57,48a5.89,5.89,0,0,1,.58-3.41A5.88,5.88,0,0,1,53,51.13,5.85,5.85,0,0,1,51.57,48m4.27,6.86a5.83,5.83,0,0,1-3,1.76,5.85,5.85,0,0,1,4.43-4.9,5.83,5.83,0,0,1-1.46,3.14" transform="translate(0)"/><path id="path21566" class="cls-3" d="M67.86,2.46,66.5,2.28C66.31,2.26,48.12,0,33.95,0h0C19.76,0,1.56,2.26,1.38,2.28L0,2.46V27.63H0v3.51c0,10.6,1.05,24.31,9.25,36.31a44.16,44.16,0,0,0,5.91,7h0l0,0c4.45,4.28,10.32,8.32,18.72,13h0c8.4-4.68,14.28-8.72,18.72-13l0,0h0a44.25,44.25,0,0,0,5.91-7c8.2-12,9.25-25.71,9.25-36.31v-.5h0ZM4.77,5.07c5.73-.64,18.6-1.92,29.17-1.92S57.38,4.43,63.11,5.07l1.6,22.57H3.16ZM56,65.7a40.89,40.89,0,0,1-5.6,6.58,60.28,60.28,0,0,1-16.5,10.54A60.25,60.25,0,0,1,17.42,72.28a40.91,40.91,0,0,1-5.6-6.58c-7.69-11.25-8.7-24.3-8.7-34.44h0l30.81-1.71,30.8,1.71c0,10.14-1,23.19-8.7,34.44" transform="translate(0)"/><path id="path21570" class="cls-3" d="M116.54,27.66l-3,.1-.16-1.14,1.59-.32V17c0-1.69-.77-2.44-2.07-2.44a7.86,7.86,0,0,0-3.43,1.46l-1,.62V26.3l1.78.32-.16,1.14-3.08-.1-3.4.1-.16-1.14,1.94-.32V6.47l-1.16.19-6.58-.09V26.2l3.73.42-.16,1.14-5.25-.1-5.45.1-.16-1.14,3.89-.42V6.56l-4.86.09-1.49,4.05H86.6V5L95.9,5l8-.06,3.47-.39h1.1v10.5L113.17,12c4.15,0,4.83,1.55,4.83,5.67V26.3l2.43.32-.16,1.14Z" transform="translate(0)"/><path id="path21574" class="cls-3" d="M131.47,17.84c0-2.5-.49-4.21-3-4.21-2,0-3.24,1.85-3.5,4.53ZM125,19.46c0,3.69,2,6.32,5.38,6.32a8.43,8.43,0,0,0,4.05-1.37l.52,1.23a19.72,19.72,0,0,1-5.67,2.56c-3.92,0-7.45-2.79-7.45-7.88,0-4.8,2.89-7.36,7.32-8.32,4.28,0,5.74,2.68,5.74,6.09v1.36Z" transform="translate(0)"/><path id="path21578" class="cls-3" d="M157.23,6.14,157.4,5l4.15.1,3.79-.1.16,1.13-2.76.42V19.78c0,4.22-1.72,7-8.17,8.52-6.38,0-8.65-3.44-8.65-8.58V6.56L143,6.14,143.17,5l4.47.1,4.44-.1.16,1.13-2.76.42V20.2c0,4,1.72,6.33,5.41,6.33,3.37,0,5.25-2.27,5.25-6.42V6.56Z" transform="translate(0)"/><path id="path21582" class="cls-3" d="M169.87,27.66l-3.72.1L166,26.62l2.27-.32V14.47l-2.27.19-.16-1.14,3.89-1,1.39-.1.16,2.73L176.06,12c4.15,0,4.83,1.39,4.83,5.28v9l2.46.32-.16,1.14-3.73-.1-3.11.1-.16-1.14,1.62-.32V17c0-1.69-.74-2.44-2.14-2.44a6.59,6.59,0,0,0-3.37,1.46l-1,.65v9.6l1.78.32-.16,1.14Z" transform="translate(0)"/><path id="path21586" class="cls-3" d="M186.81,5.36l2.33-.16.91.16.16,1.82-.36,1.55-2.3.2-.87-.2-.2-1.81Zm1.62,22.3-3.72.1-.16-1.14,2.27-.32V14.47l-2.27.2-.16-1.14,3.89-1,1.62-.13V26.3l2.43.32-.16,1.14Z" transform="translate(0)"/><path id="path21590" class="cls-3" d="M201.43,25.65l3.92-11.73-1.49-.32.16-1.13,2.85.09,2.69-.09.16,1.13-2.07.32-5.32,13.32-2.36,1-5.64-14.29-2-.32.16-1.13,3.73.09,3.4-.09.16,1.13-2.14.32,3.53,9.49Z" transform="translate(0)"/><path id="path21594" class="cls-3" d="M219.41,17.84c0-2.5-.49-4.21-3-4.21-2,0-3.24,1.85-3.5,4.53Zm-6.52,1.62c0,3.69,2,6.32,5.38,6.32a8.42,8.42,0,0,0,4-1.37l.52,1.23a19.71,19.71,0,0,1-5.67,2.56c-3.92,0-7.45-2.79-7.45-7.88,0-4.8,2.89-7.36,7.32-8.32,4.28,0,5.74,2.68,5.74,6.09v1.36Z" transform="translate(0)"/><path id="path21598" class="cls-3" d="M230,16.7l3.7-4.54h2.59v3.24h-2.4a7.4,7.4,0,0,0-3.08,2.3l-.65.78V26.2l3.4.33-.17,1.23-4.7-.1-3.63.1-.16-1.14,2.27-.32V14.47l-2.27.19-.16-1.14,3.89-1,1.3-.1Z" transform="translate(0)"/><path id="path21602" class="cls-3" d="M246.53,14.3a5,5,0,0,0-2.46-.71c-1.26,0-2.46.68-2.46,1.91,0,1,.81,1.69,2.27,2.43l2.49,1.26c2.17,1.1,3,2.33,3,4.18,0,2.92-2.36,4-6.09,4.83a11.06,11.06,0,0,1-4.92-1.46l-.62-3.66h2.07l1.1,2.69a4.87,4.87,0,0,0,2.66.81,2.37,2.37,0,0,0,2.59-2.47c0-1.26-.68-1.82-2.36-2.69l-2.56-1.33a4.38,4.38,0,0,1-2.72-3.76c0-2.27,2.11-3.54,5.87-4.34A8.71,8.71,0,0,1,249,13.46V16.7h-1.72Z" transform="translate(0)"/><path id="path21606" class="cls-3" d="M253.85,5.36l2.33-.16.91.16.16,1.82-.36,1.55-2.3.2-.87-.2-.2-1.81Zm1.62,22.3-3.73.1-.16-1.14,2.27-.32V14.47l-2.27.2-.16-1.14,3.89-1,1.62-.13V26.3l2.43.32-.16,1.14Z" transform="translate(0)"/><path id="path21610" class="cls-3" d="M271.54,35.34V32.1h2.79l3.21-4.89-1.3.39-5.44-13.65H265.9v9.89c0,.94.35,1.94,1.72,1.94a6.81,6.81,0,0,0,2.85-.91L271,26l-4.08,2.24c-3.63,0-4.11-1.3-4.11-4.21V14.34h-3.14v-.56l1.13-1.13h2.11v-2.1L265,8.44h.84v4.05h10.21l.16,1.1-2.14.32,3.6,9.49.26,2.24,4-11.73-1.49-.32.16-1.13,2.85.09,2.69-.09.16,1.13-2.07.32L279,27.18l-3.63,8.16Z" transform="translate(0)"/><path id="path21614" class="cls-3" d="M300.53,26.62c2.6,0,3.93-2.66,3.93-6.15,0-4.11-2-6.87-4.8-6.87-2.62,0-3.92,2.66-3.92,6.19,0,3.7,1.91,6.84,4.79,6.84m7.16-6.84c0,4.83-2.95,7.61-8,8.43-4.31,0-7.23-3.34-7.23-7.74,0-4.86,3-7.62,8-8.46,4.31,0,7.23,3.37,7.23,7.77" transform="translate(0)"/><path id="path21618" class="cls-3" d="M315,12.81H319v1.53H315v12l3.73.23-.16,1.23-5-.1-3.72.1-.16-1.14,2.27-.32v-12h-2.85v-.55l1-1.13h1.88v-.32a6.28,6.28,0,0,1,1.78-4.54l2.72-3.08h4.09V7.31h-4.21l-.62.88c-.45.61-.68,1.55-.68,3.66Z" transform="translate(0)"/><path id="path21622" class="cls-3" d="M343.82,27.76l-5.25-.1-5.45.1L333,26.62l3.89-.42V6.56L332,6.63l-1.49,4.11h-1.26V5l9.3.1,9.33-.1v5.73h-1.26l-1.49-4.11-4.86-.07V26.2l3.73.42Z" transform="translate(0)"/><path id="path21626" class="cls-3" d="M356.1,17.84c0-2.5-.49-4.21-3-4.21-2,0-3.24,1.85-3.5,4.53Zm-6.51,1.62c0,3.69,2,6.32,5.38,6.32A8.41,8.41,0,0,0,359,24.41l.52,1.23a19.73,19.73,0,0,1-5.67,2.56c-3.92,0-7.46-2.79-7.46-7.88,0-4.8,2.88-7.36,7.33-8.32,4.28,0,5.74,2.68,5.74,6.09v1.36Z" transform="translate(0)"/><path id="path21630" class="cls-3" d="M366.86,26.62l-.16,1.14-2.53-.1-3.34.1-.16-1.14,2.27-.32,4.8-5.9L363,14l-2-.32.16-1.17,3.73.1,3.08-.1.16,1.17-1.26.32,2.4,3.6.26.85L372.62,14,371,13.63l.16-1.17,2.53.1,3.34-.1.16,1.17-2.34.32-4.28,5.18,5.09,7.17,2,.32-.16,1.14-3.73-.1-3.08.1-.16-1.14,1.33-.32L369,22.12l-.26-.75-3.44,4.93Z" transform="translate(0)"/><path id="path21634" class="cls-3" d="M387.27,19.94l-4.7,1.95a2.44,2.44,0,0,0-.65,1.81c0,1.65.94,2.24,1.88,2.24a3.86,3.86,0,0,0,2.11-.85l1.36-.94Zm-2-7.94c4.08,0,5.12,1,5.12,5.15v6.35a4,4,0,0,0,.55,2.43h1.62l.13,1.14-4.18.81-1-2.5-3.86,2.82c-2.79,0-4.76-1.55-4.76-4.15a4.71,4.71,0,0,1,1.14-3l7.29-2.43V17c0-1.95-.16-3.12-1.91-3.12a7.73,7.73,0,0,0-2.66.59l-.55,2.56h-2.79V14.59Z" transform="translate(0)"/><path id="path21638" class="cls-3" d="M402.69,14.3a5,5,0,0,0-2.46-.71c-1.26,0-2.46.68-2.46,1.91,0,1,.81,1.69,2.27,2.43l2.5,1.26c2.17,1.1,3,2.33,3,4.18,0,2.92-2.37,4-6.09,4.83a11,11,0,0,1-4.92-1.46l-.62-3.66H396l1.1,2.69a4.87,4.87,0,0,0,2.66.81,2.37,2.37,0,0,0,2.59-2.47c0-1.26-.68-1.82-2.37-2.69l-2.56-1.33a4.38,4.38,0,0,1-2.72-3.76c0-2.27,2.11-3.54,5.87-4.34a8.73,8.73,0,0,1,4.57,1.45V16.7h-1.72Z" transform="translate(0)"/><path id="path21642" class="cls-3" d="M423.95,19.94l-4.7,1.95a2.45,2.45,0,0,0-.65,1.81c0,1.65.94,2.24,1.88,2.24a3.85,3.85,0,0,0,2.11-.85l1.36-.94Zm-2-7.94C426,12,427,13,427,17.16v6.35a4,4,0,0,0,.55,2.43h1.62l.13,1.14-4.18.81-1-2.5-3.86,2.82c-2.79,0-4.76-1.55-4.76-4.15a4.71,4.71,0,0,1,1.14-3l7.29-2.43V17c0-1.95-.16-3.12-1.91-3.12a7.69,7.69,0,0,0-2.66.59l-.55,2.56H416V14.59Z" transform="translate(0)"/><path id="path21646" class="cls-3" d="M429.16,14.34v-.55l1.13-1.13h2.11V10.55l2.11-2.11h.84v4.44h4.89v1.46h-4.86v9.5c0,.94.36,1.94,1.72,1.94a5.43,5.43,0,0,0,2.56-.78l.55,1.1-3.79,2.11c-3.63,0-4.11-1.3-4.11-4.21V14.34Z" transform="translate(0)"/><path id="path21650" class="cls-3" d="M458.22,10.06,458,8.31l-3.57,10.31h6.9Zm-4.31,10.08-2.11,6.06,2.82.42-.16,1.14-3.89-.1-3.47.1-.16-1.14,2.53-.35,8-21,1.95-.55,8.46,21.55,2.53.35-.17,1.14-4.47-.1-4.28.1-.16-1.14,2.75-.42-2.2-6.06Z" transform="translate(0)"/><path id="path21654" class="cls-3" d="M484.21,23.51a5.33,5.33,0,0,0,.39,2.43h1.62l.13,1.13-4.18.81-.91-2.63-4.7,3c-4.28,0-5-1.52-5-5.28V14.47l-2.27.16-.16-1.27,3.89-.84,1.62-.13V23.19c0,1.68.71,2.43,2.3,2.43,1,0,2.3-.81,3.53-1.62l.65-.42V14.47l-1.94.16L479,13.36l3.57-.84,1.62-.13Z" transform="translate(0)"/><path id="path21658" class="cls-3" d="M496.55,14.3a5,5,0,0,0-2.46-.71c-1.27,0-2.46.68-2.46,1.91,0,1,.81,1.69,2.27,2.43l2.5,1.26c2.17,1.1,3,2.33,3,4.18,0,2.92-2.37,4-6.09,4.83a11.07,11.07,0,0,1-4.93-1.46l-.61-3.66h2.07l1.1,2.69a4.88,4.88,0,0,0,2.66.81,2.37,2.37,0,0,0,2.59-2.47c0-1.26-.68-1.82-2.37-2.69l-2.56-1.33a4.38,4.38,0,0,1-2.72-3.76c0-2.27,2.1-3.54,5.87-4.34A8.72,8.72,0,0,1,499,13.46V16.7H497.3Z" transform="translate(0)"/><path id="path21662" class="cls-3" d="M500.47,14.34v-.55l1.13-1.13h2.1V10.55l2.11-2.11h.84v4.44h4.89v1.46h-4.86v9.5c0,.94.36,1.94,1.72,1.94A5.42,5.42,0,0,0,511,25l.55,1.1-3.79,2.11c-3.63,0-4.11-1.3-4.11-4.21V14.34Z" transform="translate(0)"/><path id="path21666" class="cls-3" d="M515.67,5.36,518,5.2l.91.16.16,1.82-.35,1.55-2.3.2-.88-.2-.19-1.81Zm1.62,22.3-3.72.1-.16-1.14,2.27-.32V14.47l-2.27.2-.16-1.14,3.89-1,1.62-.13V26.3l2.43.32L521,27.76Z" transform="translate(0)"/><path id="path21670" class="cls-3" d="M526.52,27.66l-3.72.1-.16-1.14,2.27-.32V14.47l-2.27.19-.16-1.14,3.89-1,1.39-.1.16,2.73,4.8-3.14c4.15,0,4.83,1.39,4.83,5.28v9l2.46.32-.16,1.14-3.73-.1-3.11.1-.16-1.14,1.62-.32V17c0-1.69-.75-2.44-2.14-2.44A6.59,6.59,0,0,0,529,16.05l-1,.65v9.6l1.78.32-.16,1.14Z" transform="translate(0)"/></g></g></g></svg>