<?xml version="1.0" encoding="UTF-8"?>
<svg xmlns="http://www.w3.org/2000/svg" viewBox="0 0 499.84082 399.1289">
  <defs>
    <style>
      .cls-1, .cls-2, .cls-3, .cls-4, .cls-5, .cls-6, .cls-7, .cls-8, .cls-9, .cls-10, .cls-11, .cls-12, .cls-13, .cls-14, .cls-15, .cls-16, .cls-17, .cls-18 {
        fill: none;
      }

      .cls-1, .cls-2, .cls-3, .cls-4, .cls-5, .cls-6, .cls-7, .cls-8, .cls-10, .cls-11, .cls-12, .cls-13 {
        stroke-width: 3px;
      }

      .cls-1, .cls-2, .cls-3, .cls-9 {
        stroke-miterlimit: 10;
      }

      .cls-1, .cls-12, .cls-15, .cls-18 {
        stroke: #004f20;
      }

      .cls-2, .cls-6, .cls-7, .cls-11 {
        stroke: #261e15;
      }

      .cls-3, .cls-9 {
        stroke: #a6c4e4;
      }

      .cls-4 {
        stroke: #251e15;
      }

      .cls-4, .cls-5, .cls-6, .cls-7, .cls-8, .cls-10, .cls-11, .cls-12, .cls-13, .cls-14, .cls-15, .cls-16, .cls-17, .cls-18 {
        stroke-linejoin: bevel;
      }

      .cls-4, .cls-5, .cls-7, .cls-8 {
        stroke-linecap: square;
      }

      .cls-5, .cls-13 {
        stroke: #323d47;
      }

      .cls-6 {
        stroke-linecap: round;
      }

      .cls-8, .cls-10, .cls-16 {
        stroke: #4c5b67;
      }

      .cls-9 {
        stroke-width: 2px;
      }

      .cls-9, .cls-19 {
        opacity: .35;
      }

      .cls-20 {
        fill: #007146;
      }

      .cls-21, .cls-19 {
        fill: #fff;
      }

      .cls-22 {
        fill: #97aed0;
      }

      .cls-23 {
        fill: #323d47;
      }

      .cls-24, .cls-25 {
        fill: #a6c4e4;
      }

      .cls-26 {
        fill: #acc2e3;
      }

      .cls-27 {
        fill: #88704b;
      }

      .cls-28 {
        fill: #4c5b67;
      }

      .cls-29, .cls-30 {
        fill: #4c3b26;
      }

      .cls-31 {
        fill: #62747f;
      }

      .cls-32 {
        fill: #261e15;
      }

      .cls-14, .cls-15, .cls-16, .cls-17, .cls-18 {
        stroke-width: 2.5px;
      }

      .cls-14, .cls-15, .cls-33, .cls-30, .cls-34, .cls-35, .cls-36, .cls-25 {
        opacity: .5;
      }

      .cls-14, .cls-17 {
        stroke: #51422c;
      }

      .cls-37 {
        fill: #00c141;
        opacity: .2;
      }

      .cls-34 {
        fill: #2a1e13;
      }

      .cls-35 {
        fill: #281e14;
      }

      .cls-36 {
        fill: #0d0f12;
      }

      .cls-38 {
        fill: #b88f73;
        opacity: .35;
      }
    </style>
  </defs>
  <g id="Layer_1" data-name="Layer 1"/>
  <g id="Layer_2" data-name="Layer 2">
    <g id="environment">
      <g>
        <g>
          <polygon class="cls-23" points="333.43606 237.04536 395.88633 225.47456 395.8861 262.98047 333.61131 276.14806 333.43606 237.04536"/>
          <polygon class="cls-25" points="339.35017 242.94127 341.5747 249.64912 340.94908 255.68895 343.62802 259.8355 341.52604 267.99948 331.19333 258.06828 339.35017 242.94127"/>
          <polygon class="cls-23" points="332.03407 183.48001 395.66726 171.26236 395.25511 214.99429 329.58058 227.7607 332.03407 183.48001"/>
          <polygon class="cls-25" points="335.7143 189.55075 340.62126 202.94208 336.41529 208.83427 339.74502 212.94095 338.86878 221.1543 327.30235 210.61979 335.7143 189.55075"/>
          <polygon class="cls-25" points="334.6628 240.43783 343.77574 242.04479 349.73421 238.65232 358.14615 238.47377 366.38285 235.61695 375.67104 235.7955 379.35127 232.76013 383.55725 234.18854 391.44345 232.04593 389.34046 237.75956 391.2682 243.29465 388.63946 250.61525 391.96919 254.36482 392.31969 260.07846 386.18598 259.36425 381.10376 262.57817 370.58883 262.93528 362.52738 267.04195 349.90946 266.5063 339.92027 270.79153 336.94104 276.14806 395.8861 262.98047 395.88633 225.47456 333.43606 237.04536 334.6628 240.43783"/>
          <polygon class="cls-25" points="333.84207 188.30089 345.52823 188.83654 356.56891 183.83711 367.08385 184.72987 376.19679 179.90898 389.69096 177.49854 391.96919 182.7658 389.34046 188.47944 392.14444 194.72873 389.39597 201.51368 391.84946 207.22731 386.94249 211.69109 380.63353 210.08413 371.87108 214.72646 364.27987 213.65515 355.74818 217.94038 343.25 217.76183 335.06881 223.29692 333.31632 226.15374 396.18687 214.99429 396.59902 171.26236 331.56383 183.48001 333.84207 188.30089"/>
          <polygon class="cls-31" points="40.33227 331.2311 244.58487 397.38431 245.10899 374.70984 40.33227 310.34061 40.33227 331.2311"/>
          <path class="cls-29" d="M483.79961,244.54448l1.05148-7.67771-1.92771-8.57046-7.53572-8.57046,5.08221-5.89217,3.85548-8.21336,.35049-7.49911-3.32969-9.64181-5.9585-7.14201,2.62876-2.14264,4.20597-7.85626,1.75247-11.60579-2.27821-9.4632-3.50499-7.85626,3.85548-5.35652,2.10296-10.356-5.08221-12.32004-213.97892,44.63784,.87623,15.89102-2.80395,7.67771-9.11294,7.67771,8.93769,3.74958,4.20597,4.99942,1.90993,9.07195-2.08517,9.14026-5.9585,7.49917-9.2009,1.32933,6.0464,3.49154,6.30899,6.60636,2.26076,10.26181-1.91027,8.66465-6.48418,9.1061-9.20062,2.06796,10.77784,4.18131,5.4327,5.89217,1.03403,7.71222-1.55977,8.00031-6.48418,7.49917-9.20062,2.28628,7.0976,3.60589,5.25745,7.49917,.35049,10.35595-4.38122,10.1774-9.11294,4.10668,7.36047,3.21394,5.78319,7.32062,.52574,9.64175-3.68018,10.1774-10.16447,6.07078,226.77209-57.13637,5.78319-7.14207,1.22678-8.39191-2.27826-7.14207-4.90696-7.67766,3.50499-3.39249,4.73171-7.67771,.35049-8.74901-1.92771-7.14201-2.97925-7.32062,1.57722-1.60694,4.03073-6.07078Zm-78.86386,23.64347l-70.17966,15.00001,5.33945-10.34309,1.05148-10.356-4.64409-12.14149-1.48965-2.14259,3.1545-5.4458,2.62876-9.64175-.96386-9.19544-4.11835-8.2133-4.2936-5.89223,5.52032-7.76699,1.40197-9.73103-2.97919-11.60579-3.85548-7.85626,72.11488-13.83771,1.57728,.80347-.35049,5.17797,.08575,103.18801Z"/>
          <polygon class="cls-29" points="13.25631 84.91976 13.60681 106.88156 155.20793 57.51216 269.64546 166.87475 269.82071 131.87872 157.48616 35.81819 13.25631 84.91976"/>
          <polygon class="cls-32" points="269.64546 166.87475 484.15012 116.88042 485.20161 88.66934 269.29496 141.52048 269.64546 166.87475"/>
          <path class="cls-21" d="M160.64064,13.60353c11.18556-1.10287,21.55562,3.74957,29.26657,3.39247s10.18863-4.27908,18.95107-3.51216,15.74821,4.31564,25.21165,3.51216c7.71481-.65502,15.35329-5.11256,23.39665-5.66256,13.05604-.89276,17.43635,2.62719,24.0958,.12747s17.17439-8.21335,29.79231-9.28466c12.61792-1.07131,25.06059,4.28523,32.07055,5.71364s24.00343-5.73898,35.21936-2.88216c11.21593,2.85682,22.26228,13.23813,31.02473,16.80915,8.76245,3.57102,22.43186,7.85625,29.09132,13.56989s16.49808,20.71194,22.45655,22.85455,35.21688,4.46951,32.39636,26.78268c-2.97923,23.56875-19.62788,12.14148-32.2458,16.78381s-30.84381,23.56875-44.51322,26.42557c-13.66941,2.85682-28.39032-.7142-41.35874,2.49972s-17.87539,12.85568-34.69928,13.92699-21.38037-6.42784-33.29729-6.07074c-11.91693,.3571-30.84381,11.78438-42.76073,10.71307s-26.28734-16.42671-29.09132-29.63949c-2.80398-13.21279-9.46344-15.7125-12.96842-17.14091s-8.41195,1.07131-14.37041-3.21392-4.90697-11.07017-9.81394-18.21222c-4.90697-7.14205-10.86543-6.42784-17.52489-12.14148s-13.31892-21.78324-25.58634-21.78324-20.84358,7.96616-37.12293,14.62629c-15.77738,6.45477-12.64776,2.71234-25.61618,6.64047-8.96466,2.71539-10.72587,7.89973-21.02987,11.69152-13.66941,5.03024-22.71895,3.95893-30.4299,5.03024s-10.92884,7.82545-26.00024,6.75414c-15.07141-1.07131-17.17439-19.28353-3.50498-25.35427,13.66941-6.07074,22.43502-2.70882,32.24896-6.99405s12.33675-13.56989,23.55268-16.06961,12.54543,.10424,19.55539-2.03838,19.27738-16.78381,28.74082-18.21222,16.4734,2.14261,22.08136,1.07131,11.91693-9.64176,22.78236-10.71307Z"/>
          <polygon class="cls-28" points="54.05735 313.002 67.21911 309.40092 245.10899 365.9593 245.10899 374.70984 54.05735 313.002"/>
          <polygon class="cls-32" points="112.62244 172.94549 117.61083 174.83499 117.61077 330.23671 112.80748 333.22794 112.62244 172.94549"/>
          <polygon class="cls-20" points="117.70714 175.01168 177.28704 188.50678 177.28253 348.72055 117.7071 330.41344 117.70714 175.01168"/>
          <path class="cls-37" d="M117.61083,174.83499l-.00006,155.40172,59.57543,18.30716,.00449-160.2138-59.57986-13.49508Zm51.1545,160.96545l-43.28647-12.73046,.06893-60.19144,43.45638,10.79856-.23883,62.12335Zm.15899-80.0114l-43.2967-10.52199-.01085-60.22931,43.45638,10.79861-.14882,59.95268Z"/>
          <polygon class="cls-27" points="65.14967 101.05105 165.21612 67.90226 252.95741 152.51084 243.38016 154.47572 236.85511 161.68733 234.64441 171.26377 236.50387 180.09628 240.49703 185.8342 247.12653 190.00722 238.42952 196.86226 234.64133 206.69166 235.68946 214.47385 240.44298 221.81669 247.12653 225.70811 238.10066 229.87666 232.41151 240.16258 231.81452 248.72277 234.64441 257.90346 240.41781 263.94579 245.60868 266.48398 236.61711 271.94553 232.32083 279.89843 232.19523 287.82308 235.05403 294.40911 241.97537 300.20913 245.10899 302.16059 238.51921 304.85853 233.42757 311.17335 231.5325 319.71455 232.94022 327.13746 236.95028 333.22794 243.01257 336.83633 235.93729 340.94141 229.7566 349.98742 229.7566 359.71001 205.02476 353.21491 205.15386 165.44634 106.31348 142.41324 92.35439 146.61236 91.59257 317.56889 67.21911 309.40092 73.19144 300.96668 74.94393 292.57477 73.27255 286.10861 66.42923 277.34067 73.19144 271.14863 75.62762 265.61354 73.67944 258.30969 69.25371 251.64358 66.42923 248.72277 73.71719 239.90218 75.62762 233.11723 74.68437 226.43412 71.72177 220.41339 66.42923 214.36611 71.64112 208.22175 75.62762 201.15657 75.62762 193.83598 73.99011 187.7222 69.59001 180.60833 66.42923 177.23018 72.04797 167.51698 74.32801 160.36683 74.51176 153.60134 72.02984 146.43064 68.17233 141.45402 63.5524 137.59007 68.81022 132.05727 72.84094 125.09378 73.54194 119.38014 72.49044 110.98823 65.14967 101.05105"/>
          <ellipse class="cls-27" cx="250.3671" cy="171.63774" rx="15.72577" ry="18.47028"/>
          <ellipse class="cls-27" cx="251.85735" cy="208.08589" rx="17.24456" ry="17.9688"/>
          <ellipse class="cls-27" cx="249.22896" cy="246.41441" rx="17.24456" ry="19.83871"/>
          <ellipse class="cls-27" cx="248.87846" cy="284.03884" rx="17.24456" ry="17.78572"/>
          <ellipse class="cls-27" cx="245.62096" cy="354.95713" rx="16.39433" ry="17.61275"/>
          <ellipse class="cls-27" cx="246.79443" cy="320.00522" rx="15.26193" ry="17.36218"/>
          <ellipse class="cls-27" cx="40.06666" cy="122.34525" rx="18.99328" ry="17.69102"/>
          <ellipse class="cls-27" cx="40.28846" cy="160.28091" rx="18.99328" ry="20.31333"/>
          <ellipse class="cls-27" cx="42.80766" cy="198.94927" rx="16.50899" ry="18.28458"/>
          <ellipse class="cls-27" cx="42.78764" cy="235.0486" rx="16.11657" ry="16.55565"/>
          <ellipse class="cls-27" cx="42.91719" cy="267.34226" rx="16.11657" ry="14.44551"/>
          <ellipse class="cls-27" cx="44.28427" cy="299.71248" rx="14.87733" ry="16.31596"/>
          <polygon class="cls-32" points="195.69042 171.51708 205.15386 165.44634 205.02476 353.21491 195.69042 358.99581 195.69042 171.51708"/>
          <polygon class="cls-32" points="17.98803 105.45315 155.20793 57.51216 165.21612 67.90226 65.14967 101.05105 40.06666 104.65423 29.55446 107.06011 16.14792 107.06011 17.98803 105.45315"/>
          <ellipse class="cls-38" cx="250.3671" cy="171.63774" rx="15.72577" ry="18.47028"/>
          <ellipse class="cls-38" cx="251.85735" cy="208.08589" rx="17.24456" ry="17.9688"/>
          <ellipse class="cls-38" cx="249.22896" cy="246.41441" rx="17.24456" ry="19.83871"/>
          <ellipse class="cls-38" cx="248.87846" cy="284.03884" rx="17.24456" ry="17.78572"/>
          <ellipse class="cls-38" cx="245.62096" cy="354.95713" rx="16.39433" ry="17.61275"/>
          <ellipse class="cls-38" cx="246.79443" cy="320.00522" rx="15.26193" ry="17.36218"/>
          <ellipse class="cls-38" cx="40.06666" cy="122.34525" rx="18.99328" ry="17.69102"/>
          <ellipse class="cls-38" cx="40.28846" cy="160.28091" rx="18.99328" ry="20.31333"/>
          <ellipse class="cls-38" cx="42.80766" cy="198.94927" rx="16.50899" ry="18.28458"/>
          <ellipse class="cls-38" cx="42.78764" cy="235.0486" rx="16.11657" ry="16.55565"/>
          <ellipse class="cls-38" cx="42.91719" cy="267.34226" rx="16.11657" ry="14.44551"/>
          <ellipse class="cls-38" cx="44.28427" cy="299.71248" rx="14.87733" ry="16.31596"/>
          <polygon class="cls-27" points="406.16435 158.48284 413.34956 167.0533 415.62779 178.83768 410.54558 189.3722 405.11286 195.26438 411.24657 201.33512 415.80304 209.90558 415.2773 218.83314 411.07132 227.7607 405.81386 233.83144 411.42182 239.72363 415.2773 247.04422 416.32879 252.57931 413.34956 260.25701 406.6901 267.57761 404.67474 266.1492 405.46336 157.98067 406.16435 158.48284"/>
          <polygon class="cls-38" points="406.16435 158.48284 413.34956 167.0533 415.62779 178.83768 410.54558 189.3722 405.11286 195.26438 411.24657 201.33512 415.80304 209.90558 415.2773 218.83314 411.07132 227.7607 405.81386 233.83144 411.42182 239.72363 415.2773 247.04422 416.32879 252.57931 413.34956 260.25701 406.6901 267.57761 404.67474 266.1492 405.46336 157.98067 406.16435 158.48284"/>
          <polygon class="cls-29" points="91.24208 326.49949 92.35439 146.61236 195.69042 171.51708 195.69042 358.99581 177.11404 352.92507 177.19069 188.33007 112.62244 172.94549 112.80748 333.22794 91.24208 326.49949"/>
          <polygon class="cls-27" points="106.31348 142.41324 205.15386 165.44634 195.69042 171.51708 93.95843 146.69847 106.31348 142.41324"/>
          <polygon class="cls-30" points="106.31348 142.41324 205.15386 165.44634 195.69042 171.51708 93.95843 146.69847 106.31348 142.41324"/>
          <polygon class="cls-29" points="54.05735 313.002 67.21911 309.40092 73.98006 298.82406 75.03155 290.38752 71.21989 282.35272 66.42923 277.34067 73.19144 271.14863 75.29443 263.47093 72.66569 255.83787 66.42923 248.72277 72.13995 242.71436 75.03155 235.34912 75.29443 228.38563 71.72177 220.41339 66.42923 214.36611 73.98006 204.81687 75.5573 196.78207 74.37437 190.22031 71.6142 182.58725 66.42923 177.23018 72.04797 167.51698 74.63724 157.81328 74.37437 150.71587 69.90552 143.48455 63.5524 137.59007 71.48276 128.35233 73.45431 120.31753 73.45431 112.9523 67.53966 104.91749 63.728 101.03401 43.22388 104.38184 52.29301 108.53315 58.33909 115.49665 59.05994 122.34525 57.68191 129.42364 50.32146 137.45844 45.98405 140.40454 53.21306 145.22542 58.60197 153.66196 59.12771 163.83938 55.71036 172.40984 49.53284 178.83768 46.77267 181.51594 52.42444 184.86378 58.07622 191.29162 59.31665 198.94927 57.41904 208.03079 47.56129 218.74386 55.18461 224.1004 58.99628 232.26911 58.86484 240.17 54.39599 247.1335 49.00709 251.55264 47.69272 253.02569 53.21306 255.57004 58.07622 261.06049 59.03376 267.34226 58.33909 273.11269 50.58433 280.34402 46.9041 282.75446 53.87025 285.83446 58.20766 291.99448 59.25915 297.88667 58.7334 303.91277 54.05735 313.002"/>
          <polygon class="cls-28" points="245.10899 374.70984 474.68667 316.85773 474.33618 338.73025 244.58487 397.38431 245.10899 374.70984"/>
          <polygon class="cls-31" points="92.64407 351.49666 112.27194 343.10475 172.38232 361.49552 153.98118 372.56569 92.64407 351.49666"/>
          <polygon class="cls-28" points="153.98118 384.70717 172.90806 373.637 172.90806 362.74538 153.98118 372.56569 153.98118 384.70717"/>
          <polygon class="cls-31" points="92.64407 351.49666 153.98118 372.56569 153.98118 384.70717 91.59257 363.45958 92.64407 351.49666"/>
          <polygon class="cls-31" points="150.30096 257.40019 171.50607 262.57817 171.33082 268.82747 149.95046 263.64948 150.30096 257.40019"/>
          <path class="cls-14" d="M255.66329,190.26495c10.06889,2.72164,15.82146,12.40095,12.84872,21.61935-2.37819,7.37472-10.83604,11.58806-18.89115,9.41075-6.44409-1.74185-10.12573-7.93661-8.22318-13.83638,1.52204-4.71982,6.93507-7.41636,12.09034-6.02288,4.12422,1.11478,6.48047,5.07943,5.26284,8.85529-.9741,3.02069-4.43844,4.74647-7.73782,3.85464-2.6395-.71346-4.1475-3.25083-3.36822-5.66738,.62343-1.93324,2.8406-3.03774,4.9522-2.46697,1.68928,.45661,2.6544,2.08053,2.15566,3.62713-.39899,1.23727-1.81799,1.94415-3.16941,1.57886"/>
          <path class="cls-14" d="M251.85253,151.4378c10.11983,2.15736,16.68176,11.85935,14.65648,21.66998-1.62022,7.84851-9.49667,12.81187-17.59254,11.08598-6.47669-1.38071-10.67633-7.58998-9.38015-13.86879,1.03694-5.02305,6.07787-8.1996,11.25922-7.09503,4.14508,.88366,6.83285,4.85759,6.00329,8.87603-.66364,3.21475-3.88984,5.24774-7.2059,4.54082-2.65285-.56554-4.37302-3.10886-3.84211-5.68066,.42473-2.05744,2.4895-3.35856,4.61178-2.90612,1.69783,.36195,2.79873,1.98967,2.45895,3.63562-.27183,1.31676-1.59328,2.14948-2.95154,1.85992"/>
          <path class="cls-14" d="M237.72352,261.68542c-6.24089-7.3482-6.00374-18.99525,.52969-26.01442,5.22674-5.61534,13.51125-5.40196,18.50396,.4766,3.99417,4.70285,3.84239,12.15696-.339,16.64923-3.34512,3.59382-8.6472,3.45725-11.84253-.30502-2.55627-3.00982-2.45913-7.78046,.21696-10.65551,2.14087-2.30004,5.53421-2.21264,7.57922,.19522,1.63601,1.92629,1.57384,4.97949-.13886,6.81953-1.37016,1.47203-3.54189,1.41609-4.8507-.12494-1.04705-1.23282-1.00726-3.18687,.08887-4.3645,.8769-.9421,2.26681-.9063,3.10445,.07996"/>
          <path class="cls-14" d="M264.50082,292.66481c-5.73483,6.86372-15.946,7.98432-22.80728,2.50293-5.48902-4.38511-6.21955-12.39126-1.63168-17.88224,3.67029-4.39278,10.20544-5.10997,14.59666-1.60188,3.51297,2.80647,3.98051,7.93041,1.04428,11.44463-2.34899,2.81138-6.53148,3.27038-9.34186,1.0252-2.2483-1.79614-2.54753-5.07546-.66834-7.32457,1.50335-1.79928,4.18015-2.09304,5.97879-.65613,1.43891,1.14953,1.63042,3.2483,.42774,4.68772-.96215,1.15154-2.67529,1.33955-3.82643,.41992-.9209-.7357-1.04347-2.07891-.27375-3.00014"/>
          <path class="cls-14" d="M256.67704,304.00205c6.29117,6.85526,6.36964,18.05666,.17525,25.01903-4.95551,5.5699-13.05275,5.63936-18.08569,.15516-4.02635-4.38737-4.07657-11.55626-.11216-16.01218,3.17153-3.56473,8.35376-3.60919,11.57484-.0993,2.57686,2.80791,2.609,7.39601,.07178,10.2478-2.02978,2.28143-5.34641,2.30988-7.4079,.06355-1.64919-1.79706-1.66976-4.73345-.04594-6.55859,1.29906-1.46012,3.4217-1.47833,4.74105-.04067,1.05548,1.15012,1.06865,3.02941,.0294,4.1975-.8314,.93447-2.18989,.94613-3.03427,.02603"/>
          <path class="cls-14" d="M257.02754,368.71106c-7.30688,5.83244-18.21841,4.94591-24.37158-1.9801-4.92253-5.54081-4.17431-13.81503,1.67119-18.48098,4.67641-3.73276,11.65978-3.16538,15.59781,1.26727,3.15042,3.54612,2.67156,8.84162-1.06956,11.82783-2.9929,2.38897-7.46226,2.02585-9.9826-.81105-2.01627-2.26952-1.7098-5.65864,.68452-7.56981,1.91546-1.52894,4.77585-1.29654,6.38886,.51907,1.29041,1.45249,1.09427,3.62153-.43809,4.84468-1.22589,.97852-3.05654,.82979-4.08887-.33221-.82586-.92959-.70033-2.31778,.28038-3.10059"/>
          <path class="cls-14" d="M397.31428,167.61786c4.5732-3.10153,10.34013-1.0901,12.88079,4.49265,2.03253,4.4662,.71438,10.09821-2.94418,12.57943-2.92685,1.98498-6.61768,.69766-8.24371-2.8753-1.30082-2.85837-.4572-6.46285,1.88428-8.05084,1.87318-1.27039,4.23532-.44651,5.27597,1.84019,.83253,1.82936,.29261,4.13623-1.20594,5.15254-1.19884,.81305-2.7106,.28576-3.37662-1.17772-.53282-1.17079-.18727-2.64718,.7718-3.29762,.76726-.52035,1.73479-.18289,2.16104,.75374,.341,.7493,.11985,1.6942-.49395,2.11048"/>
          <path class="cls-14" d="M395.53551,205.96891c4.28284-4.55928,10.57938-3.71227,14.06372,1.89184,2.78747,4.48329,2.26963,11.07454-1.15664,14.72197-2.74102,2.91794-6.7708,2.37586-9.00078-1.21078-1.78398-2.86931-1.45256-7.08771,.74025-9.42206,1.75425-1.86748,4.33331-1.52055,5.7605,.7749,1.14175,1.83636,.92964,4.53613-.47376,6.03012-1.12272,1.19519-2.77332,.97315-3.68672-.49593-.73072-1.17527-.59497-2.90312,.30321-3.85927,.71854-.76492,1.77493-.62282,2.3595,.3174,.46766,.75217,.38078,1.858-.19405,2.46994"/>
          <path class="cls-14" d="M400.86307,244.56361c3.0488-3.32716,7.34457-2.37009,9.59488,2.13767,1.80024,3.60621,1.2824,8.68738-1.15664,11.34911-1.95123,2.12938-4.70053,1.51686-6.14072-1.36811-1.15216-2.30798-.82073-5.55992,.74025-7.26343,1.24879-1.3628,3.00834-.97079,3.93006,.87559,.73738,1.4771,.52527,3.55835-.47376,4.6486-.79922,.8722-1.92534,.6213-2.51524-.56038-.47192-.94535-.33617-2.27734,.30321-2.9751"/>
          <polygon class="cls-20" points="332.64744 173.24264 404.93576 157.74773 404.93576 268.18799 334.7561 283.18798 340.46693 274.79582 395.8861 262.98047 395.88633 225.47456 340.46693 235.8647 340.46693 225.38349 395.47417 214.93825 395.88633 171.20632 336.36868 182.62268 332.64744 173.24264"/>
          <polyline class="cls-37" points="404.7167 157.89305 404.71855 224.18967 340.24787 235.92074 340.24787 225.43953 395.25511 214.99429 395.66726 171.26236 336.14961 182.67872 332.42838 173.29868 404.7167 157.80377"/>
          <path class="cls-14" d="M52.37472,108.26533c7.89605,6.73194,8.52417,18.24037,1.40295,25.70479-5.69698,5.97153-15.4361,6.44656-21.75294,1.06101-5.05347-4.30844-5.45547-11.67384-.89789-16.45106,3.64606-3.82178,9.8791-4.1258,13.92188-.67905,3.23422,2.7574,3.4915,7.47126,.57465,10.52868-2.33348,2.44594-6.32263,2.64051-8.91,.43459-2.0699-1.76474-2.23456-4.7816-.36778-6.73836,1.49343-1.5654,4.04648-1.68993,5.7024-.27814,1.32474,1.12943,1.43012,3.06023,.23538,4.31255-.95579,1.00186-2.58975,1.08155-3.64954,.17801"/>
          <path class="cls-14" d="M56.3078,172.10697c-6.37056,8.2807-17.65167,9.4581-25.19705,2.62979-6.03631-5.46265-6.79821-15.26127-1.70176-21.88583,4.07716-5.29965,11.29707-6.05318,16.12611-1.68306,3.86324,3.4961,4.35086,9.76721,1.08913,14.00693-2.60938,3.39178-7.23012,3.87404-10.32071,1.07716-2.47247-2.2375-2.78455-6.25102-.69704-8.96444,1.67-2.17074,4.62728-2.47938,6.60526-.68938,1.58238,1.432,1.78211,4.00065,.44611,5.73724-1.0688,1.38927-2.96146,1.58681-4.22736,.44121-1.01272-.91648-1.14055-2.56042-.28551-3.67183"/>
          <path class="cls-14" d="M36.83585,182.06756c8.88948-2.05085,17.72306,3.6493,19.73037,12.73163,1.60584,7.26587-2.85744,14.48605-9.96903,16.12673-5.68927,1.31254-11.34276-2.33555-12.62743-8.14824-1.02774-4.65016,1.82876-9.27107,6.38018-10.32111,3.64113-.84003,7.25937,1.49475,8.08156,5.21488,.65775,2.9761-1.17041,5.93349-4.08331,6.60551-2.33032,.53762-4.646-.95664-5.1722-3.33752-.42096-1.9047,.74906-3.79743,2.61332-4.22753,1.49141-.34408,2.97344,.61225,3.31021,2.13601,.26942,1.21901-.4794,2.43036-1.67253,2.70562"/>
          <path class="cls-14" d="M38.22928,219.27952c8.13013-1.03542,15.54475,4.84018,16.56102,13.12351,.81301,6.62667-3.80053,12.67014-10.30464,13.49847-5.20329,.66267-9.94864-3.09771-10.59905-8.39905-.52033-4.24107,2.43234-8.10889,6.59497-8.63902,3.3301-.42411,6.36713,1.98254,6.78339,5.37539,.33301,2.71428-1.5567,5.18969-4.22078,5.52897-2.13127,.27143-4.07496-1.26882-4.34137-3.44025-.21313-1.73714,.99629-3.3214,2.7013-3.53854,1.36401-.17371,2.60798,.81205,2.77848,2.20176,.1364,1.11177-.63762,2.1257-1.72883,2.26467"/>
          <path class="cls-14" d="M29.55446,258.45085c4.91237-6.73002,14.16845-8.06612,20.67403-2.98427,5.20446,4.06548,6.2377,11.72581,2.3078,17.10982-3.14392,4.30721-9.06781,5.16232-13.23138,1.90993-3.33085-2.60191-3.99213-7.50452-1.47699-10.95028,2.01211-2.75661,5.8034-3.30388,8.46808-1.22236,2.13175,1.66522,2.55496,4.80289,.94527,7.00818-1.28775,1.76423-3.71417,2.11448-5.41957,.78231-1.36432-1.06574-1.63517-3.07385-.60498-4.48524,.82416-1.12911,2.37707-1.35327,3.46853-.50068,.87316,.68207,1.04651,1.96726,.38718,2.87055"/>
          <path class="cls-14" d="M49.06403,315.13534c-7.69116,2.48567-15.88893-1.9-18.31022-9.79567-1.93703-6.31654,1.48063-13.04913,7.63356-15.03767,4.92234-1.59083,10.16891,1.216,11.71854,6.26923,1.2397,4.04258-.9476,8.35145-4.88548,9.62411-3.1503,1.01813-6.50811-.77824-7.49987-4.01231-.79341-2.58725,.60646-5.34493,3.12671-6.15943,2.01619-.6516,4.16519,.49807,4.79991,2.56788,.50778,1.65584-.38814,3.42075-2.00109,3.94204-1.29036,.41703-2.66572-.31877-3.07195-1.64344-.32498-1.05974,.24841-2.18928,1.2807-2.5229"/>
          <line class="cls-15" x1="131.54932" y1="187.14031" x2="131.54932" y2="246.59785"/>
          <line class="cls-15" x1="138.58119" y1="189.01509" x2="138.58119" y2="248.47263"/>
          <line class="cls-15" x1="145.8102" y1="190.62205" x2="145.8102" y2="250.07959"/>
          <line class="cls-15" x1="153.43353" y1="192.36293" x2="153.43353" y2="251.82047"/>
          <line class="cls-15" x1="160.92542" y1="193.96989" x2="160.92542" y2="253.42743"/>
          <line class="cls-15" x1="132.0203" y1="265.14485" x2="132.0203" y2="324.60239"/>
          <line class="cls-15" x1="139.05217" y1="267.01964" x2="139.05217" y2="326.47717"/>
          <line class="cls-15" x1="146.28118" y1="268.6266" x2="146.28118" y2="329.53486"/>
          <line class="cls-15" x1="153.90451" y1="270.36747" x2="153.90451" y2="331.49893"/>
          <line class="cls-15" x1="161.3964" y1="271.97443" x2="161.3964" y2="333.46299"/>
          <path class="cls-25" d="M1.68989,75.45655s7.36045,8.0348,13.40654,6.69567,15.50953-7.76698,20.767-7.76698,24.44722-1.33913,28.91607-3.48175,10.51493-12.32003,17.61251-13.92699,25.23584-1.33913,29.44182-3.74957,26.55021-16.06961,34.96216-16.60526,20.767-3.48175,32.85917,12.85568,14.98378,10.17742,27.6017,20.35483c4.41083,3.55771,9.27356,17.40808,14.45803,19.0157,6.04609,1.87479,23.92423,12.16394,27.86458,18.74787,6.57183,10.9809,9.72631,18.74787,16.03527,19.81918,7.07742,1.2018,26.28734-10.17742,37.59089-8.83828,11.30355,1.33913,23.13286,6.9635,31.01906,6.42784s20.50412-13.39134,41.00824-17.40874c10.0709-1.97321,25.76159,3.48175,33.12204,2.14261s15.50953-15.80178,27.33883-21.96179c4.88756-2.54516,20.4165,1.60696,26.72546-.53565s9.81394-8.57046,4.55647-13.56989c-3.09873-2.94664-19.7155-5.17798-24.44722-13.21279s-8.93769-15.53395-13.40654-17.67657-22.86998-8.57046-31.01906-13.92699-11.67348-10.69842-14.3266-15.93569c-2.10299-4.15131-9.59488-8.43654-9.59488-8.43654l17.34964,6.16002,11.69786,8.30263,19.18975,7.36524,13.93229,7.09741,10.64637,11.51655,8.14907,9.50785,5.01928,3.27352,11.01599,2.88649,13.40654,5.75828,7.09758,8.70437,.78862,11.24872-4.07454,10.44524-6.96614,3.34783-14.85234,.26783-12.88079,4.15131-18.66401,13.12351-16.69246,9.37394-20.10981,2.14261-18.13826,.40174-13.80085,3.61566-13.80085,8.16872-12.74936,2.78251-16.03527-1.30946-11.8293-4.68697-14.85234,1.60696-17.34964,5.75828-14.85234,3.48175-11.04068-3.88349-10.90924-9.90959-5.65178-8.83828-4.33741-12.32003-5.12603-8.70437-8.80626-4.0174-9.332-.93739-6.83471-5.75828-3.81166-12.32003-5.91465-6.29393-10.25206-5.35654-9.59488-9.77568-9.98919-11.24872-8.89388-2.97577-12.13599,2.3062-23.39573,11.38264-12.74936,4.82088-11.69786,1.60696-8.93769,3.74957-13.66941,8.70437-16.69246,4.41914-14.92038,.99875-14.39,5.563-14.45803,.93739-8.14907-5.49045-1.4458-10.17742Z"/>
          <g class="cls-33">
            <path class="cls-24" d="M273.8288,108.05753h0c.19911-.45297,5.01964-11.12746,18.80207-14.20517,6.06976-1.35428,12.10952,.56367,17.4401,2.2556,4.11591,1.30658,8.00088,2.53905,11.05576,2.00827,1.65291-.28809,3.13853-1.65719,4.85872-3.24306,3.70859-3.42045,8.78642-8.10672,19.59398-5.28699h0c-8.3782-2.18566-12.90324,5.51487-16.47091,8.80378-2.06932,1.90776-4.20955,3.88037-7.19625,4.40142-4.15682,.72392-8.56276-.67483-13.226-2.15555-5.01328-1.59096-10.19476-3.23472-15.05893-2.15092-11.51218,2.57101-19.75945,9.4837-19.79855,9.57262Z"/>
          </g>
          <g class="cls-33">
            <path class="cls-24" d="M366.21989,79.98391h0c.12092-.32051,3.05943-7.90015,12.91051-11.54616,6.09431-2.25606,10.40933-.54977,13.55877,.69613,1.64745,.65213,2.94669,1.16856,3.8977,.89575,.76554-.21908,1.08285-.71929,1.86657-2.20928,1.16558-2.2153,2.9276-5.56396,8.65186-6.959,9.2792-2.26069,17.04006,4.16938,17.36646,4.44404h0c-.05728-.04724-9.30375-1.52843-16.2827,.16859-3.69223,.89992-4.59141,2.60853-5.63244,4.58715-.87919,1.67109-1.97385,3.75115-4.71052,4.53435-2.44391,.69937-4.67961-.1848-6.84166-1.04026-2.8685-1.13475-5.63661-1.59483-10.28477-.66001-7.85261,1.57929-14.47796,7.03033-14.49978,7.08869Z"/>
          </g>
          <g class="cls-33">
            <path class="cls-24" d="M239.22954,76.30965h0c.5346-.56459,13.25419-13.85965,27.03571-16.31302,7.64993-1.36216,18.63387,.59702,29.25959,2.49042,9.89018,1.76094,20.11858,3.58302,25.37825,2.11248,2.70848-.75866,5.87065-3.03139,8.92826-5.23002,2.95942-2.12776,5.75518-4.13742,8.4573-5.08227,9.80017-3.4274,17.21371-2.10368,22.11789-1.22784,1.24286,.22232,2.3148,.41407,3.1749,.48122h0c-1.08557-.08522-4.20852,.0434-6.04864,.22196-4.74984,.46089-5.95846-.08928-14.72091,2.49972-2.10492,.62193-7.61631,5.05574-10.2966,6.98249-3.38492,2.43345-6.8853,4.94981-10.37933,5.92801-6.26251,1.75214-16.53819-.07688-27.41302-2.01383-10.23113-1.82347-20.81138-3.70715-27.65577-2.48996-12.27317,2.18427-27.71669,11.51327-27.83761,11.64064Z"/>
          </g>
          <g class="cls-33">
            <path class="cls-24" d="M204.84893,45.27597h0l.62007-.68224c5.16648-5.68948,8.28455-9.12336,16.69957-9.71296,5.03555-.35293,9.70925,1.62709,13.46194,3.21897,2.33253,.98885,4.75007,2.01429,5.94293,1.80726,1.47607-.25103,2.82395-1.30889,4.38503-2.53396,1.95112-1.53121,4.16228-3.26714,7.30762-4.00033,4.68006-1.09352,13.30738,2.3913,14.27566,2.7924h0c-3.1358-1.29546-10.51421-.25765-12.79245,.81365-2.00365,.94219-4.22488,2.79762-5.95007,4.15144-1.88475,1.47934-3.83315,3.0087-6.46026,3.45472-2.51982,.42842-5.28967-.74662-8.49685-2.10646-3.47356-1.47332-7.41627-3.1407-11.35443-2.86604-6.57163,.46038-12.66685,.18804-17.63876,5.66354h0Z"/>
          </g>
          <g class="cls-33">
            <path class="cls-24" d="M302.22102,36.00765h0c.26185-.48122,6.54527-11.82081,18.07017-14.55161,7.35445-1.74149,12.29045,1.32649,15.89539,3.56634,2.64666,1.6433,4.22137,2.54832,5.81064,2.08793,1.4247-.41499,2.42663-1.45664,3.69404-2.77526,1.99295-2.07311,4.47413-4.65338,9.44377-5.4968,6.04885-1.02776,9.76744,.5632,12.75595,1.84014,1.36106,.58173,2.53573,1.0838,3.76132,1.28111h0c-1.78201-.2867-3.51697-.06829-5.53233-.24684-3.0379-.26914-4.20597-.62493-9.20057,.3571-3.45632,.67958-6.14849,3.75945-7.90232,5.58385-1.46743,1.52704-3.13125,3.25742-5.74154,4.017-3.62494,1.05832-6.61891-.80127-9.51196-2.5988-3.4031-2.11433-6.9244-4.29953-12.41773-2.99619-9.48014,2.24587-19.07028,9.83246-19.12483,9.93204Z"/>
          </g>
          <line class="cls-9" x1="364.01699" y1="205.4418" x2="373.48043" y2="185.08697"/>
          <line class="cls-9" x1="367.69722" y1="210.61979" x2="377.16066" y2="190.26495"/>
          <line class="cls-9" x1="376.81016" y1="204.37049" x2="386.2736" y2="184.01566"/>
          <line class="cls-9" x1="349.03321" y1="263.2031" x2="358.49665" y2="242.84827"/>
          <line class="cls-9" x1="356.74416" y1="260.16773" x2="366.2076" y2="239.8129"/>
          <line class="cls-9" x1="362.87788" y1="261.06049" x2="372.34132" y2="240.70566"/>
          <path class="cls-35" d="M260.17772,347.31889c11.71654-6.68923,26.39293-2.9776,39.55092-5.72104,10.66492-2.22363,20.04262-8.64539,30.48902-11.76523,13.81177-4.12491,28.92132-2.31945,42.49939-7.18352,7.02611-2.51696,13.42774-6.75575,20.64293-8.63724,5.59383-1.45869,11.43967-1.43767,17.18693-2.00466,9.98308-.98487,19.70274-3.75195,29.3611-6.50708l38.94721-11.11005c2.01197,1.88161-.30769,5.2022-2.67631,6.58737-6.20713,3.62991-13.48535,4.71267-20.54818,5.89134-28.16718,4.70061-55.92065,11.97153-82.81958,21.69727-5.86158,2.11935-11.78409,4.3776-17.99054,4.79165-6.30522,.42063-12.69417-1.08356-18.92133,.00841-4.72907,.82927-9.07054,3.10555-13.46735,5.06391-12.94884,5.76749-27.00274,8.94621-41.13054,9.30292-6.86896,.17344-14.54704-.02227-19.56631,4.75854-.10213-1.87016-.6531-3.71322-1.55738-5.17259Z"/>
          <path class="cls-35" d="M260.98419,360.91739c3.20752-4.38447,9.15911-5.346,14.49271-5.95728,12.0149-1.37701,24.11811-2.74914,35.66508-6.40167,6.22062-1.9677,12.25935-4.59153,18.63566-5.94657,5.92871-1.25991,12.02831-1.39649,18.02525-2.25827,6.53361-.93889,12.91524-2.73378,19.27525-4.52402l54.99751-15.4809,58.95904-16.59601c.7188,3.67346-2.14793,7.2522-5.53691,8.70428s-7.1901,1.34917-10.86358,1.50031c-6.79043,.27938-13.54246,1.51188-20.00572,3.6518-6.17016,2.04287-12.08141,4.90795-18.38087,6.48898-6.12388,1.53696-12.47806,1.826-18.69299,2.91967-10.27435,1.80802-20.03503,5.78581-29.93195,9.12823-8.32973,2.81315-16.82491,5.19325-25.50311,6.52056-5.5152,.84354-11.11,1.26359-16.51654,2.65768-7.15377,1.84462-13.78379,5.34317-20.77746,7.74187-18.18999,6.23881-38.53625,4.95437-55.92937,13.22217,.8048-1.69467,.8911-3.73475,2.08799-5.37082Z"/>
          <path class="cls-35" d="M261.03345,311.11752c5.08263-4.25212,12.50792-2.82661,19.05317-3.47964,6.28387-.62695,12.15909-3.3494,18.27381-4.95256,12.81881-3.36085,26.49074-1.75701,39.35034-4.95203,8.67409-2.1551,16.69463-6.42435,25.19684-9.20086,12.14149-3.96497,25.00884-4.8143,37.65683-6.45358,27.60764-3.57817,54.72508-11.06081,80.33179-22.16632,.88516,2.08082,1.05277,4.4701,.46708,6.65803-24.24103,8.56099-49.20719,14.98941-74.52974,19.19032-14.01666,2.3253-28.24894,3.99547-41.6787,8.69955-4.9958,1.74989-9.857,3.91273-14.94631,5.35605-14.22694,4.03472-29.52101,2.26768-43.8489,5.91275-8.94749,2.27627-17.42236,6.6406-26.60185,7.54397-5.89805,.58044-12.34544-.16766-17.26734,3.19398-.93499-1.34508-1.40474-3.01899-1.45701-5.34964Z"/>
          <path class="cls-35" d="M261.80963,321.1488c4.09241-.77788,8.19423-1.50325,12.29593-2.22859l61.83372-10.93471c8.81759-1.55931,17.66461-3.12575,26.20931-5.83676,6.62893-2.10318,13.04336-4.88552,19.73112-6.78557,5.53186-1.57165,11.21057-2.52826,16.86648-3.54288,13.65299-2.44923,27.24476-5.25273,40.75768-8.40688,14.96657-3.49345,29.94853-7.45787,43.79765-14.21283-.94027,3.78101-2.18071,7.97469-5.5326,9.85918-1.31643,.74012-2.82412,1.029-4.3022,1.30977-36.87743,7.00501-73.4952,15.42883-109.74908,25.24747-10.20333,2.76337-20.38999,5.64006-30.75803,7.66964-24.49707,4.79539-50.16517,4.9167-73.28885,14.45011,.71534-2.05847,1.43069-4.11694,2.13887-6.58795Z"/>
          <path class="cls-35" d="M414.26149,241.74531c3.5465-1.18634,7.24117-1.83117,10.91281-2.51657,18.84803-3.51844,37.48548-8.20742,55.77451-14.03226,.49161,1.63386,.9216,3.28696,1.28872,4.95444,.07632,.34665,.1474,.72254,.00371,1.04624-.17181,.38704-.59423,.57961-.98495,.72783-7.06755,2.68111-15.18446,1.70506-22.01164,4.96928-1.83818,.87887-3.60266,2.06974-5.62018,2.30338-1.37467,.1592-2.75426-.14306-4.12884-.30306-11.16972-1.30014-21.5797,6.73046-32.82197,6.77973-.54928,.00241-1.14029-.02876-1.57463-.37134-1.15782-.91323-.50362-3.38047-.83752-3.55768Z"/>
          <path class="cls-35" d="M416.1345,253.47094c.89503-2.01081,3.03152-3.18364,5.15911-3.60321s4.31887-.22875,6.48489-.29777c3.281-.10454,6.54248-.81552,9.5782-2.08798,2.33637-.97932,4.69869-2.31816,7.21263-2.06314,2.43954,.24748,4.53978,1.97168,6.9707,2.29545,6.36259,.84742,10.97756-7.84492,17.36907-7.266,1.00413,.09095,1.97853,.41745,2.98437,.48595,4.42026,.30105,8.00894-4.29542,12.43869-4.2369,.03391,2.82324-1.8206,5.56996-4.42053,6.54727-2.95936,1.11242-6.33431,.02632-9.37508,.88098-1.38897,.39039-2.63675,1.16686-3.90033,1.87232-6.92761,3.86771-14.89016,5.78816-22.78446,5.49527-1.2691-.04709-2.55025-.1493-3.8013,.07301-1.11349,.19787-2.16632,.64657-3.2162,1.07318-7.44644,3.02578-15.26802,5.09175-23.21941,6.13309,.65833-1.7799,1.6563-3.36191,2.51964-5.30153Z"/>
          <path class="cls-35" d="M264.15998,273.81839c2.00295-2.48691,5.49856-3.13065,8.65025-2.93545s6.26911,1.0524,9.4213,.8657c5.32083-.31513,10.02453-3.53058,15.17588-4.92402,3.68863-.99777,7.55141-1.04572,11.33405-1.56195,4.04571-.55213,8.01974-1.64703,11.78719-3.24754,1.66081-.70555,3.32794-1.52099,5.1234-1.64221,1.21743-.08219,2.43743,.16127,3.65622,.10388,3.42885-.16146,6.28216-2.61277,8.84584-4.93825,1.00464,2.11697,1.53718,4.46479,1.54607,6.81621,.00154,.40633-.02786,.85289-.30282,1.14721-.22725,.24325-.57029,.32468-.89266,.39471l-22.9818,4.99252c-1.74252,.37854-3.52165,.75922-5.29236,.55792-.85348-.09702-1.68847-.32816-2.54268-.4182-3.06635-.32324-5.99663,1.17134-8.79281,2.49368-8.27158,3.91173-17.46318,6.67909-26.46223,5.17584-1.45538-.24311-2.92714-.5975-4.38859-.39568s-2.94808,1.12174-3.30979,2.57845c-.38909-1.58275-.77818-3.1655-.57447-5.06282Z"/>
          <path class="cls-35" d="M267.63802,285.32655c1.45388-1.61132,3.77934-2.08848,5.92544-1.99073s4.24906,.67541,6.39421,.79291c9.29332,.50901,17.85854-7.5522,27.00741-5.81314,1.4384,.27342,2.83805,.7884,4.29851,.87987,3.09847,.19406,5.96123-1.51115,8.69005-3.01901,6.40138-3.5372,13.22458-6.28109,20.27149-8.15201-.40471,3.21218,1.91625,5.98359-1.06534,7.1061-1.18372,.44565-6.43797,1.07664-7.69458,1.19488-4.47159,.42076-8.86517,1.68705-12.89046,3.71521-2.50279,1.26104-4.98744,2.85011-7.77691,2.97376-3.03018,.13432-5.99418-1.50237-8.99591-1.05949-3.91098,.57703-6.53956,4.41461-10.18592,5.96665-2.88072,1.22616-6.12907,.92618-9.25098,.95195-6.0876,.05024-12.16125,1.44035-17.68505,4.04767,1.08664-2.24538,.86184-5.27142,2.95804-7.59462Z"/>
          <path class="cls-35" d="M414.08254,202.96099c8.446-2.51554,17.16173-4.08977,25.94176-4.68558,3.4289-.23269,6.91167-.32421,10.19928-1.34364,3.23618-1.00349,6.24724-2.89483,9.6177-3.18829,2.3995-.20892,4.83063,.41437,7.21227,.05071,4.98518-.7612,8.83838-5.66773,13.879-5.71779l.72751,4.93785-18.12695,5.95781c-1.46152,.48036-2.94319,.96464-4.47669,1.04802-1.20758,.06565-2.41973-.11959-3.62588-.03084-3.24309,.23862-6.0318,2.39507-9.17147,3.25657-5.83767,1.60181-12.14639-1.41394-18.02525,.023-3.91549,.95704-7.28998,3.8226-11.29957,4.19909-.57827,.0543-1.18964,.04829-1.70198-.23024-1.70364-.92619-1.52268-4.16557-1.14972-4.27666Z"/>
          <path class="cls-35" d="M415.79074,217.29677c4.47943-3.72342,11.15734-1.57877,16.82448-2.7425,4.36015-.89534,8.12167-3.79562,12.4702-4.74785,3.62683-.7942,7.41274-.17987,11.09342-.65124,2.3125-.29615,4.54947-1.01638,6.77144-1.73318l21.34304-6.8852c.05824,2.70929-.09695,5.87584-2.27061,7.43764-.64049,.4602-1.39461,.72177-2.1371,.97743l-9.07074,3.12326c-2.64532,.91084-5.32327,1.82875-8.10634,2.05985-3.42451,.28436-6.90143-.48199-10.29076,.09218-4.22046,.71497-7.97447,3.45587-12.24067,3.78487-1.31177,.10116-2.63253-.03146-3.94476,.06324-1.79576,.12959-3.53303,.68073-5.25125,1.22809l-17.33604,5.52261c.7038-2.53766,1.4076-5.07533,2.14568-7.52919Z"/>
          <path class="cls-35" d="M264.28977,236.32642c6.6085-4.76315,15.84693-2.32416,23.5432-4.8806,2.57085-.85395,4.95604-2.26709,7.58826-2.8978,3.64814-.87414,7.47246-.18189,11.20778-.49154,3.61557-.29973,7.08547-1.53156,10.50912-2.7531l20.1328-7.18327c-.13429,1.76591,1.43791,3.2889,1.40172,5.05972-.03931,1.92349-1.88819,3.23056-3.57914,4.08693-4.13275,2.093-8.58939,3.52042-13.15419,4.21316-3.78124,.57383-7.6572,.65219-11.32543,1.74908-2.34274,.70054-4.55109,1.80314-6.87002,2.58159-8.81594,2.95943-18.7808,1.11238-27.34554,4.75798-2.90214,1.2353-5.58284,3.08211-8.65239,3.78083-.49091,.11175-1.04582,.18158-1.46173-.10666-.42587-.29514-.5604-.86181-.66222-1.37621-.41244-2.08373-.82488-4.16745-1.33222-6.54009Z"/>
          <path class="cls-35" d="M266.60908,249.51601c9.87713-3.39062,21.06896-1.56417,30.63095-5.78972,2.55904-1.13087,4.99932-2.69374,7.75965-3.10286,1.87801-.27835,3.78723-.00141,5.68493,.0147,4.5817,.03888,9.03627-1.44055,13.33016-3.06939,5.5039-2.08784,10.90779-4.44931,16.18603-7.07319,.04927,2.79495-1.65897,5.38911-3.88109,7.02881s-4.90976,2.47288-7.56893,3.16142c-3.86488,1.00074-7.79118,1.7552-11.74832,2.25753-3.67393,.46637-7.40177,.72107-10.95199,1.79119-2.95484,.89066-5.72158,2.32769-8.62614,3.37606-10.68151,3.85536-23.05393,2.42128-32.83586,8.24989,.90651-1.91164,1.44806-4.00208,2.02061-6.84443Z"/>
          <path class="cls-35" d="M268.22815,199.18972c8.72254-3.83413,19.01984-.96418,28.09889-3.81247,3.9354-1.23462,7.54125-3.51911,11.58525-4.3095,2.19285-.42858,4.4434-.40201,6.66851-.59095,7.47915-.63509,14.52888-3.68151,21.42915-6.68883,.63498,2.65343,2.41053,3.57699,1.74037,6.22142-.14746,.58186,.20439,2.11747-.19592,2.55881-.5024,.55389,.72526,1.11682,0,1.26778-4.19677,.8735-12.86322,.55113-17.13923,.80832-7.6662,.46109-14.61068,4.69171-22.12883,6.28739-5.83219,1.23785-12.03301,.89676-17.53884,3.21479-4.01075,1.68858-7.84538,4.79916-12.14163,4.17515-.40131-3.12473-.80263-6.24947-.37772-9.13191Z"/>
          <path class="cls-35" d="M267.54323,215.35599c.97152-1.55266,2.89823-2.202,4.70284-2.30204s3.61328,.23308,5.41711,.11936c6.06168-.38215,10.86676-5.61513,16.83709-6.74953,2.4659-.46854,5.00309-.20983,7.50819-.34112,3.69933-.19388,7.29883-1.23586,10.8609-2.2713,8.28337-2.40784,16.58875-4.82344,24.54193-8.19432-.14973,2.24152-1.33191,4.38914-3.1311,5.68815-1.46749,1.05953-3.25056,1.54161-4.99099,2.00391-21.36322,5.67465-42.72644,11.3493-64.08967,17.02395,.89897-1.83203,1.59136-3.77471,2.34369-4.97707Z"/>
          <path class="cls-35" d="M414.1981,167.32942c4.0408-2.01437,8.59804-2.9412,13.08824-2.6618,2.71195,.16875,5.41473,.76792,8.12217,.53581,2.5832-.22146,5.03817-1.18811,7.50874-1.98808,11.9082-3.85586,25.21183-4.13265,35.65244-11.12654,1.14099-.76432,2.45135-1.64458,3.76267-1.2565l.47303,6.46513c.02204,.30129,.04256,.61408-.06331,.89629-.25583,.68195-1.0896,.8831-1.79806,.99257-9.12031,1.40927-18.09899,3.62651-27.06388,5.84096l-10.80973,2.67015c-8.90582,2.19985-17.81204,4.39981-26.68446,6.73556-.77123-2.183-1.54245-4.366-2.18785-7.10356Z"/>
          <path class="cls-35" d="M414.40922,180.22544c6.73327-5.32202,16.91283-1.22485,24.78529-4.54934,2.03902-.86107,3.8989-2.21684,6.06005-2.67399,2.86577-.60619,5.81198,.45331,8.73826,.39294,3.17776-.06555,6.16668-1.4387,9.10262-2.67924,6.46467-2.73154,13.14621-4.93006,19.95785-6.56699,1.07612,4.10534-1.53553,8.84091-5.53679,10.03956-3.56844,1.069-7.4501-.443-11.09976,.28792-2.88775,.57833-5.38609,2.51449-8.28161,3.05101-3.10101,.57459-6.29751-.51833-9.42782-.14336-3.41078,.40857-6.37139,2.49615-9.58021,3.74302-8.8668,3.44545-19.90712,.60554-27.39922,6.53979,.91507-2.29121,1.83013-4.58241,2.68134-7.44131Z"/>
          <path class="cls-35" d="M266.81793,177.70851c12.19649-.79709,24.64685-1.65192,35.94731-6.39428,3.45302-1.4491,6.79244-3.25913,10.42894-4.12495,4.28837-1.02103,8.76196-.67653,13.15301-1.01915,11.23043-.87627,21.65549-6.2071,32.72631-8.31966,6.4086-1.22291,12.96686-1.35422,19.43333-2.20402,6.13656-.80645,12.17189-2.25736,18.18528-3.74189,29.71693-7.33623,58.3936-15.04474,87.64053-24.13252-.93754,5.29689,.30521,7.84888-4.82661,9.12641s-16.07569,1.39395-21.29077,2.2529c-4.57516,.75355-8.94505,2.43005-13.34281,3.92008-12.81185,4.34088-26.06588,7.15105-39.2848,9.9517l-39.34887,8.33671c-29.62512,6.27657-59.25043,12.55319-88.91099,18.65355-5.28323,1.08662-10.62046,2.18469-15.52986,4.45097,.89036-2.62573,2.42587-5.02154,5.02001-6.75586Z"/>
          <path class="cls-38" d="M92.00822,146.23077c-1.34993-3.48585,.54747-7.35528,.33072-11.08001-.07136-1.22634-.37347-2.42792-.5182-3.64797-.1534-1.29313-.12925-2.59956-.10488-3.90127l.60209-32.15944c.01778-.94955,.04694-1.94279,.51532-2.77291s1.52779-1.41994,2.41475-1.04754c-.51158,9.28792-.50032,18.60375,.03369,27.89044,.41666,7.24596,1.15114,14.51482,.51163,21.74501-.10978,1.24111-.27903,2.53199-.98272,3.56718s-2.10187,1.71813-2.8024,1.40652Z"/>
          <path class="cls-38" d="M103.77158,142.39896c1.20528-3.08552-.38413-6.5131-.47775-9.83263-.0606-2.14856,.51485-4.25636,.78998-6.38745,.32247-2.49776,.23179-5.02947,.14052-7.54704l-1.08497-29.92561,4.4586-1.13003c-.39704,3.3828-.69303,6.77791-.88742,10.17905-.143,2.50194-.22951,5.03111,.20953,7.49704,.37871,2.12705,1.14712,4.20515,1.13065,6.36685-.01704,2.2369-.87834,4.44328-.60195,6.66245,.17241,1.38431,.77928,2.67702,1.01668,4.05131,.3953,2.28828-.25296,4.60917-.60369,6.90498-.38791,2.53927-.41113,5.13606-.06868,7.6821,.17721,1.3175,.44415,2.70596-.04268,3.93982s-2.109,2.09494-3.97882,1.53915Z"/>
          <path class="cls-38" d="M112.33891,143.21115c-2.11774-8.05651-1.09752-16.56526-.69626-24.89567,.36826-7.64525,.20015-15.31727-.50262-22.93816-.20708-2.24555-.45276-4.56843,.2416-6.71005s2.62853-4.05279,4.83676-3.89384c-1.48485,17.67873-1.66527,35.47103-.53923,53.17724,.13685,2.15191,.2865,4.36314-.34952,6.41989-1.33256,.06967-2.65194-.88007-2.99073-1.15941Z"/>
          <path class="cls-38" d="M123.31341,146.21493c.9531-4.34844-1.33462-8.82423-.89774-13.25749,.17265-1.75203,.76605-3.42915,1.13016-5.15047,.5803-2.74334,.57407-5.57554,.56531-8.38185l-.08103-25.95555c-.01039-3.32692-.02164-6.66659-.48298-9.96016-.05675-.40515-.11753-.8343,.03973-1.21089,.54122-1.29599,2.5163-.48871,3.81351-.97545,1.51756,4.437,.36728,9.28802-.11409,13.96103-1.13445,11.01292,1.56523,22.10072,1.02507,33.16044-.32445,6.64314-1.79048,13.50172,.28995,19.8063-2.06894-.43506-3.97032-1.65202-5.2879-2.03593Z"/>
          <path class="cls-38" d="M132.16191,148.13677c-1.73192-4.19359-2.3298-8.88877-1.70737-13.40818,.24012-1.74349,.65758-3.46266,.77214-5.21998,.15681-2.40528-.25766-4.80771-.35462-7.21642-.16538-4.10834,.59325-8.19424,.73805-12.30343,.36397-10.32887-3.12375-20.90571-.38008-30.8379,.90189-1.20614,2.9301-.59884,3.66115,.72703s.56814,2.96674,.40243,4.48626c-2.31313,21.21104-.84084,42.64971,.63373,63.94197-1.30895,.29683-3.15773,.25736-3.76544-.16936Z"/>
          <path class="cls-38" d="M84.65821,93.6786c-.1249,7.74395-.11123,15.48944-.09756,23.23442l.05995,33.95685c.02074,11.74837,.0416,23.50173,.59375,35.23665,.30213,6.42125,.7634,12.84869,.4984,19.27164-.25689,6.2262-1.19433,12.39972-1.81378,18.59937-1.43625,14.37456-1.16091,28.8629-.88399,43.30899l.91429,47.69579,2.29945,1.1541,1.09788-39.81281c.19619-7.11459,.39238-14.23464,.15648-21.34798-.45859-13.82862-.9196-27.3499-.24817-41.16949,.48689-10.02125,.79344-20.20476,1.13093-30.23238,.29499-8.7648-.63409-17.52112-.83522-26.28868-.49499-21.57721,3.41824-43.15802,1.77674-64.67623-1.09926,.44825-2.19852,.89649-4.64914,1.06975Z"/>
          <path class="cls-38" d="M144.36602,150.21446c.9795-4.48877-1.47405-9.19675-.53956-13.69547,.33734-1.62398,1.10621-3.14146,1.32759-4.78602,.49267-3.65994-1.76775-7.09682-2.25221-10.7579-.56382-4.2608,1.30927-8.53204,.95274-12.81602-.18088-2.17344-.93167-4.26865-1.08208-6.4445-.16334-2.36284,.38627-4.70753,.68013-7.05723,.78149-6.24891-.24717-12.56922-1.27297-18.78135,1.46329,.07333,2.94023-.14781,4.32094-.64697,.40248,7.33497,.66578,14.67786,.78971,22.0232,.08819,5.22697,.10581,10.45549,.2655,15.68071,.11592,3.79288,.30666,7.58292,.49738,11.37266l1.37808,27.38247c-2.07736-.37116-4.08151-1.16278-5.06524-1.47359Z"/>
          <path class="cls-38" d="M152.1364,151.44277l-.44708-20.76102c-.07956-3.69455-.15912-7.38911-.25249-11.08332-.14884-5.88908-.33275-11.77717-.51666-17.66523l-.87621-28.05248c1.37929-.50017,2.83678-.77576,4.30038-.81315,.09103,5.74366,.18206,11.48731,.27309,17.23097l.40399,25.49096,.16123,10.17349,.17708,11.17346,.26168,16.51139c-1.87618-.10254-3.46437-1.24636-3.48502-2.20507Z"/>
          <path class="cls-38" d="M165.05639,68.77875c-1.1205,.49172-1.32931,2.04769-1.0421,3.25577s.90047,2.37453,.80647,3.61384c-.16483,2.17313-2.43724,3.78402-2.42225,5.96357,.00679,.98817,.49382,1.89605,.79469,2.8355,.86665,2.70613,.18162,5.6395,.16715,8.48601-.02493,4.9021,1.9657,9.69755,1.55698,14.582-.188,2.24678-.88124,4.50952-.42561,6.71615,.17679,.85621,.52265,1.67035,.67779,2.5309,.65998,3.66079-2.18798,7.09234-2.24864,10.81386-.04042,2.48002,1.16328,4.82086,1.33164,7.29528,.14961,2.1989-.52376,4.36001-.78047,6.54861-.51682,4.4061,.65608,8.93967-.26661,13.27641,1.6715,.86608,3.56313,1.2864,5.4368,1.20807-.61433-1.20961-1.24647-2.50796-1.11089-3.86289,.07061-.70561,.34862-1.37938,.39282-2.08721,.1049-1.68001-1.10088-3.17511-1.24726-4.8519-.14679-1.68144,.7857-3.28581,.80865-4.97372,.02212-1.62682-.80254-3.19261-.672-4.81414,.12539-1.5575,1.11102-2.91384,1.40007-4.44857,.4035-2.14244-.5899-4.31484-.49788-6.49435,.08882-2.10384,1.18441-4.09852,1.06028-6.2005-.06294-1.06589-.43857-2.08808-.56577-3.14801-.17709-1.47555,.1317-2.95981,.28932-4.43765,.77175-7.23573-2.08434-14.51958-1.16149-21.73692,.29144-2.27926,.95649-4.50213,1.14668-6.79247,.28615-3.44601-.50353-7.00446,.43018-10.32936-1.01137-1.21737-2.31105-2.18434-3.85853-2.94828Z"/>
          <path class="cls-38" d="M173.26177,76.63786c-2.05223,.41543-2.7577,3.12691-2.36864,5.22151s1.43467,4.11403,1.22266,6.23483c-.14929,1.49337-.91229,2.85008-1.22801,4.31631-.50602,2.35,.16323,4.7721,.64173,7.12807,1.43053,7.04335,1.15984,14.3156,.86524,21.50191-.48846,11.91501-1.02525,23.84086-.68729,35.76128,1.50507,.87605,3.27961,1.26312,5.0048,1.09166-.75154-1.74372-1.51888-3.5736-1.3931-5.47372,.08299-1.25367,.55436-2.46055,.58764-3.71661,.03687-1.39121-.46326-2.72972-.77615-4.08444-1.04011-4.50337-.01208-9.19441,.26321-13.81228,.51986-8.7207-1.65759-17.63271,.34967-26.12675,.33944-1.4364,.79947-2.86842,.78736-4.34582-.01222-1.49052-.50414-2.92631-.85144-4.37428-.78985-3.29306-.83617-6.76884-.13436-10.08253,.33012-1.55872,.82552-3.10147,.8392-4.696s-.5662-3.31336-1.90636-4.13699c-.39482-.24265-.83506-.3961-1.21615-.40615Z"/>
          <path class="cls-38" d="M187.33291,90.12187c-3.07534,2.88772-1.02357,7.98006-.90579,12.23941,.11092,4.01157-1.74093,7.90588-1.46466,11.90916,.23993,3.47663,2.06372,6.66996,2.41562,10.13669,.4588,4.5199-1.61531,8.89751-1.99001,13.42546-.59127,7.1451,3.01197,14.70045,.20242,21.27475,1.73238,1.0361,3.74164,1.58612,5.75041,1.57412-.01089-5.79288-.52946-11.58467-1.54752-17.28395-.29018-1.62447-.62229-3.27471-.42745-4.91388,.17488-1.47117,.766-2.85507,1.09085-4.29956,.69205-3.07733,.15496-6.28174-.20684-9.41722-.95667-8.29094-.65883-16.73092,.87979-24.93046,.38928-2.07452,.85714-4.21994,.36913-6.27267s-2.73077-4.78947-4.16595-3.44185Z"/>
          <path class="cls-38" d="M195.57516,97.28895c2.24078,.96162,3.15108,3.9136,3.00093,6.48835s-1.06687,5.03809-1.29309,7.60649c-.35867,4.07212,1.03142,8.21316,.2905,12.22595-.28452,1.54095-.87691,3.00801-1.09137,4.56186-.29472,2.13537,.13862,4.29759,.47857,6.42527,1.56401,9.78891,1.16747,19.79934,.76609,29.72055-2.02982-.53798-3.52012-2.48914-4.19735-4.60293s-.67843-4.39666-.67249-6.63083c.04116-15.46172,.08232-30.92343,.12347-46.38515,.00923-3.46754,.30158-7.52463,2.59473-9.40956Z"/>
          <path class="cls-38" d="M209.15183,110.51402c-1.11688,1.04561-1.40414,2.74508-1.25557,4.28302s.66018,3.01685,.87544,4.54659c.30622,2.17612,.00599,4.3859-.17093,6.57687-.44884,5.5583-.10013,11.14775,.24871,16.71349,.09111,1.4536,.18482,2.92238,.59896,4.31648,.34491,1.16104,.90788,2.25442,1.14619,3.44293,.65679,3.27553-1.23946,6.57391-1.02637,9.91004,.08202,1.28404,.47691,2.54586,.41379,3.83101-.07097,1.44492-.71139,2.78578-1.1765,4.1527-.95678,2.81195-1.18606,5.8772-.65855,8.8044,.35652,1.97835,1.0495,3.88554,1.33874,5.87526,.2919,2.00805,.16598,4.05187,.03942,6.07773-.24708,3.95485-.49415,7.9097-.64163,12.15841,3.229,6.13491,.46889,13.57402-.03708,20.51624-.25701,3.52631,.09516,7.06486,.36604,10.59009,.97955,12.74797,.89746,25.55301,.81475,38.33971-.03317,5.1277-.06633,10.25541-.0995,15.38311-.14894,23.02357-.29763,46.04715-.44683,69.07072l5.08122,.63156c-1.18585-9.87985-2.37268-19.871-1.25234-29.75879,.31247-2.75772,.80457-5.52357,.58875-8.29088-.19214-2.46366-.94162-4.85626-1.12476-7.32063-.18983-2.55438,.23297-5.10838,.52466-7.65278,.96546-8.42149,.4967-16.96353-.70659-25.35317-.38408-2.67788-.84409-5.37862-.61348-8.07472,.26024-3.04256,1.39168-5.95765,1.62215-9.0027,.26687-3.52598-.6835-7.01233-1.18476-10.51171-.92367-6.4483-.32196-13.00817,.17365-19.50519,2.01669-26.43683,2.24713-53.01494,1.128-79.33944-.76212-1.70142-1.11895-3.58956-1.03141-5.45767,.04263-.90979,.18869-1.81434,.18336-2.72515-.00996-1.70426-.54673-3.35322-.84983-5.0293-.64581-3.5712-.22738-7.23861-.02259-10.86393,.21658-3.83403,.19132-7.68223-.07558-11.51297-.07273-1.04384-.17268-2.1196-.65754-3.04213s-1.45423-1.66017-2.11201-1.77922Z"/>
          <path class="cls-38" d="M216.12433,117.89573l-.09241,15.38274c-.01051,1.74946-.02019,3.50975,.27044,5.23401,.31533,1.87076,.97914,3.66721,1.28241,5.54004,.64699,3.99541-.3764,8.09893,.04353,12.12569,.30131,2.88933,1.34305,5.74797,.95572,8.62664-.37129,2.75947-2.04096,5.34821-1.71114,8.11314,.19235,1.61247,1.0596,3.0978,1.1359,4.72027,.10945,2.32749-1.42024,4.48433-1.34969,6.81338,.05598,1.84812,1.11345,3.53002,1.29079,5.37017,.31717,3.29124-2.20362,6.54309-1.28203,9.71406,.3003,1.03325,.94707,1.93592,1.23575,2.9726,.6782,2.43544-.72542,4.92793-.9825,7.44591-.13563,1.3285,.052,2.66576,.17503,3.99553,.19625,2.12105,.22823,4.25389,.26008,6.38409,.2287,15.29616,.45739,30.59232,.59068,46.55828,.79437,5.09191,.81597,10.3082,.06382,15.40676-.24623,1.66906-.57545,3.3623-.32863,5.03127,.19331,1.30717,.7331,2.53856,.95951,3.84021,.43426,2.49658-.30621,5.02579-.71548,7.52675-.54465,3.32817-.50271,6.72338-.45927,10.0972l.61749,47.95593c.55596,.69376,1.55251,.98121,2.38291,.68732-.73269-16.75472-1.07334-33.52724-1.02156-50.29851,.05383-17.43382,.5316-34.86331,.72787-52.29607,.17143-15.22628,.12807-30.45666-.05293-45.00514,.15038-5.32877,.1829-10.68254-.5115-15.96637-.1997-1.51955-.45941-3.06192-.22118-4.57569,.16761-1.06498,.57685-2.07629,.77851-3.13512,.28827-1.51357,.14466-3.07293,.03077-4.61036-.46211-6.23773-.4165-12.50161-.37063-18.75691l.05465-7.45162c.08042-10.9662,.1608-21.93619-.20682-32.8963-.04016-1.19729-.10452-2.4587-.73786-3.46805s-2.04396-1.61575-2.81223-1.08186Z"/>
          <path class="cls-38" d="M230.10351,131.04961c-2.38095,3.39596,1.67611,8.00914,.90483,12.10787-.53472,2.84164-3.36408,5.08218-3.07721,7.96077,.11863,1.19039,.77042,2.24569,1.17762,3.36798,.68302,1.88243,.67238,3.94151,.65315,5.94835-.05643,5.88718-.11405,11.77434-.17167,17.66151l-.30574,31.23714-.49294,50.36342-.12037,12.29793-.21845,22.31857c-.04109,4.19784-.08217,8.39568-.9357,12.71726,1.03982,3.32316,1.17381,6.93537,.38312,10.32901-.35166,1.50934-.87546,3.13205-.27268,4.55659,.27355,.64647,.76237,1.18942,.97228,1.86013,.26719,.8537,.0457,1.7749-.12648,2.65361-.62096,3.16893-.57613,6.42893-.52885,9.66004,.11843,8.09405,.23687,16.18809,.46898,24.30269,.00971-4.17982,.04477-8.49136,1.65714-12.33484,.54657-1.30288,1.26862-2.53405,1.67375-3.88948,.58625-1.96142,.47489-4.05914,.35801-6.10603l-.36643-6.41718c-.49391-8.64969-.97722-17.43882,.93068-25.88226,.48676-2.15417,1.12984-4.29111,1.24778-6.49836,.30976-5.79717-3.01776-11.35006-2.55743-17.13684,.21146-2.65827,1.21288-5.17379,1.9032-7.74637,1.48593-5.53749,1.52224-11.47154,.10421-17.02748-.58858-2.30609-1.4234-4.55406-1.78346-6.90843-.73606-4.81305,.55221-9.67099,1.37075-14.47019,1.38463-8.1182,1.43069-16.40362,1.47294-24.64337,.00926-1.80504,.01851-3.61008,.39462-5.14551,.65201-2.15668-2.11954-4.25868-1.46117-6.41335,.14305-.46817,.4446-.89119,.4806-1.38014,.05225-.70971-.46851-1.36705-.41332-2.07653,.08367-1.0757,1.43226-1.78251,1.34476-2.8579-.06153-.75624-.82886-1.28761-.9425-2.03756-.07313-.48263,.13846-.95541,.2815-1.4215,.75809-2.47024-.38637-5.12838-.19788-7.70942,.16602-2.27349,1.36277-4.40411,1.31691-6.6834-.05684-2.82529-2.00606-5.31841-2.16946-8.13938-.21812-3.76565,2.75597-7.07239,2.85225-10.84331,.05561-2.17809-.85838-4.25232-1.17853-6.40659-.74192-4.99239,1.70655-10.29228-.01753-15.02618-.69659-1.91266-2.30773-3.68543-4.61129-4.14122Z"/>
          <path class="cls-38" d="M239.73606,139.61945c-1.20355,.89491-1.68201,2.67308-1.09464,4.06821,.27834,.66113,.75712,1.2183,1.03972,1.87755,.64801,1.5117,.16166,3.27893-.56622,4.75242-.15391,.31157-.32069,.67855-.17075,.99212,.0903,.18885,.27544,.30693,.44021,.4332,1.15478,.88503,1.5314,2.66999,.83562,3.96034,1.04945-.77663,1.68247-2.03543,1.94388-3.32983s.1856-2.63391,.0479-3.94796c-.13308-1.26998-.29677-2.66102,.38986-3.72959,.14497-.22561,.32679-.4337,.40787-.69039,.16738-.52988-.13589-1.08466-.43935-1.54755-.93313-1.42336-1.9851-2.76581-2.83409-2.83852Z"/>
          <path class="cls-38" d="M241.1837,186.31431c.87841,1.35356,2.07211,2.4932,3.45487,3.2984,.32107,.18696,.70395,.4523,.65261,.82543-.02684,.19511-.17193,.3486-.31209,.48434-1.00834,.97653-2.15831,1.801-3.40095,2.43828,.0836-1.90884-.26652-3.83605-1.01519-5.58794-.12123-.28367-.25518-.57332-.26023-.88267-.00914-.56014,.5295-1.11743,.88097-.57584Z"/>
          <path class="cls-38" d="M240.3552,221.10147l3.53228,3.80403c.24098,.25952,.50086,.60516,.37343,.93799-.0594,.15513-.1927,.26615-.32058,.36986l-2.67748,2.17147c-.14744,.11958-.30883,.24468-.49714,.25218-.17066,.0068-.32899-.08515-.47059-.18245-1.21105-.83224-1.96228-2.31634-1.92561-3.80418s.86006-2.93166,1.98568-3.54889Z"/>
          <path class="cls-38" d="M239.36095,263.38068l-.24583,6.02481,3.03839-1.21345c.399-.15935,.84513-.36825,.97141-.7855,.08718-.28805-.00723-.59888-.12305-.87626-.63701-1.52556-1.97821-2.7274-3.64093-3.1496Z"/>
          <path class="cls-38" d="M237.93164,298.10461c-.65091,1.68037-1.04431,3.46399-1.1616,5.26654-.0296,.45481,.15715,1.09768,.59491,1.00366,.22731-.04882,.38916-.30638,.62131-.29763,.18855,.00711,.33235,.19157,.51974,.21403,.14433,.01729,.28022-.06464,.40328-.14341l3.19416-2.04447c.28203-.18052,.59133-.40156,.64142-.73704,.05012-.33564-.18193-.64199-.4125-.88709-1.08645-1.15489-2.47665-2.01036-4.40072-2.37459Z"/>
          <path class="cls-38" d="M236.91958,333.26311c-.25669,1.37177-.41216,2.76319-.46467,4.15864-.02041,.54247-.01072,1.13247,.31674,1.56072,.58259,.76191,1.76723,.55983,2.61663,.13099s1.73384-1.02969,2.66139-.83032c.02497-1.22494-1.03052-2.15346-1.99018-2.89179-.97539-.75043-1.95077-1.50086-3.13991-2.12824Z"/>
          <path class="cls-34" d="M56.7179,113.29382c.86335-.98656,1.85101-2.04058,3.14176-2.17343,1.04991-.10806,2.0483,.4262,3.07954,.65426,2.00661,.44377,4.2305-.38014,5.48864-2.03346,.18601-.24444,.36972-.51883,.65451-.62594,.26007-.09781,.54869-.03388,.81851,.03094l1.40906,.33854c.12528,.0301,.25858,.06485,.34516,.16189,.09575,.10732,.11082,.2637,.12116,.40835l.60965,8.52995c-1.83636,.15609-3.69647,.01868-5.49152-.40568-1.14057-.26964-2.42661-.63208-3.40989,.01559-.56073,.36934-1.11791,1.06706-1.73349,.80353-.31013-.13276-.53628-.50094-.87181-.47643-.29567,.0216-.47154,.33597-.71165,.51309-.38933,.28719-.95993,.18508-1.3386-.11655s-.60357-.75808-.78901-1.20989c-.56718-1.38191-.879-2.8721-.91429-4.36954,.02822,.18664,.05643,.37328-.40771-.04524Z"/>
          <path class="cls-34" d="M58.74099,127.19601c1.01612-1.04958,2.22005-2.11795,3.6668-2.14401,.91894-.01656,1.78802,.3977,2.69277,.56239,2.4083,.43837,4.74807-.90001,6.84274-2.1877,.09114,1.28981-.09552,2.59924-.54301,3.80935-1.15849,3.13277-3.89621,5.32664-6.50991,7.35545-.33321,.25864-.70675,.53047-1.12477,.50292-.33891-.02233-.63047-.23801-.9183-.42166-1.38311-.88245-3.12979-1.15053-4.70668-.72239-.90175,.24483-1.76946,.7083-2.70252,.69081l3.3302-6.66169c.27916-.55843,.55898-1.11803-.02732-.78347Z"/>
          <path class="cls-34" d="M54.1556,146.70137c.90024-1.56025,2.82795-2.42631,4.56579-2.05128,1.35363,.29212,2.66698,1.25307,3.99676,.86347,.7825-.22926,1.3601-.88243,2.01193-1.37953,1.26974-.96833,2.94144-1.36962,4.50192-1.08068,.1762,.03262,.35507,.07532,.50544,.17443,.18024,.1188,.30308,.3073,.41834,.49182,1.84424,2.9523,3.09252,6.28919,3.64477,9.74319l-4.30805-.59999c-.51051-.0711-1.05281-.13794-1.52238,.07817-1.5156,.69749-.88378,3.41313-2.28677,4.3229-.32055,.20786-.70629,.28401-1.08479,.31802-1.92375,.17286-4.09174-.57931-5.66028,.56853-.84601-1.89515-1.46276-3.89639-1.83186-5.9441-.18224-1.01104-.33626-2.10285-1.02737-2.85177-.60512-.65574-1.54599-.95101-1.92346-2.65316Z"/>
          <path class="cls-34" d="M59.62913,164.16884c-1.32278,2.25543-2.49632,4.6017-3.51001,7.01762-.17168,.40916-.29647,.97839,.07003,1.22041,.18639,.12308,.42801,.09807,.64822,.06852l5.52267-.74113c.94196-.12641,1.89869-.25692,2.76808-.64733,1.10399-.49576,1.99084-1.37486,2.85191-2.23584,.05206,.63494,.71526,1.087,1.34025,1.06467s1.18625-.40993,1.6128-.87587c1.18538-1.29487,1.53257-3.14546,1.82983-4.89004l.71641-4.20455c-2.04423-.4103-4.18811,.37749-5.82941,1.6851-1.05518,.84066-2.05224,1.94155-3.38364,2.09127-.39723,.04467-.80337-.00119-1.19498,.08002-.3811,.07903-.72757,.27386-1.08618,.42719-.88285,.37748-1.86676,.50609-2.35598-.06004Z"/>
          <path class="cls-34" d="M56.12317,188.00277c-.24627-1.00434,.90273-1.84621,1.91876-1.85488s1.98155,.46617,2.99532,.53576c1.10228,.07567,2.22862-.35928,3.00476-1.16031,.56722-.58541,.94623-1.34337,1.54143-1.89919s1.56195-.85892,2.19795-.35216c.2004,.15968,.3506,.3869,.5775,.50412,1.10685,.57183,2.17517-1.90022,3.23134-1.23631l2.13962,5.14178c.48902,1.17518,.88424,2.76438-.11122,3.5394-1.21926,.94927-3.21179-.44285-4.44736,.48427-1.0289,.77204-1.01741,2.82513-2.29094,2.93178-.60877,.05098-1.13664-.44737-1.7433-.51989-.90217-.10784-1.61433,.70733-2.38067,1.20422-1.19371,.774-2.82284,.78435-4.02593,.02558-.09272-2.43052-1.86577-4.32019-2.60726-7.34416Z"/>
          <path class="cls-34" d="M59.47224,203.26828c1.34689-1.32615,3.04772-2.75972,4.86819-2.31067,1.07224,.26448,1.99201,1.16938,3.09336,1.10383,.46019-.02739,.89155-.2262,1.31065-.42179l6.5544-3.05884c-.54434,3.94544-2.60258,7.6534-5.64073,10.16191-.16667,.13762-.38649,.27894-.58053,.18572-.16756-.0805-.21913-.29119-.29241-.46454-.37443-.88571-1.62355-1.01598-2.46555-.57543s-1.42296,1.2536-2.12011,1.90591-1.68119,1.17256-2.56746,.83395c-.29678-.11339-.55302-.31397-.83688-.45766-1.23968-.62755-2.71625-.08285-3.99219,.46408,.43674-2.58007,.79836-5.52439,2.66925-7.36647Z"/>
          <path class="cls-34" d="M58.06132,228.67146c-.258-1.19394-.44782-2.40318-.56819-3.61955-.02922-.29524-.0445-.62538,.14185-.85343,.22234-.27209,.62468-.27548,.97111-.24775,1.02679,.08219,2.05701,.23736,3.08217,.13626s2.07317-.49737,2.71345-1.31931c.43131-.55368,.64402-1.2523,1.03558-1.83584s1.09275-1.06722,1.75108-.84409c.42972,.14565,.71708,.54825,1.08067,.82334,.75555,.57165,1.9011,.52487,2.60932-.10656,.48512-.43252,.96366-1.15506,1.57479-.94604,.41211,.14095,.56888,.64022,.66147,1.07295,.43732,2.04372,.72713,4.12019,.86633,6.2071,.01861,.27906,.03016,.57777-.11098,.81767-.11831,.2011-.32699,.32878-.53837,.42149-1.85904,.81537-4.2887-.48957-5.92012,.7309-.68502,.51247-1.03581,1.35264-1.48548,2.08737s-1.14695,1.44904-1.99594,1.41013c-.29396-.01347-.57581-.11826-.84913-.22931-1.84466-.74949-4.51584-1.37404-5.01961-3.70534Z"/>
          <path class="cls-34" d="M59.38608,237.50302l2.09546-1.92846c.25749-.23697,.56715-.49081,.90955-.43354,.25813,.04318,.4532,.25319,.63187,.44784,.77503,.84431,1.73361,1.6657,2.86814,1.68173,1.83203,.02589,3.02465-1.96491,4.71054-2.69588,.23224-.1007,.5166-.17189,.72367-.02486,.17305,.12287,.22899,.35495,.35521,.52713,.40411,.55125,1.28286,.27298,1.78588-.18608s.96193-1.08505,1.63462-1.14569c.83667,2.16364-.44381,4.55715-1.88983,6.35644-1.43095,1.78055-3.07465,3.38344-4.88324,4.762-.85924,.65494-1.86297,1.28758-2.92725,1.14773-.58726-.07717-1.11699-.38351-1.66624-.60889-1.92117-.78832-4.21763-.54722-5.94065,.62368-.04606-1.48956,.23077-2.98859,.80502-4.35924-.24697-.12141-.57918-.00898-.70575,.23886l.36831-2.76463c.08259-.61995,.56294-1.1212,1.12466-1.63815Z"/>
          <path class="cls-34" d="M57.9807,260.09338c-.10268-1.24741,.03644-2.87647,1.21921-3.21529,.71381-.20448,1.43809,.21101,2.10118,.54911,1.07122,.54619,2.53928,.84946,3.33191-.06559,.27502-.31749,.41313-.73173,.63237-1.09148,.76465-1.25472,2.62517-1.6339,3.80471-.7754-.19492-.90961,1.07835-1.5405,1.89925-1.13148s1.21719,1.35403,1.54686,2.22237c.83606,2.20218,1.67647,4.41963,2.10401,6.74029-.56567,.1188-1.16455,.06842-1.70344-.1433l-1.3084,3.12288c-.05741,.13703-.13006,.28882-.26925,.33452-.31239,.10255-.46517-.36656-.68167-.61789-.39242-.45555-1.16154-.15747-1.5277,.32023s-.5554,1.1007-1.01582,1.48454c-.13918,.11603-.31799,.20894-.49366,.16974-.15027-.03353-.26346-.15476-.38781-.24703-.69954-.51913-1.70007-.09337-2.34899,.49003s-1.21412,1.34333-2.048,1.57926c-.84799,.23992-1.73451-.13147-2.53888-.49532-.44244-.20013-.92162-.43625-1.12012-.88609-.0996-.22572-.11469-.47946-.12343-.72678-.09363-2.6509,.34358-5.45577-1.07235-7.61732Z"/>
          <path class="cls-34" d="M56.9796,289.82128c.52789-.65621,.44082-1.68561,1.01523-2.29993,.71696-.76679,1.9717-.44143,2.90569,.02336s2.01492,1.02571,2.95205,.56752c.77552-.37918,1.10209-1.30058,1.43469-2.10882s.88582-1.68714,1.74403-1.74673c.56517-.03924,1.11221,.30372,1.67453,.23394,1.12676-.13982,1.9202-1.84128,2.96271-1.38383,.46362,.20343,.65656,.75527,.80032,1.24827l1.07808,3.6971c.28917,.99167,.42425,2.35849-.50298,2.7801-1.04153,.47358-2.16682-.8862-3.27491-.61095-1.06389,.26427-1.23511,1.69682-1.78648,2.66077-.51054,.89256-1.43655,1.4375-2.32129,1.94216-.61354,.34996-1.32672,.7106-1.98925,.47064-.48837-.17688-.87919-.66479-1.39718-.64614-.2681,.00966-.50977,.15823-.73771,.30236l-2.87564,1.81828c-.1004-1.4686-.23697-3.03628-1.13594-4.18883-.27504-.35262-.61741-.65923-.81086-1.06422s-.27099-1.0289,.26491-1.69505Z"/>
          <path class="cls-34" d="M59.00629,303.87349c.39384-.61011,.5306-1.35116,.81136-2.02303s.79928-1.33369,1.5126-1.40494c.39584-.03954,.78276,.11045,1.17266,.19051,1.69238,.34751,3.39451-.64787,4.59024-1.91661,.57193-.60685,1.42297-1.34239,2.09494-.85344,.18677,.1359,.30882,.34735,.48993,.49099,.52678,.41778,1.32589,.1026,1.77719-.39858s.71663-1.15744,1.19098-1.63601c.21539-.21731,.51483-.40237,.80785-.32331,.51806,.13978,.52723,.8855,.38239,1.4112-.59174,2.14777-1.85584,4.09764-3.56248,5.49513-.23808,.19495-.52291,.38968-.8239,.33674-.30404-.05347-.52862-.34773-.83408-.392-.35009-.05074-.65039,.2371-.89054,.50156l-1.6546,1.82206c-.41131,.45293-.96628,.94895-1.54378,.76304-.19081-.06142-.35248-.19284-.53791-.26946-.66887-.2764-1.38324,.20849-1.97968,.62267-.87302,.60625-1.8138,1.11115-2.79829,1.50179-.13659,.0542-.29006,.10629-.42587,.0501-.21798-.09019-.25118-.38619-.24282-.62575,.04827-1.38367,.14127-2.84298,.46381-3.34264Z"/>
          <path class="cls-36" d="M169.92883,71.79625l-87.62445,34.014s15.90384,17.007-.52575,32.67486c0,0,12.09217,14.46264,2.10299,40.44184,0,0,9.332,21.96179-3.02304,34.54965,0,0,13.40654,16.73917,.92006,34.014,0,0,11.17212,11.11481,.52575,29.46094,0,0,9.72631,13.52525,.26287,29.9966l9.02532,10.62075-24.7101-8.56741,6.04609-7.90089,1.84011-8.30263-.92006-6.69567-7.09758-8.57046,6.57183-6.69567,1.84011-6.9635-1.4458-5.62436-3.68023-6.0261-3.28592-4.0174,5.3889-5.62436,3.02304-7.36524-.13144-7.36524-1.31437-5.22262-4.86316-6.0261-2.10299-2.67827,5.3889-5.75828,2.62873-6.9635,.52575-8.43654-3.81166-9.10611-3.9431-5.08871-1.05149-1.47305,3.28592-5.22262,3.28592-6.9635,2.23442-10.17742-1.31437-3.88349-4.20597-7.90089-5.65178-5.08871,6.70327-9.37394,3.41735-9.90959-1.57724-6.69567-3.68023-6.16002-4.72549-4.37519,101.37526-33.74548,4.2936,4.19595Z"/>
          <polygon class="cls-36" points="331.68357 172.40984 334.3123 177.58782 405.11286 163.12517 403.71087 156.87588 331.68357 172.40984"/>
          <polygon class="cls-36" points="266.40335 170.13331 270.34645 174.0168 484.15012 124.82595 481.43376 118.13028 269.95214 167.72287 267.01673 164.64286 266.40335 170.13331"/>
          <polygon class="cls-36" points="256.50179 189.3722 331.85882 173.48114 335.18855 179.73043 263.687 194.55018 256.50179 189.3722"/>
          <polygon class="cls-36" points="405.98911 158.30429 410.37033 163.12517 480.64514 148.66253 477.66591 141.87759 405.98911 158.30429"/>
          <polygon class="cls-36" points="254.92455 227.04649 331.68357 210.44123 335.7143 214.54791 260.00677 231.15317 254.92455 227.04649"/>
          <polygon class="cls-36" points="407.56635 195.62149 476.78966 182.0516 480.82039 185.97972 410.54558 199.72816 407.56635 195.62149"/>
          <polygon class="cls-36" points="253.08444 267.13123 334.22468 249.99032 337.55441 253.91844 258.16666 270.34515 253.08444 267.13123"/>
          <polygon class="cls-36" points="406.25198 234.63492 475.65054 220.17227 479.50602 224.4575 409.23121 239.27725 406.25198 234.63492"/>
          <polygon class="cls-36" points="252.38344 303.73422 478.27928 253.91844 480.73276 258.02512 256.76466 307.66234 252.38344 303.73422"/>
          <polygon class="cls-36" points="250.28045 338.19459 474.4238 287.66461 477.22778 291.41419 255.36267 341.94417 250.28045 338.19459"/>
          <polygon class="cls-36" points="340.29169 235.53724 339.77804 239.22437 404.24684 227.25351 404.5433 223.86221 340.29169 235.53724"/>
          <polygon class="cls-36" points="244.54105 374.17265 473.9889 317.56889 473.81043 324.80326 244.84774 382.11818 244.54105 374.17265"/>
          <polygon class="cls-36" points="51.713 313.73452 91.94307 323.28557 92.11832 318.28614 66.88248 309.00148 72.92857 301.10059 75.03155 293.73535 73.84862 286.10229 68.72259 279.27271 66.75104 277.53184 74.1115 270.03269 74.90012 261.1944 71.6142 255.03439 66.75104 248.20481 74.1115 240.17 75.82017 230.52824 72.79713 221.95778 66.75104 213.92298 72.92857 206.82557 75.68874 196.24642 75.03155 189.01509 71.48276 183.65856 66.48817 177.0968 71.48276 167.99069 74.76868 159.0185 73.98006 150.84978 71.74563 145.49325 64.12231 137.86018 69.37977 131.16452 73.45431 121.92449 73.58575 113.75578 68.98546 105.72097 64.51662 100.63227 45.85261 104.51575 53.21306 109.20272 57.94478 115.22882 59.12771 124.73667 57.02473 130.62886 49.00709 138.39584 45.06399 140.40454 52.81875 145.22542 57.81335 151.78718 59.52202 159.95589 57.55047 169.46374 51.50439 177.0968 48.08703 179.64116 47.69272 181.51594 53.60737 184.99769 58.33909 192.49684 59.52202 201.46904 55.97323 209.77167 48.87565 217.53864 48.08703 218.60995 51.8987 220.61865 58.47053 229.05519 59.7849 237.22391 56.89329 244.1874 50.05858 250.74916 48.87565 253.02569 56.10467 257.57874 57.81335 262.1318 59.39059 268.69355 56.49898 275.25531 52.95019 279.80836 48.74422 281.54924 54.92174 287.44143 58.7334 294.27101 58.20766 305.51973 51.713 313.73452"/>
          <polygon class="cls-36" points="155.38317 383.81442 173.43381 362.92393 245.11061 395.5988 173.43381 373.45845 155.38317 383.81442"/>
          <polygon class="cls-36" points="204.62812 163.0359 214.88018 180.71246 215.14305 354.08565 230.3897 360.15639 195.16467 357.65667 204.49902 351.87577 204.36524 175.62376 204.62812 163.0359"/>
          <path class="cls-36" d="M13.73825,97.86472s12.09217,.26783,17.34964-2.41044,6.17752-5.62436,11.04068-5.89219c4.0876-.22512,21.81849-2.27653,27.6017-3.88349s19.84694-11.11481,23.92148-12.45394,19.58406-4.15131,26.28734-5.89219,23.96529-14.37337,28.69701-14.77511,10.77781-.40174,15.64096,6.16002c4.60815,6.21768,13.14367,17.81048,21.42418,20.35483,4.93505,1.51639,10.60256,18.07831,15.59715,22.63136s17.48108,6.20465,20.767,7.54379,5.3889,6.16002,6.70327,10.17742c1.31437,4.0174,5.3889,13.92699,8.67482,17.81048,3.28592,3.88349,18.92688,19.14961,27.20739,18.61396,8.28051-.53565,4.33741-7.09741,4.33741-7.09741l-10.64637-.40174-8.80626-5.35654-11.69786-13.25742-4.33741-12.18612-2.89161-6.69567-4.20597-5.62436-7.09758-3.08001-9.98919-.26783-6.17752-5.49045-3.68023-10.71307-4.99459-7.23132-8.01764-5.49045-9.59488-5.89219-4.73172-6.56176-6.96614-8.0348-6.96614-4.55305-11.8293,.13391-9.85775,3.88349-20.89843,10.31133-13.14367,4.28523-14.45803,2.94609-7.09758,5.22262-14.19516,6.69567-16.42958,3.08001-10.3835,.53565-10.25206,4.0174-9.72631,3.21392-6.30896-.40174,.13144,6.0261Z"/>
          <polygon class="cls-36" points="113.67394 334.84676 121.56014 332.03458 121.64409 179.28665 177.08115 191.81085 177.28704 188.50678 117.21103 173.33531 116.94815 328.13917 113.67394 334.84676"/>
          <path class="cls-19" d="M23.42075,130.71814s-3.15448-21.78324,20.67937-24.99716l-9.332-.17855-9.20057,5.62436-3.54879,6.82958v8.43654l1.40199,4.28523Z"/>
          <path class="cls-19" d="M23.20169,166.42837s-2.76017-20.35483,20.67937-24.99716l-9.332-.17855-9.20057,5.62436-3.54879,6.82958v8.43654l1.40199,4.28523Z"/>
          <path class="cls-19" d="M27.41846,205.62244s-1.19895-20.51184,22.52384-23.28389l-9.29015-.91703-9.60181,4.87873-4.05908,6.52788-.64362,8.41102,1.07083,4.38329Z"/>
          <path class="cls-19" d="M26.8627,241.03472s.60948-20.53879,24.48063-21.13441l-9.17216-1.7613-9.99219,3.98271-4.61676,6.13114-1.38062,8.31845,.6811,4.46341Z"/>
          <path class="cls-19" d="M27.80197,273.11269s-1.17642-18.77719,22.69473-19.3728l-8.15772-1.62754-9.99219,3.98271-4.61676,6.13114-1.38062,8.31845,1.45256,2.56804Z"/>
          <path class="cls-19" d="M30.86883,303.55567s-.26287-19.0157,20.50412-19.0157l-7.44808-1.60696-7.79858,2.32117-4.90845,5.25181-1.38062,8.31845,1.0316,4.73123Z"/>
          <path class="cls-19" d="M235.51573,175.22202s.26287-20.68962,21.02987-20.68962l-6.76899-1.74087-8.0933,3.03537-4.90845,5.25181-2.17918,8.78677,.92006,5.35654Z"/>
          <path class="cls-19" d="M236.40293,212.28254s1.01863-19.45092,21.02987-20.68962l-6.76899-1.74087-8.0933,3.03537-4.90845,5.25181-2.17918,8.78677,.92006,5.35654Z"/>
          <path class="cls-19" d="M232.29554,249.20916s2.39872-19.71874,22.40995-20.95744l-7.45903-1.37261-8.0933,3.03537-4.90845,5.25181-2.17918,8.78677,.23001,5.2561Z"/>
          <path class="cls-19" d="M232.33387,289.29947s2.6123-20.47201,22.40995-20.95744l-7.45903-1.37261-8.0933,3.03537-4.90845,5.25181-2.17918,8.78677,.23001,5.2561Z"/>
          <path class="cls-19" d="M232.49269,323.73195s.96387-18.83715,19.89075-19.99773l-5.9968-1.34471-8.0933,3.03537-4.90845,5.25181-2.17918,8.78677,1.28698,4.26849Z"/>
          <path class="cls-19" d="M230.6827,359.40034s.96387-18.83715,19.89075-19.99773l-5.9968-1.34471-8.0933,3.03537-4.90845,5.25181-2.17918,8.78677,1.28698,4.26849Z"/>
          <polygon class="cls-19" points="92.0307 327.12442 95.9738 152.50138 194.5513 171.51708 92.55644 147.6805 92.0307 327.12442"/>
          <polygon class="cls-19" points="108.8765 142.61411 101.58176 146.34136 192.79881 169.59765 92.29357 145.80571 108.8765 142.61411"/>
          <polygon class="cls-19" points="92.7755 362.70074 94.22131 355.20159 153.63068 373.54773 92.24976 351.18419 92.7755 362.70074"/>
          <polygon class="cls-19" points="113.01675 343.68504 99.47877 350.91637 153.63068 371.2712 92.24976 351.18419 113.01675 343.68504"/>
          <path class="cls-36" d="M39.67509,318.77716s9.59488,4.15131,17.2182-2.81218l-4.33741-3.74957-6.4404,3.08001-6.83471-1.07131,.39431,4.55305Z"/>
          <polygon class="cls-19" points="41.64664 316.2328 42.961 328.95457 93.56412 347.83636 40.85802 331.76675 41.64664 316.2328"/>
          <line class="cls-10" x1="177.28928" y1="353.13608" x2="112.80748" y2="333.22794"/>
          <line class="cls-17" x1="202.54738" y1="164.31741" x2="202.54738" y2="103.634"/>
          <line class="cls-17" x1="180.42576" y1="159.28223" x2="180.42576" y2="82.46022"/>
          <line class="cls-17" x1="223.82818" y1="358.81725" x2="223.82818" y2="124.003"/>
          <line class="cls-17" x1="98.95303" y1="144.42194" x2="98.95303" y2="89.85309"/>
          <line class="cls-17" x1="118.79323" y1="145.59197" x2="118.79323" y2="83.28067"/>
          <line class="cls-12" x1="177.28479" y1="348.42538" x2="117.70935" y2="330.11827"/>
          <line class="cls-17" x1="138.8705" y1="149.82367" x2="138.8705" y2="76.62972"/>
          <line class="cls-17" x1="159.30883" y1="154.47572" x2="159.30883" y2="69.85915"/>
          <line class="cls-17" x1="245.91303" y1="153.60134" x2="245.91303" y2="145.14159"/>
          <polyline class="cls-11" points="13.83638 91.33309 13.83638 107.10959 154.55879 57.70277 160.53589 63.42255 254.17704 153.05151 254.18635 153.05151 264.56713 162.99237 269.29667 167.51698 480.58046 118.04035 484.32312 117.16768 484.32312 98.95542"/>
          <line class="cls-2" x1="269.29667" y1="167.51698" x2="269.29667" y2="148.49845"/>
          <polyline class="cls-13" points="473.9889 317.56889 473.9889 338.42761 245.10899 396.48867"/>
          <line class="cls-13" x1="229.7566" y1="360.61432" x2="205.14996" y2="353.1397"/>
          <polyline class="cls-7" points="177.28929 353.13608 177.28929 188.21161 112.62244 172.94549 112.62244 333.85012 117.70939 330.11556 117.70939 174.71651"/>
          <line class="cls-11" x1="475.19052" y1="316.96932" x2="245.28586" y2="373.81555"/>
          <line class="cls-10" x1="245.10899" y1="374.70984" x2="195.69089" y2="358.82155"/>
          <polyline class="cls-11" points="91.59257 146.43064 106.31348 142.41324 205.15386 164.91069 195.69042 171.26236"/>
          <polyline class="cls-7" points="195.69089 358.82155 205.14996 353.1397 205.15386 164.91069"/>
          <polyline class="cls-10" points="40.41676 315.28321 40.41676 331.50316 96.37987 349.2696"/>
          <line class="cls-10" x1="91.59447" y1="326.67502" x2="51.713" y2="313.73452"/>
          <polyline class="cls-8" points="173.0274 373.60396 173.0274 361.85262 112.62244 342.9262 91.59257 351.13955 91.59257 363.28103"/>
          <polyline class="cls-10" points="173.02075 373.60003 173.03006 373.60003 245.10899 396.48867 245.10899 374.70984"/>
          <polyline class="cls-8" points="91.59257 351.13955 153.98118 372.56569 153.98118 385.06428"/>
          <line class="cls-10" x1="173.0274" y1="361.85262" x2="153.98118" y2="372.56569"/>
          <polyline class="cls-5" points="91.59257 363.28103 153.98118 385.06428 173.0274 373.60396"/>
          <line class="cls-11" x1="112.80748" y1="333.22794" x2="91.59257" y2="326.67804"/>
          <line class="cls-11" x1="195.69042" y1="358.81725" x2="177.28928" y2="353.13608"/>
          <path class="cls-11" d="M264.56713,162.99237c1.04273,2.4947,1.61996,5.30242,1.61996,8.2714,0,10.34873-7.06638,18.74345-15.77134,18.74345-8.71427,0-15.77134-8.39471-15.77134-18.74345,0-10.35822,7.05707-18.75293,15.77134-18.75293,1.30342,0,2.56028,.18971,3.7706,.54068"/>
          <ellipse class="cls-11" cx="251.96815" cy="208.22175" rx="17.32682" ry="18.21237"/>
          <ellipse class="cls-11" cx="248.85932" cy="246.45905" rx="17.32682" ry="20.02493"/>
          <ellipse class="cls-11" cx="249.14134" cy="284.13729" rx="17.32682" ry="17.65331"/>
          <ellipse class="cls-11" cx="246.71707" cy="319.71455" rx="15.18457" ry="17.65331"/>
          <ellipse class="cls-11" cx="245.60868" cy="355.29181" rx="16.61602" ry="17.65331"/>
          <line class="cls-1" x1="340.46693" y1="235.92074" x2="404.93576" y2="223.83257"/>
          <path class="cls-11" d="M480.58046,118.04035c3.57508,5.1886,6.2564,13.7825-2.56028,24.36838,0,0,14.7286,23.39137-2.63476,38.56825,0,0,21.03155,19.1039,0,38.56825,0,0,19.28125,15.89778,2.63476,33.07611,0,0,13.84414,21.02946-4.03128,34.24284,0,0,16.82338,15.19585,0,30.70473"/>
          <polyline class="cls-2" points="404.93576 157.79429 404.93576 157.80377 404.93576 195.30964 404.93576 234.16245 404.93576 268.24403"/>
          <polyline class="cls-1" points="340.46693 225.43953 395.8861 214.73028 395.8861 171.26236 336.36868 182.67872"/>
          <polyline class="cls-12" points="395.88633 225.5306 395.88633 263.03646 339.15978 275.13054"/>
          <line class="cls-11" x1="248.08983" y1="337.56963" x2="473.98568" y2="286.86113"/>
          <line class="cls-11" x1="251.94532" y1="302.43972" x2="478.0164" y2="252.62395"/>
          <line class="cls-11" x1="475.38541" y1="219.54522" x2="404.93576" y2="234.16245"/>
          <line class="cls-11" x1="334.7561" y1="248.72277" x2="249.14027" y2="266.47972"/>
          <line class="cls-11" x1="475.38541" y1="180.97697" x2="404.93576" y2="195.30964"/>
          <line class="cls-11" x1="331.32998" y1="210.28732" x2="254.83693" y2="227.31432"/>
          <line class="cls-11" x1="251.96815" y1="190.00939" x2="478.0164" y2="142.41324"/>
          <line class="cls-11" x1="30.46424" y1="107.11299" x2="13.83638" y2="107.11299"/>
          <ellipse class="cls-11" cx="40.1328" cy="122.3555" rx="19.09426" ry="17.67657"/>
          <ellipse class="cls-11" cx="40.1328" cy="160.36683" rx="19.09426" ry="20.33476"/>
          <ellipse class="cls-11" cx="42.87654" cy="199.07872" rx="16.35052" ry="18.08745"/>
          <ellipse class="cls-11" cx="42.87654" cy="234.98496" rx="16.35052" ry="16.65861"/>
          <ellipse class="cls-11" cx="42.87654" cy="267.11103" rx="16.35052" ry="14.64509"/>
          <line class="cls-17" x1="80.1517" y1="313.73452" x2="80.1517" y2="96.08136"/>
          <ellipse class="cls-11" cx="44.40997" cy="299.2371" rx="14.81709" ry="16.65861"/>
          <path class="cls-2" d="M331.33228,173.29868s15.42111,20.40898,0,36.98912c0,0,19.12046,16.0073,3.42691,38.43407,0,0,15.00922,15.65019-1.06026,35.90738"/>
          <line class="cls-13" x1="91.59447" y1="317.56889" x2="66.42923" y2="309.13624"/>
          <path class="cls-11" d="M404.93761,268.24361c24.88534-17.80691-.00185-34.08116-.00185-34.08116,25.06245-22.82846,.00185-38.84937,.00185-38.84937,23.48335-22.0144,0-37.51256,0-37.51256"/>
          <line class="cls-11" x1="67.21911" y1="308.88942" x2="51.713" y2="313.73452"/>
          <path class="cls-11" d="M64.25997,101.34578c20.11487,16.27145,1.94206,34.54183-.70758,36.24429,24.0201,16.89376,1.54548,39.64959,2.87683,39.6401,20.69639,19.81531,0,37.13593,0,37.13593,20.39847,18.93316,0,34.35666,0,34.35666,19.34642,18.28814,0,28.6179,0,28.6179,18.64816,16.19183,0,31.79556,0,31.79556"/>
          <line class="cls-11" x1="44.40997" y1="282.57848" x2="66.42923" y2="277.34259"/>
          <line class="cls-11" x1="42.87654" y1="252.46594" x2="66.42923" y2="248.72277"/>
          <line class="cls-11" x1="42.87654" y1="218.32635" x2="66.42923" y2="214.36936"/>
          <polyline class="cls-4" points="91.59257 326.67804 91.59257 146.43064 195.69042 171.26236 195.69042 358.81725"/>
          <line class="cls-11" x1="42.87654" y1="180.99127" x2="66.42922" y2="177.23072"/>
          <line class="cls-11" x1="40.1328" y1="140.03206" x2="63.55275" y2="137.59236"/>
          <line class="cls-6" x1="40.1328" y1="104.67893" x2="64.25997" y2="101.34578"/>
          <line class="cls-11" x1="64.25997" y1="101.34578" x2="165.21612" y2="67.90226"/>
          <polygon class="cls-18" points="125.30932 263.04078 168.76569 273.83938 168.52684 335.9627 125.24036 323.23226 125.30932 263.04078"/>
          <polygon class="cls-18" points="125.37829 185.20002 168.83465 195.99862 168.68586 255.95129 125.38916 245.42934 125.37829 185.20002"/>
          <polygon class="cls-16" points="149.80631 257.12331 149.80631 263.57244 171.46554 268.95826 171.46554 262.25829 149.80631 257.12331"/>
          <path class="cls-3" d="M159.58915,13.06788c11.18556-1.10287,21.55562,3.74957,29.26657,3.39247s10.18863-4.27908,18.95107-3.51216,15.74821,4.31564,25.21165,3.51216c7.71481-.65502,15.35329-5.11256,23.39665-5.66256,13.05604-.89276,17.43635,2.62719,24.0958,.12747s17.17439-8.21335,29.79231-9.28466c12.61792-1.07131,25.06059,4.28523,32.07055,5.71364s24.00343-5.73898,35.21936-2.88216c11.21593,2.85682,22.26228,13.23813,31.02473,16.80915s22.43186,7.85625,29.09132,13.56989,16.49808,20.71194,22.45655,22.85455,35.21688,4.46951,32.39636,26.78268c-2.97923,23.56875-19.62788,12.14148-32.2458,16.78381s-30.84381,23.56875-44.51322,26.42557c-13.66941,2.85682-28.39032-.7142-41.35874,2.49972s-17.87539,12.85568-34.69928,13.92699c-16.82389,1.07131-21.38037-6.42784-33.29729-6.07074s-30.84381,11.78438-42.76073,10.71307c-11.91693-1.07131-26.28734-16.42671-29.09132-29.63949s-9.46344-15.7125-12.96842-17.14091-8.41195,1.07131-14.37041-3.21392-4.90697-11.07017-9.81394-18.21222-10.86543-6.42784-17.52489-12.14148-13.31892-21.78324-25.58634-21.78324-20.84358,7.96616-37.12293,14.62629c-15.77738,6.45477-12.64776,2.71234-25.61618,6.64047-8.96466,2.71539-10.72587,7.89973-21.02987,11.69152-13.66941,5.03024-22.71895,3.95893-30.4299,5.03024s-10.92884,7.82545-26.00024,6.75414-17.17439-19.28353-3.50498-25.35427c13.66941-6.07074,22.43502-2.70882,32.24896-6.99405s12.33675-13.56989,23.55268-16.06961,12.54543,.10424,19.55539-2.03838,19.27738-16.78381,28.74082-18.21222c9.46344-1.42841,16.4734,2.14261,22.08136,1.07131s11.91693-9.64176,22.78236-10.71307Z"/>
        </g>
        <g>
          <path class="cls-22" d="M217.75462,398.91992s9.00788-11.56022,13.41752-12.43189c11.4508-2.26353,16.90948,5.10183,22.64499,4.11869,7.5649-1.29672,14.91249,7.31236,20.27897,8.52218"/>
          <path class="cls-26" d="M274.0961,399.1289c-2.11841-.4776-4.42869-1.63162-6.87431-2.85308-4.12514-2.05897-8.29014-4.41725-12.53554-3.68809-2.94959,.50818-6.15994-.63591-9.01045-1.86879-3.73462-1.61735-7.96316-3.4467-14.11031-2.23463-2.52433,.49889-10.26163,5.88271-13.81089,10.43561h0c1.58173-2.03061,7.92022-12.48566,13.02167-14.42928,7.04185-2.6829,12.45026,.73334,16.5155,2.49242,2.47799,1.07164,4.44013,1.91359,6.18107,1.61754,5.57948-.95434,7.29391,.79281,11.55054,3.84095,2.82779,2.02496,7.43607,6.31884,9.0727,6.68736h0Z"/>
        </g>
        <g>
          <path class="cls-22" d="M75.30582,346.0053s-11.21451-14.3921-16.70438-15.4773c-14.25587-2.81802-21.05175,6.35161-28.19228,5.12763-9.41805-1.61437-18.56557,9.10365-25.24666,10.60984"/>
          <path class="cls-26" d="M5.1625,346.26547c2.63736-.59459,5.51358-2.03131,8.55829-3.55199,5.13567-2.56335,10.32095-5.49933,15.60633-4.59155,3.67215,.63267,7.66893-.79168,11.21771-2.32658,4.64948-2.01354,9.91387-4.29103,17.56688-2.78205,3.1427,.6211,12.7754,7.32378,17.19411,12.992h0c-1.9692-2.52804-9.86041-15.54425-16.21155-17.96399-8.76687-3.34012-15.50018,.91299-20.56127,3.10298-3.08502,1.33415-5.52782,2.38236-7.69524,2.01378-6.94628-1.18812-9.08068,.98702-14.38005,4.78186-3.52051,2.52101-9.25767,7.86675-11.29522,8.32554h0Z"/>
        </g>
        <g>
          <path class="cls-22" d="M448.60995,347.54377s8.19079-10.51162,12.20045-11.30422c10.41212-2.05821,15.37566,4.63905,20.59091,3.74509,6.8787-1.1791,13.55981,6.64907,18.43951,7.74915"/>
          <path class="cls-26" d="M499.84082,347.73379c-1.92626-.43427-4.02697-1.48362-6.25075-2.59428-3.75096-1.8722-7.53816-4.01657-11.39846-3.35355-2.68204,.46209-5.60119-.57823-8.19313-1.69927-3.39586-1.47064-7.24084-3.13406-12.8304-2.03193-2.29535,.45363-9.33082,5.3491-12.55813,9.48902h0c1.43825-1.84642,7.20179-11.35312,11.8405-13.12043,6.4031-2.43954,11.32093,.66682,15.01742,2.26633,2.25322,.97443,4.03738,1.74001,5.6204,1.47081,5.07338-.86777,6.6323,.72089,10.50282,3.49254,2.57129,1.84128,6.76156,5.74567,8.24974,6.08076h0Z"/>
        </g>
      </g>
    </g>
  </g>
</svg>