<svg width="687" height="481" viewBox="0 0 687 481" fill="none" xmlns="http://www.w3.org/2000/svg">
<path d="M161.5 450L1 398.5C1 398.5 25.128 438.236 91.5 450C106.098 452.587 165 459.5 165 459.5C165 459.5 227.799 478.761 251.5 479.5C403.513 484.241 595 478.5 670 419C690.452 402.775 686 379.5 686 379.5C686 379.5 633.5 423.5 465.5 432C309 439.918 243 423.5 243 423.5L161.5 450Z" fill="#7896C6"/>
<path d="M657.482 395.777C678.15 386.654 686 379.549 686 379.549C686 379.549 685.5 1.0142 393.867 1.01416C85.9944 1.01412 107.298 379.549 107.298 379.549L173 410.057L273 428.971C273 428.971 346.568 435 393.867 435C442.875 435 519 428.565 519 428.565C519 428.565 546.397 425.094 558.5 423.07C593.109 417.28 638.5 403.275 638.5 403.275C638.5 403.275 652.065 398.168 657.482 395.777Z" fill="#CADBF3"/>
<path d="M393.867 251C432.527 251 466.431 249.445 496.088 246.856L478.5 156.253C478.5 156.253 517.946 153.206 543 149.5C565.996 146.099 601.5 138.5 601.5 138.5L599 140C599 140 567.213 148.503 544 152C520.118 155.598 482.5 158.5 482.5 158.5L497.763 246.708C535.988 243.303 567.096 238.177 592.196 232.464H595C595 232.464 604.313 260.773 610 279C614.603 293.753 621.5 316.865 621.5 316.865C634.751 312.771 646 309 646 309L641 313.5C641 313.5 606.027 325.32 582 330.5C556.613 335.974 515.5 343 515.5 343L521 428H519L509.277 337.61C530.586 335.44 569.177 329.527 586 326.5C593.595 325.134 606.561 321.434 618.5 317.787L593.5 235C593.5 235 538.5 246.856 496.088 249C457.825 250.934 399 254 399 254L396.5 343C394.798 343.006 395.587 343 393.867 343V254C393.867 254 330.631 254.948 290.401 251C275.517 249.539 260.874 247.286 244.5 244.5L240.5 240.5C256.685 243.108 270.291 244.9 290.401 246.708C294.688 216.51 299.945 185.45 306.357 156.006C307.504 156.09 308.658 156.172 309.818 156.253L292.062 246.856C321.459 249.445 355.207 251 393.867 251Z" fill="#A0BCE7"/>
<path d="M225 146.5L223.5 145.5C223.5 145.5 234.122 119.661 243 104C251.039 89.8183 266 69 266 69C266 69 295.582 71.4776 330 73.3736C330 73.3736 337.141 54.3162 343.5 43C349.284 32.7072 360.5 18 360.5 18H362.5C362.5 18 350.838 32.9904 346 44C341.153 55.031 334.5 73.3736 334.5 73.3736C353.636 74.3511 377.149 75.5096 394 75.5C412.013 75.4897 434.023 74.6258 454 73.5891C484.238 72.0199 509.816 70.0548 509.816 70.0548L511.5 72C511.5 72 427.573 78.5 393.867 78.5C336.867 78.5 266.5 72.5 266.5 72.5C266.5 72.5 252.735 89.7298 245.5 102.5C236.156 118.994 225 146.5 225 146.5Z" fill="#A0BCE7"/>
<path d="M426.5 21L424.5 18L455.5 16.5L484 14.5L487 15.5C487 15.5 469.015 16.9567 457.5 18C445.387 19.0975 426.5 21 426.5 21Z" fill="#A0BCE7"/>
<path d="M242.714 423.278C245.422 381.92 245.45 389.84 242.448 348.502C240.753 325.155 237.227 299.288 230.345 275.502C223.09 250.432 212.107 227.673 195.607 212.613C187.631 205.332 178.365 199.851 167.607 196.778C167.607 196.778 253.5 212.613 300 336C338.315 437.668 499 429.5 499 429.5C499 429.5 429 436.651 372 434.5C345.5 433.5 283 432.5 242.714 423.278Z" fill="#A0BCE7"/>
<path d="M393.867 1.01397C359.847 1.32496 329.847 6.20225 303.394 14.6314M393.867 1.01397C427.964 0.702264 458.081 5.62011 484.684 14.551M393.867 1.01397C368.971 1.01397 346.879 6.53088 327.276 16.2833M393.867 1.01397C414.427 1.01397 433.561 6.72829 451.317 16.7948M393.867 1.01397V18.5M393.867 343C438.384 343 476.595 340.938 509.277 337.61M393.867 343C349.692 343 311.93 340.97 279.745 337.686M393.867 343V251M393.867 251C432.527 251 466.431 249.445 496.088 246.856M393.867 251C354.477 251 320.186 249.386 290.401 246.708M393.867 159C424.964 159 452.984 157.994 478.192 156.253M393.867 159C361.329 159 332.27 157.899 306.357 156.006M393.867 159V75.5M393.867 75.5C415.393 75.5 435.444 75.0179 454.109 74.1437M393.867 75.5C370.742 75.5 349.374 74.9436 329.643 73.9423M677.479 293.501C686 343.428 686 379.549 686 379.549C686 379.549 678.15 386.654 657.482 395.777C652.065 398.168 638.5 403.275 638.5 403.275C638.5 403.275 593.109 417.28 558.5 423.069C546.397 425.094 519 428.565 519 428.565M677.479 293.501C673.254 268.747 666.935 240.599 657.482 211.777M677.479 293.501C667.912 299.347 649.53 308.673 618.607 317.661M657.482 211.777C648.77 185.212 637.395 158.074 622.546 132.494M657.482 211.777C642.791 218.262 621.624 225.766 592.196 232.464M622.546 132.494C607.611 106.766 589.16 82.6142 566.368 62.2041M622.546 132.494C605.115 137.756 583.462 142.96 556.844 147.344M566.368 62.2041C549.686 65.2053 530.906 67.8938 509.816 70.0547M566.368 62.2041C543.704 41.9098 516.747 25.3154 484.684 14.551M111.976 291.289C105.233 342.357 107.298 379.549 107.298 379.549L173 410.057L273 428.971M111.976 291.289C115.261 266.41 120.637 238.237 129.36 209.467M111.976 291.289C120.253 297.215 140.5 309.213 180.391 320.161M129.36 209.467C130.114 206.982 130.892 204.492 131.697 202C139.433 178.028 149.555 153.805 162.784 130.875M129.36 209.467C143.23 216.345 164.623 224.745 196.213 232.187M162.784 130.875C177.437 105.477 195.903 81.6662 219.161 61.5445M162.784 130.875C178.62 136.073 198.493 141.289 223.191 145.794M219.161 61.5445C233.122 64.1902 248.679 66.6117 265.982 68.6681M219.161 61.5445C242.213 41.6009 269.973 25.2812 303.394 14.6314M273 428.971C273 428.971 346.568 435 393.867 435C442.875 435 519 428.565 519 428.565M273 428.971C273 428.971 274.686 391.004 279.745 337.686M519 428.565C519 428.565 515.949 390.749 509.277 337.61M618.607 317.661C604.088 321.881 586.803 326.027 566.368 329.704C549.545 332.731 530.586 335.44 509.277 337.61M618.607 317.661C611.699 292.088 602.929 262.745 592.196 232.464M592.196 232.464C566.731 238.26 535.08 243.452 496.088 246.856M556.844 147.344C543.057 119.221 527.409 92.6451 509.816 70.0547M556.844 147.344C534.329 151.053 508.261 154.176 478.192 156.253M509.816 70.0547C492.789 71.7993 474.257 73.2 454.109 74.1437M454.109 74.1437C445.157 50.449 435.173 30.8988 424.095 17.9925M478.192 156.253C485.097 185.676 491.042 216.701 496.088 246.856M279.745 337.686C237.755 333.403 205.257 326.986 180.391 320.161M290.401 246.708C294.688 216.51 299.945 185.45 306.357 156.006M290.401 246.708C251.906 243.248 220.937 238.011 196.213 232.187M306.357 156.006C273.928 153.638 246.424 150.031 223.191 145.794M329.643 73.9423C306.173 72.7513 285.02 70.9307 265.982 68.6681M329.643 73.9423C338.61 50.2808 348.926 30.7687 360.777 17.9004M265.982 68.6681C248.714 91.1141 234.648 117.625 223.191 145.794M196.213 232.187C188.864 263.336 183.832 293.647 180.391 320.161M393.867 18.5C382.924 18.5 371.815 18.2808 360.777 17.9004M393.867 18.5C403.894 18.5 414.028 18.3159 424.095 17.9925M303.394 14.6314C311.099 15.2245 319.095 15.7839 327.276 16.2833M484.684 14.551C474.061 15.387 462.845 16.1592 451.317 16.7948M327.276 16.2833C338.199 16.9502 349.451 17.5101 360.777 17.9004M424.095 17.9925C433.268 17.6977 442.386 17.2872 451.317 16.7948" stroke="#231F20"/>
<path d="M79.607 196.778C79.607 196.778 153.607 192.778 167.607 196.778C178.365 199.851 187.631 205.332 195.607 212.613C212.107 227.673 223.09 250.432 230.344 275.502C237.227 299.288 240.753 325.155 242.448 348.502C245.45 389.84 242.714 423.278 242.714 423.278L161.607 449.778L125.5 438.192C125.5 438.192 126.093 417.527 125.07 389.502C124.773 381.349 124.339 372.573 123.713 363.502C123.15 355.329 122.431 346.915 121.518 338.502C121.046 334.157 120.522 329.812 119.941 325.5L116.5 384.5L35.5 409.313L1.10711 398.277C1.10711 398.277 0.28182 372.041 3.21289 338.502C4.93946 318.746 7.96946 296.456 13.2394 275.502C19.5513 250.405 29.0765 227.226 43.424 212.613C53.1181 202.74 65.0136 196.778 79.607 196.778Z" fill="#CADBF3"/>
<path d="M153 207.5C156.607 203.893 167.607 196.778 167.607 196.778C178.365 199.851 187.631 205.332 195.607 212.613C212.107 227.673 223.09 250.432 230.344 275.502C237.227 299.288 240.753 325.155 242.448 348.502C245.45 389.84 245.422 381.92 242.714 423.278L161.607 449.778L152.951 447C152.951 447 154.172 425.068 154.5 411C154.887 394.379 154.5 368.427 154.5 368.427C154.5 368.427 153.84 348.647 152.951 336C151.739 318.772 148.5 292 148.5 292L115.025 298C117.553 310.226 118.515 312.362 119.941 325.5C121.5 335 123.15 355.329 123.713 363.502C124.339 372.574 124.773 381.349 125.07 389.502C126.093 417.527 125.5 438.5 125.5 438.5L35.5 409.5C35.5 409.5 34.9312 384.081 36.8071 353L3 340.5L3.5 338.5L35.5 348.028C35.5 348.028 36.6926 330.911 38 320C39.3864 308.429 42.5 290.5 42.5 290.5L12.5 277.5L13.5 275.502L44.7905 288.502C48.8941 269.515 54.7717 253.393 63.1777 245.002C67.8352 240.353 73.2688 238.078 79.607 239.002C86.3098 239.981 92.0448 244.092 96.9505 250.502C101.809 256.851 105.854 265.454 109.22 275.502C109.819 277.291 110.397 279.126 110.954 281.002C112.231 285.303 113.432 290.821 114.5 295.5L146.5 286.5C146.5 286.5 143.86 273.291 141.5 265C136.408 247.106 123.713 220.806 123.713 220.806C123.713 220.806 149 211.5 153 207.5Z" fill="#A0BCE7"/>
<path d="M125 389.5C125.5 430.5 125.5 438.5 125.5 438.5C125.5 438.5 94.3854 434.437 75.5 428C59.2094 422.448 35.5 409.5 35.5 409.5C35.5 409.5 79.4627 383.094 94 363.5C105.5 348 107.5 270.5 107.5 270.5L120 325.5L123.5 363.5L125 389.5Z" fill="black" fill-opacity="0.13"/>
<path d="M161.607 449.778L242.714 423.278C242.714 423.278 245.45 389.84 242.448 348.502M161.607 449.778L125.5 438.192C125.5 438.192 126.093 417.527 125.07 389.502C124.773 381.349 124.339 372.573 123.713 363.502M161.607 449.778C161.607 449.778 163.724 414.08 161.225 369.502M79.607 196.778C79.607 196.778 153.607 192.778 167.607 196.778C178.365 199.851 187.631 205.332 195.607 212.613M79.607 196.778C98.078 196.778 112.488 205.952 123.713 220.806M79.607 196.778C65.0136 196.778 53.1181 202.74 43.424 212.613M35.5 409.313L1.10711 398.277C1.10711 398.277 0.28182 372.041 3.21289 338.502M35.5 409.313C35.5 409.313 34.8754 381.591 37.0935 348.502M35.5 409.313L116.5 384.5L119.941 325.5L37.0935 348.502M242.448 348.502L161.225 369.502M242.448 348.502C240.753 325.155 237.227 299.288 230.344 275.502M161.225 369.502L123.713 363.502M161.225 369.502C159.782 343.742 156.797 315.017 150.973 288.502M123.713 363.502C123.15 355.329 122.431 346.915 121.518 338.502C119.974 324.284 117.874 310.065 115.025 297.002M230.344 275.502L150.973 288.502M230.344 275.502C223.09 250.432 212.107 227.673 195.607 212.613M150.973 288.502L115.025 297.002M150.973 288.502C145.153 262.01 136.498 237.724 123.713 220.806M115.025 297.002C113.809 291.428 112.457 286.065 110.954 281.002C107.268 268.589 102.674 257.981 96.9505 250.502M123.713 220.806L96.9505 250.502M123.713 220.806L195.607 212.613M96.9505 250.502C92.0448 244.092 86.3098 239.98 79.607 239.002C73.2688 238.077 67.8351 240.353 63.1777 245.002M63.1777 245.002L43.424 212.613M63.1777 245.002C54.7717 253.393 48.8941 269.514 44.7905 288.502M43.424 212.613C29.0765 227.226 19.5513 250.405 13.2394 275.502M44.7905 288.502L13.2394 275.502M44.7905 288.502C40.7349 307.268 38.412 328.833 37.0935 348.502M44.7905 288.502L109.22 275.502M13.2394 275.502C7.96946 296.456 4.93946 318.746 3.21289 338.502M37.0935 348.502L3.21289 338.502" stroke="#231F20"/>
<path d="M125.07 389.001C124.773 380.848 124.339 372.072 123.713 363.001C123.15 354.827 122.431 346.413 121.518 338C121.064 333.824 120.563 329.647 120.009 325.5L116.5 384.5L125.07 389.001Z" fill="black" stroke="#231F20"/>
</svg>
