<?xml version="1.0" encoding="UTF-8"?>
<svg xmlns="http://www.w3.org/2000/svg" viewBox="0 0 96.25913 169.60726">
  <defs>
    <style>
      .cls-1 {
        fill: #65737e;
      }

      .cls-1, .cls-2, .cls-3, .cls-4, .cls-5, .cls-6, .cls-7 {
        stroke-miterlimit: 10;
        stroke-width: 2.5px;
      }

      .cls-1, .cls-4 {
        stroke: #4f5b66;
      }

      .cls-2 {
        fill: #0f6f49;
      }

      .cls-2, .cls-5 {
        stroke: #004d25;
      }

      .cls-3 {
        fill: #d4bf64;
      }

      .cls-3, .cls-7 {
        stroke: #bb9e33;
      }

      .cls-8 {
        fill: #98afd0;
      }

      .cls-9 {
        fill: #aac0e1;
      }

      .cls-10 {
        fill: #d5d4e5;
      }

      .cls-11 {
        fill: #96000e;
      }

      .cls-4, .cls-5, .cls-6, .cls-7 {
        fill: none;
      }

      .cls-6 {
        stroke: #333244;
      }

      .cls-12 {
        fill: #49bf53;
      }

      .cls-12, .cls-13 {
        opacity: .2;
      }

      .cls-14, .cls-15 {
        opacity: .35;
      }

      .cls-15 {
        fill: #fff;
      }
    </style>
  </defs>
  <g id="Layer_1" data-name="Layer 1"/>
  <g id="Layer_2" data-name="Layer 2">
    <g id="environment">
      <g>
        <circle class="cls-3" cx="42.78213" cy="12.96762" r="11.71762"/>
        <rect class="cls-10" x="35.43502" y="31.29373" width="15.63306" height="135.52528"/>
        <polygon class="cls-11" points="35.1304 31.36799 51.06373 44.68046 50.81938 61.34771 34.88605 48.03524 35.1304 31.36799"/>
        <polygon class="cls-11" points="34.93764 61.58539 50.87097 74.89786 50.62662 91.56511 34.69329 78.25263 34.93764 61.58539"/>
        <polygon class="cls-11" points="34.93764 91.80278 50.87097 105.11526 50.62662 121.7825 34.69329 108.47003 34.93764 91.80278"/>
        <polygon class="cls-11" points="35.40705 122.02018 51.34039 135.33265 51.09604 151.9999 35.16271 138.68743 35.40705 122.02018"/>
        <polygon class="cls-11" points="34.93764 152.23758 50.87097 165.55005 50.86201 166.81901 35.22895 166.81901 34.93764 152.23758"/>
        <rect class="cls-6" x="35.22895" y="31.62314" width="15.63306" height="135.52528"/>
        <polygon class="cls-15" points="34.91245 31.62314 38.93381 31.62314 38.93381 163.84672 34.88605 163.84416 34.91245 31.62314"/>
        <path class="cls-15" d="M30.74367,15.31299s-.7298-8.95499,5.19101-12.62558,14.29282,.84706,14.29282,.84706c0,0-6.6081-.12711-10.98456,2.48465-4.49436,2.68212-8.49927,9.29387-8.49927,9.29387Z"/>
        <path class="cls-13" d="M54.67901,10.62225s.7298,8.95499-5.19101,12.62558-14.29282-.84706-14.29282-.84706c0,0,7.24261-.70588,11.61907-3.31764,4.49436-2.68212,7.86476-8.46088,7.86476-8.46088Z"/>
        <circle class="cls-7" cx="42.78213" cy="12.96762" r="11.71762"/>
        <polygon class="cls-14" points="34.15087 60.06248 50.77948 59.35567 51.41338 74.26876 34.67558 74.97992 34.15087 60.06248"/>
        <polygon class="cls-14" points="34.98437 30.63084 51.628 30.63084 51.628 35.04213 34.87509 35.04204 34.98437 30.63084"/>
        <rect class="cls-6" x="35.22895" y="31.62314" width="15.63306" height="135.52528"/>
        <polygon class="cls-1" points="30.58413 21.40023 55.33702 21.10379 51.24126 31.54178 34.82811 31.54178 30.58413 21.40023"/>
        <polygon class="cls-15" points="30.0563 21.61494 34.70112 21.61494 38.39815 31.03063 33.91512 30.98673 30.0563 21.61494"/>
        <polygon class="cls-4" points="30.58413 21.40023 55.33702 21.10379 51.24126 31.54178 34.82811 31.54178 30.58413 21.40023"/>
        <g>
          <path class="cls-8" d="M62.41698,169.45323s-6.63958-8.52088-9.88987-9.16338c-8.44022-1.66841-12.46374,3.76049-16.69131,3.03583-5.57598-.95579-10.99179,5.38984-14.94735,6.28158"/>
          <path class="cls-9" d="M20.88845,169.60726c1.56145-.35203,3.26433-1.20264,5.06695-2.10296,3.04058-1.51764,6.11055-3.25589,9.23977-2.71844,2.1741,.37458,4.54041-.46872,6.64147-1.37746,2.75274-1.19212,5.86953-2.54051,10.40052-1.64712,1.86065,.36772,7.5637,4.33606,10.17981,7.69194h0c-1.16587-1.49673-5.83788-9.20301-9.59809-10.63562-5.19045-1.97753-9.17692,.54054-12.17335,1.83712-1.82649,.78989-3.27276,1.41048-4.55598,1.19226-4.11256-.70343-5.37624,.58437-8.51374,2.83111-2.08433,1.49257-5.48102,4.65753-6.68736,4.92916h0Z"/>
        </g>
        <g>
          <polygon class="cls-2" points="2.57119 48.40959 71.5741 44.71613 93.70409 55.59588 72.86191 68.77576 3.85901 72.46922 12.28532 59.95391 2.57119 48.40959"/>
          <path class="cls-12" d="M6.5992,53.28932c3.63674-2.60982,8.53332-2.22405,13.00112-1.94885,10.51748,.64784,21.33672,.89117,31.49027-1.76324,2.57372-.67284,5.29715-.99691,7.91909-.54723,1.38959,.23832,2.71982,.74878,4.10458,1.01369,3.87492,.74128,7.81572-.47553,11.6628-1.34991,1.29492-.29432,2.62419-.55208,3.94375-.40307s2.64664,.76432,3.36048,1.8841c-5.11776,2.7675-9.05746,4.62625-14.7628,3.48622-2.17591-.43479-7.52081-2.13296-9.73438-2.28713-3.49097-.24315-5.83876,.97223-9.27807,1.61808-6.27844,1.179-11.33805,1.67136-17.72193,1.43683s-14.38516-1.14623-20.20476,1.48837c-.38853,.17589-.80892,.36692-1.22541,.27514-.43889-.09672-.74726-.47915-1.01891-.83718-.57453-.75725-1.14907-1.5145-1.53585-2.06581Z"/>
          <path class="cls-12" d="M10.65636,62.34015c.97299-1.36888-.47489-2.54242,1.08191-3.17243,1.79613-.72686,6.32647-.47868,8.21799-.05848,6.62434,1.47161,12.79649,.0629,19.50657-.94822,5.88667-.88704,12.40855-1.08186,18.36003-.94189,3.09671,.07283,6.16534,.684,9.26288,.69719,7.43156,.03164,14.45289-3.35054,21.82892-4.25788,1.04239-.12823,2.42797,.02042,2.6653,1.0435,.19765,.85206-.60859,1.58011-1.34479,2.05243-4.37686,2.80804-7.4436,4.24764-12.64376,4.26536-2.83781,.00967-7.77727-.3286-10.61092-.4826-8.2734-.44963-14.21944,.2687-22.49971,.56609-7.41878,.26645-17.14285,.4259-24.52806,1.17962-3.62966,.37043-7.20089,1.16494-10.76221,1.95781,.5145-1.04102,1.11397-2.04003,1.46585-1.90051Z"/>
          <polygon class="cls-15" points="2.57119 47.71227 71.5741 44.01881 75.28695 45.84416 77.42679 47.56768 5.78731 51.53432 2.57119 47.71227"/>
          <path class="cls-12" d="M8.28159,67.6278l1.85928-1.79767c7.14167,.56114,14.3421,.37152,21.44434-.56473,3.2544-.42901,6.3393-1.99999,9.62179-2.02093,3.44976-.02201,7.03903,1.566,10.48777,1.65235,5.30666,.13288,10.55609-.95723,15.82117-1.63336,4.82997-.62026,9.70445-.89362,14.57348-.81729-3.73909,3.12886-8.17002,3.33727-13.04471,3.24772-8.69974-.15982-22.05874,.86116-30.74805,1.31599-11.83212,.61934-19.96572,.34495-31.70561,1.94423,.77578-.75762,1.55157-1.51524,1.69053-1.32631Z"/>
          <polygon class="cls-5" points="2.57119 48.40959 71.5741 44.71613 93.70409 55.59588 72.86191 68.77576 3.85901 72.46922 12.28532 59.95391 2.57119 48.40959"/>
        </g>
      </g>
    </g>
  </g>
</svg>