<svg xmlns="http://www.w3.org/2000/svg" viewBox="0 0 117.85431 158.05143">
  <defs>
    <style>
      .cls-1 {
        fill: #857150;
      }

      .cls-1, .cls-5 {
        stroke: #4f432f;
        stroke-miterlimit: 10;
        stroke-width: 2.5px;
      }

      .cls-2 {
        fill: #b99073;
      }

      .cls-2, .cls-4 {
        opacity: 0.35;
      }

      .cls-3 {
        fill: #fff;
        opacity: 0.3;
      }

      .cls-4 {
        fill: #0d0e12;
      }

      .cls-5 {
        fill: none;
      }

      .cls-6 {
        fill: #97aed0;
      }

      .cls-7 {
        fill: #acc2e3;
      }
    </style>
  </defs>
  <g id="Layer_2" data-name="Layer 2">
    <g id="environment">
      <g>
        <rect class="cls-1" x="53.23361" y="1.25" width="15.63306" height="154.8405"/>
        <path class="cls-2" d="M56.33034,1.44278C54.54123,4.51264,55.316,8.929,55.92025,12.43039c1.08066,6.26186.30986,12.67138.10793,19.02259-.23523,7.3987.30689,14.7966.62852,22.192.72138,16.58733.33366,33.20063-.05418,49.79911l-1.16811,49.99161c-.0246,1.0526.05023,2.30112.94308,2.85914a2.10884,2.10884,0,0,0,2.74536-.95136,5.93653,5.93653,0,0,0,.52464-3.15656c-.22569-9.93516-1.6182-19.87332-.8235-29.77921.48208-6.009,1.76665-11.95185,1.87425-17.97924.0909-5.09273-.66025-10.15942-.9496-15.24474-.38111-6.698.03961-13.41168.30266-20.11537.88533-22.56213-.01646-45.15191-.91819-67.71339C58.05826,1.37816,56.92219.42724,56.33034,1.44278Z"/>
        <path class="cls-2" d="M62.80316,1.81807c-1.54988.85581-1.91339,2.961-1.605,4.70444s1.10223,3.397,1.19289,5.16516a35.14509,35.14509,0,0,1-.605,4.92984c-.22428,2.46168.41711,4.90707.81542,7.34664a75.31855,75.31855,0,0,1,.61255,12.86566l-.21222,22.25188c-.13468,14.12062-.2715,28.27574-1.96431,42.29518-.27462,2.27433,1.7044,3.97127,1.97516,6.24606.24954,2.09653-1.35684,12.06875-.84706,14.11762,1.31964,5.30377.724,13.00566.4853,18.46592l-.53619,12.26512c-.07667,1.75364.647,4.23972,2.35934,3.85377,1.213-19.07944,2.42664-38.19452,1.79444-57.302-.31274-9.45233-1.077-18.91121-.573-28.35527.35425-6.63833,1.33431-13.24282,1.38475-19.89041.09246-12.18759-2.94037-24.31876-1.96924-36.468.34123-4.26887,1.17418-8.5771.45058-12.798A4.65589,4.65589,0,0,0,62.80316,1.81807Z"/>
        <rect class="cls-3" x="53.23361" y="0.97306" width="15.63306" height="2.69714"/>
        <rect class="cls-4" x="53.38766" y="70.75072" width="15.63306" height="2.69714" transform="translate(-2.32627 2.04117) rotate(-1.87502)"/>
        <rect class="cls-4" x="53.43472" y="104.72713" width="15.63306" height="2.69714" transform="translate(-5.73974 3.52826) rotate(-3.1519)"/>
        <rect class="cls-4" x="53.55236" y="40.35078" width="15.63306" height="2.69714" transform="translate(1.41412 -2.00879) rotate(1.89716)"/>
        <rect class="cls-5" x="53.23361" y="1.25" width="15.63306" height="154.8405"/>
        <polygon class="cls-1" points="6.949 26.176 25.686 16.169 91.658 19.763 91.443 23.71 86.848 25.015 91.182 28.503 90.89 33.86 84.97 33.537 90.668 37.948 90.53 40.485 25.897 38.236 6.949 26.176"/>
        <polygon class="cls-1" points="28.288 49.439 28.428 54.896 31.473 56.136 28.539 59.224 28.65 63.552 33.77 64.927 28.761 67.88 28.834 70.702 93.189 69.052 115.024 55.731 91.478 46.791 28.288 49.439"/>
        <polygon class="cls-1" points="2.691 93.529 27.211 79.634 87.925 76.403 88.211 81.771 79.904 85.086 88.493 87.079 88.763 92.154 83.986 94.482 89.043 97.418 89.303 102.305 27.649 105.585 2.691 93.529"/>
        <path class="cls-2" d="M16.56765,21.58111c3.94837-2.076,8.68973-2.04762,13.07205-1.2141s11.35373,1.94762,15.726,2.83256c15.6003,3.1575,29.02712-2.2173,44.82433-.27124a14.25188,14.25188,0,0,1-3.71079,2.262,5.76618,5.76618,0,0,1,2.9766,2.11042c-7.21634,1.44789-14.62548-.62523-21.98164-.86791-4.86-.16033-9.70567.48213-14.55816.79608a151.92407,151.92407,0,0,1-18.98242-.12219q-11.899-.72033-23.6968-2.54347C12.59635,22.96536,15.36453,22.21371,16.56765,21.58111Z"/>
        <rect class="cls-3" x="23.56686" y="17.91096" width="68.12666" height="2.53729" transform="translate(1.12854 -3.10626) rotate(3.118)"/>
        <path class="cls-2" d="M13.70577,30.44141a8.61677,8.61677,0,0,1,6.16769-1.04893c2.11231.31836,4.13644,1.06147,6.22583,1.50609,6.16537,1.312,11.128-.71551,17.43107-.78137,9.12471-.09534,18.30989,1.34768,27.38818.42353,5.83423-.59391,13.1585-.78143,18.72615,1.0604a1.31007,1.31007,0,0,1,.80574.53659c.41359.79169-.80822,1.39643-1.69873,1.46578l-4.26666.3323,3.95946,3.367c-9.39219-.37429-18.82168-.75259-28.06753-2.44591a50.04583,50.04583,0,0,0-9.29745-1.25508,65.82927,65.82927,0,0,0-7.94217.911,50.9786,50.9786,0,0,1-9.80186.31529,28.832,28.832,0,0,0-4.8317-.11643c-1.53227.15963-3.02338.63354-4.56111.7269C19.85694,35.68659,16.14092,33.272,13.70577,30.44141Z"/>
        <path class="cls-2" d="M104.17424,51.88151l5.3468,1.77828c-2.05812,1.76-4.88242,2.2823-7.57752,2.54659a57.12361,57.12361,0,0,1-8.87752.17682,61.88928,61.88928,0,0,0-8.36469-.31148c-2.59742.202-5.1262.90659-7.69322,1.35133-10.52741,1.82386-21.31919-.75687-31.98859-.194a108.72835,108.72835,0,0,0-17.51624,2.85833A9.18776,9.18776,0,0,1,30.961,56.74387a5.09552,5.09552,0,0,1-2.02765-1.00006,1.63042,1.63042,0,0,1-.2657-2.19308c4.41107-1.42042,9.17893-.31939,13.74318.48231,9.13267,1.60414,19.27906-.28571,28.50768-1.18647,9.81366-.95787,21.638-1.08,31.48229-1.641"/>
        <path class="cls-2" d="M28.65034,63.55185c9.17287-1.99361,22.1472-.85441,31.5311-1.09628,4.58893-.11828,9.17017-.43485,13.7497-.75133l11.357-.78485c7.147-.49392,17.64488-1.67865,24.79188-2.17256-2.454,3.47459-9.897,6.42784-14.14458,6.65835-2.941.15961-5.84464-.59768-8.77015-.93884-6.51149-.75932-13.07217.54716-19.62643.68088-4.82148.09837-9.63522-.43894-14.45768-.45375-7.303-.02242-17.11127,2.01526-24.31981,3.18636.47216-.60413,3.50486-2.07159,3.977-2.67572C32.126,65.10547,28.07092,64.27594,28.65034,63.55185Z"/>
        <path class="cls-2" d="M18.88572,85.246c6.47941-2.7472,13.84842-1.39968,20.86329-.83272a139.54331,139.54331,0,0,0,20.623-.15146,79.973,79.973,0,0,0,15.27351-2.14914c3.6387-.97077,7.71634-2.34579,10.964-.43915a32.42127,32.42127,0,0,1-7.13891,3.34125,41.66943,41.66943,0,0,1,9.02239,2.06457c-12.42531,1.40881-28.82047,1.78355-41.31377,2.32226a338.19241,338.19241,0,0,1-35.50421-.335C13.23468,86.38034,16.88855,86.09276,18.88572,85.246Z"/>
        <path class="cls-2" d="M5.93174,95.30609a78.60265,78.60265,0,0,1,15.474-1.21935c4.39166.23479,8.71282,1.205,13.09446,1.58324,5.64953.48764,11.98714-2.07148,17.61938-2.72937,10.52306-1.22919,20.334-.94853,30.89458-1.79715a11.4121,11.4121,0,0,1,5.01684.36846Q85.96339,93.0215,83.77586,94.357A7.21457,7.21457,0,0,1,88.114,97.37467c-13.83722,1.64318-24.931-.308-38.81024.93063-6.90994.61666-16.684,1.64884-23.61564,1.93194S11.47034,99.42217,5.93174,95.30609Z"/>
        <rect class="cls-3" x="28.29978" y="48.35285" width="66.54851" height="2.42926" transform="translate(-2.12386 2.76069) rotate(-2.52491)"/>
        <polygon class="cls-5" points="6.949 26.176 25.686 16.169 91.658 19.763 91.443 23.71 86.848 25.015 91.182 28.503 90.89 33.86 84.97 33.537 90.668 37.948 90.53 40.485 25.897 38.236 6.949 26.176"/>
        <rect class="cls-3" x="24.45596" y="78.23931" width="64.06994" height="2.47691" transform="translate(-3.68558 2.75275) rotate(-2.70327)"/>
        <polygon class="cls-5" points="28.288 49.439 28.428 54.896 31.473 56.136 28.539 59.224 28.65 63.552 33.77 64.927 28.761 67.88 28.834 70.702 93.189 69.052 115.024 55.731 91.478 46.791 28.288 49.439"/>
        <polygon class="cls-5" points="2.691 93.529 27.211 79.634 87.925 76.403 88.211 81.771 79.904 85.086 88.493 87.079 88.763 92.154 83.986 94.482 89.043 97.418 89.303 102.305 27.649 105.585 2.691 93.529"/>
        <g>
          <path class="cls-6" d="M39.94155,157.8974s6.63958-8.52088,9.88987-9.16338c8.44023-1.66841,12.46375,3.76049,16.69131,3.03583,5.576-.95579,10.99179,5.38984,14.94735,6.28158"/>
          <path class="cls-7" d="M81.47008,158.05143a24.22818,24.22818,0,0,1-5.067-2.103c-3.04058-1.51764-6.11054-3.25589-9.23976-2.71844-2.17411.37457-4.54041-.46872-6.64148-1.37746-2.75274-1.19212-5.86953-2.54051-10.40052-1.64712-1.86064.36773-7.5637,4.33607-10.17981,7.69195h0c1.16587-1.49674,5.83788-9.203,9.59809-10.63563,5.19045-1.97753,9.17692.54054,12.17335,1.83713,1.82649.78989,3.27276,1.41048,4.556,1.19226,4.11256-.70342,5.37624.58437,8.51375,2.83111,2.08432,1.49258,5.481,4.65753,6.68736,4.92916Z"/>
        </g>
      </g>
    </g>
  </g>
</svg>
