<svg xmlns="http://www.w3.org/2000/svg" viewBox="0 0 190.75586 63.57797">
  <defs>
    <style>
      .cls-1 {
        isolation: isolate;
      }

      .cls-2 {
        fill: #65737e;
      }

      .cls-3 {
        fill: #4f5b66;
      }

      .cls-4 {
        fill: #343d46;
      }

      .cls-5 {
        fill: #112031;
      }

      .cls-5, .cls-8 {
        opacity: 0.35;
      }

      .cls-6 {
        fill: none;
        stroke: #2a3037;
        stroke-miterlimit: 10;
        stroke-width: 3px;
      }

      .cls-7 {
        fill: #acc2e3;
      }

      .cls-8 {
        fill: #a7adba;
        mix-blend-mode: multiply;
      }
    </style>
  </defs>
  <g class="cls-1">
    <g id="Layer_2" data-name="Layer 2">
      <g id="environment">
        <g>
          <polygon class="cls-2" points="46.293 21.587 82.463 43.937 119.463 27.497 157.513 25.977 130.593 1.517 78.933 3.057 46.293 21.587"/>
          <polygon class="cls-3" points="59.293 60.327 82.463 43.937 46.293 21.587 17.957 55.567 41.486 57.855 59.293 60.327"/>
          <polygon class="cls-4" points="169.204 54.739 157.513 25.977 119.463 27.497 82.463 43.937 59.293 60.327 90.051 62.175 122.615 57.855 145.015 54.269 169.204 54.739"/>
          <g>
            <path class="cls-5" d="M59.57521,59.198c21.81672-.27029,29.2368-8.76093,50.899-10.8585,5.73479-.5553,18.91761.98823,28.94112-1.41176,7.59605-1.81877,19.32367-7.26573,23.57642-11.15292,2.23625,4.35121,5.02447,13.10314,6.73313,17.68727-4.86759.59878-9.742-.79134-14.6391-1.05681-5.45944-.296-10.88664.80854-16.24487,1.8959C114.00167,59.34186,81.02,63.38735,59.57521,59.198Z"/>
            <polyline class="cls-6" points="18.71 55.567 46.293 21.587 78.933 3.057 130.593 1.517 157.513 25.977 169.204 54.739"/>
            <polyline class="cls-6" points="46.288 21.589 82.463 43.94 119.465 27.494 157.518 25.981"/>
            <line class="cls-6" x1="82.46285" y1="43.93738" x2="59.29285" y2="60.32738"/>
            <line class="cls-6" x1="132.50285" y1="56.33738" x2="119.46285" y2="27.49738"/>
            <path class="cls-7" d="M88.39453,63.578C72.54,63.579,49.38477,60.90317,32.3457,57.8475,12.04492,54.2059.11816,60.7977,0,60.86411H0c.51758-.2959,11.42285-9.81836,32.875-5.96973C52.46484,58.409,80.16406,61.41391,95.19629,60.37c7.40918-.51562,17.92578-2.34082,28.0957-4.10546,9.54395-1.65625,19.41309-3.36914,26.56446-3.96094,14.75781-1.21875,33.18945,4.38867,40.89941,6.75h0c-7.48438-2.293-26.26856-4.94922-40.65137-3.75977-7.01855.58008-16.82031,2.28125-26.29883,3.92676-10.24511,1.77734-20.83886,3.61523-28.40039,4.1416C93.294,63.50961,90.93652,63.578,88.39453,63.578Z"/>
            <polygon class="cls-8" points="54.851 21.589 80.639 7.21 128.639 5.516 146.898 21.589 119.463 22.727 82.463 39.21 54.851 21.589"/>
          </g>
        </g>
      </g>
    </g>
  </g>
</svg>
