<svg xmlns="http://www.w3.org/2000/svg" viewBox="0 0 209.3457 82.63674">
  <defs>
    <style>
      .cls-1 {
        isolation: isolate;
      }

      .cls-2 {
        fill: #65737e;
      }

      .cls-3 {
        fill: #4f5b66;
      }

      .cls-4 {
        fill: #343d46;
      }

      .cls-5 {
        fill: #112031;
      }

      .cls-5, .cls-8 {
        opacity: 0.35;
      }

      .cls-6 {
        fill: none;
        stroke: #2a3037;
        stroke-miterlimit: 10;
        stroke-width: 3px;
      }

      .cls-7 {
        fill: #acc2e3;
      }

      .cls-8 {
        fill: #a7adba;
        mix-blend-mode: multiply;
      }
    </style>
  </defs>
  <g class="cls-1">
    <g id="Layer_2" data-name="Layer 2">
      <g id="environment">
        <g>
          <polygon class="cls-2" points="19.408 49.064 58.235 15.358 74.99 24.885 85.321 14.316 116.224 1.647 156.252 21.762 124.778 55.747 74.969 68.401 19.408 49.064"/>
          <polygon class="cls-3" points="13.864 73.729 19.408 49.064 74.969 68.401 89.371 80.481 71.778 80.481 60.867 78.621 45.055 74.443 32.255 72.186 13.864 73.729"/>
          <polygon class="cls-4" points="89.371 80.481 74.969 68.401 124.778 55.747 156.252 21.762 190.568 75.122 171.455 78.621 154.231 75.122 135.117 73.861 114.419 76.919 89.371 80.481"/>
          <polygon class="cls-3" points="71.778 14.834 58.235 15.358 74.99 24.885 85.321 14.316 71.778 14.834"/>
          <g>
            <path class="cls-5" d="M85.76057,79.339c7.39449-4.343,14.2588-9.41174,26.21419-12.38823,11.39607-2.83725,18.07622-2.77836,27.95041-2.29409,3.15558.15476,12.39463,1.11463,15.53185.74115,11.8588-1.41176,14.85613-4.43356,20.79749-13.30583,3.59188,5.52026,9.632,14.7863,13.22392,20.30656a1.73329,1.73329,0,0,1,.40036,1.15427c-.08845.56427-.68382.88122-1.21408,1.09346-8.86686,3.54887-18.84425,2.16887-28.28045.69448-10.33232-1.61441-20.82708-3.28039-31.20062-1.95642-4.19676.53564-8.31394,1.55512-12.45739,2.41041A168.43456,168.43456,0,0,1,85.76057,79.339Z"/>
            <polyline class="cls-6" points="190.568 75.122 156.252 21.762 116.224 1.647 85.319 14.313 58.237 15.355 19.405 49.059 13.864 73.729"/>
            <polyline class="cls-6" points="156.247 21.759 124.778 55.747 74.969 68.401 19.408 49.064"/>
            <polyline class="cls-6" points="58.235 15.358 74.99 24.885 85.321 14.316"/>
            <line class="cls-6" x1="89.3714" y1="80.48079" x2="74.96804" y2="68.40499"/>
            <line class="cls-6" x1="135.1171" y1="73.85938" x2="124.78079" y2="55.74766"/>
            <path class="cls-7" d="M78.54785,82.63674a46.03705,46.03705,0,0,1-5.15234-.25879,101.56235,101.56235,0,0,1-13.03516-2.90722C52.7002,77.45022,43.167,74.93557,33.376,74.32033A85.56423,85.56423,0,0,0,0,78.68948H0a60.86605,60.86605,0,0,1,33.56348-7.36329c10.085.63379,19.77539,3.18946,27.5625,5.24414a100.09119,100.09119,0,0,0,12.60937,2.82715c9.30664,1.05957,25.27637-1.57226,39.36426-3.8916,9.98926-1.64648,19.42578-3.20117,25.752-3.35937,5.70215-.13965,11.7041.89355,18.05762,1.98925,10.73926,1.85352,21.83887,3.76758,32.15332-.06054,14.00781-5.19727,20-.458,20.2832-.377h0c-.04785-.01171-6.29882-1.61132-19.24023,3.18946-11.07129,4.10742-22.57813,2.124-33.70606.2041-6.2041-1.07031-12.05566-2.09277-17.47363-1.94531-6.11816.15234-15.4541,1.69043-25.33887,3.31933C101.60059,80.44045,88.27148,82.63576,78.54785,82.63674Z"/>
            <polygon class="cls-8" points="58.608 20.798 76.302 30.398 87.828 18.069 115.831 6.492 149.337 23.245 122.325 51.121 74.984 63.339 27.549 47.527 58.608 20.798"/>
          </g>
        </g>
      </g>
    </g>
  </g>
</svg>
