<svg xmlns="http://www.w3.org/2000/svg" viewBox="0 0 171.1923 168.67575">
  <defs>
    <style>
      .cls-1 {
        fill: #56aea0;
      }

      .cls-1, .cls-2 {
        stroke: #1e3e4d;
      }

      .cls-1, .cls-2, .cls-5, .cls-6 {
        stroke-miterlimit: 10;
        stroke-width: 2.5px;
      }

      .cls-2, .cls-6 {
        fill: none;
      }

      .cls-3 {
        fill: #33718a;
        opacity: 0.75;
      }

      .cls-4 {
        fill: #1e3e4d;
      }

      .cls-4, .cls-7 {
        opacity: 0.5;
      }

      .cls-5, .cls-8 {
        fill: #fff;
      }

      .cls-5, .cls-6 {
        stroke: #adc4e2;
      }

      .cls-7 {
        fill: #adc4e2;
      }
    </style>
  </defs>
  <g id="Layer_2" data-name="Layer 2">
    <g id="environment">
      <g>
        <polygon class="cls-1" points="29.323 121.389 3.883 153.578 29.323 143.413 30.613 161.295 43.978 146.425 53.954 163.554 65.436 146.801 74.848 165.625 83.319 149.248 95.742 165.625 103.271 147.178 112.871 165.625 120.589 145.295 130.566 163.178 135.836 144.542 147.036 161.295 147.036 142.283 166.707 156.213 144.495 121.389 29.323 121.389"/>
        <polygon class="cls-2" points="29.323 121.389 3.883 153.578 29.323 143.413 30.613 161.295 43.978 146.425 53.954 163.554 65.436 146.801 74.848 165.625 83.319 149.248 95.742 165.625 103.271 147.178 112.871 165.625 120.589 145.295 130.566 163.178 135.836 144.542 147.036 161.295 147.036 142.283 166.707 156.213 144.495 121.389 29.323 121.389"/>
        <polygon class="cls-3" points="34.67 120.582 15.658 144.864 32.788 137.86 33.541 152.393 43.705 140.723 54.435 156.535 64.788 139.97 74.764 156.535 83.766 142.04 94.341 158.229 102.623 139.405 112.223 157.099 119.941 137.86 129.352 153.578 134.435 137.86 143.658 149.758 143.658 135.452 154.011 143.507 137.446 117.57 55.564 117.57 34.67 120.582"/>
        <path class="cls-4" d="M19.75634,133.49358s9.36094,4.2645,14.72563,2.99392,10.02351-4.74383,12.70586-4.94117,7.90586,5.69638,13.27056,5.1776,12.847-4.64175,15.52938-4.1332,9.65977,7.28186,15.52938,7.14382c4.96394-.11674,11.90752-6.41679,14.58986-5.964s7.85715,3.14052,11.66891,1.4464,4.94117-5.50587,7.34116-5.22352,7.42636,4.63566,14.0235,2.59734,9.71615-4.363,9.71615-4.363l-9.71615-14.8932-42.82344,3.8118-57.31753-.84706-7.73233.8922Z"/>
        <path class="cls-5" d="M37.52282,93.86381A170.63817,170.63817,0,0,1,26.1893,109.01292C21.107,114.98937,14.754,120.16583,21.81284,127.507c5.30382,5.516,13.41174,4.37646,19.48231.847,2.767-1.60873,7.904-5.38774,13.524.4508,5.81711,6.04331,15.41709-.02727,19.5112-1.58021s10.24782,6.12481,17.4478,6.266,8.95688-4.84,12.90981-4.84,7.19526,3.43121,11.43054,1.8211c3.06936-1.16687,1.83529-5.78823,4.65882-6.63529s12.52921,7.39985,22.30583,2.4c6.62529-3.38823,8.14116-10.72939,1.41176-19.52937-5.18034-6.7743-13.41173-18.87055-13.41173-18.87055Z"/>
        <path class="cls-6" d="M37.52282,93.86381A170.63817,170.63817,0,0,1,26.1893,109.01292C21.107,114.98937,14.754,120.16583,21.81284,127.507c5.30382,5.516,13.41174,4.37646,19.48231.847,2.767-1.60873,7.904-5.38774,13.524.4508,5.81711,6.04331,15.41709-.02727,19.5112-1.58021s10.24782,6.12481,17.4478,6.266,8.95688-4.84,12.90981-4.84,7.19526,3.43121,11.43054,1.8211c3.06936-1.16687,1.83529-5.78823,4.65882-6.63529s12.52921,7.39985,22.30583,2.4c6.62529-3.38823,8.14116-10.72939,1.41176-19.52937-5.18034-6.7743-13.41173-18.87055-13.41173-18.87055Z"/>
        <path class="cls-7" d="M147.03613,110.67569,136.31708,96.29928V94.42941l-1.67889-.38184-.2519-.33783s.04865.114.1308.31031l-27.18817-6.1836-40.47052.93348L50.2937,86.51114,37.52283,93.8638,27.86,107.00119l14.71008-4.81V110.665l17.07916-10.474,3.25623,12.29651L75.27265,100.191l8.4934,11.73181L92.14636,101.524l8.5943,10.96357,6.41828-14.50678,10.14642,13.56561,5.81317-13.56561,13.19855,11.03217V98.62558c2.47241,6.72,6.05292,18.24078,2.63531,20.82666-3.27124,2.4751-16.37646-3.06134-19.7647-3.06134s-5.08234,6.63781-7.1529,7.579c-2.07062.94116-4.70587-1.69416-7.90588-1.69416s-8.65882,5.08234-12.61176,5.27063c-3.95294.18824-7.52936-6.4-13.74115-7.343-6.21173-.94294-11.10583,4.33117-15.05877,5.14013-3.953.8089-8.84705-5.89129-14.11762-6.456s-13.17645,5.4588-18.89459,6.4-8.598-10.29193-8.598-10.29193l-2.43164,6.3938,5.5512,8.07074,10.73591,1.41223,14.95477-5.3966,6.97369,4.912,9.558.11438,9.44476-2.95581,10.27222,5.04438H96.79663l7.89136-3.94013,11.43054,1.82111,4.65882-6.63532,14.819,4.00159,7.48681-1.60156,5.77356-7.72534Z"/>
        <polygon class="cls-1" points="41.86 77.813 21.107 102.801 44.966 94.472 41.154 106.754 58.519 94.895 61.201 107.46 72.495 96.025 80.119 107.46 88.73 96.731 97.483 109.013 103.977 93.413 113.86 107.601 119.224 94.472 132.071 106.048 131.507 92.636 147.036 98.425 132.918 74.707 41.86 77.813"/>
        <polygon class="cls-2" points="41.86 77.813 21.107 102.801 44.966 94.472 41.154 106.754 58.519 94.895 61.201 107.46 72.495 96.025 80.119 107.46 88.73 96.731 97.483 109.013 103.977 93.413 113.86 107.601 119.224 94.472 132.071 106.048 131.507 92.636 147.036 98.425 132.918 74.707 41.86 77.813"/>
        <polygon class="cls-3" points="47.47 76.158 32.035 94.982 50.294 86.511 47.847 98.558 61.023 88.582 63.282 100.064 72.882 89.899 80.035 101.005 88.541 90.577 96.411 101.005 102.811 86.511 112.223 99.499 117.682 87.836 128.599 98.182 128.599 87.836 139.141 91.86 129.352 74.707 82.858 71.452 47.47 76.158"/>
        <path class="cls-4" d="M33.53525,87.83649s10.26435,2.90992,14.64081.65111c2.57406-1.32855,5.3647-4.40818,7.05881-4.46291s5.50587,2.34526,8.47057,2.20409,6.63528-1.72768,9.45881-2.205,10.447,6.50145,17.08231,5.20029,8.18822-4.12468,12.847-3.84233,10.58821,5.74984,14.8235,4.00433,6.77645-6.5455,10.58821-6.5455h9.25452L125.96414,65.89941,68.78778,70.13469,44.082,69.71116Z"/>
        <path class="cls-5" d="M56.96571,46.613s-9.52989,13.18582-13.97644,17.2235c-4.09411,3.71764-12.54366,3.91692-13.27056,12.98821-.52417,6.54116,14.11761,9.4588,19.62349,3.81175s11.43527,1.13767,15.247.56471,7.55012-4.87087,12.56468-2.11765c2.82492,1.551,9.093,6.77457,16.09408,4.94116,4.59089-1.20224,6.63529-4.51763,11.15293-3.67057s9.02292,3.62868,12.41114,3.20515,7.4947-5.60515,10.31822-5.60515c3.10588,0,12.60322,3.24706,14.57969-4.37646s-5.96794-10.30586-10.3444-14.54114-10.58028-13.92034-10.58028-13.92034Z"/>
        <path class="cls-7" d="M133.62476,60.92636l-6.62866-6.96442-6.21082-8.84576L94.15247,42.65237H59.51807L42.98926,63.83651l19.43695-7.845L56.96179,67.48062,82.77332,53.96194,89.4466,67.48062l8.073-14.61249L109.023,64.763V53.58725l9.6,9.40222,1.31762-10.12134,8.37073,6.6568c2.31031,4.4231,6.30145,9.84137,5.93512,11.5509-.5647,2.63532-6.4,1.31769-9.22351,1.12946-2.82349-.18829-7.15289,4.32934-9.78821,5.4588-2.63525,1.12939-9.03528-3.76471-12.42346-3.67548-3.38824.0893-12.04706,4.42841-15.05017,4.43116s-9.60864-5.64978-12.05566-5.838c-2.44709-.18823-7.90589,2.07056-10.16468,2.12531-2.25885.05481-4.3294-.99591-7.52942-2.31354-3.2-1.31769-9.97644,2.07056-16.15148,5.41944s-8.51752-8.2555-8.51752-8.2555l-2.91242,4.00019.46875,6.569,10.96119,3.46985,12.38671-5.21527,10.34266,2.82,9.23382-3.34888,9.943,5.02924L93.248,84.02469l11.153-3.67054,12.41113,3.20514,10.31824-5.60516,11.90412-.4762,2.86737-7.52008Z"/>
        <path class="cls-6" d="M56.96571,46.613s-9.52989,13.18582-13.97644,17.2235c-4.09411,3.71764-12.54366,3.91692-13.27056,12.98821-.52417,6.54116,14.11761,9.4588,19.62349,3.81175s11.43527,1.13767,15.247.56471,7.55012-4.87087,12.56468-2.11765c2.82492,1.551,9.093,6.77457,16.09408,4.94116,4.59089-1.20224,6.63529-4.51763,11.15293-3.67057s9.02292,3.62868,12.41114,3.20515,7.4947-5.60515,10.31822-5.60515c3.10588,0,12.60322,3.24706,14.57969-4.37646s-5.96794-10.30586-10.3444-14.54114-10.58028-13.92034-10.58028-13.92034Z"/>
        <polygon class="cls-1" points="67.413 30.237 41.86 56.495 67.413 47.601 59.442 61.013 80.824 48.59 86.048 62.989 94.377 49.437 105.107 61.154 105.107 49.154 114.377 59.648 116.004 48.59 123.036 54.942 122.932 48.335 132.071 49.437 110.471 30.237 67.413 30.237"/>
        <polygon class="cls-2" points="67.413 30.237 41.86 56.495 67.413 47.601 59.442 61.013 80.824 48.59 86.048 62.989 94.377 49.437 105.107 61.154 105.107 49.154 114.377 59.648 116.004 48.59 123.036 54.942 122.932 48.335 132.071 49.437 110.471 30.237 67.413 30.237"/>
        <polygon class="cls-3" points="69.117 33.052 54.435 48.299 74.952 40.676 68.552 52.629 83.766 42.841 86.966 54.699 94.152 42.652 101.494 52.441 102.623 41.711 112.223 51.876 113.917 42.652 119.564 47.923 119.564 44.441 122.646 45.116 107.611 32.299 84.388 27.288 69.117 33.052"/>
        <path class="cls-4" d="M58.02539,39.88328s4.26638,5.49686,7.44218,4.31686,12.35549-7.66538,14.47313-7.80656,18.29793,5.27849,22.68231,5.31764c5.27058.04706,19.082-2.32645,15.10006-5.02876C100.1289,24.74236,100.976,27.28772,100.976,27.28772L81.63482,22.276Z"/>
        <path class="cls-8" d="M95.16517,4.95045A9.30752,9.30752,0,0,0,81.92851,3.27489C74.29857,9.28863,55.85692,25.08432,60.0556,34.24144c5.26289,11.47814,14.81364-3.64359,20.08122-3.46582s24.50273,10.62071,33.03431,3.375-4.33261-16.72032-10.62737-19.94624C99.19966,12.49058,97.58887,8.24378,95.16517,4.95045Z"/>
        <path class="cls-7" d="M67.02088,17.05215s-5.62132,13.365,1.71985,10.72969,18.447-4.89411,24.65877-.94118,8.18822,4.18823,10.82351,2.49411,2.00381-6.01672-.98824-8.047c-3.95293-2.68235-5.86738-10.96914-5.86738-10.96914l15.33849,11.51418,3.29822,6.51377-4.62117,6.99424-7.82083,1.32176L93.54142,34.71805l-13.4046-3.94243L65.8596,39.16614l-4.50094-2.70821L59.51807,30.2366Z"/>
        <path class="cls-6" d="M95.16517,4.95045A9.30752,9.30752,0,0,0,81.92851,3.27489C74.29857,9.28863,55.85692,25.08432,60.0556,34.24144c5.26289,11.47814,14.81364-3.64359,20.08122-3.46582s24.50273,10.62071,33.03431,3.375-4.33261-16.72032-10.62737-19.94624C99.19966,12.49058,97.58887,8.24378,95.16517,4.95045Z"/>
      </g>
    </g>
  </g>
</svg>
