<svg xmlns="http://www.w3.org/2000/svg" viewBox="0 0 167.26106 182.83276">
  <defs>
    <style>
      .cls-1 {
        fill: #56aea0;
      }

      .cls-1, .cls-4 {
        stroke: #1e3e4d;
      }

      .cls-1, .cls-4, .cls-5, .cls-8 {
        stroke-miterlimit: 10;
        stroke-width: 2.5px;
      }

      .cls-2 {
        fill: #33718a;
        opacity: 0.75;
      }

      .cls-3 {
        fill: #1e3e4d;
      }

      .cls-3, .cls-6 {
        opacity: 0.5;
      }

      .cls-4, .cls-8 {
        fill: none;
      }

      .cls-5, .cls-7 {
        fill: #fff;
      }

      .cls-5, .cls-8 {
        stroke: #adc4e2;
      }

      .cls-6 {
        fill: #adc4e2;
      }
    </style>
  </defs>
  <g id="Layer_2" data-name="Layer 2">
    <g id="environment">
      <g>
        <polygon class="cls-1" points="27.38 151.058 4.603 170.07 23.992 166.117 22.297 173.27 43.003 163.67 43.003 175.905 59.568 166.493 67.097 177.599 78.015 167.246 87.897 180.611 96.462 166.87 108.697 177.599 113.215 164.988 126.956 176.282 131.097 165.835 144.462 174.776 148.497 165.835 161.591 170.635 137.685 149.176 27.38 151.058"/>
        <polygon class="cls-2" points="33.077 147.709 18.724 163.521 30.363 160.818 28.857 166.345 46.739 158.062 46.739 169.733 61.798 160.818 67.445 169.733 78.175 161.639 87.586 173.874 96.057 160.792 106.786 170.486 112.245 158.627 125.045 169.921 129.139 160.792 143.116 169.921 147.008 161.827 136.904 153.356 33.077 147.709"/>
        <path class="cls-3" d="M16.50091,160.139s9.89495,1.79566,17.47434.67914c16.15236-2.37939,15.58765-5.88819,19.72882-4.63821,3.577,1.07968,6.04582,7.86814,12.8,9.6,7.34116,1.88235,17.69408-5.14175,22.21172-5.20616s12.13986,6.96067,16.56467,5.26579,11.10586-7.589,14.11762-7.40079,12.4235,5.08234,17.69408,4.3294,10.379-4.80827,10.379-4.80827L127.86863,146.07,82.8658,151.474,41.657,143.75637,30.92765,146.07Z"/>
        <polygon class="cls-4" points="27.38 151.058 4.603 170.07 23.992 166.117 22.297 173.27 43.003 163.67 43.003 175.905 59.568 166.493 67.097 177.599 78.015 167.246 87.897 180.611 96.462 166.87 108.697 177.599 113.215 164.988 126.956 176.282 131.097 165.835 144.462 174.776 148.497 165.835 161.591 170.635 137.685 149.176 27.38 151.058"/>
        <path class="cls-5" d="M39.41551,122.33185s-26.2864,24.11459-19.60406,31.644c6.71119,7.56191,29.36465-2.82352,34.63523-3.01175s5.45881,9.6,14.49409,9.6,15.05879-5.27058,20.32937-5.45882,11.48233,7.15293,17.12937,5.45882,8.0941-7.34117,12.23527-7.15293,13.41124,5.97257,18.82349,4.70587c8.847-2.07058,12.61174-7.30667,8.09411-18.2243-4.66324-11.26949-16.93393-20.92537-16.93393-20.92537Z"/>
        <path class="cls-6" d="M141.42155,132.85062v-1.90057l-1.00024-.15338-.32581-.66907s.05475.23175.1482.64185l-39.90442-6.119L29.25,125.05466,25.06816,137.9025l17.30078-4.80517,1.3587,9.34137,13.9632-7.828,2.83679,9.52216,10.32892-8.674,4.91809,12.48572L89.47026,135.755,96.104,149.77988l8.75567-15.06854,8.75019,10.26856,4.28088-11.88257,8.56616,9.34137,2.0329-13.03931L141.42155,141.874v-5.50574c.8443,4.3758,1.68354,9.75568,1.1294,11.5763-.98822,3.24707-4.28233,4.23533-7.81175,4.65886s-12.28234-4.43121-18.07055-4.04705c-5.78821.38421-9.17643,6.5859-11.8588,6.58822-2.68231.00226-9.12942-5.20172-15.6235-5.96875-5.63934-.66607-13.28069,6.02313-17.09246,5.882-3.81171-.14117-9.57641-6.46823-14.24865-8.98782-5.69348-3.07025-24.25362,4.847-30.46541,4.98822-6.21173.14118-5.88589-7.92253-5.88589-7.92253l-2.49878,9.4273,6.95142,4.07038,12.99676-1.567,15.50336-4.10223,10.35779,8.74334,9.58624.21839,14.87939-4.82062,13.18683,5.71289,5.91156-1.05157,10.2663-6.35541,6.55151,2.01581,13.41022,2.39471,7.54688-4.84607.86462-8.65307Z"/>
        <polygon class="cls-1" points="41.929 109.929 20.47 135.529 41.929 129.505 43.058 138.729 56.8 130.823 59.058 140.423 69.6 132.141 74.305 144.564 87.858 132.141 94.07 146.07 102.164 131.576 111.388 142.305 115.341 130.258 123.456 139.294 125.505 126.494 137.878 138.541 137.878 128.752 149.411 135.905 130.023 106.729 41.929 109.929"/>
        <polygon class="cls-2" points="51.445 104.604 32.272 128.133 46.175 124.65 46.551 131.709 59.539 124.933 61.61 133.215 71.398 126.399 75.916 137.356 89.469 124.933 94.363 137.356 101.892 124.368 109.422 134.533 114.316 124.65 121.092 130.58 123.574 120.039 134.269 130.203 134.269 123.091 137.878 124.65 126.785 108.653 51.445 104.604"/>
        <path class="cls-3" d="M33.97525,119.41761s6.75556.19769,9.72026-1.35525,7.27916-3.9932,8.785-2.72262c1.25832,1.06171,3.069,6.09145,7.05881,7.052,5.08235,1.22353,13.31762.69951,17.97644-3.42438,4.392-3.88776,7.52939,5.41453,11.76468,7.10864s10.49828,1.93793,15.247-4.34308c3.58312-4.73928,5.1294,3.43524,12.047,3.85882s9.1568-2.71517,10.16469-4.61176c1.75057-3.29411,2.4-3.5294,12.15429-.90224l-11.30723-15.4742L94.8334,107.85056l-33.31758-1.12169-16.51761-.43129Z"/>
        <polygon class="cls-4" points="41.929 109.929 20.47 135.529 41.929 129.505 43.058 138.729 56.8 130.823 59.058 140.423 69.6 132.141 74.305 144.564 87.858 132.141 94.07 146.07 102.164 131.576 111.388 142.305 115.341 130.258 123.456 139.294 125.505 126.494 137.878 138.541 137.878 128.752 149.411 135.905 130.023 106.729 41.929 109.929"/>
        <path class="cls-5" d="M45.31728,87.51486s-17.31761,21.647-12.047,26.16465,16.56467-3.95293,21.08231-3.2,1.88235,8.0941,10.35292,8.28234,11.8588-6.21176,17.31761-5.27058,7.5294,10.35292,13.17645,9.6,8.0941-8.28234,11.10586-8.28234,9.22351,8.47057,13.74114,6.4,3.38823-7.5294,6.21176-8.47057,5.39283,3.25065,9.6,1.31764c6.96469-3.2-5.79278-32.75287-12.40225-33.12934S45.31728,87.51486,45.31728,87.51486Z"/>
        <g>
          <path class="cls-6" d="M133.883,91.70585l-3.69657-1.38623s4.45863,14.9552,1.1645,17.578c-1.53466,1.22187-4.67081-1.22839-7.77671-.04706-4.62976,1.76093-3.89388,5.48947-6.3409,6.44705-2.44709.95758-6.481-4.35922-10.62211-5.35891-4.14117-.9997-6.88374,5.35885-11.02491,5.73538-4.14117.37647-5.15951-5.11166-11.38155-6.6603-6.22211-1.54865-8.50954,2.02471-14.90956,4.09533-6.4,2.07056-5.89707-3.19965-11.16764-5.40369s-14.128,2.28231-18.16467,2.604c-4.03674.32171-4.46141-7.2864-4.46141-7.2864l-2.42487,5.24371.19361,6.41278,5.70822,1.2055,16.23147-4.35211,5.36335,7.23511,9.784.06616,11.66578-4.34289,4.047,2.49512,3.68091,4.523,5.44849,2.58184,5.30951-3.06372,5.79632-5.21856,10.61176,6.45337,4.92981-1.31556,4.41131-7.20843,9.6,1.31763,2.01971-4.276Z"/>
          <polygon class="cls-6" points="80.772 85.686 50.278 84.799 38.36 91.703 37.705 99.854 55.727 94.439 55.727 105.309 71.374 92.989 79.784 106.298 86.098 92.769 96.866 102.588 100.273 95.544 112.113 104.745 114.667 90.32 126.231 101.639 128.49 90.32 120.725 81.477 80.772 85.686"/>
        </g>
        <polygon class="cls-1" points="55.105 71.905 32.329 97.129 55.105 90.541 55.105 101.082 69.223 89.976 76.753 102.023 82.776 89.788 93.505 99.388 96.894 92.799 108.564 102.023 111.388 86.964 122.682 98.823 124.752 88.282 139.811 93.929 116.847 66.447 55.105 71.905"/>
        <polygon class="cls-2" points="61.939 69.592 43.172 90.32 59.257 85.404 58.833 93.887 69.704 85.121 76.057 94.58 82.41 84.235 92.151 93.309 95.68 87.239 105.704 95.568 109.092 80.912 120.81 91.333 122.08 83.427 129.139 86.392 113.61 68.18 61.939 69.592"/>
        <path class="cls-3" d="M47.70855,81.61779s7.557,1.09257,11.79229-.87305,3.75561-3.10946,5.96791-1.28144c2.91764,2.41085,7.00241,4.52164,11.04382,4.00273,6.5647-.84289,9.26471-5.26246,11.93822-4.98011s7.33292,5.78814,13.54408,5.78822c8.047.00011,8.96469-7.83528,11.92939-8.96469s7.576,2.32941,9.47032,1.48235-4.31739-7.90586-4.31739-7.90586l-30.6264-.70588-29.09112.70588Z"/>
        <polygon class="cls-4" points="55.105 71.905 32.329 97.129 55.105 90.541 55.105 101.082 69.223 89.976 76.753 102.023 82.776 89.788 93.505 99.388 96.894 92.799 108.564 102.023 111.388 86.964 122.682 98.823 124.752 88.282 139.811 93.929 116.847 66.447 55.105 71.905"/>
        <path class="cls-7" d="M72.98782,45.64664S43.99964,69.45836,48.329,74.91717s14.30586-1.12941,17.12938-1.12941,3.95293,5.45881,9.6,5.45881,9.41175-5.647,14.49409-4.70587,9.22351,6.02352,14.49409,4.70587,4.3294-7.15292,8.28233-7.90586,8.87637,3.12321,10.91763-1.12941c3.38823-7.05881-20.61172-26.93447-20.61172-26.93447Z"/>
        <path class="cls-8" d="M72.98782,45.64664S43.99964,69.45836,48.329,74.91717s14.30586-1.12941,17.12938-1.12941,3.95293,5.45881,9.6,5.45881,9.41175-5.647,14.49409-4.70587,9.22351,6.02352,14.49409,4.70587,4.3294-7.15292,8.28233-7.90586,8.87637,3.12321,10.91763-1.12941c3.38823-7.05881-20.61172-26.93447-20.61172-26.93447Z"/>
        <path class="cls-6" d="M119.49174,60.203,106.78636,46.06242s1.24109,2.18011,2.6925,5.08288l-16.90429-5.587L67.529,46.876l-9.35633,13.4101,18.10547-6.36377L78.36284,61.37l7.70733-7.40979L96.904,61.37l3.35285-8.32751,10.76477,7.57458.45843-5.22644c2.30524,5.25324,3.9563,10.6955.66883,10.297-6.21173-.75293-9.11359,6.72082-11.19782,7.76294-2.82348,1.4118-9.4828-3.81166-13.56324-3.85878-2.81061-.03241-7.61315,3.76466-9.77788,4.00984-2.16468.24518-6.35423-2.845-10.08091-4.91395-4.03671-2.24111-8.05834,2.38158-10.72939,2.99575-5.025,1.15541-5.91907-4.35048-5.91907-4.35048l-2.77729,4.90735,1.53284,3.87531,7.70435.31628,8.118-2.64416,4.91009,3.79663,8.33338.90655,8.121-3.86779,6.72595,1.40228,10.49774,3.22113,4.6919-4.27118,3.59039-3.63471,3.92114.27155,6.21344-.2724,1.11078-4.89325Z"/>
        <polygon class="cls-1" points="75.435 29.724 56.8 56.265 75.435 49.865 77.317 56.265 83.717 50.994 93.694 58.524 97.647 49.489 107.623 58.524 108.564 49.3 117.976 53.442 104.047 28.03 75.435 29.724"/>
        <polygon class="cls-2" points="78.739 30.815 67.181 48.376 77.61 44.745 79.869 49.451 84.941 45.558 92.01 51.804 96.397 43.277 104.998 50.957 105.28 43.277 110.08 45.558 101.328 28.745 78.739 30.815"/>
        <path class="cls-3" d="M68.81492,39.69062s4.84205,1.74869,7.94793,0,4.92278-3.52571,6.33455-3.10218,3.938,8.1587,8.34777,7.22668,5.08234-6.15554,7.34116-6.57907,7.33462,3.98568,10.22664,3.00651-.072-2.28737-.072-2.28737l-5.49585-8.0603-17.96781-.61176-12.10272,2.1647Z"/>
        <polygon class="cls-4" points="75.435 29.724 56.8 56.265 75.435 49.865 77.317 56.265 83.717 50.994 93.694 58.524 97.647 49.489 107.623 58.524 108.564 49.3 117.976 53.442 104.047 28.03 75.435 29.724"/>
        <path class="cls-7" d="M78.07016,15.99964S64.89371,25.58275,67.529,33.11215,77.88192,31.60627,83.1525,31.418s2.44706,6.9647,6.77646,7.15293,4.14117-6.4,6.58822-6.58822,9.27262,6.234,12.61174,3.57646c5.45881-4.34455-5.98462-25.99948-12.61174-31.99993C87.71646-4.40925,87.10543,10.35259,78.07016,15.99964Z"/>
        <path class="cls-6" d="M71.53933,21.73309s1.27059,5.3647,3.5294,5.64705,7.34117-3.38823,9.6-2.68235,4.65881,5.64705,6.21175,5.64705,2.1647-5.74117,5.78822-5.50587c1.71387.11129,5.96247,3.40436,6.77646,1.69411,1.41176-2.96621-1.16582-15.76151-2.701-17.97426l7.70369,14.226,2.10486,8.98112-1.4238,3.79329h-4.77749L98.69133,32.655l-3.59366.415-2.56874,4.48753L88.326,38.57492l-3.53935-7.80043-8.06892,3.17757-6.59131,2.04419L67.529,33.11215l1.73115-8.05188Z"/>
        <path class="cls-8" d="M78.07016,15.99964S64.89371,25.58275,67.529,33.11215,77.88192,31.60627,83.1525,31.418s2.44706,6.9647,6.77646,7.15293,4.17287-6.15279,6.58822-6.58822c4.3868-.79084,9.27262,6.234,12.61174,3.57646,5.45881-4.34455-5.98462-25.99948-12.61174-31.99993C87.71646-4.40925,87.10543,10.35259,78.07016,15.99964Z"/>
      </g>
    </g>
  </g>
</svg>
