<?xml version="1.0" encoding="UTF-8" standalone="no"?>
<!-- Created with Inkscape (http://www.inkscape.org/) -->

<svg
   xmlns:dc="http://purl.org/dc/elements/1.1/"
   xmlns:cc="http://creativecommons.org/ns#"
   xmlns:rdf="http://www.w3.org/1999/02/22-rdf-syntax-ns#"
   xmlns:svg="http://www.w3.org/2000/svg"
   xmlns="http://www.w3.org/2000/svg"
   xmlns:sodipodi="http://sodipodi.sourceforge.net/DTD/sodipodi-0.dtd"
   xmlns:inkscape="http://www.inkscape.org/namespaces/inkscape"
   width="68.251274mm"
   height="48.373249mm"
   viewBox="0 0 241.83522 171.40128"
   id="svg2"
   version="1.1"
   inkscape:version="0.91 r13725"
   sodipodi:docname="whiteDH.svg">
  <defs
     id="defs4">
    <clipPath
       id="clipPath4171"
       clipPathUnits="userSpaceOnUse">
      <path
         inkscape:connector-curvature="0"
         id="path4173"
         d="M 0,792 612,792 612,0 0,0 0,792 Z" />
    </clipPath>
    <clipPath
       id="clipPath4179"
       clipPathUnits="userSpaceOnUse">
      <path
         inkscape:connector-curvature="0"
         id="path4181"
         d="m -109.875,804.901 874.5,0 0,-232.233 -874.5,0 0,232.233 z" />
    </clipPath>
    <clipPath
       id="clipPath4183"
       clipPathUnits="userSpaceOnUse">
      <path
         inkscape:connector-curvature="0"
         id="path4185"
         d="m 545.625,688.785 66.375,0 0,103.215 -66.375,0 0,-103.215 z" />
    </clipPath>
    <clipPath
       id="clipPath4187"
       clipPathUnits="userSpaceOnUse">
      <path
         inkscape:connector-curvature="0"
         id="path4189"
         d="m 545.625,622.484 66.375,0 0,66.301 -66.375,0 0,-66.301 z" />
    </clipPath>
    <clipPath
       id="clipPath4191"
       clipPathUnits="userSpaceOnUse">
      <path
         inkscape:connector-curvature="0"
         id="path4193"
         d="m 436.5,688.785 109.125,0 0,103.215 -109.125,0 0,-103.215 z" />
    </clipPath>
    <clipPath
       id="clipPath4195"
       clipPathUnits="userSpaceOnUse">
      <path
         inkscape:connector-curvature="0"
         id="path4197"
         d="m 436.5,622.484 109.125,0 0,66.301 -109.125,0 0,-66.301 z" />
    </clipPath>
    <clipPath
       id="clipPath4199"
       clipPathUnits="userSpaceOnUse">
      <path
         inkscape:connector-curvature="0"
         id="path4201"
         d="m 327.375,688.785 109.125,0 0,103.215 -109.125,0 0,-103.215 z" />
    </clipPath>
    <clipPath
       id="clipPath4203"
       clipPathUnits="userSpaceOnUse">
      <path
         inkscape:connector-curvature="0"
         id="path4205"
         d="m 327.375,622.484 109.125,0 0,66.301 -109.125,0 0,-66.301 z" />
    </clipPath>
    <clipPath
       id="clipPath4207"
       clipPathUnits="userSpaceOnUse">
      <path
         inkscape:connector-curvature="0"
         id="path4209"
         d="m 218.25,688.785 109.125,0 0,103.215 -109.125,0 0,-103.215 z" />
    </clipPath>
    <clipPath
       id="clipPath4211"
       clipPathUnits="userSpaceOnUse">
      <path
         inkscape:connector-curvature="0"
         id="path4213"
         d="m 218.25,622.484 109.125,0 0,66.301 -109.125,0 0,-66.301 z" />
    </clipPath>
    <clipPath
       id="clipPath4215"
       clipPathUnits="userSpaceOnUse">
      <path
         inkscape:connector-curvature="0"
         id="path4217"
         d="m 109.125,688.785 109.125,0 0,103.215 -109.125,0 0,-103.215 z" />
    </clipPath>
    <clipPath
       id="clipPath4219"
       clipPathUnits="userSpaceOnUse">
      <path
         inkscape:connector-curvature="0"
         id="path4221"
         d="m 109.125,622.484 109.125,0 0,66.301 -109.125,0 0,-66.301 z" />
    </clipPath>
    <clipPath
       id="clipPath4223"
       clipPathUnits="userSpaceOnUse">
      <path
         inkscape:connector-curvature="0"
         id="path4225"
         d="m 0,688.785 109.125,0 0,103.215 L 0,792 0,688.785 Z" />
    </clipPath>
    <clipPath
       id="clipPath4227"
       clipPathUnits="userSpaceOnUse">
      <path
         inkscape:connector-curvature="0"
         id="path4229"
         d="m 0,622.484 109.125,0 0,66.301 -109.125,0 0,-66.301 z" />
    </clipPath>
    <clipPath
       id="clipPath7851"
       clipPathUnits="userSpaceOnUse">
      <path
         inkscape:connector-curvature="0"
         id="path7853"
         d="M 0,792 612,792 612,0 0,0 0,792 Z" />
    </clipPath>
    <clipPath
       id="clipPath7891"
       clipPathUnits="userSpaceOnUse">
      <path
         inkscape:connector-curvature="0"
         id="path7893"
         d="M 0,792 612,792 612,0 0,0 0,792 Z" />
    </clipPath>
    <clipPath
       id="clipPath8001"
       clipPathUnits="userSpaceOnUse">
      <path
         inkscape:connector-curvature="0"
         id="path8003"
         d="M 0,792 612,792 612,0 0,0 0,792 Z" />
    </clipPath>
    <clipPath
       id="clipPath8049"
       clipPathUnits="userSpaceOnUse">
      <path
         inkscape:connector-curvature="0"
         id="path8051"
         d="M 0,792 612,792 612,0 0,0 0,792 Z" />
    </clipPath>
  </defs>
  <sodipodi:namedview
     id="base"
     pagecolor="#fffbfd"
     bordercolor="#666666"
     borderopacity="1.0"
     inkscape:pageopacity="0"
     inkscape:pageshadow="2"
     inkscape:zoom="0.35"
     inkscape:cx="148.7748"
     inkscape:cy="104.83843"
     inkscape:document-units="px"
     inkscape:current-layer="g4163"
     showgrid="false"
     fit-margin-top="0"
     fit-margin-left="0"
     fit-margin-right="0"
     fit-margin-bottom="0"
     inkscape:window-width="1436"
     inkscape:window-height="855"
     inkscape:window-x="4"
     inkscape:window-y="0"
     inkscape:window-maximized="1" />
  <metadata
     id="metadata7">
    <rdf:RDF>
      <cc:Work
         rdf:about="">
        <dc:format>image/svg+xml</dc:format>
        <dc:type
           rdf:resource="http://purl.org/dc/dcmitype/StillImage" />
        <dc:title></dc:title>
      </cc:Work>
    </rdf:RDF>
  </metadata>
  <g
     inkscape:label="Layer 1"
     inkscape:groupmode="layer"
     id="layer1"
     transform="translate(-230.51091,-294.37079)">
    <g
       transform="matrix(1.25,0,0,-1.25,-859.64286,1053.885)"
       inkscape:label="Design Hacks Corp Doc2-2"
       id="g4163">
      <g
         id="g7887"
         transform="translate(662.85714,-164.57143)"
         inkscape:export-xdpi="180"
         inkscape:export-ydpi="180">
        <g
           clip-path="url(#clipPath7891)"
           id="g7889">
          <g
             transform="translate(235.9062,748.3303)"
             id="g7895">
            <path
               inkscape:connector-curvature="0"
               id="path7897"
               style="fill:#ffffff;fill-opacity:1;fill-rule:nonzero;stroke:none"
               d="m 0,0 c 0,0 -17.976,8.781 -20.827,3.722 -1.538,-2.73 2.207,-5.296 3.156,-3.995 0.222,0.304 0.63,0.41 1.004,0.368 2.858,-0.318 12.408,-1.579 16.206,-4.583 4.492,-3.554 -0.415,-13.073 -1.791,-15.935 -3.512,-7.305 -13.773,-18.119 -19.767,-21.522 -4.809,-2.73 -5.8,-6.468 -3.275,-8.099 2.245,-1.449 4.894,0.4 4.81,1.841 -0.021,0.355 0.057,0.703 0.326,0.936 3.001,2.595 18.829,16.589 23.128,26.596 C 7.727,-9.601 8.356,-4.181 0,0" />
          </g>
          <g
             transform="translate(219.0954,745.6616)"
             id="g7899">
            <path
               inkscape:connector-curvature="0"
               id="path7901"
               style="fill:#ffffff;fill-opacity:1;fill-rule:nonzero;stroke:none"
               d="M 0,0 C 0,0 0.053,2.642 2.772,1.333 5.49,0.025 5.18,0.624 4.761,-1.672 4.342,-3.968 -2.06,-28.118 -2.309,-31.248 c -0.25,-3.129 -0.258,-5.146 -2.412,-5.305 -1.89,-0.139 -4.509,-0.861 -2.586,3.668 C -5.385,-28.356 0.32,-0.955 0,0" />
          </g>
          <g
             transform="translate(260.8792,751.5894)"
             id="g7903">
            <path
               inkscape:connector-curvature="0"
               id="path7905"
               style="fill:#ffffff;fill-opacity:1;fill-rule:nonzero;stroke:none"
               d="m 0,0 c -2.076,-1.259 -4.172,-2.48 -6.294,-3.66 -3.242,-1.804 -7.73,-4.485 -8.61,-5.955 -0.865,-1.445 0.016,-3.501 2.318,-4.184 0.365,-0.109 0.588,-0.47 0.499,-0.841 -0.488,-2.039 -2.1,-9.056 -2.313,-12.046 -0.041,-0.591 -0.349,-1.125 -0.828,-1.473 -1.637,-1.192 -5.183,-3.963 -4.888,-5.407 0.382,-1.872 0.474,-3.558 2.205,-3.43 1.096,0.081 2.084,1.342 2.783,1.981 0.346,0.316 0.9,0.122 0.972,-0.341 0.4,-2.569 1.983,-8.801 7.816,-9.17 7.553,-0.479 19.735,0.645 18.37,6.107 -0.577,2.311 -2.733,2.265 -5.03,1.113 -2.297,-1.152 -11.722,-3.448 -14.081,-0.289 -3.144,4.213 -2.299,7.103 -0.713,8.001 12.989,7.352 16.437,5.557 17.597,8.849 0.528,1.5 0.396,3.464 -1.226,3.823 -2.823,0.624 -9.997,-2.954 -14.28,-5.739 -4.439,-2.887 -3.037,-0.632 -2.558,3.883 0.972,9.165 2.356,7.668 7.652,11.603 8.034,5.97 11.392,5.119 13.006,6.963 1.179,1.347 2.428,3.683 -1.007,4.697 C 9.083,5.167 3.45,2.093 0,0" />
          </g>
          <g
             transform="translate(295.7412,757.9744)"
             id="g7907">
            <path
               inkscape:connector-curvature="0"
               id="path7909"
               style="fill:#ffffff;fill-opacity:1;fill-rule:nonzero;stroke:none"
               d="m 0,0 c 0,0 -10.546,-1.625 -12.442,-12.486 -1.897,-10.862 2.631,-15.515 8.006,-20.139 5.376,-4.624 1.014,-11.404 -4.942,-10.929 -5.157,0.411 -7.227,-3.369 -5.513,-5.516 1.479,-1.852 3.473,-1.939 5.336,-0.496 0.639,0.496 1.361,0.873 2.152,1.041 2.34,0.497 7.25,1.858 9.099,4.795 2.465,3.917 1.611,10.335 -2.904,14.28 -4.516,3.945 -8.211,7.793 -6.766,15.471 0.887,4.71 5.302,10.722 10.583,9.025 C 7.639,-6.572 6.872,1.764 0,0" />
          </g>
          <g
             transform="translate(312.4139,742.5428)"
             id="g7911">
            <path
               inkscape:connector-curvature="0"
               id="path7913"
               style="fill:#ffffff;fill-opacity:1;fill-rule:nonzero;stroke:none"
               d="m 0,0 c 0,0 -1.58,-8.781 -1.223,-11.662 0.358,-2.881 -1.881,-13.414 -2.636,-14.784 -0.755,-1.37 0.014,-4.432 2.475,-4.344 2.46,0.089 3.288,1.382 3.929,8.367 0.64,6.984 2.517,24.467 4.443,31.544 1.927,7.077 -4.311,5.847 -4.865,2.935 C 1.57,9.144 0.485,2.955 0,0" />
          </g>
          <g
             transform="translate(332.3331,751.1523)"
             id="g7915">
            <path
               inkscape:connector-curvature="0"
               id="path7917"
               style="fill:#ffffff;fill-opacity:1;fill-rule:nonzero;stroke:none"
               d="m 0,0 c 0,0 -5.598,-17.161 -2.542,-28.9 3.056,-11.74 7.736,-9.246 10.498,-7.091 2.761,2.156 17.529,18.673 14.571,22.586 -2.21,2.923 -6.684,0.712 -9.537,1.133 -2.853,0.42 -3.937,-0.673 -4.062,-2.189 -0.124,-1.515 0.049,-5.175 3.209,-3.888 1.534,0.625 2.891,1.201 3.883,1.628 0.528,0.227 1.032,-0.359 0.728,-0.847 -1.753,-2.816 -5.69,-8.816 -10.027,-13.31 -4.186,-4.335 -5.321,4.895 -5.215,10.132 0.106,5.238 1.689,18.78 5.723,25.249 3.152,5.055 5.808,1.522 8.536,0.218 2.728,-1.305 5.377,1.476 3.755,3.659 -1.622,2.182 -8.356,5.354 -11.267,4.244 C 5.851,11.708 2.142,8.573 0,0" />
          </g>
          <g
             transform="translate(369.4424,750.8365)"
             id="g7919">
            <path
               inkscape:connector-curvature="0"
               id="path7921"
               style="fill:#ffffff;fill-opacity:1;fill-rule:nonzero;stroke:none"
               d="m 0,0 c 0,0 -4.665,-19.851 -5.129,-23.196 -0.215,-1.551 -2.198,-5.156 -1.511,-6.836 0.686,-1.68 2.072,-3.506 3.552,-2.851 2.277,1.01 2.095,1.094 2.739,8.366 0.644,7.272 3.423,22.523 4.344,20.318 0.922,-2.206 4.466,-13.277 12.54,-21.753 6.799,-7.138 8.71,5.192 10.022,11.797 1.312,6.605 4.955,29.45 5.99,30.778 1.035,1.329 1.026,2.962 -0.247,3.911 -1.273,0.948 -5.338,1.91 -5.345,-2.377 C 26.94,9.708 24.729,-0.546 21.667,-15.817 19.504,-26.608 17.179,-20.237 12.33,-11.38 7.48,-2.523 7.113,3.193 7.512,3.994 7.912,4.796 8.547,5.99 6.833,7.629 5.12,9.268 0.746,9.148 1.192,7.035 1.638,4.922 0.605,2.44 0,0" />
          </g>
          <g
             transform="translate(231.495,689.1014)"
             id="g7923">
            <path
               inkscape:connector-curvature="0"
               id="path7925"
               style="fill:#ffffff;fill-opacity:1;fill-rule:nonzero;stroke:none"
               d="m 0,0 c 0,0 -1.595,0.155 -2.408,-0.436 -1.018,-0.74 -0.337,-2.063 -0.33,-2.628 0.015,-1.177 -1.315,-7.448 -2.078,-10.746 -0.438,-1.889 -3.95,-29.075 -4.578,-31.018 -0.628,-1.944 -2.424,-7.549 -1.085,-8.372 2.394,-1.472 5.256,-1.031 5.525,1.501 0.309,2.894 2.351,15.955 3.159,22.716 0.071,0.592 0.478,1.084 1.046,1.266 2.332,0.749 8.247,2.716 10.88,4.161 0.559,0.307 1.227,-0.115 1.202,-0.752 -0.074,-1.87 -0.308,-5.836 -1.056,-8.699 -0.913,-3.488 -0.976,-5.11 0.295,-6.178 1.271,-1.067 4.455,-1.97 4.709,2.899 0.33,6.317 2.37,24.647 5.98,35.937 0,0 0.591,2.196 -1.096,2.569 -1.687,0.373 -4.142,0.209 -4.339,-1.367 -0.148,-1.18 -1.851,-12.671 -2.822,-16.513 -0.155,-0.612 -0.732,-1.011 -1.362,-0.961 -1.288,0.101 -3.507,-0.012 -4.819,-1.71 -0.536,-0.693 -1.159,-1.308 -1.947,-1.688 -1.395,-0.671 -3.609,-1.567 -5.539,-1.596 -0.186,-0.002 -0.329,0.164 -0.306,0.348 0.263,2.123 1.836,13.421 2.921,16.315 C 3.108,-1.868 2.909,-0.201 0,0" />
          </g>
          <g
             transform="translate(271.7931,674.193)"
             id="g7927">
            <path
               inkscape:connector-curvature="0"
               id="path7929"
               style="fill:#ffffff;fill-opacity:1;fill-rule:nonzero;stroke:none"
               d="m 0,0 c -1.509,-0.661 -3.404,-2.089 -4.703,-3.085 -0.283,-0.217 -0.674,0.06 -0.581,0.405 1.443,5.375 2.655,9.762 4.178,12.549 C -0.313,11.318 0.605,3.966 0.768,1.275 0.801,0.729 0.502,0.22 0,0 M 6.046,-5.042 C 5.668,-0.142 3.9,16.436 2.73,18.434 c -1.17,1.997 -4.544,3.04 -5.462,0.995 -0.919,-2.044 -2.247,-7.352 -2.578,-8.48 L -9.302,-2.636 c 0,0 -0.758,-3.427 -1.5,-3.532 -0.743,-0.106 -2.359,-0.89 -2.415,-2.72 -0.056,-1.83 0.167,-2.626 0.747,-3.152 0,0 -3.303,-12.463 -6.208,-17.945 -2.905,-5.482 4.363,-5.196 5.51,-3 0.751,1.437 2.222,11.397 3.798,16.724 1.576,5.328 0.839,4.246 3.152,5.925 2.313,1.679 7.856,6.383 7.836,4.496 -0.019,-1.888 0.298,-3.764 0.487,-5.175 0.267,-1.994 -0.71,-4.279 0.324,-5.156 1.489,-1.261 4.926,-0.592 5.502,1.809 0.576,2.401 -1.374,2.714 -1.885,9.32" />
          </g>
          <g
             transform="translate(291.9898,689.4616)"
             id="g7931">
            <path
               inkscape:connector-curvature="0"
               id="path7933"
               style="fill:#ffffff;fill-opacity:1;fill-rule:nonzero;stroke:none"
               d="m 0,0 c 0,0 -8.484,-22.412 -4.817,-38.485 3.667,-16.073 22.492,2.615 23.251,3.474 1.94,2.197 3.663,9.033 0.06,9.177 -3.172,0.127 -2.134,-3.713 -4.573,-6.209 -1.306,-1.337 -11.963,-11.797 -13.978,-4.213 -2.123,7.988 -1.587,20.875 4.5,34.453 5.019,11.198 7.484,-2.147 9.9,-2.353 2.416,-0.206 3.839,2.515 2.202,4.764 C 14.909,2.857 12.34,7.938 9.524,8.561 5.143,9.53 1.737,5.29 0,0" />
          </g>
          <g
             transform="translate(322.1407,697.9039)"
             id="g7935">
            <path
               inkscape:connector-curvature="0"
               id="path7937"
               style="fill:#ffffff;fill-opacity:1;fill-rule:nonzero;stroke:none"
               d="m 0,0 c 0.086,-2.357 0.104,-4.708 -0.037,-7.062 -0.498,-8.357 -1.771,-26.484 -3.66,-31.222 -2.479,-6.218 -1.835,-5.866 -0.268,-7.137 1.568,-1.271 4.011,-1.665 4.25,1.396 0.239,3.061 1.297,10.739 1.672,13.076 0.453,2.82 -0.031,6.251 2.732,2.443 3.061,-4.218 6.758,-9.609 9.469,-9.633 2.762,-0.026 3.587,2.046 2.999,3.378 -0.63,1.43 -2.795,2.423 -4.157,3.669 -0.925,0.845 -5.71,7.879 -7.341,10.294 -0.319,0.472 -0.257,1.097 0.15,1.496 1.878,1.837 6.969,5.82 11.671,9.416 5.759,4.404 9.549,5.149 9.317,8.559 -0.194,2.857 -3.26,3.189 -5.634,0.572 C 19.149,-2.975 9.018,-9.518 5.47,-12.158 4.992,-12.514 4.318,-12.16 4.335,-11.564 4.412,-8.812 4.723,-2.864 5.983,0.291 7.659,4.484 5.257,5.464 4.472,5.638 1.352,6.328 -0.21,5.756 0,0" />
          </g>
          <g
             transform="translate(374.4414,704.4912)"
             id="g7939">
            <path
               inkscape:connector-curvature="0"
               id="path7941"
               style="fill:#ffffff;fill-opacity:1;fill-rule:nonzero;stroke:none"
               d="m 0,0 c -3.79,0.64 -7.706,-0.325 -10.847,-2.54 -2.726,-1.922 -6,-5.074 -8.134,-9.975 -3.298,-7.575 -0.399,-15.035 5.448,-17.983 3.873,-1.953 7.168,-5.019 4.756,-8.483 -2.431,-3.491 -6.125,-5.72 -9.316,-6.627 -3.19,-0.907 -5.893,-1.384 -6.127,-4.468 -0.234,-3.084 2.611,-4.698 4.296,-3.816 1.684,0.881 1.376,2.062 3.361,3.033 1.444,0.707 9.476,5.054 12.098,10.028 2.787,5.285 1.272,10.909 -3.813,12.613 -5.672,1.901 -8.468,7.486 -6.074,13.048 2.822,6.555 6.516,10.832 12.087,9.69 5.415,-1.11 6.943,0.582 6.117,3.358 C 3.518,-0.999 1.938,-0.327 0,0" />
          </g>
        </g>
      </g>
    </g>
  </g>
</svg>
