<svg width="4328" height="523" viewBox="0 0 4328 523" fill="none" xmlns="http://www.w3.org/2000/svg">
<path d="M0 171.781C0 171.781 202 220.775 283 231.234C318.755 235.851 493.5 213.619 539 171.781C584.5 129.943 714.5 114.027 770 95.187C825.5 76.3473 1028.5 145.907 1196 145.907C1363.5 145.907 1633.5 3.99768 1740.5 0.501555C1847.5 -2.99457 2219 301.481 2288.5 323.5C2358 345.52 2964.5 301.888 3078 205C3191.5 108.112 3479 113.428 3570 49.5703C3661 -14.2877 4328 171.781 4328 171.781V522.997H0V171.781Z" fill="#243E63"/>
<path d="M1742 0.046916C1709.93 1.09484 1663.21 14.5783 1609 32.9484C1609 32.9484 1626.5 28.9029 1649 32.9484C1662.92 35.4508 1657.5 62.4976 1660 69.4976C1662.5 76.4976 1679.8 40.4645 1703 38.9976C1726.91 37.4859 1734.5 63.9976 1745 69.4976C1755.5 74.9976 1758.5 28.9976 1780.5 28.9976C1802.5 28.9976 1857.5 44.0001 1857.5 44.0001C1812.5 21 1774.15 -1.0037 1742 0.046916Z" fill="#6F7781"/>
<path d="M3821.5 55.2641C3702.87 35.3746 3601.63 27.3716 3570 49.5701C3513.95 88.9012 3448.8 89.1804 3380.5 106.23C3380.5 106.23 3434.55 101.803 3459.5 106.23C3492 111.998 3496.4 93.1981 3540.5 99.4976C3565 102.998 3579.48 71.5422 3603 79.4976C3641.32 92.4604 3643.35 76.6869 3682.5 66.4976C3719 56.9976 3821.5 55.2641 3821.5 55.2641Z" fill="#6F7781"/>
</svg>
