<svg width="4328" height="640" viewBox="0 0 4328 640" fill="none" xmlns="http://www.w3.org/2000/svg">
<path d="M0 99.4999C0 99.4999 229 28.4999 255.5 23.9999C310 23.9999 407.5 48.9999 500.5 48.9999C594 60.4999 606.5 33.4999 648.5 37.4999C698.5 30.994 776 0.762366 838 0.499916C873 0.351758 1069 41.0038 1096 37.4999C1161.5 28.9997 1240.7 107.019 1281 99.4999C1348 86.9998 1406 75.9999 1469 75.9999C1532 75.9999 1681.5 0.953747 1729 0.499916C1819 10 1889 26.0004 1965.5 36.9999C2042 47.9994 2117 104.5 2206 127.5C2295 150.499 2470.5 168.5 2539.5 168.5C2608.5 168.5 2706.92 102.673 2818 72.9999C2922.81 45.0022 3054 36.5004 3090.5 18.9999C3126 12 3230 62.5004 3403 77.4999C3576 92.4994 3677.5 68 3738.5 59.4999C3790.99 52.1853 3930 175 3967.5 179.5C4005 183.999 4117.5 143.5 4187.5 130C4257.5 116.499 4328 99.4999 4328 99.4999V639.5H0V99.4999Z" fill="url(#paint0_linear_67_32)"/>
<defs>
<linearGradient id="paint0_linear_67_32" x1="2164" y1="0.499512" x2="2164" y2="639.5" gradientUnits="userSpaceOnUse">
<stop stop-color="#242426"/>
<stop offset="0.140625" stop-color="#12131A"/>
</linearGradient>
</defs>
</svg>
