<?xml version="1.0" encoding="UTF-8"?><svg xmlns="http://www.w3.org/2000/svg" viewBox="0 0 20.40313 418.35555"><defs><style>.d{stroke:#907660;stroke-width:1.5px;}.d,.e{fill:none;stroke-miterlimit:10;}.e{stroke:#654e44;stroke-width:3px;}.f{fill:#d4bf64;}.g{fill:#fff;opacity:.35;}</style></defs><g id="a"/><g id="b"><g id="c"><g><rect class="f" x="1.5" y="1.5" width="17.40313" height="415.35555"/><line class="d" x1="1.47338" y1="89.19831" x2="18.97923" y2="103.88064"/><line class="d" x1="1.47338" y1="97.08141" x2="18.97923" y2="111.76373"/><line class="d" x1="1.47338" y1="62.24505" x2="18.97923" y2="76.92737"/><line class="d" x1="1.47338" y1="70.12814" x2="18.97923" y2="84.81047"/><line class="d" x1="1.47338" y1="35.29178" x2="18.97923" y2="49.9741"/><line class="d" x1="1.47338" y1="43.17488" x2="18.97923" y2="57.8572"/><line class="d" x1="1.47338" y1="8.33851" x2="18.97923" y2="23.02084"/><line class="d" x1="1.47338" y1="16.22161" x2="18.97923" y2="30.90393"/><line class="d" x1="1.44864" y1="116.15158" x2="18.95449" y2="130.8339"/><line class="d" x1="1.44864" y1="124.03468" x2="18.95449" y2="138.717"/><line class="d" x1="1.48575" y1="223.96465" x2="18.9916" y2="238.64697"/><line class="d" x1="1.48575" y1="231.84774" x2="18.9916" y2="246.53006"/><line class="d" x1="1.48575" y1="197.01138" x2="18.9916" y2="211.6937"/><line class="d" x1="1.48575" y1="204.89448" x2="18.9916" y2="219.5768"/><line class="d" x1="1.48575" y1="170.05811" x2="18.9916" y2="184.74044"/><line class="d" x1="1.48575" y1="177.94121" x2="18.9916" y2="192.62353"/><line class="d" x1="1.48575" y1="143.10485" x2="18.9916" y2="157.78717"/><line class="d" x1="1.48575" y1="150.98794" x2="18.9916" y2="165.67027"/><line class="d" x1="1.46101" y1="250.91791" x2="18.96686" y2="265.60024"/><line class="d" x1="1.46101" y1="258.80101" x2="18.96686" y2="273.48333"/><line class="d" x1="1.5105" y1="358.73098" x2="19.01634" y2="373.4133"/><line class="d" x1="1.5105" y1="366.61407" x2="19.01634" y2="381.2964"/><line class="d" x1="1.5105" y1="331.77771" x2="19.01634" y2="346.46003"/><line class="d" x1="1.5105" y1="339.66081" x2="19.01634" y2="354.34313"/><line class="d" x1="1.5105" y1="304.82444" x2="19.01634" y2="319.50677"/><line class="d" x1="1.5105" y1="312.70754" x2="19.01634" y2="327.38986"/><line class="d" x1="1.5105" y1="277.87118" x2="19.01634" y2="292.5535"/><line class="d" x1="1.5105" y1="285.75427" x2="19.01634" y2="300.4366"/><line class="d" x1="1.48575" y1="385.68424" x2="18.9916" y2="400.36657"/><line class="d" x1="1.48575" y1="393.56734" x2="18.9916" y2="408.24966"/><path class="g" d="M6.09288,416.85555H1.5V1.5H6.09288V416.85555Z"/><rect class="e" x="1.5" y="1.5" width="17.40313" height="415.35555"/></g></g></g></svg>