<svg width="4328" height="552" viewBox="0 0 4328 552" fill="none" xmlns="http://www.w3.org/2000/svg">
<path d="M0 228.5C0 228.5 320 116 338.5 80C357 44 620 130.5 662 130.5C704 130.5 805 53.1607 852.5 44C900 34.8393 1145 62.3116 1252 80C1332 93.225 1982 261.5 2021 267C2060 272.5 2475.9 -35.9999 2581 4C2686.1 43.9999 3046.5 162.5 3144.5 175.5C3242.5 188.5 4031 322.5 4121 299.5C4211 276.5 4328 228.5 4328 228.5V551.5H0V228.5Z" fill="#172841"/>
<path d="M2581 3.99997C2546.74 -9.03697 2479.47 14.9462 2403 53.0123C2403 53.0123 2435 37.9877 2454.5 43C2474 48.0123 2453.5 52.5 2468 58C2482.5 55.5 2495.5 51 2514.5 39C2533.5 27 2533 64.5 2540.5 64.5C2546.5 64.5 2549 31.5 2573.5 31.5C2598 31.5 2610.5 47 2623.5 58C2629 55.9375 2625 37.4311 2637.5 35.5C2650 33.5689 2687 41.5689 2687 41.5689C2642.44 26.4067 2605.04 13.1496 2581 3.99997Z" fill="#313C49"/>
<path d="M338.5 79.9998C333.979 88.7965 311.457 102.161 280 117.335C280 117.335 326.748 103.55 334.5 102C364.5 96 375.5 132 381 129.5C388.5 126.09 390.5 105 397 98.9998C403.5 92.9996 444.5 122 445.5 110.5C446.5 98.9998 443 93.9996 448.5 90.4998C454 87 498.5 93.4109 498.5 93.4109C422.703 75.4663 348.047 61.4224 338.5 79.9998Z" fill="#313C49"/>
<path d="M852.5 43.9999C836.928 47.003 815.607 57.3331 792.5 69.8636C792.5 69.8636 815.5 64.4999 833 64.4999C850.5 64.4999 872 71.4999 884 73.4999C896 75.5 927 60.3273 941.5 60.4999C956 60.6726 991.5 64.4999 1006 64.4999C1020.5 64.4999 1015 58.0852 1029 56.4999C1043 54.9147 1073.84 56.4999 1073.84 56.4999C977.249 45.9384 880.518 38.5965 852.5 43.9999Z" fill="#313C49"/>
</svg>
