<?xml version="1.0" encoding="UTF-8"?><svg xmlns="http://www.w3.org/2000/svg" viewBox="0 0 333.9682 94.5"><defs><style>.d{fill:#857150;}.e{fill:none;stroke:#4f432f;stroke-miterlimit:10;stroke-width:4.5px;}.f{fill:#fff;opacity:.3;}.g{fill:#b99073;opacity:.35;}</style></defs><g id="a"/><g id="b"><g id="c"><g><polygon class="d" points="2.25 2.25 331.7182 2.25 331.7182 12.41364 320.8321 20.29673 331.7182 29.86073 331.7182 39.3669 314.10269 47.25 331.7182 60.35478 331.7182 60.35478 331.7182 66.32017 323.07524 74.20327 331.7182 81.24886 331.7182 92.25 2.25 92.25 2.25 83.80323 10.34463 75.88416 2.25 62.99007 2.25 52.44892 16.13614 44.23737 2.25 37.20189 2.25 25.34309 19.51271 20.29673 2.25 14.42546 2.25 2.25"/><rect class="f" x="2.25" y="2.25" width="329.4682" height="7.03471"/><path class="g" d="M15.83725,20.56005c29.17398,4.02325,58.72179,4.39274,88.17138,4.22086,74.02694-.43205,151.21577-3.15239,224.89526-10.32931-.82028,3.09621-6.19265,4.71033-9.05017,6.15739l6.87577,6.88357c-6.90611,3.25713-14.88659,2.95765-22.51596,2.64793-44.7786-1.81782-89.61071-1.69661-134.42603-1.5751-26.53183,.07193-53.08954,.1448-79.55164,2.06857-30.28133,2.20143-58.73833,7.43922-87.98586-.70866,5.04565-4.28846,8.56821-10.05742,13.58725-9.36526Z"/><path class="g" d="M12.94769,46.00413c22.42447,1.89711,44.98335,2.20371,67.4511,.91674,29.39375-1.6837,58.7216-6.0915,88.13664-4.83344,39.59569,1.69348,80.1811,13.51188,118.06395,1.86817,6.34801-1.95113,12.53975-4.55052,19.09887-5.59071s13.76561-.31279,18.9802,3.79965c-3.54182,2.01824-7.08363,4.03649-10.62545,6.05473l9.10864,6.145c-19.53884,7.79617-41.1278,8.17383-62.16282,8.44636-23.98233,.31071-48.10557,.61172-71.78851-3.17869-16.61189-2.6587-32.95047-7.32245-49.74588-8.29078-12.48083-.71958-24.97854,.61773-37.40857,1.9531l-54.82473,5.88987c-15.45167,1.65999-31.15649,3.31262-46.44952,.54988,1.48243-6.15822,6.97161-11.14575,12.16607-13.72986Z"/><path class="g" d="M9.55155,73.97272c17.0372-15.7408,45.69942-.88247,68.76749,1.54711,27.71739,2.91926,55.6407-1.59286,83.51115-1.71102,18.37977-.07793,36.71075,1.75666,55.07894,2.41379,35.40204,1.26653,77.35829-1.95405,111.99476-9.38528,3.71079,2.03889-5.46456,3.74109-5.82865,7.36596-.42315,4.21284-7.94451,7.21545-12.15215,7.68751-75.78319,8.50214-152.35972-4.14709-228.57009-1.43465-26.33926,.93745-52.67184,3.71072-78.99619,2.4207,3.87718-3.94949,4.10713-6.97535,6.19474-8.90411Z"/><polygon class="e" points="2.25 2.25 331.7182 2.25 331.7182 12.41364 320.8321 20.29673 331.7182 29.86073 331.7182 39.3669 314.10269 47.25 331.7182 60.35478 331.7182 60.35478 331.7182 66.32017 323.07524 74.20327 331.7182 81.24886 331.7182 92.25 2.25 92.25 2.25 83.80323 10.34463 75.88416 2.25 62.99007 2.25 52.44892 16.13614 44.23737 2.25 37.20189 2.25 25.34309 19.51271 20.29673 2.25 14.42546 2.25 2.25"/></g></g></g></svg>