<?xml version="1.0" encoding="UTF-8"?><svg xmlns="http://www.w3.org/2000/svg" viewBox="0 0 333.9682 91.7228"><defs><style>.d{fill:#857150;}.e{fill:none;stroke:#4f432f;stroke-miterlimit:10;stroke-width:4.5px;}.f{fill:#fff;opacity:.3;}.g{fill:#b99073;opacity:.35;}</style></defs><g id="a"/><g id="b"><g id="c"><g><polygon class="d" points="331.7182 89.4728 2.25 89.4728 2.25 79.62279 13.89626 75.53073 2.25 62.71408 2.25 53.50125 24.57205 43.82018 2.25 33.161 2.25 33.161 2.25 27.37969 14.64397 20.37807 2.25 12.91167 2.25 2.25 331.7182 2.25 331.7182 10.43612 320.8321 25.48601 331.7182 30.60703 331.7182 40.82291 309.24256 47.74203 331.7182 55.59945 331.7182 67.09231 318.20267 75.84878 331.7182 82.96341 331.7182 89.4728"/><rect class="f" x="2.25" y="2.25" width="329.4682" height="7.03471" transform="translate(333.9682 11.53471) rotate(180)"/><path class="g" d="M8.58479,26.05782c12.26346-9.98344,29.56644-14.30903,46.4281-13.07654s36.18101,9.5012,52.92993,11.80512c57.39178,7.89461,115.50455-3.75376,173.42804-4.75933,15.16417-.26326,31.0783,.03494,44.4904-7.04579-1.1433,5.38895-2.7851,11.27349-7.4039,14.27594-2.77525,1.80406-6.1904,2.24753-9.47645,2.64567-41.36199,5.01152-82.92604,10.03241-124.5646,8.56292-43.35851-1.53018-86.31616-10.08773-129.70138-10.24241-12.17328-.0434-24.60045,.62718-35.95267,5.0224-3.24092,1.25478-6.55846,2.83645-10.01515,2.47682s-6.87262-3.70014-5.79328-7.00363c1.07837-3.30052,5.35699-4.00307,5.63096-2.66117Z"/><path class="g" d="M11.38872,51.10665c18.51298-10.97519,40.78669-14.04083,62.2909-13.17219,21.5042,.86863,42.66397,5.40837,63.94212,8.63724,44.15435,6.70026,90.94602,3.90054,135.36719-.71029,19.32805-2.00622,41.49592,.75976,58.72928,9.73805-3.17357,3.07219-11.27165,1.71674-15.684,1.91951-53.23024,2.44618-106.55457,2.84445-159.81541,1.19361-11.98316-.37142-24.02859-.85419-35.76964-3.27948-18.39305-3.79935-36.02761-12.34484-54.8087-12.24579-21.86625,.11533-41.96226,11.91902-63.56886,15.28077,2.04484-5.29832,7.30265-9.2023,9.31713-7.36143Z"/><path class="g" d="M9.6968,69.95823c10.34494-3.69996,21.416-4.85107,32.38582-5.45985,72.94337-4.04806,145.99042,14.63009,218.74536,8.0089,21.50486-1.95709,43.19459-6.11424,64.52044-2.72347l-10.00478,5.19407,7.11716,4.09765c-15.13414,2.64746-30.62296,.19247-45.96873-.55474-18.27874-.89002-36.57612,.6578-54.86789,1.21929-48.84228,1.49926-97.77847-4.03506-146.54429-.91875-21.91925,1.40072-44.33669,4.50163-65.54465-1.21134l4.37977-3.3113c-.58682-1.62917-2.01055-2.93107-4.21822-4.34046Z"/><polygon class="e" points="331.7182 89.4728 2.25 89.4728 2.25 79.62279 13.89626 75.53073 2.25 62.71408 2.25 53.50125 24.57205 43.82018 2.25 33.161 2.25 33.161 2.25 27.37969 14.64397 20.37807 2.25 12.91167 2.25 2.25 331.7182 2.25 331.7182 10.43612 320.8321 25.48601 331.7182 30.60703 331.7182 40.82291 309.24256 47.74203 331.7182 55.59945 331.7182 67.09231 318.20267 75.84878 331.7182 82.96341 331.7182 89.4728"/></g></g></g></svg>