<svg width="4328" height="239" viewBox="0 0 4328 239" fill="none" xmlns="http://www.w3.org/2000/svg">
<path d="M0 34.0774C0 34.0774 202.991 15.0371 303.556 10.0279C404.12 5.01869 635.247 47.4905 726.5 50.498C817.753 53.5055 879.904 27.0639 957.5 10.0284C970.972 7.07079 998.225 0.324205 1163.5 0.00160254C1317.17 -0.298354 1572.38 41.595 1665.5 54.1161C1890.5 70.5015 1854.5 24.5547 2052 24.5547C2092.97 24.5547 2309.5 20.0454 2309.5 20.0454C2309.5 20.0454 2427.64 18.9036 2512.5 20.0454C2546.64 20.5048 2880.5 44.5015 2880.5 44.5015C2880.5 44.5015 3041.91 62.8291 3120.5 64.0015C3257 66.0377 3319.5 46.5015 3319.5 46.5015C3319.5 46.5015 3509.49 6.06829 3597 7.50195C3635.47 7.50195 3831.5 18.502 3831.5 18.502C3831.5 18.502 4040.32 46.2559 4097 48.502C4179 48.502 4328 34.08 4328 34.08V238.498H0V34.0774Z" fill="#ACC3E3"/>
<path d="M0 56.2909C0 56.2909 174.935 52.9523 275.5 48.4996C376.065 44.047 644 45.6126 732.5 55.0001C821 64.3876 885.904 47.1429 963.5 32.0001C976.972 29.3711 1047.72 21.7867 1213 21.4999C1366.67 21.2333 1562.38 43.8697 1655.5 54.9997C1880.5 69.5646 1855 53.5 2052.5 53.5C2093.47 53.5 2252.03 53.5 2293 53.5C2377.59 46.6645 2470.14 43.4851 2555 44.5C2589.14 44.9084 2842.39 51.9977 2876.5 53.5C2953.09 71.1499 3043.91 67.4579 3122.5 68.5C3259 70.31 3192.03 63.9248 3328.5 60.5C3413.01 37.7367 3517.49 26.2256 3605 27.5C3643.47 27.5 3795.79 36.4798 3834 41C3889.82 51.0291 4041.32 54.2944 4098 56.2909C4180 56.2909 4328 56.2909 4328 56.2909V238H0V56.2909Z" fill="#A1B7D7"/>
<path d="M0 100.517C0 100.517 162.435 78.3937 263 75.0002C363.565 71.6068 642.5 61.3458 731 68.5002C819.5 75.6546 905.404 63.5406 983 52C996.472 49.9964 1072.72 47.7188 1238 47.5003C1391.67 47.2971 1567.88 61.0176 1661 69.5C1886 80.6001 1855 81 2052.5 81C2093.47 81 2294.53 91.5308 2335.5 91.5308C2420.09 86.3213 2581.14 81.2265 2666 82C2700.14 82.3112 2950.89 90.3551 2985 91.5C3061.59 104.951 3109.41 90.7058 3188 91.5C3324.5 92.8794 3237.53 82.6101 3374 80C3458.51 62.6517 3543.49 69.5288 3631 70.5C3669.47 70.5 3827.29 74.055 3865.5 77.5C3921.32 85.1433 4051.32 87.4784 4108 89C4190 89 4328 100.517 4328 100.517V239H0V100.517Z" fill="#98AFD0"/>
<path d="M0 189.826C0 189.826 200.935 205.705 301.5 204.5C402.065 203.295 654 187.286 742.5 189.826C831 192.367 926.404 193.924 1004 189.826C1017.47 189.115 1091.72 189.904 1257 189.826C1410.67 189.754 1567.38 201.488 1660.5 204.5C1885.5 208.442 1891 189.826 2088.5 189.826C2129.47 189.826 2313.53 189.826 2354.5 189.826C2439.09 187.977 2642.14 189.552 2727 189.826C2761.14 189.937 2991.89 204.094 3026 204.5C3102.59 209.277 3128.91 204.218 3207.5 204.5C3344 204.99 3299.03 190.753 3435.5 189.826C3520.01 183.666 3584.49 189.481 3672 189.826C3710.47 189.826 3861.79 203.277 3900 204.5C3955.82 207.214 4082.82 189.286 4139.5 189.826C4221.5 189.826 4328 189.826 4328 189.826V239H0V189.826Z" fill="#91A9CA"/>
</svg>
