<svg xmlns="http://www.w3.org/2000/svg" viewBox="0 0 232.97 178.25"><defs><style>.cls-1{fill:#2e3192;}.cls-1,.cls-3,.cls-5{stroke:#231f20;}.cls-1,.cls-2,.cls-3,.cls-4,.cls-5{stroke-miterlimit:10;}.cls-2{fill:#fff;}.cls-14,.cls-2{stroke:#fff;}.cls-3{fill:#231f20;}.cls-4{fill:#f9ed32;stroke:#f7941d;}.cls-5{fill:#262262;}.cls-6,.cls-9{fill:#161146;}.cls-7{fill:#27aae1;opacity:0.41;}.cls-8{fill:#2b3990;opacity:0.23;}.cls-9{opacity:0.57;}.cls-10{fill:#8dc63f;opacity:0.77;}.cls-11{fill:#39b54a;opacity:0.64;}.cls-12,.cls-13{fill:#00a79d;}.cls-12{opacity:0.74;}.cls-13{opacity:0.85;}.cls-14{fill:none;stroke-linecap:round;stroke-linejoin:round;}</style></defs><g id="Layer_2" data-name="Layer 2"><g id="Layer_27" data-name="Layer 27"><path class="cls-1" d="M.76,149.22c.63-32.57,1-49.17,4.81-64.74,5.53-22.73,14.07-35.82,16.19-39,6-8.86,13.79-20.19,28.48-26A46.69,46.69,0,0,1,71.6,16c14.71,1.23,24.58,9.63,30.22,14.42C127.26,52.1,132,87.67,133,97.05v1.44a67.49,67.49,0,0,1,11.55-11c7.73-5.77,14.63-8.28,24.36-11.83,5.38-2,11.47-3.59,23.66-6.84,1.85-.5,7.11-1.88,14.07-3a99.42,99.42,0,0,1,11.18-1.07c5.14-.2,7.44.1,9.73,1.15.48.22,5.22,2.44,5,4.76-.18,1.61-2.68,2.45-5.81,3.59-3.46,1.25-8.47,3.14-14.71,5.74a79,79,0,0,0-10.21,10.21c-1,1.19-1.9,2.35-9.83,14.26-6.26,9.4-8.12,12.32-9.45,14.42-.52.82-.34.55-5.21,8.44-4.13,6.7-4.72,7.5-9,14.42-8.29,13.28-10,16.54-11,20.77a68.78,68.78,0,0,0-1.31,8.7c-.3,3.82.3,6.56-.17,6.56L.51,177.69C.5,171.11.53,161.23.76,149.22Z"/><path class="cls-2" d="M118,177.75l1-2.38c5-12,5.44-22,5.81-32.78.42-12.17-.53-20.91-1.92-31.47-2.77-20.94-7.24-32.11-8.38-34.87C111.75,69.61,103,48.32,93.33,48.87,91.6,49,88.05,51.75,81,57.3c-8.78,6.92-9.67,8.36-12.46,8.5-1.66.09-3.74-.31-15.07-9.15C44.88,50,44.74,49.13,43,49,29.44,47.63,22.42,72.33,19.18,81c-5.44,14.61-6.28,26-7.3,41.51-1.5,22.61-2.38,39.18,6.85,55.22Z"/><path class="cls-1" d="M60.16,18.66c-.07-.62-1-8.89,5.46-14.38a16.28,16.28,0,0,1,17-2.39c-.83.19-7.58,1.86-10.13,8a12.72,12.72,0,0,0-.82,6.29A9.41,9.41,0,0,1,80.06,11a9.7,9.7,0,0,1,7.26,3.71L78,22.36"/><ellipse class="cls-3" cx="97.7" cy="77.35" rx="4.81" ry="7.88"/><path class="cls-4" d="M60.1,79.47H75.72L68.3,91Z"/><ellipse class="cls-3" cx="38.12" cy="77.35" rx="4.81" ry="7.88"/><path class="cls-5" d="M2.55,103.21S64.41,158.31,133,98.49c0,0,9.93-12.6,22.92-17.71l25.42,39.94-19.9,32.16s-6.73,8.6-5.69,24.87L.51,177.69Z"/><path class="cls-6" d="M145.61,177.19v-16a49.25,49.25,0,0,1-3.56-18.64,45.75,45.75,0,0,0,2,6.23c1.93,4.83,3.31,8.28,6.63,10.09a10.83,10.83,0,0,0,6.85,1,49.5,49.5,0,0,0-2.23,17.42Z"/><path class="cls-7" d="M122.86,106a60.17,60.17,0,0,0,2.46-13.08c1.59-21.2-8.68-37.36-13.57-45A94.8,94.8,0,0,0,83,19.13a74.46,74.46,0,0,1,23.41,16.3,78.47,78.47,0,0,1,12.77,17.86,97.13,97.13,0,0,1,6.51,15.26c.76,2.17,4.73,13.69,5.6,23.14.08.86.64,7.28.64,7.28h0l-4,3C126.7,103,125,104.3,122.86,106Z"/><path class="cls-7" d="M160.1,79.39a267.21,267.21,0,0,1,37.14-10.1c9.35-1.81,17.61-2.85,27.24-.3a47.85,47.85,0,0,1,7.13,2.5,2.53,2.53,0,0,0,.23-1.22c-.22-2.65-5.26-4.16-6.35-4.49-2.07-.62-4.8-1.07-13.39-.12-4.76.53-7.59,1-7.59,1a238.73,238.73,0,0,0-28.1,7C172.23,75,166.64,76.85,160.1,79.39Z"/><path class="cls-8" d="M5.57,84.48C8.63,91.26,15.65,104.15,30,113.07c20.1,12.54,41.45,9,54.33,6.93a106.11,106.11,0,0,0,47.64-21c-4.27,3.63-26.18,21.75-52.15,25.51a113.45,113.45,0,0,1-24,.51A100.55,100.55,0,0,1,37,121.32,103.33,103.33,0,0,1,2.55,103.21a71.72,71.72,0,0,1,3-18.73Z"/><path class="cls-9" d="M211.66,79.46q-4.84,4.14-9.68,8.36-31.26,27.18-59.93,54.7c-.24,6.84,2.73,13,7.86,15.74a14.26,14.26,0,0,0,7.6,1.6c.2-.55.5-1.37.91-2.36,1.91-4.57,3.89-7.31,6.64-11.56,2.52-3.89,1.61-2.75,4.93-8,4.09-6.44,4.78-7.08,7.6-11.77,1.9-3.17,1.95-3.5,4-6.93,1.56-2.56,2.74-4.36,4.88-7.6,4.66-7.06,7-10.59,7.95-12A128.25,128.25,0,0,1,203,88,79.77,79.77,0,0,1,211.66,79.46Z"/><path class="cls-10" d="M205.61,66.51a83.54,83.54,0,0,1,15.52-.34,21.09,21.09,0,0,1,5.27,1.11,20,20,0,0,1,5.44,3,7,7,0,0,0-1-1.87c-1.33-1.72-3.75-3.13-10.55-3.37A55.11,55.11,0,0,0,205.61,66.51Z"/><path class="cls-11" d="M131.92,99a118,118,0,0,0-5.18-27.25,91.46,91.46,0,0,0-10.51-23.55A83.4,83.4,0,0,0,94.75,25.64a120.79,120.79,0,0,1,19,22.46,117.67,117.67,0,0,1,9.39,17.26A113.58,113.58,0,0,1,131.92,99Z"/><path class="cls-12" d="M60.16,18.66s.41-20.76,21-17.35C81.13,1.31,63.07-.16,60.16,18.66Z"/><path class="cls-13" d="M86.54,14.58s-8.06-6.05-15,3C71.57,17.55,76.8,6.08,86.54,14.58Z"/><path class="cls-14" d="M97.7,140.56a2.37,2.37,0,0,1,1.36-2.2,4.68,4.68,0,0,1,2-.41,50.85,50.85,0,0,0,6.76,0c1.64-.25,3.06-2.61,3.2-3"/><path class="cls-14" d="M124.24,140.56a2.36,2.36,0,0,0-1.35-2.2,4.72,4.72,0,0,0-2-.41,50.87,50.87,0,0,1-6.76,0c-1.63-.25-3-2.61-3.2-3"/><path class="cls-14" d="M111.2,134.63c.88-.41,1.21-.58,1.26-.62h0a13.76,13.76,0,0,1-.69,1.41"/><path class="cls-14" d="M110.74,134.63c-.87-.41-1.2-.58-1.25-.62h0s.34.72.69,1.41"/><path class="cls-14" d="M100.84,141.35a3.55,3.55,0,0,1,2,.2,3.09,3.09,0,0,1,1.88,1.95,1.08,1.08,0,0,1,0,.42s0,.06,0,.08.51-.13.67-.2a2.62,2.62,0,0,1,1.78.1,4.5,4.5,0,0,1,2.31,2.11,9.94,9.94,0,0,1,1.51,5"/><path class="cls-14" d="M121.11,141.35a3.55,3.55,0,0,0-2,.2,3,3,0,0,0-1.88,1.95,1.36,1.36,0,0,0,0,.42s0,.06,0,.08-.51-.13-.68-.2a2.6,2.6,0,0,0-1.77.1,4.53,4.53,0,0,0-2.32,2.11,10,10,0,0,0-1.51,5"/></g></g></svg>