<?xml version="1.0" encoding="utf-8"?>
<!-- Generator: Adobe Illustrator 16.0.4, SVG Export Plug-In . SVG Version: 6.00 Build 0)  -->
<!DOCTYPE svg PUBLIC "-//W3C//DTD SVG 1.1//EN" "http://www.w3.org/Graphics/SVG/1.1/DTD/svg11.dtd">
<svg version="1.1" xmlns="http://www.w3.org/2000/svg" xmlns:xlink="http://www.w3.org/1999/xlink" x="0px" y="0px" width="2605px"
	 height="756px" viewBox="0 0 2605 756" enable-background="new 0 0 2605 756" xml:space="preserve">
<g id="Layer_2" display="none">
	<rect x="-199.098" display="inline" stroke="#FFFFFF" stroke-miterlimit="10" width="3003.195" height="1064.901"/>
</g>
<g id="Layer_1" xmlns:sketch="http://www.bohemiancoding.com/sketch/ns">
	<title>HACKTX</title>
	<desc>Created with Sketch.</desc>
	<g id="Page-1" sketch:type="MSPage">
		<g id="Artboard" transform="translate(-3573.000000, -5997.000000)" sketch:type="MSArtboardGroup">
			<g id="HACKTX" transform="translate(3573.000000, 5997.000000)" sketch:type="MSLayerGroup">
				<g id="X" transform="translate(2165.000000, 8.000000)" sketch:type="MSShapeGroup">
					<path id="Rectangle-20" fill="none" stroke="#FFFFFF" stroke-width="2" stroke-miterlimit="10" d="M8,40L48,0l115,340l-40,40
						L8,40z"/>
					<path id="Rectangle-19" fill="none" stroke="#FFFFFF" stroke-width="2" stroke-miterlimit="10" d="M324,700h116l-40,40H284
						L324,700z"/>
					<path id="Rectangle-16" fill="none" stroke="#FFFFFF" stroke-width="2" stroke-miterlimit="10" d="M123,380l40-40L40,700L0,740
						L123,380z"/>
					<path id="Rectangle-16-Copy" fill="none" stroke="#FFFFFF" stroke-width="2" stroke-miterlimit="10" d="M290,40l40-40l-85,258
						l-40,40L290,40z"/>
					<path id="Rectangle-18" fill="none" stroke="#FFFFFF" stroke-width="2" stroke-miterlimit="10" d="M40,700h103l-40,40H0L40,700
						z"/>
					<path id="Rectangle-21" fill="none" stroke="#FFFFFF" stroke-width="2" stroke-miterlimit="10" d="M194,463l40-40l90,277
						l-40,40L194,463z"/>
					<path id="Path" fill="#FFFFFF" d="M330,0l-85,258L162,0H48l115,340L40,700h103l91-277l90,277h116L317,340L432,0H330z"/>
				</g>
				<g id="T" transform="translate(1762.000000, 8.000000)" sketch:type="MSShapeGroup">
					<path id="Rectangle-12" fill="none" stroke="#FFFFFF" stroke-width="2" stroke-miterlimit="10" d="M0,40L40,0v100L0,140V40z"/>
					<path id="Rectangle-12-Copy" fill="none" stroke="#FFFFFF" stroke-width="2" stroke-miterlimit="10" d="M40,100h340l-40,40H0
						L40,100z"/>
					<path id="Rectangle-12-Copy-2" fill="none" stroke="#FFFFFF" stroke-width="2" stroke-miterlimit="10" d="M155,700h110l-40,40
						H115L155,700z"/>
					<path id="Rectangle-12-Copy-3" fill="none" stroke="#FFFFFF" stroke-width="2" stroke-miterlimit="10" d="M115,140l40-40v600
						l-40,40V140z"/>
					<path id="Path_1_" fill="#FFFFFF" d="M40,100h115v600h110V100h115V0H40V100z"/>
				</g>
				<g id="K" transform="translate(1340.000000, 8.000000)" sketch:type="MSShapeGroup">
					<path id="Rectangle-26" fill="none" stroke="#FFFFFF" stroke-width="2" stroke-miterlimit="10" d="M144,461l40-40l107,279
						l-40,40L144,461z"/>
					<path id="Rectangle-25" fill="none" stroke="#FFFFFF" stroke-width="2" stroke-miterlimit="10" d="M254,40l40-40L150,305
						l-40,40L254,40z"/>
					<path id="Rectangle-23" fill="none" stroke="#FFFFFF" stroke-width="2" stroke-miterlimit="10" d="M40,700h110l-40,40H0L40,700
						z"/>
					<path id="Rectangle-23-Copy" fill="none" stroke="#FFFFFF" stroke-width="2" stroke-miterlimit="10" d="M291,700h113l-40,40
						H251L291,700z"/>
					<path id="Rectangle-22" fill="none" stroke="#FFFFFF" stroke-width="2" stroke-miterlimit="10" d="M0,40L40,0v700L0,740V40z"/>
					<path id="Path_2_" fill="#FFFFFF" d="M291,700h113L251,312L404,0H294L150,305V0H40v700h110V485l34-64L291,700z"/>
				</g>
				<g id="C" transform="translate(904.000000, 0.000000)">
					<path id="Path-Copy-3" sketch:type="MSShapeGroup" fill="none" stroke="#FFFFFF" stroke-width="2" stroke-miterlimit="10" d="
						M225,487v100c0,50-22,68-57,68s-57-18-57-68c0,0-18.657,110.19,89.343,110.19S265,447,265,447L225,487z"/>
					<path id="Path-Copy-2" sketch:type="MSShapeGroup" fill="none" stroke="#FFFFFF" stroke-width="2" stroke-miterlimit="10" d="
						M111,209c0-50,22-69,57-69s57,19,57,69v75l40-40c0,0,48.712-174.189-59.288-174.189S111,209,111,209z"/>
					<path id="Rectangle-28" sketch:type="MSShapeGroup" fill="none" stroke="#FFFFFF" stroke-width="2" stroke-miterlimit="10" d="
						M265,244h104l-40,40H225L265,244z"/>
					<path id="Path-Copy-7" sketch:type="MSShapeGroup" fill="none" stroke="#FFFFFF" stroke-width="2" stroke-miterlimit="10" d="
						M1,580V216c0-65,19.312-108.042,43.2-131.8c23.888-23.758,40-40,40-40v534.918L168,655c0,0,169.307,6.148,155.8,18.8
						c-19.659,19.719-4.774,4.867-40,40C256.437,741.352,216.669,756,165,756C57,756,1,692,1,580z"/>
					<g id="Mask" sketch:type="MSShapeGroup">
						<path id="path-1_2_" fill="none" stroke="#FFFFFF" stroke-width="2" stroke-miterlimit="10" d="M1,540v40
							c0,112,56,176,164,176c51.669,0,91.437-14.648,118.8-42.2c35.226-35.133,20.341-20.281,40-40"/>
					</g>
					<path id="Path_3_" sketch:type="MSShapeGroup" fill="#FFFFFF" d="M265,447v100c0,50-22,68-57,68s-57-18-57-68V169
						c0-50,22-69,57-69s57,19,57,69v75h104v-68C369,64,313,0,205,0S41,64,41,176v364c0,112,56,176,164,176s164-64,164-176v-93H265z"
						/>
				</g>
				<g id="A" transform="translate(438.000000, 8.000000)" sketch:type="MSShapeGroup">
					<path id="Rectangle-7" fill="none" stroke="#FFFFFF" stroke-width="2" stroke-miterlimit="10" d="M40,700h101l-40,40H0L40,700z
						"/>
					<path id="Rectangle-7-Copy" fill="none" stroke="#FFFFFF" stroke-width="2" stroke-miterlimit="10" d="M314,700h111l-40,40H274
						L314,700z"/>
					<path id="Rectangle-10" fill="none" stroke="#FFFFFF" stroke-width="2" stroke-miterlimit="10" d="M187,164l40-40l88,576
						l-40.5,40L187,164z"/>
					<path id="Rectangle-11" fill="none" stroke="#FFFFFF" stroke-width="2" stroke-miterlimit="10" d="M160,573h135l-40,40H120
						L160,573z"/>
					<path id="Rectangle-11_1_" fill="none" stroke="#FFFFFF" stroke-width="2" stroke-miterlimit="10" d="M112,40l40-40L40,700
						L0,740L112,40z"/>
					<path id="Path_4_" fill="#FFFFFF" d="M313,0H152L40,700h101l19-127h135l19,127h111L313,0z M227,124l53,354H174L227,124z"/>
				</g>
				<g id="H" transform="translate(0.000000, 8.000000)" sketch:type="MSShapeGroup">
					<path id="Rectangle-2-Copy" fill="none" stroke="#FFFFFF" stroke-width="2" stroke-miterlimit="10" d="M235,40l40-40v700
						l-40,40V40z"/>
					<path id="Rectangle-3-Copy-2" fill="none" stroke="#FFFFFF" stroke-width="2" stroke-miterlimit="10" d="M150,400h125l-40,40
						H110L150,400z"/>
					<path id="Rectangle-3" fill="none" stroke="#FFFFFF" stroke-width="2" stroke-miterlimit="10" d="M40,700h110l-40,40H0L40,700z
						"/>
					<path id="Rectangle-3-Copy" fill="none" stroke="#FFFFFF" stroke-width="2" stroke-miterlimit="10" d="M275,700h112l-48,40H235
						L275,700z"/>
					<path id="Rectangle-2" fill="none" stroke="#FFFFFF" stroke-width="2" stroke-miterlimit="10" d="M0,40L40,0v700L0,740V40z"/>
					<path id="Path_5_" fill="#FFFFFF" d="M150,400h125v300h112V0H275v300H150V0H40v700h110V400z"/>
				</g>
			</g>
		</g>
	</g>
</g>
</svg>
