<svg width="414" height="287" viewBox="0 0 414 287" fill="none" xmlns="http://www.w3.org/2000/svg">
<path d="M0 50.8186C0 50.8186 47 -4.68136 80 0.31863C113 5.31862 168 3.31858 199 3.31858C256.513 3.31858 414 80 414 80V286.319H0V50.8186Z" fill="#0F121A"/>
<path d="M158 3.67847C154.704 3.69925 151.363 3.71237 148 3.7136C148 3.7136 165.734 12.0722 176.5 18.5C189.383 26.1919 197.718 29.5722 208 40.5C213.314 46.1471 220 56.3186 220 56.3186H239C239 56.3186 230.846 46.149 224.75 40.4912C213.217 29.7873 204.842 25.9648 191 18.4824C178.574 11.7659 158 3.67847 158 3.67847Z" fill="#2A2F36"/>
<path d="M0 142.043C0 142.043 61.8397 96.8591 105 73.9133C147.5 51.3186 186.374 61.4288 231.5 50.3186C264.5 42.1939 290.5 23.8186 317 23.8186C343.5 23.8186 414 65.3971 414 65.3971V286.319H0V142.043Z" fill="#171F2C"/>
<path d="M160.5 73.9134C167.191 66.9643 178.5 56.9971 178.5 56.9971C185.424 56.5361 192.409 56.0993 199.5 55.439C199.5 55.439 189.509 66.4983 183.5 73.9134C175.221 84.129 169.758 89.4358 163.5 101C157.441 112.195 152 131.5 152 131.5H122.5C122.5 131.5 131.159 111.171 139 99.5C146.241 88.7228 151.394 83.3709 160.36 74.0592L160.5 73.9134Z" fill="#5C6879"/>
<path d="M0 157C0 157 56.8732 119 107.5 119C209.5 119 414 152.5 414 152.5V286H0V157Z" fill="#9DB4D4"/>
<path d="M234.615 188.729C197.756 162.289 141 120 141 120C164.827 121.198 191.542 123.476 218.68 126.294C218.68 126.294 272.201 169.567 310.5 188.729C378 222.5 414 232.5 414 232.5V281.5C414 281.5 327 255 234.615 188.729Z" fill="#D9E1EB"/>
<path d="M234.615 188.729C197.756 162.289 141 120 141 120H140C140 120 210.643 173.769 248.5 201C305.5 242 414 284.5 414 284.5V281.5C414 281.5 327 255 234.615 188.729Z" fill="#E1E8F1"/>
<path d="M310.5 188.729C272.201 169.567 218.68 126.294 218.68 126.294C216.45 126.063 214.223 125.835 212 125.611C212 125.611 266.773 170.294 306.5 192.5C346.254 214.721 414 238.5 414 238.5V232.5C414 232.5 378 222.5 310.5 188.729Z" fill="#CDD5E0"/>
</svg>
