<svg width="414" height="281" viewBox="0 0 414 281" fill="none" xmlns="http://www.w3.org/2000/svg">
<path d="M98 39.8316C66.3048 17.4898 0 0 0 0V63C0 63 39.1673 86.6372 65.5 101.332C98.0371 119.488 104.675 144.569 135.5 165.5C167.34 187.12 186.984 181.413 220.5 200.332C249.118 216.485 266.416 241.766 294.5 258.832C337.635 285.043 414 280.301 414 280.301V218.5C414 218.5 352.307 225.867 312 200.332C284.24 182.745 278.23 157.953 249.5 142C217.862 124.431 197.619 122.124 168 101.332C140.2 81.8166 125.762 59.4007 98 39.8316Z" fill="#D9E1EB"/>
<path d="M294.5 258.832C337.635 285.043 414 280.301 414 280.301V278C414 278 343.766 279.232 301 258.832C268 243.09 254.448 215.749 223 197.5C191.821 179.406 168.321 182.499 138 163C106.623 142.822 99.6036 118 67.5 99C43 84.5 0 58.5 0 58.5V63C0 63 39.1673 86.6372 65.5 101.332C98.0371 119.488 104.675 144.569 135.5 165.5C167.34 187.12 186.984 181.413 220.5 200.332C249.118 216.485 266.416 241.766 294.5 258.832Z" fill="#E1E8F1"/>
<path d="M97.8818 39.7434C66.2248 17.4511 0 0 0 0V10C0 10 66.5453 27.529 98.3555 49.9209C126.218 69.5339 140.6 97.4411 168.5 117C198.227 137.839 216.247 134.392 248 152C276.834 167.989 280.639 192.374 308.5 210C348.953 235.593 414 230.5 414 230.5V218.016C414 218.016 351.882 225.367 311.624 199.888C283.897 182.34 277.894 157.604 249.199 141.685C217.599 124.156 197.381 121.854 167.797 101.107C140.031 81.6353 125.61 59.2691 97.8818 39.7434Z" fill="#CDD5E0"/>
</svg>
