<svg width="414" height="151" viewBox="0 0 414 151" fill="none" xmlns="http://www.w3.org/2000/svg">
<path d="M207 59C124.033 45.4405 0 0 0 0V80C0 80 124.302 123.113 207 137C286.9 150.417 414 151 414 151V69.5C414 69.5 286.878 72.0546 207 59Z" fill="#D9E1EB"/>
<path d="M207 137C286.9 150.417 414 151 414 151V147.5C414 147.5 286.865 146.972 207 133.5C124.156 119.526 0 76 0 76V80C0 80 124.302 123.113 207 137Z" fill="#E1E8F1"/>
<path d="M207 59C124.033 45.4405 0 0 0 0V5.5C0 5.5 124.131 49.8324 207 63C286.926 75.6999 414 73 414 73V69.5C414 69.5 286.878 72.0546 207 59Z" fill="#CCD5E0"/>
</svg>
