<svg width="414" height="323" viewBox="0 0 414 323" fill="none" xmlns="http://www.w3.org/2000/svg">
<path d="M0 89C0 89 86.3534 91.9894 166.099 75.5C201.059 68.271 269.52 69.6742 314.74 55.5C377.777 35.7408 414 0.5 414 0.5V12V89C414 89 383.772 118.53 325.713 138.044C276.672 154.527 202.201 159.371 166.099 179C79.3769 226.15 0 323 0 323V235.5V227.5C0 227.5 78.7606 176.5 75.8169 164.5C72.8732 152.5 0 164.5 0 164.5V94.5V89Z" fill="#D9E1EB"/>
<path d="M166.099 179C79.3769 226.15 0 323 0 323V314.5C0 314.5 89.0702 212.208 166.099 175C224.111 146.978 264.596 152.336 325.713 132C386.83 111.664 414 83 414 83V89C414 89 383.772 118.53 325.713 138.044C276.672 154.527 202.201 159.371 166.099 179Z" fill="#E1E8F1"/>
<path d="M0 89C0 89 86.3534 91.9894 166.099 75.5C201.059 68.271 269.52 69.6742 314.74 55.5C377.777 35.7408 414 0.5 414 0.5V12C414 12 377.089 39.0312 314.74 60C259.11 78.709 223.46 70.5 166.099 82.5C102.519 95.801 0 94.5 0 94.5V89Z" fill="#CCD5E0"/>
<path d="M75.8169 164.5C75.9256 164.943 75.9229 165.439 75.8169 165.984V167.5C75.8169 167.5 72.2924 173.371 69.8313 177C65.7621 183 0 235.5 0 235.5V227.5C0 227.5 73.0521 180.196 75.8169 165.984V164.5Z" fill="#CCD5E0"/>
</svg>
