<svg width="414" height="245" viewBox="0 0 414 245" fill="none" xmlns="http://www.w3.org/2000/svg">
<path d="M265.359 102C328.686 70.2868 414 0.5 414 0.5V75.5C414 75.5 326.915 136.716 265.359 165C215.402 187.954 176.349 182.708 123.701 198.5C72.5561 213.841 0 245 0 245V183C0 183 72.6469 152.481 123.701 137C176.491 120.992 216.021 126.708 265.359 102Z" fill="#D9E1EB"/>
<path d="M123.701 198.5C72.5561 213.841 0 245 0 245V243C0 243 74.2848 210.839 123.701 195.5C177.955 178.659 214.196 187.217 265.359 162.5C318.142 137 414 73 414 73V75.5C414 75.5 326.915 136.716 265.359 165C215.402 187.954 176.349 182.708 123.701 198.5Z" fill="#E1E8F1"/>
<path d="M265.359 102C328.686 70.2868 414 0.5 414 0.5V7.5C414 7.5 307.258 93.4374 265.359 108.5C217.996 125.527 172.266 129.806 123.701 143C74.0997 156.476 0 186.5 0 186.5V183C0 183 72.6469 152.481 123.701 137C176.491 120.992 216.021 126.708 265.359 102Z" fill="#CDD5E0"/>
</svg>
